G04 #@! TF.GenerationSoftware,KiCad,Pcbnew,(5.99.0-1279-g292a9fadd)*
G04 #@! TF.CreationDate,2020-04-12T10:51:11+03:00*
G04 #@! TF.ProjectId,cabeza-de-carne,63616265-7a61-42d6-9465-2d6361726e65,rev?*
G04 #@! TF.SameCoordinates,Original*
G04 #@! TF.FileFunction,Copper,L2,Bot*
G04 #@! TF.FilePolarity,Positive*
%FSLAX46Y46*%
G04 Gerber Fmt 4.6, Leading zero omitted, Abs format (unit mm)*
G04 Created by KiCad (PCBNEW (5.99.0-1279-g292a9fadd)) date 2020-04-12 10:51:11*
%MOMM*%
%LPD*%
G01*
G04 APERTURE LIST*
G04 #@! TA.AperFunction,ComponentPad*
%ADD10O,1.930400X1.930400*%
G04 #@! TD*
G04 #@! TA.AperFunction,ComponentPad*
%ADD11R,1.930400X1.930400*%
G04 #@! TD*
G04 #@! TA.AperFunction,ComponentPad*
%ADD12R,2.000000X2.000000*%
G04 #@! TD*
G04 #@! TA.AperFunction,ComponentPad*
%ADD13O,2.000000X2.000000*%
G04 #@! TD*
G04 #@! TA.AperFunction,ComponentPad*
%ADD14C,1.800000*%
G04 #@! TD*
G04 #@! TA.AperFunction,ComponentPad*
%ADD15R,1.800000X1.800000*%
G04 #@! TD*
G04 #@! TA.AperFunction,ComponentPad*
%ADD16O,2.540000X2.540000*%
G04 #@! TD*
G04 #@! TA.AperFunction,ComponentPad*
%ADD17R,2.540000X2.540000*%
G04 #@! TD*
G04 #@! TA.AperFunction,ComponentPad*
%ADD18O,1.600000X1.600000*%
G04 #@! TD*
G04 #@! TA.AperFunction,ComponentPad*
%ADD19C,1.600000*%
G04 #@! TD*
G04 #@! TA.AperFunction,ComponentPad*
%ADD20R,1.600000X1.600000*%
G04 #@! TD*
G04 #@! TA.AperFunction,Conductor*
%ADD21C,0.381000*%
G04 #@! TD*
G04 #@! TA.AperFunction,Conductor*
%ADD22C,0.254000*%
G04 #@! TD*
G04 APERTURE END LIST*
D10*
X232613200Y35966400D03*
X232613200Y38506400D03*
X232613200Y41046400D03*
D11*
X232613200Y43586400D03*
D12*
X248716800Y40449500D03*
D13*
X248716800Y48069500D03*
D14*
X248412000Y26771600D03*
D15*
X245872000Y26771600D03*
D16*
X232473501Y30289499D03*
X237553501Y30289499D03*
D17*
X242633501Y30289499D03*
D18*
X227279200Y33223200D03*
D19*
X234899200Y33223200D03*
D18*
X248767600Y37744400D03*
D19*
X248767600Y30124400D03*
D18*
X234442000Y52451000D03*
D19*
X226822000Y52451000D03*
D18*
X243738400Y43383200D03*
D19*
X236118400Y43383200D03*
D18*
X236537500Y52451000D03*
D19*
X244157500Y52451000D03*
D18*
X236118400Y40335200D03*
D19*
X243738400Y40335200D03*
D18*
X245770400Y30124400D03*
D19*
X245770400Y37744400D03*
D10*
X228041200Y38506400D03*
X228041200Y41046400D03*
D11*
X228041200Y43586400D03*
D10*
X249047000Y52324000D03*
D11*
X246507000Y52324000D03*
D10*
X241350800Y26111200D03*
X238810800Y26111200D03*
X236270800Y26111200D03*
D11*
X233730800Y26111200D03*
D19*
X245705000Y47434500D03*
D20*
X243205000Y47434500D03*
D19*
X232471600Y47955200D03*
D20*
X229971600Y47955200D03*
D19*
X237201700Y33794700D03*
X242201700Y33794700D03*
X240204000Y49377600D03*
X235204000Y49377600D03*
X240204000Y46329600D03*
X235204000Y46329600D03*
X242185200Y36830000D03*
X237185200Y36830000D03*
D21*
X232473501Y30289499D02*
X234124499Y30289499D01*
X234124499Y30289499D02*
X237201700Y33366700D01*
X237201700Y33366700D02*
X237201700Y33794700D01*
X243738400Y40335200D02*
X248602500Y40335200D01*
X248602500Y40335200D02*
X248716800Y40449500D01*
X236118400Y40335200D02*
X236118400Y43383200D01*
X243205000Y47434500D02*
X243205000Y51498500D01*
X243205000Y51498500D02*
X244157500Y52451000D01*
X229971600Y49301400D02*
X226822000Y52451000D01*
X229971600Y47955200D02*
X229971600Y49301400D01*
X232613200Y38506400D02*
X228041200Y38506400D01*
X245176699Y27466901D02*
X245872000Y26771600D01*
X240166501Y27466901D02*
X245176699Y27466901D01*
X238810800Y26111200D02*
X240166501Y27466901D01*
X248412000Y29768800D02*
X248767600Y30124400D01*
X245770400Y31987942D02*
X245770400Y30124400D01*
X233578399Y35001201D02*
X242757141Y35001201D01*
X242757141Y35001201D02*
X245770400Y31987942D01*
X232613200Y35966400D02*
X233578399Y35001201D01*
X229971600Y46228000D02*
X232613200Y43586400D01*
X229971600Y47955200D02*
X229971600Y46228000D01*
X234899200Y40792400D02*
X232613200Y38506400D01*
X234899200Y43925942D02*
X234899200Y40792400D01*
X237302858Y46329600D02*
X234899200Y43925942D01*
X240204000Y46329600D02*
X237302858Y46329600D01*
X233968901Y46856443D02*
X233968901Y42402101D01*
X234632559Y47520101D02*
X233968901Y46856443D01*
X237215131Y47520101D02*
X234632559Y47520101D01*
X233968901Y42402101D02*
X232613200Y41046400D01*
X239072630Y49377600D02*
X237215131Y47520101D01*
X240204000Y49377600D02*
X239072630Y49377600D01*
G36*
X233420587Y53464634D02*
G01*
X233266399Y53280881D01*
X233260088Y53271868D01*
X233140152Y53064132D01*
X233135502Y53054160D01*
X233053460Y52828753D01*
X233050613Y52818126D01*
X233024320Y52669018D01*
X233099854Y52579000D01*
X234570000Y52579000D01*
X234570000Y51108854D01*
X234660018Y51033320D01*
X234809126Y51059613D01*
X234819753Y51062460D01*
X235045160Y51144502D01*
X235055132Y51149152D01*
X235262868Y51269088D01*
X235271881Y51275399D01*
X235455634Y51429587D01*
X235463413Y51437366D01*
X235489750Y51468753D01*
X235516087Y51437366D01*
X235523866Y51429587D01*
X235707619Y51275399D01*
X235716632Y51269088D01*
X235924368Y51149152D01*
X235934340Y51144502D01*
X236159747Y51062460D01*
X236170374Y51059613D01*
X236406603Y51017959D01*
X236417564Y51017000D01*
X236657436Y51017000D01*
X236668397Y51017959D01*
X236904626Y51059613D01*
X236915253Y51062460D01*
X237140660Y51144502D01*
X237150632Y51149152D01*
X237358368Y51269088D01*
X237367381Y51275399D01*
X237551134Y51429587D01*
X237558913Y51437366D01*
X237713101Y51621119D01*
X237719412Y51630132D01*
X237839348Y51837868D01*
X237843998Y51847840D01*
X237926040Y52073247D01*
X237928887Y52083874D01*
X237970541Y52320103D01*
X237971500Y52331064D01*
X237971500Y52570936D01*
X237970541Y52581897D01*
X237928887Y52818126D01*
X237926040Y52828753D01*
X237843998Y53054160D01*
X237839348Y53064132D01*
X237719412Y53271868D01*
X237713101Y53280881D01*
X237558913Y53464634D01*
X237555547Y53468000D01*
X243139453Y53468000D01*
X243136087Y53464634D01*
X242981899Y53280881D01*
X242975588Y53271868D01*
X242855652Y53064132D01*
X242851002Y53054160D01*
X242768960Y52828753D01*
X242766113Y52818126D01*
X242724459Y52581897D01*
X242723500Y52570936D01*
X242723500Y52331064D01*
X242724459Y52320103D01*
X242744440Y52206786D01*
X242686051Y52148397D01*
X242671498Y52139215D01*
X242657826Y52127579D01*
X242601827Y52064172D01*
X242581843Y52044189D01*
X242575971Y52037416D01*
X242563494Y52020769D01*
X242513114Y51963724D01*
X242503257Y51948718D01*
X242492796Y51926438D01*
X242478032Y51906738D01*
X242469410Y51890990D01*
X242442691Y51819717D01*
X242410269Y51750660D01*
X242404961Y51733106D01*
X242401472Y51709765D01*
X242392673Y51686291D01*
X242388818Y51668757D01*
X242382363Y51581898D01*
X242379194Y51560695D01*
X242378501Y51551372D01*
X242378501Y51529925D01*
X242372618Y51450751D01*
X242373839Y51432840D01*
X242378501Y51411001D01*
X242378500Y48873681D01*
X242101142Y48799363D01*
X242076662Y48786620D01*
X241920410Y48655510D01*
X241906239Y48638621D01*
X241805641Y48464380D01*
X241798100Y48443663D01*
X241764122Y48250962D01*
X241763163Y48240001D01*
X241763163Y46626242D01*
X241765319Y46609866D01*
X241840137Y46330642D01*
X241852880Y46306162D01*
X241983990Y46149910D01*
X242000879Y46135739D01*
X242175120Y46035141D01*
X242195837Y46027600D01*
X242388538Y45993622D01*
X242399499Y45992663D01*
X244013258Y45992663D01*
X244029634Y45994819D01*
X244308859Y46069637D01*
X244333339Y46082380D01*
X244489590Y46213490D01*
X244503761Y46230379D01*
X244596296Y46390656D01*
X244842177Y46390656D01*
X244858397Y46267447D01*
X245091868Y46132652D01*
X245101840Y46128002D01*
X245327247Y46045960D01*
X245337874Y46043113D01*
X245574103Y46001459D01*
X245585064Y46000500D01*
X245824936Y46000500D01*
X245835897Y46001459D01*
X246072126Y46043113D01*
X246082753Y46045960D01*
X246308160Y46128002D01*
X246318132Y46132652D01*
X246551603Y46267447D01*
X246567823Y46390656D01*
X245757191Y47201290D01*
X245652809Y47201290D01*
X244842177Y46390656D01*
X244596296Y46390656D01*
X244604359Y46404620D01*
X244611900Y46425337D01*
X244638235Y46574694D01*
X244661156Y46571677D01*
X245471790Y47382309D01*
X245471790Y47486691D01*
X245938210Y47486691D01*
X245938210Y47382309D01*
X246748844Y46571677D01*
X246872053Y46587897D01*
X247006848Y46821368D01*
X247011498Y46831340D01*
X247093540Y47056747D01*
X247096387Y47067374D01*
X247138041Y47303603D01*
X247139000Y47314564D01*
X247139000Y47554436D01*
X247138041Y47565397D01*
X247096387Y47801626D01*
X247093540Y47812253D01*
X247011498Y48037660D01*
X247006848Y48047632D01*
X246872053Y48281103D01*
X246748844Y48297323D01*
X245938210Y47486691D01*
X245471790Y47486691D01*
X244661156Y48297323D01*
X244635358Y48293927D01*
X244585944Y48478344D01*
X244842177Y48478344D01*
X245652809Y47667710D01*
X245757191Y47667710D01*
X246567823Y48478344D01*
X246551603Y48601553D01*
X246318132Y48736348D01*
X246308160Y48740998D01*
X246082753Y48823040D01*
X246072126Y48825887D01*
X245835897Y48867541D01*
X245824936Y48868500D01*
X245585064Y48868500D01*
X245574103Y48867541D01*
X245337874Y48825887D01*
X245327247Y48823040D01*
X245101840Y48740998D01*
X245091868Y48736348D01*
X244858397Y48601553D01*
X244842177Y48478344D01*
X244585944Y48478344D01*
X244569863Y48538359D01*
X244557120Y48562839D01*
X244426010Y48719090D01*
X244409121Y48733261D01*
X244234880Y48833859D01*
X244214163Y48841400D01*
X244031500Y48873608D01*
X244031500Y51017531D01*
X244037564Y51017000D01*
X244277436Y51017000D01*
X244288397Y51017959D01*
X244524626Y51059613D01*
X244535253Y51062460D01*
X244760660Y51144502D01*
X244770632Y51149152D01*
X244927436Y51239682D01*
X244976937Y51054942D01*
X244989680Y51030462D01*
X245120790Y50874210D01*
X245137679Y50860039D01*
X245311920Y50759441D01*
X245332637Y50751900D01*
X245525338Y50717922D01*
X245536299Y50716963D01*
X247480458Y50716963D01*
X247496834Y50719119D01*
X247776059Y50793937D01*
X247800539Y50806680D01*
X247956790Y50937790D01*
X247970961Y50954679D01*
X248041025Y51076034D01*
X248233148Y50941508D01*
X248242077Y50936290D01*
X248469873Y50827149D01*
X248479535Y50823460D01*
X248722098Y50752988D01*
X248732232Y50750927D01*
X248834309Y50738754D01*
X248919000Y50813946D01*
X248919000Y52452000D01*
X249175000Y52452000D01*
X249175000Y50811699D01*
X249268412Y50736056D01*
X249503045Y50785930D01*
X249512950Y50788901D01*
X249748128Y50881067D01*
X249757415Y50885616D01*
X249974382Y51014954D01*
X249982801Y51020959D01*
X250064000Y51089578D01*
X250064000Y48996487D01*
X249949508Y49149531D01*
X249942814Y49157123D01*
X249760974Y49332724D01*
X249753153Y49339149D01*
X249545575Y49483419D01*
X249536828Y49488510D01*
X249308856Y49597736D01*
X249299407Y49601363D01*
X249056903Y49672735D01*
X249046996Y49674805D01*
X248796202Y49706489D01*
X248786090Y49706948D01*
X248533456Y49698126D01*
X248523401Y49696962D01*
X248275428Y49647861D01*
X248265689Y49645106D01*
X248028756Y49556992D01*
X248019583Y49552714D01*
X247799784Y49427851D01*
X247791413Y49422162D01*
X247594406Y49263763D01*
X247587052Y49256809D01*
X247417904Y49068952D01*
X247411756Y49060911D01*
X247274819Y48848425D01*
X247270036Y48839506D01*
X247168832Y48607861D01*
X247165537Y48598291D01*
X247102671Y48353444D01*
X247100948Y48343470D01*
X247078038Y48091723D01*
X247077932Y48081602D01*
X247095566Y47829429D01*
X247097079Y47819422D01*
X247154804Y47573313D01*
X247157898Y47563676D01*
X247254228Y47329962D01*
X247258823Y47320944D01*
X247391280Y47105638D01*
X247397258Y47097470D01*
X247562434Y46906110D01*
X247569641Y46899003D01*
X247763289Y46736514D01*
X247771539Y46730651D01*
X247988673Y46601213D01*
X247997755Y46596744D01*
X248232791Y46503687D01*
X248242470Y46500728D01*
X248489361Y46446446D01*
X248499389Y46445072D01*
X248751783Y46430961D01*
X248761901Y46431208D01*
X249013304Y46457631D01*
X249023253Y46459493D01*
X249267198Y46525772D01*
X249276720Y46529200D01*
X249506931Y46633627D01*
X249515783Y46638534D01*
X249726336Y46778426D01*
X249734289Y46784685D01*
X249919768Y46956439D01*
X249926619Y46963890D01*
X250064000Y47139729D01*
X250064000Y41981124D01*
X249946680Y42048859D01*
X249925963Y42056400D01*
X249733262Y42090378D01*
X249722301Y42091337D01*
X247708542Y42091337D01*
X247692166Y42089181D01*
X247412942Y42014363D01*
X247388462Y42001620D01*
X247232210Y41870510D01*
X247218039Y41853621D01*
X247117441Y41679380D01*
X247109900Y41658663D01*
X247075922Y41465962D01*
X247074963Y41455001D01*
X247074963Y41161700D01*
X244916368Y41161700D01*
X244914001Y41165081D01*
X244759813Y41348834D01*
X244752034Y41356613D01*
X244568281Y41510801D01*
X244559268Y41517112D01*
X244351532Y41637048D01*
X244341560Y41641698D01*
X244116153Y41723740D01*
X244105526Y41726587D01*
X243869297Y41768241D01*
X243858336Y41769200D01*
X243618464Y41769200D01*
X243607503Y41768241D01*
X243371274Y41726587D01*
X243360647Y41723740D01*
X243135240Y41641698D01*
X243125268Y41637048D01*
X242917532Y41517112D01*
X242908519Y41510801D01*
X242724766Y41356613D01*
X242716987Y41348834D01*
X242562799Y41165081D01*
X242556488Y41156068D01*
X242436552Y40948332D01*
X242431902Y40938360D01*
X242349860Y40712953D01*
X242347013Y40702326D01*
X242305359Y40466097D01*
X242304400Y40455136D01*
X242304400Y40215264D01*
X242305359Y40204303D01*
X242347013Y39968074D01*
X242349860Y39957447D01*
X242431902Y39732040D01*
X242436552Y39722068D01*
X242556488Y39514332D01*
X242562799Y39505319D01*
X242716987Y39321566D01*
X242724766Y39313787D01*
X242908519Y39159599D01*
X242917532Y39153288D01*
X243125268Y39033352D01*
X243135240Y39028702D01*
X243360647Y38946660D01*
X243371274Y38943813D01*
X243607503Y38902159D01*
X243618464Y38901200D01*
X243858336Y38901200D01*
X243869297Y38902159D01*
X244105526Y38943813D01*
X244116153Y38946660D01*
X244341560Y39028702D01*
X244351532Y39033352D01*
X244559268Y39153288D01*
X244568281Y39159599D01*
X244752034Y39313787D01*
X244759813Y39321566D01*
X244914001Y39505319D01*
X244916368Y39508700D01*
X247074963Y39508700D01*
X247074963Y39441242D01*
X247077119Y39424866D01*
X247151937Y39145642D01*
X247164680Y39121162D01*
X247295790Y38964910D01*
X247312679Y38950739D01*
X247486920Y38850141D01*
X247507637Y38842600D01*
X247700338Y38808622D01*
X247711299Y38807663D01*
X247803841Y38807663D01*
X247753966Y38765813D01*
X247746187Y38758034D01*
X247591999Y38574281D01*
X247585688Y38565268D01*
X247465752Y38357532D01*
X247461102Y38347560D01*
X247379060Y38122153D01*
X247376213Y38111526D01*
X247334559Y37875297D01*
X247333600Y37864336D01*
X247333600Y37624464D01*
X247334559Y37613503D01*
X247376213Y37377274D01*
X247379060Y37366647D01*
X247461102Y37141240D01*
X247465752Y37131268D01*
X247585688Y36923532D01*
X247591999Y36914519D01*
X247746187Y36730766D01*
X247753966Y36722987D01*
X247937719Y36568799D01*
X247946732Y36562488D01*
X248154468Y36442552D01*
X248164440Y36437902D01*
X248389847Y36355860D01*
X248400474Y36353013D01*
X248636703Y36311359D01*
X248647664Y36310400D01*
X248887536Y36310400D01*
X248898497Y36311359D01*
X249134726Y36353013D01*
X249145353Y36355860D01*
X249370760Y36437902D01*
X249380732Y36442552D01*
X249588468Y36562488D01*
X249597481Y36568799D01*
X249781234Y36722987D01*
X249789013Y36730766D01*
X249943201Y36914519D01*
X249949512Y36923532D01*
X250064001Y37121833D01*
X250064001Y30746967D01*
X249949512Y30945268D01*
X249943201Y30954281D01*
X249789013Y31138034D01*
X249781234Y31145813D01*
X249597481Y31300001D01*
X249588468Y31306312D01*
X249380732Y31426248D01*
X249370760Y31430898D01*
X249145353Y31512940D01*
X249134726Y31515787D01*
X248898497Y31557441D01*
X248887536Y31558400D01*
X248647664Y31558400D01*
X248636703Y31557441D01*
X248400474Y31515787D01*
X248389847Y31512940D01*
X248164440Y31430898D01*
X248154468Y31426248D01*
X247946732Y31306312D01*
X247937719Y31300001D01*
X247753966Y31145813D01*
X247746187Y31138034D01*
X247591999Y30954281D01*
X247585688Y30945268D01*
X247465752Y30737532D01*
X247461102Y30727560D01*
X247379060Y30502153D01*
X247376213Y30491526D01*
X247334559Y30255297D01*
X247333600Y30244336D01*
X247333600Y30004464D01*
X247334559Y29993503D01*
X247376213Y29757274D01*
X247379060Y29746647D01*
X247461102Y29521240D01*
X247465752Y29511268D01*
X247585688Y29303532D01*
X247591999Y29294519D01*
X247746187Y29110766D01*
X247753966Y29102987D01*
X247937719Y28948799D01*
X247946732Y28942488D01*
X248154468Y28822552D01*
X248164440Y28817902D01*
X248389847Y28735860D01*
X248400474Y28733013D01*
X248636703Y28691359D01*
X248647664Y28690400D01*
X248887536Y28690400D01*
X248898497Y28691359D01*
X249134726Y28733013D01*
X249145353Y28735860D01*
X249370760Y28817902D01*
X249380732Y28822552D01*
X249588468Y28942488D01*
X249597481Y28948799D01*
X249781234Y29102987D01*
X249789013Y29110766D01*
X249943201Y29294519D01*
X249949512Y29303532D01*
X250064001Y29501833D01*
X250064001Y25145000D01*
X242628561Y25145000D01*
X242650566Y25170856D01*
X242656601Y25179254D01*
X242786695Y25395769D01*
X242791277Y25405039D01*
X242884263Y25639894D01*
X242887270Y25649789D01*
X242940811Y25897431D01*
X242942218Y25909231D01*
X242950185Y26235187D01*
X242949356Y26247042D01*
X242907975Y26497003D01*
X242905455Y26507033D01*
X242860053Y26640401D01*
X244330163Y26640401D01*
X244330163Y25863342D01*
X244332319Y25846966D01*
X244407137Y25567742D01*
X244419880Y25543262D01*
X244550990Y25387010D01*
X244567879Y25372839D01*
X244742120Y25272241D01*
X244762837Y25264700D01*
X244955538Y25230722D01*
X244966499Y25229763D01*
X246780258Y25229763D01*
X246796634Y25231919D01*
X247075859Y25306737D01*
X247100339Y25319480D01*
X247256590Y25450590D01*
X247270761Y25467479D01*
X247370221Y25639750D01*
X247377187Y25632306D01*
X247385112Y25625158D01*
X247583941Y25474239D01*
X247592957Y25468529D01*
X247814371Y25353268D01*
X247824220Y25349158D01*
X248061889Y25272851D01*
X248072290Y25270460D01*
X248319417Y25235288D01*
X248330072Y25234683D01*
X248579593Y25241652D01*
X248590198Y25242851D01*
X248834977Y25291763D01*
X248845228Y25294732D01*
X249078267Y25384187D01*
X249087871Y25388840D01*
X249302506Y25516281D01*
X249311188Y25522486D01*
X249501283Y25684269D01*
X249508796Y25691848D01*
X249668914Y25883346D01*
X249675042Y25892083D01*
X249800606Y26107821D01*
X249805175Y26117466D01*
X249892593Y26351277D01*
X249895471Y26361554D01*
X249942302Y26607047D01*
X249943417Y26618270D01*
X249946078Y26895502D01*
X249945179Y26906744D01*
X249903070Y27153092D01*
X249900389Y27163422D01*
X249817476Y27398868D01*
X249813092Y27408599D01*
X249691694Y27626708D01*
X249685734Y27635561D01*
X249529322Y27830098D01*
X249521956Y27837820D01*
X249335003Y28003222D01*
X249326440Y28009593D01*
X249114291Y28141130D01*
X249104778Y28145967D01*
X248873500Y28239879D01*
X248863308Y28243044D01*
X248619513Y28296646D01*
X248608934Y28298048D01*
X248359592Y28309806D01*
X248348928Y28309406D01*
X248101170Y28278986D01*
X248090725Y28276794D01*
X247851635Y28205063D01*
X247841709Y28201143D01*
X247618123Y28090154D01*
X247609000Y28084618D01*
X247407311Y27937544D01*
X247399250Y27930549D01*
X247359774Y27889955D01*
X247336863Y27975459D01*
X247324120Y27999939D01*
X247193010Y28156190D01*
X247176121Y28170361D01*
X247001880Y28270959D01*
X246981163Y28278500D01*
X246788462Y28312478D01*
X246777501Y28313437D01*
X244963741Y28313437D01*
X244947366Y28311281D01*
X244880636Y28293401D01*
X240259091Y28293401D01*
X240242310Y28297198D01*
X240224415Y28298638D01*
X240140006Y28293401D01*
X240111723Y28293401D01*
X240102781Y28292764D01*
X240082175Y28289813D01*
X240006226Y28285101D01*
X239988647Y28281461D01*
X239965494Y28273103D01*
X239941124Y28269613D01*
X239923892Y28264574D01*
X239854603Y28233070D01*
X239782844Y28207165D01*
X239766677Y28198505D01*
X239747705Y28184466D01*
X239724889Y28174093D01*
X239709764Y28164420D01*
X239643792Y28107575D01*
X239626547Y28094814D01*
X239619463Y28088710D01*
X239604299Y28073545D01*
X239544154Y28021721D01*
X239532352Y28008192D01*
X239520204Y27989450D01*
X239194685Y27663931D01*
X239097223Y27689681D01*
X239087042Y27691494D01*
X238835570Y27715265D01*
X238825229Y27715392D01*
X238573251Y27697771D01*
X238563029Y27696207D01*
X238317313Y27637669D01*
X238307483Y27634457D01*
X238074627Y27536573D01*
X238065454Y27531798D01*
X237851712Y27397197D01*
X237843442Y27390988D01*
X237654554Y27223286D01*
X237647409Y27215809D01*
X237540427Y27083697D01*
X237460831Y27187054D01*
X237453872Y27194703D01*
X237269137Y27366971D01*
X237261021Y27373381D01*
X237050632Y27513164D01*
X237041578Y27518162D01*
X236811183Y27621705D01*
X236801434Y27625157D01*
X236557223Y27689681D01*
X236547042Y27691494D01*
X236481202Y27697718D01*
X236398800Y27622739D01*
X236398800Y25983200D01*
X236142800Y25983200D01*
X236142800Y27626243D01*
X236046984Y27701914D01*
X235777313Y27637669D01*
X235767483Y27634457D01*
X235534627Y27536573D01*
X235525454Y27531798D01*
X235311712Y27397197D01*
X235303442Y27390988D01*
X235266723Y27358388D01*
X235260863Y27380259D01*
X235248120Y27404739D01*
X235117010Y27560990D01*
X235100121Y27575161D01*
X234925880Y27675759D01*
X234905163Y27683300D01*
X234712462Y27717278D01*
X234701501Y27718237D01*
X232757342Y27718237D01*
X232740966Y27716081D01*
X232461742Y27641263D01*
X232437262Y27628520D01*
X232281010Y27497410D01*
X232266839Y27480521D01*
X232166241Y27306280D01*
X232158700Y27285563D01*
X232124722Y27092862D01*
X232123763Y27081901D01*
X232123763Y25145000D01*
X225627200Y25145000D01*
X225627200Y33005183D01*
X225861521Y33005183D01*
X225887813Y32856075D01*
X225890660Y32845447D01*
X225972702Y32620040D01*
X225977352Y32610068D01*
X226097288Y32402332D01*
X226103599Y32393319D01*
X226257787Y32209566D01*
X226265566Y32201787D01*
X226449319Y32047599D01*
X226458332Y32041288D01*
X226666068Y31921352D01*
X226676040Y31916702D01*
X226901447Y31834660D01*
X226912074Y31831813D01*
X227061182Y31805520D01*
X227151200Y31881054D01*
X227407199Y31881054D01*
X227497217Y31805521D01*
X227646325Y31831813D01*
X227656953Y31834660D01*
X227882360Y31916702D01*
X227892332Y31921352D01*
X228100068Y32041288D01*
X228109081Y32047599D01*
X228292834Y32201787D01*
X228300613Y32209566D01*
X228454801Y32393319D01*
X228461112Y32402332D01*
X228581048Y32610068D01*
X228585698Y32620040D01*
X228667740Y32845447D01*
X228670587Y32856074D01*
X228696880Y33005182D01*
X228621346Y33095200D01*
X227481009Y33095201D01*
X227407200Y33021392D01*
X227407199Y31881054D01*
X227151200Y31881054D01*
X227151201Y33021391D01*
X227077392Y33095200D01*
X225937054Y33095201D01*
X225861521Y33005183D01*
X225627200Y33005183D01*
X225627200Y33441218D01*
X225861520Y33441218D01*
X225937054Y33351200D01*
X227077391Y33351199D01*
X227151200Y33425008D01*
X227151200Y33425009D01*
X227407199Y33425009D01*
X227481008Y33351200D01*
X228621346Y33351199D01*
X228696879Y33441217D01*
X228670587Y33590325D01*
X228667740Y33600953D01*
X228585698Y33826360D01*
X228581048Y33836332D01*
X228461112Y34044068D01*
X228454801Y34053081D01*
X228300613Y34236834D01*
X228292834Y34244613D01*
X228109081Y34398801D01*
X228100068Y34405112D01*
X227892332Y34525048D01*
X227882360Y34529698D01*
X227656953Y34611740D01*
X227646326Y34614587D01*
X227497218Y34640880D01*
X227407200Y34565346D01*
X227407199Y33425009D01*
X227151200Y33425009D01*
X227151201Y34565346D01*
X227061183Y34640879D01*
X226912075Y34614587D01*
X226901447Y34611740D01*
X226676040Y34529698D01*
X226666068Y34525048D01*
X226458332Y34405112D01*
X226449319Y34398801D01*
X226265566Y34244613D01*
X226257787Y34236834D01*
X226103599Y34053081D01*
X226097288Y34044068D01*
X225977352Y33836332D01*
X225972702Y33826360D01*
X225890660Y33600953D01*
X225887813Y33590326D01*
X225861520Y33441218D01*
X225627200Y33441218D01*
X225627200Y44557101D01*
X226434163Y44557101D01*
X226434163Y43788209D01*
X226507972Y43714400D01*
X227839391Y43714399D01*
X227913200Y43788208D01*
X227913200Y43788209D01*
X228169199Y43788209D01*
X228243008Y43714400D01*
X229574428Y43714399D01*
X229648237Y43788208D01*
X229648237Y44559858D01*
X229646081Y44576234D01*
X229571263Y44855459D01*
X229558520Y44879939D01*
X229427410Y45036190D01*
X229410521Y45050361D01*
X229236280Y45150959D01*
X229215563Y45158500D01*
X229022862Y45192478D01*
X229011901Y45193437D01*
X228243009Y45193437D01*
X228169200Y45119628D01*
X228169199Y43788209D01*
X227913200Y43788209D01*
X227913201Y45119628D01*
X227839392Y45193437D01*
X227067742Y45193437D01*
X227051366Y45191281D01*
X226772142Y45116463D01*
X226747662Y45103720D01*
X226591410Y44972610D01*
X226577239Y44955721D01*
X226476641Y44781480D01*
X226469100Y44760763D01*
X226435122Y44568062D01*
X226434163Y44557101D01*
X225627200Y44557101D01*
X225627200Y51652455D01*
X225640088Y51630132D01*
X225646399Y51621119D01*
X225800587Y51437366D01*
X225808366Y51429587D01*
X225992119Y51275399D01*
X226001132Y51269088D01*
X226208868Y51149152D01*
X226218840Y51144502D01*
X226444247Y51062460D01*
X226454874Y51059613D01*
X226691103Y51017959D01*
X226702064Y51017000D01*
X226941936Y51017000D01*
X226952897Y51017959D01*
X227066214Y51037940D01*
X228818017Y49286137D01*
X228687010Y49176210D01*
X228672839Y49159321D01*
X228572241Y48985080D01*
X228564700Y48964363D01*
X228530722Y48771662D01*
X228529763Y48760701D01*
X228529763Y47146942D01*
X228531919Y47130566D01*
X228606737Y46851342D01*
X228619480Y46826862D01*
X228750590Y46670610D01*
X228767479Y46656439D01*
X228941720Y46555841D01*
X228962437Y46548300D01*
X229145101Y46516092D01*
X229145101Y46320595D01*
X229141303Y46303810D01*
X229139863Y46285914D01*
X229145101Y46201489D01*
X229145101Y46173221D01*
X229145738Y46164277D01*
X229148688Y46143687D01*
X229153400Y46067728D01*
X229157040Y46050148D01*
X229165399Y46026994D01*
X229168889Y46002621D01*
X229173928Y45985391D01*
X229205427Y45916115D01*
X229231336Y45844345D01*
X229239995Y45828178D01*
X229254036Y45809203D01*
X229264410Y45786387D01*
X229274082Y45771263D01*
X229330927Y45705291D01*
X229343688Y45688046D01*
X229349791Y45680963D01*
X229364957Y45665798D01*
X229416781Y45605653D01*
X229430310Y45593851D01*
X229449052Y45581703D01*
X231006163Y44024591D01*
X231006163Y42612942D01*
X231008319Y42596566D01*
X231083137Y42317342D01*
X231095880Y42292862D01*
X231226990Y42136610D01*
X231243879Y42122439D01*
X231368438Y42050525D01*
X231290847Y41954707D01*
X231285020Y41946164D01*
X231160254Y41726536D01*
X231155899Y41717156D01*
X231068679Y41480100D01*
X231065916Y41470134D01*
X231018585Y41222016D01*
X231017486Y41211733D01*
X231011314Y40959215D01*
X231011910Y40948891D01*
X231047064Y40698757D01*
X231049337Y40688668D01*
X231124873Y40447634D01*
X231128764Y40438052D01*
X231242652Y40212592D01*
X231248055Y40203774D01*
X231397238Y39999942D01*
X231404009Y39992125D01*
X231584480Y39815396D01*
X231592436Y39808790D01*
X231636526Y39777917D01*
X231456954Y39618486D01*
X231449809Y39611009D01*
X231290847Y39414707D01*
X231285020Y39406164D01*
X231243400Y39332900D01*
X229412708Y39332900D01*
X229390967Y39373446D01*
X229385349Y39382129D01*
X229231231Y39582254D01*
X229224272Y39589903D01*
X229039537Y39762171D01*
X229031421Y39768581D01*
X229017663Y39777721D01*
X229169930Y39906397D01*
X229177255Y39913697D01*
X229340966Y40106056D01*
X229347001Y40114454D01*
X229477095Y40330969D01*
X229481677Y40340239D01*
X229574663Y40575094D01*
X229577670Y40584989D01*
X229631211Y40832631D01*
X229632618Y40844431D01*
X229640585Y41170387D01*
X229639756Y41182242D01*
X229598375Y41432203D01*
X229595855Y41442233D01*
X229514453Y41681350D01*
X229510330Y41690834D01*
X229390967Y41913445D01*
X229385349Y41922129D01*
X229286829Y42050059D01*
X229310259Y42056337D01*
X229334739Y42069080D01*
X229490990Y42200190D01*
X229505161Y42217079D01*
X229605759Y42391320D01*
X229613300Y42412037D01*
X229647278Y42604738D01*
X229648237Y42615699D01*
X229648237Y43384591D01*
X229574428Y43458400D01*
X228243008Y43458401D01*
X228243007Y43458400D01*
X226507972Y43458401D01*
X226434163Y43384592D01*
X226434163Y42612942D01*
X226436319Y42596566D01*
X226511137Y42317342D01*
X226523880Y42292862D01*
X226654990Y42136610D01*
X226671879Y42122439D01*
X226796438Y42050525D01*
X226718847Y41954707D01*
X226713020Y41946164D01*
X226588254Y41726536D01*
X226583899Y41717156D01*
X226496679Y41480100D01*
X226493916Y41470134D01*
X226446585Y41222016D01*
X226445486Y41211733D01*
X226439314Y40959215D01*
X226439910Y40948891D01*
X226475064Y40698757D01*
X226477337Y40688668D01*
X226552873Y40447634D01*
X226556764Y40438052D01*
X226670652Y40212592D01*
X226676055Y40203774D01*
X226825238Y39999942D01*
X226832009Y39992125D01*
X227012480Y39815396D01*
X227020436Y39808790D01*
X227064526Y39777917D01*
X226884954Y39618486D01*
X226877809Y39611009D01*
X226718847Y39414707D01*
X226713020Y39406164D01*
X226588254Y39186536D01*
X226583899Y39177156D01*
X226496679Y38940100D01*
X226493916Y38930134D01*
X226446585Y38682016D01*
X226445486Y38671733D01*
X226439314Y38419215D01*
X226439910Y38408891D01*
X226475064Y38158757D01*
X226477337Y38148668D01*
X226552873Y37907634D01*
X226556764Y37898052D01*
X226670652Y37672592D01*
X226676055Y37663774D01*
X226825238Y37459942D01*
X226832009Y37452125D01*
X227012480Y37275396D01*
X227020437Y37268790D01*
X227227348Y37123908D01*
X227236277Y37118690D01*
X227464073Y37009549D01*
X227473735Y37005860D01*
X227716298Y36935388D01*
X227726432Y36933327D01*
X227977248Y36903419D01*
X227987582Y36903040D01*
X228239914Y36914498D01*
X228250172Y36915812D01*
X228497245Y36968330D01*
X228507150Y36971301D01*
X228742328Y37063467D01*
X228751615Y37068016D01*
X228968582Y37197354D01*
X228977001Y37203359D01*
X229169930Y37366397D01*
X229177255Y37373697D01*
X229340966Y37566056D01*
X229347001Y37574454D01*
X229410358Y37679900D01*
X231238960Y37679900D01*
X231242651Y37672592D01*
X231248055Y37663774D01*
X231397238Y37459942D01*
X231404009Y37452125D01*
X231584480Y37275396D01*
X231592436Y37268790D01*
X231636526Y37237917D01*
X231456954Y37078486D01*
X231449809Y37071009D01*
X231290847Y36874707D01*
X231285020Y36866164D01*
X231160254Y36646536D01*
X231155899Y36637156D01*
X231068679Y36400100D01*
X231065916Y36390134D01*
X231018585Y36142016D01*
X231017486Y36131733D01*
X231011314Y35879215D01*
X231011910Y35868891D01*
X231047064Y35618757D01*
X231049337Y35608668D01*
X231124873Y35367634D01*
X231128764Y35358052D01*
X231242652Y35132592D01*
X231248055Y35123774D01*
X231397238Y34919942D01*
X231404009Y34912125D01*
X231584480Y34735396D01*
X231592437Y34728790D01*
X231799348Y34583908D01*
X231808277Y34578690D01*
X232036073Y34469549D01*
X232045735Y34465860D01*
X232288298Y34395388D01*
X232298432Y34393327D01*
X232549248Y34363419D01*
X232559582Y34363040D01*
X232811914Y34374498D01*
X232822172Y34375812D01*
X232996035Y34412768D01*
X233012719Y34398034D01*
X233032709Y34378043D01*
X233039484Y34372170D01*
X233056134Y34359691D01*
X233113175Y34309314D01*
X233128180Y34299458D01*
X233150463Y34288996D01*
X233170162Y34274233D01*
X233185909Y34265611D01*
X233257177Y34238893D01*
X233326239Y34206469D01*
X233343794Y34201160D01*
X233367138Y34197672D01*
X233390606Y34188874D01*
X233408141Y34185019D01*
X233494981Y34178565D01*
X233516200Y34175394D01*
X233525526Y34174701D01*
X233546978Y34174701D01*
X233626148Y34168818D01*
X233644059Y34170039D01*
X233665899Y34174701D01*
X233825651Y34174701D01*
X233723599Y34053081D01*
X233717288Y34044068D01*
X233597352Y33836332D01*
X233592702Y33826360D01*
X233510660Y33600953D01*
X233507813Y33590326D01*
X233466159Y33354097D01*
X233465200Y33343136D01*
X233465200Y33103264D01*
X233466159Y33092303D01*
X233507813Y32856074D01*
X233510660Y32845447D01*
X233592702Y32620040D01*
X233597352Y32610068D01*
X233717288Y32402332D01*
X233723599Y32393319D01*
X233877787Y32209566D01*
X233885566Y32201787D01*
X234069319Y32047599D01*
X234078332Y32041288D01*
X234286068Y31921352D01*
X234296040Y31916702D01*
X234506319Y31840166D01*
X234039306Y31373152D01*
X233975553Y31467668D01*
X233969765Y31475011D01*
X233784911Y31676745D01*
X233778100Y31683152D01*
X233565458Y31855346D01*
X233557775Y31860675D01*
X233322016Y31999548D01*
X233313630Y32003684D01*
X233059934Y32106183D01*
X233051029Y32109033D01*
X232784971Y32172909D01*
X232775742Y32174412D01*
X232503164Y32198259D01*
X232493814Y32198381D01*
X232220705Y32181678D01*
X232211440Y32180417D01*
X231943800Y32123528D01*
X231934823Y32120911D01*
X231678532Y32025088D01*
X231670040Y32021174D01*
X231430727Y31888520D01*
X231422907Y31883394D01*
X231205831Y31716824D01*
X231198855Y31710598D01*
X231008783Y31513773D01*
X231002804Y31506584D01*
X230843913Y31283826D01*
X230839062Y31275832D01*
X230714842Y31032036D01*
X230711226Y31023413D01*
X230624405Y30763934D01*
X230622103Y30754871D01*
X230574589Y30485409D01*
X230573653Y30476105D01*
X230566490Y30202580D01*
X230566938Y30193240D01*
X230600285Y29921660D01*
X230602109Y29912489D01*
X230675230Y29648822D01*
X230678390Y29640021D01*
X230789681Y29390057D01*
X230794107Y29381820D01*
X230941122Y29151052D01*
X230946716Y29143560D01*
X231126227Y28937057D01*
X231132868Y28930474D01*
X231340930Y28752772D01*
X231348470Y28747243D01*
X231580512Y28602247D01*
X231588787Y28597894D01*
X231839713Y28488788D01*
X231848541Y28485705D01*
X232112836Y28414888D01*
X232122022Y28413144D01*
X232393883Y28382170D01*
X232403226Y28381803D01*
X232676679Y28391351D01*
X232685974Y28392369D01*
X232955011Y28442233D01*
X232964053Y28444614D01*
X233222765Y28533695D01*
X233231356Y28537386D01*
X233474060Y28663729D01*
X233482012Y28668650D01*
X233703373Y28829479D01*
X233710510Y28835520D01*
X233905669Y29027302D01*
X233911834Y29034333D01*
X234076503Y29252855D01*
X234081561Y29260719D01*
X234192033Y29464182D01*
X234208824Y29466586D01*
X234284773Y29471299D01*
X234302353Y29474940D01*
X234325500Y29483296D01*
X234349875Y29486787D01*
X234367108Y29491826D01*
X234436395Y29523330D01*
X234508154Y29549235D01*
X234524322Y29557895D01*
X234543291Y29571932D01*
X234566111Y29582307D01*
X234581236Y29591980D01*
X234647216Y29648832D01*
X234664453Y29661587D01*
X234671536Y29667690D01*
X234686693Y29682848D01*
X234746846Y29734679D01*
X234758648Y29748208D01*
X234770798Y29766953D01*
X235689983Y30686138D01*
X235654589Y30485409D01*
X235653653Y30476105D01*
X235646490Y30202580D01*
X235646938Y30193240D01*
X235680285Y29921660D01*
X235682109Y29912489D01*
X235755230Y29648822D01*
X235758390Y29640021D01*
X235869681Y29390057D01*
X235874107Y29381820D01*
X236021122Y29151052D01*
X236026716Y29143560D01*
X236206227Y28937057D01*
X236212868Y28930474D01*
X236420930Y28752772D01*
X236428470Y28747243D01*
X236660512Y28602247D01*
X236668787Y28597894D01*
X236919713Y28488788D01*
X236928541Y28485705D01*
X237192836Y28414888D01*
X237202022Y28413144D01*
X237473883Y28382170D01*
X237483226Y28381803D01*
X237756679Y28391351D01*
X237765974Y28392369D01*
X238035011Y28442233D01*
X238044053Y28444614D01*
X238302765Y28533695D01*
X238311356Y28537386D01*
X238554060Y28663729D01*
X238562012Y28668650D01*
X238783373Y28829479D01*
X238790510Y28835520D01*
X238985669Y29027302D01*
X238991834Y29034333D01*
X239156503Y29252855D01*
X239161561Y29260719D01*
X239292121Y29501180D01*
X239295961Y29509705D01*
X239389544Y29766824D01*
X239392082Y29775823D01*
X239446798Y30044758D01*
X239448044Y30055690D01*
X239448881Y30087691D01*
X240721664Y30087691D01*
X240721664Y29011241D01*
X240723820Y28994865D01*
X240798638Y28715641D01*
X240811381Y28691161D01*
X240942491Y28534909D01*
X240959380Y28520738D01*
X241133621Y28420140D01*
X241154338Y28412599D01*
X241347039Y28378621D01*
X241358000Y28377662D01*
X242431692Y28377662D01*
X242505501Y28451471D01*
X242505502Y30087690D01*
X242431693Y30161499D01*
X240795473Y30161500D01*
X240721664Y30087691D01*
X239448881Y30087691D01*
X239457684Y30423834D01*
X239457012Y30434816D01*
X239416447Y30706247D01*
X239414383Y30715367D01*
X239334384Y30977031D01*
X239330995Y30985746D01*
X239213199Y31232710D01*
X239208559Y31240828D01*
X239055553Y31467668D01*
X239049765Y31475011D01*
X238967306Y31565000D01*
X240721664Y31565000D01*
X240721664Y30491308D01*
X240795473Y30417499D01*
X242431692Y30417498D01*
X242505501Y30491307D01*
X242505502Y32127527D01*
X242431693Y32201336D01*
X241355243Y32201336D01*
X241338867Y32199180D01*
X241059643Y32124362D01*
X241035163Y32111619D01*
X240878911Y31980509D01*
X240864740Y31963620D01*
X240764142Y31789379D01*
X240756601Y31768662D01*
X240722623Y31575961D01*
X240721664Y31565000D01*
X238967306Y31565000D01*
X238864911Y31676745D01*
X238858100Y31683152D01*
X238645458Y31855346D01*
X238637775Y31860675D01*
X238402016Y31999548D01*
X238393630Y32003684D01*
X238139934Y32106183D01*
X238131029Y32109033D01*
X237864971Y32172909D01*
X237855742Y32174412D01*
X237583164Y32198259D01*
X237573814Y32198381D01*
X237300705Y32181678D01*
X237291440Y32180417D01*
X237155332Y32151486D01*
X237372550Y32368704D01*
X237568826Y32403313D01*
X237579453Y32406160D01*
X237804860Y32488202D01*
X237814832Y32492852D01*
X238022568Y32612788D01*
X238031581Y32619099D01*
X238215334Y32773287D01*
X238223113Y32781066D01*
X238377301Y32964819D01*
X238383612Y32973832D01*
X238503548Y33181568D01*
X238508198Y33191540D01*
X238590240Y33416947D01*
X238593087Y33427574D01*
X238634741Y33663803D01*
X238635700Y33674764D01*
X238635700Y33914636D01*
X238634741Y33925597D01*
X238593087Y34161826D01*
X238590240Y34172454D01*
X238589422Y34174701D01*
X240813978Y34174701D01*
X240813160Y34172454D01*
X240810313Y34161826D01*
X240768659Y33925597D01*
X240767700Y33914636D01*
X240767700Y33674764D01*
X240768659Y33663803D01*
X240810313Y33427574D01*
X240813160Y33416947D01*
X240895202Y33191540D01*
X240899852Y33181568D01*
X241019788Y32973832D01*
X241026099Y32964819D01*
X241180287Y32781066D01*
X241188066Y32773287D01*
X241371819Y32619099D01*
X241380832Y32612788D01*
X241588568Y32492852D01*
X241598540Y32488202D01*
X241823947Y32406160D01*
X241834574Y32403313D01*
X242070803Y32361659D01*
X242081764Y32360700D01*
X242321636Y32360700D01*
X242332597Y32361659D01*
X242568826Y32403313D01*
X242579453Y32406160D01*
X242804860Y32488202D01*
X242814832Y32492852D01*
X243022568Y32612788D01*
X243031581Y32619099D01*
X243215334Y32773287D01*
X243223113Y32781066D01*
X243377301Y32964819D01*
X243383612Y32973832D01*
X243468549Y33120947D01*
X244943900Y31645595D01*
X244943900Y31302368D01*
X244940519Y31300001D01*
X244756766Y31145813D01*
X244748987Y31138034D01*
X244594799Y30954281D01*
X244588488Y30945268D01*
X244545338Y30870530D01*
X244545338Y31567757D01*
X244543182Y31584133D01*
X244468364Y31863358D01*
X244455621Y31887838D01*
X244324511Y32044089D01*
X244307622Y32058260D01*
X244133381Y32158858D01*
X244112664Y32166399D01*
X243919963Y32200377D01*
X243909002Y32201336D01*
X242835310Y32201336D01*
X242761501Y32127527D01*
X242761500Y30491307D01*
X242761501Y30491306D01*
X242761500Y28451471D01*
X242835309Y28377662D01*
X243911759Y28377662D01*
X243928135Y28379818D01*
X244207360Y28454636D01*
X244231840Y28467379D01*
X244388091Y28598489D01*
X244402262Y28615378D01*
X244502860Y28789619D01*
X244510401Y28810336D01*
X244544379Y29003037D01*
X244545338Y29013998D01*
X244545338Y29378270D01*
X244588488Y29303532D01*
X244594799Y29294519D01*
X244748987Y29110766D01*
X244756766Y29102987D01*
X244940519Y28948799D01*
X244949532Y28942488D01*
X245157268Y28822552D01*
X245167240Y28817902D01*
X245392647Y28735860D01*
X245403274Y28733013D01*
X245639503Y28691359D01*
X245650464Y28690400D01*
X245890336Y28690400D01*
X245901297Y28691359D01*
X246137526Y28733013D01*
X246148153Y28735860D01*
X246373560Y28817902D01*
X246383532Y28822552D01*
X246591268Y28942488D01*
X246600281Y28948799D01*
X246784034Y29102987D01*
X246791813Y29110766D01*
X246946001Y29294519D01*
X246952312Y29303532D01*
X247072248Y29511268D01*
X247076898Y29521240D01*
X247158940Y29746647D01*
X247161787Y29757274D01*
X247203441Y29993503D01*
X247204400Y30004464D01*
X247204400Y30244336D01*
X247203441Y30255297D01*
X247161787Y30491526D01*
X247158940Y30502153D01*
X247076898Y30727560D01*
X247072248Y30737532D01*
X246952312Y30945268D01*
X246946001Y30954281D01*
X246791813Y31138034D01*
X246784034Y31145813D01*
X246600281Y31300001D01*
X246596900Y31302368D01*
X246596900Y31895352D01*
X246600697Y31912133D01*
X246602137Y31930028D01*
X246596900Y32014437D01*
X246596900Y32042720D01*
X246596263Y32051662D01*
X246593312Y32072268D01*
X246588600Y32148217D01*
X246584960Y32165796D01*
X246576602Y32188949D01*
X246573112Y32213319D01*
X246568073Y32230551D01*
X246536569Y32299840D01*
X246510664Y32371599D01*
X246502004Y32387766D01*
X246487965Y32406738D01*
X246477592Y32429554D01*
X246467919Y32444680D01*
X246411077Y32510647D01*
X246398313Y32527896D01*
X246392209Y32534980D01*
X246377040Y32550148D01*
X246325218Y32610289D01*
X246311690Y32622091D01*
X246292952Y32634236D01*
X243407042Y35520145D01*
X243397856Y35534704D01*
X243386220Y35548376D01*
X243322804Y35604383D01*
X243302830Y35624358D01*
X243296055Y35630231D01*
X243279417Y35642701D01*
X243222366Y35693087D01*
X243207361Y35702944D01*
X243185075Y35713408D01*
X243165378Y35728170D01*
X243149630Y35736791D01*
X243124499Y35746212D01*
X243198834Y35808587D01*
X243206613Y35816366D01*
X243360801Y36000119D01*
X243367112Y36009132D01*
X243487048Y36216868D01*
X243491698Y36226840D01*
X243573740Y36452247D01*
X243576587Y36462874D01*
X243618241Y36699103D01*
X243619200Y36710064D01*
X243619200Y36949936D01*
X243618241Y36960897D01*
X243576587Y37197126D01*
X243573740Y37207753D01*
X243491698Y37433160D01*
X243487048Y37443132D01*
X243367112Y37650868D01*
X243360801Y37659881D01*
X243206613Y37843634D01*
X243198834Y37851413D01*
X243183434Y37864336D01*
X244336400Y37864336D01*
X244336400Y37624464D01*
X244337359Y37613503D01*
X244379013Y37377274D01*
X244381860Y37366647D01*
X244463902Y37141240D01*
X244468552Y37131268D01*
X244588488Y36923532D01*
X244594799Y36914519D01*
X244748987Y36730766D01*
X244756766Y36722987D01*
X244940519Y36568799D01*
X244949532Y36562488D01*
X245157268Y36442552D01*
X245167240Y36437902D01*
X245392647Y36355860D01*
X245403274Y36353013D01*
X245639503Y36311359D01*
X245650464Y36310400D01*
X245890336Y36310400D01*
X245901297Y36311359D01*
X246137526Y36353013D01*
X246148153Y36355860D01*
X246373560Y36437902D01*
X246383532Y36442552D01*
X246591268Y36562488D01*
X246600281Y36568799D01*
X246784034Y36722987D01*
X246791813Y36730766D01*
X246946001Y36914519D01*
X246952312Y36923532D01*
X247072248Y37131268D01*
X247076898Y37141240D01*
X247158940Y37366647D01*
X247161787Y37377274D01*
X247203441Y37613503D01*
X247204400Y37624464D01*
X247204400Y37864336D01*
X247203441Y37875297D01*
X247161787Y38111526D01*
X247158940Y38122153D01*
X247076898Y38347560D01*
X247072248Y38357532D01*
X246952312Y38565268D01*
X246946001Y38574281D01*
X246791813Y38758034D01*
X246784034Y38765813D01*
X246600281Y38920001D01*
X246591268Y38926312D01*
X246383532Y39046248D01*
X246373560Y39050898D01*
X246148153Y39132940D01*
X246137526Y39135787D01*
X245901297Y39177441D01*
X245890336Y39178400D01*
X245650464Y39178400D01*
X245639503Y39177441D01*
X245403274Y39135787D01*
X245392647Y39132940D01*
X245167240Y39050898D01*
X245157268Y39046248D01*
X244949532Y38926312D01*
X244940519Y38920001D01*
X244756766Y38765813D01*
X244748987Y38758034D01*
X244594799Y38574281D01*
X244588488Y38565268D01*
X244468552Y38357532D01*
X244463902Y38347560D01*
X244381860Y38122153D01*
X244379013Y38111526D01*
X244337359Y37875297D01*
X244336400Y37864336D01*
X243183434Y37864336D01*
X243015081Y38005601D01*
X243006068Y38011912D01*
X242798332Y38131848D01*
X242788360Y38136498D01*
X242562953Y38218540D01*
X242552326Y38221387D01*
X242316097Y38263041D01*
X242305136Y38264000D01*
X242065264Y38264000D01*
X242054303Y38263041D01*
X241818074Y38221387D01*
X241807447Y38218540D01*
X241582040Y38136498D01*
X241572068Y38131848D01*
X241364332Y38011912D01*
X241355319Y38005601D01*
X241171566Y37851413D01*
X241163787Y37843634D01*
X241009599Y37659881D01*
X241003288Y37650868D01*
X240883352Y37443132D01*
X240878702Y37433160D01*
X240796660Y37207753D01*
X240793813Y37197126D01*
X240752159Y36960897D01*
X240751200Y36949936D01*
X240751200Y36710064D01*
X240752159Y36699103D01*
X240793813Y36462874D01*
X240796660Y36452247D01*
X240878702Y36226840D01*
X240883352Y36216868D01*
X241003288Y36009132D01*
X241009599Y36000119D01*
X241154276Y35827701D01*
X238216124Y35827701D01*
X238360801Y36000119D01*
X238367112Y36009132D01*
X238487048Y36216868D01*
X238491698Y36226840D01*
X238573740Y36452247D01*
X238576587Y36462874D01*
X238618241Y36699103D01*
X238619200Y36710064D01*
X238619200Y36949936D01*
X238618241Y36960897D01*
X238576587Y37197126D01*
X238573740Y37207753D01*
X238491698Y37433160D01*
X238487048Y37443132D01*
X238367112Y37650868D01*
X238360801Y37659881D01*
X238206613Y37843634D01*
X238198834Y37851413D01*
X238015081Y38005601D01*
X238006068Y38011912D01*
X237798332Y38131848D01*
X237788360Y38136498D01*
X237562953Y38218540D01*
X237552326Y38221387D01*
X237316097Y38263041D01*
X237305136Y38264000D01*
X237065264Y38264000D01*
X237054303Y38263041D01*
X236818074Y38221387D01*
X236807447Y38218540D01*
X236582040Y38136498D01*
X236572068Y38131848D01*
X236364332Y38011912D01*
X236355319Y38005601D01*
X236171566Y37851413D01*
X236163787Y37843634D01*
X236009599Y37659881D01*
X236003288Y37650868D01*
X235883352Y37443132D01*
X235878702Y37433160D01*
X235796660Y37207753D01*
X235793813Y37197126D01*
X235752159Y36960897D01*
X235751200Y36949936D01*
X235751200Y36710064D01*
X235752159Y36699103D01*
X235793813Y36462874D01*
X235796660Y36452247D01*
X235878702Y36226840D01*
X235883352Y36216868D01*
X236003288Y36009132D01*
X236009599Y36000119D01*
X236154276Y35827701D01*
X234206164Y35827701D01*
X234212585Y36090387D01*
X234211756Y36102242D01*
X234170375Y36352203D01*
X234167855Y36362233D01*
X234086453Y36601350D01*
X234082330Y36610834D01*
X233962967Y36833445D01*
X233957349Y36842129D01*
X233803231Y37042254D01*
X233796272Y37049903D01*
X233611537Y37222171D01*
X233603421Y37228581D01*
X233589663Y37237721D01*
X233741930Y37366397D01*
X233749255Y37373697D01*
X233912966Y37566056D01*
X233919001Y37574454D01*
X234049095Y37790969D01*
X234053677Y37800239D01*
X234146663Y38035094D01*
X234149670Y38044989D01*
X234203211Y38292631D01*
X234204618Y38304431D01*
X234212585Y38630387D01*
X234211756Y38642242D01*
X234170375Y38892203D01*
X234169868Y38894222D01*
X234882862Y39607216D01*
X234936488Y39514332D01*
X234942799Y39505319D01*
X235096987Y39321566D01*
X235104766Y39313787D01*
X235288519Y39159599D01*
X235297532Y39153288D01*
X235505268Y39033352D01*
X235515240Y39028702D01*
X235740647Y38946660D01*
X235751274Y38943813D01*
X235987503Y38902159D01*
X235998464Y38901200D01*
X236238336Y38901200D01*
X236249297Y38902159D01*
X236485526Y38943813D01*
X236496153Y38946660D01*
X236721560Y39028702D01*
X236731532Y39033352D01*
X236939268Y39153288D01*
X236948281Y39159599D01*
X237132034Y39313787D01*
X237139813Y39321566D01*
X237294001Y39505319D01*
X237300312Y39514332D01*
X237420248Y39722068D01*
X237424898Y39732040D01*
X237506940Y39957447D01*
X237509787Y39968074D01*
X237551441Y40204303D01*
X237552400Y40215264D01*
X237552400Y40455136D01*
X237551441Y40466097D01*
X237509787Y40702326D01*
X237506940Y40712953D01*
X237424898Y40938360D01*
X237420248Y40948332D01*
X237300312Y41156068D01*
X237294001Y41165081D01*
X237139813Y41348834D01*
X237132034Y41356613D01*
X236948281Y41510801D01*
X236944900Y41513168D01*
X236944900Y42205232D01*
X236948281Y42207599D01*
X237132034Y42361787D01*
X237139813Y42369566D01*
X237294001Y42553319D01*
X237300312Y42562332D01*
X237420248Y42770068D01*
X237424898Y42780040D01*
X237506940Y43005447D01*
X237509787Y43016074D01*
X237551441Y43252303D01*
X237552400Y43263264D01*
X237552400Y43503136D01*
X242304400Y43503136D01*
X242304400Y43263264D01*
X242305359Y43252303D01*
X242347013Y43016074D01*
X242349860Y43005447D01*
X242431902Y42780040D01*
X242436552Y42770068D01*
X242556488Y42562332D01*
X242562799Y42553319D01*
X242716987Y42369566D01*
X242724766Y42361787D01*
X242908519Y42207599D01*
X242917532Y42201288D01*
X243125268Y42081352D01*
X243135240Y42076702D01*
X243360647Y41994660D01*
X243371274Y41991813D01*
X243607503Y41950159D01*
X243618464Y41949200D01*
X243858336Y41949200D01*
X243869297Y41950159D01*
X244105526Y41991813D01*
X244116153Y41994660D01*
X244341560Y42076702D01*
X244351532Y42081352D01*
X244559268Y42201288D01*
X244568281Y42207599D01*
X244752034Y42361787D01*
X244759813Y42369566D01*
X244914001Y42553319D01*
X244920312Y42562332D01*
X245040248Y42770068D01*
X245044898Y42780040D01*
X245126940Y43005447D01*
X245129787Y43016074D01*
X245171441Y43252303D01*
X245172400Y43263264D01*
X245172400Y43503136D01*
X245171441Y43514097D01*
X245129787Y43750326D01*
X245126940Y43760953D01*
X245044898Y43986360D01*
X245040248Y43996332D01*
X244920312Y44204068D01*
X244914001Y44213081D01*
X244759813Y44396834D01*
X244752034Y44404613D01*
X244568281Y44558801D01*
X244559268Y44565112D01*
X244351532Y44685048D01*
X244341560Y44689698D01*
X244116153Y44771740D01*
X244105526Y44774587D01*
X243869297Y44816241D01*
X243858336Y44817200D01*
X243618464Y44817200D01*
X243607503Y44816241D01*
X243371274Y44774587D01*
X243360647Y44771740D01*
X243135240Y44689698D01*
X243125268Y44685048D01*
X242917532Y44565112D01*
X242908519Y44558801D01*
X242724766Y44404613D01*
X242716987Y44396834D01*
X242562799Y44213081D01*
X242556488Y44204068D01*
X242436552Y43996332D01*
X242431902Y43986360D01*
X242349860Y43760953D01*
X242347013Y43750326D01*
X242305359Y43514097D01*
X242304400Y43503136D01*
X237552400Y43503136D01*
X237551441Y43514097D01*
X237509787Y43750326D01*
X237506940Y43760953D01*
X237424898Y43986360D01*
X237420248Y43996332D01*
X237300312Y44204068D01*
X237294001Y44213081D01*
X237139813Y44396834D01*
X237132034Y44404613D01*
X236948281Y44558801D01*
X236939268Y44565112D01*
X236792153Y44650049D01*
X237645205Y45503100D01*
X239026032Y45503100D01*
X239028399Y45499719D01*
X239182587Y45315966D01*
X239190366Y45308187D01*
X239374119Y45153999D01*
X239383132Y45147688D01*
X239590868Y45027752D01*
X239600840Y45023102D01*
X239826247Y44941060D01*
X239836874Y44938213D01*
X240073103Y44896559D01*
X240084064Y44895600D01*
X240323936Y44895600D01*
X240334897Y44896559D01*
X240571126Y44938213D01*
X240581753Y44941060D01*
X240807160Y45023102D01*
X240817132Y45027752D01*
X241024868Y45147688D01*
X241033881Y45153999D01*
X241217634Y45308187D01*
X241225413Y45315966D01*
X241379601Y45499719D01*
X241385912Y45508732D01*
X241505848Y45716468D01*
X241510498Y45726440D01*
X241592540Y45951847D01*
X241595387Y45962474D01*
X241637041Y46198703D01*
X241638000Y46209664D01*
X241638000Y46449536D01*
X241637041Y46460497D01*
X241595387Y46696726D01*
X241592540Y46707353D01*
X241510498Y46932760D01*
X241505848Y46942732D01*
X241385912Y47150468D01*
X241379601Y47159481D01*
X241225413Y47343234D01*
X241217634Y47351013D01*
X241033881Y47505201D01*
X241024868Y47511512D01*
X240817132Y47631448D01*
X240807160Y47636098D01*
X240581753Y47718140D01*
X240571126Y47720987D01*
X240334897Y47762641D01*
X240323936Y47763600D01*
X240084064Y47763600D01*
X240073103Y47762641D01*
X239836874Y47720987D01*
X239826247Y47718140D01*
X239600840Y47636098D01*
X239590868Y47631448D01*
X239383132Y47511512D01*
X239374119Y47505201D01*
X239190366Y47351013D01*
X239182587Y47343234D01*
X239028399Y47159481D01*
X239026032Y47156100D01*
X238019975Y47156100D01*
X239206514Y48342638D01*
X239374119Y48201999D01*
X239383132Y48195688D01*
X239590868Y48075752D01*
X239600840Y48071102D01*
X239826247Y47989060D01*
X239836874Y47986213D01*
X240073103Y47944559D01*
X240084064Y47943600D01*
X240323936Y47943600D01*
X240334897Y47944559D01*
X240571126Y47986213D01*
X240581753Y47989060D01*
X240807160Y48071102D01*
X240817132Y48075752D01*
X241024868Y48195688D01*
X241033881Y48201999D01*
X241217634Y48356187D01*
X241225413Y48363966D01*
X241379601Y48547719D01*
X241385912Y48556732D01*
X241505848Y48764468D01*
X241510498Y48774440D01*
X241592540Y48999847D01*
X241595387Y49010474D01*
X241637041Y49246703D01*
X241638000Y49257664D01*
X241638000Y49497536D01*
X241637041Y49508497D01*
X241595387Y49744726D01*
X241592540Y49755353D01*
X241510498Y49980760D01*
X241505848Y49990732D01*
X241385912Y50198468D01*
X241379601Y50207481D01*
X241225413Y50391234D01*
X241217634Y50399013D01*
X241033881Y50553201D01*
X241024868Y50559512D01*
X240817132Y50679448D01*
X240807160Y50684098D01*
X240581753Y50766140D01*
X240571126Y50768987D01*
X240334897Y50810641D01*
X240323936Y50811600D01*
X240084064Y50811600D01*
X240073103Y50810641D01*
X239836874Y50768987D01*
X239826247Y50766140D01*
X239600840Y50684098D01*
X239590868Y50679448D01*
X239383132Y50559512D01*
X239374119Y50553201D01*
X239190366Y50399013D01*
X239182587Y50391234D01*
X239028399Y50207481D01*
X239026032Y50204100D01*
X239017851Y50204100D01*
X239008909Y50203463D01*
X238988303Y50200512D01*
X238912356Y50195800D01*
X238894776Y50192160D01*
X238871624Y50183802D01*
X238847252Y50180312D01*
X238830021Y50175273D01*
X238760736Y50143771D01*
X238688973Y50117864D01*
X238672806Y50109204D01*
X238653832Y50095165D01*
X238631017Y50084791D01*
X238615892Y50075119D01*
X238549922Y50018275D01*
X238532675Y50005513D01*
X238525592Y49999409D01*
X238510422Y49984239D01*
X238450283Y49932420D01*
X238438481Y49918891D01*
X238426338Y49900156D01*
X236872785Y48346601D01*
X236206210Y48346601D01*
X236217634Y48356187D01*
X236225413Y48363966D01*
X236379601Y48547719D01*
X236385912Y48556732D01*
X236505848Y48764468D01*
X236510498Y48774440D01*
X236592540Y48999847D01*
X236595387Y49010474D01*
X236637041Y49246703D01*
X236638000Y49257664D01*
X236638000Y49497536D01*
X236637041Y49508497D01*
X236595387Y49744726D01*
X236592540Y49755353D01*
X236510498Y49980760D01*
X236505848Y49990732D01*
X236385912Y50198468D01*
X236379601Y50207481D01*
X236225413Y50391234D01*
X236217634Y50399013D01*
X236033881Y50553201D01*
X236024868Y50559512D01*
X235817132Y50679448D01*
X235807160Y50684098D01*
X235581753Y50766140D01*
X235571126Y50768987D01*
X235334897Y50810641D01*
X235323936Y50811600D01*
X235084064Y50811600D01*
X235073103Y50810641D01*
X234836874Y50768987D01*
X234826247Y50766140D01*
X234600840Y50684098D01*
X234590868Y50679448D01*
X234383132Y50559512D01*
X234374119Y50553201D01*
X234190366Y50399013D01*
X234182587Y50391234D01*
X234028399Y50207481D01*
X234022088Y50198468D01*
X233902152Y49990732D01*
X233897502Y49980760D01*
X233815460Y49755353D01*
X233812613Y49744726D01*
X233770959Y49508497D01*
X233770000Y49497536D01*
X233770000Y49257664D01*
X233770959Y49246703D01*
X233812613Y49010474D01*
X233815460Y48999847D01*
X233897502Y48774440D01*
X233902152Y48764468D01*
X234022088Y48556732D01*
X234028399Y48547719D01*
X234182587Y48363966D01*
X234190366Y48356187D01*
X234287819Y48274414D01*
X234248902Y48260365D01*
X234232734Y48251705D01*
X234213762Y48237666D01*
X234190947Y48227293D01*
X234175822Y48217620D01*
X234109850Y48160775D01*
X234092605Y48148014D01*
X234085521Y48141910D01*
X234070358Y48126746D01*
X234010212Y48074920D01*
X233998410Y48061392D01*
X233986262Y48042650D01*
X233905600Y47961988D01*
X233905600Y48075136D01*
X233904641Y48086097D01*
X233862987Y48322326D01*
X233860140Y48332953D01*
X233778098Y48558360D01*
X233773448Y48568332D01*
X233638653Y48801803D01*
X233515444Y48818023D01*
X232382505Y47685085D01*
X231608777Y46911357D01*
X231624997Y46788147D01*
X231858468Y46653352D01*
X231868440Y46648702D01*
X232093847Y46566660D01*
X232104474Y46563813D01*
X232340703Y46522159D01*
X232351664Y46521200D01*
X232591536Y46521200D01*
X232602497Y46522159D01*
X232838726Y46563813D01*
X232849353Y46566660D01*
X233074760Y46648702D01*
X233084732Y46653352D01*
X233142401Y46686647D01*
X233142401Y45193437D01*
X232175009Y45193437D01*
X230840946Y46527499D01*
X231075459Y46590337D01*
X231099939Y46603080D01*
X231256190Y46734190D01*
X231270361Y46751079D01*
X231370959Y46925320D01*
X231378500Y46946037D01*
X231404835Y47095394D01*
X231427756Y47092377D01*
X232238390Y47903009D01*
X232238390Y48007391D01*
X231427756Y48818023D01*
X231401958Y48814627D01*
X231352544Y48999044D01*
X231608777Y48999044D01*
X232419409Y48188410D01*
X232523791Y48188410D01*
X233334423Y48999044D01*
X233318203Y49122253D01*
X233084732Y49257048D01*
X233074760Y49261698D01*
X232849353Y49343740D01*
X232838726Y49346587D01*
X232602497Y49388241D01*
X232591536Y49389200D01*
X232351664Y49389200D01*
X232340703Y49388241D01*
X232104474Y49346587D01*
X232093847Y49343740D01*
X231868440Y49261698D01*
X231858468Y49257048D01*
X231624997Y49122253D01*
X231608777Y48999044D01*
X231352544Y48999044D01*
X231336463Y49059059D01*
X231323720Y49083539D01*
X231192610Y49239790D01*
X231175721Y49253961D01*
X231001480Y49354559D01*
X230980763Y49362100D01*
X230793934Y49395043D01*
X230789800Y49461676D01*
X230786160Y49479255D01*
X230777802Y49502407D01*
X230774312Y49526778D01*
X230769273Y49544009D01*
X230737770Y49613296D01*
X230711864Y49685057D01*
X230703204Y49701225D01*
X230689165Y49720197D01*
X230678792Y49743012D01*
X230669119Y49758137D01*
X230612274Y49824109D01*
X230599513Y49841354D01*
X230593409Y49848438D01*
X230578244Y49863602D01*
X230526420Y49923747D01*
X230512891Y49935549D01*
X230494149Y49947697D01*
X228235060Y52206786D01*
X228239679Y52232982D01*
X233024320Y52232982D01*
X233050613Y52083874D01*
X233053460Y52073247D01*
X233135502Y51847840D01*
X233140152Y51837868D01*
X233260088Y51630132D01*
X233266399Y51621119D01*
X233420587Y51437366D01*
X233428366Y51429587D01*
X233612119Y51275399D01*
X233621132Y51269088D01*
X233828868Y51149152D01*
X233838840Y51144502D01*
X234064247Y51062460D01*
X234074874Y51059613D01*
X234223982Y51033320D01*
X234314000Y51108854D01*
X234314000Y52249191D01*
X234240191Y52323000D01*
X233099854Y52323000D01*
X233024320Y52232982D01*
X228239679Y52232982D01*
X228255041Y52320103D01*
X228256000Y52331064D01*
X228256000Y52570936D01*
X228255041Y52581897D01*
X228213387Y52818126D01*
X228210540Y52828753D01*
X228128498Y53054160D01*
X228123848Y53064132D01*
X228003912Y53271868D01*
X227997601Y53280881D01*
X227843413Y53464634D01*
X227840047Y53468000D01*
X233423953Y53468000D01*
X233420587Y53464634D01*
G37*
D22*
X233420587Y53464634D02*
X233266399Y53280881D01*
X233260088Y53271868D01*
X233140152Y53064132D01*
X233135502Y53054160D01*
X233053460Y52828753D01*
X233050613Y52818126D01*
X233024320Y52669018D01*
X233099854Y52579000D01*
X234570000Y52579000D01*
X234570000Y51108854D01*
X234660018Y51033320D01*
X234809126Y51059613D01*
X234819753Y51062460D01*
X235045160Y51144502D01*
X235055132Y51149152D01*
X235262868Y51269088D01*
X235271881Y51275399D01*
X235455634Y51429587D01*
X235463413Y51437366D01*
X235489750Y51468753D01*
X235516087Y51437366D01*
X235523866Y51429587D01*
X235707619Y51275399D01*
X235716632Y51269088D01*
X235924368Y51149152D01*
X235934340Y51144502D01*
X236159747Y51062460D01*
X236170374Y51059613D01*
X236406603Y51017959D01*
X236417564Y51017000D01*
X236657436Y51017000D01*
X236668397Y51017959D01*
X236904626Y51059613D01*
X236915253Y51062460D01*
X237140660Y51144502D01*
X237150632Y51149152D01*
X237358368Y51269088D01*
X237367381Y51275399D01*
X237551134Y51429587D01*
X237558913Y51437366D01*
X237713101Y51621119D01*
X237719412Y51630132D01*
X237839348Y51837868D01*
X237843998Y51847840D01*
X237926040Y52073247D01*
X237928887Y52083874D01*
X237970541Y52320103D01*
X237971500Y52331064D01*
X237971500Y52570936D01*
X237970541Y52581897D01*
X237928887Y52818126D01*
X237926040Y52828753D01*
X237843998Y53054160D01*
X237839348Y53064132D01*
X237719412Y53271868D01*
X237713101Y53280881D01*
X237558913Y53464634D01*
X237555547Y53468000D01*
X243139453Y53468000D01*
X243136087Y53464634D01*
X242981899Y53280881D01*
X242975588Y53271868D01*
X242855652Y53064132D01*
X242851002Y53054160D01*
X242768960Y52828753D01*
X242766113Y52818126D01*
X242724459Y52581897D01*
X242723500Y52570936D01*
X242723500Y52331064D01*
X242724459Y52320103D01*
X242744440Y52206786D01*
X242686051Y52148397D01*
X242671498Y52139215D01*
X242657826Y52127579D01*
X242601827Y52064172D01*
X242581843Y52044189D01*
X242575971Y52037416D01*
X242563494Y52020769D01*
X242513114Y51963724D01*
X242503257Y51948718D01*
X242492796Y51926438D01*
X242478032Y51906738D01*
X242469410Y51890990D01*
X242442691Y51819717D01*
X242410269Y51750660D01*
X242404961Y51733106D01*
X242401472Y51709765D01*
X242392673Y51686291D01*
X242388818Y51668757D01*
X242382363Y51581898D01*
X242379194Y51560695D01*
X242378501Y51551372D01*
X242378501Y51529925D01*
X242372618Y51450751D01*
X242373839Y51432840D01*
X242378501Y51411001D01*
X242378500Y48873681D01*
X242101142Y48799363D01*
X242076662Y48786620D01*
X241920410Y48655510D01*
X241906239Y48638621D01*
X241805641Y48464380D01*
X241798100Y48443663D01*
X241764122Y48250962D01*
X241763163Y48240001D01*
X241763163Y46626242D01*
X241765319Y46609866D01*
X241840137Y46330642D01*
X241852880Y46306162D01*
X241983990Y46149910D01*
X242000879Y46135739D01*
X242175120Y46035141D01*
X242195837Y46027600D01*
X242388538Y45993622D01*
X242399499Y45992663D01*
X244013258Y45992663D01*
X244029634Y45994819D01*
X244308859Y46069637D01*
X244333339Y46082380D01*
X244489590Y46213490D01*
X244503761Y46230379D01*
X244596296Y46390656D01*
X244842177Y46390656D01*
X244858397Y46267447D01*
X245091868Y46132652D01*
X245101840Y46128002D01*
X245327247Y46045960D01*
X245337874Y46043113D01*
X245574103Y46001459D01*
X245585064Y46000500D01*
X245824936Y46000500D01*
X245835897Y46001459D01*
X246072126Y46043113D01*
X246082753Y46045960D01*
X246308160Y46128002D01*
X246318132Y46132652D01*
X246551603Y46267447D01*
X246567823Y46390656D01*
X245757191Y47201290D01*
X245652809Y47201290D01*
X244842177Y46390656D01*
X244596296Y46390656D01*
X244604359Y46404620D01*
X244611900Y46425337D01*
X244638235Y46574694D01*
X244661156Y46571677D01*
X245471790Y47382309D01*
X245471790Y47486691D01*
X245938210Y47486691D01*
X245938210Y47382309D01*
X246748844Y46571677D01*
X246872053Y46587897D01*
X247006848Y46821368D01*
X247011498Y46831340D01*
X247093540Y47056747D01*
X247096387Y47067374D01*
X247138041Y47303603D01*
X247139000Y47314564D01*
X247139000Y47554436D01*
X247138041Y47565397D01*
X247096387Y47801626D01*
X247093540Y47812253D01*
X247011498Y48037660D01*
X247006848Y48047632D01*
X246872053Y48281103D01*
X246748844Y48297323D01*
X245938210Y47486691D01*
X245471790Y47486691D01*
X244661156Y48297323D01*
X244635358Y48293927D01*
X244585944Y48478344D01*
X244842177Y48478344D01*
X245652809Y47667710D01*
X245757191Y47667710D01*
X246567823Y48478344D01*
X246551603Y48601553D01*
X246318132Y48736348D01*
X246308160Y48740998D01*
X246082753Y48823040D01*
X246072126Y48825887D01*
X245835897Y48867541D01*
X245824936Y48868500D01*
X245585064Y48868500D01*
X245574103Y48867541D01*
X245337874Y48825887D01*
X245327247Y48823040D01*
X245101840Y48740998D01*
X245091868Y48736348D01*
X244858397Y48601553D01*
X244842177Y48478344D01*
X244585944Y48478344D01*
X244569863Y48538359D01*
X244557120Y48562839D01*
X244426010Y48719090D01*
X244409121Y48733261D01*
X244234880Y48833859D01*
X244214163Y48841400D01*
X244031500Y48873608D01*
X244031500Y51017531D01*
X244037564Y51017000D01*
X244277436Y51017000D01*
X244288397Y51017959D01*
X244524626Y51059613D01*
X244535253Y51062460D01*
X244760660Y51144502D01*
X244770632Y51149152D01*
X244927436Y51239682D01*
X244976937Y51054942D01*
X244989680Y51030462D01*
X245120790Y50874210D01*
X245137679Y50860039D01*
X245311920Y50759441D01*
X245332637Y50751900D01*
X245525338Y50717922D01*
X245536299Y50716963D01*
X247480458Y50716963D01*
X247496834Y50719119D01*
X247776059Y50793937D01*
X247800539Y50806680D01*
X247956790Y50937790D01*
X247970961Y50954679D01*
X248041025Y51076034D01*
X248233148Y50941508D01*
X248242077Y50936290D01*
X248469873Y50827149D01*
X248479535Y50823460D01*
X248722098Y50752988D01*
X248732232Y50750927D01*
X248834309Y50738754D01*
X248919000Y50813946D01*
X248919000Y52452000D01*
X249175000Y52452000D01*
X249175000Y50811699D01*
X249268412Y50736056D01*
X249503045Y50785930D01*
X249512950Y50788901D01*
X249748128Y50881067D01*
X249757415Y50885616D01*
X249974382Y51014954D01*
X249982801Y51020959D01*
X250064000Y51089578D01*
X250064000Y48996487D01*
X249949508Y49149531D01*
X249942814Y49157123D01*
X249760974Y49332724D01*
X249753153Y49339149D01*
X249545575Y49483419D01*
X249536828Y49488510D01*
X249308856Y49597736D01*
X249299407Y49601363D01*
X249056903Y49672735D01*
X249046996Y49674805D01*
X248796202Y49706489D01*
X248786090Y49706948D01*
X248533456Y49698126D01*
X248523401Y49696962D01*
X248275428Y49647861D01*
X248265689Y49645106D01*
X248028756Y49556992D01*
X248019583Y49552714D01*
X247799784Y49427851D01*
X247791413Y49422162D01*
X247594406Y49263763D01*
X247587052Y49256809D01*
X247417904Y49068952D01*
X247411756Y49060911D01*
X247274819Y48848425D01*
X247270036Y48839506D01*
X247168832Y48607861D01*
X247165537Y48598291D01*
X247102671Y48353444D01*
X247100948Y48343470D01*
X247078038Y48091723D01*
X247077932Y48081602D01*
X247095566Y47829429D01*
X247097079Y47819422D01*
X247154804Y47573313D01*
X247157898Y47563676D01*
X247254228Y47329962D01*
X247258823Y47320944D01*
X247391280Y47105638D01*
X247397258Y47097470D01*
X247562434Y46906110D01*
X247569641Y46899003D01*
X247763289Y46736514D01*
X247771539Y46730651D01*
X247988673Y46601213D01*
X247997755Y46596744D01*
X248232791Y46503687D01*
X248242470Y46500728D01*
X248489361Y46446446D01*
X248499389Y46445072D01*
X248751783Y46430961D01*
X248761901Y46431208D01*
X249013304Y46457631D01*
X249023253Y46459493D01*
X249267198Y46525772D01*
X249276720Y46529200D01*
X249506931Y46633627D01*
X249515783Y46638534D01*
X249726336Y46778426D01*
X249734289Y46784685D01*
X249919768Y46956439D01*
X249926619Y46963890D01*
X250064000Y47139729D01*
X250064000Y41981124D01*
X249946680Y42048859D01*
X249925963Y42056400D01*
X249733262Y42090378D01*
X249722301Y42091337D01*
X247708542Y42091337D01*
X247692166Y42089181D01*
X247412942Y42014363D01*
X247388462Y42001620D01*
X247232210Y41870510D01*
X247218039Y41853621D01*
X247117441Y41679380D01*
X247109900Y41658663D01*
X247075922Y41465962D01*
X247074963Y41455001D01*
X247074963Y41161700D01*
X244916368Y41161700D01*
X244914001Y41165081D01*
X244759813Y41348834D01*
X244752034Y41356613D01*
X244568281Y41510801D01*
X244559268Y41517112D01*
X244351532Y41637048D01*
X244341560Y41641698D01*
X244116153Y41723740D01*
X244105526Y41726587D01*
X243869297Y41768241D01*
X243858336Y41769200D01*
X243618464Y41769200D01*
X243607503Y41768241D01*
X243371274Y41726587D01*
X243360647Y41723740D01*
X243135240Y41641698D01*
X243125268Y41637048D01*
X242917532Y41517112D01*
X242908519Y41510801D01*
X242724766Y41356613D01*
X242716987Y41348834D01*
X242562799Y41165081D01*
X242556488Y41156068D01*
X242436552Y40948332D01*
X242431902Y40938360D01*
X242349860Y40712953D01*
X242347013Y40702326D01*
X242305359Y40466097D01*
X242304400Y40455136D01*
X242304400Y40215264D01*
X242305359Y40204303D01*
X242347013Y39968074D01*
X242349860Y39957447D01*
X242431902Y39732040D01*
X242436552Y39722068D01*
X242556488Y39514332D01*
X242562799Y39505319D01*
X242716987Y39321566D01*
X242724766Y39313787D01*
X242908519Y39159599D01*
X242917532Y39153288D01*
X243125268Y39033352D01*
X243135240Y39028702D01*
X243360647Y38946660D01*
X243371274Y38943813D01*
X243607503Y38902159D01*
X243618464Y38901200D01*
X243858336Y38901200D01*
X243869297Y38902159D01*
X244105526Y38943813D01*
X244116153Y38946660D01*
X244341560Y39028702D01*
X244351532Y39033352D01*
X244559268Y39153288D01*
X244568281Y39159599D01*
X244752034Y39313787D01*
X244759813Y39321566D01*
X244914001Y39505319D01*
X244916368Y39508700D01*
X247074963Y39508700D01*
X247074963Y39441242D01*
X247077119Y39424866D01*
X247151937Y39145642D01*
X247164680Y39121162D01*
X247295790Y38964910D01*
X247312679Y38950739D01*
X247486920Y38850141D01*
X247507637Y38842600D01*
X247700338Y38808622D01*
X247711299Y38807663D01*
X247803841Y38807663D01*
X247753966Y38765813D01*
X247746187Y38758034D01*
X247591999Y38574281D01*
X247585688Y38565268D01*
X247465752Y38357532D01*
X247461102Y38347560D01*
X247379060Y38122153D01*
X247376213Y38111526D01*
X247334559Y37875297D01*
X247333600Y37864336D01*
X247333600Y37624464D01*
X247334559Y37613503D01*
X247376213Y37377274D01*
X247379060Y37366647D01*
X247461102Y37141240D01*
X247465752Y37131268D01*
X247585688Y36923532D01*
X247591999Y36914519D01*
X247746187Y36730766D01*
X247753966Y36722987D01*
X247937719Y36568799D01*
X247946732Y36562488D01*
X248154468Y36442552D01*
X248164440Y36437902D01*
X248389847Y36355860D01*
X248400474Y36353013D01*
X248636703Y36311359D01*
X248647664Y36310400D01*
X248887536Y36310400D01*
X248898497Y36311359D01*
X249134726Y36353013D01*
X249145353Y36355860D01*
X249370760Y36437902D01*
X249380732Y36442552D01*
X249588468Y36562488D01*
X249597481Y36568799D01*
X249781234Y36722987D01*
X249789013Y36730766D01*
X249943201Y36914519D01*
X249949512Y36923532D01*
X250064001Y37121833D01*
X250064001Y30746967D01*
X249949512Y30945268D01*
X249943201Y30954281D01*
X249789013Y31138034D01*
X249781234Y31145813D01*
X249597481Y31300001D01*
X249588468Y31306312D01*
X249380732Y31426248D01*
X249370760Y31430898D01*
X249145353Y31512940D01*
X249134726Y31515787D01*
X248898497Y31557441D01*
X248887536Y31558400D01*
X248647664Y31558400D01*
X248636703Y31557441D01*
X248400474Y31515787D01*
X248389847Y31512940D01*
X248164440Y31430898D01*
X248154468Y31426248D01*
X247946732Y31306312D01*
X247937719Y31300001D01*
X247753966Y31145813D01*
X247746187Y31138034D01*
X247591999Y30954281D01*
X247585688Y30945268D01*
X247465752Y30737532D01*
X247461102Y30727560D01*
X247379060Y30502153D01*
X247376213Y30491526D01*
X247334559Y30255297D01*
X247333600Y30244336D01*
X247333600Y30004464D01*
X247334559Y29993503D01*
X247376213Y29757274D01*
X247379060Y29746647D01*
X247461102Y29521240D01*
X247465752Y29511268D01*
X247585688Y29303532D01*
X247591999Y29294519D01*
X247746187Y29110766D01*
X247753966Y29102987D01*
X247937719Y28948799D01*
X247946732Y28942488D01*
X248154468Y28822552D01*
X248164440Y28817902D01*
X248389847Y28735860D01*
X248400474Y28733013D01*
X248636703Y28691359D01*
X248647664Y28690400D01*
X248887536Y28690400D01*
X248898497Y28691359D01*
X249134726Y28733013D01*
X249145353Y28735860D01*
X249370760Y28817902D01*
X249380732Y28822552D01*
X249588468Y28942488D01*
X249597481Y28948799D01*
X249781234Y29102987D01*
X249789013Y29110766D01*
X249943201Y29294519D01*
X249949512Y29303532D01*
X250064001Y29501833D01*
X250064001Y25145000D01*
X242628561Y25145000D01*
X242650566Y25170856D01*
X242656601Y25179254D01*
X242786695Y25395769D01*
X242791277Y25405039D01*
X242884263Y25639894D01*
X242887270Y25649789D01*
X242940811Y25897431D01*
X242942218Y25909231D01*
X242950185Y26235187D01*
X242949356Y26247042D01*
X242907975Y26497003D01*
X242905455Y26507033D01*
X242860053Y26640401D01*
X244330163Y26640401D01*
X244330163Y25863342D01*
X244332319Y25846966D01*
X244407137Y25567742D01*
X244419880Y25543262D01*
X244550990Y25387010D01*
X244567879Y25372839D01*
X244742120Y25272241D01*
X244762837Y25264700D01*
X244955538Y25230722D01*
X244966499Y25229763D01*
X246780258Y25229763D01*
X246796634Y25231919D01*
X247075859Y25306737D01*
X247100339Y25319480D01*
X247256590Y25450590D01*
X247270761Y25467479D01*
X247370221Y25639750D01*
X247377187Y25632306D01*
X247385112Y25625158D01*
X247583941Y25474239D01*
X247592957Y25468529D01*
X247814371Y25353268D01*
X247824220Y25349158D01*
X248061889Y25272851D01*
X248072290Y25270460D01*
X248319417Y25235288D01*
X248330072Y25234683D01*
X248579593Y25241652D01*
X248590198Y25242851D01*
X248834977Y25291763D01*
X248845228Y25294732D01*
X249078267Y25384187D01*
X249087871Y25388840D01*
X249302506Y25516281D01*
X249311188Y25522486D01*
X249501283Y25684269D01*
X249508796Y25691848D01*
X249668914Y25883346D01*
X249675042Y25892083D01*
X249800606Y26107821D01*
X249805175Y26117466D01*
X249892593Y26351277D01*
X249895471Y26361554D01*
X249942302Y26607047D01*
X249943417Y26618270D01*
X249946078Y26895502D01*
X249945179Y26906744D01*
X249903070Y27153092D01*
X249900389Y27163422D01*
X249817476Y27398868D01*
X249813092Y27408599D01*
X249691694Y27626708D01*
X249685734Y27635561D01*
X249529322Y27830098D01*
X249521956Y27837820D01*
X249335003Y28003222D01*
X249326440Y28009593D01*
X249114291Y28141130D01*
X249104778Y28145967D01*
X248873500Y28239879D01*
X248863308Y28243044D01*
X248619513Y28296646D01*
X248608934Y28298048D01*
X248359592Y28309806D01*
X248348928Y28309406D01*
X248101170Y28278986D01*
X248090725Y28276794D01*
X247851635Y28205063D01*
X247841709Y28201143D01*
X247618123Y28090154D01*
X247609000Y28084618D01*
X247407311Y27937544D01*
X247399250Y27930549D01*
X247359774Y27889955D01*
X247336863Y27975459D01*
X247324120Y27999939D01*
X247193010Y28156190D01*
X247176121Y28170361D01*
X247001880Y28270959D01*
X246981163Y28278500D01*
X246788462Y28312478D01*
X246777501Y28313437D01*
X244963741Y28313437D01*
X244947366Y28311281D01*
X244880636Y28293401D01*
X240259091Y28293401D01*
X240242310Y28297198D01*
X240224415Y28298638D01*
X240140006Y28293401D01*
X240111723Y28293401D01*
X240102781Y28292764D01*
X240082175Y28289813D01*
X240006226Y28285101D01*
X239988647Y28281461D01*
X239965494Y28273103D01*
X239941124Y28269613D01*
X239923892Y28264574D01*
X239854603Y28233070D01*
X239782844Y28207165D01*
X239766677Y28198505D01*
X239747705Y28184466D01*
X239724889Y28174093D01*
X239709764Y28164420D01*
X239643792Y28107575D01*
X239626547Y28094814D01*
X239619463Y28088710D01*
X239604299Y28073545D01*
X239544154Y28021721D01*
X239532352Y28008192D01*
X239520204Y27989450D01*
X239194685Y27663931D01*
X239097223Y27689681D01*
X239087042Y27691494D01*
X238835570Y27715265D01*
X238825229Y27715392D01*
X238573251Y27697771D01*
X238563029Y27696207D01*
X238317313Y27637669D01*
X238307483Y27634457D01*
X238074627Y27536573D01*
X238065454Y27531798D01*
X237851712Y27397197D01*
X237843442Y27390988D01*
X237654554Y27223286D01*
X237647409Y27215809D01*
X237540427Y27083697D01*
X237460831Y27187054D01*
X237453872Y27194703D01*
X237269137Y27366971D01*
X237261021Y27373381D01*
X237050632Y27513164D01*
X237041578Y27518162D01*
X236811183Y27621705D01*
X236801434Y27625157D01*
X236557223Y27689681D01*
X236547042Y27691494D01*
X236481202Y27697718D01*
X236398800Y27622739D01*
X236398800Y25983200D01*
X236142800Y25983200D01*
X236142800Y27626243D01*
X236046984Y27701914D01*
X235777313Y27637669D01*
X235767483Y27634457D01*
X235534627Y27536573D01*
X235525454Y27531798D01*
X235311712Y27397197D01*
X235303442Y27390988D01*
X235266723Y27358388D01*
X235260863Y27380259D01*
X235248120Y27404739D01*
X235117010Y27560990D01*
X235100121Y27575161D01*
X234925880Y27675759D01*
X234905163Y27683300D01*
X234712462Y27717278D01*
X234701501Y27718237D01*
X232757342Y27718237D01*
X232740966Y27716081D01*
X232461742Y27641263D01*
X232437262Y27628520D01*
X232281010Y27497410D01*
X232266839Y27480521D01*
X232166241Y27306280D01*
X232158700Y27285563D01*
X232124722Y27092862D01*
X232123763Y27081901D01*
X232123763Y25145000D01*
X225627200Y25145000D01*
X225627200Y33005183D01*
X225861521Y33005183D01*
X225887813Y32856075D01*
X225890660Y32845447D01*
X225972702Y32620040D01*
X225977352Y32610068D01*
X226097288Y32402332D01*
X226103599Y32393319D01*
X226257787Y32209566D01*
X226265566Y32201787D01*
X226449319Y32047599D01*
X226458332Y32041288D01*
X226666068Y31921352D01*
X226676040Y31916702D01*
X226901447Y31834660D01*
X226912074Y31831813D01*
X227061182Y31805520D01*
X227151200Y31881054D01*
X227407199Y31881054D01*
X227497217Y31805521D01*
X227646325Y31831813D01*
X227656953Y31834660D01*
X227882360Y31916702D01*
X227892332Y31921352D01*
X228100068Y32041288D01*
X228109081Y32047599D01*
X228292834Y32201787D01*
X228300613Y32209566D01*
X228454801Y32393319D01*
X228461112Y32402332D01*
X228581048Y32610068D01*
X228585698Y32620040D01*
X228667740Y32845447D01*
X228670587Y32856074D01*
X228696880Y33005182D01*
X228621346Y33095200D01*
X227481009Y33095201D01*
X227407200Y33021392D01*
X227407199Y31881054D01*
X227151200Y31881054D01*
X227151201Y33021391D01*
X227077392Y33095200D01*
X225937054Y33095201D01*
X225861521Y33005183D01*
X225627200Y33005183D01*
X225627200Y33441218D01*
X225861520Y33441218D01*
X225937054Y33351200D01*
X227077391Y33351199D01*
X227151200Y33425008D01*
X227151200Y33425009D01*
X227407199Y33425009D01*
X227481008Y33351200D01*
X228621346Y33351199D01*
X228696879Y33441217D01*
X228670587Y33590325D01*
X228667740Y33600953D01*
X228585698Y33826360D01*
X228581048Y33836332D01*
X228461112Y34044068D01*
X228454801Y34053081D01*
X228300613Y34236834D01*
X228292834Y34244613D01*
X228109081Y34398801D01*
X228100068Y34405112D01*
X227892332Y34525048D01*
X227882360Y34529698D01*
X227656953Y34611740D01*
X227646326Y34614587D01*
X227497218Y34640880D01*
X227407200Y34565346D01*
X227407199Y33425009D01*
X227151200Y33425009D01*
X227151201Y34565346D01*
X227061183Y34640879D01*
X226912075Y34614587D01*
X226901447Y34611740D01*
X226676040Y34529698D01*
X226666068Y34525048D01*
X226458332Y34405112D01*
X226449319Y34398801D01*
X226265566Y34244613D01*
X226257787Y34236834D01*
X226103599Y34053081D01*
X226097288Y34044068D01*
X225977352Y33836332D01*
X225972702Y33826360D01*
X225890660Y33600953D01*
X225887813Y33590326D01*
X225861520Y33441218D01*
X225627200Y33441218D01*
X225627200Y44557101D01*
X226434163Y44557101D01*
X226434163Y43788209D01*
X226507972Y43714400D01*
X227839391Y43714399D01*
X227913200Y43788208D01*
X227913200Y43788209D01*
X228169199Y43788209D01*
X228243008Y43714400D01*
X229574428Y43714399D01*
X229648237Y43788208D01*
X229648237Y44559858D01*
X229646081Y44576234D01*
X229571263Y44855459D01*
X229558520Y44879939D01*
X229427410Y45036190D01*
X229410521Y45050361D01*
X229236280Y45150959D01*
X229215563Y45158500D01*
X229022862Y45192478D01*
X229011901Y45193437D01*
X228243009Y45193437D01*
X228169200Y45119628D01*
X228169199Y43788209D01*
X227913200Y43788209D01*
X227913201Y45119628D01*
X227839392Y45193437D01*
X227067742Y45193437D01*
X227051366Y45191281D01*
X226772142Y45116463D01*
X226747662Y45103720D01*
X226591410Y44972610D01*
X226577239Y44955721D01*
X226476641Y44781480D01*
X226469100Y44760763D01*
X226435122Y44568062D01*
X226434163Y44557101D01*
X225627200Y44557101D01*
X225627200Y51652455D01*
X225640088Y51630132D01*
X225646399Y51621119D01*
X225800587Y51437366D01*
X225808366Y51429587D01*
X225992119Y51275399D01*
X226001132Y51269088D01*
X226208868Y51149152D01*
X226218840Y51144502D01*
X226444247Y51062460D01*
X226454874Y51059613D01*
X226691103Y51017959D01*
X226702064Y51017000D01*
X226941936Y51017000D01*
X226952897Y51017959D01*
X227066214Y51037940D01*
X228818017Y49286137D01*
X228687010Y49176210D01*
X228672839Y49159321D01*
X228572241Y48985080D01*
X228564700Y48964363D01*
X228530722Y48771662D01*
X228529763Y48760701D01*
X228529763Y47146942D01*
X228531919Y47130566D01*
X228606737Y46851342D01*
X228619480Y46826862D01*
X228750590Y46670610D01*
X228767479Y46656439D01*
X228941720Y46555841D01*
X228962437Y46548300D01*
X229145101Y46516092D01*
X229145101Y46320595D01*
X229141303Y46303810D01*
X229139863Y46285914D01*
X229145101Y46201489D01*
X229145101Y46173221D01*
X229145738Y46164277D01*
X229148688Y46143687D01*
X229153400Y46067728D01*
X229157040Y46050148D01*
X229165399Y46026994D01*
X229168889Y46002621D01*
X229173928Y45985391D01*
X229205427Y45916115D01*
X229231336Y45844345D01*
X229239995Y45828178D01*
X229254036Y45809203D01*
X229264410Y45786387D01*
X229274082Y45771263D01*
X229330927Y45705291D01*
X229343688Y45688046D01*
X229349791Y45680963D01*
X229364957Y45665798D01*
X229416781Y45605653D01*
X229430310Y45593851D01*
X229449052Y45581703D01*
X231006163Y44024591D01*
X231006163Y42612942D01*
X231008319Y42596566D01*
X231083137Y42317342D01*
X231095880Y42292862D01*
X231226990Y42136610D01*
X231243879Y42122439D01*
X231368438Y42050525D01*
X231290847Y41954707D01*
X231285020Y41946164D01*
X231160254Y41726536D01*
X231155899Y41717156D01*
X231068679Y41480100D01*
X231065916Y41470134D01*
X231018585Y41222016D01*
X231017486Y41211733D01*
X231011314Y40959215D01*
X231011910Y40948891D01*
X231047064Y40698757D01*
X231049337Y40688668D01*
X231124873Y40447634D01*
X231128764Y40438052D01*
X231242652Y40212592D01*
X231248055Y40203774D01*
X231397238Y39999942D01*
X231404009Y39992125D01*
X231584480Y39815396D01*
X231592436Y39808790D01*
X231636526Y39777917D01*
X231456954Y39618486D01*
X231449809Y39611009D01*
X231290847Y39414707D01*
X231285020Y39406164D01*
X231243400Y39332900D01*
X229412708Y39332900D01*
X229390967Y39373446D01*
X229385349Y39382129D01*
X229231231Y39582254D01*
X229224272Y39589903D01*
X229039537Y39762171D01*
X229031421Y39768581D01*
X229017663Y39777721D01*
X229169930Y39906397D01*
X229177255Y39913697D01*
X229340966Y40106056D01*
X229347001Y40114454D01*
X229477095Y40330969D01*
X229481677Y40340239D01*
X229574663Y40575094D01*
X229577670Y40584989D01*
X229631211Y40832631D01*
X229632618Y40844431D01*
X229640585Y41170387D01*
X229639756Y41182242D01*
X229598375Y41432203D01*
X229595855Y41442233D01*
X229514453Y41681350D01*
X229510330Y41690834D01*
X229390967Y41913445D01*
X229385349Y41922129D01*
X229286829Y42050059D01*
X229310259Y42056337D01*
X229334739Y42069080D01*
X229490990Y42200190D01*
X229505161Y42217079D01*
X229605759Y42391320D01*
X229613300Y42412037D01*
X229647278Y42604738D01*
X229648237Y42615699D01*
X229648237Y43384591D01*
X229574428Y43458400D01*
X228243008Y43458401D01*
X228243007Y43458400D01*
X226507972Y43458401D01*
X226434163Y43384592D01*
X226434163Y42612942D01*
X226436319Y42596566D01*
X226511137Y42317342D01*
X226523880Y42292862D01*
X226654990Y42136610D01*
X226671879Y42122439D01*
X226796438Y42050525D01*
X226718847Y41954707D01*
X226713020Y41946164D01*
X226588254Y41726536D01*
X226583899Y41717156D01*
X226496679Y41480100D01*
X226493916Y41470134D01*
X226446585Y41222016D01*
X226445486Y41211733D01*
X226439314Y40959215D01*
X226439910Y40948891D01*
X226475064Y40698757D01*
X226477337Y40688668D01*
X226552873Y40447634D01*
X226556764Y40438052D01*
X226670652Y40212592D01*
X226676055Y40203774D01*
X226825238Y39999942D01*
X226832009Y39992125D01*
X227012480Y39815396D01*
X227020436Y39808790D01*
X227064526Y39777917D01*
X226884954Y39618486D01*
X226877809Y39611009D01*
X226718847Y39414707D01*
X226713020Y39406164D01*
X226588254Y39186536D01*
X226583899Y39177156D01*
X226496679Y38940100D01*
X226493916Y38930134D01*
X226446585Y38682016D01*
X226445486Y38671733D01*
X226439314Y38419215D01*
X226439910Y38408891D01*
X226475064Y38158757D01*
X226477337Y38148668D01*
X226552873Y37907634D01*
X226556764Y37898052D01*
X226670652Y37672592D01*
X226676055Y37663774D01*
X226825238Y37459942D01*
X226832009Y37452125D01*
X227012480Y37275396D01*
X227020437Y37268790D01*
X227227348Y37123908D01*
X227236277Y37118690D01*
X227464073Y37009549D01*
X227473735Y37005860D01*
X227716298Y36935388D01*
X227726432Y36933327D01*
X227977248Y36903419D01*
X227987582Y36903040D01*
X228239914Y36914498D01*
X228250172Y36915812D01*
X228497245Y36968330D01*
X228507150Y36971301D01*
X228742328Y37063467D01*
X228751615Y37068016D01*
X228968582Y37197354D01*
X228977001Y37203359D01*
X229169930Y37366397D01*
X229177255Y37373697D01*
X229340966Y37566056D01*
X229347001Y37574454D01*
X229410358Y37679900D01*
X231238960Y37679900D01*
X231242651Y37672592D01*
X231248055Y37663774D01*
X231397238Y37459942D01*
X231404009Y37452125D01*
X231584480Y37275396D01*
X231592436Y37268790D01*
X231636526Y37237917D01*
X231456954Y37078486D01*
X231449809Y37071009D01*
X231290847Y36874707D01*
X231285020Y36866164D01*
X231160254Y36646536D01*
X231155899Y36637156D01*
X231068679Y36400100D01*
X231065916Y36390134D01*
X231018585Y36142016D01*
X231017486Y36131733D01*
X231011314Y35879215D01*
X231011910Y35868891D01*
X231047064Y35618757D01*
X231049337Y35608668D01*
X231124873Y35367634D01*
X231128764Y35358052D01*
X231242652Y35132592D01*
X231248055Y35123774D01*
X231397238Y34919942D01*
X231404009Y34912125D01*
X231584480Y34735396D01*
X231592437Y34728790D01*
X231799348Y34583908D01*
X231808277Y34578690D01*
X232036073Y34469549D01*
X232045735Y34465860D01*
X232288298Y34395388D01*
X232298432Y34393327D01*
X232549248Y34363419D01*
X232559582Y34363040D01*
X232811914Y34374498D01*
X232822172Y34375812D01*
X232996035Y34412768D01*
X233012719Y34398034D01*
X233032709Y34378043D01*
X233039484Y34372170D01*
X233056134Y34359691D01*
X233113175Y34309314D01*
X233128180Y34299458D01*
X233150463Y34288996D01*
X233170162Y34274233D01*
X233185909Y34265611D01*
X233257177Y34238893D01*
X233326239Y34206469D01*
X233343794Y34201160D01*
X233367138Y34197672D01*
X233390606Y34188874D01*
X233408141Y34185019D01*
X233494981Y34178565D01*
X233516200Y34175394D01*
X233525526Y34174701D01*
X233546978Y34174701D01*
X233626148Y34168818D01*
X233644059Y34170039D01*
X233665899Y34174701D01*
X233825651Y34174701D01*
X233723599Y34053081D01*
X233717288Y34044068D01*
X233597352Y33836332D01*
X233592702Y33826360D01*
X233510660Y33600953D01*
X233507813Y33590326D01*
X233466159Y33354097D01*
X233465200Y33343136D01*
X233465200Y33103264D01*
X233466159Y33092303D01*
X233507813Y32856074D01*
X233510660Y32845447D01*
X233592702Y32620040D01*
X233597352Y32610068D01*
X233717288Y32402332D01*
X233723599Y32393319D01*
X233877787Y32209566D01*
X233885566Y32201787D01*
X234069319Y32047599D01*
X234078332Y32041288D01*
X234286068Y31921352D01*
X234296040Y31916702D01*
X234506319Y31840166D01*
X234039306Y31373152D01*
X233975553Y31467668D01*
X233969765Y31475011D01*
X233784911Y31676745D01*
X233778100Y31683152D01*
X233565458Y31855346D01*
X233557775Y31860675D01*
X233322016Y31999548D01*
X233313630Y32003684D01*
X233059934Y32106183D01*
X233051029Y32109033D01*
X232784971Y32172909D01*
X232775742Y32174412D01*
X232503164Y32198259D01*
X232493814Y32198381D01*
X232220705Y32181678D01*
X232211440Y32180417D01*
X231943800Y32123528D01*
X231934823Y32120911D01*
X231678532Y32025088D01*
X231670040Y32021174D01*
X231430727Y31888520D01*
X231422907Y31883394D01*
X231205831Y31716824D01*
X231198855Y31710598D01*
X231008783Y31513773D01*
X231002804Y31506584D01*
X230843913Y31283826D01*
X230839062Y31275832D01*
X230714842Y31032036D01*
X230711226Y31023413D01*
X230624405Y30763934D01*
X230622103Y30754871D01*
X230574589Y30485409D01*
X230573653Y30476105D01*
X230566490Y30202580D01*
X230566938Y30193240D01*
X230600285Y29921660D01*
X230602109Y29912489D01*
X230675230Y29648822D01*
X230678390Y29640021D01*
X230789681Y29390057D01*
X230794107Y29381820D01*
X230941122Y29151052D01*
X230946716Y29143560D01*
X231126227Y28937057D01*
X231132868Y28930474D01*
X231340930Y28752772D01*
X231348470Y28747243D01*
X231580512Y28602247D01*
X231588787Y28597894D01*
X231839713Y28488788D01*
X231848541Y28485705D01*
X232112836Y28414888D01*
X232122022Y28413144D01*
X232393883Y28382170D01*
X232403226Y28381803D01*
X232676679Y28391351D01*
X232685974Y28392369D01*
X232955011Y28442233D01*
X232964053Y28444614D01*
X233222765Y28533695D01*
X233231356Y28537386D01*
X233474060Y28663729D01*
X233482012Y28668650D01*
X233703373Y28829479D01*
X233710510Y28835520D01*
X233905669Y29027302D01*
X233911834Y29034333D01*
X234076503Y29252855D01*
X234081561Y29260719D01*
X234192033Y29464182D01*
X234208824Y29466586D01*
X234284773Y29471299D01*
X234302353Y29474940D01*
X234325500Y29483296D01*
X234349875Y29486787D01*
X234367108Y29491826D01*
X234436395Y29523330D01*
X234508154Y29549235D01*
X234524322Y29557895D01*
X234543291Y29571932D01*
X234566111Y29582307D01*
X234581236Y29591980D01*
X234647216Y29648832D01*
X234664453Y29661587D01*
X234671536Y29667690D01*
X234686693Y29682848D01*
X234746846Y29734679D01*
X234758648Y29748208D01*
X234770798Y29766953D01*
X235689983Y30686138D01*
X235654589Y30485409D01*
X235653653Y30476105D01*
X235646490Y30202580D01*
X235646938Y30193240D01*
X235680285Y29921660D01*
X235682109Y29912489D01*
X235755230Y29648822D01*
X235758390Y29640021D01*
X235869681Y29390057D01*
X235874107Y29381820D01*
X236021122Y29151052D01*
X236026716Y29143560D01*
X236206227Y28937057D01*
X236212868Y28930474D01*
X236420930Y28752772D01*
X236428470Y28747243D01*
X236660512Y28602247D01*
X236668787Y28597894D01*
X236919713Y28488788D01*
X236928541Y28485705D01*
X237192836Y28414888D01*
X237202022Y28413144D01*
X237473883Y28382170D01*
X237483226Y28381803D01*
X237756679Y28391351D01*
X237765974Y28392369D01*
X238035011Y28442233D01*
X238044053Y28444614D01*
X238302765Y28533695D01*
X238311356Y28537386D01*
X238554060Y28663729D01*
X238562012Y28668650D01*
X238783373Y28829479D01*
X238790510Y28835520D01*
X238985669Y29027302D01*
X238991834Y29034333D01*
X239156503Y29252855D01*
X239161561Y29260719D01*
X239292121Y29501180D01*
X239295961Y29509705D01*
X239389544Y29766824D01*
X239392082Y29775823D01*
X239446798Y30044758D01*
X239448044Y30055690D01*
X239448881Y30087691D01*
X240721664Y30087691D01*
X240721664Y29011241D01*
X240723820Y28994865D01*
X240798638Y28715641D01*
X240811381Y28691161D01*
X240942491Y28534909D01*
X240959380Y28520738D01*
X241133621Y28420140D01*
X241154338Y28412599D01*
X241347039Y28378621D01*
X241358000Y28377662D01*
X242431692Y28377662D01*
X242505501Y28451471D01*
X242505502Y30087690D01*
X242431693Y30161499D01*
X240795473Y30161500D01*
X240721664Y30087691D01*
X239448881Y30087691D01*
X239457684Y30423834D01*
X239457012Y30434816D01*
X239416447Y30706247D01*
X239414383Y30715367D01*
X239334384Y30977031D01*
X239330995Y30985746D01*
X239213199Y31232710D01*
X239208559Y31240828D01*
X239055553Y31467668D01*
X239049765Y31475011D01*
X238967306Y31565000D01*
X240721664Y31565000D01*
X240721664Y30491308D01*
X240795473Y30417499D01*
X242431692Y30417498D01*
X242505501Y30491307D01*
X242505502Y32127527D01*
X242431693Y32201336D01*
X241355243Y32201336D01*
X241338867Y32199180D01*
X241059643Y32124362D01*
X241035163Y32111619D01*
X240878911Y31980509D01*
X240864740Y31963620D01*
X240764142Y31789379D01*
X240756601Y31768662D01*
X240722623Y31575961D01*
X240721664Y31565000D01*
X238967306Y31565000D01*
X238864911Y31676745D01*
X238858100Y31683152D01*
X238645458Y31855346D01*
X238637775Y31860675D01*
X238402016Y31999548D01*
X238393630Y32003684D01*
X238139934Y32106183D01*
X238131029Y32109033D01*
X237864971Y32172909D01*
X237855742Y32174412D01*
X237583164Y32198259D01*
X237573814Y32198381D01*
X237300705Y32181678D01*
X237291440Y32180417D01*
X237155332Y32151486D01*
X237372550Y32368704D01*
X237568826Y32403313D01*
X237579453Y32406160D01*
X237804860Y32488202D01*
X237814832Y32492852D01*
X238022568Y32612788D01*
X238031581Y32619099D01*
X238215334Y32773287D01*
X238223113Y32781066D01*
X238377301Y32964819D01*
X238383612Y32973832D01*
X238503548Y33181568D01*
X238508198Y33191540D01*
X238590240Y33416947D01*
X238593087Y33427574D01*
X238634741Y33663803D01*
X238635700Y33674764D01*
X238635700Y33914636D01*
X238634741Y33925597D01*
X238593087Y34161826D01*
X238590240Y34172454D01*
X238589422Y34174701D01*
X240813978Y34174701D01*
X240813160Y34172454D01*
X240810313Y34161826D01*
X240768659Y33925597D01*
X240767700Y33914636D01*
X240767700Y33674764D01*
X240768659Y33663803D01*
X240810313Y33427574D01*
X240813160Y33416947D01*
X240895202Y33191540D01*
X240899852Y33181568D01*
X241019788Y32973832D01*
X241026099Y32964819D01*
X241180287Y32781066D01*
X241188066Y32773287D01*
X241371819Y32619099D01*
X241380832Y32612788D01*
X241588568Y32492852D01*
X241598540Y32488202D01*
X241823947Y32406160D01*
X241834574Y32403313D01*
X242070803Y32361659D01*
X242081764Y32360700D01*
X242321636Y32360700D01*
X242332597Y32361659D01*
X242568826Y32403313D01*
X242579453Y32406160D01*
X242804860Y32488202D01*
X242814832Y32492852D01*
X243022568Y32612788D01*
X243031581Y32619099D01*
X243215334Y32773287D01*
X243223113Y32781066D01*
X243377301Y32964819D01*
X243383612Y32973832D01*
X243468549Y33120947D01*
X244943900Y31645595D01*
X244943900Y31302368D01*
X244940519Y31300001D01*
X244756766Y31145813D01*
X244748987Y31138034D01*
X244594799Y30954281D01*
X244588488Y30945268D01*
X244545338Y30870530D01*
X244545338Y31567757D01*
X244543182Y31584133D01*
X244468364Y31863358D01*
X244455621Y31887838D01*
X244324511Y32044089D01*
X244307622Y32058260D01*
X244133381Y32158858D01*
X244112664Y32166399D01*
X243919963Y32200377D01*
X243909002Y32201336D01*
X242835310Y32201336D01*
X242761501Y32127527D01*
X242761500Y30491307D01*
X242761501Y30491306D01*
X242761500Y28451471D01*
X242835309Y28377662D01*
X243911759Y28377662D01*
X243928135Y28379818D01*
X244207360Y28454636D01*
X244231840Y28467379D01*
X244388091Y28598489D01*
X244402262Y28615378D01*
X244502860Y28789619D01*
X244510401Y28810336D01*
X244544379Y29003037D01*
X244545338Y29013998D01*
X244545338Y29378270D01*
X244588488Y29303532D01*
X244594799Y29294519D01*
X244748987Y29110766D01*
X244756766Y29102987D01*
X244940519Y28948799D01*
X244949532Y28942488D01*
X245157268Y28822552D01*
X245167240Y28817902D01*
X245392647Y28735860D01*
X245403274Y28733013D01*
X245639503Y28691359D01*
X245650464Y28690400D01*
X245890336Y28690400D01*
X245901297Y28691359D01*
X246137526Y28733013D01*
X246148153Y28735860D01*
X246373560Y28817902D01*
X246383532Y28822552D01*
X246591268Y28942488D01*
X246600281Y28948799D01*
X246784034Y29102987D01*
X246791813Y29110766D01*
X246946001Y29294519D01*
X246952312Y29303532D01*
X247072248Y29511268D01*
X247076898Y29521240D01*
X247158940Y29746647D01*
X247161787Y29757274D01*
X247203441Y29993503D01*
X247204400Y30004464D01*
X247204400Y30244336D01*
X247203441Y30255297D01*
X247161787Y30491526D01*
X247158940Y30502153D01*
X247076898Y30727560D01*
X247072248Y30737532D01*
X246952312Y30945268D01*
X246946001Y30954281D01*
X246791813Y31138034D01*
X246784034Y31145813D01*
X246600281Y31300001D01*
X246596900Y31302368D01*
X246596900Y31895352D01*
X246600697Y31912133D01*
X246602137Y31930028D01*
X246596900Y32014437D01*
X246596900Y32042720D01*
X246596263Y32051662D01*
X246593312Y32072268D01*
X246588600Y32148217D01*
X246584960Y32165796D01*
X246576602Y32188949D01*
X246573112Y32213319D01*
X246568073Y32230551D01*
X246536569Y32299840D01*
X246510664Y32371599D01*
X246502004Y32387766D01*
X246487965Y32406738D01*
X246477592Y32429554D01*
X246467919Y32444680D01*
X246411077Y32510647D01*
X246398313Y32527896D01*
X246392209Y32534980D01*
X246377040Y32550148D01*
X246325218Y32610289D01*
X246311690Y32622091D01*
X246292952Y32634236D01*
X243407042Y35520145D01*
X243397856Y35534704D01*
X243386220Y35548376D01*
X243322804Y35604383D01*
X243302830Y35624358D01*
X243296055Y35630231D01*
X243279417Y35642701D01*
X243222366Y35693087D01*
X243207361Y35702944D01*
X243185075Y35713408D01*
X243165378Y35728170D01*
X243149630Y35736791D01*
X243124499Y35746212D01*
X243198834Y35808587D01*
X243206613Y35816366D01*
X243360801Y36000119D01*
X243367112Y36009132D01*
X243487048Y36216868D01*
X243491698Y36226840D01*
X243573740Y36452247D01*
X243576587Y36462874D01*
X243618241Y36699103D01*
X243619200Y36710064D01*
X243619200Y36949936D01*
X243618241Y36960897D01*
X243576587Y37197126D01*
X243573740Y37207753D01*
X243491698Y37433160D01*
X243487048Y37443132D01*
X243367112Y37650868D01*
X243360801Y37659881D01*
X243206613Y37843634D01*
X243198834Y37851413D01*
X243183434Y37864336D01*
X244336400Y37864336D01*
X244336400Y37624464D01*
X244337359Y37613503D01*
X244379013Y37377274D01*
X244381860Y37366647D01*
X244463902Y37141240D01*
X244468552Y37131268D01*
X244588488Y36923532D01*
X244594799Y36914519D01*
X244748987Y36730766D01*
X244756766Y36722987D01*
X244940519Y36568799D01*
X244949532Y36562488D01*
X245157268Y36442552D01*
X245167240Y36437902D01*
X245392647Y36355860D01*
X245403274Y36353013D01*
X245639503Y36311359D01*
X245650464Y36310400D01*
X245890336Y36310400D01*
X245901297Y36311359D01*
X246137526Y36353013D01*
X246148153Y36355860D01*
X246373560Y36437902D01*
X246383532Y36442552D01*
X246591268Y36562488D01*
X246600281Y36568799D01*
X246784034Y36722987D01*
X246791813Y36730766D01*
X246946001Y36914519D01*
X246952312Y36923532D01*
X247072248Y37131268D01*
X247076898Y37141240D01*
X247158940Y37366647D01*
X247161787Y37377274D01*
X247203441Y37613503D01*
X247204400Y37624464D01*
X247204400Y37864336D01*
X247203441Y37875297D01*
X247161787Y38111526D01*
X247158940Y38122153D01*
X247076898Y38347560D01*
X247072248Y38357532D01*
X246952312Y38565268D01*
X246946001Y38574281D01*
X246791813Y38758034D01*
X246784034Y38765813D01*
X246600281Y38920001D01*
X246591268Y38926312D01*
X246383532Y39046248D01*
X246373560Y39050898D01*
X246148153Y39132940D01*
X246137526Y39135787D01*
X245901297Y39177441D01*
X245890336Y39178400D01*
X245650464Y39178400D01*
X245639503Y39177441D01*
X245403274Y39135787D01*
X245392647Y39132940D01*
X245167240Y39050898D01*
X245157268Y39046248D01*
X244949532Y38926312D01*
X244940519Y38920001D01*
X244756766Y38765813D01*
X244748987Y38758034D01*
X244594799Y38574281D01*
X244588488Y38565268D01*
X244468552Y38357532D01*
X244463902Y38347560D01*
X244381860Y38122153D01*
X244379013Y38111526D01*
X244337359Y37875297D01*
X244336400Y37864336D01*
X243183434Y37864336D01*
X243015081Y38005601D01*
X243006068Y38011912D01*
X242798332Y38131848D01*
X242788360Y38136498D01*
X242562953Y38218540D01*
X242552326Y38221387D01*
X242316097Y38263041D01*
X242305136Y38264000D01*
X242065264Y38264000D01*
X242054303Y38263041D01*
X241818074Y38221387D01*
X241807447Y38218540D01*
X241582040Y38136498D01*
X241572068Y38131848D01*
X241364332Y38011912D01*
X241355319Y38005601D01*
X241171566Y37851413D01*
X241163787Y37843634D01*
X241009599Y37659881D01*
X241003288Y37650868D01*
X240883352Y37443132D01*
X240878702Y37433160D01*
X240796660Y37207753D01*
X240793813Y37197126D01*
X240752159Y36960897D01*
X240751200Y36949936D01*
X240751200Y36710064D01*
X240752159Y36699103D01*
X240793813Y36462874D01*
X240796660Y36452247D01*
X240878702Y36226840D01*
X240883352Y36216868D01*
X241003288Y36009132D01*
X241009599Y36000119D01*
X241154276Y35827701D01*
X238216124Y35827701D01*
X238360801Y36000119D01*
X238367112Y36009132D01*
X238487048Y36216868D01*
X238491698Y36226840D01*
X238573740Y36452247D01*
X238576587Y36462874D01*
X238618241Y36699103D01*
X238619200Y36710064D01*
X238619200Y36949936D01*
X238618241Y36960897D01*
X238576587Y37197126D01*
X238573740Y37207753D01*
X238491698Y37433160D01*
X238487048Y37443132D01*
X238367112Y37650868D01*
X238360801Y37659881D01*
X238206613Y37843634D01*
X238198834Y37851413D01*
X238015081Y38005601D01*
X238006068Y38011912D01*
X237798332Y38131848D01*
X237788360Y38136498D01*
X237562953Y38218540D01*
X237552326Y38221387D01*
X237316097Y38263041D01*
X237305136Y38264000D01*
X237065264Y38264000D01*
X237054303Y38263041D01*
X236818074Y38221387D01*
X236807447Y38218540D01*
X236582040Y38136498D01*
X236572068Y38131848D01*
X236364332Y38011912D01*
X236355319Y38005601D01*
X236171566Y37851413D01*
X236163787Y37843634D01*
X236009599Y37659881D01*
X236003288Y37650868D01*
X235883352Y37443132D01*
X235878702Y37433160D01*
X235796660Y37207753D01*
X235793813Y37197126D01*
X235752159Y36960897D01*
X235751200Y36949936D01*
X235751200Y36710064D01*
X235752159Y36699103D01*
X235793813Y36462874D01*
X235796660Y36452247D01*
X235878702Y36226840D01*
X235883352Y36216868D01*
X236003288Y36009132D01*
X236009599Y36000119D01*
X236154276Y35827701D01*
X234206164Y35827701D01*
X234212585Y36090387D01*
X234211756Y36102242D01*
X234170375Y36352203D01*
X234167855Y36362233D01*
X234086453Y36601350D01*
X234082330Y36610834D01*
X233962967Y36833445D01*
X233957349Y36842129D01*
X233803231Y37042254D01*
X233796272Y37049903D01*
X233611537Y37222171D01*
X233603421Y37228581D01*
X233589663Y37237721D01*
X233741930Y37366397D01*
X233749255Y37373697D01*
X233912966Y37566056D01*
X233919001Y37574454D01*
X234049095Y37790969D01*
X234053677Y37800239D01*
X234146663Y38035094D01*
X234149670Y38044989D01*
X234203211Y38292631D01*
X234204618Y38304431D01*
X234212585Y38630387D01*
X234211756Y38642242D01*
X234170375Y38892203D01*
X234169868Y38894222D01*
X234882862Y39607216D01*
X234936488Y39514332D01*
X234942799Y39505319D01*
X235096987Y39321566D01*
X235104766Y39313787D01*
X235288519Y39159599D01*
X235297532Y39153288D01*
X235505268Y39033352D01*
X235515240Y39028702D01*
X235740647Y38946660D01*
X235751274Y38943813D01*
X235987503Y38902159D01*
X235998464Y38901200D01*
X236238336Y38901200D01*
X236249297Y38902159D01*
X236485526Y38943813D01*
X236496153Y38946660D01*
X236721560Y39028702D01*
X236731532Y39033352D01*
X236939268Y39153288D01*
X236948281Y39159599D01*
X237132034Y39313787D01*
X237139813Y39321566D01*
X237294001Y39505319D01*
X237300312Y39514332D01*
X237420248Y39722068D01*
X237424898Y39732040D01*
X237506940Y39957447D01*
X237509787Y39968074D01*
X237551441Y40204303D01*
X237552400Y40215264D01*
X237552400Y40455136D01*
X237551441Y40466097D01*
X237509787Y40702326D01*
X237506940Y40712953D01*
X237424898Y40938360D01*
X237420248Y40948332D01*
X237300312Y41156068D01*
X237294001Y41165081D01*
X237139813Y41348834D01*
X237132034Y41356613D01*
X236948281Y41510801D01*
X236944900Y41513168D01*
X236944900Y42205232D01*
X236948281Y42207599D01*
X237132034Y42361787D01*
X237139813Y42369566D01*
X237294001Y42553319D01*
X237300312Y42562332D01*
X237420248Y42770068D01*
X237424898Y42780040D01*
X237506940Y43005447D01*
X237509787Y43016074D01*
X237551441Y43252303D01*
X237552400Y43263264D01*
X237552400Y43503136D01*
X242304400Y43503136D01*
X242304400Y43263264D01*
X242305359Y43252303D01*
X242347013Y43016074D01*
X242349860Y43005447D01*
X242431902Y42780040D01*
X242436552Y42770068D01*
X242556488Y42562332D01*
X242562799Y42553319D01*
X242716987Y42369566D01*
X242724766Y42361787D01*
X242908519Y42207599D01*
X242917532Y42201288D01*
X243125268Y42081352D01*
X243135240Y42076702D01*
X243360647Y41994660D01*
X243371274Y41991813D01*
X243607503Y41950159D01*
X243618464Y41949200D01*
X243858336Y41949200D01*
X243869297Y41950159D01*
X244105526Y41991813D01*
X244116153Y41994660D01*
X244341560Y42076702D01*
X244351532Y42081352D01*
X244559268Y42201288D01*
X244568281Y42207599D01*
X244752034Y42361787D01*
X244759813Y42369566D01*
X244914001Y42553319D01*
X244920312Y42562332D01*
X245040248Y42770068D01*
X245044898Y42780040D01*
X245126940Y43005447D01*
X245129787Y43016074D01*
X245171441Y43252303D01*
X245172400Y43263264D01*
X245172400Y43503136D01*
X245171441Y43514097D01*
X245129787Y43750326D01*
X245126940Y43760953D01*
X245044898Y43986360D01*
X245040248Y43996332D01*
X244920312Y44204068D01*
X244914001Y44213081D01*
X244759813Y44396834D01*
X244752034Y44404613D01*
X244568281Y44558801D01*
X244559268Y44565112D01*
X244351532Y44685048D01*
X244341560Y44689698D01*
X244116153Y44771740D01*
X244105526Y44774587D01*
X243869297Y44816241D01*
X243858336Y44817200D01*
X243618464Y44817200D01*
X243607503Y44816241D01*
X243371274Y44774587D01*
X243360647Y44771740D01*
X243135240Y44689698D01*
X243125268Y44685048D01*
X242917532Y44565112D01*
X242908519Y44558801D01*
X242724766Y44404613D01*
X242716987Y44396834D01*
X242562799Y44213081D01*
X242556488Y44204068D01*
X242436552Y43996332D01*
X242431902Y43986360D01*
X242349860Y43760953D01*
X242347013Y43750326D01*
X242305359Y43514097D01*
X242304400Y43503136D01*
X237552400Y43503136D01*
X237551441Y43514097D01*
X237509787Y43750326D01*
X237506940Y43760953D01*
X237424898Y43986360D01*
X237420248Y43996332D01*
X237300312Y44204068D01*
X237294001Y44213081D01*
X237139813Y44396834D01*
X237132034Y44404613D01*
X236948281Y44558801D01*
X236939268Y44565112D01*
X236792153Y44650049D01*
X237645205Y45503100D01*
X239026032Y45503100D01*
X239028399Y45499719D01*
X239182587Y45315966D01*
X239190366Y45308187D01*
X239374119Y45153999D01*
X239383132Y45147688D01*
X239590868Y45027752D01*
X239600840Y45023102D01*
X239826247Y44941060D01*
X239836874Y44938213D01*
X240073103Y44896559D01*
X240084064Y44895600D01*
X240323936Y44895600D01*
X240334897Y44896559D01*
X240571126Y44938213D01*
X240581753Y44941060D01*
X240807160Y45023102D01*
X240817132Y45027752D01*
X241024868Y45147688D01*
X241033881Y45153999D01*
X241217634Y45308187D01*
X241225413Y45315966D01*
X241379601Y45499719D01*
X241385912Y45508732D01*
X241505848Y45716468D01*
X241510498Y45726440D01*
X241592540Y45951847D01*
X241595387Y45962474D01*
X241637041Y46198703D01*
X241638000Y46209664D01*
X241638000Y46449536D01*
X241637041Y46460497D01*
X241595387Y46696726D01*
X241592540Y46707353D01*
X241510498Y46932760D01*
X241505848Y46942732D01*
X241385912Y47150468D01*
X241379601Y47159481D01*
X241225413Y47343234D01*
X241217634Y47351013D01*
X241033881Y47505201D01*
X241024868Y47511512D01*
X240817132Y47631448D01*
X240807160Y47636098D01*
X240581753Y47718140D01*
X240571126Y47720987D01*
X240334897Y47762641D01*
X240323936Y47763600D01*
X240084064Y47763600D01*
X240073103Y47762641D01*
X239836874Y47720987D01*
X239826247Y47718140D01*
X239600840Y47636098D01*
X239590868Y47631448D01*
X239383132Y47511512D01*
X239374119Y47505201D01*
X239190366Y47351013D01*
X239182587Y47343234D01*
X239028399Y47159481D01*
X239026032Y47156100D01*
X238019975Y47156100D01*
X239206514Y48342638D01*
X239374119Y48201999D01*
X239383132Y48195688D01*
X239590868Y48075752D01*
X239600840Y48071102D01*
X239826247Y47989060D01*
X239836874Y47986213D01*
X240073103Y47944559D01*
X240084064Y47943600D01*
X240323936Y47943600D01*
X240334897Y47944559D01*
X240571126Y47986213D01*
X240581753Y47989060D01*
X240807160Y48071102D01*
X240817132Y48075752D01*
X241024868Y48195688D01*
X241033881Y48201999D01*
X241217634Y48356187D01*
X241225413Y48363966D01*
X241379601Y48547719D01*
X241385912Y48556732D01*
X241505848Y48764468D01*
X241510498Y48774440D01*
X241592540Y48999847D01*
X241595387Y49010474D01*
X241637041Y49246703D01*
X241638000Y49257664D01*
X241638000Y49497536D01*
X241637041Y49508497D01*
X241595387Y49744726D01*
X241592540Y49755353D01*
X241510498Y49980760D01*
X241505848Y49990732D01*
X241385912Y50198468D01*
X241379601Y50207481D01*
X241225413Y50391234D01*
X241217634Y50399013D01*
X241033881Y50553201D01*
X241024868Y50559512D01*
X240817132Y50679448D01*
X240807160Y50684098D01*
X240581753Y50766140D01*
X240571126Y50768987D01*
X240334897Y50810641D01*
X240323936Y50811600D01*
X240084064Y50811600D01*
X240073103Y50810641D01*
X239836874Y50768987D01*
X239826247Y50766140D01*
X239600840Y50684098D01*
X239590868Y50679448D01*
X239383132Y50559512D01*
X239374119Y50553201D01*
X239190366Y50399013D01*
X239182587Y50391234D01*
X239028399Y50207481D01*
X239026032Y50204100D01*
X239017851Y50204100D01*
X239008909Y50203463D01*
X238988303Y50200512D01*
X238912356Y50195800D01*
X238894776Y50192160D01*
X238871624Y50183802D01*
X238847252Y50180312D01*
X238830021Y50175273D01*
X238760736Y50143771D01*
X238688973Y50117864D01*
X238672806Y50109204D01*
X238653832Y50095165D01*
X238631017Y50084791D01*
X238615892Y50075119D01*
X238549922Y50018275D01*
X238532675Y50005513D01*
X238525592Y49999409D01*
X238510422Y49984239D01*
X238450283Y49932420D01*
X238438481Y49918891D01*
X238426338Y49900156D01*
X236872785Y48346601D01*
X236206210Y48346601D01*
X236217634Y48356187D01*
X236225413Y48363966D01*
X236379601Y48547719D01*
X236385912Y48556732D01*
X236505848Y48764468D01*
X236510498Y48774440D01*
X236592540Y48999847D01*
X236595387Y49010474D01*
X236637041Y49246703D01*
X236638000Y49257664D01*
X236638000Y49497536D01*
X236637041Y49508497D01*
X236595387Y49744726D01*
X236592540Y49755353D01*
X236510498Y49980760D01*
X236505848Y49990732D01*
X236385912Y50198468D01*
X236379601Y50207481D01*
X236225413Y50391234D01*
X236217634Y50399013D01*
X236033881Y50553201D01*
X236024868Y50559512D01*
X235817132Y50679448D01*
X235807160Y50684098D01*
X235581753Y50766140D01*
X235571126Y50768987D01*
X235334897Y50810641D01*
X235323936Y50811600D01*
X235084064Y50811600D01*
X235073103Y50810641D01*
X234836874Y50768987D01*
X234826247Y50766140D01*
X234600840Y50684098D01*
X234590868Y50679448D01*
X234383132Y50559512D01*
X234374119Y50553201D01*
X234190366Y50399013D01*
X234182587Y50391234D01*
X234028399Y50207481D01*
X234022088Y50198468D01*
X233902152Y49990732D01*
X233897502Y49980760D01*
X233815460Y49755353D01*
X233812613Y49744726D01*
X233770959Y49508497D01*
X233770000Y49497536D01*
X233770000Y49257664D01*
X233770959Y49246703D01*
X233812613Y49010474D01*
X233815460Y48999847D01*
X233897502Y48774440D01*
X233902152Y48764468D01*
X234022088Y48556732D01*
X234028399Y48547719D01*
X234182587Y48363966D01*
X234190366Y48356187D01*
X234287819Y48274414D01*
X234248902Y48260365D01*
X234232734Y48251705D01*
X234213762Y48237666D01*
X234190947Y48227293D01*
X234175822Y48217620D01*
X234109850Y48160775D01*
X234092605Y48148014D01*
X234085521Y48141910D01*
X234070358Y48126746D01*
X234010212Y48074920D01*
X233998410Y48061392D01*
X233986262Y48042650D01*
X233905600Y47961988D01*
X233905600Y48075136D01*
X233904641Y48086097D01*
X233862987Y48322326D01*
X233860140Y48332953D01*
X233778098Y48558360D01*
X233773448Y48568332D01*
X233638653Y48801803D01*
X233515444Y48818023D01*
X232382505Y47685085D01*
X231608777Y46911357D01*
X231624997Y46788147D01*
X231858468Y46653352D01*
X231868440Y46648702D01*
X232093847Y46566660D01*
X232104474Y46563813D01*
X232340703Y46522159D01*
X232351664Y46521200D01*
X232591536Y46521200D01*
X232602497Y46522159D01*
X232838726Y46563813D01*
X232849353Y46566660D01*
X233074760Y46648702D01*
X233084732Y46653352D01*
X233142401Y46686647D01*
X233142401Y45193437D01*
X232175009Y45193437D01*
X230840946Y46527499D01*
X231075459Y46590337D01*
X231099939Y46603080D01*
X231256190Y46734190D01*
X231270361Y46751079D01*
X231370959Y46925320D01*
X231378500Y46946037D01*
X231404835Y47095394D01*
X231427756Y47092377D01*
X232238390Y47903009D01*
X232238390Y48007391D01*
X231427756Y48818023D01*
X231401958Y48814627D01*
X231352544Y48999044D01*
X231608777Y48999044D01*
X232419409Y48188410D01*
X232523791Y48188410D01*
X233334423Y48999044D01*
X233318203Y49122253D01*
X233084732Y49257048D01*
X233074760Y49261698D01*
X232849353Y49343740D01*
X232838726Y49346587D01*
X232602497Y49388241D01*
X232591536Y49389200D01*
X232351664Y49389200D01*
X232340703Y49388241D01*
X232104474Y49346587D01*
X232093847Y49343740D01*
X231868440Y49261698D01*
X231858468Y49257048D01*
X231624997Y49122253D01*
X231608777Y48999044D01*
X231352544Y48999044D01*
X231336463Y49059059D01*
X231323720Y49083539D01*
X231192610Y49239790D01*
X231175721Y49253961D01*
X231001480Y49354559D01*
X230980763Y49362100D01*
X230793934Y49395043D01*
X230789800Y49461676D01*
X230786160Y49479255D01*
X230777802Y49502407D01*
X230774312Y49526778D01*
X230769273Y49544009D01*
X230737770Y49613296D01*
X230711864Y49685057D01*
X230703204Y49701225D01*
X230689165Y49720197D01*
X230678792Y49743012D01*
X230669119Y49758137D01*
X230612274Y49824109D01*
X230599513Y49841354D01*
X230593409Y49848438D01*
X230578244Y49863602D01*
X230526420Y49923747D01*
X230512891Y49935549D01*
X230494149Y49947697D01*
X228235060Y52206786D01*
X228239679Y52232982D01*
X233024320Y52232982D01*
X233050613Y52083874D01*
X233053460Y52073247D01*
X233135502Y51847840D01*
X233140152Y51837868D01*
X233260088Y51630132D01*
X233266399Y51621119D01*
X233420587Y51437366D01*
X233428366Y51429587D01*
X233612119Y51275399D01*
X233621132Y51269088D01*
X233828868Y51149152D01*
X233838840Y51144502D01*
X234064247Y51062460D01*
X234074874Y51059613D01*
X234223982Y51033320D01*
X234314000Y51108854D01*
X234314000Y52249191D01*
X234240191Y52323000D01*
X233099854Y52323000D01*
X233024320Y52232982D01*
X228239679Y52232982D01*
X228255041Y52320103D01*
X228256000Y52331064D01*
X228256000Y52570936D01*
X228255041Y52581897D01*
X228213387Y52818126D01*
X228210540Y52828753D01*
X228128498Y53054160D01*
X228123848Y53064132D01*
X228003912Y53271868D01*
X227997601Y53280881D01*
X227843413Y53464634D01*
X227840047Y53468000D01*
X233423953Y53468000D01*
X233420587Y53464634D01*
M02*
