G04 #@! TF.GenerationSoftware,KiCad,Pcbnew,(5.99.0-1101-g9de7547c2)*
G04 #@! TF.CreationDate,2020-03-13T08:54:08+02:00*
G04 #@! TF.ProjectId,cabeza-de-carne,63616265-7a61-42d6-9465-2d6361726e65,rev?*
G04 #@! TF.SameCoordinates,Original*
G04 #@! TF.FileFunction,Legend,Top*
G04 #@! TF.FilePolarity,Positive*
%FSLAX46Y46*%
G04 Gerber Fmt 4.6, Leading zero omitted, Abs format (unit mm)*
G04 Created by KiCad (PCBNEW (5.99.0-1101-g9de7547c2)) date 2020-03-13 08:54:08*
%MOMM*%
%LPD*%
G01*
G04 APERTURE LIST*
%ADD10C,0.152400*%
%ADD11C,0.127000*%
%ADD12C,0.120000*%
%ADD13C,0.150000*%
%ADD14C,0.100000*%
%ADD15C,1.902000*%
%ADD16R,1.902000X1.902000*%
%ADD17R,2.102000X2.102000*%
%ADD18O,2.102000X2.102000*%
%ADD19O,2.642000X2.642000*%
%ADD20R,2.642000X2.642000*%
%ADD21O,2.032400X2.032400*%
%ADD22R,2.032400X2.032400*%
%ADD23O,1.702000X1.702000*%
%ADD24C,1.702000*%
%ADD25R,1.702000X1.702000*%
G04 APERTURE END LIST*
D10*
X249986800Y44754800D02*
X249986800Y40690800D01*
X249986800Y44754800D02*
X247446800Y44754800D01*
X247446800Y40690800D02*
X247446800Y44754800D01*
X247446800Y40690800D02*
X249986800Y40690800D01*
G36*
X249986800Y41071800D02*
G01*
X247446800Y41071800D01*
X247446800Y41579800D01*
X249986800Y41579800D01*
X249986800Y41071800D01*
G37*
G36*
X249097800Y40309800D02*
G01*
X248335800Y40309800D01*
X248335800Y40690800D01*
X249097800Y40690800D01*
X249097800Y40309800D01*
G37*
G36*
X249097800Y44754800D02*
G01*
X248335800Y44754800D01*
X248335800Y45135800D01*
X249097800Y45135800D01*
X249097800Y44754800D01*
G37*
D11*
X230949501Y31813499D02*
X233997501Y31813499D01*
X236029501Y31813499D02*
X239077501Y31813499D01*
X241109501Y31813499D02*
X244157501Y31813499D01*
X230949501Y31813499D02*
X230949501Y28765499D01*
X230949501Y28765499D02*
X233997501Y28765499D01*
X233997501Y28765499D02*
X233997501Y31813499D01*
X236029501Y31813499D02*
X236029501Y28765499D01*
X236029501Y28765499D02*
X239077501Y28765499D01*
X239077501Y28765499D02*
X239077501Y31813499D01*
X241109501Y31813499D02*
X241109501Y28765499D01*
X241109501Y28765499D02*
X244157501Y28765499D01*
X244157501Y28765499D02*
X244157501Y31813499D01*
D10*
X230581183Y42677700D02*
X230581183Y39415700D01*
X230581182Y39415699D02*
G75*
G03*
X234568983Y40077800I1778018J1631301D01*
G01*
X234568982Y42015599D02*
G75*
G03*
X230581183Y42677700I-2209782J-969199D01*
G01*
X234568983Y40077500D02*
G75*
G03*
X234568983Y42015900I-2209800J969200D01*
G01*
X230657418Y37537201D02*
G75*
G03*
X234645217Y36875100I2209782J969199D01*
G01*
X234645218Y40137101D02*
G75*
G03*
X230657417Y39475000I-1778018J-1631301D01*
G01*
X230657417Y39475300D02*
G75*
G03*
X230657417Y37536900I2209800J-969200D01*
G01*
X234645217Y36875100D02*
X234645217Y40137100D01*
D12*
X234359200Y32183200D02*
X234359200Y31853200D01*
X234359200Y31853200D02*
X227819200Y31853200D01*
X227819200Y31853200D02*
X227819200Y32183200D01*
X234359200Y34263200D02*
X234359200Y34593200D01*
X234359200Y34593200D02*
X227819200Y34593200D01*
X227819200Y34593200D02*
X227819200Y34263200D01*
X247727600Y30664400D02*
X247397600Y30664400D01*
X247397600Y30664400D02*
X247397600Y37204400D01*
X247397600Y37204400D02*
X247727600Y37204400D01*
X249807600Y30664400D02*
X250137600Y30664400D01*
X250137600Y30664400D02*
X250137600Y37204400D01*
X250137600Y37204400D02*
X249807600Y37204400D01*
X227362000Y53491000D02*
X227362000Y53821000D01*
X227362000Y53821000D02*
X233902000Y53821000D01*
X233902000Y53821000D02*
X233902000Y53491000D01*
X227362000Y51411000D02*
X227362000Y51081000D01*
X227362000Y51081000D02*
X233902000Y51081000D01*
X233902000Y51081000D02*
X233902000Y51411000D01*
X236658400Y44423200D02*
X236658400Y44753200D01*
X236658400Y44753200D02*
X243198400Y44753200D01*
X243198400Y44753200D02*
X243198400Y44423200D01*
X236658400Y42343200D02*
X236658400Y42013200D01*
X236658400Y42013200D02*
X243198400Y42013200D01*
X243198400Y42013200D02*
X243198400Y42343200D01*
X243617500Y51411000D02*
X243617500Y51081000D01*
X243617500Y51081000D02*
X237077500Y51081000D01*
X237077500Y51081000D02*
X237077500Y51411000D01*
X243617500Y53491000D02*
X243617500Y53821000D01*
X243617500Y53821000D02*
X237077500Y53821000D01*
X237077500Y53821000D02*
X237077500Y53491000D01*
X243198400Y39295200D02*
X243198400Y38965200D01*
X243198400Y38965200D02*
X236658400Y38965200D01*
X236658400Y38965200D02*
X236658400Y39295200D01*
X243198400Y41375200D02*
X243198400Y41705200D01*
X243198400Y41705200D02*
X236658400Y41705200D01*
X236658400Y41705200D02*
X236658400Y41375200D01*
X246810400Y37204400D02*
X247140400Y37204400D01*
X247140400Y37204400D02*
X247140400Y30664400D01*
X247140400Y30664400D02*
X246810400Y30664400D01*
X244730400Y37204400D02*
X244400400Y37204400D01*
X244400400Y37204400D02*
X244400400Y30664400D01*
X244400400Y30664400D02*
X244730400Y30664400D01*
D10*
X229996983Y40077500D02*
G75*
G03*
X229996983Y42015900I-2209800J969200D01*
G01*
X229996982Y42015599D02*
G75*
G03*
X226009183Y42677700I-2209782J-969199D01*
G01*
X226009182Y39415699D02*
G75*
G03*
X229996983Y40077800I1778018J1631301D01*
G01*
X226009183Y42677700D02*
X226009183Y39415700D01*
D11*
X250317000Y49784000D02*
X250317000Y51054000D01*
X245237000Y49784000D02*
X245237000Y51054000D01*
X250317000Y49784000D02*
X245237000Y49784000D01*
X250317000Y51054000D02*
X250317000Y53594000D01*
X245237000Y51054000D02*
X245237000Y53594000D01*
X250317000Y51054000D02*
X245237000Y51054000D01*
X245237000Y53594000D02*
X250317000Y53594000D01*
X232460800Y27381200D02*
X242620800Y27381200D01*
X242620800Y24841200D02*
X232460800Y24841200D01*
X232460800Y24841200D02*
X232460800Y27381200D01*
X242620800Y24841200D02*
X242620800Y27381200D01*
X242620800Y28651200D02*
X232460800Y28651200D01*
X232460800Y27381200D02*
X232460800Y28651200D01*
X242620800Y27381200D02*
X242620800Y28651200D01*
D12*
X247710000Y47345600D02*
G75*
G03*
X247710000Y47345600I-2620000J0D01*
G01*
X245090000Y49925600D02*
X245090000Y44765600D01*
X245130000Y49925600D02*
X245130000Y44765600D01*
X245170000Y49924600D02*
X245170000Y44766600D01*
X245210000Y49923600D02*
X245210000Y44767600D01*
X245250000Y49921600D02*
X245250000Y44769600D01*
X245290000Y49918600D02*
X245290000Y44772600D01*
X245330000Y49914600D02*
X245330000Y48385600D01*
X245330000Y46305600D02*
X245330000Y44776600D01*
X245370000Y49910600D02*
X245370000Y48385600D01*
X245370000Y46305600D02*
X245370000Y44780600D01*
X245410000Y49906600D02*
X245410000Y48385600D01*
X245410000Y46305600D02*
X245410000Y44784600D01*
X245450000Y49901600D02*
X245450000Y48385600D01*
X245450000Y46305600D02*
X245450000Y44789600D01*
X245490000Y49895600D02*
X245490000Y48385600D01*
X245490000Y46305600D02*
X245490000Y44795600D01*
X245530000Y49888600D02*
X245530000Y48385600D01*
X245530000Y46305600D02*
X245530000Y44802600D01*
X245570000Y49881600D02*
X245570000Y48385600D01*
X245570000Y46305600D02*
X245570000Y44809600D01*
X245610000Y49873600D02*
X245610000Y48385600D01*
X245610000Y46305600D02*
X245610000Y44817600D01*
X245650000Y49865600D02*
X245650000Y48385600D01*
X245650000Y46305600D02*
X245650000Y44825600D01*
X245690000Y49856600D02*
X245690000Y48385600D01*
X245690000Y46305600D02*
X245690000Y44834600D01*
X245730000Y49846600D02*
X245730000Y48385600D01*
X245730000Y46305600D02*
X245730000Y44844600D01*
X245770000Y49836600D02*
X245770000Y48385600D01*
X245770000Y46305600D02*
X245770000Y44854600D01*
X245811000Y49825600D02*
X245811000Y48385600D01*
X245811000Y46305600D02*
X245811000Y44865600D01*
X245851000Y49813600D02*
X245851000Y48385600D01*
X245851000Y46305600D02*
X245851000Y44877600D01*
X245891000Y49800600D02*
X245891000Y48385600D01*
X245891000Y46305600D02*
X245891000Y44890600D01*
X245931000Y49787600D02*
X245931000Y48385600D01*
X245931000Y46305600D02*
X245931000Y44903600D01*
X245971000Y49773600D02*
X245971000Y48385600D01*
X245971000Y46305600D02*
X245971000Y44917600D01*
X246011000Y49759600D02*
X246011000Y48385600D01*
X246011000Y46305600D02*
X246011000Y44931600D01*
X246051000Y49743600D02*
X246051000Y48385600D01*
X246051000Y46305600D02*
X246051000Y44947600D01*
X246091000Y49727600D02*
X246091000Y48385600D01*
X246091000Y46305600D02*
X246091000Y44963600D01*
X246131000Y49710600D02*
X246131000Y48385600D01*
X246131000Y46305600D02*
X246131000Y44980600D01*
X246171000Y49693600D02*
X246171000Y48385600D01*
X246171000Y46305600D02*
X246171000Y44997600D01*
X246211000Y49674600D02*
X246211000Y48385600D01*
X246211000Y46305600D02*
X246211000Y45016600D01*
X246251000Y49655600D02*
X246251000Y48385600D01*
X246251000Y46305600D02*
X246251000Y45035600D01*
X246291000Y49635600D02*
X246291000Y48385600D01*
X246291000Y46305600D02*
X246291000Y45055600D01*
X246331000Y49613600D02*
X246331000Y48385600D01*
X246331000Y46305600D02*
X246331000Y45077600D01*
X246371000Y49592600D02*
X246371000Y48385600D01*
X246371000Y46305600D02*
X246371000Y45098600D01*
X246411000Y49569600D02*
X246411000Y48385600D01*
X246411000Y46305600D02*
X246411000Y45121600D01*
X246451000Y49545600D02*
X246451000Y48385600D01*
X246451000Y46305600D02*
X246451000Y45145600D01*
X246491000Y49520600D02*
X246491000Y48385600D01*
X246491000Y46305600D02*
X246491000Y45170600D01*
X246531000Y49494600D02*
X246531000Y48385600D01*
X246531000Y46305600D02*
X246531000Y45196600D01*
X246571000Y49467600D02*
X246571000Y48385600D01*
X246571000Y46305600D02*
X246571000Y45223600D01*
X246611000Y49440600D02*
X246611000Y48385600D01*
X246611000Y46305600D02*
X246611000Y45250600D01*
X246651000Y49410600D02*
X246651000Y48385600D01*
X246651000Y46305600D02*
X246651000Y45280600D01*
X246691000Y49380600D02*
X246691000Y48385600D01*
X246691000Y46305600D02*
X246691000Y45310600D01*
X246731000Y49349600D02*
X246731000Y48385600D01*
X246731000Y46305600D02*
X246731000Y45341600D01*
X246771000Y49316600D02*
X246771000Y48385600D01*
X246771000Y46305600D02*
X246771000Y45374600D01*
X246811000Y49282600D02*
X246811000Y48385600D01*
X246811000Y46305600D02*
X246811000Y45408600D01*
X246851000Y49246600D02*
X246851000Y48385600D01*
X246851000Y46305600D02*
X246851000Y45444600D01*
X246891000Y49209600D02*
X246891000Y48385600D01*
X246891000Y46305600D02*
X246891000Y45481600D01*
X246931000Y49171600D02*
X246931000Y48385600D01*
X246931000Y46305600D02*
X246931000Y45519600D01*
X246971000Y49130600D02*
X246971000Y48385600D01*
X246971000Y46305600D02*
X246971000Y45560600D01*
X247011000Y49088600D02*
X247011000Y48385600D01*
X247011000Y46305600D02*
X247011000Y45602600D01*
X247051000Y49044600D02*
X247051000Y48385600D01*
X247051000Y46305600D02*
X247051000Y45646600D01*
X247091000Y48998600D02*
X247091000Y48385600D01*
X247091000Y46305600D02*
X247091000Y45692600D01*
X247131000Y48950600D02*
X247131000Y48385600D01*
X247131000Y46305600D02*
X247131000Y45740600D01*
X247171000Y48899600D02*
X247171000Y48385600D01*
X247171000Y46305600D02*
X247171000Y45791600D01*
X247211000Y48845600D02*
X247211000Y48385600D01*
X247211000Y46305600D02*
X247211000Y45845600D01*
X247251000Y48788600D02*
X247251000Y48385600D01*
X247251000Y46305600D02*
X247251000Y45902600D01*
X247291000Y48728600D02*
X247291000Y48385600D01*
X247291000Y46305600D02*
X247291000Y45962600D01*
X247331000Y48664600D02*
X247331000Y48385600D01*
X247331000Y46305600D02*
X247331000Y46026600D01*
X247371000Y48596600D02*
X247371000Y48385600D01*
X247371000Y46305600D02*
X247371000Y46094600D01*
X247411000Y48523600D02*
X247411000Y46167600D01*
X247451000Y48443600D02*
X247451000Y46247600D01*
X247491000Y48356600D02*
X247491000Y46334600D01*
X247531000Y48260600D02*
X247531000Y46430600D01*
X247571000Y48150600D02*
X247571000Y46540600D01*
X247611000Y48022600D02*
X247611000Y46668600D01*
X247651000Y47863600D02*
X247651000Y46827600D01*
X247691000Y47629600D02*
X247691000Y47061600D01*
X242285225Y48820600D02*
X242785225Y48820600D01*
X242535225Y49070600D02*
X242535225Y48570600D01*
X233841600Y47955200D02*
G75*
G03*
X233841600Y47955200I-2620000J0D01*
G01*
X231221600Y50535200D02*
X231221600Y45375200D01*
X231261600Y50535200D02*
X231261600Y45375200D01*
X231301600Y50534200D02*
X231301600Y45376200D01*
X231341600Y50533200D02*
X231341600Y45377200D01*
X231381600Y50531200D02*
X231381600Y45379200D01*
X231421600Y50528200D02*
X231421600Y45382200D01*
X231461600Y50524200D02*
X231461600Y48995200D01*
X231461600Y46915200D02*
X231461600Y45386200D01*
X231501600Y50520200D02*
X231501600Y48995200D01*
X231501600Y46915200D02*
X231501600Y45390200D01*
X231541600Y50516200D02*
X231541600Y48995200D01*
X231541600Y46915200D02*
X231541600Y45394200D01*
X231581600Y50511200D02*
X231581600Y48995200D01*
X231581600Y46915200D02*
X231581600Y45399200D01*
X231621600Y50505200D02*
X231621600Y48995200D01*
X231621600Y46915200D02*
X231621600Y45405200D01*
X231661600Y50498200D02*
X231661600Y48995200D01*
X231661600Y46915200D02*
X231661600Y45412200D01*
X231701600Y50491200D02*
X231701600Y48995200D01*
X231701600Y46915200D02*
X231701600Y45419200D01*
X231741600Y50483200D02*
X231741600Y48995200D01*
X231741600Y46915200D02*
X231741600Y45427200D01*
X231781600Y50475200D02*
X231781600Y48995200D01*
X231781600Y46915200D02*
X231781600Y45435200D01*
X231821600Y50466200D02*
X231821600Y48995200D01*
X231821600Y46915200D02*
X231821600Y45444200D01*
X231861600Y50456200D02*
X231861600Y48995200D01*
X231861600Y46915200D02*
X231861600Y45454200D01*
X231901600Y50446200D02*
X231901600Y48995200D01*
X231901600Y46915200D02*
X231901600Y45464200D01*
X231942600Y50435200D02*
X231942600Y48995200D01*
X231942600Y46915200D02*
X231942600Y45475200D01*
X231982600Y50423200D02*
X231982600Y48995200D01*
X231982600Y46915200D02*
X231982600Y45487200D01*
X232022600Y50410200D02*
X232022600Y48995200D01*
X232022600Y46915200D02*
X232022600Y45500200D01*
X232062600Y50397200D02*
X232062600Y48995200D01*
X232062600Y46915200D02*
X232062600Y45513200D01*
X232102600Y50383200D02*
X232102600Y48995200D01*
X232102600Y46915200D02*
X232102600Y45527200D01*
X232142600Y50369200D02*
X232142600Y48995200D01*
X232142600Y46915200D02*
X232142600Y45541200D01*
X232182600Y50353200D02*
X232182600Y48995200D01*
X232182600Y46915200D02*
X232182600Y45557200D01*
X232222600Y50337200D02*
X232222600Y48995200D01*
X232222600Y46915200D02*
X232222600Y45573200D01*
X232262600Y50320200D02*
X232262600Y48995200D01*
X232262600Y46915200D02*
X232262600Y45590200D01*
X232302600Y50303200D02*
X232302600Y48995200D01*
X232302600Y46915200D02*
X232302600Y45607200D01*
X232342600Y50284200D02*
X232342600Y48995200D01*
X232342600Y46915200D02*
X232342600Y45626200D01*
X232382600Y50265200D02*
X232382600Y48995200D01*
X232382600Y46915200D02*
X232382600Y45645200D01*
X232422600Y50245200D02*
X232422600Y48995200D01*
X232422600Y46915200D02*
X232422600Y45665200D01*
X232462600Y50223200D02*
X232462600Y48995200D01*
X232462600Y46915200D02*
X232462600Y45687200D01*
X232502600Y50202200D02*
X232502600Y48995200D01*
X232502600Y46915200D02*
X232502600Y45708200D01*
X232542600Y50179200D02*
X232542600Y48995200D01*
X232542600Y46915200D02*
X232542600Y45731200D01*
X232582600Y50155200D02*
X232582600Y48995200D01*
X232582600Y46915200D02*
X232582600Y45755200D01*
X232622600Y50130200D02*
X232622600Y48995200D01*
X232622600Y46915200D02*
X232622600Y45780200D01*
X232662600Y50104200D02*
X232662600Y48995200D01*
X232662600Y46915200D02*
X232662600Y45806200D01*
X232702600Y50077200D02*
X232702600Y48995200D01*
X232702600Y46915200D02*
X232702600Y45833200D01*
X232742600Y50050200D02*
X232742600Y48995200D01*
X232742600Y46915200D02*
X232742600Y45860200D01*
X232782600Y50020200D02*
X232782600Y48995200D01*
X232782600Y46915200D02*
X232782600Y45890200D01*
X232822600Y49990200D02*
X232822600Y48995200D01*
X232822600Y46915200D02*
X232822600Y45920200D01*
X232862600Y49959200D02*
X232862600Y48995200D01*
X232862600Y46915200D02*
X232862600Y45951200D01*
X232902600Y49926200D02*
X232902600Y48995200D01*
X232902600Y46915200D02*
X232902600Y45984200D01*
X232942600Y49892200D02*
X232942600Y48995200D01*
X232942600Y46915200D02*
X232942600Y46018200D01*
X232982600Y49856200D02*
X232982600Y48995200D01*
X232982600Y46915200D02*
X232982600Y46054200D01*
X233022600Y49819200D02*
X233022600Y48995200D01*
X233022600Y46915200D02*
X233022600Y46091200D01*
X233062600Y49781200D02*
X233062600Y48995200D01*
X233062600Y46915200D02*
X233062600Y46129200D01*
X233102600Y49740200D02*
X233102600Y48995200D01*
X233102600Y46915200D02*
X233102600Y46170200D01*
X233142600Y49698200D02*
X233142600Y48995200D01*
X233142600Y46915200D02*
X233142600Y46212200D01*
X233182600Y49654200D02*
X233182600Y48995200D01*
X233182600Y46915200D02*
X233182600Y46256200D01*
X233222600Y49608200D02*
X233222600Y48995200D01*
X233222600Y46915200D02*
X233222600Y46302200D01*
X233262600Y49560200D02*
X233262600Y48995200D01*
X233262600Y46915200D02*
X233262600Y46350200D01*
X233302600Y49509200D02*
X233302600Y48995200D01*
X233302600Y46915200D02*
X233302600Y46401200D01*
X233342600Y49455200D02*
X233342600Y48995200D01*
X233342600Y46915200D02*
X233342600Y46455200D01*
X233382600Y49398200D02*
X233382600Y48995200D01*
X233382600Y46915200D02*
X233382600Y46512200D01*
X233422600Y49338200D02*
X233422600Y48995200D01*
X233422600Y46915200D02*
X233422600Y46572200D01*
X233462600Y49274200D02*
X233462600Y48995200D01*
X233462600Y46915200D02*
X233462600Y46636200D01*
X233502600Y49206200D02*
X233502600Y48995200D01*
X233502600Y46915200D02*
X233502600Y46704200D01*
X233542600Y49133200D02*
X233542600Y46777200D01*
X233582600Y49053200D02*
X233582600Y46857200D01*
X233622600Y48966200D02*
X233622600Y46944200D01*
X233662600Y48870200D02*
X233662600Y47040200D01*
X233702600Y48760200D02*
X233702600Y47150200D01*
X233742600Y48632200D02*
X233742600Y47278200D01*
X233782600Y48473200D02*
X233782600Y47437200D01*
X233822600Y48239200D02*
X233822600Y47671200D01*
X228416825Y49430200D02*
X228916825Y49430200D01*
X228666825Y49680200D02*
X228666825Y49180200D01*
X243321700Y32424700D02*
X236081700Y32424700D01*
X243321700Y35164700D02*
X236081700Y35164700D01*
X243321700Y32424700D02*
X243321700Y35164700D01*
X236081700Y32424700D02*
X236081700Y35164700D01*
X235084000Y50747600D02*
X240324000Y50747600D01*
X235084000Y48007600D02*
X240324000Y48007600D01*
X235084000Y50747600D02*
X235084000Y50432600D01*
X235084000Y48322600D02*
X235084000Y48007600D01*
X240324000Y50747600D02*
X240324000Y50432600D01*
X240324000Y48322600D02*
X240324000Y48007600D01*
X235084000Y47699600D02*
X240324000Y47699600D01*
X235084000Y44959600D02*
X240324000Y44959600D01*
X235084000Y47699600D02*
X235084000Y47384600D01*
X235084000Y45274600D02*
X235084000Y44959600D01*
X240324000Y47699600D02*
X240324000Y47384600D01*
X240324000Y45274600D02*
X240324000Y44959600D01*
X236065200Y38200000D02*
X243305200Y38200000D01*
X236065200Y35460000D02*
X243305200Y35460000D01*
X236065200Y38200000D02*
X236065200Y35460000D01*
X243305200Y38200000D02*
X243305200Y35460000D01*
D13*
X249169180Y42035504D02*
X248169180Y42035504D01*
X248169180Y42273600D01*
X248216800Y42416457D01*
X248312038Y42511695D01*
X248407276Y42559314D01*
X248597752Y42606933D01*
X248740609Y42606933D01*
X248931085Y42559314D01*
X249026323Y42511695D01*
X249121561Y42416457D01*
X249169180Y42273600D01*
X249169180Y42035504D01*
X248264419Y42987885D02*
X248216800Y43035504D01*
X248169180Y43130742D01*
X248169180Y43368838D01*
X248216800Y43464076D01*
X248264419Y43511695D01*
X248359657Y43559314D01*
X248454895Y43559314D01*
X248597752Y43511695D01*
X249169180Y42940266D01*
X249169180Y43559314D01*
D14*
X244124118Y31972188D02*
X243682883Y31972188D01*
X243903501Y31972188D02*
X243903501Y32744348D01*
X243829961Y32634039D01*
X243756422Y32560500D01*
X243682883Y32523731D01*
D13*
X233756304Y44492290D02*
X233794400Y44568480D01*
X233870590Y44644671D01*
X233984876Y44758957D01*
X234022971Y44835147D01*
X234022971Y44911338D01*
X233832495Y44873242D02*
X233870590Y44949433D01*
X233946780Y45025623D01*
X234099161Y45063719D01*
X234365828Y45063719D01*
X234518209Y45025623D01*
X234594400Y44949433D01*
X234632495Y44873242D01*
X234632495Y44720861D01*
X234594400Y44644671D01*
X234518209Y44568480D01*
X234365828Y44530385D01*
X234099161Y44530385D01*
X233946780Y44568480D01*
X233870590Y44644671D01*
X233832495Y44720861D01*
X233832495Y44873242D01*
X234556304Y44225623D02*
X234594400Y44187528D01*
X234632495Y44111338D01*
X234632495Y43920861D01*
X234594400Y43844671D01*
X234556304Y43806576D01*
X234480114Y43768480D01*
X234403923Y43768480D01*
X234289638Y43806576D01*
X233832495Y44263719D01*
X233832495Y43768480D01*
X231146342Y40989257D02*
X231108247Y40874971D01*
X231070152Y40836876D01*
X230993961Y40798780D01*
X230879676Y40798780D01*
X230803485Y40836876D01*
X230765390Y40874971D01*
X230727295Y40951161D01*
X230727295Y41255923D01*
X231527295Y41255923D01*
X231527295Y40989257D01*
X231489200Y40913066D01*
X231451104Y40874971D01*
X231374914Y40836876D01*
X231298723Y40836876D01*
X231222533Y40874971D01*
X231184438Y40913066D01*
X231146342Y40989257D01*
X231146342Y41255923D01*
X230803485Y38131780D02*
X230765390Y38169876D01*
X230727295Y38284161D01*
X230727295Y38360352D01*
X230765390Y38474638D01*
X230841580Y38550828D01*
X230917771Y38588923D01*
X231070152Y38627019D01*
X231184438Y38627019D01*
X231336819Y38588923D01*
X231413009Y38550828D01*
X231489200Y38474638D01*
X231527295Y38360352D01*
X231527295Y38284161D01*
X231489200Y38169876D01*
X231451104Y38131780D01*
X231146342Y43884828D02*
X231146342Y43618161D01*
X230727295Y43503876D02*
X230727295Y43884828D01*
X231527295Y43884828D01*
X231527295Y43503876D01*
X234080057Y35667971D02*
X234080057Y35934638D01*
X234499104Y36048923D02*
X234499104Y35667971D01*
X233699104Y35667971D01*
X233699104Y36048923D01*
X234080057Y41230542D02*
X234118152Y41344828D01*
X234156247Y41382923D01*
X234232438Y41421019D01*
X234346723Y41421019D01*
X234422914Y41382923D01*
X234461009Y41344828D01*
X234499104Y41268638D01*
X234499104Y40963876D01*
X233699104Y40963876D01*
X233699104Y41230542D01*
X233737200Y41306733D01*
X233775295Y41344828D01*
X233851485Y41382923D01*
X233927676Y41382923D01*
X234003866Y41344828D01*
X234041961Y41306733D01*
X234080057Y41230542D01*
X234080057Y40963876D01*
X234422914Y38754019D02*
X234461009Y38715923D01*
X234499104Y38601638D01*
X234499104Y38525447D01*
X234461009Y38411161D01*
X234384819Y38334971D01*
X234308628Y38296876D01*
X234156247Y38258780D01*
X234041961Y38258780D01*
X233889580Y38296876D01*
X233813390Y38334971D01*
X233737200Y38411161D01*
X233699104Y38525447D01*
X233699104Y38601638D01*
X233737200Y38715923D01*
X233775295Y38754019D01*
X230922533Y32813320D02*
X230589200Y33289510D01*
X230351104Y32813320D02*
X230351104Y33813320D01*
X230732057Y33813320D01*
X230827295Y33765701D01*
X230874914Y33718081D01*
X230922533Y33622843D01*
X230922533Y33479986D01*
X230874914Y33384748D01*
X230827295Y33337129D01*
X230732057Y33289510D01*
X230351104Y33289510D01*
X231255866Y33813320D02*
X231922533Y33813320D01*
X231493961Y32813320D01*
X249219980Y33767733D02*
X248743790Y33434400D01*
X249219980Y33196304D02*
X248219980Y33196304D01*
X248219980Y33577257D01*
X248267600Y33672495D01*
X248315219Y33720114D01*
X248410457Y33767733D01*
X248553314Y33767733D01*
X248648552Y33720114D01*
X248696171Y33672495D01*
X248743790Y33577257D01*
X248743790Y33196304D01*
X248219980Y34624876D02*
X248219980Y34434400D01*
X248267600Y34339161D01*
X248315219Y34291542D01*
X248458076Y34196304D01*
X248648552Y34148685D01*
X249029504Y34148685D01*
X249124742Y34196304D01*
X249172361Y34243923D01*
X249219980Y34339161D01*
X249219980Y34529638D01*
X249172361Y34624876D01*
X249124742Y34672495D01*
X249029504Y34720114D01*
X248791409Y34720114D01*
X248696171Y34672495D01*
X248648552Y34624876D01*
X248600933Y34529638D01*
X248600933Y34339161D01*
X248648552Y34243923D01*
X248696171Y34196304D01*
X248791409Y34148685D01*
X230465333Y51998619D02*
X230132000Y52474809D01*
X229893904Y51998619D02*
X229893904Y52998619D01*
X230274857Y52998619D01*
X230370095Y52951000D01*
X230417714Y52903380D01*
X230465333Y52808142D01*
X230465333Y52665285D01*
X230417714Y52570047D01*
X230370095Y52522428D01*
X230274857Y52474809D01*
X229893904Y52474809D01*
X231370095Y52998619D02*
X230893904Y52998619D01*
X230846285Y52522428D01*
X230893904Y52570047D01*
X230989142Y52617666D01*
X231227238Y52617666D01*
X231322476Y52570047D01*
X231370095Y52522428D01*
X231417714Y52427190D01*
X231417714Y52189095D01*
X231370095Y52093857D01*
X231322476Y52046238D01*
X231227238Y51998619D01*
X230989142Y51998619D01*
X230893904Y52046238D01*
X230846285Y52093857D01*
X239761733Y42930819D02*
X239428400Y43407009D01*
X239190304Y42930819D02*
X239190304Y43930819D01*
X239571257Y43930819D01*
X239666495Y43883200D01*
X239714114Y43835580D01*
X239761733Y43740342D01*
X239761733Y43597485D01*
X239714114Y43502247D01*
X239666495Y43454628D01*
X239571257Y43407009D01*
X239190304Y43407009D01*
X240618876Y43597485D02*
X240618876Y42930819D01*
X240380780Y43978438D02*
X240142685Y43264152D01*
X240761733Y43264152D01*
X240180833Y51998619D02*
X239847500Y52474809D01*
X239609404Y51998619D02*
X239609404Y52998619D01*
X239990357Y52998619D01*
X240085595Y52951000D01*
X240133214Y52903380D01*
X240180833Y52808142D01*
X240180833Y52665285D01*
X240133214Y52570047D01*
X240085595Y52522428D01*
X239990357Y52474809D01*
X239609404Y52474809D01*
X240514166Y52998619D02*
X241133214Y52998619D01*
X240799880Y52617666D01*
X240942738Y52617666D01*
X241037976Y52570047D01*
X241085595Y52522428D01*
X241133214Y52427190D01*
X241133214Y52189095D01*
X241085595Y52093857D01*
X241037976Y52046238D01*
X240942738Y51998619D01*
X240657023Y51998619D01*
X240561785Y52046238D01*
X240514166Y52093857D01*
X239761733Y39882819D02*
X239428400Y40359009D01*
X239190304Y39882819D02*
X239190304Y40882819D01*
X239571257Y40882819D01*
X239666495Y40835200D01*
X239714114Y40787580D01*
X239761733Y40692342D01*
X239761733Y40549485D01*
X239714114Y40454247D01*
X239666495Y40406628D01*
X239571257Y40359009D01*
X239190304Y40359009D01*
X240142685Y40787580D02*
X240190304Y40835200D01*
X240285542Y40882819D01*
X240523638Y40882819D01*
X240618876Y40835200D01*
X240666495Y40787580D01*
X240714114Y40692342D01*
X240714114Y40597104D01*
X240666495Y40454247D01*
X240095066Y39882819D01*
X240714114Y39882819D01*
X246222780Y33767733D02*
X245746590Y33434400D01*
X246222780Y33196304D02*
X245222780Y33196304D01*
X245222780Y33577257D01*
X245270400Y33672495D01*
X245318019Y33720114D01*
X245413257Y33767733D01*
X245556114Y33767733D01*
X245651352Y33720114D01*
X245698971Y33672495D01*
X245746590Y33577257D01*
X245746590Y33196304D01*
X246222780Y34720114D02*
X246222780Y34148685D01*
X246222780Y34434400D02*
X245222780Y34434400D01*
X245365638Y34339161D01*
X245460876Y34243923D01*
X245508495Y34148685D01*
X229235104Y44593890D02*
X229273200Y44670080D01*
X229349390Y44746271D01*
X229463676Y44860557D01*
X229501771Y44936747D01*
X229501771Y45012938D01*
X229311295Y44974842D02*
X229349390Y45051033D01*
X229425580Y45127223D01*
X229577961Y45165319D01*
X229844628Y45165319D01*
X229997009Y45127223D01*
X230073200Y45051033D01*
X230111295Y44974842D01*
X230111295Y44822461D01*
X230073200Y44746271D01*
X229997009Y44670080D01*
X229844628Y44631985D01*
X229577961Y44631985D01*
X229425580Y44670080D01*
X229349390Y44746271D01*
X229311295Y44822461D01*
X229311295Y44974842D01*
X229311295Y43870080D02*
X229311295Y44327223D01*
X229311295Y44098652D02*
X230111295Y44098652D01*
X229997009Y44174842D01*
X229920819Y44251033D01*
X229882723Y44327223D01*
X226320342Y43757828D02*
X226320342Y43491161D01*
X225901295Y43376876D02*
X225901295Y43757828D01*
X226701295Y43757828D01*
X226701295Y43376876D01*
X225977485Y38258780D02*
X225939390Y38296876D01*
X225901295Y38411161D01*
X225901295Y38487352D01*
X225939390Y38601638D01*
X226015580Y38677828D01*
X226091771Y38715923D01*
X226244152Y38754019D01*
X226358438Y38754019D01*
X226510819Y38715923D01*
X226587009Y38677828D01*
X226663200Y38601638D01*
X226701295Y38487352D01*
X226701295Y38411161D01*
X226663200Y38296876D01*
X226625104Y38258780D01*
X226574342Y40989257D02*
X226536247Y40874971D01*
X226498152Y40836876D01*
X226421961Y40798780D01*
X226307676Y40798780D01*
X226231485Y40836876D01*
X226193390Y40874971D01*
X226155295Y40951161D01*
X226155295Y41255923D01*
X226955295Y41255923D01*
X226955295Y40989257D01*
X226917200Y40913066D01*
X226879104Y40874971D01*
X226802914Y40836876D01*
X226726723Y40836876D01*
X226650533Y40874971D01*
X226612438Y40913066D01*
X226574342Y40989257D01*
X226574342Y41255923D01*
X248564476Y50844400D02*
X248488285Y50882495D01*
X248374000Y50882495D01*
X248259714Y50844400D01*
X248183523Y50768209D01*
X248145428Y50692019D01*
X248107333Y50539638D01*
X248107333Y50425352D01*
X248145428Y50272971D01*
X248183523Y50196780D01*
X248259714Y50120590D01*
X248374000Y50082495D01*
X248450190Y50082495D01*
X248564476Y50120590D01*
X248602571Y50158685D01*
X248602571Y50425352D01*
X248450190Y50425352D01*
X248945428Y50082495D02*
X248945428Y50882495D01*
X249402571Y50082495D01*
X249402571Y50882495D01*
X249783523Y50082495D02*
X249783523Y50882495D01*
X249974000Y50882495D01*
X250088285Y50844400D01*
X250164476Y50768209D01*
X250202571Y50692019D01*
X250240666Y50539638D01*
X250240666Y50425352D01*
X250202571Y50272971D01*
X250164476Y50196780D01*
X250088285Y50120590D01*
X249974000Y50082495D01*
X249783523Y50082495D01*
X245821295Y50882495D02*
X246087961Y50082495D01*
X246354628Y50882495D01*
X246621295Y50387257D02*
X247230819Y50387257D01*
X246926057Y50082495D02*
X246926057Y50692019D01*
X233311752Y27654295D02*
X233311752Y28454295D01*
X233692704Y27654295D02*
X233692704Y28454295D01*
X234149847Y27654295D01*
X234149847Y28454295D01*
X235661276Y28416200D02*
X235585085Y28454295D01*
X235470800Y28454295D01*
X235356514Y28416200D01*
X235280323Y28340009D01*
X235242228Y28263819D01*
X235204133Y28111438D01*
X235204133Y27997152D01*
X235242228Y27844771D01*
X235280323Y27768580D01*
X235356514Y27692390D01*
X235470800Y27654295D01*
X235546990Y27654295D01*
X235661276Y27692390D01*
X235699371Y27730485D01*
X235699371Y27997152D01*
X235546990Y27997152D01*
X236042228Y27654295D02*
X236042228Y28454295D01*
X236499371Y27654295D01*
X236499371Y28454295D01*
X236880323Y27654295D02*
X236880323Y28454295D01*
X237070800Y28454295D01*
X237185085Y28416200D01*
X237261276Y28340009D01*
X237299371Y28263819D01*
X237337466Y28111438D01*
X237337466Y27997152D01*
X237299371Y27844771D01*
X237261276Y27768580D01*
X237185085Y27692390D01*
X237070800Y27654295D01*
X236880323Y27654295D01*
X238125085Y27692390D02*
X238239371Y27654295D01*
X238429847Y27654295D01*
X238506038Y27692390D01*
X238544133Y27730485D01*
X238582228Y27806676D01*
X238582228Y27882866D01*
X238544133Y27959057D01*
X238506038Y27997152D01*
X238429847Y28035247D01*
X238277466Y28073342D01*
X238201276Y28111438D01*
X238163180Y28149533D01*
X238125085Y28225723D01*
X238125085Y28301914D01*
X238163180Y28378104D01*
X238201276Y28416200D01*
X238277466Y28454295D01*
X238467942Y28454295D01*
X238582228Y28416200D01*
X238848895Y28454295D02*
X239039371Y27654295D01*
X239191752Y28225723D01*
X239344133Y27654295D01*
X239534609Y28454295D01*
X240550800Y28454295D02*
X240703180Y28454295D01*
X240779371Y28416200D01*
X240855561Y28340009D01*
X240893657Y28187628D01*
X240893657Y27920961D01*
X240855561Y27768580D01*
X240779371Y27692390D01*
X240703180Y27654295D01*
X240550800Y27654295D01*
X240474609Y27692390D01*
X240398419Y27768580D01*
X240360323Y27920961D01*
X240360323Y28187628D01*
X240398419Y28340009D01*
X240474609Y28416200D01*
X240550800Y28454295D01*
X241236514Y28454295D02*
X241236514Y27806676D01*
X241274609Y27730485D01*
X241312704Y27692390D01*
X241388895Y27654295D01*
X241541276Y27654295D01*
X241617466Y27692390D01*
X241655561Y27730485D01*
X241693657Y27806676D01*
X241693657Y28454295D01*
X241960323Y28454295D02*
X242417466Y28454295D01*
X242188895Y27654295D02*
X242188895Y28454295D01*
X242657333Y49782457D02*
X242609714Y49734838D01*
X242466857Y49687219D01*
X242371619Y49687219D01*
X242228761Y49734838D01*
X242133523Y49830076D01*
X242085904Y49925314D01*
X242038285Y50115790D01*
X242038285Y50258647D01*
X242085904Y50449123D01*
X242133523Y50544361D01*
X242228761Y50639600D01*
X242371619Y50687219D01*
X242466857Y50687219D01*
X242609714Y50639600D01*
X242657333Y50591980D01*
X243514476Y50687219D02*
X243324000Y50687219D01*
X243228761Y50639600D01*
X243181142Y50591980D01*
X243085904Y50449123D01*
X243038285Y50258647D01*
X243038285Y49877695D01*
X243085904Y49782457D01*
X243133523Y49734838D01*
X243228761Y49687219D01*
X243419238Y49687219D01*
X243514476Y49734838D01*
X243562095Y49782457D01*
X243609714Y49877695D01*
X243609714Y50115790D01*
X243562095Y50211028D01*
X243514476Y50258647D01*
X243419238Y50306266D01*
X243228761Y50306266D01*
X243133523Y50258647D01*
X243085904Y50211028D01*
X243038285Y50115790D01*
X228471433Y49947557D02*
X228423814Y49899938D01*
X228280957Y49852319D01*
X228185719Y49852319D01*
X228042861Y49899938D01*
X227947623Y49995176D01*
X227900004Y50090414D01*
X227852385Y50280890D01*
X227852385Y50423747D01*
X227900004Y50614223D01*
X227947623Y50709461D01*
X228042861Y50804700D01*
X228185719Y50852319D01*
X228280957Y50852319D01*
X228423814Y50804700D01*
X228471433Y50757080D01*
X229376195Y50852319D02*
X228900004Y50852319D01*
X228852385Y50376128D01*
X228900004Y50423747D01*
X228995242Y50471366D01*
X229233338Y50471366D01*
X229328576Y50423747D01*
X229376195Y50376128D01*
X229423814Y50280890D01*
X229423814Y50042795D01*
X229376195Y49947557D01*
X229328576Y49899938D01*
X229233338Y49852319D01*
X228995242Y49852319D01*
X228900004Y49899938D01*
X228852385Y49947557D01*
X239495033Y33437557D02*
X239447414Y33389938D01*
X239304557Y33342319D01*
X239209319Y33342319D01*
X239066461Y33389938D01*
X238971223Y33485176D01*
X238923604Y33580414D01*
X238875985Y33770890D01*
X238875985Y33913747D01*
X238923604Y34104223D01*
X238971223Y34199461D01*
X239066461Y34294700D01*
X239209319Y34342319D01*
X239304557Y34342319D01*
X239447414Y34294700D01*
X239495033Y34247080D01*
X240352176Y34008985D02*
X240352176Y33342319D01*
X240114080Y34389938D02*
X239875985Y33675652D01*
X240495033Y33675652D01*
X237513833Y49020457D02*
X237466214Y48972838D01*
X237323357Y48925219D01*
X237228119Y48925219D01*
X237085261Y48972838D01*
X236990023Y49068076D01*
X236942404Y49163314D01*
X236894785Y49353790D01*
X236894785Y49496647D01*
X236942404Y49687123D01*
X236990023Y49782361D01*
X237085261Y49877600D01*
X237228119Y49925219D01*
X237323357Y49925219D01*
X237466214Y49877600D01*
X237513833Y49829980D01*
X237847166Y49925219D02*
X238466214Y49925219D01*
X238132880Y49544266D01*
X238275738Y49544266D01*
X238370976Y49496647D01*
X238418595Y49449028D01*
X238466214Y49353790D01*
X238466214Y49115695D01*
X238418595Y49020457D01*
X238370976Y48972838D01*
X238275738Y48925219D01*
X237990023Y48925219D01*
X237894785Y48972838D01*
X237847166Y49020457D01*
X237513833Y45972457D02*
X237466214Y45924838D01*
X237323357Y45877219D01*
X237228119Y45877219D01*
X237085261Y45924838D01*
X236990023Y46020076D01*
X236942404Y46115314D01*
X236894785Y46305790D01*
X236894785Y46448647D01*
X236942404Y46639123D01*
X236990023Y46734361D01*
X237085261Y46829600D01*
X237228119Y46877219D01*
X237323357Y46877219D01*
X237466214Y46829600D01*
X237513833Y46781980D01*
X237894785Y46781980D02*
X237942404Y46829600D01*
X238037642Y46877219D01*
X238275738Y46877219D01*
X238370976Y46829600D01*
X238418595Y46781980D01*
X238466214Y46686742D01*
X238466214Y46591504D01*
X238418595Y46448647D01*
X237847166Y45877219D01*
X238466214Y45877219D01*
X239495033Y36472857D02*
X239447414Y36425238D01*
X239304557Y36377619D01*
X239209319Y36377619D01*
X239066461Y36425238D01*
X238971223Y36520476D01*
X238923604Y36615714D01*
X238875985Y36806190D01*
X238875985Y36949047D01*
X238923604Y37139523D01*
X238971223Y37234761D01*
X239066461Y37330000D01*
X239209319Y37377619D01*
X239304557Y37377619D01*
X239447414Y37330000D01*
X239495033Y37282380D01*
X240447414Y36377619D02*
X239875985Y36377619D01*
X240161700Y36377619D02*
X240161700Y37377619D01*
X240066461Y37234761D01*
X239971223Y37139523D01*
X239875985Y37091904D01*
%LPC*%
D15*
X248412000Y26771600D03*
D16*
X245872000Y26771600D03*
D17*
X248716800Y40182800D03*
D18*
X248716800Y45262800D03*
D19*
X232473501Y30289499D03*
X237553501Y30289499D03*
D20*
X242633501Y30289499D03*
D21*
X232613200Y35966400D03*
X232613200Y38506400D03*
X232613200Y41046400D03*
D22*
X232613200Y43586400D03*
D23*
X227279200Y33223200D03*
D24*
X234899200Y33223200D03*
D23*
X248767600Y37744400D03*
D24*
X248767600Y30124400D03*
D23*
X234442000Y52451000D03*
D24*
X226822000Y52451000D03*
D23*
X243738400Y43383200D03*
D24*
X236118400Y43383200D03*
D23*
X236537500Y52451000D03*
D24*
X244157500Y52451000D03*
D23*
X236118400Y40335200D03*
D24*
X243738400Y40335200D03*
D23*
X245770400Y30124400D03*
D24*
X245770400Y37744400D03*
D21*
X228041200Y38506400D03*
X228041200Y41046400D03*
D22*
X228041200Y43586400D03*
D21*
X249047000Y52324000D03*
D22*
X246507000Y52324000D03*
D21*
X241350800Y26111200D03*
X238810800Y26111200D03*
X236270800Y26111200D03*
D22*
X233730800Y26111200D03*
D24*
X246340000Y47345600D03*
D25*
X243840000Y47345600D03*
D24*
X232471600Y47955200D03*
D25*
X229971600Y47955200D03*
D24*
X237201700Y33794700D03*
X242201700Y33794700D03*
X240204000Y49377600D03*
X235204000Y49377600D03*
X240204000Y46329600D03*
X235204000Y46329600D03*
X242185200Y36830000D03*
X237185200Y36830000D03*
M02*
