G04 #@! TF.GenerationSoftware,KiCad,Pcbnew,(5.99.0-1101-g9de7547c2)*
G04 #@! TF.CreationDate,2020-03-12T16:30:10+02:00*
G04 #@! TF.ProjectId,cabeza-de-carne,63616265-7a61-42d6-9465-2d6361726e65,rev?*
G04 #@! TF.SameCoordinates,Original*
G04 #@! TF.FileFunction,Copper,L1,Top*
G04 #@! TF.FilePolarity,Positive*
%FSLAX46Y46*%
G04 Gerber Fmt 4.6, Leading zero omitted, Abs format (unit mm)*
G04 Created by KiCad (PCBNEW (5.99.0-1101-g9de7547c2)) date 2020-03-12 16:30:10*
%MOMM*%
%LPD*%
G01*
G04 APERTURE LIST*
%ADD10O,2.540000X2.540000*%
%ADD11R,2.540000X2.540000*%
%ADD12O,1.930400X1.930400*%
%ADD13R,1.930400X1.930400*%
%ADD14O,1.600000X1.600000*%
%ADD15C,1.600000*%
%ADD16O,2.200000X2.200000*%
%ADD17R,2.200000X2.200000*%
%ADD18C,1.800000*%
%ADD19R,1.800000X1.800000*%
%ADD20R,1.600000X1.600000*%
%ADD21C,0.381000*%
%ADD22C,0.254000*%
G04 APERTURE END LIST*
D10*
X232473501Y30289499D03*
X237553501Y30289499D03*
D11*
X242633501Y30289499D03*
D12*
X233680000Y42799000D03*
X231140000Y42799000D03*
X228600000Y42799000D03*
D13*
X226060000Y42799000D03*
D14*
X223647000Y26182999D03*
D15*
X231267000Y26182999D03*
D14*
X247332500Y40195500D03*
D15*
X247332500Y32575500D03*
D14*
X231584500Y52260500D03*
D15*
X223964500Y52260500D03*
D14*
X244792500Y37211000D03*
D15*
X237172500Y37211000D03*
D14*
X233743500Y52260500D03*
D15*
X241363500Y52260500D03*
D14*
X237172500Y34163000D03*
D15*
X244792500Y34163000D03*
D14*
X223647000Y34671000D03*
D15*
X231267000Y34671000D03*
D12*
X231140000Y38354000D03*
X228600000Y38354000D03*
D13*
X226060000Y38354000D03*
D12*
X249047000Y52324000D03*
D13*
X246507000Y52324000D03*
D12*
X241300000Y26035000D03*
X238760000Y26035000D03*
X236220000Y26035000D03*
D13*
X233680000Y26035000D03*
D16*
X243141500Y50355500D03*
D17*
X243141500Y40195500D03*
D18*
X248475500Y27495500D03*
D19*
X245935500Y27495500D03*
D15*
X246229500Y45148500D03*
D20*
X248729500Y45148500D03*
D15*
X228687000Y47752000D03*
D20*
X226187000Y47752000D03*
D15*
X229599500Y31813500D03*
X224599500Y31813500D03*
X236203500Y49196000D03*
X231203500Y49196000D03*
X231220000Y46338500D03*
X236220000Y46338500D03*
X224616000Y29083000D03*
X229616000Y29083000D03*
D21*
X232473501Y30289499D02*
X231123501Y30289499D01*
X231123501Y30289499D02*
X229599500Y31813500D01*
X238760000Y26035000D02*
X240220500Y27495500D01*
X240220500Y27495500D02*
X245935500Y27495500D01*
X237172500Y34163000D02*
X237172500Y37211000D01*
X226187000Y47752000D02*
X226187000Y42926000D01*
X226187000Y42926000D02*
X226060000Y42799000D01*
X231140000Y38354000D02*
X230174801Y39319199D01*
X230174801Y39319199D02*
X230174801Y41833801D01*
X230174801Y41833801D02*
X231140000Y42799000D01*
X247332500Y40195500D02*
X243141500Y40195500D01*
X231267000Y26182999D02*
X231267000Y27432000D01*
X231267000Y27432000D02*
X229616000Y29083000D01*
X233680000Y26035000D02*
X231414999Y26035000D01*
X231414999Y26035000D02*
X231267000Y26182999D01*
X247332500Y32575500D02*
X247332500Y28638500D01*
X247332500Y28638500D02*
X248475500Y27495500D01*
X247332500Y40195500D02*
X247332500Y43751500D01*
X247332500Y43751500D02*
X248729500Y45148500D01*
X243141500Y50355500D02*
X245110000Y52324000D01*
X245110000Y52324000D02*
X246507000Y52324000D01*
X243141500Y35814000D02*
X243141500Y40195500D01*
X244792500Y34163000D02*
X243141500Y35814000D01*
X226187000Y50038000D02*
X223964500Y52260500D01*
X226187000Y47752000D02*
X226187000Y50038000D01*
X235712000Y46435000D02*
X235728500Y46418500D01*
X231203500Y49196000D02*
X231203500Y46355000D01*
X228600000Y37338000D02*
X228600000Y38354000D01*
X231267000Y34671000D02*
X228600000Y37338000D01*
X230204000Y34671000D02*
X231267000Y34671000D01*
X224616000Y29083000D02*
X230204000Y34671000D01*
X233743500Y51736000D02*
X233743500Y52260500D01*
X231203500Y49196000D02*
X233743500Y51736000D01*
X232155499Y45147999D02*
X230948999Y45147999D01*
X230948999Y45147999D02*
X228600000Y42799000D01*
X236203500Y49196000D02*
X232155499Y45147999D01*
G36*
X240542632Y53442412D02*
G01*
X240533619Y53436101D01*
X240349866Y53281913D01*
X240342087Y53274134D01*
X240187899Y53090381D01*
X240181588Y53081368D01*
X240061652Y52873632D01*
X240057002Y52863660D01*
X239974960Y52638253D01*
X239972113Y52627626D01*
X239930459Y52391397D01*
X239929500Y52380436D01*
X239929500Y52140564D01*
X239930459Y52129603D01*
X239972113Y51893374D01*
X239974960Y51882747D01*
X240057002Y51657340D01*
X240061652Y51647368D01*
X240181588Y51439632D01*
X240187899Y51430619D01*
X240342087Y51246866D01*
X240349866Y51239087D01*
X240533619Y51084899D01*
X240542632Y51078588D01*
X240750368Y50958652D01*
X240760340Y50954002D01*
X240985747Y50871960D01*
X240996374Y50869113D01*
X241232603Y50827459D01*
X241243564Y50826500D01*
X241471302Y50826500D01*
X241451732Y50766269D01*
X241449421Y50756641D01*
X241408277Y50496873D01*
X241407500Y50487003D01*
X241407500Y50223997D01*
X241408277Y50214127D01*
X241449421Y49954359D01*
X241451732Y49944731D01*
X241533005Y49694598D01*
X241536794Y49685450D01*
X241656196Y49451110D01*
X241661369Y49442668D01*
X241815960Y49229892D01*
X241822390Y49222363D01*
X242008363Y49036390D01*
X242015892Y49029960D01*
X242228668Y48875369D01*
X242237110Y48870196D01*
X242471450Y48750794D01*
X242480598Y48747005D01*
X242730731Y48665732D01*
X242740359Y48663421D01*
X243000127Y48622277D01*
X243009997Y48621500D01*
X243273003Y48621500D01*
X243282873Y48622277D01*
X243542641Y48663421D01*
X243552269Y48665732D01*
X243802402Y48747005D01*
X243811550Y48750794D01*
X244045890Y48870196D01*
X244054332Y48875369D01*
X244267108Y49029960D01*
X244274637Y49036390D01*
X244460610Y49222363D01*
X244467040Y49229892D01*
X244621631Y49442668D01*
X244626804Y49451110D01*
X244746206Y49685450D01*
X244749995Y49694598D01*
X244831268Y49944731D01*
X244833579Y49954359D01*
X244874723Y50214127D01*
X244875500Y50223997D01*
X244875500Y50487003D01*
X244874723Y50496873D01*
X244833579Y50756641D01*
X244831268Y50766268D01*
X244804254Y50849408D01*
X244988183Y51033337D01*
X244989680Y51030462D01*
X245120790Y50874210D01*
X245137679Y50860039D01*
X245311920Y50759441D01*
X245332637Y50751900D01*
X245525338Y50717922D01*
X245536299Y50716963D01*
X247480458Y50716963D01*
X247496834Y50719119D01*
X247776059Y50793937D01*
X247800539Y50806680D01*
X247956790Y50937790D01*
X247970961Y50954679D01*
X248041025Y51076034D01*
X248233148Y50941508D01*
X248242077Y50936290D01*
X248469873Y50827149D01*
X248479535Y50823460D01*
X248722098Y50752988D01*
X248732232Y50750927D01*
X248834309Y50738754D01*
X248919000Y50813946D01*
X248919000Y52452000D01*
X249175000Y52452000D01*
X249175000Y50811699D01*
X249268412Y50736056D01*
X249503045Y50785930D01*
X249512950Y50788901D01*
X249748128Y50881067D01*
X249757415Y50885616D01*
X249974382Y51014954D01*
X249982801Y51020959D01*
X250064000Y51089578D01*
X250064000Y46297837D01*
X249950510Y46433090D01*
X249933621Y46447261D01*
X249759380Y46547859D01*
X249738663Y46555400D01*
X249545962Y46589378D01*
X249535001Y46590337D01*
X247921242Y46590337D01*
X247904866Y46588181D01*
X247625642Y46513363D01*
X247601162Y46500620D01*
X247444910Y46369510D01*
X247430739Y46352621D01*
X247330141Y46178380D01*
X247322600Y46157663D01*
X247296265Y46008306D01*
X247273344Y46011323D01*
X246140405Y44878385D01*
X245366677Y44104657D01*
X245382897Y43981447D01*
X245616368Y43846652D01*
X245626340Y43842002D01*
X245851747Y43759960D01*
X245862374Y43757113D01*
X246098603Y43715459D01*
X246109564Y43714500D01*
X246349436Y43714500D01*
X246360397Y43715459D01*
X246502854Y43740578D01*
X246500118Y43703751D01*
X246501339Y43685840D01*
X246506001Y43664001D01*
X246506000Y41373468D01*
X246502619Y41371101D01*
X246318866Y41216913D01*
X246311087Y41209134D01*
X246156899Y41025381D01*
X246154532Y41022000D01*
X244883337Y41022000D01*
X244883337Y41303758D01*
X244881181Y41320134D01*
X244806363Y41599359D01*
X244793620Y41623839D01*
X244662510Y41780090D01*
X244645621Y41794261D01*
X244471380Y41894859D01*
X244450663Y41902400D01*
X244257962Y41936378D01*
X244247001Y41937337D01*
X242033242Y41937337D01*
X242016866Y41935181D01*
X241737642Y41860363D01*
X241713162Y41847620D01*
X241556910Y41716510D01*
X241542739Y41699621D01*
X241442141Y41525380D01*
X241434600Y41504663D01*
X241400622Y41311962D01*
X241399663Y41301001D01*
X241399663Y39087242D01*
X241401819Y39070866D01*
X241476637Y38791642D01*
X241489380Y38767162D01*
X241620490Y38610910D01*
X241637379Y38596739D01*
X241811620Y38496141D01*
X241832337Y38488600D01*
X242025038Y38454622D01*
X242035999Y38453663D01*
X242315001Y38453663D01*
X242315000Y35906590D01*
X242311203Y35889809D01*
X242309763Y35871914D01*
X242315000Y35787505D01*
X242315000Y35759223D01*
X242315637Y35750281D01*
X242318588Y35729675D01*
X242323300Y35653726D01*
X242326940Y35636147D01*
X242335298Y35612994D01*
X242338788Y35588624D01*
X242343827Y35571392D01*
X242375331Y35502103D01*
X242401236Y35430344D01*
X242409896Y35414177D01*
X242423935Y35395205D01*
X242434308Y35372389D01*
X242443981Y35357264D01*
X242500830Y35291286D01*
X242513588Y35274046D01*
X242519691Y35266963D01*
X242534852Y35251803D01*
X242586680Y35191653D01*
X242600210Y35179851D01*
X242618950Y35167704D01*
X243379439Y34407214D01*
X243359459Y34293897D01*
X243358500Y34282936D01*
X243358500Y34043064D01*
X243359459Y34032103D01*
X243401113Y33795874D01*
X243403960Y33785247D01*
X243486002Y33559840D01*
X243490652Y33549868D01*
X243610588Y33342132D01*
X243616899Y33333119D01*
X243771087Y33149366D01*
X243778866Y33141587D01*
X243962619Y32987399D01*
X243971632Y32981088D01*
X244179368Y32861152D01*
X244189340Y32856502D01*
X244414747Y32774460D01*
X244425374Y32771613D01*
X244661603Y32729959D01*
X244672564Y32729000D01*
X244912436Y32729000D01*
X244923397Y32729959D01*
X245159626Y32771613D01*
X245170253Y32774460D01*
X245395660Y32856502D01*
X245405632Y32861152D01*
X245613368Y32981088D01*
X245622381Y32987399D01*
X245806134Y33141587D01*
X245813913Y33149366D01*
X245968101Y33333119D01*
X245974412Y33342132D01*
X246094348Y33549868D01*
X246098998Y33559840D01*
X246181040Y33785247D01*
X246183887Y33795874D01*
X246225541Y34032103D01*
X246226500Y34043064D01*
X246226500Y34282936D01*
X246225541Y34293897D01*
X246183887Y34530126D01*
X246181040Y34540753D01*
X246098998Y34766160D01*
X246094348Y34776132D01*
X245974412Y34983868D01*
X245968101Y34992881D01*
X245813913Y35176634D01*
X245806134Y35184413D01*
X245622381Y35338601D01*
X245613368Y35344912D01*
X245405632Y35464848D01*
X245395660Y35469498D01*
X245170253Y35551540D01*
X245159626Y35554387D01*
X244923397Y35596041D01*
X244912436Y35597000D01*
X244672564Y35597000D01*
X244661603Y35596041D01*
X244548286Y35576061D01*
X244237301Y35887046D01*
X244414747Y35822460D01*
X244425374Y35819613D01*
X244661603Y35777959D01*
X244672564Y35777000D01*
X244912436Y35777000D01*
X244923397Y35777959D01*
X245159626Y35819613D01*
X245170253Y35822460D01*
X245395660Y35904502D01*
X245405632Y35909152D01*
X245613368Y36029088D01*
X245622381Y36035399D01*
X245806134Y36189587D01*
X245813913Y36197366D01*
X245968101Y36381119D01*
X245974412Y36390132D01*
X246094348Y36597868D01*
X246098998Y36607840D01*
X246181040Y36833247D01*
X246183887Y36843874D01*
X246225541Y37080103D01*
X246226500Y37091064D01*
X246226500Y37330936D01*
X246225541Y37341897D01*
X246183887Y37578126D01*
X246181040Y37588753D01*
X246098998Y37814160D01*
X246094348Y37824132D01*
X245974412Y38031868D01*
X245968101Y38040881D01*
X245813913Y38224634D01*
X245806134Y38232413D01*
X245622381Y38386601D01*
X245613368Y38392912D01*
X245405632Y38512848D01*
X245395660Y38517498D01*
X245170253Y38599540D01*
X245159626Y38602387D01*
X244923397Y38644041D01*
X244912436Y38645000D01*
X244690945Y38645000D01*
X244726090Y38674490D01*
X244740261Y38691379D01*
X244840859Y38865620D01*
X244848400Y38886337D01*
X244882378Y39079038D01*
X244883337Y39089999D01*
X244883337Y39369000D01*
X246154532Y39369000D01*
X246156899Y39365619D01*
X246311087Y39181866D01*
X246318866Y39174087D01*
X246502619Y39019899D01*
X246511632Y39013588D01*
X246719368Y38893652D01*
X246729340Y38889002D01*
X246954747Y38806960D01*
X246965374Y38804113D01*
X247201603Y38762459D01*
X247212564Y38761500D01*
X247452436Y38761500D01*
X247463397Y38762459D01*
X247699626Y38804113D01*
X247710253Y38806960D01*
X247935660Y38889002D01*
X247945632Y38893652D01*
X248153368Y39013588D01*
X248162381Y39019899D01*
X248346134Y39174087D01*
X248353913Y39181866D01*
X248508101Y39365619D01*
X248514412Y39374632D01*
X248634348Y39582368D01*
X248638998Y39592340D01*
X248721040Y39817747D01*
X248723887Y39828374D01*
X248765541Y40064603D01*
X248766500Y40075564D01*
X248766500Y40315436D01*
X248765541Y40326397D01*
X248723887Y40562626D01*
X248721040Y40573253D01*
X248638998Y40798660D01*
X248634348Y40808632D01*
X248514412Y41016368D01*
X248508101Y41025381D01*
X248353913Y41209134D01*
X248346134Y41216913D01*
X248162381Y41371101D01*
X248159000Y41373468D01*
X248159000Y43409155D01*
X248456508Y43706663D01*
X249537758Y43706663D01*
X249554134Y43708819D01*
X249833359Y43783637D01*
X249857839Y43796380D01*
X250014090Y43927490D01*
X250028261Y43944379D01*
X250064000Y44006281D01*
X250064001Y25018000D01*
X242534526Y25018000D01*
X242599766Y25094656D01*
X242605801Y25103054D01*
X242735895Y25319569D01*
X242740477Y25328839D01*
X242833463Y25563694D01*
X242836470Y25573589D01*
X242890011Y25821231D01*
X242891418Y25833031D01*
X242899385Y26158987D01*
X242898556Y26170842D01*
X242857175Y26420803D01*
X242854655Y26430833D01*
X242773576Y26669000D01*
X244393663Y26669000D01*
X244393663Y26587242D01*
X244395819Y26570866D01*
X244470637Y26291642D01*
X244483380Y26267162D01*
X244614490Y26110910D01*
X244631379Y26096739D01*
X244805620Y25996141D01*
X244826337Y25988600D01*
X245019038Y25954622D01*
X245029999Y25953663D01*
X246843758Y25953663D01*
X246860134Y25955819D01*
X247139359Y26030637D01*
X247163839Y26043380D01*
X247320090Y26174490D01*
X247334261Y26191379D01*
X247433721Y26363650D01*
X247440687Y26356206D01*
X247448612Y26349058D01*
X247647441Y26198139D01*
X247656457Y26192429D01*
X247877871Y26077168D01*
X247887720Y26073058D01*
X248125389Y25996751D01*
X248135790Y25994360D01*
X248382917Y25959188D01*
X248393572Y25958583D01*
X248643093Y25965552D01*
X248653698Y25966751D01*
X248898477Y26015663D01*
X248908728Y26018632D01*
X249141767Y26108087D01*
X249151371Y26112740D01*
X249366006Y26240181D01*
X249374688Y26246386D01*
X249564783Y26408169D01*
X249572296Y26415748D01*
X249732414Y26607246D01*
X249738542Y26615983D01*
X249864106Y26831721D01*
X249868675Y26841366D01*
X249956093Y27075177D01*
X249958971Y27085454D01*
X250005802Y27330947D01*
X250006917Y27342170D01*
X250009578Y27619402D01*
X250008679Y27630644D01*
X249966570Y27876992D01*
X249963889Y27887322D01*
X249880976Y28122768D01*
X249876592Y28132499D01*
X249755194Y28350608D01*
X249749234Y28359461D01*
X249592822Y28553998D01*
X249585456Y28561720D01*
X249398503Y28727122D01*
X249389940Y28733493D01*
X249177791Y28865030D01*
X249168278Y28869867D01*
X248937000Y28963779D01*
X248926808Y28966944D01*
X248683013Y29020546D01*
X248672434Y29021948D01*
X248423092Y29033706D01*
X248412428Y29033306D01*
X248164670Y29002886D01*
X248159000Y29001696D01*
X248159000Y31397532D01*
X248162381Y31399899D01*
X248346134Y31554087D01*
X248353913Y31561866D01*
X248508101Y31745619D01*
X248514412Y31754632D01*
X248634348Y31962368D01*
X248638998Y31972340D01*
X248721040Y32197747D01*
X248723887Y32208374D01*
X248765541Y32444603D01*
X248766500Y32455564D01*
X248766500Y32695436D01*
X248765541Y32706397D01*
X248723887Y32942626D01*
X248721040Y32953253D01*
X248638998Y33178660D01*
X248634348Y33188632D01*
X248514412Y33396368D01*
X248508101Y33405381D01*
X248353913Y33589134D01*
X248346134Y33596913D01*
X248162381Y33751101D01*
X248153368Y33757412D01*
X247945632Y33877348D01*
X247935660Y33881998D01*
X247710253Y33964040D01*
X247699626Y33966887D01*
X247463397Y34008541D01*
X247452436Y34009500D01*
X247212564Y34009500D01*
X247201603Y34008541D01*
X246965374Y33966887D01*
X246954747Y33964040D01*
X246729340Y33881998D01*
X246719368Y33877348D01*
X246511632Y33757412D01*
X246502619Y33751101D01*
X246318866Y33596913D01*
X246311087Y33589134D01*
X246156899Y33405381D01*
X246150588Y33396368D01*
X246030652Y33188632D01*
X246026002Y33178660D01*
X245943960Y32953253D01*
X245941113Y32942626D01*
X245899459Y32706397D01*
X245898500Y32695436D01*
X245898500Y32455564D01*
X245899459Y32444603D01*
X245941113Y32208374D01*
X245943960Y32197747D01*
X246026002Y31972340D01*
X246030652Y31962368D01*
X246150588Y31754632D01*
X246156899Y31745619D01*
X246311087Y31561866D01*
X246318866Y31554087D01*
X246502619Y31399899D01*
X246506000Y31397532D01*
X246506001Y29037337D01*
X245027242Y29037337D01*
X245010866Y29035181D01*
X244731642Y28960363D01*
X244707162Y28947620D01*
X244550910Y28816510D01*
X244536739Y28799621D01*
X244436141Y28625380D01*
X244428600Y28604663D01*
X244394622Y28411962D01*
X244393663Y28401001D01*
X244393663Y28322000D01*
X240313090Y28322000D01*
X240296309Y28325797D01*
X240278414Y28327237D01*
X240194005Y28322000D01*
X240165722Y28322000D01*
X240156780Y28321363D01*
X240136174Y28318412D01*
X240060225Y28313700D01*
X240042646Y28310060D01*
X240019493Y28301702D01*
X239995123Y28298212D01*
X239977891Y28293173D01*
X239908602Y28261669D01*
X239836843Y28235764D01*
X239820676Y28227104D01*
X239801704Y28213065D01*
X239778888Y28202692D01*
X239763763Y28193019D01*
X239697791Y28136174D01*
X239680546Y28123413D01*
X239673462Y28117309D01*
X239658298Y28102144D01*
X239598153Y28050320D01*
X239586351Y28036791D01*
X239574203Y28018049D01*
X239143885Y27587731D01*
X239046423Y27613481D01*
X239036242Y27615294D01*
X238784770Y27639065D01*
X238774429Y27639192D01*
X238522451Y27621571D01*
X238512229Y27620007D01*
X238266513Y27561469D01*
X238256683Y27558257D01*
X238023827Y27460373D01*
X238014654Y27455598D01*
X237800912Y27320997D01*
X237792642Y27314788D01*
X237603754Y27147086D01*
X237596609Y27139609D01*
X237489627Y27007497D01*
X237410031Y27110854D01*
X237403072Y27118503D01*
X237218337Y27290771D01*
X237210221Y27297181D01*
X236999832Y27436964D01*
X236990778Y27441962D01*
X236760383Y27545505D01*
X236750634Y27548957D01*
X236506423Y27613481D01*
X236496242Y27615294D01*
X236430402Y27621518D01*
X236348000Y27546539D01*
X236348000Y25907000D01*
X236092000Y25907000D01*
X236092000Y27550043D01*
X235996184Y27625714D01*
X235726513Y27561469D01*
X235716683Y27558257D01*
X235483827Y27460373D01*
X235474654Y27455598D01*
X235260912Y27320997D01*
X235252642Y27314788D01*
X235215923Y27282188D01*
X235210063Y27304059D01*
X235197320Y27328539D01*
X235066210Y27484790D01*
X235049321Y27498961D01*
X234875080Y27599559D01*
X234854363Y27607100D01*
X234661662Y27641078D01*
X234650701Y27642037D01*
X232706542Y27642037D01*
X232690166Y27639881D01*
X232410942Y27565063D01*
X232386462Y27552320D01*
X232230210Y27421210D01*
X232216039Y27404321D01*
X232159369Y27306166D01*
X232097452Y27358121D01*
X232098737Y27374086D01*
X232093500Y27458495D01*
X232093500Y27486778D01*
X232092863Y27495720D01*
X232089912Y27516326D01*
X232085200Y27592275D01*
X232081560Y27609854D01*
X232073202Y27633007D01*
X232069712Y27657377D01*
X232064673Y27674609D01*
X232033169Y27743898D01*
X232007264Y27815656D01*
X231998605Y27831823D01*
X231984566Y27850795D01*
X231974191Y27873613D01*
X231964519Y27888738D01*
X231907676Y27954707D01*
X231894914Y27971954D01*
X231888810Y27979037D01*
X231873639Y27994208D01*
X231821820Y28054347D01*
X231808291Y28066149D01*
X231789556Y28078292D01*
X231029061Y28838786D01*
X231049041Y28952103D01*
X231050000Y28963064D01*
X231050000Y29024746D01*
X231126227Y28937057D01*
X231132868Y28930474D01*
X231340930Y28752772D01*
X231348470Y28747243D01*
X231580512Y28602247D01*
X231588787Y28597894D01*
X231839713Y28488788D01*
X231848541Y28485705D01*
X232112836Y28414888D01*
X232122022Y28413144D01*
X232393883Y28382170D01*
X232403226Y28381803D01*
X232676679Y28391351D01*
X232685974Y28392369D01*
X232955011Y28442233D01*
X232964053Y28444614D01*
X233222765Y28533695D01*
X233231356Y28537386D01*
X233474060Y28663729D01*
X233482012Y28668650D01*
X233703373Y28829479D01*
X233710510Y28835520D01*
X233905669Y29027302D01*
X233911834Y29034333D01*
X234076503Y29252855D01*
X234081561Y29260719D01*
X234212121Y29501180D01*
X234215961Y29509705D01*
X234309544Y29766824D01*
X234312082Y29775823D01*
X234366798Y30044758D01*
X234368044Y30055690D01*
X234371890Y30202580D01*
X235646490Y30202580D01*
X235646938Y30193240D01*
X235680285Y29921660D01*
X235682109Y29912489D01*
X235755230Y29648822D01*
X235758390Y29640021D01*
X235869681Y29390057D01*
X235874107Y29381820D01*
X236021122Y29151052D01*
X236026716Y29143560D01*
X236206227Y28937057D01*
X236212868Y28930474D01*
X236420930Y28752772D01*
X236428470Y28747243D01*
X236660512Y28602247D01*
X236668787Y28597894D01*
X236919713Y28488788D01*
X236928541Y28485705D01*
X237192836Y28414888D01*
X237202022Y28413144D01*
X237473883Y28382170D01*
X237483226Y28381803D01*
X237756679Y28391351D01*
X237765974Y28392369D01*
X238035011Y28442233D01*
X238044053Y28444614D01*
X238302765Y28533695D01*
X238311356Y28537386D01*
X238554060Y28663729D01*
X238562012Y28668650D01*
X238783373Y28829479D01*
X238790510Y28835520D01*
X238985669Y29027302D01*
X238991834Y29034333D01*
X239156503Y29252855D01*
X239161561Y29260719D01*
X239292121Y29501180D01*
X239295961Y29509705D01*
X239389544Y29766824D01*
X239392082Y29775823D01*
X239446798Y30044758D01*
X239448044Y30055690D01*
X239448881Y30087691D01*
X240721664Y30087691D01*
X240721664Y29011241D01*
X240723820Y28994865D01*
X240798638Y28715641D01*
X240811381Y28691161D01*
X240942491Y28534909D01*
X240959380Y28520738D01*
X241133621Y28420140D01*
X241154338Y28412599D01*
X241347039Y28378621D01*
X241358000Y28377662D01*
X242431692Y28377662D01*
X242505501Y28451471D01*
X242761500Y28451471D01*
X242835309Y28377662D01*
X243911759Y28377662D01*
X243928135Y28379818D01*
X244207360Y28454636D01*
X244231840Y28467379D01*
X244388091Y28598489D01*
X244402262Y28615378D01*
X244502860Y28789619D01*
X244510401Y28810336D01*
X244544379Y29003037D01*
X244545338Y29013998D01*
X244545338Y30087690D01*
X244471529Y30161499D01*
X242835310Y30161500D01*
X242761501Y30087691D01*
X242761500Y28451471D01*
X242505501Y28451471D01*
X242505502Y30087690D01*
X242431693Y30161499D01*
X240795473Y30161500D01*
X240721664Y30087691D01*
X239448881Y30087691D01*
X239457684Y30423834D01*
X239457012Y30434816D01*
X239416447Y30706247D01*
X239414383Y30715367D01*
X239334384Y30977031D01*
X239330995Y30985746D01*
X239213199Y31232710D01*
X239208559Y31240828D01*
X239055553Y31467668D01*
X239049765Y31475011D01*
X238967306Y31565000D01*
X240721664Y31565000D01*
X240721664Y30491308D01*
X240795473Y30417499D01*
X242431692Y30417498D01*
X242505501Y30491307D01*
X242505501Y30491308D01*
X242761500Y30491308D01*
X242835309Y30417499D01*
X244471529Y30417498D01*
X244545338Y30491307D01*
X244545338Y31567757D01*
X244543182Y31584133D01*
X244468364Y31863358D01*
X244455621Y31887838D01*
X244324511Y32044089D01*
X244307622Y32058260D01*
X244133381Y32158858D01*
X244112664Y32166399D01*
X243919963Y32200377D01*
X243909002Y32201336D01*
X242835310Y32201336D01*
X242761501Y32127527D01*
X242761500Y30491308D01*
X242505501Y30491308D01*
X242505502Y32127527D01*
X242431693Y32201336D01*
X241355243Y32201336D01*
X241338867Y32199180D01*
X241059643Y32124362D01*
X241035163Y32111619D01*
X240878911Y31980509D01*
X240864740Y31963620D01*
X240764142Y31789379D01*
X240756601Y31768662D01*
X240722623Y31575961D01*
X240721664Y31565000D01*
X238967306Y31565000D01*
X238864911Y31676745D01*
X238858100Y31683152D01*
X238645458Y31855346D01*
X238637775Y31860675D01*
X238402016Y31999548D01*
X238393630Y32003684D01*
X238139934Y32106183D01*
X238131029Y32109033D01*
X237864971Y32172909D01*
X237855742Y32174412D01*
X237583164Y32198259D01*
X237573814Y32198381D01*
X237300705Y32181678D01*
X237291440Y32180417D01*
X237023800Y32123528D01*
X237014823Y32120911D01*
X236758532Y32025088D01*
X236750040Y32021174D01*
X236510727Y31888520D01*
X236502907Y31883394D01*
X236285831Y31716824D01*
X236278855Y31710598D01*
X236088783Y31513773D01*
X236082804Y31506584D01*
X235923913Y31283826D01*
X235919062Y31275832D01*
X235794842Y31032036D01*
X235791226Y31023413D01*
X235704405Y30763934D01*
X235702103Y30754871D01*
X235654589Y30485409D01*
X235653653Y30476105D01*
X235646490Y30202580D01*
X234371890Y30202580D01*
X234377684Y30423834D01*
X234377012Y30434816D01*
X234336447Y30706247D01*
X234334383Y30715367D01*
X234254384Y30977031D01*
X234250995Y30985746D01*
X234133199Y31232710D01*
X234128559Y31240828D01*
X233975553Y31467668D01*
X233969765Y31475011D01*
X233784911Y31676745D01*
X233778100Y31683152D01*
X233565458Y31855346D01*
X233557775Y31860675D01*
X233322016Y31999548D01*
X233313630Y32003684D01*
X233059934Y32106183D01*
X233051029Y32109033D01*
X232784971Y32172909D01*
X232775742Y32174412D01*
X232503164Y32198259D01*
X232493814Y32198381D01*
X232220705Y32181678D01*
X232211440Y32180417D01*
X231943800Y32123528D01*
X231934823Y32120911D01*
X231678532Y32025088D01*
X231670040Y32021174D01*
X231430727Y31888520D01*
X231422907Y31883394D01*
X231205831Y31716824D01*
X231198855Y31710598D01*
X231037911Y31543935D01*
X231012560Y31569286D01*
X231032541Y31682603D01*
X231033500Y31693564D01*
X231033500Y31933436D01*
X231032541Y31944397D01*
X230990887Y32180626D01*
X230988040Y32191253D01*
X230905998Y32416660D01*
X230901348Y32426632D01*
X230781412Y32634368D01*
X230775101Y32643381D01*
X230620913Y32827134D01*
X230613134Y32834913D01*
X230429381Y32989101D01*
X230420368Y32995412D01*
X230212632Y33115348D01*
X230202660Y33119998D01*
X229977253Y33202040D01*
X229966626Y33204887D01*
X229915711Y33213865D01*
X230306689Y33604843D01*
X230437119Y33495399D01*
X230446132Y33489088D01*
X230653868Y33369152D01*
X230663840Y33364502D01*
X230889247Y33282460D01*
X230899874Y33279613D01*
X231136103Y33237959D01*
X231147064Y33237000D01*
X231386936Y33237000D01*
X231397897Y33237959D01*
X231634126Y33279613D01*
X231644753Y33282460D01*
X231870160Y33364502D01*
X231880132Y33369152D01*
X232087868Y33489088D01*
X232096881Y33495399D01*
X232280634Y33649587D01*
X232288413Y33657366D01*
X232442601Y33841119D01*
X232448912Y33850132D01*
X232568848Y34057868D01*
X232573498Y34067840D01*
X232655540Y34293247D01*
X232658387Y34303874D01*
X232700041Y34540103D01*
X232701000Y34551064D01*
X232701000Y34790936D01*
X232700041Y34801897D01*
X232658387Y35038126D01*
X232655540Y35048753D01*
X232573498Y35274160D01*
X232568848Y35284132D01*
X232448912Y35491868D01*
X232442601Y35500881D01*
X232288413Y35684634D01*
X232280634Y35692413D01*
X232096881Y35846601D01*
X232087868Y35852912D01*
X231880132Y35972848D01*
X231870160Y35977498D01*
X231644753Y36059540D01*
X231634126Y36062387D01*
X231397897Y36104041D01*
X231386936Y36105000D01*
X231147064Y36105000D01*
X231136103Y36104041D01*
X231022787Y36084061D01*
X229804788Y37302058D01*
X229871060Y37379927D01*
X229924038Y37307542D01*
X229930809Y37299725D01*
X230111280Y37122996D01*
X230119237Y37116390D01*
X230326148Y36971508D01*
X230335077Y36966290D01*
X230562873Y36857149D01*
X230572535Y36853460D01*
X230815098Y36782988D01*
X230825232Y36780927D01*
X231076048Y36751019D01*
X231086382Y36750640D01*
X231338714Y36762098D01*
X231348972Y36763412D01*
X231596045Y36815930D01*
X231605950Y36818901D01*
X231841128Y36911067D01*
X231850415Y36915616D01*
X232067382Y37044954D01*
X232075801Y37050959D01*
X232268730Y37213997D01*
X232276055Y37221297D01*
X232369365Y37330936D01*
X235738500Y37330936D01*
X235738500Y37091064D01*
X235739459Y37080103D01*
X235781113Y36843874D01*
X235783960Y36833247D01*
X235866002Y36607840D01*
X235870652Y36597868D01*
X235990588Y36390132D01*
X235996899Y36381119D01*
X236151087Y36197366D01*
X236158866Y36189587D01*
X236342619Y36035399D01*
X236346001Y36033031D01*
X236346000Y35340968D01*
X236342619Y35338601D01*
X236158866Y35184413D01*
X236151087Y35176634D01*
X235996899Y34992881D01*
X235990588Y34983868D01*
X235870652Y34776132D01*
X235866002Y34766160D01*
X235783960Y34540753D01*
X235781113Y34530126D01*
X235739459Y34293897D01*
X235738500Y34282936D01*
X235738500Y34043064D01*
X235739459Y34032103D01*
X235781113Y33795874D01*
X235783960Y33785247D01*
X235866002Y33559840D01*
X235870652Y33549868D01*
X235990588Y33342132D01*
X235996899Y33333119D01*
X236151087Y33149366D01*
X236158866Y33141587D01*
X236342619Y32987399D01*
X236351632Y32981088D01*
X236559368Y32861152D01*
X236569340Y32856502D01*
X236794747Y32774460D01*
X236805374Y32771613D01*
X237041603Y32729959D01*
X237052564Y32729000D01*
X237292436Y32729000D01*
X237303397Y32729959D01*
X237539626Y32771613D01*
X237550253Y32774460D01*
X237775660Y32856502D01*
X237785632Y32861152D01*
X237993368Y32981088D01*
X238002381Y32987399D01*
X238186134Y33141587D01*
X238193913Y33149366D01*
X238348101Y33333119D01*
X238354412Y33342132D01*
X238474348Y33549868D01*
X238478998Y33559840D01*
X238561040Y33785247D01*
X238563887Y33795874D01*
X238605541Y34032103D01*
X238606500Y34043064D01*
X238606500Y34282936D01*
X238605541Y34293897D01*
X238563887Y34530126D01*
X238561040Y34540753D01*
X238478998Y34766160D01*
X238474348Y34776132D01*
X238354412Y34983868D01*
X238348101Y34992881D01*
X238193913Y35176634D01*
X238186134Y35184413D01*
X238002381Y35338601D01*
X237999000Y35340968D01*
X237999000Y36033032D01*
X238002381Y36035399D01*
X238186134Y36189587D01*
X238193913Y36197366D01*
X238348101Y36381119D01*
X238354412Y36390132D01*
X238474348Y36597868D01*
X238478998Y36607840D01*
X238561040Y36833247D01*
X238563887Y36843874D01*
X238605541Y37080103D01*
X238606500Y37091064D01*
X238606500Y37330936D01*
X238605541Y37341897D01*
X238563887Y37578126D01*
X238561040Y37588753D01*
X238478998Y37814160D01*
X238474348Y37824132D01*
X238354412Y38031868D01*
X238348101Y38040881D01*
X238193913Y38224634D01*
X238186134Y38232413D01*
X238002381Y38386601D01*
X237993368Y38392912D01*
X237785632Y38512848D01*
X237775660Y38517498D01*
X237550253Y38599540D01*
X237539626Y38602387D01*
X237303397Y38644041D01*
X237292436Y38645000D01*
X237052564Y38645000D01*
X237041603Y38644041D01*
X236805374Y38602387D01*
X236794747Y38599540D01*
X236569340Y38517498D01*
X236559368Y38512848D01*
X236351632Y38392912D01*
X236342619Y38386601D01*
X236158866Y38232413D01*
X236151087Y38224634D01*
X235996899Y38040881D01*
X235990588Y38031868D01*
X235870652Y37824132D01*
X235866002Y37814160D01*
X235783960Y37588753D01*
X235781113Y37578126D01*
X235739459Y37341897D01*
X235738500Y37330936D01*
X232369365Y37330936D01*
X232439766Y37413656D01*
X232445801Y37422054D01*
X232575895Y37638569D01*
X232580477Y37647839D01*
X232673463Y37882694D01*
X232676470Y37892589D01*
X232730011Y38140231D01*
X232731418Y38152031D01*
X232739385Y38477987D01*
X232738556Y38489842D01*
X232697175Y38739803D01*
X232694655Y38749833D01*
X232613253Y38988950D01*
X232609130Y38998434D01*
X232489767Y39221045D01*
X232484149Y39229729D01*
X232330031Y39429854D01*
X232323072Y39437503D01*
X232138337Y39609771D01*
X232130221Y39616181D01*
X231919832Y39755964D01*
X231910778Y39760962D01*
X231680383Y39864505D01*
X231670634Y39867957D01*
X231426423Y39932481D01*
X231416242Y39934294D01*
X231164770Y39958065D01*
X231154429Y39958192D01*
X231001301Y39947484D01*
X231001301Y41204932D01*
X231076048Y41196019D01*
X231086382Y41195640D01*
X231338714Y41207098D01*
X231348972Y41208412D01*
X231596045Y41260930D01*
X231605950Y41263901D01*
X231841128Y41356067D01*
X231850415Y41360616D01*
X232067382Y41489954D01*
X232075801Y41495959D01*
X232268730Y41658997D01*
X232276055Y41666297D01*
X232411060Y41824927D01*
X232464038Y41752542D01*
X232470809Y41744725D01*
X232651280Y41567996D01*
X232659237Y41561390D01*
X232866148Y41416508D01*
X232875077Y41411290D01*
X233102873Y41302149D01*
X233112535Y41298460D01*
X233355098Y41227988D01*
X233365232Y41225927D01*
X233616048Y41196019D01*
X233626382Y41195640D01*
X233878714Y41207098D01*
X233888972Y41208412D01*
X234136045Y41260930D01*
X234145950Y41263901D01*
X234381128Y41356067D01*
X234390415Y41360616D01*
X234607382Y41489954D01*
X234615801Y41495959D01*
X234808730Y41658997D01*
X234816055Y41666297D01*
X234979766Y41858656D01*
X234985801Y41867054D01*
X235115895Y42083569D01*
X235120477Y42092839D01*
X235213463Y42327694D01*
X235216470Y42337589D01*
X235270011Y42585231D01*
X235271418Y42597031D01*
X235279385Y42922987D01*
X235278556Y42934842D01*
X235237175Y43184803D01*
X235234655Y43194833D01*
X235153253Y43433950D01*
X235149130Y43443434D01*
X235029767Y43666045D01*
X235024149Y43674729D01*
X234870031Y43874854D01*
X234863072Y43882503D01*
X234678337Y44054771D01*
X234670221Y44061181D01*
X234459832Y44200964D01*
X234450778Y44205962D01*
X234220383Y44309505D01*
X234210634Y44312957D01*
X233966423Y44377481D01*
X233956242Y44379294D01*
X233704770Y44403065D01*
X233694429Y44403192D01*
X233442451Y44385571D01*
X233432229Y44384007D01*
X233186513Y44325469D01*
X233176683Y44322257D01*
X232943827Y44224373D01*
X232934654Y44219598D01*
X232720912Y44084997D01*
X232712642Y44078788D01*
X232523754Y43911086D01*
X232516609Y43903609D01*
X232409627Y43771497D01*
X232330031Y43874854D01*
X232323072Y43882503D01*
X232138337Y44054771D01*
X232130221Y44061181D01*
X231919832Y44200964D01*
X231910778Y44205962D01*
X231680383Y44309505D01*
X231670634Y44312957D01*
X231638304Y44321499D01*
X232062908Y44321499D01*
X232079689Y44317702D01*
X232097585Y44316262D01*
X232181994Y44321499D01*
X232210277Y44321499D01*
X232219218Y44322136D01*
X232239824Y44325086D01*
X232315773Y44329799D01*
X232333353Y44333440D01*
X232356500Y44341796D01*
X232380875Y44345287D01*
X232398108Y44350326D01*
X232467395Y44381830D01*
X232539154Y44407735D01*
X232555322Y44416395D01*
X232574291Y44430432D01*
X232597111Y44440807D01*
X232612236Y44450480D01*
X232678216Y44507332D01*
X232695453Y44520087D01*
X232702536Y44526190D01*
X232717693Y44541348D01*
X232777846Y44593179D01*
X232789648Y44606708D01*
X232801798Y44625453D01*
X234817190Y46640844D01*
X234786959Y46469397D01*
X234786000Y46458436D01*
X234786000Y46218564D01*
X234786959Y46207603D01*
X234828613Y45971374D01*
X234831460Y45960747D01*
X234913502Y45735340D01*
X234918152Y45725368D01*
X235038088Y45517632D01*
X235044399Y45508619D01*
X235198587Y45324866D01*
X235206366Y45317087D01*
X235390119Y45162899D01*
X235399132Y45156588D01*
X235606868Y45036652D01*
X235616840Y45032002D01*
X235842247Y44949960D01*
X235852874Y44947113D01*
X236089103Y44905459D01*
X236100064Y44904500D01*
X236339936Y44904500D01*
X236350897Y44905459D01*
X236587126Y44947113D01*
X236597753Y44949960D01*
X236823160Y45032002D01*
X236833132Y45036652D01*
X237040868Y45156588D01*
X237049881Y45162899D01*
X237175654Y45268436D01*
X244795500Y45268436D01*
X244795500Y45028564D01*
X244796459Y45017603D01*
X244838113Y44781374D01*
X244840960Y44770747D01*
X244923002Y44545340D01*
X244927652Y44535368D01*
X245062447Y44301897D01*
X245185656Y44285677D01*
X245996290Y45096309D01*
X245996290Y45200691D01*
X245185656Y46011323D01*
X245062447Y45995103D01*
X244927652Y45761632D01*
X244923002Y45751660D01*
X244840960Y45526253D01*
X244838113Y45515626D01*
X244796459Y45279397D01*
X244795500Y45268436D01*
X237175654Y45268436D01*
X237233634Y45317087D01*
X237241413Y45324866D01*
X237395601Y45508619D01*
X237401912Y45517632D01*
X237521848Y45725368D01*
X237526498Y45735340D01*
X237608540Y45960747D01*
X237611387Y45971374D01*
X237650350Y46192344D01*
X245366677Y46192344D01*
X246177309Y45381710D01*
X246281691Y45381710D01*
X247092323Y46192344D01*
X247076103Y46315553D01*
X246842632Y46450348D01*
X246832660Y46454998D01*
X246607253Y46537040D01*
X246596626Y46539887D01*
X246360397Y46581541D01*
X246349436Y46582500D01*
X246109564Y46582500D01*
X246098603Y46581541D01*
X245862374Y46539887D01*
X245851747Y46537040D01*
X245626340Y46454998D01*
X245616368Y46450348D01*
X245382897Y46315553D01*
X245366677Y46192344D01*
X237650350Y46192344D01*
X237653041Y46207603D01*
X237654000Y46218564D01*
X237654000Y46458436D01*
X237653041Y46469397D01*
X237611387Y46705626D01*
X237608540Y46716253D01*
X237526498Y46941660D01*
X237521848Y46951632D01*
X237401912Y47159368D01*
X237395601Y47168381D01*
X237241413Y47352134D01*
X237233634Y47359913D01*
X237049881Y47514101D01*
X237040868Y47520412D01*
X236833132Y47640348D01*
X236823160Y47644998D01*
X236597753Y47727040D01*
X236587126Y47729887D01*
X236366982Y47768705D01*
X236570626Y47804613D01*
X236581253Y47807460D01*
X236806660Y47889502D01*
X236816632Y47894152D01*
X237024368Y48014088D01*
X237033381Y48020399D01*
X237217134Y48174587D01*
X237224913Y48182366D01*
X237379101Y48366119D01*
X237385412Y48375132D01*
X237505348Y48582868D01*
X237509998Y48592840D01*
X237592040Y48818247D01*
X237594887Y48828874D01*
X237636541Y49065103D01*
X237637500Y49076064D01*
X237637500Y49315936D01*
X237636541Y49326897D01*
X237594887Y49563126D01*
X237592040Y49573753D01*
X237509998Y49799160D01*
X237505348Y49809132D01*
X237385412Y50016868D01*
X237379101Y50025881D01*
X237224913Y50209634D01*
X237217134Y50217413D01*
X237033381Y50371601D01*
X237024368Y50377912D01*
X236816632Y50497848D01*
X236806660Y50502498D01*
X236581253Y50584540D01*
X236570626Y50587387D01*
X236334397Y50629041D01*
X236323436Y50630000D01*
X236083564Y50630000D01*
X236072603Y50629041D01*
X235836374Y50587387D01*
X235825747Y50584540D01*
X235600340Y50502498D01*
X235590368Y50497848D01*
X235382632Y50377912D01*
X235373619Y50371601D01*
X235189866Y50217413D01*
X235182087Y50209634D01*
X235027899Y50025881D01*
X235021588Y50016868D01*
X234901652Y49809132D01*
X234897002Y49799160D01*
X234814960Y49573753D01*
X234812113Y49563126D01*
X234770459Y49326897D01*
X234769500Y49315936D01*
X234769500Y49076064D01*
X234770459Y49065103D01*
X234790440Y48951786D01*
X232594228Y46755573D01*
X232526498Y46941660D01*
X232521848Y46951632D01*
X232401912Y47159368D01*
X232395601Y47168381D01*
X232241413Y47352134D01*
X232233634Y47359913D01*
X232049881Y47514101D01*
X232040868Y47520412D01*
X232030000Y47526687D01*
X232030000Y48018032D01*
X232033381Y48020399D01*
X232217134Y48174587D01*
X232224913Y48182366D01*
X232379101Y48366119D01*
X232385412Y48375132D01*
X232505348Y48582868D01*
X232509998Y48592840D01*
X232592040Y48818247D01*
X232594887Y48828874D01*
X232636541Y49065103D01*
X232637500Y49076064D01*
X232637500Y49315936D01*
X232636541Y49326897D01*
X232616560Y49440214D01*
X234031508Y50855162D01*
X234110626Y50869113D01*
X234121253Y50871960D01*
X234346660Y50954002D01*
X234356632Y50958652D01*
X234564368Y51078588D01*
X234573381Y51084899D01*
X234757134Y51239087D01*
X234764913Y51246866D01*
X234919101Y51430619D01*
X234925412Y51439632D01*
X235045348Y51647368D01*
X235049998Y51657340D01*
X235132040Y51882747D01*
X235134887Y51893374D01*
X235176541Y52129603D01*
X235177500Y52140564D01*
X235177500Y52380436D01*
X235176541Y52391397D01*
X235134887Y52627626D01*
X235132040Y52638253D01*
X235049998Y52863660D01*
X235045348Y52873632D01*
X234925412Y53081368D01*
X234919101Y53090381D01*
X234764913Y53274134D01*
X234757134Y53281913D01*
X234573381Y53436101D01*
X234564368Y53442412D01*
X234520048Y53468000D01*
X240586952Y53468000D01*
X240542632Y53442412D01*
G37*
D22*
X240542632Y53442412D02*
X240533619Y53436101D01*
X240349866Y53281913D01*
X240342087Y53274134D01*
X240187899Y53090381D01*
X240181588Y53081368D01*
X240061652Y52873632D01*
X240057002Y52863660D01*
X239974960Y52638253D01*
X239972113Y52627626D01*
X239930459Y52391397D01*
X239929500Y52380436D01*
X239929500Y52140564D01*
X239930459Y52129603D01*
X239972113Y51893374D01*
X239974960Y51882747D01*
X240057002Y51657340D01*
X240061652Y51647368D01*
X240181588Y51439632D01*
X240187899Y51430619D01*
X240342087Y51246866D01*
X240349866Y51239087D01*
X240533619Y51084899D01*
X240542632Y51078588D01*
X240750368Y50958652D01*
X240760340Y50954002D01*
X240985747Y50871960D01*
X240996374Y50869113D01*
X241232603Y50827459D01*
X241243564Y50826500D01*
X241471302Y50826500D01*
X241451732Y50766269D01*
X241449421Y50756641D01*
X241408277Y50496873D01*
X241407500Y50487003D01*
X241407500Y50223997D01*
X241408277Y50214127D01*
X241449421Y49954359D01*
X241451732Y49944731D01*
X241533005Y49694598D01*
X241536794Y49685450D01*
X241656196Y49451110D01*
X241661369Y49442668D01*
X241815960Y49229892D01*
X241822390Y49222363D01*
X242008363Y49036390D01*
X242015892Y49029960D01*
X242228668Y48875369D01*
X242237110Y48870196D01*
X242471450Y48750794D01*
X242480598Y48747005D01*
X242730731Y48665732D01*
X242740359Y48663421D01*
X243000127Y48622277D01*
X243009997Y48621500D01*
X243273003Y48621500D01*
X243282873Y48622277D01*
X243542641Y48663421D01*
X243552269Y48665732D01*
X243802402Y48747005D01*
X243811550Y48750794D01*
X244045890Y48870196D01*
X244054332Y48875369D01*
X244267108Y49029960D01*
X244274637Y49036390D01*
X244460610Y49222363D01*
X244467040Y49229892D01*
X244621631Y49442668D01*
X244626804Y49451110D01*
X244746206Y49685450D01*
X244749995Y49694598D01*
X244831268Y49944731D01*
X244833579Y49954359D01*
X244874723Y50214127D01*
X244875500Y50223997D01*
X244875500Y50487003D01*
X244874723Y50496873D01*
X244833579Y50756641D01*
X244831268Y50766268D01*
X244804254Y50849408D01*
X244988183Y51033337D01*
X244989680Y51030462D01*
X245120790Y50874210D01*
X245137679Y50860039D01*
X245311920Y50759441D01*
X245332637Y50751900D01*
X245525338Y50717922D01*
X245536299Y50716963D01*
X247480458Y50716963D01*
X247496834Y50719119D01*
X247776059Y50793937D01*
X247800539Y50806680D01*
X247956790Y50937790D01*
X247970961Y50954679D01*
X248041025Y51076034D01*
X248233148Y50941508D01*
X248242077Y50936290D01*
X248469873Y50827149D01*
X248479535Y50823460D01*
X248722098Y50752988D01*
X248732232Y50750927D01*
X248834309Y50738754D01*
X248919000Y50813946D01*
X248919000Y52452000D01*
X249175000Y52452000D01*
X249175000Y50811699D01*
X249268412Y50736056D01*
X249503045Y50785930D01*
X249512950Y50788901D01*
X249748128Y50881067D01*
X249757415Y50885616D01*
X249974382Y51014954D01*
X249982801Y51020959D01*
X250064000Y51089578D01*
X250064000Y46297837D01*
X249950510Y46433090D01*
X249933621Y46447261D01*
X249759380Y46547859D01*
X249738663Y46555400D01*
X249545962Y46589378D01*
X249535001Y46590337D01*
X247921242Y46590337D01*
X247904866Y46588181D01*
X247625642Y46513363D01*
X247601162Y46500620D01*
X247444910Y46369510D01*
X247430739Y46352621D01*
X247330141Y46178380D01*
X247322600Y46157663D01*
X247296265Y46008306D01*
X247273344Y46011323D01*
X246140405Y44878385D01*
X245366677Y44104657D01*
X245382897Y43981447D01*
X245616368Y43846652D01*
X245626340Y43842002D01*
X245851747Y43759960D01*
X245862374Y43757113D01*
X246098603Y43715459D01*
X246109564Y43714500D01*
X246349436Y43714500D01*
X246360397Y43715459D01*
X246502854Y43740578D01*
X246500118Y43703751D01*
X246501339Y43685840D01*
X246506001Y43664001D01*
X246506000Y41373468D01*
X246502619Y41371101D01*
X246318866Y41216913D01*
X246311087Y41209134D01*
X246156899Y41025381D01*
X246154532Y41022000D01*
X244883337Y41022000D01*
X244883337Y41303758D01*
X244881181Y41320134D01*
X244806363Y41599359D01*
X244793620Y41623839D01*
X244662510Y41780090D01*
X244645621Y41794261D01*
X244471380Y41894859D01*
X244450663Y41902400D01*
X244257962Y41936378D01*
X244247001Y41937337D01*
X242033242Y41937337D01*
X242016866Y41935181D01*
X241737642Y41860363D01*
X241713162Y41847620D01*
X241556910Y41716510D01*
X241542739Y41699621D01*
X241442141Y41525380D01*
X241434600Y41504663D01*
X241400622Y41311962D01*
X241399663Y41301001D01*
X241399663Y39087242D01*
X241401819Y39070866D01*
X241476637Y38791642D01*
X241489380Y38767162D01*
X241620490Y38610910D01*
X241637379Y38596739D01*
X241811620Y38496141D01*
X241832337Y38488600D01*
X242025038Y38454622D01*
X242035999Y38453663D01*
X242315001Y38453663D01*
X242315000Y35906590D01*
X242311203Y35889809D01*
X242309763Y35871914D01*
X242315000Y35787505D01*
X242315000Y35759223D01*
X242315637Y35750281D01*
X242318588Y35729675D01*
X242323300Y35653726D01*
X242326940Y35636147D01*
X242335298Y35612994D01*
X242338788Y35588624D01*
X242343827Y35571392D01*
X242375331Y35502103D01*
X242401236Y35430344D01*
X242409896Y35414177D01*
X242423935Y35395205D01*
X242434308Y35372389D01*
X242443981Y35357264D01*
X242500830Y35291286D01*
X242513588Y35274046D01*
X242519691Y35266963D01*
X242534852Y35251803D01*
X242586680Y35191653D01*
X242600210Y35179851D01*
X242618950Y35167704D01*
X243379439Y34407214D01*
X243359459Y34293897D01*
X243358500Y34282936D01*
X243358500Y34043064D01*
X243359459Y34032103D01*
X243401113Y33795874D01*
X243403960Y33785247D01*
X243486002Y33559840D01*
X243490652Y33549868D01*
X243610588Y33342132D01*
X243616899Y33333119D01*
X243771087Y33149366D01*
X243778866Y33141587D01*
X243962619Y32987399D01*
X243971632Y32981088D01*
X244179368Y32861152D01*
X244189340Y32856502D01*
X244414747Y32774460D01*
X244425374Y32771613D01*
X244661603Y32729959D01*
X244672564Y32729000D01*
X244912436Y32729000D01*
X244923397Y32729959D01*
X245159626Y32771613D01*
X245170253Y32774460D01*
X245395660Y32856502D01*
X245405632Y32861152D01*
X245613368Y32981088D01*
X245622381Y32987399D01*
X245806134Y33141587D01*
X245813913Y33149366D01*
X245968101Y33333119D01*
X245974412Y33342132D01*
X246094348Y33549868D01*
X246098998Y33559840D01*
X246181040Y33785247D01*
X246183887Y33795874D01*
X246225541Y34032103D01*
X246226500Y34043064D01*
X246226500Y34282936D01*
X246225541Y34293897D01*
X246183887Y34530126D01*
X246181040Y34540753D01*
X246098998Y34766160D01*
X246094348Y34776132D01*
X245974412Y34983868D01*
X245968101Y34992881D01*
X245813913Y35176634D01*
X245806134Y35184413D01*
X245622381Y35338601D01*
X245613368Y35344912D01*
X245405632Y35464848D01*
X245395660Y35469498D01*
X245170253Y35551540D01*
X245159626Y35554387D01*
X244923397Y35596041D01*
X244912436Y35597000D01*
X244672564Y35597000D01*
X244661603Y35596041D01*
X244548286Y35576061D01*
X244237301Y35887046D01*
X244414747Y35822460D01*
X244425374Y35819613D01*
X244661603Y35777959D01*
X244672564Y35777000D01*
X244912436Y35777000D01*
X244923397Y35777959D01*
X245159626Y35819613D01*
X245170253Y35822460D01*
X245395660Y35904502D01*
X245405632Y35909152D01*
X245613368Y36029088D01*
X245622381Y36035399D01*
X245806134Y36189587D01*
X245813913Y36197366D01*
X245968101Y36381119D01*
X245974412Y36390132D01*
X246094348Y36597868D01*
X246098998Y36607840D01*
X246181040Y36833247D01*
X246183887Y36843874D01*
X246225541Y37080103D01*
X246226500Y37091064D01*
X246226500Y37330936D01*
X246225541Y37341897D01*
X246183887Y37578126D01*
X246181040Y37588753D01*
X246098998Y37814160D01*
X246094348Y37824132D01*
X245974412Y38031868D01*
X245968101Y38040881D01*
X245813913Y38224634D01*
X245806134Y38232413D01*
X245622381Y38386601D01*
X245613368Y38392912D01*
X245405632Y38512848D01*
X245395660Y38517498D01*
X245170253Y38599540D01*
X245159626Y38602387D01*
X244923397Y38644041D01*
X244912436Y38645000D01*
X244690945Y38645000D01*
X244726090Y38674490D01*
X244740261Y38691379D01*
X244840859Y38865620D01*
X244848400Y38886337D01*
X244882378Y39079038D01*
X244883337Y39089999D01*
X244883337Y39369000D01*
X246154532Y39369000D01*
X246156899Y39365619D01*
X246311087Y39181866D01*
X246318866Y39174087D01*
X246502619Y39019899D01*
X246511632Y39013588D01*
X246719368Y38893652D01*
X246729340Y38889002D01*
X246954747Y38806960D01*
X246965374Y38804113D01*
X247201603Y38762459D01*
X247212564Y38761500D01*
X247452436Y38761500D01*
X247463397Y38762459D01*
X247699626Y38804113D01*
X247710253Y38806960D01*
X247935660Y38889002D01*
X247945632Y38893652D01*
X248153368Y39013588D01*
X248162381Y39019899D01*
X248346134Y39174087D01*
X248353913Y39181866D01*
X248508101Y39365619D01*
X248514412Y39374632D01*
X248634348Y39582368D01*
X248638998Y39592340D01*
X248721040Y39817747D01*
X248723887Y39828374D01*
X248765541Y40064603D01*
X248766500Y40075564D01*
X248766500Y40315436D01*
X248765541Y40326397D01*
X248723887Y40562626D01*
X248721040Y40573253D01*
X248638998Y40798660D01*
X248634348Y40808632D01*
X248514412Y41016368D01*
X248508101Y41025381D01*
X248353913Y41209134D01*
X248346134Y41216913D01*
X248162381Y41371101D01*
X248159000Y41373468D01*
X248159000Y43409155D01*
X248456508Y43706663D01*
X249537758Y43706663D01*
X249554134Y43708819D01*
X249833359Y43783637D01*
X249857839Y43796380D01*
X250014090Y43927490D01*
X250028261Y43944379D01*
X250064000Y44006281D01*
X250064001Y25018000D01*
X242534526Y25018000D01*
X242599766Y25094656D01*
X242605801Y25103054D01*
X242735895Y25319569D01*
X242740477Y25328839D01*
X242833463Y25563694D01*
X242836470Y25573589D01*
X242890011Y25821231D01*
X242891418Y25833031D01*
X242899385Y26158987D01*
X242898556Y26170842D01*
X242857175Y26420803D01*
X242854655Y26430833D01*
X242773576Y26669000D01*
X244393663Y26669000D01*
X244393663Y26587242D01*
X244395819Y26570866D01*
X244470637Y26291642D01*
X244483380Y26267162D01*
X244614490Y26110910D01*
X244631379Y26096739D01*
X244805620Y25996141D01*
X244826337Y25988600D01*
X245019038Y25954622D01*
X245029999Y25953663D01*
X246843758Y25953663D01*
X246860134Y25955819D01*
X247139359Y26030637D01*
X247163839Y26043380D01*
X247320090Y26174490D01*
X247334261Y26191379D01*
X247433721Y26363650D01*
X247440687Y26356206D01*
X247448612Y26349058D01*
X247647441Y26198139D01*
X247656457Y26192429D01*
X247877871Y26077168D01*
X247887720Y26073058D01*
X248125389Y25996751D01*
X248135790Y25994360D01*
X248382917Y25959188D01*
X248393572Y25958583D01*
X248643093Y25965552D01*
X248653698Y25966751D01*
X248898477Y26015663D01*
X248908728Y26018632D01*
X249141767Y26108087D01*
X249151371Y26112740D01*
X249366006Y26240181D01*
X249374688Y26246386D01*
X249564783Y26408169D01*
X249572296Y26415748D01*
X249732414Y26607246D01*
X249738542Y26615983D01*
X249864106Y26831721D01*
X249868675Y26841366D01*
X249956093Y27075177D01*
X249958971Y27085454D01*
X250005802Y27330947D01*
X250006917Y27342170D01*
X250009578Y27619402D01*
X250008679Y27630644D01*
X249966570Y27876992D01*
X249963889Y27887322D01*
X249880976Y28122768D01*
X249876592Y28132499D01*
X249755194Y28350608D01*
X249749234Y28359461D01*
X249592822Y28553998D01*
X249585456Y28561720D01*
X249398503Y28727122D01*
X249389940Y28733493D01*
X249177791Y28865030D01*
X249168278Y28869867D01*
X248937000Y28963779D01*
X248926808Y28966944D01*
X248683013Y29020546D01*
X248672434Y29021948D01*
X248423092Y29033706D01*
X248412428Y29033306D01*
X248164670Y29002886D01*
X248159000Y29001696D01*
X248159000Y31397532D01*
X248162381Y31399899D01*
X248346134Y31554087D01*
X248353913Y31561866D01*
X248508101Y31745619D01*
X248514412Y31754632D01*
X248634348Y31962368D01*
X248638998Y31972340D01*
X248721040Y32197747D01*
X248723887Y32208374D01*
X248765541Y32444603D01*
X248766500Y32455564D01*
X248766500Y32695436D01*
X248765541Y32706397D01*
X248723887Y32942626D01*
X248721040Y32953253D01*
X248638998Y33178660D01*
X248634348Y33188632D01*
X248514412Y33396368D01*
X248508101Y33405381D01*
X248353913Y33589134D01*
X248346134Y33596913D01*
X248162381Y33751101D01*
X248153368Y33757412D01*
X247945632Y33877348D01*
X247935660Y33881998D01*
X247710253Y33964040D01*
X247699626Y33966887D01*
X247463397Y34008541D01*
X247452436Y34009500D01*
X247212564Y34009500D01*
X247201603Y34008541D01*
X246965374Y33966887D01*
X246954747Y33964040D01*
X246729340Y33881998D01*
X246719368Y33877348D01*
X246511632Y33757412D01*
X246502619Y33751101D01*
X246318866Y33596913D01*
X246311087Y33589134D01*
X246156899Y33405381D01*
X246150588Y33396368D01*
X246030652Y33188632D01*
X246026002Y33178660D01*
X245943960Y32953253D01*
X245941113Y32942626D01*
X245899459Y32706397D01*
X245898500Y32695436D01*
X245898500Y32455564D01*
X245899459Y32444603D01*
X245941113Y32208374D01*
X245943960Y32197747D01*
X246026002Y31972340D01*
X246030652Y31962368D01*
X246150588Y31754632D01*
X246156899Y31745619D01*
X246311087Y31561866D01*
X246318866Y31554087D01*
X246502619Y31399899D01*
X246506000Y31397532D01*
X246506001Y29037337D01*
X245027242Y29037337D01*
X245010866Y29035181D01*
X244731642Y28960363D01*
X244707162Y28947620D01*
X244550910Y28816510D01*
X244536739Y28799621D01*
X244436141Y28625380D01*
X244428600Y28604663D01*
X244394622Y28411962D01*
X244393663Y28401001D01*
X244393663Y28322000D01*
X240313090Y28322000D01*
X240296309Y28325797D01*
X240278414Y28327237D01*
X240194005Y28322000D01*
X240165722Y28322000D01*
X240156780Y28321363D01*
X240136174Y28318412D01*
X240060225Y28313700D01*
X240042646Y28310060D01*
X240019493Y28301702D01*
X239995123Y28298212D01*
X239977891Y28293173D01*
X239908602Y28261669D01*
X239836843Y28235764D01*
X239820676Y28227104D01*
X239801704Y28213065D01*
X239778888Y28202692D01*
X239763763Y28193019D01*
X239697791Y28136174D01*
X239680546Y28123413D01*
X239673462Y28117309D01*
X239658298Y28102144D01*
X239598153Y28050320D01*
X239586351Y28036791D01*
X239574203Y28018049D01*
X239143885Y27587731D01*
X239046423Y27613481D01*
X239036242Y27615294D01*
X238784770Y27639065D01*
X238774429Y27639192D01*
X238522451Y27621571D01*
X238512229Y27620007D01*
X238266513Y27561469D01*
X238256683Y27558257D01*
X238023827Y27460373D01*
X238014654Y27455598D01*
X237800912Y27320997D01*
X237792642Y27314788D01*
X237603754Y27147086D01*
X237596609Y27139609D01*
X237489627Y27007497D01*
X237410031Y27110854D01*
X237403072Y27118503D01*
X237218337Y27290771D01*
X237210221Y27297181D01*
X236999832Y27436964D01*
X236990778Y27441962D01*
X236760383Y27545505D01*
X236750634Y27548957D01*
X236506423Y27613481D01*
X236496242Y27615294D01*
X236430402Y27621518D01*
X236348000Y27546539D01*
X236348000Y25907000D01*
X236092000Y25907000D01*
X236092000Y27550043D01*
X235996184Y27625714D01*
X235726513Y27561469D01*
X235716683Y27558257D01*
X235483827Y27460373D01*
X235474654Y27455598D01*
X235260912Y27320997D01*
X235252642Y27314788D01*
X235215923Y27282188D01*
X235210063Y27304059D01*
X235197320Y27328539D01*
X235066210Y27484790D01*
X235049321Y27498961D01*
X234875080Y27599559D01*
X234854363Y27607100D01*
X234661662Y27641078D01*
X234650701Y27642037D01*
X232706542Y27642037D01*
X232690166Y27639881D01*
X232410942Y27565063D01*
X232386462Y27552320D01*
X232230210Y27421210D01*
X232216039Y27404321D01*
X232159369Y27306166D01*
X232097452Y27358121D01*
X232098737Y27374086D01*
X232093500Y27458495D01*
X232093500Y27486778D01*
X232092863Y27495720D01*
X232089912Y27516326D01*
X232085200Y27592275D01*
X232081560Y27609854D01*
X232073202Y27633007D01*
X232069712Y27657377D01*
X232064673Y27674609D01*
X232033169Y27743898D01*
X232007264Y27815656D01*
X231998605Y27831823D01*
X231984566Y27850795D01*
X231974191Y27873613D01*
X231964519Y27888738D01*
X231907676Y27954707D01*
X231894914Y27971954D01*
X231888810Y27979037D01*
X231873639Y27994208D01*
X231821820Y28054347D01*
X231808291Y28066149D01*
X231789556Y28078292D01*
X231029061Y28838786D01*
X231049041Y28952103D01*
X231050000Y28963064D01*
X231050000Y29024746D01*
X231126227Y28937057D01*
X231132868Y28930474D01*
X231340930Y28752772D01*
X231348470Y28747243D01*
X231580512Y28602247D01*
X231588787Y28597894D01*
X231839713Y28488788D01*
X231848541Y28485705D01*
X232112836Y28414888D01*
X232122022Y28413144D01*
X232393883Y28382170D01*
X232403226Y28381803D01*
X232676679Y28391351D01*
X232685974Y28392369D01*
X232955011Y28442233D01*
X232964053Y28444614D01*
X233222765Y28533695D01*
X233231356Y28537386D01*
X233474060Y28663729D01*
X233482012Y28668650D01*
X233703373Y28829479D01*
X233710510Y28835520D01*
X233905669Y29027302D01*
X233911834Y29034333D01*
X234076503Y29252855D01*
X234081561Y29260719D01*
X234212121Y29501180D01*
X234215961Y29509705D01*
X234309544Y29766824D01*
X234312082Y29775823D01*
X234366798Y30044758D01*
X234368044Y30055690D01*
X234371890Y30202580D01*
X235646490Y30202580D01*
X235646938Y30193240D01*
X235680285Y29921660D01*
X235682109Y29912489D01*
X235755230Y29648822D01*
X235758390Y29640021D01*
X235869681Y29390057D01*
X235874107Y29381820D01*
X236021122Y29151052D01*
X236026716Y29143560D01*
X236206227Y28937057D01*
X236212868Y28930474D01*
X236420930Y28752772D01*
X236428470Y28747243D01*
X236660512Y28602247D01*
X236668787Y28597894D01*
X236919713Y28488788D01*
X236928541Y28485705D01*
X237192836Y28414888D01*
X237202022Y28413144D01*
X237473883Y28382170D01*
X237483226Y28381803D01*
X237756679Y28391351D01*
X237765974Y28392369D01*
X238035011Y28442233D01*
X238044053Y28444614D01*
X238302765Y28533695D01*
X238311356Y28537386D01*
X238554060Y28663729D01*
X238562012Y28668650D01*
X238783373Y28829479D01*
X238790510Y28835520D01*
X238985669Y29027302D01*
X238991834Y29034333D01*
X239156503Y29252855D01*
X239161561Y29260719D01*
X239292121Y29501180D01*
X239295961Y29509705D01*
X239389544Y29766824D01*
X239392082Y29775823D01*
X239446798Y30044758D01*
X239448044Y30055690D01*
X239448881Y30087691D01*
X240721664Y30087691D01*
X240721664Y29011241D01*
X240723820Y28994865D01*
X240798638Y28715641D01*
X240811381Y28691161D01*
X240942491Y28534909D01*
X240959380Y28520738D01*
X241133621Y28420140D01*
X241154338Y28412599D01*
X241347039Y28378621D01*
X241358000Y28377662D01*
X242431692Y28377662D01*
X242505501Y28451471D01*
X242761500Y28451471D01*
X242835309Y28377662D01*
X243911759Y28377662D01*
X243928135Y28379818D01*
X244207360Y28454636D01*
X244231840Y28467379D01*
X244388091Y28598489D01*
X244402262Y28615378D01*
X244502860Y28789619D01*
X244510401Y28810336D01*
X244544379Y29003037D01*
X244545338Y29013998D01*
X244545338Y30087690D01*
X244471529Y30161499D01*
X242835310Y30161500D01*
X242761501Y30087691D01*
X242761500Y28451471D01*
X242505501Y28451471D01*
X242505502Y30087690D01*
X242431693Y30161499D01*
X240795473Y30161500D01*
X240721664Y30087691D01*
X239448881Y30087691D01*
X239457684Y30423834D01*
X239457012Y30434816D01*
X239416447Y30706247D01*
X239414383Y30715367D01*
X239334384Y30977031D01*
X239330995Y30985746D01*
X239213199Y31232710D01*
X239208559Y31240828D01*
X239055553Y31467668D01*
X239049765Y31475011D01*
X238967306Y31565000D01*
X240721664Y31565000D01*
X240721664Y30491308D01*
X240795473Y30417499D01*
X242431692Y30417498D01*
X242505501Y30491307D01*
X242505501Y30491308D01*
X242761500Y30491308D01*
X242835309Y30417499D01*
X244471529Y30417498D01*
X244545338Y30491307D01*
X244545338Y31567757D01*
X244543182Y31584133D01*
X244468364Y31863358D01*
X244455621Y31887838D01*
X244324511Y32044089D01*
X244307622Y32058260D01*
X244133381Y32158858D01*
X244112664Y32166399D01*
X243919963Y32200377D01*
X243909002Y32201336D01*
X242835310Y32201336D01*
X242761501Y32127527D01*
X242761500Y30491308D01*
X242505501Y30491308D01*
X242505502Y32127527D01*
X242431693Y32201336D01*
X241355243Y32201336D01*
X241338867Y32199180D01*
X241059643Y32124362D01*
X241035163Y32111619D01*
X240878911Y31980509D01*
X240864740Y31963620D01*
X240764142Y31789379D01*
X240756601Y31768662D01*
X240722623Y31575961D01*
X240721664Y31565000D01*
X238967306Y31565000D01*
X238864911Y31676745D01*
X238858100Y31683152D01*
X238645458Y31855346D01*
X238637775Y31860675D01*
X238402016Y31999548D01*
X238393630Y32003684D01*
X238139934Y32106183D01*
X238131029Y32109033D01*
X237864971Y32172909D01*
X237855742Y32174412D01*
X237583164Y32198259D01*
X237573814Y32198381D01*
X237300705Y32181678D01*
X237291440Y32180417D01*
X237023800Y32123528D01*
X237014823Y32120911D01*
X236758532Y32025088D01*
X236750040Y32021174D01*
X236510727Y31888520D01*
X236502907Y31883394D01*
X236285831Y31716824D01*
X236278855Y31710598D01*
X236088783Y31513773D01*
X236082804Y31506584D01*
X235923913Y31283826D01*
X235919062Y31275832D01*
X235794842Y31032036D01*
X235791226Y31023413D01*
X235704405Y30763934D01*
X235702103Y30754871D01*
X235654589Y30485409D01*
X235653653Y30476105D01*
X235646490Y30202580D01*
X234371890Y30202580D01*
X234377684Y30423834D01*
X234377012Y30434816D01*
X234336447Y30706247D01*
X234334383Y30715367D01*
X234254384Y30977031D01*
X234250995Y30985746D01*
X234133199Y31232710D01*
X234128559Y31240828D01*
X233975553Y31467668D01*
X233969765Y31475011D01*
X233784911Y31676745D01*
X233778100Y31683152D01*
X233565458Y31855346D01*
X233557775Y31860675D01*
X233322016Y31999548D01*
X233313630Y32003684D01*
X233059934Y32106183D01*
X233051029Y32109033D01*
X232784971Y32172909D01*
X232775742Y32174412D01*
X232503164Y32198259D01*
X232493814Y32198381D01*
X232220705Y32181678D01*
X232211440Y32180417D01*
X231943800Y32123528D01*
X231934823Y32120911D01*
X231678532Y32025088D01*
X231670040Y32021174D01*
X231430727Y31888520D01*
X231422907Y31883394D01*
X231205831Y31716824D01*
X231198855Y31710598D01*
X231037911Y31543935D01*
X231012560Y31569286D01*
X231032541Y31682603D01*
X231033500Y31693564D01*
X231033500Y31933436D01*
X231032541Y31944397D01*
X230990887Y32180626D01*
X230988040Y32191253D01*
X230905998Y32416660D01*
X230901348Y32426632D01*
X230781412Y32634368D01*
X230775101Y32643381D01*
X230620913Y32827134D01*
X230613134Y32834913D01*
X230429381Y32989101D01*
X230420368Y32995412D01*
X230212632Y33115348D01*
X230202660Y33119998D01*
X229977253Y33202040D01*
X229966626Y33204887D01*
X229915711Y33213865D01*
X230306689Y33604843D01*
X230437119Y33495399D01*
X230446132Y33489088D01*
X230653868Y33369152D01*
X230663840Y33364502D01*
X230889247Y33282460D01*
X230899874Y33279613D01*
X231136103Y33237959D01*
X231147064Y33237000D01*
X231386936Y33237000D01*
X231397897Y33237959D01*
X231634126Y33279613D01*
X231644753Y33282460D01*
X231870160Y33364502D01*
X231880132Y33369152D01*
X232087868Y33489088D01*
X232096881Y33495399D01*
X232280634Y33649587D01*
X232288413Y33657366D01*
X232442601Y33841119D01*
X232448912Y33850132D01*
X232568848Y34057868D01*
X232573498Y34067840D01*
X232655540Y34293247D01*
X232658387Y34303874D01*
X232700041Y34540103D01*
X232701000Y34551064D01*
X232701000Y34790936D01*
X232700041Y34801897D01*
X232658387Y35038126D01*
X232655540Y35048753D01*
X232573498Y35274160D01*
X232568848Y35284132D01*
X232448912Y35491868D01*
X232442601Y35500881D01*
X232288413Y35684634D01*
X232280634Y35692413D01*
X232096881Y35846601D01*
X232087868Y35852912D01*
X231880132Y35972848D01*
X231870160Y35977498D01*
X231644753Y36059540D01*
X231634126Y36062387D01*
X231397897Y36104041D01*
X231386936Y36105000D01*
X231147064Y36105000D01*
X231136103Y36104041D01*
X231022787Y36084061D01*
X229804788Y37302058D01*
X229871060Y37379927D01*
X229924038Y37307542D01*
X229930809Y37299725D01*
X230111280Y37122996D01*
X230119237Y37116390D01*
X230326148Y36971508D01*
X230335077Y36966290D01*
X230562873Y36857149D01*
X230572535Y36853460D01*
X230815098Y36782988D01*
X230825232Y36780927D01*
X231076048Y36751019D01*
X231086382Y36750640D01*
X231338714Y36762098D01*
X231348972Y36763412D01*
X231596045Y36815930D01*
X231605950Y36818901D01*
X231841128Y36911067D01*
X231850415Y36915616D01*
X232067382Y37044954D01*
X232075801Y37050959D01*
X232268730Y37213997D01*
X232276055Y37221297D01*
X232369365Y37330936D01*
X235738500Y37330936D01*
X235738500Y37091064D01*
X235739459Y37080103D01*
X235781113Y36843874D01*
X235783960Y36833247D01*
X235866002Y36607840D01*
X235870652Y36597868D01*
X235990588Y36390132D01*
X235996899Y36381119D01*
X236151087Y36197366D01*
X236158866Y36189587D01*
X236342619Y36035399D01*
X236346001Y36033031D01*
X236346000Y35340968D01*
X236342619Y35338601D01*
X236158866Y35184413D01*
X236151087Y35176634D01*
X235996899Y34992881D01*
X235990588Y34983868D01*
X235870652Y34776132D01*
X235866002Y34766160D01*
X235783960Y34540753D01*
X235781113Y34530126D01*
X235739459Y34293897D01*
X235738500Y34282936D01*
X235738500Y34043064D01*
X235739459Y34032103D01*
X235781113Y33795874D01*
X235783960Y33785247D01*
X235866002Y33559840D01*
X235870652Y33549868D01*
X235990588Y33342132D01*
X235996899Y33333119D01*
X236151087Y33149366D01*
X236158866Y33141587D01*
X236342619Y32987399D01*
X236351632Y32981088D01*
X236559368Y32861152D01*
X236569340Y32856502D01*
X236794747Y32774460D01*
X236805374Y32771613D01*
X237041603Y32729959D01*
X237052564Y32729000D01*
X237292436Y32729000D01*
X237303397Y32729959D01*
X237539626Y32771613D01*
X237550253Y32774460D01*
X237775660Y32856502D01*
X237785632Y32861152D01*
X237993368Y32981088D01*
X238002381Y32987399D01*
X238186134Y33141587D01*
X238193913Y33149366D01*
X238348101Y33333119D01*
X238354412Y33342132D01*
X238474348Y33549868D01*
X238478998Y33559840D01*
X238561040Y33785247D01*
X238563887Y33795874D01*
X238605541Y34032103D01*
X238606500Y34043064D01*
X238606500Y34282936D01*
X238605541Y34293897D01*
X238563887Y34530126D01*
X238561040Y34540753D01*
X238478998Y34766160D01*
X238474348Y34776132D01*
X238354412Y34983868D01*
X238348101Y34992881D01*
X238193913Y35176634D01*
X238186134Y35184413D01*
X238002381Y35338601D01*
X237999000Y35340968D01*
X237999000Y36033032D01*
X238002381Y36035399D01*
X238186134Y36189587D01*
X238193913Y36197366D01*
X238348101Y36381119D01*
X238354412Y36390132D01*
X238474348Y36597868D01*
X238478998Y36607840D01*
X238561040Y36833247D01*
X238563887Y36843874D01*
X238605541Y37080103D01*
X238606500Y37091064D01*
X238606500Y37330936D01*
X238605541Y37341897D01*
X238563887Y37578126D01*
X238561040Y37588753D01*
X238478998Y37814160D01*
X238474348Y37824132D01*
X238354412Y38031868D01*
X238348101Y38040881D01*
X238193913Y38224634D01*
X238186134Y38232413D01*
X238002381Y38386601D01*
X237993368Y38392912D01*
X237785632Y38512848D01*
X237775660Y38517498D01*
X237550253Y38599540D01*
X237539626Y38602387D01*
X237303397Y38644041D01*
X237292436Y38645000D01*
X237052564Y38645000D01*
X237041603Y38644041D01*
X236805374Y38602387D01*
X236794747Y38599540D01*
X236569340Y38517498D01*
X236559368Y38512848D01*
X236351632Y38392912D01*
X236342619Y38386601D01*
X236158866Y38232413D01*
X236151087Y38224634D01*
X235996899Y38040881D01*
X235990588Y38031868D01*
X235870652Y37824132D01*
X235866002Y37814160D01*
X235783960Y37588753D01*
X235781113Y37578126D01*
X235739459Y37341897D01*
X235738500Y37330936D01*
X232369365Y37330936D01*
X232439766Y37413656D01*
X232445801Y37422054D01*
X232575895Y37638569D01*
X232580477Y37647839D01*
X232673463Y37882694D01*
X232676470Y37892589D01*
X232730011Y38140231D01*
X232731418Y38152031D01*
X232739385Y38477987D01*
X232738556Y38489842D01*
X232697175Y38739803D01*
X232694655Y38749833D01*
X232613253Y38988950D01*
X232609130Y38998434D01*
X232489767Y39221045D01*
X232484149Y39229729D01*
X232330031Y39429854D01*
X232323072Y39437503D01*
X232138337Y39609771D01*
X232130221Y39616181D01*
X231919832Y39755964D01*
X231910778Y39760962D01*
X231680383Y39864505D01*
X231670634Y39867957D01*
X231426423Y39932481D01*
X231416242Y39934294D01*
X231164770Y39958065D01*
X231154429Y39958192D01*
X231001301Y39947484D01*
X231001301Y41204932D01*
X231076048Y41196019D01*
X231086382Y41195640D01*
X231338714Y41207098D01*
X231348972Y41208412D01*
X231596045Y41260930D01*
X231605950Y41263901D01*
X231841128Y41356067D01*
X231850415Y41360616D01*
X232067382Y41489954D01*
X232075801Y41495959D01*
X232268730Y41658997D01*
X232276055Y41666297D01*
X232411060Y41824927D01*
X232464038Y41752542D01*
X232470809Y41744725D01*
X232651280Y41567996D01*
X232659237Y41561390D01*
X232866148Y41416508D01*
X232875077Y41411290D01*
X233102873Y41302149D01*
X233112535Y41298460D01*
X233355098Y41227988D01*
X233365232Y41225927D01*
X233616048Y41196019D01*
X233626382Y41195640D01*
X233878714Y41207098D01*
X233888972Y41208412D01*
X234136045Y41260930D01*
X234145950Y41263901D01*
X234381128Y41356067D01*
X234390415Y41360616D01*
X234607382Y41489954D01*
X234615801Y41495959D01*
X234808730Y41658997D01*
X234816055Y41666297D01*
X234979766Y41858656D01*
X234985801Y41867054D01*
X235115895Y42083569D01*
X235120477Y42092839D01*
X235213463Y42327694D01*
X235216470Y42337589D01*
X235270011Y42585231D01*
X235271418Y42597031D01*
X235279385Y42922987D01*
X235278556Y42934842D01*
X235237175Y43184803D01*
X235234655Y43194833D01*
X235153253Y43433950D01*
X235149130Y43443434D01*
X235029767Y43666045D01*
X235024149Y43674729D01*
X234870031Y43874854D01*
X234863072Y43882503D01*
X234678337Y44054771D01*
X234670221Y44061181D01*
X234459832Y44200964D01*
X234450778Y44205962D01*
X234220383Y44309505D01*
X234210634Y44312957D01*
X233966423Y44377481D01*
X233956242Y44379294D01*
X233704770Y44403065D01*
X233694429Y44403192D01*
X233442451Y44385571D01*
X233432229Y44384007D01*
X233186513Y44325469D01*
X233176683Y44322257D01*
X232943827Y44224373D01*
X232934654Y44219598D01*
X232720912Y44084997D01*
X232712642Y44078788D01*
X232523754Y43911086D01*
X232516609Y43903609D01*
X232409627Y43771497D01*
X232330031Y43874854D01*
X232323072Y43882503D01*
X232138337Y44054771D01*
X232130221Y44061181D01*
X231919832Y44200964D01*
X231910778Y44205962D01*
X231680383Y44309505D01*
X231670634Y44312957D01*
X231638304Y44321499D01*
X232062908Y44321499D01*
X232079689Y44317702D01*
X232097585Y44316262D01*
X232181994Y44321499D01*
X232210277Y44321499D01*
X232219218Y44322136D01*
X232239824Y44325086D01*
X232315773Y44329799D01*
X232333353Y44333440D01*
X232356500Y44341796D01*
X232380875Y44345287D01*
X232398108Y44350326D01*
X232467395Y44381830D01*
X232539154Y44407735D01*
X232555322Y44416395D01*
X232574291Y44430432D01*
X232597111Y44440807D01*
X232612236Y44450480D01*
X232678216Y44507332D01*
X232695453Y44520087D01*
X232702536Y44526190D01*
X232717693Y44541348D01*
X232777846Y44593179D01*
X232789648Y44606708D01*
X232801798Y44625453D01*
X234817190Y46640844D01*
X234786959Y46469397D01*
X234786000Y46458436D01*
X234786000Y46218564D01*
X234786959Y46207603D01*
X234828613Y45971374D01*
X234831460Y45960747D01*
X234913502Y45735340D01*
X234918152Y45725368D01*
X235038088Y45517632D01*
X235044399Y45508619D01*
X235198587Y45324866D01*
X235206366Y45317087D01*
X235390119Y45162899D01*
X235399132Y45156588D01*
X235606868Y45036652D01*
X235616840Y45032002D01*
X235842247Y44949960D01*
X235852874Y44947113D01*
X236089103Y44905459D01*
X236100064Y44904500D01*
X236339936Y44904500D01*
X236350897Y44905459D01*
X236587126Y44947113D01*
X236597753Y44949960D01*
X236823160Y45032002D01*
X236833132Y45036652D01*
X237040868Y45156588D01*
X237049881Y45162899D01*
X237175654Y45268436D01*
X244795500Y45268436D01*
X244795500Y45028564D01*
X244796459Y45017603D01*
X244838113Y44781374D01*
X244840960Y44770747D01*
X244923002Y44545340D01*
X244927652Y44535368D01*
X245062447Y44301897D01*
X245185656Y44285677D01*
X245996290Y45096309D01*
X245996290Y45200691D01*
X245185656Y46011323D01*
X245062447Y45995103D01*
X244927652Y45761632D01*
X244923002Y45751660D01*
X244840960Y45526253D01*
X244838113Y45515626D01*
X244796459Y45279397D01*
X244795500Y45268436D01*
X237175654Y45268436D01*
X237233634Y45317087D01*
X237241413Y45324866D01*
X237395601Y45508619D01*
X237401912Y45517632D01*
X237521848Y45725368D01*
X237526498Y45735340D01*
X237608540Y45960747D01*
X237611387Y45971374D01*
X237650350Y46192344D01*
X245366677Y46192344D01*
X246177309Y45381710D01*
X246281691Y45381710D01*
X247092323Y46192344D01*
X247076103Y46315553D01*
X246842632Y46450348D01*
X246832660Y46454998D01*
X246607253Y46537040D01*
X246596626Y46539887D01*
X246360397Y46581541D01*
X246349436Y46582500D01*
X246109564Y46582500D01*
X246098603Y46581541D01*
X245862374Y46539887D01*
X245851747Y46537040D01*
X245626340Y46454998D01*
X245616368Y46450348D01*
X245382897Y46315553D01*
X245366677Y46192344D01*
X237650350Y46192344D01*
X237653041Y46207603D01*
X237654000Y46218564D01*
X237654000Y46458436D01*
X237653041Y46469397D01*
X237611387Y46705626D01*
X237608540Y46716253D01*
X237526498Y46941660D01*
X237521848Y46951632D01*
X237401912Y47159368D01*
X237395601Y47168381D01*
X237241413Y47352134D01*
X237233634Y47359913D01*
X237049881Y47514101D01*
X237040868Y47520412D01*
X236833132Y47640348D01*
X236823160Y47644998D01*
X236597753Y47727040D01*
X236587126Y47729887D01*
X236366982Y47768705D01*
X236570626Y47804613D01*
X236581253Y47807460D01*
X236806660Y47889502D01*
X236816632Y47894152D01*
X237024368Y48014088D01*
X237033381Y48020399D01*
X237217134Y48174587D01*
X237224913Y48182366D01*
X237379101Y48366119D01*
X237385412Y48375132D01*
X237505348Y48582868D01*
X237509998Y48592840D01*
X237592040Y48818247D01*
X237594887Y48828874D01*
X237636541Y49065103D01*
X237637500Y49076064D01*
X237637500Y49315936D01*
X237636541Y49326897D01*
X237594887Y49563126D01*
X237592040Y49573753D01*
X237509998Y49799160D01*
X237505348Y49809132D01*
X237385412Y50016868D01*
X237379101Y50025881D01*
X237224913Y50209634D01*
X237217134Y50217413D01*
X237033381Y50371601D01*
X237024368Y50377912D01*
X236816632Y50497848D01*
X236806660Y50502498D01*
X236581253Y50584540D01*
X236570626Y50587387D01*
X236334397Y50629041D01*
X236323436Y50630000D01*
X236083564Y50630000D01*
X236072603Y50629041D01*
X235836374Y50587387D01*
X235825747Y50584540D01*
X235600340Y50502498D01*
X235590368Y50497848D01*
X235382632Y50377912D01*
X235373619Y50371601D01*
X235189866Y50217413D01*
X235182087Y50209634D01*
X235027899Y50025881D01*
X235021588Y50016868D01*
X234901652Y49809132D01*
X234897002Y49799160D01*
X234814960Y49573753D01*
X234812113Y49563126D01*
X234770459Y49326897D01*
X234769500Y49315936D01*
X234769500Y49076064D01*
X234770459Y49065103D01*
X234790440Y48951786D01*
X232594228Y46755573D01*
X232526498Y46941660D01*
X232521848Y46951632D01*
X232401912Y47159368D01*
X232395601Y47168381D01*
X232241413Y47352134D01*
X232233634Y47359913D01*
X232049881Y47514101D01*
X232040868Y47520412D01*
X232030000Y47526687D01*
X232030000Y48018032D01*
X232033381Y48020399D01*
X232217134Y48174587D01*
X232224913Y48182366D01*
X232379101Y48366119D01*
X232385412Y48375132D01*
X232505348Y48582868D01*
X232509998Y48592840D01*
X232592040Y48818247D01*
X232594887Y48828874D01*
X232636541Y49065103D01*
X232637500Y49076064D01*
X232637500Y49315936D01*
X232636541Y49326897D01*
X232616560Y49440214D01*
X234031508Y50855162D01*
X234110626Y50869113D01*
X234121253Y50871960D01*
X234346660Y50954002D01*
X234356632Y50958652D01*
X234564368Y51078588D01*
X234573381Y51084899D01*
X234757134Y51239087D01*
X234764913Y51246866D01*
X234919101Y51430619D01*
X234925412Y51439632D01*
X235045348Y51647368D01*
X235049998Y51657340D01*
X235132040Y51882747D01*
X235134887Y51893374D01*
X235176541Y52129603D01*
X235177500Y52140564D01*
X235177500Y52380436D01*
X235176541Y52391397D01*
X235134887Y52627626D01*
X235132040Y52638253D01*
X235049998Y52863660D01*
X235045348Y52873632D01*
X234925412Y53081368D01*
X234919101Y53090381D01*
X234764913Y53274134D01*
X234757134Y53281913D01*
X234573381Y53436101D01*
X234564368Y53442412D01*
X234520048Y53468000D01*
X240586952Y53468000D01*
X240542632Y53442412D01*
G36*
X223143632Y51078588D02*
G01*
X223351368Y50958652D01*
X223361340Y50954002D01*
X223586747Y50871960D01*
X223597374Y50869113D01*
X223833603Y50827459D01*
X223844564Y50826500D01*
X224084436Y50826500D01*
X224095397Y50827459D01*
X224208714Y50847440D01*
X225360501Y49695652D01*
X225360501Y49191181D01*
X225083142Y49116863D01*
X225058662Y49104120D01*
X224902410Y48973010D01*
X224888239Y48956121D01*
X224787641Y48781880D01*
X224780100Y48761163D01*
X224746122Y48568462D01*
X224745163Y48557501D01*
X224745163Y46943742D01*
X224747319Y46927366D01*
X224822137Y46648142D01*
X224834880Y46623662D01*
X224965990Y46467410D01*
X224982879Y46453239D01*
X225157120Y46352641D01*
X225177837Y46345100D01*
X225360500Y46312892D01*
X225360501Y44406037D01*
X225086542Y44406037D01*
X225070166Y44403881D01*
X224790942Y44329063D01*
X224766462Y44316320D01*
X224610210Y44185210D01*
X224596039Y44168321D01*
X224495441Y43994080D01*
X224487900Y43973363D01*
X224453922Y43780662D01*
X224452963Y43769701D01*
X224452963Y41825542D01*
X224455119Y41809166D01*
X224529937Y41529942D01*
X224542680Y41505462D01*
X224673790Y41349210D01*
X224690679Y41335039D01*
X224864920Y41234441D01*
X224885637Y41226900D01*
X225078338Y41192922D01*
X225089299Y41191963D01*
X227033458Y41191963D01*
X227049834Y41194119D01*
X227329059Y41268937D01*
X227353539Y41281680D01*
X227509790Y41412790D01*
X227523961Y41429679D01*
X227594025Y41551034D01*
X227786148Y41416508D01*
X227795077Y41411290D01*
X228022873Y41302149D01*
X228032535Y41298460D01*
X228275098Y41227988D01*
X228285232Y41225927D01*
X228536048Y41196019D01*
X228546382Y41195640D01*
X228798714Y41207098D01*
X228808972Y41208412D01*
X229056045Y41260930D01*
X229065950Y41263901D01*
X229301128Y41356067D01*
X229310415Y41360616D01*
X229348302Y41383201D01*
X229348301Y39771063D01*
X229140383Y39864505D01*
X229130634Y39867957D01*
X228886423Y39932481D01*
X228876242Y39934294D01*
X228624770Y39958065D01*
X228614429Y39958192D01*
X228362451Y39940571D01*
X228352229Y39939007D01*
X228106513Y39880469D01*
X228096683Y39877257D01*
X227863827Y39779373D01*
X227854654Y39774598D01*
X227640912Y39639997D01*
X227632642Y39633788D01*
X227595923Y39601188D01*
X227590063Y39623059D01*
X227577320Y39647539D01*
X227446210Y39803790D01*
X227429321Y39817961D01*
X227255080Y39918559D01*
X227234363Y39926100D01*
X227041662Y39960078D01*
X227030701Y39961037D01*
X226261809Y39961037D01*
X226188000Y39887228D01*
X226187999Y38555808D01*
X226188000Y38555807D01*
X226187999Y36820772D01*
X226261808Y36746963D01*
X227033458Y36746963D01*
X227049834Y36749119D01*
X227329059Y36823937D01*
X227353539Y36836680D01*
X227509790Y36967790D01*
X227523961Y36984679D01*
X227594025Y37106034D01*
X227786148Y36971508D01*
X227795077Y36966290D01*
X227876439Y36927308D01*
X227882435Y36919205D01*
X227892808Y36896389D01*
X227902481Y36881264D01*
X227959330Y36815286D01*
X227972088Y36798046D01*
X227978191Y36790963D01*
X227993352Y36775803D01*
X228045180Y36715654D01*
X228058707Y36703853D01*
X228077452Y36691702D01*
X229564743Y35204411D01*
X229557706Y35193553D01*
X226029498Y31665344D01*
X226032541Y31682603D01*
X226033500Y31693564D01*
X226033500Y31933436D01*
X226032541Y31944397D01*
X225990887Y32180626D01*
X225988040Y32191253D01*
X225905998Y32416660D01*
X225901348Y32426632D01*
X225781412Y32634368D01*
X225775101Y32643381D01*
X225620913Y32827134D01*
X225613134Y32834913D01*
X225429381Y32989101D01*
X225420368Y32995412D01*
X225212632Y33115348D01*
X225202660Y33119998D01*
X224977253Y33202040D01*
X224966626Y33204887D01*
X224730397Y33246541D01*
X224719436Y33247500D01*
X224479564Y33247500D01*
X224468603Y33246541D01*
X224232374Y33204887D01*
X224221747Y33202040D01*
X223996340Y33119998D01*
X223986368Y33115348D01*
X223778632Y32995412D01*
X223769619Y32989101D01*
X223585866Y32834913D01*
X223578087Y32827134D01*
X223423899Y32643381D01*
X223417588Y32634368D01*
X223297652Y32426632D01*
X223293002Y32416660D01*
X223210960Y32191253D01*
X223208113Y32180626D01*
X223166459Y31944397D01*
X223165500Y31933436D01*
X223165500Y31693564D01*
X223166459Y31682603D01*
X223208113Y31446374D01*
X223210960Y31435747D01*
X223293002Y31210340D01*
X223297652Y31200368D01*
X223417588Y30992632D01*
X223423899Y30983619D01*
X223578087Y30799866D01*
X223585866Y30792087D01*
X223769619Y30637899D01*
X223778632Y30631588D01*
X223986368Y30511652D01*
X223996340Y30507002D01*
X224166009Y30445247D01*
X224012840Y30389498D01*
X224002868Y30384848D01*
X223795132Y30264912D01*
X223786119Y30258601D01*
X223602366Y30104413D01*
X223594587Y30096634D01*
X223440399Y29912881D01*
X223434088Y29903868D01*
X223314152Y29696132D01*
X223309502Y29686160D01*
X223227460Y29460753D01*
X223224613Y29450126D01*
X223182959Y29213897D01*
X223182000Y29202936D01*
X223182000Y28963064D01*
X223182959Y28952103D01*
X223224613Y28715874D01*
X223227460Y28705247D01*
X223309502Y28479840D01*
X223314152Y28469868D01*
X223434088Y28262132D01*
X223440399Y28253119D01*
X223594587Y28069366D01*
X223602366Y28061587D01*
X223786119Y27907399D01*
X223795132Y27901088D01*
X224002868Y27781152D01*
X224012840Y27776502D01*
X224238247Y27694460D01*
X224248874Y27691613D01*
X224485103Y27649959D01*
X224496064Y27649000D01*
X224735936Y27649000D01*
X224746897Y27649959D01*
X224983126Y27691613D01*
X224993753Y27694460D01*
X225219160Y27776502D01*
X225229132Y27781152D01*
X225436868Y27901088D01*
X225445881Y27907399D01*
X225629634Y28061587D01*
X225637413Y28069366D01*
X225791601Y28253119D01*
X225797912Y28262132D01*
X225917848Y28469868D01*
X225922498Y28479840D01*
X226004540Y28705247D01*
X226007387Y28715874D01*
X226049041Y28952103D01*
X226050000Y28963064D01*
X226050000Y29202936D01*
X226049041Y29213897D01*
X226029060Y29327215D01*
X228199135Y31497289D01*
X228208113Y31446374D01*
X228210960Y31435747D01*
X228293002Y31210340D01*
X228297652Y31200368D01*
X228417588Y30992632D01*
X228423899Y30983619D01*
X228578087Y30799866D01*
X228585866Y30792087D01*
X228769619Y30637899D01*
X228778632Y30631588D01*
X228986368Y30511652D01*
X228996340Y30507002D01*
X229166009Y30445247D01*
X229012840Y30389498D01*
X229002868Y30384848D01*
X228795132Y30264912D01*
X228786119Y30258601D01*
X228602366Y30104413D01*
X228594587Y30096634D01*
X228440399Y29912881D01*
X228434088Y29903868D01*
X228314152Y29696132D01*
X228309502Y29686160D01*
X228227460Y29460753D01*
X228224613Y29450126D01*
X228182959Y29213897D01*
X228182000Y29202936D01*
X228182000Y28963064D01*
X228182959Y28952103D01*
X228224613Y28715874D01*
X228227460Y28705247D01*
X228309502Y28479840D01*
X228314152Y28469868D01*
X228434088Y28262132D01*
X228440399Y28253119D01*
X228594587Y28069366D01*
X228602366Y28061587D01*
X228786119Y27907399D01*
X228795132Y27901088D01*
X229002868Y27781152D01*
X229012840Y27776502D01*
X229238247Y27694460D01*
X229248874Y27691613D01*
X229485103Y27649959D01*
X229496064Y27649000D01*
X229735936Y27649000D01*
X229746897Y27649959D01*
X229860213Y27669939D01*
X230292719Y27237433D01*
X230253367Y27204412D01*
X230245587Y27196633D01*
X230091399Y27012880D01*
X230085088Y27003867D01*
X229965152Y26796131D01*
X229960502Y26786159D01*
X229878460Y26560752D01*
X229875613Y26550125D01*
X229833959Y26313896D01*
X229833000Y26302935D01*
X229833000Y26063063D01*
X229833959Y26052102D01*
X229875613Y25815873D01*
X229878460Y25805246D01*
X229960502Y25579839D01*
X229965152Y25569867D01*
X230085088Y25362131D01*
X230091399Y25353118D01*
X230245587Y25169365D01*
X230253366Y25161586D01*
X230424484Y25018000D01*
X224489516Y25018000D01*
X224660634Y25161586D01*
X224668413Y25169365D01*
X224822601Y25353118D01*
X224828912Y25362131D01*
X224948848Y25569867D01*
X224953498Y25579839D01*
X225035540Y25805246D01*
X225038387Y25815873D01*
X225064680Y25964981D01*
X224989146Y26054999D01*
X223848808Y26055000D01*
X223848807Y26054999D01*
X223519000Y26055000D01*
X223519000Y26384808D01*
X223774999Y26384808D01*
X223848808Y26310999D01*
X224989146Y26310998D01*
X225064679Y26401016D01*
X225038387Y26550124D01*
X225035540Y26560752D01*
X224953498Y26786159D01*
X224948848Y26796131D01*
X224828912Y27003867D01*
X224822601Y27012880D01*
X224668413Y27196633D01*
X224660634Y27204412D01*
X224476881Y27358600D01*
X224467868Y27364911D01*
X224260132Y27484847D01*
X224250160Y27489497D01*
X224024753Y27571539D01*
X224014126Y27574386D01*
X223865018Y27600679D01*
X223775000Y27525145D01*
X223774999Y26384808D01*
X223519000Y26384808D01*
X223519001Y27525145D01*
X223428983Y27600678D01*
X223279875Y27574386D01*
X223269247Y27571539D01*
X223138000Y27523769D01*
X223138000Y33330230D01*
X223269247Y33282460D01*
X223279874Y33279613D01*
X223516103Y33237959D01*
X223527064Y33237000D01*
X223766936Y33237000D01*
X223777897Y33237959D01*
X224014126Y33279613D01*
X224024753Y33282460D01*
X224250160Y33364502D01*
X224260132Y33369152D01*
X224467868Y33489088D01*
X224476881Y33495399D01*
X224660634Y33649587D01*
X224668413Y33657366D01*
X224822601Y33841119D01*
X224828912Y33850132D01*
X224948848Y34057868D01*
X224953498Y34067840D01*
X225035540Y34293247D01*
X225038387Y34303874D01*
X225080041Y34540103D01*
X225081000Y34551064D01*
X225081000Y34790936D01*
X225080041Y34801897D01*
X225038387Y35038126D01*
X225035540Y35048753D01*
X224953498Y35274160D01*
X224948848Y35284132D01*
X224828912Y35491868D01*
X224822601Y35500881D01*
X224668413Y35684634D01*
X224660634Y35692413D01*
X224476881Y35846601D01*
X224467868Y35852912D01*
X224260132Y35972848D01*
X224250160Y35977498D01*
X224024753Y36059540D01*
X224014126Y36062387D01*
X223777897Y36104041D01*
X223766936Y36105000D01*
X223527064Y36105000D01*
X223516103Y36104041D01*
X223279874Y36062387D01*
X223269247Y36059540D01*
X223138000Y36011770D01*
X223138000Y38152192D01*
X224452963Y38152192D01*
X224452963Y37380542D01*
X224455119Y37364166D01*
X224529937Y37084942D01*
X224542680Y37060462D01*
X224673790Y36904210D01*
X224690679Y36890039D01*
X224864920Y36789441D01*
X224885637Y36781900D01*
X225078338Y36747922D01*
X225089299Y36746963D01*
X225858191Y36746963D01*
X225932000Y36820772D01*
X225932001Y38152191D01*
X225858192Y38226000D01*
X224526772Y38226001D01*
X224452963Y38152192D01*
X223138000Y38152192D01*
X223138000Y39324701D01*
X224452963Y39324701D01*
X224452963Y38555809D01*
X224526772Y38482000D01*
X225858191Y38481999D01*
X225932000Y38555808D01*
X225932001Y39887228D01*
X225858192Y39961037D01*
X225086542Y39961037D01*
X225070166Y39958881D01*
X224790942Y39884063D01*
X224766462Y39871320D01*
X224610210Y39740210D01*
X224596039Y39723321D01*
X224495441Y39549080D01*
X224487900Y39528363D01*
X224453922Y39335662D01*
X224452963Y39324701D01*
X223138000Y39324701D01*
X223138000Y51082532D01*
X223143632Y51078588D01*
G37*
X223143632Y51078588D02*
X223351368Y50958652D01*
X223361340Y50954002D01*
X223586747Y50871960D01*
X223597374Y50869113D01*
X223833603Y50827459D01*
X223844564Y50826500D01*
X224084436Y50826500D01*
X224095397Y50827459D01*
X224208714Y50847440D01*
X225360501Y49695652D01*
X225360501Y49191181D01*
X225083142Y49116863D01*
X225058662Y49104120D01*
X224902410Y48973010D01*
X224888239Y48956121D01*
X224787641Y48781880D01*
X224780100Y48761163D01*
X224746122Y48568462D01*
X224745163Y48557501D01*
X224745163Y46943742D01*
X224747319Y46927366D01*
X224822137Y46648142D01*
X224834880Y46623662D01*
X224965990Y46467410D01*
X224982879Y46453239D01*
X225157120Y46352641D01*
X225177837Y46345100D01*
X225360500Y46312892D01*
X225360501Y44406037D01*
X225086542Y44406037D01*
X225070166Y44403881D01*
X224790942Y44329063D01*
X224766462Y44316320D01*
X224610210Y44185210D01*
X224596039Y44168321D01*
X224495441Y43994080D01*
X224487900Y43973363D01*
X224453922Y43780662D01*
X224452963Y43769701D01*
X224452963Y41825542D01*
X224455119Y41809166D01*
X224529937Y41529942D01*
X224542680Y41505462D01*
X224673790Y41349210D01*
X224690679Y41335039D01*
X224864920Y41234441D01*
X224885637Y41226900D01*
X225078338Y41192922D01*
X225089299Y41191963D01*
X227033458Y41191963D01*
X227049834Y41194119D01*
X227329059Y41268937D01*
X227353539Y41281680D01*
X227509790Y41412790D01*
X227523961Y41429679D01*
X227594025Y41551034D01*
X227786148Y41416508D01*
X227795077Y41411290D01*
X228022873Y41302149D01*
X228032535Y41298460D01*
X228275098Y41227988D01*
X228285232Y41225927D01*
X228536048Y41196019D01*
X228546382Y41195640D01*
X228798714Y41207098D01*
X228808972Y41208412D01*
X229056045Y41260930D01*
X229065950Y41263901D01*
X229301128Y41356067D01*
X229310415Y41360616D01*
X229348302Y41383201D01*
X229348301Y39771063D01*
X229140383Y39864505D01*
X229130634Y39867957D01*
X228886423Y39932481D01*
X228876242Y39934294D01*
X228624770Y39958065D01*
X228614429Y39958192D01*
X228362451Y39940571D01*
X228352229Y39939007D01*
X228106513Y39880469D01*
X228096683Y39877257D01*
X227863827Y39779373D01*
X227854654Y39774598D01*
X227640912Y39639997D01*
X227632642Y39633788D01*
X227595923Y39601188D01*
X227590063Y39623059D01*
X227577320Y39647539D01*
X227446210Y39803790D01*
X227429321Y39817961D01*
X227255080Y39918559D01*
X227234363Y39926100D01*
X227041662Y39960078D01*
X227030701Y39961037D01*
X226261809Y39961037D01*
X226188000Y39887228D01*
X226187999Y38555808D01*
X226188000Y38555807D01*
X226187999Y36820772D01*
X226261808Y36746963D01*
X227033458Y36746963D01*
X227049834Y36749119D01*
X227329059Y36823937D01*
X227353539Y36836680D01*
X227509790Y36967790D01*
X227523961Y36984679D01*
X227594025Y37106034D01*
X227786148Y36971508D01*
X227795077Y36966290D01*
X227876439Y36927308D01*
X227882435Y36919205D01*
X227892808Y36896389D01*
X227902481Y36881264D01*
X227959330Y36815286D01*
X227972088Y36798046D01*
X227978191Y36790963D01*
X227993352Y36775803D01*
X228045180Y36715654D01*
X228058707Y36703853D01*
X228077452Y36691702D01*
X229564743Y35204411D01*
X229557706Y35193553D01*
X226029498Y31665344D01*
X226032541Y31682603D01*
X226033500Y31693564D01*
X226033500Y31933436D01*
X226032541Y31944397D01*
X225990887Y32180626D01*
X225988040Y32191253D01*
X225905998Y32416660D01*
X225901348Y32426632D01*
X225781412Y32634368D01*
X225775101Y32643381D01*
X225620913Y32827134D01*
X225613134Y32834913D01*
X225429381Y32989101D01*
X225420368Y32995412D01*
X225212632Y33115348D01*
X225202660Y33119998D01*
X224977253Y33202040D01*
X224966626Y33204887D01*
X224730397Y33246541D01*
X224719436Y33247500D01*
X224479564Y33247500D01*
X224468603Y33246541D01*
X224232374Y33204887D01*
X224221747Y33202040D01*
X223996340Y33119998D01*
X223986368Y33115348D01*
X223778632Y32995412D01*
X223769619Y32989101D01*
X223585866Y32834913D01*
X223578087Y32827134D01*
X223423899Y32643381D01*
X223417588Y32634368D01*
X223297652Y32426632D01*
X223293002Y32416660D01*
X223210960Y32191253D01*
X223208113Y32180626D01*
X223166459Y31944397D01*
X223165500Y31933436D01*
X223165500Y31693564D01*
X223166459Y31682603D01*
X223208113Y31446374D01*
X223210960Y31435747D01*
X223293002Y31210340D01*
X223297652Y31200368D01*
X223417588Y30992632D01*
X223423899Y30983619D01*
X223578087Y30799866D01*
X223585866Y30792087D01*
X223769619Y30637899D01*
X223778632Y30631588D01*
X223986368Y30511652D01*
X223996340Y30507002D01*
X224166009Y30445247D01*
X224012840Y30389498D01*
X224002868Y30384848D01*
X223795132Y30264912D01*
X223786119Y30258601D01*
X223602366Y30104413D01*
X223594587Y30096634D01*
X223440399Y29912881D01*
X223434088Y29903868D01*
X223314152Y29696132D01*
X223309502Y29686160D01*
X223227460Y29460753D01*
X223224613Y29450126D01*
X223182959Y29213897D01*
X223182000Y29202936D01*
X223182000Y28963064D01*
X223182959Y28952103D01*
X223224613Y28715874D01*
X223227460Y28705247D01*
X223309502Y28479840D01*
X223314152Y28469868D01*
X223434088Y28262132D01*
X223440399Y28253119D01*
X223594587Y28069366D01*
X223602366Y28061587D01*
X223786119Y27907399D01*
X223795132Y27901088D01*
X224002868Y27781152D01*
X224012840Y27776502D01*
X224238247Y27694460D01*
X224248874Y27691613D01*
X224485103Y27649959D01*
X224496064Y27649000D01*
X224735936Y27649000D01*
X224746897Y27649959D01*
X224983126Y27691613D01*
X224993753Y27694460D01*
X225219160Y27776502D01*
X225229132Y27781152D01*
X225436868Y27901088D01*
X225445881Y27907399D01*
X225629634Y28061587D01*
X225637413Y28069366D01*
X225791601Y28253119D01*
X225797912Y28262132D01*
X225917848Y28469868D01*
X225922498Y28479840D01*
X226004540Y28705247D01*
X226007387Y28715874D01*
X226049041Y28952103D01*
X226050000Y28963064D01*
X226050000Y29202936D01*
X226049041Y29213897D01*
X226029060Y29327215D01*
X228199135Y31497289D01*
X228208113Y31446374D01*
X228210960Y31435747D01*
X228293002Y31210340D01*
X228297652Y31200368D01*
X228417588Y30992632D01*
X228423899Y30983619D01*
X228578087Y30799866D01*
X228585866Y30792087D01*
X228769619Y30637899D01*
X228778632Y30631588D01*
X228986368Y30511652D01*
X228996340Y30507002D01*
X229166009Y30445247D01*
X229012840Y30389498D01*
X229002868Y30384848D01*
X228795132Y30264912D01*
X228786119Y30258601D01*
X228602366Y30104413D01*
X228594587Y30096634D01*
X228440399Y29912881D01*
X228434088Y29903868D01*
X228314152Y29696132D01*
X228309502Y29686160D01*
X228227460Y29460753D01*
X228224613Y29450126D01*
X228182959Y29213897D01*
X228182000Y29202936D01*
X228182000Y28963064D01*
X228182959Y28952103D01*
X228224613Y28715874D01*
X228227460Y28705247D01*
X228309502Y28479840D01*
X228314152Y28469868D01*
X228434088Y28262132D01*
X228440399Y28253119D01*
X228594587Y28069366D01*
X228602366Y28061587D01*
X228786119Y27907399D01*
X228795132Y27901088D01*
X229002868Y27781152D01*
X229012840Y27776502D01*
X229238247Y27694460D01*
X229248874Y27691613D01*
X229485103Y27649959D01*
X229496064Y27649000D01*
X229735936Y27649000D01*
X229746897Y27649959D01*
X229860213Y27669939D01*
X230292719Y27237433D01*
X230253367Y27204412D01*
X230245587Y27196633D01*
X230091399Y27012880D01*
X230085088Y27003867D01*
X229965152Y26796131D01*
X229960502Y26786159D01*
X229878460Y26560752D01*
X229875613Y26550125D01*
X229833959Y26313896D01*
X229833000Y26302935D01*
X229833000Y26063063D01*
X229833959Y26052102D01*
X229875613Y25815873D01*
X229878460Y25805246D01*
X229960502Y25579839D01*
X229965152Y25569867D01*
X230085088Y25362131D01*
X230091399Y25353118D01*
X230245587Y25169365D01*
X230253366Y25161586D01*
X230424484Y25018000D01*
X224489516Y25018000D01*
X224660634Y25161586D01*
X224668413Y25169365D01*
X224822601Y25353118D01*
X224828912Y25362131D01*
X224948848Y25569867D01*
X224953498Y25579839D01*
X225035540Y25805246D01*
X225038387Y25815873D01*
X225064680Y25964981D01*
X224989146Y26054999D01*
X223848808Y26055000D01*
X223848807Y26054999D01*
X223519000Y26055000D01*
X223519000Y26384808D01*
X223774999Y26384808D01*
X223848808Y26310999D01*
X224989146Y26310998D01*
X225064679Y26401016D01*
X225038387Y26550124D01*
X225035540Y26560752D01*
X224953498Y26786159D01*
X224948848Y26796131D01*
X224828912Y27003867D01*
X224822601Y27012880D01*
X224668413Y27196633D01*
X224660634Y27204412D01*
X224476881Y27358600D01*
X224467868Y27364911D01*
X224260132Y27484847D01*
X224250160Y27489497D01*
X224024753Y27571539D01*
X224014126Y27574386D01*
X223865018Y27600679D01*
X223775000Y27525145D01*
X223774999Y26384808D01*
X223519000Y26384808D01*
X223519001Y27525145D01*
X223428983Y27600678D01*
X223279875Y27574386D01*
X223269247Y27571539D01*
X223138000Y27523769D01*
X223138000Y33330230D01*
X223269247Y33282460D01*
X223279874Y33279613D01*
X223516103Y33237959D01*
X223527064Y33237000D01*
X223766936Y33237000D01*
X223777897Y33237959D01*
X224014126Y33279613D01*
X224024753Y33282460D01*
X224250160Y33364502D01*
X224260132Y33369152D01*
X224467868Y33489088D01*
X224476881Y33495399D01*
X224660634Y33649587D01*
X224668413Y33657366D01*
X224822601Y33841119D01*
X224828912Y33850132D01*
X224948848Y34057868D01*
X224953498Y34067840D01*
X225035540Y34293247D01*
X225038387Y34303874D01*
X225080041Y34540103D01*
X225081000Y34551064D01*
X225081000Y34790936D01*
X225080041Y34801897D01*
X225038387Y35038126D01*
X225035540Y35048753D01*
X224953498Y35274160D01*
X224948848Y35284132D01*
X224828912Y35491868D01*
X224822601Y35500881D01*
X224668413Y35684634D01*
X224660634Y35692413D01*
X224476881Y35846601D01*
X224467868Y35852912D01*
X224260132Y35972848D01*
X224250160Y35977498D01*
X224024753Y36059540D01*
X224014126Y36062387D01*
X223777897Y36104041D01*
X223766936Y36105000D01*
X223527064Y36105000D01*
X223516103Y36104041D01*
X223279874Y36062387D01*
X223269247Y36059540D01*
X223138000Y36011770D01*
X223138000Y38152192D01*
X224452963Y38152192D01*
X224452963Y37380542D01*
X224455119Y37364166D01*
X224529937Y37084942D01*
X224542680Y37060462D01*
X224673790Y36904210D01*
X224690679Y36890039D01*
X224864920Y36789441D01*
X224885637Y36781900D01*
X225078338Y36747922D01*
X225089299Y36746963D01*
X225858191Y36746963D01*
X225932000Y36820772D01*
X225932001Y38152191D01*
X225858192Y38226000D01*
X224526772Y38226001D01*
X224452963Y38152192D01*
X223138000Y38152192D01*
X223138000Y39324701D01*
X224452963Y39324701D01*
X224452963Y38555809D01*
X224526772Y38482000D01*
X225858191Y38481999D01*
X225932000Y38555808D01*
X225932001Y39887228D01*
X225858192Y39961037D01*
X225086542Y39961037D01*
X225070166Y39958881D01*
X224790942Y39884063D01*
X224766462Y39871320D01*
X224610210Y39740210D01*
X224596039Y39723321D01*
X224495441Y39549080D01*
X224487900Y39528363D01*
X224453922Y39335662D01*
X224452963Y39324701D01*
X223138000Y39324701D01*
X223138000Y51082532D01*
X223143632Y51078588D01*
G36*
X230763632Y53442412D02*
G01*
X230754619Y53436101D01*
X230570866Y53281913D01*
X230563087Y53274134D01*
X230408899Y53090381D01*
X230402588Y53081368D01*
X230282652Y52873632D01*
X230278002Y52863660D01*
X230195960Y52638253D01*
X230193113Y52627626D01*
X230166820Y52478518D01*
X230242354Y52388500D01*
X231712500Y52388500D01*
X231712500Y50918354D01*
X231736701Y50898047D01*
X231447714Y50609060D01*
X231334397Y50629041D01*
X231323436Y50630000D01*
X231083564Y50630000D01*
X231072603Y50629041D01*
X230836374Y50587387D01*
X230825747Y50584540D01*
X230600340Y50502498D01*
X230590368Y50497848D01*
X230382632Y50377912D01*
X230373619Y50371601D01*
X230189866Y50217413D01*
X230182087Y50209634D01*
X230027899Y50025881D01*
X230021588Y50016868D01*
X229901652Y49809132D01*
X229897002Y49799160D01*
X229814960Y49573753D01*
X229812113Y49563126D01*
X229770459Y49326897D01*
X229769500Y49315936D01*
X229769500Y49076064D01*
X229770459Y49065103D01*
X229812113Y48828874D01*
X229814960Y48818247D01*
X229897002Y48592840D01*
X229901652Y48582868D01*
X230021588Y48375132D01*
X230027899Y48366119D01*
X230182087Y48182366D01*
X230189866Y48174587D01*
X230373619Y48020399D01*
X230377000Y48018032D01*
X230377001Y47503094D01*
X230206366Y47359913D01*
X230198587Y47352134D01*
X230044399Y47168381D01*
X230038088Y47159368D01*
X229918152Y46951632D01*
X229913502Y46941660D01*
X229831460Y46716253D01*
X229828613Y46705626D01*
X229786959Y46469397D01*
X229786000Y46458436D01*
X229786000Y46218564D01*
X229786959Y46207603D01*
X229828613Y45971374D01*
X229831460Y45960747D01*
X229913502Y45735340D01*
X229918152Y45725368D01*
X230038088Y45517632D01*
X230044399Y45508619D01*
X230088370Y45456217D01*
X228983885Y44351731D01*
X228886423Y44377481D01*
X228876242Y44379294D01*
X228624770Y44403065D01*
X228614429Y44403192D01*
X228362451Y44385571D01*
X228352229Y44384007D01*
X228106513Y44325469D01*
X228096683Y44322257D01*
X227863827Y44224373D01*
X227854654Y44219598D01*
X227640912Y44084997D01*
X227632642Y44078788D01*
X227595923Y44046188D01*
X227590063Y44068059D01*
X227577320Y44092539D01*
X227446210Y44248790D01*
X227429321Y44262961D01*
X227255080Y44363559D01*
X227234363Y44371100D01*
X227041662Y44405078D01*
X227030701Y44406037D01*
X227013500Y44406037D01*
X227013500Y46312819D01*
X227290859Y46387137D01*
X227315339Y46399880D01*
X227471590Y46530990D01*
X227485761Y46547879D01*
X227578296Y46708156D01*
X227824177Y46708156D01*
X227840397Y46584947D01*
X228073868Y46450152D01*
X228083840Y46445502D01*
X228309247Y46363460D01*
X228319874Y46360613D01*
X228556103Y46318959D01*
X228567064Y46318000D01*
X228806936Y46318000D01*
X228817897Y46318959D01*
X229054126Y46360613D01*
X229064753Y46363460D01*
X229290160Y46445502D01*
X229300132Y46450152D01*
X229533603Y46584947D01*
X229549823Y46708156D01*
X228739191Y47518790D01*
X228634809Y47518790D01*
X227824177Y46708156D01*
X227578296Y46708156D01*
X227586359Y46722120D01*
X227593900Y46742837D01*
X227620235Y46892194D01*
X227643156Y46889177D01*
X228453790Y47699809D01*
X228453790Y47804191D01*
X228920210Y47804191D01*
X228920210Y47699809D01*
X229730844Y46889177D01*
X229854053Y46905397D01*
X229988848Y47138868D01*
X229993498Y47148840D01*
X230075540Y47374247D01*
X230078387Y47384874D01*
X230120041Y47621103D01*
X230121000Y47632064D01*
X230121000Y47871936D01*
X230120041Y47882897D01*
X230078387Y48119126D01*
X230075540Y48129753D01*
X229993498Y48355160D01*
X229988848Y48365132D01*
X229854053Y48598603D01*
X229730844Y48614823D01*
X228920210Y47804191D01*
X228453790Y47804191D01*
X227643156Y48614823D01*
X227617358Y48611427D01*
X227567944Y48795844D01*
X227824177Y48795844D01*
X228634809Y47985210D01*
X228739191Y47985210D01*
X229549823Y48795844D01*
X229533603Y48919053D01*
X229300132Y49053848D01*
X229290160Y49058498D01*
X229064753Y49140540D01*
X229054126Y49143387D01*
X228817897Y49185041D01*
X228806936Y49186000D01*
X228567064Y49186000D01*
X228556103Y49185041D01*
X228319874Y49143387D01*
X228309247Y49140540D01*
X228083840Y49058498D01*
X228073868Y49053848D01*
X227840397Y48919053D01*
X227824177Y48795844D01*
X227567944Y48795844D01*
X227551863Y48855859D01*
X227539120Y48880339D01*
X227408010Y49036590D01*
X227391121Y49050761D01*
X227216880Y49151359D01*
X227196163Y49158900D01*
X227013500Y49191108D01*
X227013500Y49945410D01*
X227017297Y49962191D01*
X227018737Y49980086D01*
X227013500Y50064495D01*
X227013500Y50092778D01*
X227012863Y50101720D01*
X227009912Y50122326D01*
X227005200Y50198275D01*
X227001560Y50215854D01*
X226993202Y50239007D01*
X226989712Y50263377D01*
X226984673Y50280609D01*
X226953169Y50349898D01*
X226927264Y50421657D01*
X226918604Y50437824D01*
X226904565Y50456796D01*
X226894192Y50479612D01*
X226884519Y50494737D01*
X226827674Y50560709D01*
X226814913Y50577954D01*
X226808809Y50585038D01*
X226793644Y50600202D01*
X226741820Y50660347D01*
X226728291Y50672149D01*
X226709549Y50684297D01*
X225377560Y52016286D01*
X225382179Y52042482D01*
X230166820Y52042482D01*
X230193113Y51893374D01*
X230195960Y51882747D01*
X230278002Y51657340D01*
X230282652Y51647368D01*
X230402588Y51439632D01*
X230408899Y51430619D01*
X230563087Y51246866D01*
X230570866Y51239087D01*
X230754619Y51084899D01*
X230763632Y51078588D01*
X230971368Y50958652D01*
X230981340Y50954002D01*
X231206747Y50871960D01*
X231217374Y50869113D01*
X231366482Y50842820D01*
X231456500Y50918354D01*
X231456500Y52058691D01*
X231382691Y52132500D01*
X230242354Y52132500D01*
X230166820Y52042482D01*
X225382179Y52042482D01*
X225397541Y52129603D01*
X225398500Y52140564D01*
X225398500Y52380436D01*
X225397541Y52391397D01*
X225355887Y52627626D01*
X225353040Y52638253D01*
X225270998Y52863660D01*
X225266348Y52873632D01*
X225146412Y53081368D01*
X225140101Y53090381D01*
X224985913Y53274134D01*
X224978134Y53281913D01*
X224794381Y53436101D01*
X224785368Y53442412D01*
X224741048Y53468000D01*
X230807952Y53468000D01*
X230763632Y53442412D01*
G37*
X230763632Y53442412D02*
X230754619Y53436101D01*
X230570866Y53281913D01*
X230563087Y53274134D01*
X230408899Y53090381D01*
X230402588Y53081368D01*
X230282652Y52873632D01*
X230278002Y52863660D01*
X230195960Y52638253D01*
X230193113Y52627626D01*
X230166820Y52478518D01*
X230242354Y52388500D01*
X231712500Y52388500D01*
X231712500Y50918354D01*
X231736701Y50898047D01*
X231447714Y50609060D01*
X231334397Y50629041D01*
X231323436Y50630000D01*
X231083564Y50630000D01*
X231072603Y50629041D01*
X230836374Y50587387D01*
X230825747Y50584540D01*
X230600340Y50502498D01*
X230590368Y50497848D01*
X230382632Y50377912D01*
X230373619Y50371601D01*
X230189866Y50217413D01*
X230182087Y50209634D01*
X230027899Y50025881D01*
X230021588Y50016868D01*
X229901652Y49809132D01*
X229897002Y49799160D01*
X229814960Y49573753D01*
X229812113Y49563126D01*
X229770459Y49326897D01*
X229769500Y49315936D01*
X229769500Y49076064D01*
X229770459Y49065103D01*
X229812113Y48828874D01*
X229814960Y48818247D01*
X229897002Y48592840D01*
X229901652Y48582868D01*
X230021588Y48375132D01*
X230027899Y48366119D01*
X230182087Y48182366D01*
X230189866Y48174587D01*
X230373619Y48020399D01*
X230377000Y48018032D01*
X230377001Y47503094D01*
X230206366Y47359913D01*
X230198587Y47352134D01*
X230044399Y47168381D01*
X230038088Y47159368D01*
X229918152Y46951632D01*
X229913502Y46941660D01*
X229831460Y46716253D01*
X229828613Y46705626D01*
X229786959Y46469397D01*
X229786000Y46458436D01*
X229786000Y46218564D01*
X229786959Y46207603D01*
X229828613Y45971374D01*
X229831460Y45960747D01*
X229913502Y45735340D01*
X229918152Y45725368D01*
X230038088Y45517632D01*
X230044399Y45508619D01*
X230088370Y45456217D01*
X228983885Y44351731D01*
X228886423Y44377481D01*
X228876242Y44379294D01*
X228624770Y44403065D01*
X228614429Y44403192D01*
X228362451Y44385571D01*
X228352229Y44384007D01*
X228106513Y44325469D01*
X228096683Y44322257D01*
X227863827Y44224373D01*
X227854654Y44219598D01*
X227640912Y44084997D01*
X227632642Y44078788D01*
X227595923Y44046188D01*
X227590063Y44068059D01*
X227577320Y44092539D01*
X227446210Y44248790D01*
X227429321Y44262961D01*
X227255080Y44363559D01*
X227234363Y44371100D01*
X227041662Y44405078D01*
X227030701Y44406037D01*
X227013500Y44406037D01*
X227013500Y46312819D01*
X227290859Y46387137D01*
X227315339Y46399880D01*
X227471590Y46530990D01*
X227485761Y46547879D01*
X227578296Y46708156D01*
X227824177Y46708156D01*
X227840397Y46584947D01*
X228073868Y46450152D01*
X228083840Y46445502D01*
X228309247Y46363460D01*
X228319874Y46360613D01*
X228556103Y46318959D01*
X228567064Y46318000D01*
X228806936Y46318000D01*
X228817897Y46318959D01*
X229054126Y46360613D01*
X229064753Y46363460D01*
X229290160Y46445502D01*
X229300132Y46450152D01*
X229533603Y46584947D01*
X229549823Y46708156D01*
X228739191Y47518790D01*
X228634809Y47518790D01*
X227824177Y46708156D01*
X227578296Y46708156D01*
X227586359Y46722120D01*
X227593900Y46742837D01*
X227620235Y46892194D01*
X227643156Y46889177D01*
X228453790Y47699809D01*
X228453790Y47804191D01*
X228920210Y47804191D01*
X228920210Y47699809D01*
X229730844Y46889177D01*
X229854053Y46905397D01*
X229988848Y47138868D01*
X229993498Y47148840D01*
X230075540Y47374247D01*
X230078387Y47384874D01*
X230120041Y47621103D01*
X230121000Y47632064D01*
X230121000Y47871936D01*
X230120041Y47882897D01*
X230078387Y48119126D01*
X230075540Y48129753D01*
X229993498Y48355160D01*
X229988848Y48365132D01*
X229854053Y48598603D01*
X229730844Y48614823D01*
X228920210Y47804191D01*
X228453790Y47804191D01*
X227643156Y48614823D01*
X227617358Y48611427D01*
X227567944Y48795844D01*
X227824177Y48795844D01*
X228634809Y47985210D01*
X228739191Y47985210D01*
X229549823Y48795844D01*
X229533603Y48919053D01*
X229300132Y49053848D01*
X229290160Y49058498D01*
X229064753Y49140540D01*
X229054126Y49143387D01*
X228817897Y49185041D01*
X228806936Y49186000D01*
X228567064Y49186000D01*
X228556103Y49185041D01*
X228319874Y49143387D01*
X228309247Y49140540D01*
X228083840Y49058498D01*
X228073868Y49053848D01*
X227840397Y48919053D01*
X227824177Y48795844D01*
X227567944Y48795844D01*
X227551863Y48855859D01*
X227539120Y48880339D01*
X227408010Y49036590D01*
X227391121Y49050761D01*
X227216880Y49151359D01*
X227196163Y49158900D01*
X227013500Y49191108D01*
X227013500Y49945410D01*
X227017297Y49962191D01*
X227018737Y49980086D01*
X227013500Y50064495D01*
X227013500Y50092778D01*
X227012863Y50101720D01*
X227009912Y50122326D01*
X227005200Y50198275D01*
X227001560Y50215854D01*
X226993202Y50239007D01*
X226989712Y50263377D01*
X226984673Y50280609D01*
X226953169Y50349898D01*
X226927264Y50421657D01*
X226918604Y50437824D01*
X226904565Y50456796D01*
X226894192Y50479612D01*
X226884519Y50494737D01*
X226827674Y50560709D01*
X226814913Y50577954D01*
X226808809Y50585038D01*
X226793644Y50600202D01*
X226741820Y50660347D01*
X226728291Y50672149D01*
X226709549Y50684297D01*
X225377560Y52016286D01*
X225382179Y52042482D01*
X230166820Y52042482D01*
X230193113Y51893374D01*
X230195960Y51882747D01*
X230278002Y51657340D01*
X230282652Y51647368D01*
X230402588Y51439632D01*
X230408899Y51430619D01*
X230563087Y51246866D01*
X230570866Y51239087D01*
X230754619Y51084899D01*
X230763632Y51078588D01*
X230971368Y50958652D01*
X230981340Y50954002D01*
X231206747Y50871960D01*
X231217374Y50869113D01*
X231366482Y50842820D01*
X231456500Y50918354D01*
X231456500Y52058691D01*
X231382691Y52132500D01*
X230242354Y52132500D01*
X230166820Y52042482D01*
X225382179Y52042482D01*
X225397541Y52129603D01*
X225398500Y52140564D01*
X225398500Y52380436D01*
X225397541Y52391397D01*
X225355887Y52627626D01*
X225353040Y52638253D01*
X225270998Y52863660D01*
X225266348Y52873632D01*
X225146412Y53081368D01*
X225140101Y53090381D01*
X224985913Y53274134D01*
X224978134Y53281913D01*
X224794381Y53436101D01*
X224785368Y53442412D01*
X224741048Y53468000D01*
X230807952Y53468000D01*
X230763632Y53442412D01*
M02*
