G04 #@! TF.GenerationSoftware,KiCad,Pcbnew,(5.99.0-1279-g292a9fadd)*
G04 #@! TF.CreationDate,2020-04-12T10:51:11+03:00*
G04 #@! TF.ProjectId,cabeza-de-carne,63616265-7a61-42d6-9465-2d6361726e65,rev?*
G04 #@! TF.SameCoordinates,Original*
G04 #@! TF.FileFunction,Legend,Top*
G04 #@! TF.FilePolarity,Positive*
%FSLAX46Y46*%
G04 Gerber Fmt 4.6, Leading zero omitted, Abs format (unit mm)*
G04 Created by KiCad (PCBNEW (5.99.0-1279-g292a9fadd)) date 2020-04-12 10:51:11*
%MOMM*%
%LPD*%
G01*
G04 APERTURE LIST*
%ADD10C,0.152400*%
%ADD11C,0.127000*%
%ADD12C,0.120000*%
%ADD13C,0.150000*%
%ADD14C,0.100000*%
%ADD15O,2.032400X2.032400*%
%ADD16O,2.102000X2.102000*%
%ADD17C,1.902000*%
%ADD18O,2.642000X2.642000*%
%ADD19O,1.702000X1.702000*%
%ADD20C,1.702000*%
G04 APERTURE END LIST*
D10*
X234645217Y36875100D02*
X234645217Y40137100D01*
X230657417Y39475300D02*
G75*
G03*
X230657417Y37536900I2209800J-969200D01*
G01*
X234645218Y40137101D02*
G75*
G03*
X230657417Y39475000I-1778018J-1631301D01*
G01*
X230657418Y37537201D02*
G75*
G03*
X234645217Y36875100I2209782J969199D01*
G01*
X234568983Y40077500D02*
G75*
G03*
X234568983Y42015900I-2209800J969200D01*
G01*
X234568982Y42015599D02*
G75*
G03*
X230581183Y42677700I-2209782J-969199D01*
G01*
X230581182Y39415699D02*
G75*
G03*
X234568983Y40077800I1778018J1631301D01*
G01*
X230581183Y42677700D02*
X230581183Y39415700D01*
X249986800Y46291500D02*
X249986800Y42227500D01*
X249986800Y46291500D02*
X247446800Y46291500D01*
X247446800Y42227500D02*
X247446800Y46291500D01*
X247446800Y42227500D02*
X249986800Y42227500D01*
G36*
X249986800Y42608500D02*
G01*
X247446800Y42608500D01*
X247446800Y43116500D01*
X249986800Y43116500D01*
X249986800Y42608500D01*
G37*
G36*
X249097800Y41846500D02*
G01*
X248335800Y41846500D01*
X248335800Y42227500D01*
X249097800Y42227500D01*
X249097800Y41846500D01*
G37*
G36*
X249097800Y46291500D02*
G01*
X248335800Y46291500D01*
X248335800Y46672500D01*
X249097800Y46672500D01*
X249097800Y46291500D01*
G37*
D11*
X244157501Y28765499D02*
X244157501Y31813499D01*
X241109501Y28765499D02*
X244157501Y28765499D01*
X241109501Y31813499D02*
X241109501Y28765499D01*
X239077501Y28765499D02*
X239077501Y31813499D01*
X236029501Y28765499D02*
X239077501Y28765499D01*
X236029501Y31813499D02*
X236029501Y28765499D01*
X233997501Y28765499D02*
X233997501Y31813499D01*
X230949501Y28765499D02*
X233997501Y28765499D01*
X230949501Y31813499D02*
X230949501Y28765499D01*
X241109501Y31813499D02*
X244157501Y31813499D01*
X236029501Y31813499D02*
X239077501Y31813499D01*
X230949501Y31813499D02*
X233997501Y31813499D01*
D12*
X227819200Y34593200D02*
X227819200Y34263200D01*
X234359200Y34593200D02*
X227819200Y34593200D01*
X234359200Y34263200D02*
X234359200Y34593200D01*
X227819200Y31853200D02*
X227819200Y32183200D01*
X234359200Y31853200D02*
X227819200Y31853200D01*
X234359200Y32183200D02*
X234359200Y31853200D01*
X250137600Y37204400D02*
X249807600Y37204400D01*
X250137600Y30664400D02*
X250137600Y37204400D01*
X249807600Y30664400D02*
X250137600Y30664400D01*
X247397600Y37204400D02*
X247727600Y37204400D01*
X247397600Y30664400D02*
X247397600Y37204400D01*
X247727600Y30664400D02*
X247397600Y30664400D01*
X233902000Y51081000D02*
X233902000Y51411000D01*
X227362000Y51081000D02*
X233902000Y51081000D01*
X227362000Y51411000D02*
X227362000Y51081000D01*
X233902000Y53821000D02*
X233902000Y53491000D01*
X227362000Y53821000D02*
X233902000Y53821000D01*
X227362000Y53491000D02*
X227362000Y53821000D01*
X243198400Y42013200D02*
X243198400Y42343200D01*
X236658400Y42013200D02*
X243198400Y42013200D01*
X236658400Y42343200D02*
X236658400Y42013200D01*
X243198400Y44753200D02*
X243198400Y44423200D01*
X236658400Y44753200D02*
X243198400Y44753200D01*
X236658400Y44423200D02*
X236658400Y44753200D01*
X237077500Y53821000D02*
X237077500Y53491000D01*
X243617500Y53821000D02*
X237077500Y53821000D01*
X243617500Y53491000D02*
X243617500Y53821000D01*
X237077500Y51081000D02*
X237077500Y51411000D01*
X243617500Y51081000D02*
X237077500Y51081000D01*
X243617500Y51411000D02*
X243617500Y51081000D01*
X236658400Y41705200D02*
X236658400Y41375200D01*
X243198400Y41705200D02*
X236658400Y41705200D01*
X243198400Y41375200D02*
X243198400Y41705200D01*
X236658400Y38965200D02*
X236658400Y39295200D01*
X243198400Y38965200D02*
X236658400Y38965200D01*
X243198400Y39295200D02*
X243198400Y38965200D01*
X244400400Y30664400D02*
X244730400Y30664400D01*
X244400400Y37204400D02*
X244400400Y30664400D01*
X244730400Y37204400D02*
X244400400Y37204400D01*
X247140400Y30664400D02*
X246810400Y30664400D01*
X247140400Y37204400D02*
X247140400Y30664400D01*
X246810400Y37204400D02*
X247140400Y37204400D01*
D10*
X226009183Y42677700D02*
X226009183Y39415700D01*
X226009182Y39415699D02*
G75*
G03*
X229996983Y40077800I1778018J1631301D01*
G01*
X229996982Y42015599D02*
G75*
G03*
X226009183Y42677700I-2209782J-969199D01*
G01*
X229996983Y40077500D02*
G75*
G03*
X229996983Y42015900I-2209800J969200D01*
G01*
D11*
X245237000Y53594000D02*
X250317000Y53594000D01*
X250317000Y51054000D02*
X245237000Y51054000D01*
X245237000Y51054000D02*
X245237000Y53594000D01*
X250317000Y51054000D02*
X250317000Y53594000D01*
X250317000Y49784000D02*
X245237000Y49784000D01*
X245237000Y49784000D02*
X245237000Y51054000D01*
X250317000Y49784000D02*
X250317000Y51054000D01*
X242620800Y27381200D02*
X242620800Y28651200D01*
X232460800Y27381200D02*
X232460800Y28651200D01*
X242620800Y28651200D02*
X232460800Y28651200D01*
X242620800Y24841200D02*
X242620800Y27381200D01*
X232460800Y24841200D02*
X232460800Y27381200D01*
X242620800Y24841200D02*
X232460800Y24841200D01*
X232460800Y27381200D02*
X242620800Y27381200D01*
D12*
X241900225Y49159500D02*
X241900225Y48659500D01*
X241650225Y48909500D02*
X242150225Y48909500D01*
X247056000Y47718500D02*
X247056000Y47150500D01*
X247016000Y47952500D02*
X247016000Y46916500D01*
X246976000Y48111500D02*
X246976000Y46757500D01*
X246936000Y48239500D02*
X246936000Y46629500D01*
X246896000Y48349500D02*
X246896000Y46519500D01*
X246856000Y48445500D02*
X246856000Y46423500D01*
X246816000Y48532500D02*
X246816000Y46336500D01*
X246776000Y48612500D02*
X246776000Y46256500D01*
X246736000Y46394500D02*
X246736000Y46183500D01*
X246736000Y48685500D02*
X246736000Y48474500D01*
X246696000Y46394500D02*
X246696000Y46115500D01*
X246696000Y48753500D02*
X246696000Y48474500D01*
X246656000Y46394500D02*
X246656000Y46051500D01*
X246656000Y48817500D02*
X246656000Y48474500D01*
X246616000Y46394500D02*
X246616000Y45991500D01*
X246616000Y48877500D02*
X246616000Y48474500D01*
X246576000Y46394500D02*
X246576000Y45934500D01*
X246576000Y48934500D02*
X246576000Y48474500D01*
X246536000Y46394500D02*
X246536000Y45880500D01*
X246536000Y48988500D02*
X246536000Y48474500D01*
X246496000Y46394500D02*
X246496000Y45829500D01*
X246496000Y49039500D02*
X246496000Y48474500D01*
X246456000Y46394500D02*
X246456000Y45781500D01*
X246456000Y49087500D02*
X246456000Y48474500D01*
X246416000Y46394500D02*
X246416000Y45735500D01*
X246416000Y49133500D02*
X246416000Y48474500D01*
X246376000Y46394500D02*
X246376000Y45691500D01*
X246376000Y49177500D02*
X246376000Y48474500D01*
X246336000Y46394500D02*
X246336000Y45649500D01*
X246336000Y49219500D02*
X246336000Y48474500D01*
X246296000Y46394500D02*
X246296000Y45608500D01*
X246296000Y49260500D02*
X246296000Y48474500D01*
X246256000Y46394500D02*
X246256000Y45570500D01*
X246256000Y49298500D02*
X246256000Y48474500D01*
X246216000Y46394500D02*
X246216000Y45533500D01*
X246216000Y49335500D02*
X246216000Y48474500D01*
X246176000Y46394500D02*
X246176000Y45497500D01*
X246176000Y49371500D02*
X246176000Y48474500D01*
X246136000Y46394500D02*
X246136000Y45463500D01*
X246136000Y49405500D02*
X246136000Y48474500D01*
X246096000Y46394500D02*
X246096000Y45430500D01*
X246096000Y49438500D02*
X246096000Y48474500D01*
X246056000Y46394500D02*
X246056000Y45399500D01*
X246056000Y49469500D02*
X246056000Y48474500D01*
X246016000Y46394500D02*
X246016000Y45369500D01*
X246016000Y49499500D02*
X246016000Y48474500D01*
X245976000Y46394500D02*
X245976000Y45339500D01*
X245976000Y49529500D02*
X245976000Y48474500D01*
X245936000Y46394500D02*
X245936000Y45312500D01*
X245936000Y49556500D02*
X245936000Y48474500D01*
X245896000Y46394500D02*
X245896000Y45285500D01*
X245896000Y49583500D02*
X245896000Y48474500D01*
X245856000Y46394500D02*
X245856000Y45259500D01*
X245856000Y49609500D02*
X245856000Y48474500D01*
X245816000Y46394500D02*
X245816000Y45234500D01*
X245816000Y49634500D02*
X245816000Y48474500D01*
X245776000Y46394500D02*
X245776000Y45210500D01*
X245776000Y49658500D02*
X245776000Y48474500D01*
X245736000Y46394500D02*
X245736000Y45187500D01*
X245736000Y49681500D02*
X245736000Y48474500D01*
X245696000Y46394500D02*
X245696000Y45166500D01*
X245696000Y49702500D02*
X245696000Y48474500D01*
X245656000Y46394500D02*
X245656000Y45144500D01*
X245656000Y49724500D02*
X245656000Y48474500D01*
X245616000Y46394500D02*
X245616000Y45124500D01*
X245616000Y49744500D02*
X245616000Y48474500D01*
X245576000Y46394500D02*
X245576000Y45105500D01*
X245576000Y49763500D02*
X245576000Y48474500D01*
X245536000Y46394500D02*
X245536000Y45086500D01*
X245536000Y49782500D02*
X245536000Y48474500D01*
X245496000Y46394500D02*
X245496000Y45069500D01*
X245496000Y49799500D02*
X245496000Y48474500D01*
X245456000Y46394500D02*
X245456000Y45052500D01*
X245456000Y49816500D02*
X245456000Y48474500D01*
X245416000Y46394500D02*
X245416000Y45036500D01*
X245416000Y49832500D02*
X245416000Y48474500D01*
X245376000Y46394500D02*
X245376000Y45020500D01*
X245376000Y49848500D02*
X245376000Y48474500D01*
X245336000Y46394500D02*
X245336000Y45006500D01*
X245336000Y49862500D02*
X245336000Y48474500D01*
X245296000Y46394500D02*
X245296000Y44992500D01*
X245296000Y49876500D02*
X245296000Y48474500D01*
X245256000Y46394500D02*
X245256000Y44979500D01*
X245256000Y49889500D02*
X245256000Y48474500D01*
X245216000Y46394500D02*
X245216000Y44966500D01*
X245216000Y49902500D02*
X245216000Y48474500D01*
X245176000Y46394500D02*
X245176000Y44954500D01*
X245176000Y49914500D02*
X245176000Y48474500D01*
X245135000Y46394500D02*
X245135000Y44943500D01*
X245135000Y49925500D02*
X245135000Y48474500D01*
X245095000Y46394500D02*
X245095000Y44933500D01*
X245095000Y49935500D02*
X245095000Y48474500D01*
X245055000Y46394500D02*
X245055000Y44923500D01*
X245055000Y49945500D02*
X245055000Y48474500D01*
X245015000Y46394500D02*
X245015000Y44914500D01*
X245015000Y49954500D02*
X245015000Y48474500D01*
X244975000Y46394500D02*
X244975000Y44906500D01*
X244975000Y49962500D02*
X244975000Y48474500D01*
X244935000Y46394500D02*
X244935000Y44898500D01*
X244935000Y49970500D02*
X244935000Y48474500D01*
X244895000Y46394500D02*
X244895000Y44891500D01*
X244895000Y49977500D02*
X244895000Y48474500D01*
X244855000Y46394500D02*
X244855000Y44884500D01*
X244855000Y49984500D02*
X244855000Y48474500D01*
X244815000Y46394500D02*
X244815000Y44878500D01*
X244815000Y49990500D02*
X244815000Y48474500D01*
X244775000Y46394500D02*
X244775000Y44873500D01*
X244775000Y49995500D02*
X244775000Y48474500D01*
X244735000Y46394500D02*
X244735000Y44869500D01*
X244735000Y49999500D02*
X244735000Y48474500D01*
X244695000Y46394500D02*
X244695000Y44865500D01*
X244695000Y50003500D02*
X244695000Y48474500D01*
X244655000Y50007500D02*
X244655000Y44861500D01*
X244615000Y50010500D02*
X244615000Y44858500D01*
X244575000Y50012500D02*
X244575000Y44856500D01*
X244535000Y50013500D02*
X244535000Y44855500D01*
X244495000Y50014500D02*
X244495000Y44854500D01*
X244455000Y50014500D02*
X244455000Y44854500D01*
X247075000Y47434500D02*
G75*
G03*
X247075000Y47434500I-2620000J0D01*
G01*
X228666825Y49680200D02*
X228666825Y49180200D01*
X228416825Y49430200D02*
X228916825Y49430200D01*
X233822600Y48239200D02*
X233822600Y47671200D01*
X233782600Y48473200D02*
X233782600Y47437200D01*
X233742600Y48632200D02*
X233742600Y47278200D01*
X233702600Y48760200D02*
X233702600Y47150200D01*
X233662600Y48870200D02*
X233662600Y47040200D01*
X233622600Y48966200D02*
X233622600Y46944200D01*
X233582600Y49053200D02*
X233582600Y46857200D01*
X233542600Y49133200D02*
X233542600Y46777200D01*
X233502600Y46915200D02*
X233502600Y46704200D01*
X233502600Y49206200D02*
X233502600Y48995200D01*
X233462600Y46915200D02*
X233462600Y46636200D01*
X233462600Y49274200D02*
X233462600Y48995200D01*
X233422600Y46915200D02*
X233422600Y46572200D01*
X233422600Y49338200D02*
X233422600Y48995200D01*
X233382600Y46915200D02*
X233382600Y46512200D01*
X233382600Y49398200D02*
X233382600Y48995200D01*
X233342600Y46915200D02*
X233342600Y46455200D01*
X233342600Y49455200D02*
X233342600Y48995200D01*
X233302600Y46915200D02*
X233302600Y46401200D01*
X233302600Y49509200D02*
X233302600Y48995200D01*
X233262600Y46915200D02*
X233262600Y46350200D01*
X233262600Y49560200D02*
X233262600Y48995200D01*
X233222600Y46915200D02*
X233222600Y46302200D01*
X233222600Y49608200D02*
X233222600Y48995200D01*
X233182600Y46915200D02*
X233182600Y46256200D01*
X233182600Y49654200D02*
X233182600Y48995200D01*
X233142600Y46915200D02*
X233142600Y46212200D01*
X233142600Y49698200D02*
X233142600Y48995200D01*
X233102600Y46915200D02*
X233102600Y46170200D01*
X233102600Y49740200D02*
X233102600Y48995200D01*
X233062600Y46915200D02*
X233062600Y46129200D01*
X233062600Y49781200D02*
X233062600Y48995200D01*
X233022600Y46915200D02*
X233022600Y46091200D01*
X233022600Y49819200D02*
X233022600Y48995200D01*
X232982600Y46915200D02*
X232982600Y46054200D01*
X232982600Y49856200D02*
X232982600Y48995200D01*
X232942600Y46915200D02*
X232942600Y46018200D01*
X232942600Y49892200D02*
X232942600Y48995200D01*
X232902600Y46915200D02*
X232902600Y45984200D01*
X232902600Y49926200D02*
X232902600Y48995200D01*
X232862600Y46915200D02*
X232862600Y45951200D01*
X232862600Y49959200D02*
X232862600Y48995200D01*
X232822600Y46915200D02*
X232822600Y45920200D01*
X232822600Y49990200D02*
X232822600Y48995200D01*
X232782600Y46915200D02*
X232782600Y45890200D01*
X232782600Y50020200D02*
X232782600Y48995200D01*
X232742600Y46915200D02*
X232742600Y45860200D01*
X232742600Y50050200D02*
X232742600Y48995200D01*
X232702600Y46915200D02*
X232702600Y45833200D01*
X232702600Y50077200D02*
X232702600Y48995200D01*
X232662600Y46915200D02*
X232662600Y45806200D01*
X232662600Y50104200D02*
X232662600Y48995200D01*
X232622600Y46915200D02*
X232622600Y45780200D01*
X232622600Y50130200D02*
X232622600Y48995200D01*
X232582600Y46915200D02*
X232582600Y45755200D01*
X232582600Y50155200D02*
X232582600Y48995200D01*
X232542600Y46915200D02*
X232542600Y45731200D01*
X232542600Y50179200D02*
X232542600Y48995200D01*
X232502600Y46915200D02*
X232502600Y45708200D01*
X232502600Y50202200D02*
X232502600Y48995200D01*
X232462600Y46915200D02*
X232462600Y45687200D01*
X232462600Y50223200D02*
X232462600Y48995200D01*
X232422600Y46915200D02*
X232422600Y45665200D01*
X232422600Y50245200D02*
X232422600Y48995200D01*
X232382600Y46915200D02*
X232382600Y45645200D01*
X232382600Y50265200D02*
X232382600Y48995200D01*
X232342600Y46915200D02*
X232342600Y45626200D01*
X232342600Y50284200D02*
X232342600Y48995200D01*
X232302600Y46915200D02*
X232302600Y45607200D01*
X232302600Y50303200D02*
X232302600Y48995200D01*
X232262600Y46915200D02*
X232262600Y45590200D01*
X232262600Y50320200D02*
X232262600Y48995200D01*
X232222600Y46915200D02*
X232222600Y45573200D01*
X232222600Y50337200D02*
X232222600Y48995200D01*
X232182600Y46915200D02*
X232182600Y45557200D01*
X232182600Y50353200D02*
X232182600Y48995200D01*
X232142600Y46915200D02*
X232142600Y45541200D01*
X232142600Y50369200D02*
X232142600Y48995200D01*
X232102600Y46915200D02*
X232102600Y45527200D01*
X232102600Y50383200D02*
X232102600Y48995200D01*
X232062600Y46915200D02*
X232062600Y45513200D01*
X232062600Y50397200D02*
X232062600Y48995200D01*
X232022600Y46915200D02*
X232022600Y45500200D01*
X232022600Y50410200D02*
X232022600Y48995200D01*
X231982600Y46915200D02*
X231982600Y45487200D01*
X231982600Y50423200D02*
X231982600Y48995200D01*
X231942600Y46915200D02*
X231942600Y45475200D01*
X231942600Y50435200D02*
X231942600Y48995200D01*
X231901600Y46915200D02*
X231901600Y45464200D01*
X231901600Y50446200D02*
X231901600Y48995200D01*
X231861600Y46915200D02*
X231861600Y45454200D01*
X231861600Y50456200D02*
X231861600Y48995200D01*
X231821600Y46915200D02*
X231821600Y45444200D01*
X231821600Y50466200D02*
X231821600Y48995200D01*
X231781600Y46915200D02*
X231781600Y45435200D01*
X231781600Y50475200D02*
X231781600Y48995200D01*
X231741600Y46915200D02*
X231741600Y45427200D01*
X231741600Y50483200D02*
X231741600Y48995200D01*
X231701600Y46915200D02*
X231701600Y45419200D01*
X231701600Y50491200D02*
X231701600Y48995200D01*
X231661600Y46915200D02*
X231661600Y45412200D01*
X231661600Y50498200D02*
X231661600Y48995200D01*
X231621600Y46915200D02*
X231621600Y45405200D01*
X231621600Y50505200D02*
X231621600Y48995200D01*
X231581600Y46915200D02*
X231581600Y45399200D01*
X231581600Y50511200D02*
X231581600Y48995200D01*
X231541600Y46915200D02*
X231541600Y45394200D01*
X231541600Y50516200D02*
X231541600Y48995200D01*
X231501600Y46915200D02*
X231501600Y45390200D01*
X231501600Y50520200D02*
X231501600Y48995200D01*
X231461600Y46915200D02*
X231461600Y45386200D01*
X231461600Y50524200D02*
X231461600Y48995200D01*
X231421600Y50528200D02*
X231421600Y45382200D01*
X231381600Y50531200D02*
X231381600Y45379200D01*
X231341600Y50533200D02*
X231341600Y45377200D01*
X231301600Y50534200D02*
X231301600Y45376200D01*
X231261600Y50535200D02*
X231261600Y45375200D01*
X231221600Y50535200D02*
X231221600Y45375200D01*
X233841600Y47955200D02*
G75*
G03*
X233841600Y47955200I-2620000J0D01*
G01*
X236081700Y32424700D02*
X236081700Y35164700D01*
X243321700Y32424700D02*
X243321700Y35164700D01*
X243321700Y35164700D02*
X236081700Y35164700D01*
X243321700Y32424700D02*
X236081700Y32424700D01*
X240324000Y48322600D02*
X240324000Y48007600D01*
X240324000Y50747600D02*
X240324000Y50432600D01*
X235084000Y48322600D02*
X235084000Y48007600D01*
X235084000Y50747600D02*
X235084000Y50432600D01*
X235084000Y48007600D02*
X240324000Y48007600D01*
X235084000Y50747600D02*
X240324000Y50747600D01*
X240324000Y45274600D02*
X240324000Y44959600D01*
X240324000Y47699600D02*
X240324000Y47384600D01*
X235084000Y45274600D02*
X235084000Y44959600D01*
X235084000Y47699600D02*
X235084000Y47384600D01*
X235084000Y44959600D02*
X240324000Y44959600D01*
X235084000Y47699600D02*
X240324000Y47699600D01*
X243305200Y38200000D02*
X243305200Y35460000D01*
X236065200Y38200000D02*
X236065200Y35460000D01*
X236065200Y35460000D02*
X243305200Y35460000D01*
X236065200Y38200000D02*
X243305200Y38200000D01*
D13*
X235483295Y43645709D02*
X235445200Y43569519D01*
X235369009Y43493328D01*
X235254723Y43379042D01*
X235216628Y43302852D01*
X235216628Y43226661D01*
X235407104Y43264757D02*
X235369009Y43188566D01*
X235292819Y43112376D01*
X235140438Y43074280D01*
X234873771Y43074280D01*
X234721390Y43112376D01*
X234645200Y43188566D01*
X234607104Y43264757D01*
X234607104Y43417138D01*
X234645200Y43493328D01*
X234721390Y43569519D01*
X234873771Y43607614D01*
X235140438Y43607614D01*
X235292819Y43569519D01*
X235369009Y43493328D01*
X235407104Y43417138D01*
X235407104Y43264757D01*
X234683295Y43912376D02*
X234645200Y43950471D01*
X234607104Y44026661D01*
X234607104Y44217138D01*
X234645200Y44293328D01*
X234683295Y44331423D01*
X234759485Y44369519D01*
X234835676Y44369519D01*
X234949961Y44331423D01*
X235407104Y43874280D01*
X235407104Y44369519D01*
X234422914Y41421019D02*
X234461009Y41382923D01*
X234499104Y41268638D01*
X234499104Y41192447D01*
X234461009Y41078161D01*
X234384819Y41001971D01*
X234308628Y40963876D01*
X234156247Y40925780D01*
X234041961Y40925780D01*
X233889580Y40963876D01*
X233813390Y41001971D01*
X233737200Y41078161D01*
X233699104Y41192447D01*
X233699104Y41268638D01*
X233737200Y41382923D01*
X233775295Y41421019D01*
X234080057Y38563542D02*
X234118152Y38677828D01*
X234156247Y38715923D01*
X234232438Y38754019D01*
X234346723Y38754019D01*
X234422914Y38715923D01*
X234461009Y38677828D01*
X234499104Y38601638D01*
X234499104Y38296876D01*
X233699104Y38296876D01*
X233699104Y38563542D01*
X233737200Y38639733D01*
X233775295Y38677828D01*
X233851485Y38715923D01*
X233927676Y38715923D01*
X234003866Y38677828D01*
X234041961Y38639733D01*
X234080057Y38563542D01*
X234080057Y38296876D01*
X234080057Y35667971D02*
X234080057Y35934638D01*
X234499104Y36048923D02*
X234499104Y35667971D01*
X233699104Y35667971D01*
X233699104Y36048923D01*
X231146342Y43884828D02*
X231146342Y43618161D01*
X230727295Y43503876D02*
X230727295Y43884828D01*
X231527295Y43884828D01*
X231527295Y43503876D01*
X230803485Y40798780D02*
X230765390Y40836876D01*
X230727295Y40951161D01*
X230727295Y41027352D01*
X230765390Y41141638D01*
X230841580Y41217828D01*
X230917771Y41255923D01*
X231070152Y41294019D01*
X231184438Y41294019D01*
X231336819Y41255923D01*
X231413009Y41217828D01*
X231489200Y41141638D01*
X231527295Y41027352D01*
X231527295Y40951161D01*
X231489200Y40836876D01*
X231451104Y40798780D01*
X231146342Y38322257D02*
X231108247Y38207971D01*
X231070152Y38169876D01*
X230993961Y38131780D01*
X230879676Y38131780D01*
X230803485Y38169876D01*
X230765390Y38207971D01*
X230727295Y38284161D01*
X230727295Y38588923D01*
X231527295Y38588923D01*
X231527295Y38322257D01*
X231489200Y38246066D01*
X231451104Y38207971D01*
X231374914Y38169876D01*
X231298723Y38169876D01*
X231222533Y38207971D01*
X231184438Y38246066D01*
X231146342Y38322257D01*
X231146342Y38588923D01*
X249169180Y43838904D02*
X248169180Y43838904D01*
X248169180Y44077000D01*
X248216800Y44219857D01*
X248312038Y44315095D01*
X248407276Y44362714D01*
X248597752Y44410333D01*
X248740609Y44410333D01*
X248931085Y44362714D01*
X249026323Y44315095D01*
X249121561Y44219857D01*
X249169180Y44077000D01*
X249169180Y43838904D01*
X248264419Y44791285D02*
X248216800Y44838904D01*
X248169180Y44934142D01*
X248169180Y45172238D01*
X248216800Y45267476D01*
X248264419Y45315095D01*
X248359657Y45362714D01*
X248454895Y45362714D01*
X248597752Y45315095D01*
X249169180Y44743666D01*
X249169180Y45362714D01*
D14*
X244124118Y31972188D02*
X243682883Y31972188D01*
X243903501Y31972188D02*
X243903501Y32744348D01*
X243829961Y32634039D01*
X243756422Y32560500D01*
X243682883Y32523731D01*
D13*
X230922533Y32813320D02*
X230589200Y33289510D01*
X230351104Y32813320D02*
X230351104Y33813320D01*
X230732057Y33813320D01*
X230827295Y33765701D01*
X230874914Y33718081D01*
X230922533Y33622843D01*
X230922533Y33479986D01*
X230874914Y33384748D01*
X230827295Y33337129D01*
X230732057Y33289510D01*
X230351104Y33289510D01*
X231255866Y33813320D02*
X231922533Y33813320D01*
X231493961Y32813320D01*
X249219980Y33767733D02*
X248743790Y33434400D01*
X249219980Y33196304D02*
X248219980Y33196304D01*
X248219980Y33577257D01*
X248267600Y33672495D01*
X248315219Y33720114D01*
X248410457Y33767733D01*
X248553314Y33767733D01*
X248648552Y33720114D01*
X248696171Y33672495D01*
X248743790Y33577257D01*
X248743790Y33196304D01*
X248219980Y34624876D02*
X248219980Y34434400D01*
X248267600Y34339161D01*
X248315219Y34291542D01*
X248458076Y34196304D01*
X248648552Y34148685D01*
X249029504Y34148685D01*
X249124742Y34196304D01*
X249172361Y34243923D01*
X249219980Y34339161D01*
X249219980Y34529638D01*
X249172361Y34624876D01*
X249124742Y34672495D01*
X249029504Y34720114D01*
X248791409Y34720114D01*
X248696171Y34672495D01*
X248648552Y34624876D01*
X248600933Y34529638D01*
X248600933Y34339161D01*
X248648552Y34243923D01*
X248696171Y34196304D01*
X248791409Y34148685D01*
X230465333Y51998619D02*
X230132000Y52474809D01*
X229893904Y51998619D02*
X229893904Y52998619D01*
X230274857Y52998619D01*
X230370095Y52951000D01*
X230417714Y52903380D01*
X230465333Y52808142D01*
X230465333Y52665285D01*
X230417714Y52570047D01*
X230370095Y52522428D01*
X230274857Y52474809D01*
X229893904Y52474809D01*
X231370095Y52998619D02*
X230893904Y52998619D01*
X230846285Y52522428D01*
X230893904Y52570047D01*
X230989142Y52617666D01*
X231227238Y52617666D01*
X231322476Y52570047D01*
X231370095Y52522428D01*
X231417714Y52427190D01*
X231417714Y52189095D01*
X231370095Y52093857D01*
X231322476Y52046238D01*
X231227238Y51998619D01*
X230989142Y51998619D01*
X230893904Y52046238D01*
X230846285Y52093857D01*
X239761733Y42930819D02*
X239428400Y43407009D01*
X239190304Y42930819D02*
X239190304Y43930819D01*
X239571257Y43930819D01*
X239666495Y43883200D01*
X239714114Y43835580D01*
X239761733Y43740342D01*
X239761733Y43597485D01*
X239714114Y43502247D01*
X239666495Y43454628D01*
X239571257Y43407009D01*
X239190304Y43407009D01*
X240618876Y43597485D02*
X240618876Y42930819D01*
X240380780Y43978438D02*
X240142685Y43264152D01*
X240761733Y43264152D01*
X240180833Y51998619D02*
X239847500Y52474809D01*
X239609404Y51998619D02*
X239609404Y52998619D01*
X239990357Y52998619D01*
X240085595Y52951000D01*
X240133214Y52903380D01*
X240180833Y52808142D01*
X240180833Y52665285D01*
X240133214Y52570047D01*
X240085595Y52522428D01*
X239990357Y52474809D01*
X239609404Y52474809D01*
X240514166Y52998619D02*
X241133214Y52998619D01*
X240799880Y52617666D01*
X240942738Y52617666D01*
X241037976Y52570047D01*
X241085595Y52522428D01*
X241133214Y52427190D01*
X241133214Y52189095D01*
X241085595Y52093857D01*
X241037976Y52046238D01*
X240942738Y51998619D01*
X240657023Y51998619D01*
X240561785Y52046238D01*
X240514166Y52093857D01*
X239761733Y39882819D02*
X239428400Y40359009D01*
X239190304Y39882819D02*
X239190304Y40882819D01*
X239571257Y40882819D01*
X239666495Y40835200D01*
X239714114Y40787580D01*
X239761733Y40692342D01*
X239761733Y40549485D01*
X239714114Y40454247D01*
X239666495Y40406628D01*
X239571257Y40359009D01*
X239190304Y40359009D01*
X240142685Y40787580D02*
X240190304Y40835200D01*
X240285542Y40882819D01*
X240523638Y40882819D01*
X240618876Y40835200D01*
X240666495Y40787580D01*
X240714114Y40692342D01*
X240714114Y40597104D01*
X240666495Y40454247D01*
X240095066Y39882819D01*
X240714114Y39882819D01*
X246222780Y33767733D02*
X245746590Y33434400D01*
X246222780Y33196304D02*
X245222780Y33196304D01*
X245222780Y33577257D01*
X245270400Y33672495D01*
X245318019Y33720114D01*
X245413257Y33767733D01*
X245556114Y33767733D01*
X245651352Y33720114D01*
X245698971Y33672495D01*
X245746590Y33577257D01*
X245746590Y33196304D01*
X246222780Y34720114D02*
X246222780Y34148685D01*
X246222780Y34434400D02*
X245222780Y34434400D01*
X245365638Y34339161D01*
X245460876Y34243923D01*
X245508495Y34148685D01*
X229235104Y44593890D02*
X229273200Y44670080D01*
X229349390Y44746271D01*
X229463676Y44860557D01*
X229501771Y44936747D01*
X229501771Y45012938D01*
X229311295Y44974842D02*
X229349390Y45051033D01*
X229425580Y45127223D01*
X229577961Y45165319D01*
X229844628Y45165319D01*
X229997009Y45127223D01*
X230073200Y45051033D01*
X230111295Y44974842D01*
X230111295Y44822461D01*
X230073200Y44746271D01*
X229997009Y44670080D01*
X229844628Y44631985D01*
X229577961Y44631985D01*
X229425580Y44670080D01*
X229349390Y44746271D01*
X229311295Y44822461D01*
X229311295Y44974842D01*
X229311295Y43870080D02*
X229311295Y44327223D01*
X229311295Y44098652D02*
X230111295Y44098652D01*
X229997009Y44174842D01*
X229920819Y44251033D01*
X229882723Y44327223D01*
X226574342Y40989257D02*
X226536247Y40874971D01*
X226498152Y40836876D01*
X226421961Y40798780D01*
X226307676Y40798780D01*
X226231485Y40836876D01*
X226193390Y40874971D01*
X226155295Y40951161D01*
X226155295Y41255923D01*
X226955295Y41255923D01*
X226955295Y40989257D01*
X226917200Y40913066D01*
X226879104Y40874971D01*
X226802914Y40836876D01*
X226726723Y40836876D01*
X226650533Y40874971D01*
X226612438Y40913066D01*
X226574342Y40989257D01*
X226574342Y41255923D01*
X225977485Y38258780D02*
X225939390Y38296876D01*
X225901295Y38411161D01*
X225901295Y38487352D01*
X225939390Y38601638D01*
X226015580Y38677828D01*
X226091771Y38715923D01*
X226244152Y38754019D01*
X226358438Y38754019D01*
X226510819Y38715923D01*
X226587009Y38677828D01*
X226663200Y38601638D01*
X226701295Y38487352D01*
X226701295Y38411161D01*
X226663200Y38296876D01*
X226625104Y38258780D01*
X226320342Y43757828D02*
X226320342Y43491161D01*
X225901295Y43376876D02*
X225901295Y43757828D01*
X226701295Y43757828D01*
X226701295Y43376876D01*
X245821295Y50882495D02*
X246087961Y50082495D01*
X246354628Y50882495D01*
X246621295Y50387257D02*
X247230819Y50387257D01*
X246926057Y50082495D02*
X246926057Y50692019D01*
X248373976Y50819000D02*
X248297785Y50857095D01*
X248183500Y50857095D01*
X248069214Y50819000D01*
X247993023Y50742809D01*
X247954928Y50666619D01*
X247916833Y50514238D01*
X247916833Y50399952D01*
X247954928Y50247571D01*
X247993023Y50171380D01*
X248069214Y50095190D01*
X248183500Y50057095D01*
X248259690Y50057095D01*
X248373976Y50095190D01*
X248412071Y50133285D01*
X248412071Y50399952D01*
X248259690Y50399952D01*
X248754928Y50057095D02*
X248754928Y50857095D01*
X249212071Y50057095D01*
X249212071Y50857095D01*
X249593023Y50057095D02*
X249593023Y50857095D01*
X249783500Y50857095D01*
X249897785Y50819000D01*
X249973976Y50742809D01*
X250012071Y50666619D01*
X250050166Y50514238D01*
X250050166Y50399952D01*
X250012071Y50247571D01*
X249973976Y50171380D01*
X249897785Y50095190D01*
X249783500Y50057095D01*
X249593023Y50057095D01*
X240550800Y28454295D02*
X240703180Y28454295D01*
X240779371Y28416200D01*
X240855561Y28340009D01*
X240893657Y28187628D01*
X240893657Y27920961D01*
X240855561Y27768580D01*
X240779371Y27692390D01*
X240703180Y27654295D01*
X240550800Y27654295D01*
X240474609Y27692390D01*
X240398419Y27768580D01*
X240360323Y27920961D01*
X240360323Y28187628D01*
X240398419Y28340009D01*
X240474609Y28416200D01*
X240550800Y28454295D01*
X241236514Y28454295D02*
X241236514Y27806676D01*
X241274609Y27730485D01*
X241312704Y27692390D01*
X241388895Y27654295D01*
X241541276Y27654295D01*
X241617466Y27692390D01*
X241655561Y27730485D01*
X241693657Y27806676D01*
X241693657Y28454295D01*
X241960323Y28454295D02*
X242417466Y28454295D01*
X242188895Y27654295D02*
X242188895Y28454295D01*
X238125085Y27692390D02*
X238239371Y27654295D01*
X238429847Y27654295D01*
X238506038Y27692390D01*
X238544133Y27730485D01*
X238582228Y27806676D01*
X238582228Y27882866D01*
X238544133Y27959057D01*
X238506038Y27997152D01*
X238429847Y28035247D01*
X238277466Y28073342D01*
X238201276Y28111438D01*
X238163180Y28149533D01*
X238125085Y28225723D01*
X238125085Y28301914D01*
X238163180Y28378104D01*
X238201276Y28416200D01*
X238277466Y28454295D01*
X238467942Y28454295D01*
X238582228Y28416200D01*
X238848895Y28454295D02*
X239039371Y27654295D01*
X239191752Y28225723D01*
X239344133Y27654295D01*
X239534609Y28454295D01*
X235661276Y28416200D02*
X235585085Y28454295D01*
X235470800Y28454295D01*
X235356514Y28416200D01*
X235280323Y28340009D01*
X235242228Y28263819D01*
X235204133Y28111438D01*
X235204133Y27997152D01*
X235242228Y27844771D01*
X235280323Y27768580D01*
X235356514Y27692390D01*
X235470800Y27654295D01*
X235546990Y27654295D01*
X235661276Y27692390D01*
X235699371Y27730485D01*
X235699371Y27997152D01*
X235546990Y27997152D01*
X236042228Y27654295D02*
X236042228Y28454295D01*
X236499371Y27654295D01*
X236499371Y28454295D01*
X236880323Y27654295D02*
X236880323Y28454295D01*
X237070800Y28454295D01*
X237185085Y28416200D01*
X237261276Y28340009D01*
X237299371Y28263819D01*
X237337466Y28111438D01*
X237337466Y27997152D01*
X237299371Y27844771D01*
X237261276Y27768580D01*
X237185085Y27692390D01*
X237070800Y27654295D01*
X236880323Y27654295D01*
X233311752Y27654295D02*
X233311752Y28454295D01*
X233692704Y27654295D02*
X233692704Y28454295D01*
X234149847Y27654295D01*
X234149847Y28454295D01*
X242022333Y49871357D02*
X241974714Y49823738D01*
X241831857Y49776119D01*
X241736619Y49776119D01*
X241593761Y49823738D01*
X241498523Y49918976D01*
X241450904Y50014214D01*
X241403285Y50204690D01*
X241403285Y50347547D01*
X241450904Y50538023D01*
X241498523Y50633261D01*
X241593761Y50728500D01*
X241736619Y50776119D01*
X241831857Y50776119D01*
X241974714Y50728500D01*
X242022333Y50680880D01*
X242879476Y50776119D02*
X242689000Y50776119D01*
X242593761Y50728500D01*
X242546142Y50680880D01*
X242450904Y50538023D01*
X242403285Y50347547D01*
X242403285Y49966595D01*
X242450904Y49871357D01*
X242498523Y49823738D01*
X242593761Y49776119D01*
X242784238Y49776119D01*
X242879476Y49823738D01*
X242927095Y49871357D01*
X242974714Y49966595D01*
X242974714Y50204690D01*
X242927095Y50299928D01*
X242879476Y50347547D01*
X242784238Y50395166D01*
X242593761Y50395166D01*
X242498523Y50347547D01*
X242450904Y50299928D01*
X242403285Y50204690D01*
X228179333Y49934857D02*
X228131714Y49887238D01*
X227988857Y49839619D01*
X227893619Y49839619D01*
X227750761Y49887238D01*
X227655523Y49982476D01*
X227607904Y50077714D01*
X227560285Y50268190D01*
X227560285Y50411047D01*
X227607904Y50601523D01*
X227655523Y50696761D01*
X227750761Y50792000D01*
X227893619Y50839619D01*
X227988857Y50839619D01*
X228131714Y50792000D01*
X228179333Y50744380D01*
X229084095Y50839619D02*
X228607904Y50839619D01*
X228560285Y50363428D01*
X228607904Y50411047D01*
X228703142Y50458666D01*
X228941238Y50458666D01*
X229036476Y50411047D01*
X229084095Y50363428D01*
X229131714Y50268190D01*
X229131714Y50030095D01*
X229084095Y49934857D01*
X229036476Y49887238D01*
X228941238Y49839619D01*
X228703142Y49839619D01*
X228607904Y49887238D01*
X228560285Y49934857D01*
X239495033Y33437557D02*
X239447414Y33389938D01*
X239304557Y33342319D01*
X239209319Y33342319D01*
X239066461Y33389938D01*
X238971223Y33485176D01*
X238923604Y33580414D01*
X238875985Y33770890D01*
X238875985Y33913747D01*
X238923604Y34104223D01*
X238971223Y34199461D01*
X239066461Y34294700D01*
X239209319Y34342319D01*
X239304557Y34342319D01*
X239447414Y34294700D01*
X239495033Y34247080D01*
X240352176Y34008985D02*
X240352176Y33342319D01*
X240114080Y34389938D02*
X239875985Y33675652D01*
X240495033Y33675652D01*
X237513833Y49020457D02*
X237466214Y48972838D01*
X237323357Y48925219D01*
X237228119Y48925219D01*
X237085261Y48972838D01*
X236990023Y49068076D01*
X236942404Y49163314D01*
X236894785Y49353790D01*
X236894785Y49496647D01*
X236942404Y49687123D01*
X236990023Y49782361D01*
X237085261Y49877600D01*
X237228119Y49925219D01*
X237323357Y49925219D01*
X237466214Y49877600D01*
X237513833Y49829980D01*
X237847166Y49925219D02*
X238466214Y49925219D01*
X238132880Y49544266D01*
X238275738Y49544266D01*
X238370976Y49496647D01*
X238418595Y49449028D01*
X238466214Y49353790D01*
X238466214Y49115695D01*
X238418595Y49020457D01*
X238370976Y48972838D01*
X238275738Y48925219D01*
X237990023Y48925219D01*
X237894785Y48972838D01*
X237847166Y49020457D01*
X237513833Y45972457D02*
X237466214Y45924838D01*
X237323357Y45877219D01*
X237228119Y45877219D01*
X237085261Y45924838D01*
X236990023Y46020076D01*
X236942404Y46115314D01*
X236894785Y46305790D01*
X236894785Y46448647D01*
X236942404Y46639123D01*
X236990023Y46734361D01*
X237085261Y46829600D01*
X237228119Y46877219D01*
X237323357Y46877219D01*
X237466214Y46829600D01*
X237513833Y46781980D01*
X237894785Y46781980D02*
X237942404Y46829600D01*
X238037642Y46877219D01*
X238275738Y46877219D01*
X238370976Y46829600D01*
X238418595Y46781980D01*
X238466214Y46686742D01*
X238466214Y46591504D01*
X238418595Y46448647D01*
X237847166Y45877219D01*
X238466214Y45877219D01*
X239495033Y36472857D02*
X239447414Y36425238D01*
X239304557Y36377619D01*
X239209319Y36377619D01*
X239066461Y36425238D01*
X238971223Y36520476D01*
X238923604Y36615714D01*
X238875985Y36806190D01*
X238875985Y36949047D01*
X238923604Y37139523D01*
X238971223Y37234761D01*
X239066461Y37330000D01*
X239209319Y37377619D01*
X239304557Y37377619D01*
X239447414Y37330000D01*
X239495033Y37282380D01*
X240447414Y36377619D02*
X239875985Y36377619D01*
X240161700Y36377619D02*
X240161700Y37377619D01*
X240066461Y37234761D01*
X239971223Y37139523D01*
X239875985Y37091904D01*
%LPC*%
D15*
X232613200Y35966400D03*
X232613200Y38506400D03*
X232613200Y41046400D03*
G36*
G01*
X233578400Y42570200D02*
X231648000Y42570200D01*
G75*
G02*
X231597000Y42621200I0J51000D01*
G01*
X231597000Y44551600D01*
G75*
G02*
X231648000Y44602600I51000J0D01*
G01*
X233578400Y44602600D01*
G75*
G02*
X233629400Y44551600I0J-51000D01*
G01*
X233629400Y42621200D01*
G75*
G02*
X233578400Y42570200I-51000J0D01*
G01*
G37*
G36*
G01*
X249716800Y39398500D02*
X247716800Y39398500D01*
G75*
G02*
X247665800Y39449500I0J51000D01*
G01*
X247665800Y41449500D01*
G75*
G02*
X247716800Y41500500I51000J0D01*
G01*
X249716800Y41500500D01*
G75*
G02*
X249767800Y41449500I0J-51000D01*
G01*
X249767800Y39449500D01*
G75*
G02*
X249716800Y39398500I-51000J0D01*
G01*
G37*
D16*
X248716800Y48069500D03*
D17*
X248412000Y26771600D03*
G36*
G01*
X244921000Y25871600D02*
X244921000Y27671600D01*
G75*
G02*
X244972000Y27722600I51000J0D01*
G01*
X246772000Y27722600D01*
G75*
G02*
X246823000Y27671600I0J-51000D01*
G01*
X246823000Y25871600D01*
G75*
G02*
X246772000Y25820600I-51000J0D01*
G01*
X244972000Y25820600D01*
G75*
G02*
X244921000Y25871600I0J51000D01*
G01*
G37*
D18*
X232473501Y30289499D03*
X237553501Y30289499D03*
G36*
G01*
X243954501Y31559499D02*
X243954501Y29019499D01*
G75*
G02*
X243903501Y28968499I-51000J0D01*
G01*
X241363501Y28968499D01*
G75*
G02*
X241312501Y29019499I0J51000D01*
G01*
X241312501Y31559499D01*
G75*
G02*
X241363501Y31610499I51000J0D01*
G01*
X243903501Y31610499D01*
G75*
G02*
X243954501Y31559499I0J-51000D01*
G01*
G37*
D19*
X227279200Y33223200D03*
D20*
X234899200Y33223200D03*
D19*
X248767600Y37744400D03*
D20*
X248767600Y30124400D03*
D19*
X234442000Y52451000D03*
D20*
X226822000Y52451000D03*
D19*
X243738400Y43383200D03*
D20*
X236118400Y43383200D03*
D19*
X236537500Y52451000D03*
D20*
X244157500Y52451000D03*
D19*
X236118400Y40335200D03*
D20*
X243738400Y40335200D03*
D19*
X245770400Y30124400D03*
D20*
X245770400Y37744400D03*
D15*
X228041200Y38506400D03*
X228041200Y41046400D03*
G36*
G01*
X229006400Y42570200D02*
X227076000Y42570200D01*
G75*
G02*
X227025000Y42621200I0J51000D01*
G01*
X227025000Y44551600D01*
G75*
G02*
X227076000Y44602600I51000J0D01*
G01*
X229006400Y44602600D01*
G75*
G02*
X229057400Y44551600I0J-51000D01*
G01*
X229057400Y42621200D01*
G75*
G02*
X229006400Y42570200I-51000J0D01*
G01*
G37*
X249047000Y52324000D03*
G36*
G01*
X245490800Y51358800D02*
X245490800Y53289200D01*
G75*
G02*
X245541800Y53340200I51000J0D01*
G01*
X247472200Y53340200D01*
G75*
G02*
X247523200Y53289200I0J-51000D01*
G01*
X247523200Y51358800D01*
G75*
G02*
X247472200Y51307800I-51000J0D01*
G01*
X245541800Y51307800D01*
G75*
G02*
X245490800Y51358800I0J51000D01*
G01*
G37*
X241350800Y26111200D03*
X238810800Y26111200D03*
X236270800Y26111200D03*
G36*
G01*
X232714600Y25146000D02*
X232714600Y27076400D01*
G75*
G02*
X232765600Y27127400I51000J0D01*
G01*
X234696000Y27127400D01*
G75*
G02*
X234747000Y27076400I0J-51000D01*
G01*
X234747000Y25146000D01*
G75*
G02*
X234696000Y25095000I-51000J0D01*
G01*
X232765600Y25095000D01*
G75*
G02*
X232714600Y25146000I0J51000D01*
G01*
G37*
D20*
X245705000Y47434500D03*
G36*
G01*
X242354000Y46634500D02*
X242354000Y48234500D01*
G75*
G02*
X242405000Y48285500I51000J0D01*
G01*
X244005000Y48285500D01*
G75*
G02*
X244056000Y48234500I0J-51000D01*
G01*
X244056000Y46634500D01*
G75*
G02*
X244005000Y46583500I-51000J0D01*
G01*
X242405000Y46583500D01*
G75*
G02*
X242354000Y46634500I0J51000D01*
G01*
G37*
X232471600Y47955200D03*
G36*
G01*
X229120600Y47155200D02*
X229120600Y48755200D01*
G75*
G02*
X229171600Y48806200I51000J0D01*
G01*
X230771600Y48806200D01*
G75*
G02*
X230822600Y48755200I0J-51000D01*
G01*
X230822600Y47155200D01*
G75*
G02*
X230771600Y47104200I-51000J0D01*
G01*
X229171600Y47104200D01*
G75*
G02*
X229120600Y47155200I0J51000D01*
G01*
G37*
X237201700Y33794700D03*
X242201700Y33794700D03*
X240204000Y49377600D03*
X235204000Y49377600D03*
X240204000Y46329600D03*
X235204000Y46329600D03*
X242185200Y36830000D03*
X237185200Y36830000D03*
M02*
