M48
; DRILL file {KiCad (5.99.0-1101-g9de7547c2)} date Thu Mar 12 16:30:16 2020
; FORMAT={-:-/ absolute / inch / decimal}
; #@! TF.CreationDate,2020-03-12T16:30:16+02:00
; #@! TF.GenerationSoftware,Kicad,Pcbnew,(5.99.0-1101-g9de7547c2)
; #@! TF.FileFunction,Plated,1,2,PTH
FMAT,2
INCH
T1C0.0315
T2C0.0354
T3C0.0394
T4C0.0433
T5C0.0551
%
G90
G05
T1
X8.805Y1.365
X9.105Y1.365
X9.1031Y1.8244
X9.3Y1.8244
X8.8425Y1.2525
X9.0394Y1.2525
X9.3375Y1.465
X9.6375Y1.465
X9.2025Y2.0575
X9.5025Y2.0575
X9.1025Y1.9369
X9.2994Y1.9369
X8.805Y1.0308
X9.105Y1.0308
X8.8175Y2.0575
X9.1175Y2.0575
X8.8431Y1.145
X9.04Y1.145
X9.3375Y1.345
X9.6375Y1.345
X9.6941Y1.7775
X9.7925Y1.7775
X8.905Y1.88
X9.0034Y1.88
X9.7375Y1.5825
X9.7375Y1.2825
T2
X9.6825Y1.0825
X9.7825Y1.0825
T3
X8.9Y1.51
X9.0Y1.51
X9.1Y1.51
X8.9Y1.685
X9.0Y1.685
X9.1Y1.685
X9.2Y1.685
T4
X9.705Y2.06
X9.805Y2.06
X9.2Y1.025
X9.3Y1.025
X9.4Y1.025
X9.5Y1.025
X9.5725Y1.9825
X9.5725Y1.5825
T5
X9.1525Y1.1925
X9.3525Y1.1925
X9.5525Y1.1925
T0
M30
