G04 #@! TF.GenerationSoftware,KiCad,Pcbnew,(5.99.0-1101-g9de7547c2)*
G04 #@! TF.CreationDate,2020-03-12T16:30:11+02:00*
G04 #@! TF.ProjectId,cabeza-de-carne,63616265-7a61-42d6-9465-2d6361726e65,rev?*
G04 #@! TF.SameCoordinates,Original*
G04 #@! TF.FileFunction,Legend,Bot*
G04 #@! TF.FilePolarity,Positive*
%FSLAX46Y46*%
G04 Gerber Fmt 4.6, Leading zero omitted, Abs format (unit mm)*
G04 Created by KiCad (PCBNEW (5.99.0-1101-g9de7547c2)) date 2020-03-12 16:30:11*
%MOMM*%
%LPD*%
G01*
G04 APERTURE LIST*
%ADD10C,0.150000*%
%ADD11C,0.100000*%
%ADD12C,0.127000*%
%ADD13C,0.120000*%
%ADD14O,2.642000X2.642000*%
%ADD15R,2.642000X2.642000*%
%ADD16O,2.032400X2.032400*%
%ADD17R,2.032400X2.032400*%
%ADD18O,1.702000X1.702000*%
%ADD19C,1.702000*%
%ADD20O,2.302000X2.302000*%
%ADD21R,2.302000X2.302000*%
%ADD22C,1.902000*%
%ADD23R,1.902000X1.902000*%
%ADD24R,1.702000X1.702000*%
G04 APERTURE END LIST*
D10*
X249786000Y49220000D02*
X250352666Y49220000D01*
X250419333Y49253333D01*
X250452666Y49286666D01*
X250486000Y49353333D01*
X250486000Y49453333D01*
X250452666Y49520000D01*
X250219333Y49220000D02*
X250252666Y49286666D01*
X250252666Y49420000D01*
X250219333Y49486666D01*
X250186000Y49520000D01*
X250119333Y49553333D01*
X249919333Y49553333D01*
X249852666Y49520000D01*
X249819333Y49486666D01*
X249786000Y49420000D01*
X249786000Y49286666D01*
X249819333Y49220000D01*
X250252666Y48886666D02*
X249786000Y48886666D01*
X249552666Y48886666D02*
X249586000Y48920000D01*
X249619333Y48886666D01*
X249586000Y48853333D01*
X249552666Y48886666D01*
X249619333Y48886666D01*
X249786000Y48653333D02*
X249786000Y48386666D01*
X249552666Y48553333D02*
X250152666Y48553333D01*
X250219333Y48520000D01*
X250252666Y48453333D01*
X250252666Y48386666D01*
X250252666Y48153333D02*
X249552666Y48153333D01*
X250252666Y47853333D02*
X249886000Y47853333D01*
X249819333Y47886666D01*
X249786000Y47953333D01*
X249786000Y48053333D01*
X249819333Y48120000D01*
X249852666Y48153333D01*
X249786000Y47220000D02*
X250252666Y47220000D01*
X249786000Y47520000D02*
X250152666Y47520000D01*
X250219333Y47486666D01*
X250252666Y47420000D01*
X250252666Y47320000D01*
X250219333Y47253333D01*
X250186000Y47220000D01*
X250252666Y46886666D02*
X249552666Y46886666D01*
X249819333Y46886666D02*
X249786000Y46820000D01*
X249786000Y46686666D01*
X249819333Y46620000D01*
X249852666Y46586666D01*
X249919333Y46553333D01*
X250119333Y46553333D01*
X250186000Y46586666D01*
X250219333Y46620000D01*
X250252666Y46686666D01*
X250252666Y46820000D01*
X250219333Y46886666D01*
X250186000Y46253333D02*
X250219333Y46220000D01*
X250252666Y46253333D01*
X250219333Y46286666D01*
X250186000Y46253333D01*
X250252666Y46253333D01*
X250219333Y45620000D02*
X250252666Y45686666D01*
X250252666Y45820000D01*
X250219333Y45886666D01*
X250186000Y45920000D01*
X250119333Y45953333D01*
X249919333Y45953333D01*
X249852666Y45920000D01*
X249819333Y45886666D01*
X249786000Y45820000D01*
X249786000Y45686666D01*
X249819333Y45620000D01*
X250252666Y45220000D02*
X250219333Y45286666D01*
X250186000Y45320000D01*
X250119333Y45353333D01*
X249919333Y45353333D01*
X249852666Y45320000D01*
X249819333Y45286666D01*
X249786000Y45220000D01*
X249786000Y45120000D01*
X249819333Y45053333D01*
X249852666Y45020000D01*
X249919333Y44986666D01*
X250119333Y44986666D01*
X250186000Y45020000D01*
X250219333Y45053333D01*
X250252666Y45120000D01*
X250252666Y45220000D01*
X250252666Y44686666D02*
X249786000Y44686666D01*
X249852666Y44686666D02*
X249819333Y44653333D01*
X249786000Y44586666D01*
X249786000Y44486666D01*
X249819333Y44420000D01*
X249886000Y44386666D01*
X250252666Y44386666D01*
X249886000Y44386666D02*
X249819333Y44353333D01*
X249786000Y44286666D01*
X249786000Y44186666D01*
X249819333Y44120000D01*
X249886000Y44086666D01*
X250252666Y44086666D01*
X249519333Y43253333D02*
X250419333Y43853333D01*
X250252666Y43020000D02*
X249786000Y43020000D01*
X249919333Y43020000D02*
X249852666Y42986666D01*
X249819333Y42953333D01*
X249786000Y42886666D01*
X249786000Y42820000D01*
X250252666Y42486666D02*
X250219333Y42553333D01*
X250186000Y42586666D01*
X250119333Y42620000D01*
X249919333Y42620000D01*
X249852666Y42586666D01*
X249819333Y42553333D01*
X249786000Y42486666D01*
X249786000Y42386666D01*
X249819333Y42320000D01*
X249852666Y42286666D01*
X249919333Y42253333D01*
X250119333Y42253333D01*
X250186000Y42286666D01*
X250219333Y42320000D01*
X250252666Y42386666D01*
X250252666Y42486666D01*
X250219333Y41653333D02*
X250252666Y41720000D01*
X250252666Y41853333D01*
X250219333Y41920000D01*
X250186000Y41953333D01*
X250119333Y41986666D01*
X249919333Y41986666D01*
X249852666Y41953333D01*
X249819333Y41920000D01*
X249786000Y41853333D01*
X249786000Y41720000D01*
X249819333Y41653333D01*
X250252666Y41353333D02*
X249552666Y41353333D01*
X249986000Y41286666D02*
X250252666Y41086666D01*
X249786000Y41086666D02*
X250052666Y41353333D01*
X250252666Y40686666D02*
X250219333Y40753333D01*
X250186000Y40786666D01*
X250119333Y40820000D01*
X249919333Y40820000D01*
X249852666Y40786666D01*
X249819333Y40753333D01*
X249786000Y40686666D01*
X249786000Y40586666D01*
X249819333Y40520000D01*
X249852666Y40486666D01*
X249919333Y40453333D01*
X250119333Y40453333D01*
X250186000Y40486666D01*
X250219333Y40520000D01*
X250252666Y40586666D01*
X250252666Y40686666D01*
X250252666Y40053333D02*
X250219333Y40120000D01*
X250152666Y40153333D01*
X249552666Y40153333D01*
X250252666Y39486666D02*
X249886000Y39486666D01*
X249819333Y39520000D01*
X249786000Y39586666D01*
X249786000Y39720000D01*
X249819333Y39786666D01*
X250219333Y39486666D02*
X250252666Y39553333D01*
X250252666Y39720000D01*
X250219333Y39786666D01*
X250152666Y39820000D01*
X250086000Y39820000D01*
X250019333Y39786666D01*
X249986000Y39720000D01*
X249986000Y39553333D01*
X249952666Y39486666D01*
X249519333Y38653333D02*
X250419333Y39253333D01*
X250219333Y38120000D02*
X250252666Y38186666D01*
X250252666Y38320000D01*
X250219333Y38386666D01*
X250186000Y38420000D01*
X250119333Y38453333D01*
X249919333Y38453333D01*
X249852666Y38420000D01*
X249819333Y38386666D01*
X249786000Y38320000D01*
X249786000Y38186666D01*
X249819333Y38120000D01*
X250252666Y37520000D02*
X249886000Y37520000D01*
X249819333Y37553333D01*
X249786000Y37620000D01*
X249786000Y37753333D01*
X249819333Y37820000D01*
X250219333Y37520000D02*
X250252666Y37586666D01*
X250252666Y37753333D01*
X250219333Y37820000D01*
X250152666Y37853333D01*
X250086000Y37853333D01*
X250019333Y37820000D01*
X249986000Y37753333D01*
X249986000Y37586666D01*
X249952666Y37520000D01*
X250252666Y37186666D02*
X249552666Y37186666D01*
X249819333Y37186666D02*
X249786000Y37120000D01*
X249786000Y36986666D01*
X249819333Y36920000D01*
X249852666Y36886666D01*
X249919333Y36853333D01*
X250119333Y36853333D01*
X250186000Y36886666D01*
X250219333Y36920000D01*
X250252666Y36986666D01*
X250252666Y37120000D01*
X250219333Y37186666D01*
X250219333Y36286666D02*
X250252666Y36353333D01*
X250252666Y36486666D01*
X250219333Y36553333D01*
X250152666Y36586666D01*
X249886000Y36586666D01*
X249819333Y36553333D01*
X249786000Y36486666D01*
X249786000Y36353333D01*
X249819333Y36286666D01*
X249886000Y36253333D01*
X249952666Y36253333D01*
X250019333Y36586666D01*
X249786000Y36020000D02*
X249786000Y35653333D01*
X250252666Y36020000D01*
X250252666Y35653333D01*
X250252666Y35086666D02*
X249886000Y35086666D01*
X249819333Y35120000D01*
X249786000Y35186666D01*
X249786000Y35320000D01*
X249819333Y35386666D01*
X250219333Y35086666D02*
X250252666Y35153333D01*
X250252666Y35320000D01*
X250219333Y35386666D01*
X250152666Y35420000D01*
X250086000Y35420000D01*
X250019333Y35386666D01*
X249986000Y35320000D01*
X249986000Y35153333D01*
X249952666Y35086666D01*
X249986000Y34753333D02*
X249986000Y34220000D01*
X250252666Y33586666D02*
X249552666Y33586666D01*
X250219333Y33586666D02*
X250252666Y33653333D01*
X250252666Y33786666D01*
X250219333Y33853333D01*
X250186000Y33886666D01*
X250119333Y33920000D01*
X249919333Y33920000D01*
X249852666Y33886666D01*
X249819333Y33853333D01*
X249786000Y33786666D01*
X249786000Y33653333D01*
X249819333Y33586666D01*
X250219333Y32986666D02*
X250252666Y33053333D01*
X250252666Y33186666D01*
X250219333Y33253333D01*
X250152666Y33286666D01*
X249886000Y33286666D01*
X249819333Y33253333D01*
X249786000Y33186666D01*
X249786000Y33053333D01*
X249819333Y32986666D01*
X249886000Y32953333D01*
X249952666Y32953333D01*
X250019333Y33286666D01*
X249986000Y32653333D02*
X249986000Y32120000D01*
X250219333Y31486666D02*
X250252666Y31553333D01*
X250252666Y31686666D01*
X250219333Y31753333D01*
X250186000Y31786666D01*
X250119333Y31820000D01*
X249919333Y31820000D01*
X249852666Y31786666D01*
X249819333Y31753333D01*
X249786000Y31686666D01*
X249786000Y31553333D01*
X249819333Y31486666D01*
X250252666Y30886666D02*
X249886000Y30886666D01*
X249819333Y30920000D01*
X249786000Y30986666D01*
X249786000Y31120000D01*
X249819333Y31186666D01*
X250219333Y30886666D02*
X250252666Y30953333D01*
X250252666Y31120000D01*
X250219333Y31186666D01*
X250152666Y31220000D01*
X250086000Y31220000D01*
X250019333Y31186666D01*
X249986000Y31120000D01*
X249986000Y30953333D01*
X249952666Y30886666D01*
X250252666Y30553333D02*
X249786000Y30553333D01*
X249919333Y30553333D02*
X249852666Y30520000D01*
X249819333Y30486666D01*
X249786000Y30420000D01*
X249786000Y30353333D01*
X249786000Y30120000D02*
X250252666Y30120000D01*
X249852666Y30120000D02*
X249819333Y30086666D01*
X249786000Y30020000D01*
X249786000Y29920000D01*
X249819333Y29853333D01*
X249886000Y29820000D01*
X250252666Y29820000D01*
X250219333Y29220000D02*
X250252666Y29286666D01*
X250252666Y29420000D01*
X250219333Y29486666D01*
X250152666Y29520000D01*
X249886000Y29520000D01*
X249819333Y29486666D01*
X249786000Y29420000D01*
X249786000Y29286666D01*
X249819333Y29220000D01*
X249886000Y29186666D01*
X249952666Y29186666D01*
X250019333Y29520000D01*
X243449500Y32322333D02*
X243849500Y32322333D01*
X243649500Y32322333D02*
X243649500Y33022333D01*
X243716166Y32922333D01*
X243782833Y32855666D01*
X243849500Y32822333D01*
D11*
X236577285Y41378571D02*
X236434428Y40978571D01*
X236291571Y41378571D01*
X235948714Y41578571D02*
X235891571Y41578571D01*
X235834428Y41550000D01*
X235805857Y41521428D01*
X235777285Y41464285D01*
X235748714Y41350000D01*
X235748714Y41207142D01*
X235777285Y41092857D01*
X235805857Y41035714D01*
X235834428Y41007142D01*
X235891571Y40978571D01*
X235948714Y40978571D01*
X236005857Y41007142D01*
X236034428Y41035714D01*
X236063000Y41092857D01*
X236091571Y41207142D01*
X236091571Y41350000D01*
X236063000Y41464285D01*
X236034428Y41521428D01*
X236005857Y41550000D01*
X235948714Y41578571D01*
X235491571Y41035714D02*
X235463000Y41007142D01*
X235491571Y40978571D01*
X235520142Y41007142D01*
X235491571Y41035714D01*
X235491571Y40978571D01*
X234891571Y40978571D02*
X235234428Y40978571D01*
X235063000Y40978571D02*
X235063000Y41578571D01*
X235120142Y41492857D01*
X235177285Y41435714D01*
X235234428Y41407142D01*
X236548714Y40555428D02*
X236520142Y40584000D01*
X236463000Y40612571D01*
X236320142Y40612571D01*
X236263000Y40584000D01*
X236234428Y40555428D01*
X236205857Y40498285D01*
X236205857Y40441142D01*
X236234428Y40355428D01*
X236577285Y40012571D01*
X236205857Y40012571D01*
X235834428Y40612571D02*
X235777285Y40612571D01*
X235720142Y40584000D01*
X235691571Y40555428D01*
X235663000Y40498285D01*
X235634428Y40384000D01*
X235634428Y40241142D01*
X235663000Y40126857D01*
X235691571Y40069714D01*
X235720142Y40041142D01*
X235777285Y40012571D01*
X235834428Y40012571D01*
X235891571Y40041142D01*
X235920142Y40069714D01*
X235948714Y40126857D01*
X235977285Y40241142D01*
X235977285Y40384000D01*
X235948714Y40498285D01*
X235920142Y40555428D01*
X235891571Y40584000D01*
X235834428Y40612571D01*
X235405857Y40555428D02*
X235377285Y40584000D01*
X235320142Y40612571D01*
X235177285Y40612571D01*
X235120142Y40584000D01*
X235091571Y40555428D01*
X235063000Y40498285D01*
X235063000Y40441142D01*
X235091571Y40355428D01*
X235434428Y40012571D01*
X235063000Y40012571D01*
X234691571Y40612571D02*
X234634428Y40612571D01*
X234577285Y40584000D01*
X234548714Y40555428D01*
X234520142Y40498285D01*
X234491571Y40384000D01*
X234491571Y40241142D01*
X234520142Y40126857D01*
X234548714Y40069714D01*
X234577285Y40041142D01*
X234634428Y40012571D01*
X234691571Y40012571D01*
X234748714Y40041142D01*
X234777285Y40069714D01*
X234805857Y40126857D01*
X234834428Y40241142D01*
X234834428Y40384000D01*
X234805857Y40498285D01*
X234777285Y40555428D01*
X234748714Y40584000D01*
X234691571Y40612571D01*
X234234428Y40241142D02*
X233777285Y40241142D01*
X233377285Y40612571D02*
X233320142Y40612571D01*
X233263000Y40584000D01*
X233234428Y40555428D01*
X233205857Y40498285D01*
X233177285Y40384000D01*
X233177285Y40241142D01*
X233205857Y40126857D01*
X233234428Y40069714D01*
X233263000Y40041142D01*
X233320142Y40012571D01*
X233377285Y40012571D01*
X233434428Y40041142D01*
X233463000Y40069714D01*
X233491571Y40126857D01*
X233520142Y40241142D01*
X233520142Y40384000D01*
X233491571Y40498285D01*
X233463000Y40555428D01*
X233434428Y40584000D01*
X233377285Y40612571D01*
X232977285Y40612571D02*
X232605857Y40612571D01*
X232805857Y40384000D01*
X232720142Y40384000D01*
X232663000Y40355428D01*
X232634428Y40326857D01*
X232605857Y40269714D01*
X232605857Y40126857D01*
X232634428Y40069714D01*
X232663000Y40041142D01*
X232720142Y40012571D01*
X232891571Y40012571D01*
X232948714Y40041142D01*
X232977285Y40069714D01*
X232348714Y40241142D02*
X231891571Y40241142D01*
X231291571Y40012571D02*
X231634428Y40012571D01*
X231463000Y40012571D02*
X231463000Y40612571D01*
X231520142Y40526857D01*
X231577285Y40469714D01*
X231634428Y40441142D01*
X231063000Y40555428D02*
X231034428Y40584000D01*
X230977285Y40612571D01*
X230834428Y40612571D01*
X230777285Y40584000D01*
X230748714Y40555428D01*
X230720142Y40498285D01*
X230720142Y40441142D01*
X230748714Y40355428D01*
X231091571Y40012571D01*
X230720142Y40012571D01*
D10*
X223301785Y37591333D02*
X223230357Y37529428D01*
X223158928Y37343714D01*
X223158928Y37219904D01*
X223230357Y37034190D01*
X223373214Y36910380D01*
X223516071Y36848476D01*
X223801785Y36786571D01*
X224016071Y36786571D01*
X224301785Y36848476D01*
X224444642Y36910380D01*
X224587500Y37034190D01*
X224658928Y37219904D01*
X224658928Y37343714D01*
X224587500Y37529428D01*
X224516071Y37591333D01*
X223158928Y38705619D02*
X223944642Y38705619D01*
X224087500Y38643714D01*
X224158928Y38519904D01*
X224158928Y38272285D01*
X224087500Y38148476D01*
X223230357Y38705619D02*
X223158928Y38581809D01*
X223158928Y38272285D01*
X223230357Y38148476D01*
X223373214Y38086571D01*
X223516071Y38086571D01*
X223658928Y38148476D01*
X223730357Y38272285D01*
X223730357Y38581809D01*
X223801785Y38705619D01*
X223158928Y39324666D02*
X224658928Y39324666D01*
X224087500Y39324666D02*
X224158928Y39448476D01*
X224158928Y39696095D01*
X224087500Y39819904D01*
X224016071Y39881809D01*
X223873214Y39943714D01*
X223444642Y39943714D01*
X223301785Y39881809D01*
X223230357Y39819904D01*
X223158928Y39696095D01*
X223158928Y39448476D01*
X223230357Y39324666D01*
X223230357Y40996095D02*
X223158928Y40872285D01*
X223158928Y40624666D01*
X223230357Y40500857D01*
X223373214Y40438952D01*
X223944642Y40438952D01*
X224087500Y40500857D01*
X224158928Y40624666D01*
X224158928Y40872285D01*
X224087500Y40996095D01*
X223944642Y41058000D01*
X223801785Y41058000D01*
X223658928Y40438952D01*
X224158928Y41491333D02*
X224158928Y42172285D01*
X223158928Y41491333D01*
X223158928Y42172285D01*
X223158928Y43224666D02*
X223944642Y43224666D01*
X224087500Y43162761D01*
X224158928Y43038952D01*
X224158928Y42791333D01*
X224087500Y42667523D01*
X223230357Y43224666D02*
X223158928Y43100857D01*
X223158928Y42791333D01*
X223230357Y42667523D01*
X223373214Y42605619D01*
X223516071Y42605619D01*
X223658928Y42667523D01*
X223730357Y42791333D01*
X223730357Y43100857D01*
X223801785Y43224666D01*
X223158928Y45391333D02*
X224658928Y45391333D01*
X223230357Y45391333D02*
X223158928Y45267523D01*
X223158928Y45019904D01*
X223230357Y44896095D01*
X223301785Y44834190D01*
X223444642Y44772285D01*
X223873214Y44772285D01*
X224016071Y44834190D01*
X224087500Y44896095D01*
X224158928Y45019904D01*
X224158928Y45267523D01*
X224087500Y45391333D01*
X223230357Y46505619D02*
X223158928Y46381809D01*
X223158928Y46134190D01*
X223230357Y46010380D01*
X223373214Y45948476D01*
X223944642Y45948476D01*
X224087500Y46010380D01*
X224158928Y46134190D01*
X224158928Y46381809D01*
X224087500Y46505619D01*
X223944642Y46567523D01*
X223801785Y46567523D01*
X223658928Y45948476D01*
X223301785Y48858000D02*
X223230357Y48796095D01*
X223158928Y48610380D01*
X223158928Y48486571D01*
X223230357Y48300857D01*
X223373214Y48177047D01*
X223516071Y48115142D01*
X223801785Y48053238D01*
X224016071Y48053238D01*
X224301785Y48115142D01*
X224444642Y48177047D01*
X224587500Y48300857D01*
X224658928Y48486571D01*
X224658928Y48610380D01*
X224587500Y48796095D01*
X224516071Y48858000D01*
X223158928Y49972285D02*
X223944642Y49972285D01*
X224087500Y49910380D01*
X224158928Y49786571D01*
X224158928Y49538952D01*
X224087500Y49415142D01*
X223230357Y49972285D02*
X223158928Y49848476D01*
X223158928Y49538952D01*
X223230357Y49415142D01*
X223373214Y49353238D01*
X223516071Y49353238D01*
X223658928Y49415142D01*
X223730357Y49538952D01*
X223730357Y49848476D01*
X223801785Y49972285D01*
X223158928Y50591333D02*
X224158928Y50591333D01*
X223873214Y50591333D02*
X224016071Y50653238D01*
X224087500Y50715142D01*
X224158928Y50838952D01*
X224158928Y50962761D01*
X224158928Y51396095D02*
X223158928Y51396095D01*
X224016071Y51396095D02*
X224087500Y51458000D01*
X224158928Y51581809D01*
X224158928Y51767523D01*
X224087500Y51891333D01*
X223944642Y51953238D01*
X223158928Y51953238D01*
X223230357Y53067523D02*
X223158928Y52943714D01*
X223158928Y52696095D01*
X223230357Y52572285D01*
X223373214Y52510380D01*
X223944642Y52510380D01*
X224087500Y52572285D01*
X224158928Y52696095D01*
X224158928Y52943714D01*
X224087500Y53067523D01*
X223944642Y53129428D01*
X223801785Y53129428D01*
X223658928Y52510380D01*
D12*
X238451501Y44894499D02*
G75*
G03*
X238451501Y44894499I-898000J0D01*
G01*
X237553503Y53784499D02*
G75*
G03*
X228663501Y44894499I-101J-8889901D01*
G01*
X246443501Y44894497D02*
G75*
G03*
X237553501Y53784499I-8889901J101D01*
G01*
X237553501Y36004499D02*
G75*
G03*
X246443501Y44894499I0J8890000D01*
G01*
X228663501Y44894499D02*
G75*
G03*
X237553501Y36004499I8890000J0D01*
G01*
X229933501Y40449499D02*
X229933501Y31940499D01*
X245173501Y31940499D02*
X245173501Y40449499D01*
X237553501Y36004499D02*
X237553501Y53784499D01*
X228663501Y44894499D02*
X246443501Y44894499D01*
X229933501Y31940499D02*
X245173501Y31940499D01*
X230949501Y31813499D02*
X233997501Y31813499D01*
X236029501Y31813499D02*
X239077501Y31813499D01*
X241109501Y31813499D02*
X244157501Y31813499D01*
X230949501Y31813499D02*
X230949501Y28765499D01*
X230949501Y28765499D02*
X233997501Y28765499D01*
X233997501Y28765499D02*
X233997501Y31813499D01*
X236029501Y31813499D02*
X236029501Y28765499D01*
X236029501Y28765499D02*
X239077501Y28765499D01*
X239077501Y28765499D02*
X239077501Y31813499D01*
X241109501Y31813499D02*
X241109501Y28765499D01*
X241109501Y28765499D02*
X244157501Y28765499D01*
X244157501Y28765499D02*
X244157501Y31813499D01*
X245237000Y49784000D02*
X245237000Y51054000D01*
X250317000Y49784000D02*
X250317000Y51054000D01*
X245237000Y49784000D02*
X250317000Y49784000D01*
X245237000Y51054000D02*
X245237000Y53594000D01*
X250317000Y51054000D02*
X250317000Y53594000D01*
X245237000Y51054000D02*
X250317000Y51054000D01*
X250317000Y53594000D02*
X245237000Y53594000D01*
X242570000Y27305000D02*
X232410000Y27305000D01*
X232410000Y24765000D02*
X242570000Y24765000D01*
X242570000Y24765000D02*
X242570000Y27305000D01*
X232410000Y24765000D02*
X232410000Y27305000D01*
X232410000Y28575000D02*
X242570000Y28575000D01*
X242570000Y27305000D02*
X242570000Y28575000D01*
X232410000Y27305000D02*
X232410000Y28575000D01*
D13*
X250195500Y27495962D02*
G75*
G02*
X244645500Y25950670I-2990000J-462D01*
G01*
X250195500Y27495038D02*
G75*
G03*
X244645500Y29040330I-2990000J462D01*
G01*
X249705500Y27495500D02*
G75*
G03*
X249705500Y27495500I-2500000J0D01*
G01*
X244645500Y25950500D02*
X244645500Y29040500D01*
D10*
X241299524Y32123119D02*
X241299524Y33123119D01*
X241061429Y33123119D01*
X240918572Y33075500D01*
X240823334Y32980261D01*
X240775715Y32885023D01*
X240728096Y32694547D01*
X240728096Y32551690D01*
X240775715Y32361214D01*
X240823334Y32265976D01*
X240918572Y32170738D01*
X241061429Y32123119D01*
X241299524Y32123119D01*
X240299524Y32123119D02*
X240299524Y32789785D01*
X240299524Y33123119D02*
X240347143Y33075500D01*
X240299524Y33027880D01*
X240251905Y33075500D01*
X240299524Y33123119D01*
X240299524Y33027880D01*
X239823334Y32123119D02*
X239823334Y32789785D01*
X239823334Y32599309D02*
X239775715Y32694547D01*
X239728096Y32742166D01*
X239632858Y32789785D01*
X239537620Y32789785D01*
X239347143Y32789785D02*
X238966191Y32789785D01*
X239204286Y33123119D02*
X239204286Y32265976D01*
X239156667Y32170738D01*
X239061429Y32123119D01*
X238966191Y32123119D01*
X237537620Y32646928D02*
X237394762Y32599309D01*
X237347143Y32551690D01*
X237299524Y32456452D01*
X237299524Y32313595D01*
X237347143Y32218357D01*
X237394762Y32170738D01*
X237490001Y32123119D01*
X237870953Y32123119D01*
X237870953Y33123119D01*
X237537620Y33123119D01*
X237442381Y33075500D01*
X237394762Y33027880D01*
X237347143Y32932642D01*
X237347143Y32837404D01*
X237394762Y32742166D01*
X237442381Y32694547D01*
X237537620Y32646928D01*
X237870953Y32646928D01*
X236394762Y33123119D02*
X236870953Y33123119D01*
X236918572Y32646928D01*
X236870953Y32694547D01*
X236775715Y32742166D01*
X236537620Y32742166D01*
X236442381Y32694547D01*
X236394762Y32646928D01*
X236347143Y32551690D01*
X236347143Y32313595D01*
X236394762Y32218357D01*
X236442381Y32170738D01*
X236537620Y32123119D01*
X236775715Y32123119D01*
X236870953Y32170738D01*
X236918572Y32218357D01*
X235728096Y33123119D02*
X235632858Y33123119D01*
X235537620Y33075500D01*
X235490001Y33027880D01*
X235442381Y32932642D01*
X235394762Y32742166D01*
X235394762Y32504071D01*
X235442381Y32313595D01*
X235490001Y32218357D01*
X235537620Y32170738D01*
X235632858Y32123119D01*
X235728096Y32123119D01*
X235823334Y32170738D01*
X235870953Y32218357D01*
X235918572Y32313595D01*
X235966191Y32504071D01*
X235966191Y32742166D01*
X235918572Y32932642D01*
X235870953Y33027880D01*
X235823334Y33075500D01*
X235728096Y33123119D01*
X234775715Y33123119D02*
X234680477Y33123119D01*
X234585239Y33075500D01*
X234537620Y33027880D01*
X234490001Y32932642D01*
X234442381Y32742166D01*
X234442381Y32504071D01*
X234490001Y32313595D01*
X234537620Y32218357D01*
X234585239Y32170738D01*
X234680477Y32123119D01*
X234775715Y32123119D01*
X234870953Y32170738D01*
X234918572Y32218357D01*
X234966191Y32313595D01*
X235013810Y32504071D01*
X235013810Y32742166D01*
X234966191Y32932642D01*
X234918572Y33027880D01*
X234870953Y33075500D01*
X234775715Y33123119D01*
X234013810Y32123119D02*
X234013810Y33123119D01*
X233918572Y32504071D02*
X233632858Y32123119D01*
X233632858Y32789785D02*
X234013810Y32408833D01*
D11*
X237267786Y29837118D02*
X237839215Y29837118D01*
X237553501Y29837118D02*
X237553501Y30837118D01*
X237648739Y30694260D01*
X237743977Y30599022D01*
X237839215Y30551403D01*
D10*
X249529523Y50819000D02*
X249605714Y50857095D01*
X249720000Y50857095D01*
X249834285Y50819000D01*
X249910476Y50742809D01*
X249948571Y50666619D01*
X249986666Y50514238D01*
X249986666Y50399952D01*
X249948571Y50247571D01*
X249910476Y50171380D01*
X249834285Y50095190D01*
X249720000Y50057095D01*
X249643809Y50057095D01*
X249529523Y50095190D01*
X249491428Y50133285D01*
X249491428Y50399952D01*
X249643809Y50399952D01*
X249148571Y50057095D02*
X249148571Y50857095D01*
X248691428Y50057095D01*
X248691428Y50857095D01*
X248310476Y50057095D02*
X248310476Y50857095D01*
X248120000Y50857095D01*
X248005714Y50819000D01*
X247929523Y50742809D01*
X247891428Y50666619D01*
X247853333Y50514238D01*
X247853333Y50399952D01*
X247891428Y50247571D01*
X247929523Y50171380D01*
X248005714Y50095190D01*
X248120000Y50057095D01*
X248310476Y50057095D01*
X247141904Y50857095D02*
X246875238Y50057095D01*
X246608571Y50857095D01*
X246341904Y50361857D02*
X245732380Y50361857D01*
X246037142Y50057095D02*
X246037142Y50666619D01*
X234099047Y27578095D02*
X234099047Y28378095D01*
X233718095Y27578095D02*
X233718095Y28378095D01*
X233260952Y27578095D01*
X233260952Y28378095D01*
X236829523Y28340000D02*
X236905714Y28378095D01*
X237020000Y28378095D01*
X237134285Y28340000D01*
X237210476Y28263809D01*
X237248571Y28187619D01*
X237286666Y28035238D01*
X237286666Y27920952D01*
X237248571Y27768571D01*
X237210476Y27692380D01*
X237134285Y27616190D01*
X237020000Y27578095D01*
X236943809Y27578095D01*
X236829523Y27616190D01*
X236791428Y27654285D01*
X236791428Y27920952D01*
X236943809Y27920952D01*
X236448571Y27578095D02*
X236448571Y28378095D01*
X235991428Y27578095D01*
X235991428Y28378095D01*
X235610476Y27578095D02*
X235610476Y28378095D01*
X235420000Y28378095D01*
X235305714Y28340000D01*
X235229523Y28263809D01*
X235191428Y28187619D01*
X235153333Y28035238D01*
X235153333Y27920952D01*
X235191428Y27768571D01*
X235229523Y27692380D01*
X235305714Y27616190D01*
X235420000Y27578095D01*
X235610476Y27578095D01*
X239445714Y27616190D02*
X239331428Y27578095D01*
X239140952Y27578095D01*
X239064761Y27616190D01*
X239026666Y27654285D01*
X238988571Y27730476D01*
X238988571Y27806666D01*
X239026666Y27882857D01*
X239064761Y27920952D01*
X239140952Y27959047D01*
X239293333Y27997142D01*
X239369523Y28035238D01*
X239407619Y28073333D01*
X239445714Y28149523D01*
X239445714Y28225714D01*
X239407619Y28301904D01*
X239369523Y28340000D01*
X239293333Y28378095D01*
X239102857Y28378095D01*
X238988571Y28340000D01*
X238721904Y28378095D02*
X238531428Y27578095D01*
X238379047Y28149523D01*
X238226666Y27578095D01*
X238036190Y28378095D01*
X242100000Y28378095D02*
X241947619Y28378095D01*
X241871428Y28340000D01*
X241795238Y28263809D01*
X241757142Y28111428D01*
X241757142Y27844761D01*
X241795238Y27692380D01*
X241871428Y27616190D01*
X241947619Y27578095D01*
X242100000Y27578095D01*
X242176190Y27616190D01*
X242252380Y27692380D01*
X242290476Y27844761D01*
X242290476Y28111428D01*
X242252380Y28263809D01*
X242176190Y28340000D01*
X242100000Y28378095D01*
X241414285Y28378095D02*
X241414285Y27730476D01*
X241376190Y27654285D01*
X241338095Y27616190D01*
X241261904Y27578095D01*
X241109523Y27578095D01*
X241033333Y27616190D01*
X240995238Y27654285D01*
X240957142Y27730476D01*
X240957142Y28378095D01*
X240690476Y28378095D02*
X240233333Y28378095D01*
X240461904Y27578095D02*
X240461904Y28378095D01*
X247806285Y28802857D02*
X247806285Y29702857D01*
X247592000Y29702857D01*
X247463428Y29660000D01*
X247377714Y29574285D01*
X247334857Y29488571D01*
X247292000Y29317142D01*
X247292000Y29188571D01*
X247334857Y29017142D01*
X247377714Y28931428D01*
X247463428Y28845714D01*
X247592000Y28802857D01*
X247806285Y28802857D01*
X246434857Y28802857D02*
X246949142Y28802857D01*
X246692000Y28802857D02*
X246692000Y29702857D01*
X246777714Y29574285D01*
X246863428Y29488571D01*
X246949142Y29445714D01*
%LPC*%
D14*
X232473501Y30289499D03*
X237553501Y30289499D03*
D15*
X242633501Y30289499D03*
D16*
X233680000Y42799000D03*
X231140000Y42799000D03*
X228600000Y42799000D03*
D17*
X226060000Y42799000D03*
D18*
X223647000Y26182999D03*
D19*
X231267000Y26182999D03*
D18*
X247332500Y40195500D03*
D19*
X247332500Y32575500D03*
D18*
X231584500Y52260500D03*
D19*
X223964500Y52260500D03*
D18*
X244792500Y37211000D03*
D19*
X237172500Y37211000D03*
D18*
X233743500Y52260500D03*
D19*
X241363500Y52260500D03*
D18*
X237172500Y34163000D03*
D19*
X244792500Y34163000D03*
D18*
X223647000Y34671000D03*
D19*
X231267000Y34671000D03*
D16*
X231140000Y38354000D03*
X228600000Y38354000D03*
D17*
X226060000Y38354000D03*
D16*
X249047000Y52324000D03*
D17*
X246507000Y52324000D03*
D16*
X241300000Y26035000D03*
X238760000Y26035000D03*
X236220000Y26035000D03*
D17*
X233680000Y26035000D03*
D20*
X243141500Y50355500D03*
D21*
X243141500Y40195500D03*
D22*
X248475500Y27495500D03*
D23*
X245935500Y27495500D03*
D19*
X246229500Y45148500D03*
D24*
X248729500Y45148500D03*
D19*
X228687000Y47752000D03*
D24*
X226187000Y47752000D03*
D19*
X229599500Y31813500D03*
X224599500Y31813500D03*
X236203500Y49196000D03*
X231203500Y49196000D03*
X231220000Y46338500D03*
X236220000Y46338500D03*
X224616000Y29083000D03*
X229616000Y29083000D03*
M02*
