M48
; DRILL file {KiCad (5.99.0-1101-g9de7547c2)} date Fri Mar 13 08:54:10 2020
; FORMAT={-:-/ absolute / inch / decimal}
; #@! TF.CreationDate,2020-03-13T08:54:10+02:00
; #@! TF.GenerationSoftware,Kicad,Pcbnew,(5.99.0-1101-g9de7547c2)
; #@! TF.FileFunction,Plated,1,2,PTH
FMAT,2
INCH
T1C0.0315
T2C0.0354
T3C0.0394
T4C0.0433
T5C0.0551
%
G90
G05
T1
X9.676Y1.486
X9.676Y1.186
X9.26Y1.824
X9.4569Y1.824
X9.3386Y1.3305
X9.5355Y1.3305
X9.296Y1.708
X9.596Y1.708
X9.3125Y2.065
X9.6125Y2.065
X9.26Y1.944
X9.4569Y1.944
X8.948Y1.308
X9.248Y1.308
X8.93Y2.065
X9.23Y2.065
X9.338Y1.45
X9.5349Y1.45
X9.296Y1.588
X9.596Y1.588
X9.6Y1.864
X9.6984Y1.864
X9.054Y1.888
X9.1524Y1.888
X9.794Y1.486
X9.794Y1.186
T2
X9.68Y1.054
X9.78Y1.054
T3
X9.792Y1.782
X9.792Y1.582
X8.978Y1.716
X8.978Y1.616
X8.978Y1.516
X9.158Y1.716
X9.158Y1.616
X9.158Y1.516
X9.158Y1.416
T4
X9.705Y2.06
X9.805Y2.06
X9.202Y1.028
X9.302Y1.028
X9.402Y1.028
X9.502Y1.028
T5
X9.1525Y1.1925
X9.3525Y1.1925
X9.5525Y1.1925
T0
M30
