G04 #@! TF.GenerationSoftware,KiCad,Pcbnew,(5.99.0-1101-g9de7547c2)*
G04 #@! TF.CreationDate,2020-03-13T08:54:08+02:00*
G04 #@! TF.ProjectId,cabeza-de-carne,63616265-7a61-42d6-9465-2d6361726e65,rev?*
G04 #@! TF.SameCoordinates,Original*
G04 #@! TF.FileFunction,Legend,Bot*
G04 #@! TF.FilePolarity,Positive*
%FSLAX46Y46*%
G04 Gerber Fmt 4.6, Leading zero omitted, Abs format (unit mm)*
G04 Created by KiCad (PCBNEW (5.99.0-1101-g9de7547c2)) date 2020-03-13 08:54:08*
%MOMM*%
%LPD*%
G01*
G04 APERTURE LIST*
%ADD10C,0.100000*%
%ADD11C,0.150000*%
%ADD12C,0.120000*%
%ADD13C,0.127000*%
%ADD14C,0.125000*%
%ADD15C,1.902000*%
%ADD16R,1.902000X1.902000*%
%ADD17R,2.102000X2.102000*%
%ADD18O,2.102000X2.102000*%
%ADD19O,2.642000X2.642000*%
%ADD20R,2.642000X2.642000*%
%ADD21O,2.032400X2.032400*%
%ADD22R,2.032400X2.032400*%
%ADD23O,1.702000X1.702000*%
%ADD24C,1.702000*%
%ADD25R,1.702000X1.702000*%
G04 APERTURE END LIST*
D10*
X226159200Y29723200D02*
X225592533Y29723200D01*
X225525866Y29689866D01*
X225492533Y29656533D01*
X225459200Y29589866D01*
X225459200Y29489866D01*
X225492533Y29423200D01*
X225725866Y29723200D02*
X225692533Y29656533D01*
X225692533Y29523200D01*
X225725866Y29456533D01*
X225759200Y29423200D01*
X225825866Y29389866D01*
X226025866Y29389866D01*
X226092533Y29423200D01*
X226125866Y29456533D01*
X226159200Y29523200D01*
X226159200Y29656533D01*
X226125866Y29723200D01*
X225692533Y30056533D02*
X226159200Y30056533D01*
X226392533Y30056533D02*
X226359200Y30023200D01*
X226325866Y30056533D01*
X226359200Y30089866D01*
X226392533Y30056533D01*
X226325866Y30056533D01*
X226159200Y30289866D02*
X226159200Y30556533D01*
X226392533Y30389866D02*
X225792533Y30389866D01*
X225725866Y30423200D01*
X225692533Y30489866D01*
X225692533Y30556533D01*
X225692533Y30789866D02*
X226392533Y30789866D01*
X225692533Y31089866D02*
X226059200Y31089866D01*
X226125866Y31056533D01*
X226159200Y30989866D01*
X226159200Y30889866D01*
X226125866Y30823200D01*
X226092533Y30789866D01*
X226159200Y31723200D02*
X225692533Y31723200D01*
X226159200Y31423200D02*
X225792533Y31423200D01*
X225725866Y31456533D01*
X225692533Y31523200D01*
X225692533Y31623200D01*
X225725866Y31689866D01*
X225759200Y31723200D01*
X225692533Y32056533D02*
X226392533Y32056533D01*
X226125866Y32056533D02*
X226159200Y32123199D01*
X226159200Y32256533D01*
X226125866Y32323199D01*
X226092533Y32356533D01*
X226025866Y32389866D01*
X225825866Y32389866D01*
X225759200Y32356533D01*
X225725866Y32323199D01*
X225692533Y32256533D01*
X225692533Y32123199D01*
X225725866Y32056533D01*
X225759200Y32689866D02*
X225725866Y32723199D01*
X225692533Y32689866D01*
X225725866Y32656533D01*
X225759200Y32689866D01*
X225692533Y32689866D01*
X225725866Y33323199D02*
X225692533Y33256533D01*
X225692533Y33123199D01*
X225725866Y33056533D01*
X225759200Y33023199D01*
X225825866Y32989866D01*
X226025866Y32989866D01*
X226092533Y33023199D01*
X226125866Y33056533D01*
X226159200Y33123199D01*
X226159200Y33256533D01*
X226125866Y33323199D01*
X225692533Y33723199D02*
X225725866Y33656533D01*
X225759200Y33623199D01*
X225825866Y33589866D01*
X226025866Y33589866D01*
X226092533Y33623199D01*
X226125866Y33656533D01*
X226159200Y33723199D01*
X226159200Y33823199D01*
X226125866Y33889866D01*
X226092533Y33923199D01*
X226025866Y33956533D01*
X225825866Y33956533D01*
X225759200Y33923199D01*
X225725866Y33889866D01*
X225692533Y33823199D01*
X225692533Y33723199D01*
X225692533Y34256533D02*
X226159200Y34256533D01*
X226092533Y34256533D02*
X226125866Y34289866D01*
X226159200Y34356533D01*
X226159200Y34456533D01*
X226125866Y34523199D01*
X226059200Y34556533D01*
X225692533Y34556533D01*
X226059200Y34556533D02*
X226125866Y34589866D01*
X226159200Y34656533D01*
X226159200Y34756533D01*
X226125866Y34823199D01*
X226059200Y34856533D01*
X225692533Y34856533D01*
X226425866Y35689866D02*
X225525866Y35089866D01*
X225692533Y35923199D02*
X226159200Y35923199D01*
X226025866Y35923199D02*
X226092533Y35956533D01*
X226125866Y35989866D01*
X226159200Y36056533D01*
X226159200Y36123199D01*
X225692533Y36456533D02*
X225725866Y36389866D01*
X225759200Y36356533D01*
X225825866Y36323199D01*
X226025866Y36323199D01*
X226092533Y36356533D01*
X226125866Y36389866D01*
X226159200Y36456533D01*
X226159200Y36556533D01*
X226125866Y36623199D01*
X226092533Y36656533D01*
X226025866Y36689866D01*
X225825866Y36689866D01*
X225759200Y36656533D01*
X225725866Y36623199D01*
X225692533Y36556533D01*
X225692533Y36456533D01*
X225725866Y37289866D02*
X225692533Y37223199D01*
X225692533Y37089866D01*
X225725866Y37023199D01*
X225759200Y36989866D01*
X225825866Y36956533D01*
X226025866Y36956533D01*
X226092533Y36989866D01*
X226125866Y37023199D01*
X226159200Y37089866D01*
X226159200Y37223199D01*
X226125866Y37289866D01*
X225692533Y37589866D02*
X226392533Y37589866D01*
X225959200Y37656533D02*
X225692533Y37856533D01*
X226159200Y37856533D02*
X225892533Y37589866D01*
X225692533Y38256533D02*
X225725866Y38189866D01*
X225759200Y38156533D01*
X225825866Y38123199D01*
X226025866Y38123199D01*
X226092533Y38156533D01*
X226125866Y38189866D01*
X226159200Y38256533D01*
X226159200Y38356533D01*
X226125866Y38423199D01*
X226092533Y38456533D01*
X226025866Y38489866D01*
X225825866Y38489866D01*
X225759200Y38456533D01*
X225725866Y38423199D01*
X225692533Y38356533D01*
X225692533Y38256533D01*
X225692533Y38889866D02*
X225725866Y38823199D01*
X225792533Y38789866D01*
X226392533Y38789866D01*
X225692533Y39456533D02*
X226059200Y39456533D01*
X226125866Y39423199D01*
X226159200Y39356533D01*
X226159200Y39223199D01*
X226125866Y39156533D01*
X225725866Y39456533D02*
X225692533Y39389866D01*
X225692533Y39223199D01*
X225725866Y39156533D01*
X225792533Y39123199D01*
X225859200Y39123199D01*
X225925866Y39156533D01*
X225959200Y39223199D01*
X225959200Y39389866D01*
X225992533Y39456533D01*
X226425866Y40289866D02*
X225525866Y39689866D01*
X225725866Y40823199D02*
X225692533Y40756533D01*
X225692533Y40623199D01*
X225725866Y40556533D01*
X225759200Y40523199D01*
X225825866Y40489866D01*
X226025866Y40489866D01*
X226092533Y40523199D01*
X226125866Y40556533D01*
X226159200Y40623199D01*
X226159200Y40756533D01*
X226125866Y40823199D01*
X225692533Y41423199D02*
X226059200Y41423199D01*
X226125866Y41389866D01*
X226159200Y41323199D01*
X226159200Y41189866D01*
X226125866Y41123199D01*
X225725866Y41423199D02*
X225692533Y41356533D01*
X225692533Y41189866D01*
X225725866Y41123199D01*
X225792533Y41089866D01*
X225859200Y41089866D01*
X225925866Y41123199D01*
X225959200Y41189866D01*
X225959200Y41356533D01*
X225992533Y41423199D01*
X225692533Y41756533D02*
X226392533Y41756533D01*
X226125866Y41756533D02*
X226159200Y41823199D01*
X226159200Y41956533D01*
X226125866Y42023199D01*
X226092533Y42056533D01*
X226025866Y42089866D01*
X225825866Y42089866D01*
X225759200Y42056533D01*
X225725866Y42023199D01*
X225692533Y41956533D01*
X225692533Y41823199D01*
X225725866Y41756533D01*
X225725866Y42656533D02*
X225692533Y42589866D01*
X225692533Y42456533D01*
X225725866Y42389866D01*
X225792533Y42356533D01*
X226059200Y42356533D01*
X226125866Y42389866D01*
X226159200Y42456533D01*
X226159200Y42589866D01*
X226125866Y42656533D01*
X226059200Y42689866D01*
X225992533Y42689866D01*
X225925866Y42356533D01*
X226159200Y42923199D02*
X226159200Y43289866D01*
X225692533Y42923199D01*
X225692533Y43289866D01*
X225692533Y43856533D02*
X226059200Y43856533D01*
X226125866Y43823199D01*
X226159200Y43756533D01*
X226159200Y43623199D01*
X226125866Y43556533D01*
X225725866Y43856533D02*
X225692533Y43789866D01*
X225692533Y43623199D01*
X225725866Y43556533D01*
X225792533Y43523199D01*
X225859200Y43523199D01*
X225925866Y43556533D01*
X225959200Y43623199D01*
X225959200Y43789866D01*
X225992533Y43856533D01*
X225959200Y44189866D02*
X225959200Y44723199D01*
X225692533Y45356533D02*
X226392533Y45356533D01*
X225725866Y45356533D02*
X225692533Y45289866D01*
X225692533Y45156533D01*
X225725866Y45089866D01*
X225759200Y45056533D01*
X225825866Y45023199D01*
X226025866Y45023199D01*
X226092533Y45056533D01*
X226125866Y45089866D01*
X226159200Y45156533D01*
X226159200Y45289866D01*
X226125866Y45356533D01*
X225725866Y45956533D02*
X225692533Y45889866D01*
X225692533Y45756533D01*
X225725866Y45689866D01*
X225792533Y45656533D01*
X226059200Y45656533D01*
X226125866Y45689866D01*
X226159200Y45756533D01*
X226159200Y45889866D01*
X226125866Y45956533D01*
X226059200Y45989866D01*
X225992533Y45989866D01*
X225925866Y45656533D01*
X225959200Y46289866D02*
X225959200Y46823199D01*
X225725866Y47456533D02*
X225692533Y47389866D01*
X225692533Y47256533D01*
X225725866Y47189866D01*
X225759200Y47156533D01*
X225825866Y47123199D01*
X226025866Y47123199D01*
X226092533Y47156533D01*
X226125866Y47189866D01*
X226159200Y47256533D01*
X226159200Y47389866D01*
X226125866Y47456533D01*
X225692533Y48056533D02*
X226059200Y48056533D01*
X226125866Y48023199D01*
X226159200Y47956533D01*
X226159200Y47823199D01*
X226125866Y47756533D01*
X225725866Y48056533D02*
X225692533Y47989866D01*
X225692533Y47823199D01*
X225725866Y47756533D01*
X225792533Y47723199D01*
X225859200Y47723199D01*
X225925866Y47756533D01*
X225959200Y47823199D01*
X225959200Y47989866D01*
X225992533Y48056533D01*
X225692533Y48389866D02*
X226159200Y48389866D01*
X226025866Y48389866D02*
X226092533Y48423199D01*
X226125866Y48456533D01*
X226159200Y48523199D01*
X226159200Y48589866D01*
X226159200Y48823199D02*
X225692533Y48823199D01*
X226092533Y48823199D02*
X226125866Y48856533D01*
X226159200Y48923199D01*
X226159200Y49023199D01*
X226125866Y49089866D01*
X226059200Y49123199D01*
X225692533Y49123199D01*
X225725866Y49723199D02*
X225692533Y49656533D01*
X225692533Y49523199D01*
X225725866Y49456533D01*
X225792533Y49423199D01*
X226059200Y49423199D01*
X226125866Y49456533D01*
X226159200Y49523199D01*
X226159200Y49656533D01*
X226125866Y49723199D01*
X226059200Y49756533D01*
X225992533Y49756533D01*
X225925866Y49423199D01*
D11*
X243995600Y32246133D02*
X244395600Y32246133D01*
X244195600Y32246133D02*
X244195600Y32946133D01*
X244262266Y32846133D01*
X244328933Y32779466D01*
X244395600Y32746133D01*
D10*
X231852885Y27535571D02*
X231710028Y27135571D01*
X231567171Y27535571D01*
X231224314Y27735571D02*
X231167171Y27735571D01*
X231110028Y27707000D01*
X231081457Y27678428D01*
X231052885Y27621285D01*
X231024314Y27507000D01*
X231024314Y27364142D01*
X231052885Y27249857D01*
X231081457Y27192714D01*
X231110028Y27164142D01*
X231167171Y27135571D01*
X231224314Y27135571D01*
X231281457Y27164142D01*
X231310028Y27192714D01*
X231338600Y27249857D01*
X231367171Y27364142D01*
X231367171Y27507000D01*
X231338600Y27621285D01*
X231310028Y27678428D01*
X231281457Y27707000D01*
X231224314Y27735571D01*
X230767171Y27192714D02*
X230738600Y27164142D01*
X230767171Y27135571D01*
X230795742Y27164142D01*
X230767171Y27192714D01*
X230767171Y27135571D01*
X230510028Y27678428D02*
X230481457Y27707000D01*
X230424314Y27735571D01*
X230281457Y27735571D01*
X230224314Y27707000D01*
X230195742Y27678428D01*
X230167171Y27621285D01*
X230167171Y27564142D01*
X230195742Y27478428D01*
X230538600Y27135571D01*
X230167171Y27135571D01*
X231824314Y26712428D02*
X231795742Y26741000D01*
X231738600Y26769571D01*
X231595742Y26769571D01*
X231538600Y26741000D01*
X231510028Y26712428D01*
X231481457Y26655285D01*
X231481457Y26598142D01*
X231510028Y26512428D01*
X231852885Y26169571D01*
X231481457Y26169571D01*
X231110028Y26769571D02*
X231052885Y26769571D01*
X230995742Y26741000D01*
X230967171Y26712428D01*
X230938600Y26655285D01*
X230910028Y26541000D01*
X230910028Y26398142D01*
X230938600Y26283857D01*
X230967171Y26226714D01*
X230995742Y26198142D01*
X231052885Y26169571D01*
X231110028Y26169571D01*
X231167171Y26198142D01*
X231195742Y26226714D01*
X231224314Y26283857D01*
X231252885Y26398142D01*
X231252885Y26541000D01*
X231224314Y26655285D01*
X231195742Y26712428D01*
X231167171Y26741000D01*
X231110028Y26769571D01*
X230681457Y26712428D02*
X230652885Y26741000D01*
X230595742Y26769571D01*
X230452885Y26769571D01*
X230395742Y26741000D01*
X230367171Y26712428D01*
X230338600Y26655285D01*
X230338600Y26598142D01*
X230367171Y26512428D01*
X230710028Y26169571D01*
X230338600Y26169571D01*
X229967171Y26769571D02*
X229910028Y26769571D01*
X229852885Y26741000D01*
X229824314Y26712428D01*
X229795742Y26655285D01*
X229767171Y26541000D01*
X229767171Y26398142D01*
X229795742Y26283857D01*
X229824314Y26226714D01*
X229852885Y26198142D01*
X229910028Y26169571D01*
X229967171Y26169571D01*
X230024314Y26198142D01*
X230052885Y26226714D01*
X230081457Y26283857D01*
X230110028Y26398142D01*
X230110028Y26541000D01*
X230081457Y26655285D01*
X230052885Y26712428D01*
X230024314Y26741000D01*
X229967171Y26769571D01*
X229510028Y26398142D02*
X229052885Y26398142D01*
X228652885Y26769571D02*
X228595742Y26769571D01*
X228538600Y26741000D01*
X228510028Y26712428D01*
X228481457Y26655285D01*
X228452885Y26541000D01*
X228452885Y26398142D01*
X228481457Y26283857D01*
X228510028Y26226714D01*
X228538600Y26198142D01*
X228595742Y26169571D01*
X228652885Y26169571D01*
X228710028Y26198142D01*
X228738600Y26226714D01*
X228767171Y26283857D01*
X228795742Y26398142D01*
X228795742Y26541000D01*
X228767171Y26655285D01*
X228738600Y26712428D01*
X228710028Y26741000D01*
X228652885Y26769571D01*
X228252885Y26769571D02*
X227881457Y26769571D01*
X228081457Y26541000D01*
X227995742Y26541000D01*
X227938600Y26512428D01*
X227910028Y26483857D01*
X227881457Y26426714D01*
X227881457Y26283857D01*
X227910028Y26226714D01*
X227938600Y26198142D01*
X227995742Y26169571D01*
X228167171Y26169571D01*
X228224314Y26198142D01*
X228252885Y26226714D01*
X227624314Y26398142D02*
X227167171Y26398142D01*
X226567171Y26169571D02*
X226910028Y26169571D01*
X226738600Y26169571D02*
X226738600Y26769571D01*
X226795742Y26683857D01*
X226852885Y26626714D01*
X226910028Y26598142D01*
X226367171Y26769571D02*
X225995742Y26769571D01*
X226195742Y26541000D01*
X226110028Y26541000D01*
X226052885Y26512428D01*
X226024314Y26483857D01*
X225995742Y26426714D01*
X225995742Y26283857D01*
X226024314Y26226714D01*
X226052885Y26198142D01*
X226110028Y26169571D01*
X226281457Y26169571D01*
X226338600Y26198142D01*
X226367171Y26226714D01*
D11*
X242670133Y50457942D02*
X242715371Y50405561D01*
X242851085Y50353180D01*
X242941561Y50353180D01*
X243077276Y50405561D01*
X243167752Y50510323D01*
X243212990Y50615085D01*
X243258228Y50824609D01*
X243258228Y50981752D01*
X243212990Y51191276D01*
X243167752Y51296038D01*
X243077276Y51400800D01*
X242941561Y51453180D01*
X242851085Y51453180D01*
X242715371Y51400800D01*
X242670133Y51348419D01*
X241855847Y50353180D02*
X241855847Y50929371D01*
X241901085Y51034133D01*
X241991561Y51086514D01*
X242172514Y51086514D01*
X242262990Y51034133D01*
X241855847Y50405561D02*
X241946323Y50353180D01*
X242172514Y50353180D01*
X242262990Y50405561D01*
X242308228Y50510323D01*
X242308228Y50615085D01*
X242262990Y50719847D01*
X242172514Y50772228D01*
X241946323Y50772228D01*
X241855847Y50824609D01*
X241403466Y50353180D02*
X241403466Y51453180D01*
X241403466Y51034133D02*
X241312990Y51086514D01*
X241132038Y51086514D01*
X241041561Y51034133D01*
X240996323Y50981752D01*
X240951085Y50876990D01*
X240951085Y50562704D01*
X240996323Y50457942D01*
X241041561Y50405561D01*
X241132038Y50353180D01*
X241312990Y50353180D01*
X241403466Y50405561D01*
X240182038Y50405561D02*
X240272514Y50353180D01*
X240453466Y50353180D01*
X240543942Y50405561D01*
X240589180Y50510323D01*
X240589180Y50929371D01*
X240543942Y51034133D01*
X240453466Y51086514D01*
X240272514Y51086514D01*
X240182038Y51034133D01*
X240136800Y50929371D01*
X240136800Y50824609D01*
X240589180Y50719847D01*
X239820133Y51086514D02*
X239322514Y51086514D01*
X239820133Y50353180D01*
X239322514Y50353180D01*
X238553466Y50353180D02*
X238553466Y50929371D01*
X238598704Y51034133D01*
X238689180Y51086514D01*
X238870133Y51086514D01*
X238960609Y51034133D01*
X238553466Y50405561D02*
X238643942Y50353180D01*
X238870133Y50353180D01*
X238960609Y50405561D01*
X239005847Y50510323D01*
X239005847Y50615085D01*
X238960609Y50719847D01*
X238870133Y50772228D01*
X238643942Y50772228D01*
X238553466Y50824609D01*
X236970133Y50353180D02*
X236970133Y51453180D01*
X236970133Y50405561D02*
X237060609Y50353180D01*
X237241561Y50353180D01*
X237332038Y50405561D01*
X237377276Y50457942D01*
X237422514Y50562704D01*
X237422514Y50876990D01*
X237377276Y50981752D01*
X237332038Y51034133D01*
X237241561Y51086514D01*
X237060609Y51086514D01*
X236970133Y51034133D01*
X236155847Y50405561D02*
X236246323Y50353180D01*
X236427276Y50353180D01*
X236517752Y50405561D01*
X236562990Y50510323D01*
X236562990Y50929371D01*
X236517752Y51034133D01*
X236427276Y51086514D01*
X236246323Y51086514D01*
X236155847Y51034133D01*
X236110609Y50929371D01*
X236110609Y50824609D01*
X236562990Y50719847D01*
X234436800Y50457942D02*
X234482038Y50405561D01*
X234617752Y50353180D01*
X234708228Y50353180D01*
X234843942Y50405561D01*
X234934419Y50510323D01*
X234979657Y50615085D01*
X235024895Y50824609D01*
X235024895Y50981752D01*
X234979657Y51191276D01*
X234934419Y51296038D01*
X234843942Y51400800D01*
X234708228Y51453180D01*
X234617752Y51453180D01*
X234482038Y51400800D01*
X234436800Y51348419D01*
X233622514Y50353180D02*
X233622514Y50929371D01*
X233667752Y51034133D01*
X233758228Y51086514D01*
X233939180Y51086514D01*
X234029657Y51034133D01*
X233622514Y50405561D02*
X233712990Y50353180D01*
X233939180Y50353180D01*
X234029657Y50405561D01*
X234074895Y50510323D01*
X234074895Y50615085D01*
X234029657Y50719847D01*
X233939180Y50772228D01*
X233712990Y50772228D01*
X233622514Y50824609D01*
X233170133Y50353180D02*
X233170133Y51086514D01*
X233170133Y50876990D02*
X233124895Y50981752D01*
X233079657Y51034133D01*
X232989180Y51086514D01*
X232898704Y51086514D01*
X232582038Y51086514D02*
X232582038Y50353180D01*
X232582038Y50981752D02*
X232536800Y51034133D01*
X232446323Y51086514D01*
X232310609Y51086514D01*
X232220133Y51034133D01*
X232174895Y50929371D01*
X232174895Y50353180D01*
X231360609Y50405561D02*
X231451085Y50353180D01*
X231632038Y50353180D01*
X231722514Y50405561D01*
X231767752Y50510323D01*
X231767752Y50929371D01*
X231722514Y51034133D01*
X231632038Y51086514D01*
X231451085Y51086514D01*
X231360609Y51034133D01*
X231315371Y50929371D01*
X231315371Y50824609D01*
X231767752Y50719847D01*
D12*
X248814335Y25692992D02*
G75*
G02*
X245582000Y25536084I-1672335J1078608D01*
G01*
X248814335Y27850208D02*
G75*
G03*
X245582000Y28007116I-1672335J-1078608D01*
G01*
X248183130Y25691763D02*
G75*
G02*
X246101039Y25691600I-1041130J1079837D01*
G01*
X248183130Y27851437D02*
G75*
G03*
X246101039Y27851600I-1041130J-1079837D01*
G01*
X245582000Y25535600D02*
X245582000Y25691600D01*
X245582000Y27851600D02*
X245582000Y28007600D01*
D13*
X238451501Y44894499D02*
G75*
G03*
X238451501Y44894499I-898000J0D01*
G01*
X237553503Y53784499D02*
G75*
G03*
X228663501Y44894499I-101J-8889901D01*
G01*
X246443501Y44894497D02*
G75*
G03*
X237553501Y53784499I-8889901J101D01*
G01*
X237553501Y36004499D02*
G75*
G03*
X246443501Y44894499I0J8890000D01*
G01*
X228663501Y44894499D02*
G75*
G03*
X237553501Y36004499I8890000J0D01*
G01*
X229933501Y40449499D02*
X229933501Y31940499D01*
X245173501Y31940499D02*
X245173501Y40449499D01*
X237553501Y36004499D02*
X237553501Y53784499D01*
X228663501Y44894499D02*
X246443501Y44894499D01*
X229933501Y31940499D02*
X245173501Y31940499D01*
X230949501Y31813499D02*
X233997501Y31813499D01*
X236029501Y31813499D02*
X239077501Y31813499D01*
X241109501Y31813499D02*
X244157501Y31813499D01*
X230949501Y31813499D02*
X230949501Y28765499D01*
X230949501Y28765499D02*
X233997501Y28765499D01*
X233997501Y28765499D02*
X233997501Y31813499D01*
X236029501Y31813499D02*
X236029501Y28765499D01*
X236029501Y28765499D02*
X239077501Y28765499D01*
X239077501Y28765499D02*
X239077501Y31813499D01*
X241109501Y31813499D02*
X241109501Y28765499D01*
X241109501Y28765499D02*
X244157501Y28765499D01*
X244157501Y28765499D02*
X244157501Y31813499D01*
X245237000Y49784000D02*
X245237000Y51054000D01*
X250317000Y49784000D02*
X250317000Y51054000D01*
X245237000Y49784000D02*
X250317000Y49784000D01*
X245237000Y51054000D02*
X245237000Y53594000D01*
X250317000Y51054000D02*
X250317000Y53594000D01*
X245237000Y51054000D02*
X250317000Y51054000D01*
X250317000Y53594000D02*
X245237000Y53594000D01*
X242620800Y27381200D02*
X232460800Y27381200D01*
X232460800Y24841200D02*
X242620800Y24841200D01*
X242620800Y24841200D02*
X242620800Y27381200D01*
X232460800Y24841200D02*
X232460800Y27381200D01*
X232460800Y28651200D02*
X242620800Y28651200D01*
X242620800Y27381200D02*
X242620800Y28651200D01*
X232460800Y27381200D02*
X232460800Y28651200D01*
D10*
X245014685Y24784095D02*
X245395638Y24784095D01*
X245395638Y25584095D01*
X244748019Y25203142D02*
X244481352Y25203142D01*
X244367066Y24784095D02*
X244748019Y24784095D01*
X244748019Y25584095D01*
X244367066Y25584095D01*
X244024209Y24784095D02*
X244024209Y25584095D01*
X243833733Y25584095D01*
X243719447Y25546000D01*
X243643257Y25469809D01*
X243605161Y25393619D01*
X243567066Y25241238D01*
X243567066Y25126952D01*
X243605161Y24974571D01*
X243643257Y24898380D01*
X243719447Y24822190D01*
X243833733Y24784095D01*
X244024209Y24784095D01*
D14*
X243433123Y32099295D02*
X243433123Y32899295D01*
X243195028Y32899295D01*
X243052171Y32861200D01*
X242956933Y32785009D01*
X242909314Y32708819D01*
X242861695Y32556438D01*
X242861695Y32442152D01*
X242909314Y32289771D01*
X242956933Y32213580D01*
X243052171Y32137390D01*
X243195028Y32099295D01*
X243433123Y32099295D01*
X242433123Y32099295D02*
X242433123Y32632628D01*
X242433123Y32899295D02*
X242480742Y32861200D01*
X242433123Y32823104D01*
X242385504Y32861200D01*
X242433123Y32899295D01*
X242433123Y32823104D01*
X241956933Y32099295D02*
X241956933Y32632628D01*
X241956933Y32480247D02*
X241909314Y32556438D01*
X241861695Y32594533D01*
X241766457Y32632628D01*
X241671219Y32632628D01*
X241480742Y32632628D02*
X241099790Y32632628D01*
X241337885Y32899295D02*
X241337885Y32213580D01*
X241290266Y32137390D01*
X241195028Y32099295D01*
X241099790Y32099295D01*
X239671219Y32518342D02*
X239528361Y32480247D01*
X239480742Y32442152D01*
X239433123Y32365961D01*
X239433123Y32251676D01*
X239480742Y32175485D01*
X239528361Y32137390D01*
X239623600Y32099295D01*
X240004552Y32099295D01*
X240004552Y32899295D01*
X239671219Y32899295D01*
X239575980Y32861200D01*
X239528361Y32823104D01*
X239480742Y32746914D01*
X239480742Y32670723D01*
X239528361Y32594533D01*
X239575980Y32556438D01*
X239671219Y32518342D01*
X240004552Y32518342D01*
X238528361Y32899295D02*
X239004552Y32899295D01*
X239052171Y32518342D01*
X239004552Y32556438D01*
X238909314Y32594533D01*
X238671219Y32594533D01*
X238575980Y32556438D01*
X238528361Y32518342D01*
X238480742Y32442152D01*
X238480742Y32251676D01*
X238528361Y32175485D01*
X238575980Y32137390D01*
X238671219Y32099295D01*
X238909314Y32099295D01*
X239004552Y32137390D01*
X239052171Y32175485D01*
X237861695Y32899295D02*
X237766457Y32899295D01*
X237671219Y32861200D01*
X237623600Y32823104D01*
X237575980Y32746914D01*
X237528361Y32594533D01*
X237528361Y32404057D01*
X237575980Y32251676D01*
X237623600Y32175485D01*
X237671219Y32137390D01*
X237766457Y32099295D01*
X237861695Y32099295D01*
X237956933Y32137390D01*
X238004552Y32175485D01*
X238052171Y32251676D01*
X238099790Y32404057D01*
X238099790Y32594533D01*
X238052171Y32746914D01*
X238004552Y32823104D01*
X237956933Y32861200D01*
X237861695Y32899295D01*
X236909314Y32899295D02*
X236814076Y32899295D01*
X236718838Y32861200D01*
X236671219Y32823104D01*
X236623600Y32746914D01*
X236575980Y32594533D01*
X236575980Y32404057D01*
X236623600Y32251676D01*
X236671219Y32175485D01*
X236718838Y32137390D01*
X236814076Y32099295D01*
X236909314Y32099295D01*
X237004552Y32137390D01*
X237052171Y32175485D01*
X237099790Y32251676D01*
X237147409Y32404057D01*
X237147409Y32594533D01*
X237099790Y32746914D01*
X237052171Y32823104D01*
X237004552Y32861200D01*
X236909314Y32899295D01*
X236147409Y32099295D02*
X236147409Y32899295D01*
X236052171Y32404057D02*
X235766457Y32099295D01*
X235766457Y32632628D02*
X236147409Y32327866D01*
D10*
X237267786Y29837118D02*
X237839215Y29837118D01*
X237553501Y29837118D02*
X237553501Y30837118D01*
X237648739Y30694260D01*
X237743977Y30599022D01*
X237839215Y30551403D01*
D11*
X249529523Y50819000D02*
X249605714Y50857095D01*
X249720000Y50857095D01*
X249834285Y50819000D01*
X249910476Y50742809D01*
X249948571Y50666619D01*
X249986666Y50514238D01*
X249986666Y50399952D01*
X249948571Y50247571D01*
X249910476Y50171380D01*
X249834285Y50095190D01*
X249720000Y50057095D01*
X249643809Y50057095D01*
X249529523Y50095190D01*
X249491428Y50133285D01*
X249491428Y50399952D01*
X249643809Y50399952D01*
X249148571Y50057095D02*
X249148571Y50857095D01*
X248691428Y50057095D01*
X248691428Y50857095D01*
X248310476Y50057095D02*
X248310476Y50857095D01*
X248120000Y50857095D01*
X248005714Y50819000D01*
X247929523Y50742809D01*
X247891428Y50666619D01*
X247853333Y50514238D01*
X247853333Y50399952D01*
X247891428Y50247571D01*
X247929523Y50171380D01*
X248005714Y50095190D01*
X248120000Y50057095D01*
X248310476Y50057095D01*
X247141904Y50857095D02*
X246875238Y50057095D01*
X246608571Y50857095D01*
X246341904Y50361857D02*
X245732380Y50361857D01*
X246037142Y50057095D02*
X246037142Y50666619D01*
X234149847Y27654295D02*
X234149847Y28454295D01*
X233768895Y27654295D02*
X233768895Y28454295D01*
X233311752Y27654295D01*
X233311752Y28454295D01*
X236880323Y28416200D02*
X236956514Y28454295D01*
X237070800Y28454295D01*
X237185085Y28416200D01*
X237261276Y28340009D01*
X237299371Y28263819D01*
X237337466Y28111438D01*
X237337466Y27997152D01*
X237299371Y27844771D01*
X237261276Y27768580D01*
X237185085Y27692390D01*
X237070800Y27654295D01*
X236994609Y27654295D01*
X236880323Y27692390D01*
X236842228Y27730485D01*
X236842228Y27997152D01*
X236994609Y27997152D01*
X236499371Y27654295D02*
X236499371Y28454295D01*
X236042228Y27654295D01*
X236042228Y28454295D01*
X235661276Y27654295D02*
X235661276Y28454295D01*
X235470800Y28454295D01*
X235356514Y28416200D01*
X235280323Y28340009D01*
X235242228Y28263819D01*
X235204133Y28111438D01*
X235204133Y27997152D01*
X235242228Y27844771D01*
X235280323Y27768580D01*
X235356514Y27692390D01*
X235470800Y27654295D01*
X235661276Y27654295D01*
X239496514Y27692390D02*
X239382228Y27654295D01*
X239191752Y27654295D01*
X239115561Y27692390D01*
X239077466Y27730485D01*
X239039371Y27806676D01*
X239039371Y27882866D01*
X239077466Y27959057D01*
X239115561Y27997152D01*
X239191752Y28035247D01*
X239344133Y28073342D01*
X239420323Y28111438D01*
X239458419Y28149533D01*
X239496514Y28225723D01*
X239496514Y28301914D01*
X239458419Y28378104D01*
X239420323Y28416200D01*
X239344133Y28454295D01*
X239153657Y28454295D01*
X239039371Y28416200D01*
X238772704Y28454295D02*
X238582228Y27654295D01*
X238429847Y28225723D01*
X238277466Y27654295D01*
X238086990Y28454295D01*
X242150800Y28454295D02*
X241998419Y28454295D01*
X241922228Y28416200D01*
X241846038Y28340009D01*
X241807942Y28187628D01*
X241807942Y27920961D01*
X241846038Y27768580D01*
X241922228Y27692390D01*
X241998419Y27654295D01*
X242150800Y27654295D01*
X242226990Y27692390D01*
X242303180Y27768580D01*
X242341276Y27920961D01*
X242341276Y28187628D01*
X242303180Y28340009D01*
X242226990Y28416200D01*
X242150800Y28454295D01*
X241465085Y28454295D02*
X241465085Y27806676D01*
X241426990Y27730485D01*
X241388895Y27692390D01*
X241312704Y27654295D01*
X241160323Y27654295D01*
X241084133Y27692390D01*
X241046038Y27730485D01*
X241007942Y27806676D01*
X241007942Y28454295D01*
X240741276Y28454295D02*
X240284133Y28454295D01*
X240512704Y27654295D02*
X240512704Y28454295D01*
%LPC*%
D15*
X248412000Y26771600D03*
D16*
X245872000Y26771600D03*
D17*
X248716800Y40182800D03*
D18*
X248716800Y45262800D03*
D19*
X232473501Y30289499D03*
X237553501Y30289499D03*
D20*
X242633501Y30289499D03*
D21*
X232613200Y35966400D03*
X232613200Y38506400D03*
X232613200Y41046400D03*
D22*
X232613200Y43586400D03*
D23*
X227279200Y33223200D03*
D24*
X234899200Y33223200D03*
D23*
X248767600Y37744400D03*
D24*
X248767600Y30124400D03*
D23*
X234442000Y52451000D03*
D24*
X226822000Y52451000D03*
D23*
X243738400Y43383200D03*
D24*
X236118400Y43383200D03*
D23*
X236537500Y52451000D03*
D24*
X244157500Y52451000D03*
D23*
X236118400Y40335200D03*
D24*
X243738400Y40335200D03*
D23*
X245770400Y30124400D03*
D24*
X245770400Y37744400D03*
D21*
X228041200Y38506400D03*
X228041200Y41046400D03*
D22*
X228041200Y43586400D03*
D21*
X249047000Y52324000D03*
D22*
X246507000Y52324000D03*
D21*
X241350800Y26111200D03*
X238810800Y26111200D03*
X236270800Y26111200D03*
D22*
X233730800Y26111200D03*
D24*
X246340000Y47345600D03*
D25*
X243840000Y47345600D03*
D24*
X232471600Y47955200D03*
D25*
X229971600Y47955200D03*
D24*
X237201700Y33794700D03*
X242201700Y33794700D03*
X240204000Y49377600D03*
X235204000Y49377600D03*
X240204000Y46329600D03*
X235204000Y46329600D03*
X242185200Y36830000D03*
X237185200Y36830000D03*
M02*
