G04 #@! TF.GenerationSoftware,KiCad,Pcbnew,(5.99.0-1101-g9de7547c2)*
G04 #@! TF.CreationDate,2020-03-12T16:30:11+02:00*
G04 #@! TF.ProjectId,cabeza-de-carne,63616265-7a61-42d6-9465-2d6361726e65,rev?*
G04 #@! TF.SameCoordinates,Original*
G04 #@! TF.FileFunction,Soldermask,Bot*
G04 #@! TF.FilePolarity,Negative*
%FSLAX46Y46*%
G04 Gerber Fmt 4.6, Leading zero omitted, Abs format (unit mm)*
G04 Created by KiCad (PCBNEW (5.99.0-1101-g9de7547c2)) date 2020-03-12 16:30:11*
%MOMM*%
%LPD*%
G01*
G04 APERTURE LIST*
G04 APERTURE END LIST*
G36*
X238817197Y27050868D02*
G01*
X238866736Y27050522D01*
X238915264Y27040561D01*
X238959103Y27035953D01*
X239007383Y27021651D01*
X239061952Y27010450D01*
X239101931Y26993644D01*
X239138175Y26982908D01*
X239188645Y26957193D01*
X239245667Y26933223D01*
X239276477Y26912441D01*
X239304587Y26898119D01*
X239354549Y26859781D01*
X239410884Y26821783D01*
X239432704Y26799810D01*
X239452758Y26784422D01*
X239499151Y26732897D01*
X239551308Y26680375D01*
X239565005Y26659759D01*
X239577729Y26645628D01*
X239617336Y26580995D01*
X239661592Y26514385D01*
X239668653Y26497254D01*
X239675314Y26486384D01*
X239704889Y26409337D01*
X239737534Y26330135D01*
X239739923Y26318072D01*
X239742245Y26312022D01*
X239758698Y26223251D01*
X239776243Y26134643D01*
X239773064Y25907020D01*
X239769761Y25892481D01*
X239769616Y25886951D01*
X239748907Y25800692D01*
X239728912Y25712686D01*
X239726451Y25707158D01*
X239726401Y25706951D01*
X239650437Y25536332D01*
X239650317Y25536157D01*
X239647855Y25530628D01*
X239595805Y25456842D01*
X239544653Y25382416D01*
X239540071Y25377834D01*
X239532980Y25367782D01*
X239470923Y25308686D01*
X239412584Y25250347D01*
X239402080Y25243128D01*
X239388662Y25230350D01*
X239321141Y25187500D01*
X239258668Y25144563D01*
X239241297Y25136829D01*
X239220398Y25123566D01*
X239151382Y25096796D01*
X239088049Y25068599D01*
X239063472Y25062698D01*
X239034598Y25051499D01*
X238967664Y25039697D01*
X238906445Y25024999D01*
X238874950Y25023349D01*
X238838339Y25016893D01*
X238776488Y25018189D01*
X238719933Y25015225D01*
X238682458Y25020159D01*
X238639096Y25021067D01*
X238584679Y25033031D01*
X238534762Y25039603D01*
X238492848Y25053222D01*
X238444458Y25063861D01*
X238399055Y25083697D01*
X238357140Y25097316D01*
X238312893Y25121340D01*
X238261839Y25143645D01*
X238226227Y25168396D01*
X238193007Y25186433D01*
X238148994Y25222074D01*
X238098194Y25257381D01*
X238072368Y25284125D01*
X238047860Y25303971D01*
X238006975Y25351841D01*
X237959758Y25400736D01*
X237942982Y25426768D01*
X237926567Y25445987D01*
X237891900Y25506031D01*
X237851803Y25568250D01*
X237842692Y25591261D01*
X237833182Y25607733D01*
X237807876Y25679195D01*
X237778440Y25753542D01*
X237775095Y25771769D01*
X237770840Y25783784D01*
X237757932Y25865283D01*
X237742465Y25949555D01*
X237742637Y25961852D01*
X237741623Y25968252D01*
X237743987Y26058565D01*
X237745248Y26148823D01*
X237746505Y26154738D01*
X237746511Y26154955D01*
X237785342Y26337638D01*
X237785424Y26337835D01*
X237786682Y26343755D01*
X237822251Y26426745D01*
X237856814Y26510186D01*
X237860344Y26515622D01*
X237865189Y26526926D01*
X237913591Y26597615D01*
X237958538Y26666828D01*
X237967314Y26676076D01*
X237977780Y26691361D01*
X238034899Y26747296D01*
X238087097Y26802301D01*
X238102487Y26813482D01*
X238120165Y26830794D01*
X238182087Y26871315D01*
X238238190Y26912076D01*
X238261007Y26922959D01*
X238286921Y26939917D01*
X238349935Y26965376D01*
X238406765Y26992483D01*
X238437233Y27000647D01*
X238471697Y27014571D01*
X238532456Y27026161D01*
X238587168Y27040821D01*
X238624856Y27043787D01*
X238667454Y27051913D01*
X238723162Y27051524D01*
X238773362Y27055475D01*
X238817197Y27050868D01*
G37*
G36*
X241357197Y27050868D02*
G01*
X241406736Y27050522D01*
X241455264Y27040561D01*
X241499103Y27035953D01*
X241547383Y27021651D01*
X241601952Y27010450D01*
X241641931Y26993644D01*
X241678175Y26982908D01*
X241728645Y26957193D01*
X241785667Y26933223D01*
X241816477Y26912441D01*
X241844587Y26898119D01*
X241894549Y26859781D01*
X241950884Y26821783D01*
X241972704Y26799810D01*
X241992758Y26784422D01*
X242039151Y26732897D01*
X242091308Y26680375D01*
X242105005Y26659759D01*
X242117729Y26645628D01*
X242157336Y26580995D01*
X242201592Y26514385D01*
X242208653Y26497254D01*
X242215314Y26486384D01*
X242244889Y26409337D01*
X242277534Y26330135D01*
X242279923Y26318072D01*
X242282245Y26312022D01*
X242298698Y26223251D01*
X242316243Y26134643D01*
X242313064Y25907020D01*
X242309761Y25892481D01*
X242309616Y25886951D01*
X242288907Y25800692D01*
X242268912Y25712686D01*
X242266451Y25707158D01*
X242266401Y25706951D01*
X242190437Y25536332D01*
X242190317Y25536157D01*
X242187855Y25530628D01*
X242135805Y25456842D01*
X242084653Y25382416D01*
X242080071Y25377834D01*
X242072980Y25367782D01*
X242010923Y25308686D01*
X241952584Y25250347D01*
X241942080Y25243128D01*
X241928662Y25230350D01*
X241861141Y25187500D01*
X241798668Y25144563D01*
X241781297Y25136829D01*
X241760398Y25123566D01*
X241691382Y25096796D01*
X241628049Y25068599D01*
X241603472Y25062698D01*
X241574598Y25051499D01*
X241507664Y25039697D01*
X241446445Y25024999D01*
X241414950Y25023349D01*
X241378339Y25016893D01*
X241316488Y25018189D01*
X241259933Y25015225D01*
X241222458Y25020159D01*
X241179096Y25021067D01*
X241124679Y25033031D01*
X241074762Y25039603D01*
X241032848Y25053222D01*
X240984458Y25063861D01*
X240939055Y25083697D01*
X240897140Y25097316D01*
X240852893Y25121340D01*
X240801839Y25143645D01*
X240766227Y25168396D01*
X240733007Y25186433D01*
X240688994Y25222074D01*
X240638194Y25257381D01*
X240612368Y25284125D01*
X240587860Y25303971D01*
X240546975Y25351841D01*
X240499758Y25400736D01*
X240482982Y25426768D01*
X240466567Y25445987D01*
X240431900Y25506031D01*
X240391803Y25568250D01*
X240382692Y25591261D01*
X240373182Y25607733D01*
X240347876Y25679195D01*
X240318440Y25753542D01*
X240315095Y25771769D01*
X240310840Y25783784D01*
X240297932Y25865283D01*
X240282465Y25949555D01*
X240282637Y25961852D01*
X240281623Y25968252D01*
X240283987Y26058565D01*
X240285248Y26148823D01*
X240286505Y26154738D01*
X240286511Y26154955D01*
X240325342Y26337638D01*
X240325424Y26337835D01*
X240326682Y26343755D01*
X240362251Y26426745D01*
X240396814Y26510186D01*
X240400344Y26515622D01*
X240405189Y26526926D01*
X240453591Y26597615D01*
X240498538Y26666828D01*
X240507314Y26676076D01*
X240517780Y26691361D01*
X240574899Y26747296D01*
X240627097Y26802301D01*
X240642487Y26813482D01*
X240660165Y26830794D01*
X240722087Y26871315D01*
X240778190Y26912076D01*
X240801007Y26922959D01*
X240826921Y26939917D01*
X240889935Y26965376D01*
X240946765Y26992483D01*
X240977233Y27000647D01*
X241011697Y27014571D01*
X241072456Y27026161D01*
X241127168Y27040821D01*
X241164856Y27043787D01*
X241207454Y27051913D01*
X241263162Y27051524D01*
X241313362Y27055475D01*
X241357197Y27050868D01*
G37*
G36*
X236277197Y27050868D02*
G01*
X236326736Y27050522D01*
X236375264Y27040561D01*
X236419103Y27035953D01*
X236467383Y27021651D01*
X236521952Y27010450D01*
X236561931Y26993644D01*
X236598175Y26982908D01*
X236648645Y26957193D01*
X236705667Y26933223D01*
X236736477Y26912441D01*
X236764587Y26898119D01*
X236814549Y26859781D01*
X236870884Y26821783D01*
X236892704Y26799810D01*
X236912758Y26784422D01*
X236959151Y26732897D01*
X237011308Y26680375D01*
X237025005Y26659759D01*
X237037729Y26645628D01*
X237077336Y26580995D01*
X237121592Y26514385D01*
X237128653Y26497254D01*
X237135314Y26486384D01*
X237164889Y26409337D01*
X237197534Y26330135D01*
X237199923Y26318072D01*
X237202245Y26312022D01*
X237218698Y26223251D01*
X237236243Y26134643D01*
X237233064Y25907020D01*
X237229761Y25892481D01*
X237229616Y25886951D01*
X237208907Y25800692D01*
X237188912Y25712686D01*
X237186451Y25707158D01*
X237186401Y25706951D01*
X237110437Y25536332D01*
X237110317Y25536157D01*
X237107855Y25530628D01*
X237055805Y25456842D01*
X237004653Y25382416D01*
X237000071Y25377834D01*
X236992980Y25367782D01*
X236930923Y25308686D01*
X236872584Y25250347D01*
X236862080Y25243128D01*
X236848662Y25230350D01*
X236781141Y25187500D01*
X236718668Y25144563D01*
X236701297Y25136829D01*
X236680398Y25123566D01*
X236611382Y25096796D01*
X236548049Y25068599D01*
X236523472Y25062698D01*
X236494598Y25051499D01*
X236427664Y25039697D01*
X236366445Y25024999D01*
X236334950Y25023349D01*
X236298339Y25016893D01*
X236236488Y25018189D01*
X236179933Y25015225D01*
X236142458Y25020159D01*
X236099096Y25021067D01*
X236044679Y25033031D01*
X235994762Y25039603D01*
X235952848Y25053222D01*
X235904458Y25063861D01*
X235859055Y25083697D01*
X235817140Y25097316D01*
X235772893Y25121340D01*
X235721839Y25143645D01*
X235686227Y25168396D01*
X235653007Y25186433D01*
X235608994Y25222074D01*
X235558194Y25257381D01*
X235532368Y25284125D01*
X235507860Y25303971D01*
X235466975Y25351841D01*
X235419758Y25400736D01*
X235402982Y25426768D01*
X235386567Y25445987D01*
X235351900Y25506031D01*
X235311803Y25568250D01*
X235302692Y25591261D01*
X235293182Y25607733D01*
X235267876Y25679195D01*
X235238440Y25753542D01*
X235235095Y25771769D01*
X235230840Y25783784D01*
X235217932Y25865283D01*
X235202465Y25949555D01*
X235202637Y25961852D01*
X235201623Y25968252D01*
X235203987Y26058565D01*
X235205248Y26148823D01*
X235206505Y26154738D01*
X235206511Y26154955D01*
X235245342Y26337638D01*
X235245424Y26337835D01*
X235246682Y26343755D01*
X235282251Y26426745D01*
X235316814Y26510186D01*
X235320344Y26515622D01*
X235325189Y26526926D01*
X235373591Y26597615D01*
X235418538Y26666828D01*
X235427314Y26676076D01*
X235437780Y26691361D01*
X235494899Y26747296D01*
X235547097Y26802301D01*
X235562487Y26813482D01*
X235580165Y26830794D01*
X235642087Y26871315D01*
X235698190Y26912076D01*
X235721007Y26922959D01*
X235746921Y26939917D01*
X235809935Y26965376D01*
X235866765Y26992483D01*
X235897233Y27000647D01*
X235931697Y27014571D01*
X235992456Y27026161D01*
X236047168Y27040821D01*
X236084856Y27043787D01*
X236127454Y27051913D01*
X236183162Y27051524D01*
X236233362Y27055475D01*
X236277197Y27050868D01*
G37*
G36*
X234665099Y27048241D02*
G01*
X234681969Y27036969D01*
X234693241Y27020099D01*
X234699648Y26987888D01*
X234699648Y25082112D01*
X234697199Y25069800D01*
X234693241Y25049901D01*
X234681969Y25033031D01*
X234665099Y25021759D01*
X234645200Y25017801D01*
X234632888Y25015352D01*
X232727112Y25015352D01*
X232694901Y25021759D01*
X232678031Y25033031D01*
X232666759Y25049901D01*
X232660352Y25082112D01*
X232660352Y26987888D01*
X232666759Y27020099D01*
X232678031Y27036969D01*
X232694901Y27048241D01*
X232727112Y27054648D01*
X234632888Y27054648D01*
X234665099Y27048241D01*
G37*
G36*
X223649976Y27035173D02*
G01*
X223691766Y27037217D01*
X223736056Y27030360D01*
X223786810Y27027523D01*
X223827163Y27016256D01*
X223862621Y27010767D01*
X223910204Y26993071D01*
X223964898Y26977800D01*
X223996622Y26960932D01*
X224024659Y26950505D01*
X224072757Y26920450D01*
X224128153Y26890995D01*
X224150968Y26871578D01*
X224171271Y26858891D01*
X224216641Y26815686D01*
X224268961Y26771158D01*
X224283463Y26752052D01*
X224296472Y26739664D01*
X224335616Y26683344D01*
X224380751Y26623881D01*
X224388302Y26607540D01*
X224395142Y26597698D01*
X224424508Y26529182D01*
X224458307Y26456034D01*
X224460885Y26444307D01*
X224463247Y26438797D01*
X224479429Y26359963D01*
X224498011Y26275448D01*
X224497345Y26084611D01*
X224478181Y26000261D01*
X224461443Y25921514D01*
X224459041Y25916017D01*
X224456381Y25904307D01*
X224422069Y25831390D01*
X224392227Y25763084D01*
X224385318Y25753290D01*
X224377655Y25737005D01*
X224332114Y25677869D01*
X224292570Y25621812D01*
X224279472Y25609512D01*
X224264840Y25590512D01*
X224212227Y25546364D01*
X224166544Y25503465D01*
X224146147Y25490917D01*
X224123199Y25471661D01*
X224067600Y25442594D01*
X224019293Y25412876D01*
X223991184Y25402645D01*
X223959341Y25385998D01*
X223904534Y25371107D01*
X223856831Y25353745D01*
X223821340Y25348504D01*
X223780911Y25337520D01*
X223730139Y25335037D01*
X223685803Y25328490D01*
X223644027Y25330825D01*
X223596233Y25328488D01*
X223551992Y25335971D01*
X223513189Y25338140D01*
X223466980Y25350349D01*
X223413923Y25359323D01*
X223377839Y25373902D01*
X223346035Y25382305D01*
X223297897Y25406200D01*
X223242488Y25428587D01*
X223215311Y25447195D01*
X223191182Y25459173D01*
X223144128Y25495936D01*
X223089926Y25533049D01*
X223071469Y25552704D01*
X223054950Y25565610D01*
X223012400Y25615606D01*
X222963354Y25667835D01*
X222952608Y25685861D01*
X222942896Y25697273D01*
X222908401Y25760018D01*
X222868678Y25826655D01*
X222863943Y25840888D01*
X222859610Y25848770D01*
X222836692Y25922807D01*
X222810314Y26002101D01*
X222809372Y26011065D01*
X222808486Y26013927D01*
X222800347Y26096931D01*
X222790987Y26185987D01*
X222800967Y26274955D01*
X222809687Y26357921D01*
X222810593Y26360779D01*
X222811598Y26369734D01*
X222838530Y26448846D01*
X222861963Y26522718D01*
X222866350Y26530567D01*
X222871184Y26544768D01*
X222911382Y26611142D01*
X222946304Y26673628D01*
X222956092Y26684968D01*
X222966967Y26702924D01*
X223016385Y26754818D01*
X223059273Y26804504D01*
X223075879Y26817292D01*
X223094477Y26836822D01*
X223148952Y26873566D01*
X223196250Y26909990D01*
X223220458Y26921797D01*
X223247765Y26940216D01*
X223303319Y26962212D01*
X223351633Y26985776D01*
X223383503Y26993959D01*
X223419679Y27008282D01*
X223472795Y27016885D01*
X223519088Y27028771D01*
X223557903Y27030669D01*
X223602199Y27037844D01*
X223649976Y27035173D01*
G37*
G36*
X231269976Y27035173D02*
G01*
X231311766Y27037217D01*
X231356056Y27030360D01*
X231406810Y27027523D01*
X231447163Y27016256D01*
X231482621Y27010767D01*
X231530204Y26993071D01*
X231584898Y26977800D01*
X231616622Y26960932D01*
X231644659Y26950505D01*
X231692757Y26920450D01*
X231748153Y26890995D01*
X231770968Y26871578D01*
X231791271Y26858891D01*
X231836641Y26815686D01*
X231888961Y26771158D01*
X231903463Y26752052D01*
X231916472Y26739664D01*
X231955616Y26683344D01*
X232000751Y26623881D01*
X232008302Y26607540D01*
X232015142Y26597698D01*
X232044508Y26529182D01*
X232078307Y26456034D01*
X232080885Y26444307D01*
X232083247Y26438797D01*
X232099429Y26359963D01*
X232118011Y26275448D01*
X232117345Y26084611D01*
X232098181Y26000261D01*
X232081443Y25921514D01*
X232079041Y25916017D01*
X232076381Y25904307D01*
X232042069Y25831390D01*
X232012227Y25763084D01*
X232005318Y25753290D01*
X231997655Y25737005D01*
X231952114Y25677869D01*
X231912570Y25621812D01*
X231899472Y25609512D01*
X231884840Y25590512D01*
X231832227Y25546364D01*
X231786544Y25503465D01*
X231766147Y25490917D01*
X231743199Y25471661D01*
X231687600Y25442594D01*
X231639293Y25412876D01*
X231611184Y25402645D01*
X231579341Y25385998D01*
X231524534Y25371107D01*
X231476831Y25353745D01*
X231441340Y25348504D01*
X231400911Y25337520D01*
X231350139Y25335037D01*
X231305803Y25328490D01*
X231264027Y25330825D01*
X231216233Y25328488D01*
X231171992Y25335971D01*
X231133189Y25338140D01*
X231086980Y25350349D01*
X231033923Y25359323D01*
X230997839Y25373902D01*
X230966035Y25382305D01*
X230917897Y25406200D01*
X230862488Y25428587D01*
X230835311Y25447195D01*
X230811182Y25459173D01*
X230764128Y25495936D01*
X230709926Y25533049D01*
X230691469Y25552704D01*
X230674950Y25565610D01*
X230632400Y25615606D01*
X230583354Y25667835D01*
X230572608Y25685861D01*
X230562896Y25697273D01*
X230528401Y25760018D01*
X230488678Y25826655D01*
X230483943Y25840888D01*
X230479610Y25848770D01*
X230456692Y25922807D01*
X230430314Y26002101D01*
X230429372Y26011065D01*
X230428486Y26013927D01*
X230420347Y26096931D01*
X230410987Y26185987D01*
X230420967Y26274955D01*
X230429687Y26357921D01*
X230430593Y26360779D01*
X230431598Y26369734D01*
X230458530Y26448846D01*
X230481963Y26522718D01*
X230486350Y26530567D01*
X230491184Y26544768D01*
X230531382Y26611142D01*
X230566304Y26673628D01*
X230576092Y26684968D01*
X230586967Y26702924D01*
X230636385Y26754818D01*
X230679273Y26804504D01*
X230695879Y26817292D01*
X230714477Y26836822D01*
X230768952Y26873566D01*
X230816250Y26909990D01*
X230840458Y26921797D01*
X230867765Y26940216D01*
X230923319Y26962212D01*
X230971633Y26985776D01*
X231003503Y26993959D01*
X231039679Y27008282D01*
X231092795Y27016885D01*
X231139088Y27028771D01*
X231177903Y27030669D01*
X231222199Y27037844D01*
X231269976Y27035173D01*
G37*
G36*
X248571765Y28442936D02*
G01*
X248612582Y28440940D01*
X248661172Y28429095D01*
X248716454Y28420537D01*
X248754840Y28406262D01*
X248788886Y28397962D01*
X248839644Y28374723D01*
X248897537Y28353193D01*
X248927323Y28334580D01*
X248953886Y28322419D01*
X249004065Y28286627D01*
X249061380Y28250812D01*
X249082586Y28230618D01*
X249101620Y28217041D01*
X249148124Y28168207D01*
X249201290Y28117578D01*
X249214669Y28098328D01*
X249226767Y28085624D01*
X249266339Y28023984D01*
X249311552Y27958931D01*
X249318481Y27942766D01*
X249324800Y27932922D01*
X249354144Y27859556D01*
X249387662Y27781354D01*
X249390022Y27769855D01*
X249392193Y27764428D01*
X249408212Y27681240D01*
X249426510Y27592100D01*
X249426434Y27570274D01*
X249425988Y27399622D01*
X249425836Y27398854D01*
X249425813Y27392263D01*
X249407077Y27304118D01*
X249390772Y27221775D01*
X249388258Y27215585D01*
X249385644Y27203285D01*
X249351915Y27126083D01*
X249322500Y27053641D01*
X249315676Y27043133D01*
X249308297Y27026243D01*
X249263103Y26962177D01*
X249223667Y26901450D01*
X249210922Y26888206D01*
X249196930Y26868371D01*
X249144026Y26818691D01*
X249097832Y26770688D01*
X249078043Y26756729D01*
X249056093Y26736116D01*
X248999242Y26701141D01*
X248949549Y26666087D01*
X248922161Y26653721D01*
X248891539Y26634882D01*
X248834290Y26614045D01*
X248784160Y26591410D01*
X248749256Y26583095D01*
X248709990Y26568803D01*
X248655473Y26560753D01*
X248607630Y26549355D01*
X248565969Y26547536D01*
X248518863Y26540580D01*
X248469662Y26543331D01*
X248426334Y26541439D01*
X248379317Y26548382D01*
X248325964Y26551365D01*
X248283955Y26562464D01*
X248246813Y26567949D01*
X248196474Y26585578D01*
X248139173Y26600717D01*
X248105475Y26617445D01*
X248075543Y26627927D01*
X248024424Y26657679D01*
X247966121Y26686621D01*
X247941074Y26706190D01*
X247918707Y26719208D01*
X247869761Y26761906D01*
X247813878Y26805567D01*
X247797063Y26825324D01*
X247781955Y26838504D01*
X247738385Y26894271D01*
X247688661Y26952696D01*
X247678981Y26970303D01*
X247670235Y26981498D01*
X247635358Y27049655D01*
X247595586Y27121999D01*
X247591373Y27135607D01*
X247587568Y27143044D01*
X247564605Y27222082D01*
X247538455Y27306559D01*
X247537636Y27314907D01*
X247536939Y27317308D01*
X247528834Y27404682D01*
X247519602Y27498837D01*
X247529382Y27591891D01*
X247537884Y27678598D01*
X247538832Y27681799D01*
X247539797Y27690979D01*
X247566284Y27774477D01*
X247589425Y27852600D01*
X247593655Y27860761D01*
X247598215Y27875135D01*
X247638092Y27946488D01*
X247672937Y28013709D01*
X247682254Y28025507D01*
X247692469Y28043784D01*
X247742075Y28101254D01*
X247785406Y28156120D01*
X247801209Y28169760D01*
X247818710Y28190036D01*
X247874245Y28232803D01*
X247922778Y28274696D01*
X247945935Y28288012D01*
X247971781Y28307916D01*
X248029536Y28336085D01*
X248080092Y28365156D01*
X248110868Y28375753D01*
X248145428Y28392609D01*
X248202025Y28407141D01*
X248251671Y28424235D01*
X248289661Y28429642D01*
X248332559Y28440656D01*
X248385113Y28443226D01*
X248431330Y28449804D01*
X248475467Y28447646D01*
X248525528Y28450094D01*
X248571765Y28442936D01*
G37*
G36*
X246855399Y28443541D02*
G01*
X246872269Y28432269D01*
X246883541Y28415399D01*
X246889948Y28383188D01*
X246889948Y26607812D01*
X246883541Y26575601D01*
X246872269Y26558731D01*
X246855399Y26547459D01*
X246835500Y26543501D01*
X246823188Y26541052D01*
X245047812Y26541052D01*
X245015601Y26547459D01*
X244998731Y26558731D01*
X244987459Y26575601D01*
X244981052Y26607812D01*
X244981052Y28383188D01*
X244987459Y28415399D01*
X244998731Y28432269D01*
X245015601Y28443541D01*
X245047812Y28449948D01*
X246823188Y28449948D01*
X246855399Y28443541D01*
G37*
G36*
X229618976Y29935174D02*
G01*
X229660766Y29937218D01*
X229705056Y29930361D01*
X229755810Y29927524D01*
X229796163Y29916257D01*
X229831621Y29910768D01*
X229879204Y29893072D01*
X229933898Y29877801D01*
X229965622Y29860933D01*
X229993659Y29850506D01*
X230041757Y29820451D01*
X230097153Y29790996D01*
X230119968Y29771579D01*
X230140271Y29758892D01*
X230185641Y29715687D01*
X230237961Y29671159D01*
X230252463Y29652053D01*
X230265472Y29639665D01*
X230304616Y29583345D01*
X230349751Y29523882D01*
X230357302Y29507541D01*
X230364142Y29497699D01*
X230393508Y29429183D01*
X230427307Y29356035D01*
X230429885Y29344308D01*
X230432247Y29338798D01*
X230448429Y29259964D01*
X230467011Y29175449D01*
X230466345Y28984612D01*
X230447181Y28900262D01*
X230430443Y28821515D01*
X230428041Y28816018D01*
X230425381Y28804308D01*
X230391069Y28731391D01*
X230361227Y28663085D01*
X230354318Y28653291D01*
X230346655Y28637006D01*
X230301114Y28577870D01*
X230261570Y28521813D01*
X230248472Y28509513D01*
X230233840Y28490513D01*
X230181227Y28446365D01*
X230135544Y28403466D01*
X230115147Y28390918D01*
X230092199Y28371662D01*
X230036600Y28342595D01*
X229988293Y28312877D01*
X229960184Y28302646D01*
X229928341Y28285999D01*
X229873534Y28271108D01*
X229825831Y28253746D01*
X229790340Y28248505D01*
X229749911Y28237521D01*
X229699139Y28235038D01*
X229654803Y28228491D01*
X229613027Y28230826D01*
X229565233Y28228489D01*
X229520992Y28235972D01*
X229482189Y28238141D01*
X229435980Y28250350D01*
X229382923Y28259324D01*
X229346839Y28273903D01*
X229315035Y28282306D01*
X229266897Y28306201D01*
X229211488Y28328588D01*
X229184311Y28347196D01*
X229160182Y28359174D01*
X229113128Y28395937D01*
X229058926Y28433050D01*
X229040469Y28452705D01*
X229023950Y28465611D01*
X228981400Y28515607D01*
X228932354Y28567836D01*
X228921608Y28585862D01*
X228911896Y28597274D01*
X228877401Y28660019D01*
X228837678Y28726656D01*
X228832943Y28740889D01*
X228828610Y28748771D01*
X228805692Y28822808D01*
X228779314Y28902102D01*
X228778372Y28911066D01*
X228777486Y28913928D01*
X228769347Y28996932D01*
X228759987Y29085988D01*
X228769967Y29174956D01*
X228778687Y29257922D01*
X228779593Y29260780D01*
X228780598Y29269735D01*
X228807530Y29348847D01*
X228830963Y29422719D01*
X228835350Y29430568D01*
X228840184Y29444769D01*
X228880382Y29511143D01*
X228915304Y29573629D01*
X228925092Y29584969D01*
X228935967Y29602925D01*
X228985385Y29654819D01*
X229028273Y29704505D01*
X229044879Y29717293D01*
X229063477Y29736823D01*
X229117952Y29773567D01*
X229165250Y29809991D01*
X229189458Y29821798D01*
X229216765Y29840217D01*
X229272319Y29862213D01*
X229320633Y29885777D01*
X229352503Y29893960D01*
X229388679Y29908283D01*
X229441795Y29916886D01*
X229488088Y29928772D01*
X229526903Y29930670D01*
X229571199Y29937845D01*
X229618976Y29935174D01*
G37*
G36*
X224618976Y29935174D02*
G01*
X224660766Y29937218D01*
X224705056Y29930361D01*
X224755810Y29927524D01*
X224796163Y29916257D01*
X224831621Y29910768D01*
X224879204Y29893072D01*
X224933898Y29877801D01*
X224965622Y29860933D01*
X224993659Y29850506D01*
X225041757Y29820451D01*
X225097153Y29790996D01*
X225119968Y29771579D01*
X225140271Y29758892D01*
X225185641Y29715687D01*
X225237961Y29671159D01*
X225252463Y29652053D01*
X225265472Y29639665D01*
X225304616Y29583345D01*
X225349751Y29523882D01*
X225357302Y29507541D01*
X225364142Y29497699D01*
X225393508Y29429183D01*
X225427307Y29356035D01*
X225429885Y29344308D01*
X225432247Y29338798D01*
X225448429Y29259964D01*
X225467011Y29175449D01*
X225466345Y28984612D01*
X225447181Y28900262D01*
X225430443Y28821515D01*
X225428041Y28816018D01*
X225425381Y28804308D01*
X225391069Y28731391D01*
X225361227Y28663085D01*
X225354318Y28653291D01*
X225346655Y28637006D01*
X225301114Y28577870D01*
X225261570Y28521813D01*
X225248472Y28509513D01*
X225233840Y28490513D01*
X225181227Y28446365D01*
X225135544Y28403466D01*
X225115147Y28390918D01*
X225092199Y28371662D01*
X225036600Y28342595D01*
X224988293Y28312877D01*
X224960184Y28302646D01*
X224928341Y28285999D01*
X224873534Y28271108D01*
X224825831Y28253746D01*
X224790340Y28248505D01*
X224749911Y28237521D01*
X224699139Y28235038D01*
X224654803Y28228491D01*
X224613027Y28230826D01*
X224565233Y28228489D01*
X224520992Y28235972D01*
X224482189Y28238141D01*
X224435980Y28250350D01*
X224382923Y28259324D01*
X224346839Y28273903D01*
X224315035Y28282306D01*
X224266897Y28306201D01*
X224211488Y28328588D01*
X224184311Y28347196D01*
X224160182Y28359174D01*
X224113128Y28395937D01*
X224058926Y28433050D01*
X224040469Y28452705D01*
X224023950Y28465611D01*
X223981400Y28515607D01*
X223932354Y28567836D01*
X223921608Y28585862D01*
X223911896Y28597274D01*
X223877401Y28660019D01*
X223837678Y28726656D01*
X223832943Y28740889D01*
X223828610Y28748771D01*
X223805692Y28822808D01*
X223779314Y28902102D01*
X223778372Y28911066D01*
X223777486Y28913928D01*
X223769347Y28996932D01*
X223759987Y29085988D01*
X223769967Y29174956D01*
X223778687Y29257922D01*
X223779593Y29260780D01*
X223780598Y29269735D01*
X223807530Y29348847D01*
X223830963Y29422719D01*
X223835350Y29430568D01*
X223840184Y29444769D01*
X223880382Y29511143D01*
X223915304Y29573629D01*
X223925092Y29584969D01*
X223935967Y29602925D01*
X223985385Y29654819D01*
X224028273Y29704505D01*
X224044879Y29717293D01*
X224063477Y29736823D01*
X224117952Y29773567D01*
X224165250Y29809991D01*
X224189458Y29821798D01*
X224216765Y29840217D01*
X224272319Y29862213D01*
X224320633Y29885777D01*
X224352503Y29893960D01*
X224388679Y29908283D01*
X224441795Y29916886D01*
X224488088Y29928772D01*
X224526903Y29930670D01*
X224571199Y29937845D01*
X224618976Y29935174D01*
G37*
G36*
X232536610Y31610499D02*
G01*
X232589074Y31610499D01*
X232649705Y31599808D01*
X232705952Y31594491D01*
X232758303Y31580659D01*
X232816707Y31570361D01*
X232868159Y31551634D01*
X232915977Y31539000D01*
X232971806Y31513910D01*
X233033912Y31491305D01*
X233075391Y31467357D01*
X233114106Y31449958D01*
X233171007Y31412153D01*
X233234090Y31375732D01*
X233265522Y31349357D01*
X233295038Y31329747D01*
X233350237Y31278273D01*
X233411157Y31227155D01*
X233433110Y31200993D01*
X233453908Y31181598D01*
X233504404Y31116028D01*
X233559734Y31050088D01*
X233573361Y31026485D01*
X233586446Y31009494D01*
X233629116Y30929915D01*
X233675307Y30849910D01*
X233682265Y30830793D01*
X233689095Y30818055D01*
X233720817Y30724873D01*
X233754363Y30632705D01*
X233756695Y30619482D01*
X233759098Y30612422D01*
X233776886Y30504968D01*
X233794501Y30405072D01*
X233794501Y30173926D01*
X233787894Y30136455D01*
X233787369Y30114976D01*
X233769683Y30033179D01*
X233754363Y29946293D01*
X233745826Y29922839D01*
X233741788Y29904161D01*
X233707594Y29817796D01*
X233675307Y29729088D01*
X233666286Y29713464D01*
X233661824Y29702193D01*
X233609570Y29615228D01*
X233559734Y29528910D01*
X233552585Y29520391D01*
X233549946Y29515998D01*
X233475478Y29428497D01*
X233411157Y29351843D01*
X233341230Y29293167D01*
X233243243Y29210362D01*
X233240838Y29208929D01*
X233234090Y29203266D01*
X233146714Y29152820D01*
X233056654Y29099133D01*
X233047541Y29095562D01*
X233033912Y29087693D01*
X232943403Y29054750D01*
X232854406Y29019873D01*
X232837992Y29016384D01*
X232816707Y29008637D01*
X232727747Y28992951D01*
X232641930Y28974710D01*
X232618181Y28973631D01*
X232589074Y28968499D01*
X232505170Y28968499D01*
X232424932Y28964855D01*
X232394373Y28968499D01*
X232357928Y28968499D01*
X232281795Y28981923D01*
X232209233Y28990576D01*
X232172963Y29001113D01*
X232130295Y29008637D01*
X232063947Y29032786D01*
X232000630Y29051181D01*
X231960248Y29070529D01*
X231913090Y29087693D01*
X231857808Y29119610D01*
X231804732Y29145040D01*
X231762295Y29174755D01*
X231712912Y29203266D01*
X231669231Y29239919D01*
X231626796Y29269632D01*
X231584748Y29310809D01*
X231535845Y29351843D01*
X231503584Y29390290D01*
X231471590Y29421621D01*
X231432649Y29474827D01*
X231387268Y29528910D01*
X231365606Y29566430D01*
X231343297Y29596911D01*
X231310350Y29662137D01*
X231271695Y29729088D01*
X231259228Y29763341D01*
X231245358Y29790799D01*
X231221344Y29867427D01*
X231192639Y29946293D01*
X231187507Y29975399D01*
X231180398Y29998083D01*
X231168189Y30084956D01*
X231152501Y30173926D01*
X231152501Y30196582D01*
X231150166Y30213196D01*
X231152501Y30308743D01*
X231152501Y30405072D01*
X231155234Y30420571D01*
X231155473Y30430356D01*
X231175116Y30533325D01*
X231192639Y30632705D01*
X231195653Y30640987D01*
X231196177Y30643732D01*
X231240393Y30763908D01*
X231271695Y30849910D01*
X231321695Y30936513D01*
X231378479Y31036470D01*
X231381707Y31040457D01*
X231387268Y31050088D01*
X231451341Y31126447D01*
X231515185Y31205288D01*
X231524249Y31213335D01*
X231535845Y31227155D01*
X231608149Y31287825D01*
X231677625Y31349509D01*
X231693799Y31359694D01*
X231712912Y31375732D01*
X231789303Y31419837D01*
X231861436Y31465261D01*
X231885504Y31475378D01*
X231913090Y31491305D01*
X231989886Y31519256D01*
X232061690Y31549440D01*
X232093892Y31557112D01*
X232130295Y31570361D01*
X232204239Y31583399D01*
X232273003Y31599781D01*
X232313009Y31602579D01*
X232357928Y31610499D01*
X232426273Y31610499D01*
X232489694Y31614934D01*
X232536610Y31610499D01*
G37*
G36*
X237616610Y31610499D02*
G01*
X237669074Y31610499D01*
X237729705Y31599808D01*
X237785952Y31594491D01*
X237838303Y31580659D01*
X237896707Y31570361D01*
X237948159Y31551634D01*
X237995977Y31539000D01*
X238051806Y31513910D01*
X238113912Y31491305D01*
X238155391Y31467357D01*
X238194106Y31449958D01*
X238251007Y31412153D01*
X238314090Y31375732D01*
X238345522Y31349357D01*
X238375038Y31329747D01*
X238430237Y31278273D01*
X238491157Y31227155D01*
X238513110Y31200993D01*
X238533908Y31181598D01*
X238584404Y31116028D01*
X238639734Y31050088D01*
X238653361Y31026485D01*
X238666446Y31009494D01*
X238709116Y30929915D01*
X238755307Y30849910D01*
X238762265Y30830793D01*
X238769095Y30818055D01*
X238800817Y30724873D01*
X238834363Y30632705D01*
X238836695Y30619482D01*
X238839098Y30612422D01*
X238856886Y30504968D01*
X238874501Y30405072D01*
X238874501Y30173926D01*
X238867894Y30136455D01*
X238867369Y30114976D01*
X238849683Y30033179D01*
X238834363Y29946293D01*
X238825826Y29922839D01*
X238821788Y29904161D01*
X238787594Y29817796D01*
X238755307Y29729088D01*
X238746286Y29713464D01*
X238741824Y29702193D01*
X238689570Y29615228D01*
X238639734Y29528910D01*
X238632585Y29520391D01*
X238629946Y29515998D01*
X238555478Y29428497D01*
X238491157Y29351843D01*
X238421230Y29293167D01*
X238323243Y29210362D01*
X238320838Y29208929D01*
X238314090Y29203266D01*
X238226714Y29152820D01*
X238136654Y29099133D01*
X238127541Y29095562D01*
X238113912Y29087693D01*
X238023403Y29054750D01*
X237934406Y29019873D01*
X237917992Y29016384D01*
X237896707Y29008637D01*
X237807747Y28992951D01*
X237721930Y28974710D01*
X237698181Y28973631D01*
X237669074Y28968499D01*
X237585170Y28968499D01*
X237504932Y28964855D01*
X237474373Y28968499D01*
X237437928Y28968499D01*
X237361795Y28981923D01*
X237289233Y28990576D01*
X237252963Y29001113D01*
X237210295Y29008637D01*
X237143947Y29032786D01*
X237080630Y29051181D01*
X237040248Y29070529D01*
X236993090Y29087693D01*
X236937808Y29119610D01*
X236884732Y29145040D01*
X236842295Y29174755D01*
X236792912Y29203266D01*
X236749231Y29239919D01*
X236706796Y29269632D01*
X236664748Y29310809D01*
X236615845Y29351843D01*
X236583584Y29390290D01*
X236551590Y29421621D01*
X236512649Y29474827D01*
X236467268Y29528910D01*
X236445606Y29566430D01*
X236423297Y29596911D01*
X236390350Y29662137D01*
X236351695Y29729088D01*
X236339228Y29763341D01*
X236325358Y29790799D01*
X236301344Y29867427D01*
X236272639Y29946293D01*
X236267507Y29975399D01*
X236260398Y29998083D01*
X236248189Y30084956D01*
X236232501Y30173926D01*
X236232501Y30196582D01*
X236230166Y30213196D01*
X236232501Y30308743D01*
X236232501Y30405072D01*
X236235234Y30420571D01*
X236235473Y30430356D01*
X236255116Y30533325D01*
X236272639Y30632705D01*
X236275653Y30640987D01*
X236276177Y30643732D01*
X236320393Y30763908D01*
X236351695Y30849910D01*
X236401695Y30936513D01*
X236458479Y31036470D01*
X236461707Y31040457D01*
X236467268Y31050088D01*
X236531341Y31126447D01*
X236595185Y31205288D01*
X236604249Y31213335D01*
X236615845Y31227155D01*
X236688149Y31287825D01*
X236757625Y31349509D01*
X236773799Y31359694D01*
X236792912Y31375732D01*
X236869303Y31419837D01*
X236941436Y31465261D01*
X236965504Y31475378D01*
X236993090Y31491305D01*
X237069886Y31519256D01*
X237141690Y31549440D01*
X237173892Y31557112D01*
X237210295Y31570361D01*
X237284239Y31583399D01*
X237353003Y31599781D01*
X237393009Y31602579D01*
X237437928Y31610499D01*
X237506273Y31610499D01*
X237569694Y31614934D01*
X237616610Y31610499D01*
G37*
G36*
X243923400Y31607540D02*
G01*
X243940270Y31596268D01*
X243951542Y31579398D01*
X243957949Y31547187D01*
X243957949Y29031811D01*
X243951542Y28999600D01*
X243940270Y28982730D01*
X243923400Y28971458D01*
X243903501Y28967500D01*
X243891189Y28965051D01*
X241375813Y28965051D01*
X241343602Y28971458D01*
X241326732Y28982730D01*
X241315460Y28999600D01*
X241309053Y29031811D01*
X241309053Y31547187D01*
X241315460Y31579398D01*
X241326732Y31596268D01*
X241343602Y31607540D01*
X241375813Y31613947D01*
X243891189Y31613947D01*
X243923400Y31607540D01*
G37*
G36*
X229602476Y32665674D02*
G01*
X229644266Y32667718D01*
X229688556Y32660861D01*
X229739310Y32658024D01*
X229779663Y32646757D01*
X229815121Y32641268D01*
X229862704Y32623572D01*
X229917398Y32608301D01*
X229949122Y32591433D01*
X229977159Y32581006D01*
X230025257Y32550951D01*
X230080653Y32521496D01*
X230103468Y32502079D01*
X230123771Y32489392D01*
X230169141Y32446187D01*
X230221461Y32401659D01*
X230235963Y32382553D01*
X230248972Y32370165D01*
X230288116Y32313845D01*
X230333251Y32254382D01*
X230340802Y32238041D01*
X230347642Y32228199D01*
X230377008Y32159683D01*
X230410807Y32086535D01*
X230413385Y32074808D01*
X230415747Y32069298D01*
X230431929Y31990464D01*
X230450511Y31905949D01*
X230449845Y31715112D01*
X230430681Y31630762D01*
X230413943Y31552015D01*
X230411541Y31546518D01*
X230408881Y31534808D01*
X230374569Y31461891D01*
X230344727Y31393585D01*
X230337818Y31383791D01*
X230330155Y31367506D01*
X230284614Y31308370D01*
X230245070Y31252313D01*
X230231972Y31240013D01*
X230217340Y31221013D01*
X230164727Y31176865D01*
X230119044Y31133966D01*
X230098647Y31121418D01*
X230075699Y31102162D01*
X230020100Y31073095D01*
X229971793Y31043377D01*
X229943684Y31033146D01*
X229911841Y31016499D01*
X229857034Y31001608D01*
X229809331Y30984246D01*
X229773840Y30979005D01*
X229733411Y30968021D01*
X229682639Y30965538D01*
X229638303Y30958991D01*
X229596527Y30961326D01*
X229548733Y30958989D01*
X229504492Y30966472D01*
X229465689Y30968641D01*
X229419480Y30980850D01*
X229366423Y30989824D01*
X229330339Y31004403D01*
X229298535Y31012806D01*
X229250397Y31036701D01*
X229194988Y31059088D01*
X229167811Y31077696D01*
X229143682Y31089674D01*
X229096628Y31126437D01*
X229042426Y31163550D01*
X229023969Y31183205D01*
X229007450Y31196111D01*
X228964900Y31246107D01*
X228915854Y31298336D01*
X228905108Y31316362D01*
X228895396Y31327774D01*
X228860901Y31390519D01*
X228821178Y31457156D01*
X228816443Y31471389D01*
X228812110Y31479271D01*
X228789192Y31553308D01*
X228762814Y31632602D01*
X228761872Y31641566D01*
X228760986Y31644428D01*
X228752847Y31727432D01*
X228743487Y31816488D01*
X228753467Y31905456D01*
X228762187Y31988422D01*
X228763093Y31991280D01*
X228764098Y32000235D01*
X228791030Y32079347D01*
X228814463Y32153219D01*
X228818850Y32161068D01*
X228823684Y32175269D01*
X228863882Y32241643D01*
X228898804Y32304129D01*
X228908592Y32315469D01*
X228919467Y32333425D01*
X228968885Y32385319D01*
X229011773Y32435005D01*
X229028379Y32447793D01*
X229046977Y32467323D01*
X229101452Y32504067D01*
X229148750Y32540491D01*
X229172958Y32552298D01*
X229200265Y32570717D01*
X229255819Y32592713D01*
X229304133Y32616277D01*
X229336003Y32624460D01*
X229372179Y32638783D01*
X229425295Y32647386D01*
X229471588Y32659272D01*
X229510403Y32661170D01*
X229554699Y32668345D01*
X229602476Y32665674D01*
G37*
G36*
X224602476Y32665674D02*
G01*
X224644266Y32667718D01*
X224688556Y32660861D01*
X224739310Y32658024D01*
X224779663Y32646757D01*
X224815121Y32641268D01*
X224862704Y32623572D01*
X224917398Y32608301D01*
X224949122Y32591433D01*
X224977159Y32581006D01*
X225025257Y32550951D01*
X225080653Y32521496D01*
X225103468Y32502079D01*
X225123771Y32489392D01*
X225169141Y32446187D01*
X225221461Y32401659D01*
X225235963Y32382553D01*
X225248972Y32370165D01*
X225288116Y32313845D01*
X225333251Y32254382D01*
X225340802Y32238041D01*
X225347642Y32228199D01*
X225377008Y32159683D01*
X225410807Y32086535D01*
X225413385Y32074808D01*
X225415747Y32069298D01*
X225431929Y31990464D01*
X225450511Y31905949D01*
X225449845Y31715112D01*
X225430681Y31630762D01*
X225413943Y31552015D01*
X225411541Y31546518D01*
X225408881Y31534808D01*
X225374569Y31461891D01*
X225344727Y31393585D01*
X225337818Y31383791D01*
X225330155Y31367506D01*
X225284614Y31308370D01*
X225245070Y31252313D01*
X225231972Y31240013D01*
X225217340Y31221013D01*
X225164727Y31176865D01*
X225119044Y31133966D01*
X225098647Y31121418D01*
X225075699Y31102162D01*
X225020100Y31073095D01*
X224971793Y31043377D01*
X224943684Y31033146D01*
X224911841Y31016499D01*
X224857034Y31001608D01*
X224809331Y30984246D01*
X224773840Y30979005D01*
X224733411Y30968021D01*
X224682639Y30965538D01*
X224638303Y30958991D01*
X224596527Y30961326D01*
X224548733Y30958989D01*
X224504492Y30966472D01*
X224465689Y30968641D01*
X224419480Y30980850D01*
X224366423Y30989824D01*
X224330339Y31004403D01*
X224298535Y31012806D01*
X224250397Y31036701D01*
X224194988Y31059088D01*
X224167811Y31077696D01*
X224143682Y31089674D01*
X224096628Y31126437D01*
X224042426Y31163550D01*
X224023969Y31183205D01*
X224007450Y31196111D01*
X223964900Y31246107D01*
X223915854Y31298336D01*
X223905108Y31316362D01*
X223895396Y31327774D01*
X223860901Y31390519D01*
X223821178Y31457156D01*
X223816443Y31471389D01*
X223812110Y31479271D01*
X223789192Y31553308D01*
X223762814Y31632602D01*
X223761872Y31641566D01*
X223760986Y31644428D01*
X223752847Y31727432D01*
X223743487Y31816488D01*
X223753467Y31905456D01*
X223762187Y31988422D01*
X223763093Y31991280D01*
X223764098Y32000235D01*
X223791030Y32079347D01*
X223814463Y32153219D01*
X223818850Y32161068D01*
X223823684Y32175269D01*
X223863882Y32241643D01*
X223898804Y32304129D01*
X223908592Y32315469D01*
X223919467Y32333425D01*
X223968885Y32385319D01*
X224011773Y32435005D01*
X224028379Y32447793D01*
X224046977Y32467323D01*
X224101452Y32504067D01*
X224148750Y32540491D01*
X224172958Y32552298D01*
X224200265Y32570717D01*
X224255819Y32592713D01*
X224304133Y32616277D01*
X224336003Y32624460D01*
X224372179Y32638783D01*
X224425295Y32647386D01*
X224471588Y32659272D01*
X224510403Y32661170D01*
X224554699Y32668345D01*
X224602476Y32665674D01*
G37*
G36*
X247335476Y33427674D02*
G01*
X247377266Y33429718D01*
X247421556Y33422861D01*
X247472310Y33420024D01*
X247512663Y33408757D01*
X247548121Y33403268D01*
X247595704Y33385572D01*
X247650398Y33370301D01*
X247682122Y33353433D01*
X247710159Y33343006D01*
X247758257Y33312951D01*
X247813653Y33283496D01*
X247836468Y33264079D01*
X247856771Y33251392D01*
X247902141Y33208187D01*
X247954461Y33163659D01*
X247968963Y33144553D01*
X247981972Y33132165D01*
X248021116Y33075845D01*
X248066251Y33016382D01*
X248073802Y33000041D01*
X248080642Y32990199D01*
X248110008Y32921683D01*
X248143807Y32848535D01*
X248146385Y32836808D01*
X248148747Y32831298D01*
X248164929Y32752464D01*
X248183511Y32667949D01*
X248182845Y32477112D01*
X248163681Y32392762D01*
X248146943Y32314015D01*
X248144541Y32308518D01*
X248141881Y32296808D01*
X248107569Y32223891D01*
X248077727Y32155585D01*
X248070818Y32145791D01*
X248063155Y32129506D01*
X248017614Y32070370D01*
X247978070Y32014313D01*
X247964972Y32002013D01*
X247950340Y31983013D01*
X247897727Y31938865D01*
X247852044Y31895966D01*
X247831647Y31883418D01*
X247808699Y31864162D01*
X247753100Y31835095D01*
X247704793Y31805377D01*
X247676684Y31795146D01*
X247644841Y31778499D01*
X247590034Y31763608D01*
X247542331Y31746246D01*
X247506840Y31741005D01*
X247466411Y31730021D01*
X247415639Y31727538D01*
X247371303Y31720991D01*
X247329527Y31723326D01*
X247281733Y31720989D01*
X247237492Y31728472D01*
X247198689Y31730641D01*
X247152480Y31742850D01*
X247099423Y31751824D01*
X247063339Y31766403D01*
X247031535Y31774806D01*
X246983397Y31798701D01*
X246927988Y31821088D01*
X246900811Y31839696D01*
X246876682Y31851674D01*
X246829628Y31888437D01*
X246775426Y31925550D01*
X246756969Y31945205D01*
X246740450Y31958111D01*
X246697900Y32008107D01*
X246648854Y32060336D01*
X246638108Y32078362D01*
X246628396Y32089774D01*
X246593901Y32152519D01*
X246554178Y32219156D01*
X246549443Y32233389D01*
X246545110Y32241271D01*
X246522192Y32315308D01*
X246495814Y32394602D01*
X246494872Y32403566D01*
X246493986Y32406428D01*
X246485847Y32489432D01*
X246476487Y32578488D01*
X246486467Y32667456D01*
X246495187Y32750422D01*
X246496093Y32753280D01*
X246497098Y32762235D01*
X246524030Y32841347D01*
X246547463Y32915219D01*
X246551850Y32923068D01*
X246556684Y32937269D01*
X246596882Y33003643D01*
X246631804Y33066129D01*
X246641592Y33077469D01*
X246652467Y33095425D01*
X246701885Y33147319D01*
X246744773Y33197005D01*
X246761379Y33209793D01*
X246779977Y33229323D01*
X246834452Y33266067D01*
X246881750Y33302491D01*
X246905958Y33314298D01*
X246933265Y33332717D01*
X246988819Y33354713D01*
X247037133Y33378277D01*
X247069003Y33386460D01*
X247105179Y33400783D01*
X247158295Y33409386D01*
X247204588Y33421272D01*
X247243403Y33423170D01*
X247287699Y33430345D01*
X247335476Y33427674D01*
G37*
G36*
X244795476Y35015174D02*
G01*
X244837266Y35017218D01*
X244881556Y35010361D01*
X244932310Y35007524D01*
X244972663Y34996257D01*
X245008121Y34990768D01*
X245055704Y34973072D01*
X245110398Y34957801D01*
X245142122Y34940933D01*
X245170159Y34930506D01*
X245218257Y34900451D01*
X245273653Y34870996D01*
X245296468Y34851579D01*
X245316771Y34838892D01*
X245362141Y34795687D01*
X245414461Y34751159D01*
X245428963Y34732053D01*
X245441972Y34719665D01*
X245481116Y34663345D01*
X245526251Y34603882D01*
X245533802Y34587541D01*
X245540642Y34577699D01*
X245570008Y34509183D01*
X245603807Y34436035D01*
X245606385Y34424308D01*
X245608747Y34418798D01*
X245624929Y34339964D01*
X245643511Y34255449D01*
X245642845Y34064612D01*
X245623681Y33980262D01*
X245606943Y33901515D01*
X245604541Y33896018D01*
X245601881Y33884308D01*
X245567569Y33811391D01*
X245537727Y33743085D01*
X245530818Y33733291D01*
X245523155Y33717006D01*
X245477614Y33657870D01*
X245438070Y33601813D01*
X245424972Y33589513D01*
X245410340Y33570513D01*
X245357727Y33526365D01*
X245312044Y33483466D01*
X245291647Y33470918D01*
X245268699Y33451662D01*
X245213100Y33422595D01*
X245164793Y33392877D01*
X245136684Y33382646D01*
X245104841Y33365999D01*
X245050034Y33351108D01*
X245002331Y33333746D01*
X244966840Y33328505D01*
X244926411Y33317521D01*
X244875639Y33315038D01*
X244831303Y33308491D01*
X244789527Y33310826D01*
X244741733Y33308489D01*
X244697492Y33315972D01*
X244658689Y33318141D01*
X244612480Y33330350D01*
X244559423Y33339324D01*
X244523339Y33353903D01*
X244491535Y33362306D01*
X244443397Y33386201D01*
X244387988Y33408588D01*
X244360811Y33427196D01*
X244336682Y33439174D01*
X244289628Y33475937D01*
X244235426Y33513050D01*
X244216969Y33532705D01*
X244200450Y33545611D01*
X244157900Y33595607D01*
X244108854Y33647836D01*
X244098108Y33665862D01*
X244088396Y33677274D01*
X244053901Y33740019D01*
X244014178Y33806656D01*
X244009443Y33820889D01*
X244005110Y33828771D01*
X243982192Y33902808D01*
X243955814Y33982102D01*
X243954872Y33991066D01*
X243953986Y33993928D01*
X243945847Y34076932D01*
X243936487Y34165988D01*
X243946467Y34254956D01*
X243955187Y34337922D01*
X243956093Y34340780D01*
X243957098Y34349735D01*
X243984030Y34428847D01*
X244007463Y34502719D01*
X244011850Y34510568D01*
X244016684Y34524769D01*
X244056882Y34591143D01*
X244091804Y34653629D01*
X244101592Y34664969D01*
X244112467Y34682925D01*
X244161885Y34734819D01*
X244204773Y34784505D01*
X244221379Y34797293D01*
X244239977Y34816823D01*
X244294452Y34853567D01*
X244341750Y34889991D01*
X244365958Y34901798D01*
X244393265Y34920217D01*
X244448819Y34942213D01*
X244497133Y34965777D01*
X244529003Y34973960D01*
X244565179Y34988283D01*
X244618295Y34996886D01*
X244664588Y35008772D01*
X244703403Y35010670D01*
X244747699Y35017845D01*
X244795476Y35015174D01*
G37*
G36*
X237175476Y35015174D02*
G01*
X237217266Y35017218D01*
X237261556Y35010361D01*
X237312310Y35007524D01*
X237352663Y34996257D01*
X237388121Y34990768D01*
X237435704Y34973072D01*
X237490398Y34957801D01*
X237522122Y34940933D01*
X237550159Y34930506D01*
X237598257Y34900451D01*
X237653653Y34870996D01*
X237676468Y34851579D01*
X237696771Y34838892D01*
X237742141Y34795687D01*
X237794461Y34751159D01*
X237808963Y34732053D01*
X237821972Y34719665D01*
X237861116Y34663345D01*
X237906251Y34603882D01*
X237913802Y34587541D01*
X237920642Y34577699D01*
X237950008Y34509183D01*
X237983807Y34436035D01*
X237986385Y34424308D01*
X237988747Y34418798D01*
X238004929Y34339964D01*
X238023511Y34255449D01*
X238022845Y34064612D01*
X238003681Y33980262D01*
X237986943Y33901515D01*
X237984541Y33896018D01*
X237981881Y33884308D01*
X237947569Y33811391D01*
X237917727Y33743085D01*
X237910818Y33733291D01*
X237903155Y33717006D01*
X237857614Y33657870D01*
X237818070Y33601813D01*
X237804972Y33589513D01*
X237790340Y33570513D01*
X237737727Y33526365D01*
X237692044Y33483466D01*
X237671647Y33470918D01*
X237648699Y33451662D01*
X237593100Y33422595D01*
X237544793Y33392877D01*
X237516684Y33382646D01*
X237484841Y33365999D01*
X237430034Y33351108D01*
X237382331Y33333746D01*
X237346840Y33328505D01*
X237306411Y33317521D01*
X237255639Y33315038D01*
X237211303Y33308491D01*
X237169527Y33310826D01*
X237121733Y33308489D01*
X237077492Y33315972D01*
X237038689Y33318141D01*
X236992480Y33330350D01*
X236939423Y33339324D01*
X236903339Y33353903D01*
X236871535Y33362306D01*
X236823397Y33386201D01*
X236767988Y33408588D01*
X236740811Y33427196D01*
X236716682Y33439174D01*
X236669628Y33475937D01*
X236615426Y33513050D01*
X236596969Y33532705D01*
X236580450Y33545611D01*
X236537900Y33595607D01*
X236488854Y33647836D01*
X236478108Y33665862D01*
X236468396Y33677274D01*
X236433901Y33740019D01*
X236394178Y33806656D01*
X236389443Y33820889D01*
X236385110Y33828771D01*
X236362192Y33902808D01*
X236335814Y33982102D01*
X236334872Y33991066D01*
X236333986Y33993928D01*
X236325847Y34076932D01*
X236316487Y34165988D01*
X236326467Y34254956D01*
X236335187Y34337922D01*
X236336093Y34340780D01*
X236337098Y34349735D01*
X236364030Y34428847D01*
X236387463Y34502719D01*
X236391850Y34510568D01*
X236396684Y34524769D01*
X236436882Y34591143D01*
X236471804Y34653629D01*
X236481592Y34664969D01*
X236492467Y34682925D01*
X236541885Y34734819D01*
X236584773Y34784505D01*
X236601379Y34797293D01*
X236619977Y34816823D01*
X236674452Y34853567D01*
X236721750Y34889991D01*
X236745958Y34901798D01*
X236773265Y34920217D01*
X236828819Y34942213D01*
X236877133Y34965777D01*
X236909003Y34973960D01*
X236945179Y34988283D01*
X236998295Y34996886D01*
X237044588Y35008772D01*
X237083403Y35010670D01*
X237127699Y35017845D01*
X237175476Y35015174D01*
G37*
G36*
X223649976Y35523174D02*
G01*
X223691766Y35525218D01*
X223736056Y35518361D01*
X223786810Y35515524D01*
X223827163Y35504257D01*
X223862621Y35498768D01*
X223910204Y35481072D01*
X223964898Y35465801D01*
X223996622Y35448933D01*
X224024659Y35438506D01*
X224072757Y35408451D01*
X224128153Y35378996D01*
X224150968Y35359579D01*
X224171271Y35346892D01*
X224216641Y35303687D01*
X224268961Y35259159D01*
X224283463Y35240053D01*
X224296472Y35227665D01*
X224335616Y35171345D01*
X224380751Y35111882D01*
X224388302Y35095541D01*
X224395142Y35085699D01*
X224424508Y35017183D01*
X224458307Y34944035D01*
X224460885Y34932308D01*
X224463247Y34926798D01*
X224479429Y34847964D01*
X224498011Y34763449D01*
X224497345Y34572612D01*
X224478181Y34488262D01*
X224461443Y34409515D01*
X224459041Y34404018D01*
X224456381Y34392308D01*
X224422069Y34319391D01*
X224392227Y34251085D01*
X224385318Y34241291D01*
X224377655Y34225006D01*
X224332114Y34165870D01*
X224292570Y34109813D01*
X224279472Y34097513D01*
X224264840Y34078513D01*
X224212227Y34034365D01*
X224166544Y33991466D01*
X224146147Y33978918D01*
X224123199Y33959662D01*
X224067600Y33930595D01*
X224019293Y33900877D01*
X223991184Y33890646D01*
X223959341Y33873999D01*
X223904534Y33859108D01*
X223856831Y33841746D01*
X223821340Y33836505D01*
X223780911Y33825521D01*
X223730139Y33823038D01*
X223685803Y33816491D01*
X223644027Y33818826D01*
X223596233Y33816489D01*
X223551992Y33823972D01*
X223513189Y33826141D01*
X223466980Y33838350D01*
X223413923Y33847324D01*
X223377839Y33861903D01*
X223346035Y33870306D01*
X223297897Y33894201D01*
X223242488Y33916588D01*
X223215311Y33935196D01*
X223191182Y33947174D01*
X223144128Y33983937D01*
X223089926Y34021050D01*
X223071469Y34040705D01*
X223054950Y34053611D01*
X223012400Y34103607D01*
X222963354Y34155836D01*
X222952608Y34173862D01*
X222942896Y34185274D01*
X222908401Y34248019D01*
X222868678Y34314656D01*
X222863943Y34328889D01*
X222859610Y34336771D01*
X222836692Y34410808D01*
X222810314Y34490102D01*
X222809372Y34499066D01*
X222808486Y34501928D01*
X222800347Y34584932D01*
X222790987Y34673988D01*
X222800967Y34762956D01*
X222809687Y34845922D01*
X222810593Y34848780D01*
X222811598Y34857735D01*
X222838530Y34936847D01*
X222861963Y35010719D01*
X222866350Y35018568D01*
X222871184Y35032769D01*
X222911382Y35099143D01*
X222946304Y35161629D01*
X222956092Y35172969D01*
X222966967Y35190925D01*
X223016385Y35242819D01*
X223059273Y35292505D01*
X223075879Y35305293D01*
X223094477Y35324823D01*
X223148952Y35361567D01*
X223196250Y35397991D01*
X223220458Y35409798D01*
X223247765Y35428217D01*
X223303319Y35450213D01*
X223351633Y35473777D01*
X223383503Y35481960D01*
X223419679Y35496283D01*
X223472795Y35504886D01*
X223519088Y35516772D01*
X223557903Y35518670D01*
X223602199Y35525845D01*
X223649976Y35523174D01*
G37*
G36*
X231269976Y35523174D02*
G01*
X231311766Y35525218D01*
X231356056Y35518361D01*
X231406810Y35515524D01*
X231447163Y35504257D01*
X231482621Y35498768D01*
X231530204Y35481072D01*
X231584898Y35465801D01*
X231616622Y35448933D01*
X231644659Y35438506D01*
X231692757Y35408451D01*
X231748153Y35378996D01*
X231770968Y35359579D01*
X231791271Y35346892D01*
X231836641Y35303687D01*
X231888961Y35259159D01*
X231903463Y35240053D01*
X231916472Y35227665D01*
X231955616Y35171345D01*
X232000751Y35111882D01*
X232008302Y35095541D01*
X232015142Y35085699D01*
X232044508Y35017183D01*
X232078307Y34944035D01*
X232080885Y34932308D01*
X232083247Y34926798D01*
X232099429Y34847964D01*
X232118011Y34763449D01*
X232117345Y34572612D01*
X232098181Y34488262D01*
X232081443Y34409515D01*
X232079041Y34404018D01*
X232076381Y34392308D01*
X232042069Y34319391D01*
X232012227Y34251085D01*
X232005318Y34241291D01*
X231997655Y34225006D01*
X231952114Y34165870D01*
X231912570Y34109813D01*
X231899472Y34097513D01*
X231884840Y34078513D01*
X231832227Y34034365D01*
X231786544Y33991466D01*
X231766147Y33978918D01*
X231743199Y33959662D01*
X231687600Y33930595D01*
X231639293Y33900877D01*
X231611184Y33890646D01*
X231579341Y33873999D01*
X231524534Y33859108D01*
X231476831Y33841746D01*
X231441340Y33836505D01*
X231400911Y33825521D01*
X231350139Y33823038D01*
X231305803Y33816491D01*
X231264027Y33818826D01*
X231216233Y33816489D01*
X231171992Y33823972D01*
X231133189Y33826141D01*
X231086980Y33838350D01*
X231033923Y33847324D01*
X230997839Y33861903D01*
X230966035Y33870306D01*
X230917897Y33894201D01*
X230862488Y33916588D01*
X230835311Y33935196D01*
X230811182Y33947174D01*
X230764128Y33983937D01*
X230709926Y34021050D01*
X230691469Y34040705D01*
X230674950Y34053611D01*
X230632400Y34103607D01*
X230583354Y34155836D01*
X230572608Y34173862D01*
X230562896Y34185274D01*
X230528401Y34248019D01*
X230488678Y34314656D01*
X230483943Y34328889D01*
X230479610Y34336771D01*
X230456692Y34410808D01*
X230430314Y34490102D01*
X230429372Y34499066D01*
X230428486Y34501928D01*
X230420347Y34584932D01*
X230410987Y34673988D01*
X230420967Y34762956D01*
X230429687Y34845922D01*
X230430593Y34848780D01*
X230431598Y34857735D01*
X230458530Y34936847D01*
X230481963Y35010719D01*
X230486350Y35018568D01*
X230491184Y35032769D01*
X230531382Y35099143D01*
X230566304Y35161629D01*
X230576092Y35172969D01*
X230586967Y35190925D01*
X230636385Y35242819D01*
X230679273Y35292505D01*
X230695879Y35305293D01*
X230714477Y35324823D01*
X230768952Y35361567D01*
X230816250Y35397991D01*
X230840458Y35409798D01*
X230867765Y35428217D01*
X230923319Y35450213D01*
X230971633Y35473777D01*
X231003503Y35481960D01*
X231039679Y35496283D01*
X231092795Y35504886D01*
X231139088Y35516772D01*
X231177903Y35518670D01*
X231222199Y35525845D01*
X231269976Y35523174D01*
G37*
G36*
X244795476Y38063174D02*
G01*
X244837266Y38065218D01*
X244881556Y38058361D01*
X244932310Y38055524D01*
X244972663Y38044257D01*
X245008121Y38038768D01*
X245055704Y38021072D01*
X245110398Y38005801D01*
X245142122Y37988933D01*
X245170159Y37978506D01*
X245218257Y37948451D01*
X245273653Y37918996D01*
X245296468Y37899579D01*
X245316771Y37886892D01*
X245362141Y37843687D01*
X245414461Y37799159D01*
X245428963Y37780053D01*
X245441972Y37767665D01*
X245481116Y37711345D01*
X245526251Y37651882D01*
X245533802Y37635541D01*
X245540642Y37625699D01*
X245570008Y37557183D01*
X245603807Y37484035D01*
X245606385Y37472308D01*
X245608747Y37466798D01*
X245624929Y37387964D01*
X245643511Y37303449D01*
X245642845Y37112612D01*
X245623681Y37028262D01*
X245606943Y36949515D01*
X245604541Y36944018D01*
X245601881Y36932308D01*
X245567569Y36859391D01*
X245537727Y36791085D01*
X245530818Y36781291D01*
X245523155Y36765006D01*
X245477614Y36705870D01*
X245438070Y36649813D01*
X245424972Y36637513D01*
X245410340Y36618513D01*
X245357727Y36574365D01*
X245312044Y36531466D01*
X245291647Y36518918D01*
X245268699Y36499662D01*
X245213100Y36470595D01*
X245164793Y36440877D01*
X245136684Y36430646D01*
X245104841Y36413999D01*
X245050034Y36399108D01*
X245002331Y36381746D01*
X244966840Y36376505D01*
X244926411Y36365521D01*
X244875639Y36363038D01*
X244831303Y36356491D01*
X244789527Y36358826D01*
X244741733Y36356489D01*
X244697492Y36363972D01*
X244658689Y36366141D01*
X244612480Y36378350D01*
X244559423Y36387324D01*
X244523339Y36401903D01*
X244491535Y36410306D01*
X244443397Y36434201D01*
X244387988Y36456588D01*
X244360811Y36475196D01*
X244336682Y36487174D01*
X244289628Y36523937D01*
X244235426Y36561050D01*
X244216969Y36580705D01*
X244200450Y36593611D01*
X244157900Y36643607D01*
X244108854Y36695836D01*
X244098108Y36713862D01*
X244088396Y36725274D01*
X244053901Y36788019D01*
X244014178Y36854656D01*
X244009443Y36868889D01*
X244005110Y36876771D01*
X243982192Y36950808D01*
X243955814Y37030102D01*
X243954872Y37039066D01*
X243953986Y37041928D01*
X243945847Y37124932D01*
X243936487Y37213988D01*
X243946467Y37302956D01*
X243955187Y37385922D01*
X243956093Y37388780D01*
X243957098Y37397735D01*
X243984030Y37476847D01*
X244007463Y37550719D01*
X244011850Y37558568D01*
X244016684Y37572769D01*
X244056882Y37639143D01*
X244091804Y37701629D01*
X244101592Y37712969D01*
X244112467Y37730925D01*
X244161885Y37782819D01*
X244204773Y37832505D01*
X244221379Y37845293D01*
X244239977Y37864823D01*
X244294452Y37901567D01*
X244341750Y37937991D01*
X244365958Y37949798D01*
X244393265Y37968217D01*
X244448819Y37990213D01*
X244497133Y38013777D01*
X244529003Y38021960D01*
X244565179Y38036283D01*
X244618295Y38044886D01*
X244664588Y38056772D01*
X244703403Y38058670D01*
X244747699Y38065845D01*
X244795476Y38063174D01*
G37*
G36*
X237175476Y38063174D02*
G01*
X237217266Y38065218D01*
X237261556Y38058361D01*
X237312310Y38055524D01*
X237352663Y38044257D01*
X237388121Y38038768D01*
X237435704Y38021072D01*
X237490398Y38005801D01*
X237522122Y37988933D01*
X237550159Y37978506D01*
X237598257Y37948451D01*
X237653653Y37918996D01*
X237676468Y37899579D01*
X237696771Y37886892D01*
X237742141Y37843687D01*
X237794461Y37799159D01*
X237808963Y37780053D01*
X237821972Y37767665D01*
X237861116Y37711345D01*
X237906251Y37651882D01*
X237913802Y37635541D01*
X237920642Y37625699D01*
X237950008Y37557183D01*
X237983807Y37484035D01*
X237986385Y37472308D01*
X237988747Y37466798D01*
X238004929Y37387964D01*
X238023511Y37303449D01*
X238022845Y37112612D01*
X238003681Y37028262D01*
X237986943Y36949515D01*
X237984541Y36944018D01*
X237981881Y36932308D01*
X237947569Y36859391D01*
X237917727Y36791085D01*
X237910818Y36781291D01*
X237903155Y36765006D01*
X237857614Y36705870D01*
X237818070Y36649813D01*
X237804972Y36637513D01*
X237790340Y36618513D01*
X237737727Y36574365D01*
X237692044Y36531466D01*
X237671647Y36518918D01*
X237648699Y36499662D01*
X237593100Y36470595D01*
X237544793Y36440877D01*
X237516684Y36430646D01*
X237484841Y36413999D01*
X237430034Y36399108D01*
X237382331Y36381746D01*
X237346840Y36376505D01*
X237306411Y36365521D01*
X237255639Y36363038D01*
X237211303Y36356491D01*
X237169527Y36358826D01*
X237121733Y36356489D01*
X237077492Y36363972D01*
X237038689Y36366141D01*
X236992480Y36378350D01*
X236939423Y36387324D01*
X236903339Y36401903D01*
X236871535Y36410306D01*
X236823397Y36434201D01*
X236767988Y36456588D01*
X236740811Y36475196D01*
X236716682Y36487174D01*
X236669628Y36523937D01*
X236615426Y36561050D01*
X236596969Y36580705D01*
X236580450Y36593611D01*
X236537900Y36643607D01*
X236488854Y36695836D01*
X236478108Y36713862D01*
X236468396Y36725274D01*
X236433901Y36788019D01*
X236394178Y36854656D01*
X236389443Y36868889D01*
X236385110Y36876771D01*
X236362192Y36950808D01*
X236335814Y37030102D01*
X236334872Y37039066D01*
X236333986Y37041928D01*
X236325847Y37124932D01*
X236316487Y37213988D01*
X236326467Y37302956D01*
X236335187Y37385922D01*
X236336093Y37388780D01*
X236337098Y37397735D01*
X236364030Y37476847D01*
X236387463Y37550719D01*
X236391850Y37558568D01*
X236396684Y37572769D01*
X236436882Y37639143D01*
X236471804Y37701629D01*
X236481592Y37712969D01*
X236492467Y37730925D01*
X236541885Y37782819D01*
X236584773Y37832505D01*
X236601379Y37845293D01*
X236619977Y37864823D01*
X236674452Y37901567D01*
X236721750Y37937991D01*
X236745958Y37949798D01*
X236773265Y37968217D01*
X236828819Y37990213D01*
X236877133Y38013777D01*
X236909003Y38021960D01*
X236945179Y38036283D01*
X236998295Y38044886D01*
X237044588Y38056772D01*
X237083403Y38058670D01*
X237127699Y38065845D01*
X237175476Y38063174D01*
G37*
G36*
X231197197Y39369868D02*
G01*
X231246736Y39369522D01*
X231295264Y39359561D01*
X231339103Y39354953D01*
X231387383Y39340651D01*
X231441952Y39329450D01*
X231481931Y39312644D01*
X231518175Y39301908D01*
X231568645Y39276193D01*
X231625667Y39252223D01*
X231656477Y39231441D01*
X231684587Y39217119D01*
X231734549Y39178781D01*
X231790884Y39140783D01*
X231812704Y39118810D01*
X231832758Y39103422D01*
X231879151Y39051897D01*
X231931308Y38999375D01*
X231945005Y38978759D01*
X231957729Y38964628D01*
X231997336Y38899995D01*
X232041592Y38833385D01*
X232048653Y38816254D01*
X232055314Y38805384D01*
X232084889Y38728337D01*
X232117534Y38649135D01*
X232119923Y38637072D01*
X232122245Y38631022D01*
X232138698Y38542251D01*
X232156243Y38453643D01*
X232153064Y38226020D01*
X232149761Y38211481D01*
X232149616Y38205951D01*
X232128907Y38119692D01*
X232108912Y38031686D01*
X232106451Y38026158D01*
X232106401Y38025951D01*
X232030437Y37855332D01*
X232030317Y37855157D01*
X232027855Y37849628D01*
X231975805Y37775842D01*
X231924653Y37701416D01*
X231920071Y37696834D01*
X231912980Y37686782D01*
X231850923Y37627686D01*
X231792584Y37569347D01*
X231782080Y37562128D01*
X231768662Y37549350D01*
X231701141Y37506500D01*
X231638668Y37463563D01*
X231621297Y37455829D01*
X231600398Y37442566D01*
X231531382Y37415796D01*
X231468049Y37387599D01*
X231443472Y37381698D01*
X231414598Y37370499D01*
X231347664Y37358697D01*
X231286445Y37343999D01*
X231254950Y37342349D01*
X231218339Y37335893D01*
X231156488Y37337189D01*
X231099933Y37334225D01*
X231062458Y37339159D01*
X231019096Y37340067D01*
X230964679Y37352031D01*
X230914762Y37358603D01*
X230872848Y37372222D01*
X230824458Y37382861D01*
X230779055Y37402697D01*
X230737140Y37416316D01*
X230692893Y37440340D01*
X230641839Y37462645D01*
X230606227Y37487396D01*
X230573007Y37505433D01*
X230528994Y37541074D01*
X230478194Y37576381D01*
X230452368Y37603125D01*
X230427860Y37622971D01*
X230386975Y37670841D01*
X230339758Y37719736D01*
X230322982Y37745768D01*
X230306567Y37764987D01*
X230271900Y37825031D01*
X230231803Y37887250D01*
X230222692Y37910261D01*
X230213182Y37926733D01*
X230187876Y37998195D01*
X230158440Y38072542D01*
X230155095Y38090769D01*
X230150840Y38102784D01*
X230137932Y38184283D01*
X230122465Y38268555D01*
X230122637Y38280852D01*
X230121623Y38287252D01*
X230123987Y38377565D01*
X230125248Y38467823D01*
X230126505Y38473738D01*
X230126511Y38473955D01*
X230165342Y38656638D01*
X230165424Y38656835D01*
X230166682Y38662755D01*
X230202251Y38745745D01*
X230236814Y38829186D01*
X230240344Y38834622D01*
X230245189Y38845926D01*
X230293591Y38916615D01*
X230338538Y38985828D01*
X230347314Y38995076D01*
X230357780Y39010361D01*
X230414899Y39066296D01*
X230467097Y39121301D01*
X230482487Y39132482D01*
X230500165Y39149794D01*
X230562087Y39190315D01*
X230618190Y39231076D01*
X230641007Y39241959D01*
X230666921Y39258917D01*
X230729935Y39284376D01*
X230786765Y39311483D01*
X230817233Y39319647D01*
X230851697Y39333571D01*
X230912456Y39345161D01*
X230967168Y39359821D01*
X231004856Y39362787D01*
X231047454Y39370913D01*
X231103162Y39370524D01*
X231153362Y39374475D01*
X231197197Y39369868D01*
G37*
G36*
X228657197Y39369868D02*
G01*
X228706736Y39369522D01*
X228755264Y39359561D01*
X228799103Y39354953D01*
X228847383Y39340651D01*
X228901952Y39329450D01*
X228941931Y39312644D01*
X228978175Y39301908D01*
X229028645Y39276193D01*
X229085667Y39252223D01*
X229116477Y39231441D01*
X229144587Y39217119D01*
X229194549Y39178781D01*
X229250884Y39140783D01*
X229272704Y39118810D01*
X229292758Y39103422D01*
X229339151Y39051897D01*
X229391308Y38999375D01*
X229405005Y38978759D01*
X229417729Y38964628D01*
X229457336Y38899995D01*
X229501592Y38833385D01*
X229508653Y38816254D01*
X229515314Y38805384D01*
X229544889Y38728337D01*
X229577534Y38649135D01*
X229579923Y38637072D01*
X229582245Y38631022D01*
X229598698Y38542251D01*
X229616243Y38453643D01*
X229613064Y38226020D01*
X229609761Y38211481D01*
X229609616Y38205951D01*
X229588907Y38119692D01*
X229568912Y38031686D01*
X229566451Y38026158D01*
X229566401Y38025951D01*
X229490437Y37855332D01*
X229490317Y37855157D01*
X229487855Y37849628D01*
X229435805Y37775842D01*
X229384653Y37701416D01*
X229380071Y37696834D01*
X229372980Y37686782D01*
X229310923Y37627686D01*
X229252584Y37569347D01*
X229242080Y37562128D01*
X229228662Y37549350D01*
X229161141Y37506500D01*
X229098668Y37463563D01*
X229081297Y37455829D01*
X229060398Y37442566D01*
X228991382Y37415796D01*
X228928049Y37387599D01*
X228903472Y37381698D01*
X228874598Y37370499D01*
X228807664Y37358697D01*
X228746445Y37343999D01*
X228714950Y37342349D01*
X228678339Y37335893D01*
X228616488Y37337189D01*
X228559933Y37334225D01*
X228522458Y37339159D01*
X228479096Y37340067D01*
X228424679Y37352031D01*
X228374762Y37358603D01*
X228332848Y37372222D01*
X228284458Y37382861D01*
X228239055Y37402697D01*
X228197140Y37416316D01*
X228152893Y37440340D01*
X228101839Y37462645D01*
X228066227Y37487396D01*
X228033007Y37505433D01*
X227988994Y37541074D01*
X227938194Y37576381D01*
X227912368Y37603125D01*
X227887860Y37622971D01*
X227846975Y37670841D01*
X227799758Y37719736D01*
X227782982Y37745768D01*
X227766567Y37764987D01*
X227731900Y37825031D01*
X227691803Y37887250D01*
X227682692Y37910261D01*
X227673182Y37926733D01*
X227647876Y37998195D01*
X227618440Y38072542D01*
X227615095Y38090769D01*
X227610840Y38102784D01*
X227597932Y38184283D01*
X227582465Y38268555D01*
X227582637Y38280852D01*
X227581623Y38287252D01*
X227583987Y38377565D01*
X227585248Y38467823D01*
X227586505Y38473738D01*
X227586511Y38473955D01*
X227625342Y38656638D01*
X227625424Y38656835D01*
X227626682Y38662755D01*
X227662251Y38745745D01*
X227696814Y38829186D01*
X227700344Y38834622D01*
X227705189Y38845926D01*
X227753591Y38916615D01*
X227798538Y38985828D01*
X227807314Y38995076D01*
X227817780Y39010361D01*
X227874899Y39066296D01*
X227927097Y39121301D01*
X227942487Y39132482D01*
X227960165Y39149794D01*
X228022087Y39190315D01*
X228078190Y39231076D01*
X228101007Y39241959D01*
X228126921Y39258917D01*
X228189935Y39284376D01*
X228246765Y39311483D01*
X228277233Y39319647D01*
X228311697Y39333571D01*
X228372456Y39345161D01*
X228427168Y39359821D01*
X228464856Y39362787D01*
X228507454Y39370913D01*
X228563162Y39370524D01*
X228613362Y39374475D01*
X228657197Y39369868D01*
G37*
G36*
X227045099Y39367241D02*
G01*
X227061969Y39355969D01*
X227073241Y39339099D01*
X227079648Y39306888D01*
X227079648Y37401112D01*
X227077199Y37388800D01*
X227073241Y37368901D01*
X227061969Y37352031D01*
X227045099Y37340759D01*
X227025200Y37336801D01*
X227012888Y37334352D01*
X225107112Y37334352D01*
X225074901Y37340759D01*
X225058031Y37352031D01*
X225046759Y37368901D01*
X225040352Y37401112D01*
X225040352Y39306888D01*
X225046759Y39339099D01*
X225058031Y39355969D01*
X225074901Y39367241D01*
X225107112Y39373648D01*
X227012888Y39373648D01*
X227045099Y39367241D01*
G37*
G36*
X244261399Y41343541D02*
G01*
X244278269Y41332269D01*
X244289541Y41315399D01*
X244295948Y41283188D01*
X244295948Y39107812D01*
X244293499Y39095500D01*
X244289541Y39075601D01*
X244278269Y39058731D01*
X244261399Y39047459D01*
X244241500Y39043501D01*
X244229188Y39041052D01*
X242053812Y39041052D01*
X242021601Y39047459D01*
X242004731Y39058731D01*
X241993459Y39075601D01*
X241987052Y39107812D01*
X241987052Y41283188D01*
X241993459Y41315399D01*
X242004731Y41332269D01*
X242021601Y41343541D01*
X242053812Y41349948D01*
X244229188Y41349948D01*
X244261399Y41343541D01*
G37*
G36*
X247335476Y41047674D02*
G01*
X247377266Y41049718D01*
X247421556Y41042861D01*
X247472310Y41040024D01*
X247512663Y41028757D01*
X247548121Y41023268D01*
X247595704Y41005572D01*
X247650398Y40990301D01*
X247682122Y40973433D01*
X247710159Y40963006D01*
X247758257Y40932951D01*
X247813653Y40903496D01*
X247836468Y40884079D01*
X247856771Y40871392D01*
X247902141Y40828187D01*
X247954461Y40783659D01*
X247968963Y40764553D01*
X247981972Y40752165D01*
X248021116Y40695845D01*
X248066251Y40636382D01*
X248073802Y40620041D01*
X248080642Y40610199D01*
X248110008Y40541683D01*
X248143807Y40468535D01*
X248146385Y40456808D01*
X248148747Y40451298D01*
X248164929Y40372464D01*
X248183511Y40287949D01*
X248182845Y40097112D01*
X248163681Y40012762D01*
X248146943Y39934015D01*
X248144541Y39928518D01*
X248141881Y39916808D01*
X248107569Y39843891D01*
X248077727Y39775585D01*
X248070818Y39765791D01*
X248063155Y39749506D01*
X248017614Y39690370D01*
X247978070Y39634313D01*
X247964972Y39622013D01*
X247950340Y39603013D01*
X247897727Y39558865D01*
X247852044Y39515966D01*
X247831647Y39503418D01*
X247808699Y39484162D01*
X247753100Y39455095D01*
X247704793Y39425377D01*
X247676684Y39415146D01*
X247644841Y39398499D01*
X247590034Y39383608D01*
X247542331Y39366246D01*
X247506840Y39361005D01*
X247466411Y39350021D01*
X247415639Y39347538D01*
X247371303Y39340991D01*
X247329527Y39343326D01*
X247281733Y39340989D01*
X247237492Y39348472D01*
X247198689Y39350641D01*
X247152480Y39362850D01*
X247099423Y39371824D01*
X247063339Y39386403D01*
X247031535Y39394806D01*
X246983397Y39418701D01*
X246927988Y39441088D01*
X246900811Y39459696D01*
X246876682Y39471674D01*
X246829628Y39508437D01*
X246775426Y39545550D01*
X246756969Y39565205D01*
X246740450Y39578111D01*
X246697900Y39628107D01*
X246648854Y39680336D01*
X246638108Y39698362D01*
X246628396Y39709774D01*
X246593901Y39772519D01*
X246554178Y39839156D01*
X246549443Y39853389D01*
X246545110Y39861271D01*
X246522192Y39935308D01*
X246495814Y40014602D01*
X246494872Y40023566D01*
X246493986Y40026428D01*
X246485847Y40109432D01*
X246476487Y40198488D01*
X246486467Y40287456D01*
X246495187Y40370422D01*
X246496093Y40373280D01*
X246497098Y40382235D01*
X246524030Y40461347D01*
X246547463Y40535219D01*
X246551850Y40543068D01*
X246556684Y40557269D01*
X246596882Y40623643D01*
X246631804Y40686129D01*
X246641592Y40697469D01*
X246652467Y40715425D01*
X246701885Y40767319D01*
X246744773Y40817005D01*
X246761379Y40829793D01*
X246779977Y40849323D01*
X246834452Y40886067D01*
X246881750Y40922491D01*
X246905958Y40934298D01*
X246933265Y40952717D01*
X246988819Y40974713D01*
X247037133Y40998277D01*
X247069003Y41006460D01*
X247105179Y41020783D01*
X247158295Y41029386D01*
X247204588Y41041272D01*
X247243403Y41043170D01*
X247287699Y41050345D01*
X247335476Y41047674D01*
G37*
G36*
X228657197Y43814868D02*
G01*
X228706736Y43814522D01*
X228755264Y43804561D01*
X228799103Y43799953D01*
X228847383Y43785651D01*
X228901952Y43774450D01*
X228941931Y43757644D01*
X228978175Y43746908D01*
X229028645Y43721193D01*
X229085667Y43697223D01*
X229116477Y43676441D01*
X229144587Y43662119D01*
X229194549Y43623781D01*
X229250884Y43585783D01*
X229272704Y43563810D01*
X229292758Y43548422D01*
X229339151Y43496897D01*
X229391308Y43444375D01*
X229405005Y43423759D01*
X229417729Y43409628D01*
X229457336Y43344995D01*
X229501592Y43278385D01*
X229508653Y43261254D01*
X229515314Y43250384D01*
X229544889Y43173337D01*
X229577534Y43094135D01*
X229579923Y43082072D01*
X229582245Y43076022D01*
X229598698Y42987251D01*
X229616243Y42898643D01*
X229613064Y42671020D01*
X229609761Y42656481D01*
X229609616Y42650951D01*
X229588907Y42564692D01*
X229568912Y42476686D01*
X229566451Y42471158D01*
X229566401Y42470951D01*
X229490437Y42300332D01*
X229490317Y42300157D01*
X229487855Y42294628D01*
X229435805Y42220842D01*
X229384653Y42146416D01*
X229380071Y42141834D01*
X229372980Y42131782D01*
X229310923Y42072686D01*
X229252584Y42014347D01*
X229242080Y42007128D01*
X229228662Y41994350D01*
X229161141Y41951500D01*
X229098668Y41908563D01*
X229081297Y41900829D01*
X229060398Y41887566D01*
X228991382Y41860796D01*
X228928049Y41832599D01*
X228903472Y41826698D01*
X228874598Y41815499D01*
X228807664Y41803697D01*
X228746445Y41788999D01*
X228714950Y41787349D01*
X228678339Y41780893D01*
X228616488Y41782189D01*
X228559933Y41779225D01*
X228522458Y41784159D01*
X228479096Y41785067D01*
X228424679Y41797031D01*
X228374762Y41803603D01*
X228332848Y41817222D01*
X228284458Y41827861D01*
X228239055Y41847697D01*
X228197140Y41861316D01*
X228152893Y41885340D01*
X228101839Y41907645D01*
X228066227Y41932396D01*
X228033007Y41950433D01*
X227988994Y41986074D01*
X227938194Y42021381D01*
X227912368Y42048125D01*
X227887860Y42067971D01*
X227846975Y42115841D01*
X227799758Y42164736D01*
X227782982Y42190768D01*
X227766567Y42209987D01*
X227731900Y42270031D01*
X227691803Y42332250D01*
X227682692Y42355261D01*
X227673182Y42371733D01*
X227647876Y42443195D01*
X227618440Y42517542D01*
X227615095Y42535769D01*
X227610840Y42547784D01*
X227597932Y42629283D01*
X227582465Y42713555D01*
X227582637Y42725852D01*
X227581623Y42732252D01*
X227583987Y42822565D01*
X227585248Y42912823D01*
X227586505Y42918738D01*
X227586511Y42918955D01*
X227625342Y43101638D01*
X227625424Y43101835D01*
X227626682Y43107755D01*
X227662251Y43190745D01*
X227696814Y43274186D01*
X227700344Y43279622D01*
X227705189Y43290926D01*
X227753591Y43361615D01*
X227798538Y43430828D01*
X227807314Y43440076D01*
X227817780Y43455361D01*
X227874899Y43511296D01*
X227927097Y43566301D01*
X227942487Y43577482D01*
X227960165Y43594794D01*
X228022087Y43635315D01*
X228078190Y43676076D01*
X228101007Y43686959D01*
X228126921Y43703917D01*
X228189935Y43729376D01*
X228246765Y43756483D01*
X228277233Y43764647D01*
X228311697Y43778571D01*
X228372456Y43790161D01*
X228427168Y43804821D01*
X228464856Y43807787D01*
X228507454Y43815913D01*
X228563162Y43815524D01*
X228613362Y43819475D01*
X228657197Y43814868D01*
G37*
G36*
X233737197Y43814868D02*
G01*
X233786736Y43814522D01*
X233835264Y43804561D01*
X233879103Y43799953D01*
X233927383Y43785651D01*
X233981952Y43774450D01*
X234021931Y43757644D01*
X234058175Y43746908D01*
X234108645Y43721193D01*
X234165667Y43697223D01*
X234196477Y43676441D01*
X234224587Y43662119D01*
X234274549Y43623781D01*
X234330884Y43585783D01*
X234352704Y43563810D01*
X234372758Y43548422D01*
X234419151Y43496897D01*
X234471308Y43444375D01*
X234485005Y43423759D01*
X234497729Y43409628D01*
X234537336Y43344995D01*
X234581592Y43278385D01*
X234588653Y43261254D01*
X234595314Y43250384D01*
X234624889Y43173337D01*
X234657534Y43094135D01*
X234659923Y43082072D01*
X234662245Y43076022D01*
X234678698Y42987251D01*
X234696243Y42898643D01*
X234693064Y42671020D01*
X234689761Y42656481D01*
X234689616Y42650951D01*
X234668907Y42564692D01*
X234648912Y42476686D01*
X234646451Y42471158D01*
X234646401Y42470951D01*
X234570437Y42300332D01*
X234570317Y42300157D01*
X234567855Y42294628D01*
X234515805Y42220842D01*
X234464653Y42146416D01*
X234460071Y42141834D01*
X234452980Y42131782D01*
X234390923Y42072686D01*
X234332584Y42014347D01*
X234322080Y42007128D01*
X234308662Y41994350D01*
X234241141Y41951500D01*
X234178668Y41908563D01*
X234161297Y41900829D01*
X234140398Y41887566D01*
X234071382Y41860796D01*
X234008049Y41832599D01*
X233983472Y41826698D01*
X233954598Y41815499D01*
X233887664Y41803697D01*
X233826445Y41788999D01*
X233794950Y41787349D01*
X233758339Y41780893D01*
X233696488Y41782189D01*
X233639933Y41779225D01*
X233602458Y41784159D01*
X233559096Y41785067D01*
X233504679Y41797031D01*
X233454762Y41803603D01*
X233412848Y41817222D01*
X233364458Y41827861D01*
X233319055Y41847697D01*
X233277140Y41861316D01*
X233232893Y41885340D01*
X233181839Y41907645D01*
X233146227Y41932396D01*
X233113007Y41950433D01*
X233068994Y41986074D01*
X233018194Y42021381D01*
X232992368Y42048125D01*
X232967860Y42067971D01*
X232926975Y42115841D01*
X232879758Y42164736D01*
X232862982Y42190768D01*
X232846567Y42209987D01*
X232811900Y42270031D01*
X232771803Y42332250D01*
X232762692Y42355261D01*
X232753182Y42371733D01*
X232727876Y42443195D01*
X232698440Y42517542D01*
X232695095Y42535769D01*
X232690840Y42547784D01*
X232677932Y42629283D01*
X232662465Y42713555D01*
X232662637Y42725852D01*
X232661623Y42732252D01*
X232663987Y42822565D01*
X232665248Y42912823D01*
X232666505Y42918738D01*
X232666511Y42918955D01*
X232705342Y43101638D01*
X232705424Y43101835D01*
X232706682Y43107755D01*
X232742251Y43190745D01*
X232776814Y43274186D01*
X232780344Y43279622D01*
X232785189Y43290926D01*
X232833591Y43361615D01*
X232878538Y43430828D01*
X232887314Y43440076D01*
X232897780Y43455361D01*
X232954899Y43511296D01*
X233007097Y43566301D01*
X233022487Y43577482D01*
X233040165Y43594794D01*
X233102087Y43635315D01*
X233158190Y43676076D01*
X233181007Y43686959D01*
X233206921Y43703917D01*
X233269935Y43729376D01*
X233326765Y43756483D01*
X233357233Y43764647D01*
X233391697Y43778571D01*
X233452456Y43790161D01*
X233507168Y43804821D01*
X233544856Y43807787D01*
X233587454Y43815913D01*
X233643162Y43815524D01*
X233693362Y43819475D01*
X233737197Y43814868D01*
G37*
G36*
X231197197Y43814868D02*
G01*
X231246736Y43814522D01*
X231295264Y43804561D01*
X231339103Y43799953D01*
X231387383Y43785651D01*
X231441952Y43774450D01*
X231481931Y43757644D01*
X231518175Y43746908D01*
X231568645Y43721193D01*
X231625667Y43697223D01*
X231656477Y43676441D01*
X231684587Y43662119D01*
X231734549Y43623781D01*
X231790884Y43585783D01*
X231812704Y43563810D01*
X231832758Y43548422D01*
X231879151Y43496897D01*
X231931308Y43444375D01*
X231945005Y43423759D01*
X231957729Y43409628D01*
X231997336Y43344995D01*
X232041592Y43278385D01*
X232048653Y43261254D01*
X232055314Y43250384D01*
X232084889Y43173337D01*
X232117534Y43094135D01*
X232119923Y43082072D01*
X232122245Y43076022D01*
X232138698Y42987251D01*
X232156243Y42898643D01*
X232153064Y42671020D01*
X232149761Y42656481D01*
X232149616Y42650951D01*
X232128907Y42564692D01*
X232108912Y42476686D01*
X232106451Y42471158D01*
X232106401Y42470951D01*
X232030437Y42300332D01*
X232030317Y42300157D01*
X232027855Y42294628D01*
X231975805Y42220842D01*
X231924653Y42146416D01*
X231920071Y42141834D01*
X231912980Y42131782D01*
X231850923Y42072686D01*
X231792584Y42014347D01*
X231782080Y42007128D01*
X231768662Y41994350D01*
X231701141Y41951500D01*
X231638668Y41908563D01*
X231621297Y41900829D01*
X231600398Y41887566D01*
X231531382Y41860796D01*
X231468049Y41832599D01*
X231443472Y41826698D01*
X231414598Y41815499D01*
X231347664Y41803697D01*
X231286445Y41788999D01*
X231254950Y41787349D01*
X231218339Y41780893D01*
X231156488Y41782189D01*
X231099933Y41779225D01*
X231062458Y41784159D01*
X231019096Y41785067D01*
X230964679Y41797031D01*
X230914762Y41803603D01*
X230872848Y41817222D01*
X230824458Y41827861D01*
X230779055Y41847697D01*
X230737140Y41861316D01*
X230692893Y41885340D01*
X230641839Y41907645D01*
X230606227Y41932396D01*
X230573007Y41950433D01*
X230528994Y41986074D01*
X230478194Y42021381D01*
X230452368Y42048125D01*
X230427860Y42067971D01*
X230386975Y42115841D01*
X230339758Y42164736D01*
X230322982Y42190768D01*
X230306567Y42209987D01*
X230271900Y42270031D01*
X230231803Y42332250D01*
X230222692Y42355261D01*
X230213182Y42371733D01*
X230187876Y42443195D01*
X230158440Y42517542D01*
X230155095Y42535769D01*
X230150840Y42547784D01*
X230137932Y42629283D01*
X230122465Y42713555D01*
X230122637Y42725852D01*
X230121623Y42732252D01*
X230123987Y42822565D01*
X230125248Y42912823D01*
X230126505Y42918738D01*
X230126511Y42918955D01*
X230165342Y43101638D01*
X230165424Y43101835D01*
X230166682Y43107755D01*
X230202251Y43190745D01*
X230236814Y43274186D01*
X230240344Y43279622D01*
X230245189Y43290926D01*
X230293591Y43361615D01*
X230338538Y43430828D01*
X230347314Y43440076D01*
X230357780Y43455361D01*
X230414899Y43511296D01*
X230467097Y43566301D01*
X230482487Y43577482D01*
X230500165Y43594794D01*
X230562087Y43635315D01*
X230618190Y43676076D01*
X230641007Y43686959D01*
X230666921Y43703917D01*
X230729935Y43729376D01*
X230786765Y43756483D01*
X230817233Y43764647D01*
X230851697Y43778571D01*
X230912456Y43790161D01*
X230967168Y43804821D01*
X231004856Y43807787D01*
X231047454Y43815913D01*
X231103162Y43815524D01*
X231153362Y43819475D01*
X231197197Y43814868D01*
G37*
G36*
X227045099Y43812241D02*
G01*
X227061969Y43800969D01*
X227073241Y43784099D01*
X227079648Y43751888D01*
X227079648Y41846112D01*
X227077199Y41833800D01*
X227073241Y41813901D01*
X227061969Y41797031D01*
X227045099Y41785759D01*
X227025200Y41781801D01*
X227012888Y41779352D01*
X225107112Y41779352D01*
X225074901Y41785759D01*
X225058031Y41797031D01*
X225046759Y41813901D01*
X225040352Y41846112D01*
X225040352Y43751888D01*
X225046759Y43784099D01*
X225058031Y43800969D01*
X225074901Y43812241D01*
X225107112Y43818648D01*
X227012888Y43818648D01*
X227045099Y43812241D01*
G37*
G36*
X246232476Y46000674D02*
G01*
X246274266Y46002718D01*
X246318556Y45995861D01*
X246369310Y45993024D01*
X246409663Y45981757D01*
X246445121Y45976268D01*
X246492704Y45958572D01*
X246547398Y45943301D01*
X246579122Y45926433D01*
X246607159Y45916006D01*
X246655257Y45885951D01*
X246710653Y45856496D01*
X246733468Y45837079D01*
X246753771Y45824392D01*
X246799141Y45781187D01*
X246851461Y45736659D01*
X246865963Y45717553D01*
X246878972Y45705165D01*
X246918116Y45648845D01*
X246963251Y45589382D01*
X246970802Y45573041D01*
X246977642Y45563199D01*
X247007008Y45494683D01*
X247040807Y45421535D01*
X247043385Y45409808D01*
X247045747Y45404298D01*
X247061929Y45325464D01*
X247080511Y45240949D01*
X247079845Y45050112D01*
X247060681Y44965762D01*
X247043943Y44887015D01*
X247041541Y44881518D01*
X247038881Y44869808D01*
X247004569Y44796891D01*
X246974727Y44728585D01*
X246967818Y44718791D01*
X246960155Y44702506D01*
X246914614Y44643370D01*
X246875070Y44587313D01*
X246861972Y44575013D01*
X246847340Y44556013D01*
X246794727Y44511865D01*
X246749044Y44468966D01*
X246728647Y44456418D01*
X246705699Y44437162D01*
X246650100Y44408095D01*
X246601793Y44378377D01*
X246573684Y44368146D01*
X246541841Y44351499D01*
X246487034Y44336608D01*
X246439331Y44319246D01*
X246403840Y44314005D01*
X246363411Y44303021D01*
X246312639Y44300538D01*
X246268303Y44293991D01*
X246226527Y44296326D01*
X246178733Y44293989D01*
X246134492Y44301472D01*
X246095689Y44303641D01*
X246049480Y44315850D01*
X245996423Y44324824D01*
X245960339Y44339403D01*
X245928535Y44347806D01*
X245880397Y44371701D01*
X245824988Y44394088D01*
X245797811Y44412696D01*
X245773682Y44424674D01*
X245726628Y44461437D01*
X245672426Y44498550D01*
X245653969Y44518205D01*
X245637450Y44531111D01*
X245594900Y44581107D01*
X245545854Y44633336D01*
X245535108Y44651362D01*
X245525396Y44662774D01*
X245490901Y44725519D01*
X245451178Y44792156D01*
X245446443Y44806389D01*
X245442110Y44814271D01*
X245419192Y44888308D01*
X245392814Y44967602D01*
X245391872Y44976566D01*
X245390986Y44979428D01*
X245382847Y45062432D01*
X245373487Y45151488D01*
X245383467Y45240456D01*
X245392187Y45323422D01*
X245393093Y45326280D01*
X245394098Y45335235D01*
X245421030Y45414347D01*
X245444463Y45488219D01*
X245448850Y45496068D01*
X245453684Y45510269D01*
X245493882Y45576643D01*
X245528804Y45639129D01*
X245538592Y45650469D01*
X245549467Y45668425D01*
X245598885Y45720319D01*
X245641773Y45770005D01*
X245658379Y45782793D01*
X245676977Y45802323D01*
X245731452Y45839067D01*
X245778750Y45875491D01*
X245802958Y45887298D01*
X245830265Y45905717D01*
X245885819Y45927713D01*
X245934133Y45951277D01*
X245966003Y45959460D01*
X246002179Y45973783D01*
X246055295Y45982386D01*
X246101588Y45994272D01*
X246140403Y45996170D01*
X246184699Y46003345D01*
X246232476Y46000674D01*
G37*
G36*
X249549399Y45996541D02*
G01*
X249566269Y45985269D01*
X249577541Y45968399D01*
X249583948Y45936188D01*
X249583948Y44360812D01*
X249581499Y44348500D01*
X249577541Y44328601D01*
X249566269Y44311731D01*
X249549399Y44300459D01*
X249529500Y44296501D01*
X249517188Y44294052D01*
X247941812Y44294052D01*
X247909601Y44300459D01*
X247892731Y44311731D01*
X247881459Y44328601D01*
X247875052Y44360812D01*
X247875052Y45936188D01*
X247881459Y45968399D01*
X247892731Y45985269D01*
X247909601Y45996541D01*
X247941812Y46002948D01*
X249517188Y46002948D01*
X249549399Y45996541D01*
G37*
G36*
X236222976Y47190674D02*
G01*
X236264766Y47192718D01*
X236309056Y47185861D01*
X236359810Y47183024D01*
X236400163Y47171757D01*
X236435621Y47166268D01*
X236483204Y47148572D01*
X236537898Y47133301D01*
X236569622Y47116433D01*
X236597659Y47106006D01*
X236645757Y47075951D01*
X236701153Y47046496D01*
X236723968Y47027079D01*
X236744271Y47014392D01*
X236789641Y46971187D01*
X236841961Y46926659D01*
X236856463Y46907553D01*
X236869472Y46895165D01*
X236908616Y46838845D01*
X236953751Y46779382D01*
X236961302Y46763041D01*
X236968142Y46753199D01*
X236997508Y46684683D01*
X237031307Y46611535D01*
X237033885Y46599808D01*
X237036247Y46594298D01*
X237052429Y46515464D01*
X237071011Y46430949D01*
X237070345Y46240112D01*
X237051181Y46155762D01*
X237034443Y46077015D01*
X237032041Y46071518D01*
X237029381Y46059808D01*
X236995069Y45986891D01*
X236965227Y45918585D01*
X236958318Y45908791D01*
X236950655Y45892506D01*
X236905114Y45833370D01*
X236865570Y45777313D01*
X236852472Y45765013D01*
X236837840Y45746013D01*
X236785227Y45701865D01*
X236739544Y45658966D01*
X236719147Y45646418D01*
X236696199Y45627162D01*
X236640600Y45598095D01*
X236592293Y45568377D01*
X236564184Y45558146D01*
X236532341Y45541499D01*
X236477534Y45526608D01*
X236429831Y45509246D01*
X236394340Y45504005D01*
X236353911Y45493021D01*
X236303139Y45490538D01*
X236258803Y45483991D01*
X236217027Y45486326D01*
X236169233Y45483989D01*
X236124992Y45491472D01*
X236086189Y45493641D01*
X236039980Y45505850D01*
X235986923Y45514824D01*
X235950839Y45529403D01*
X235919035Y45537806D01*
X235870897Y45561701D01*
X235815488Y45584088D01*
X235788311Y45602696D01*
X235764182Y45614674D01*
X235717128Y45651437D01*
X235662926Y45688550D01*
X235644469Y45708205D01*
X235627950Y45721111D01*
X235585400Y45771107D01*
X235536354Y45823336D01*
X235525608Y45841362D01*
X235515896Y45852774D01*
X235481401Y45915519D01*
X235441678Y45982156D01*
X235436943Y45996389D01*
X235432610Y46004271D01*
X235409692Y46078308D01*
X235383314Y46157602D01*
X235382372Y46166566D01*
X235381486Y46169428D01*
X235373347Y46252432D01*
X235363987Y46341488D01*
X235373967Y46430456D01*
X235382687Y46513422D01*
X235383593Y46516280D01*
X235384598Y46525235D01*
X235411530Y46604347D01*
X235434963Y46678219D01*
X235439350Y46686068D01*
X235444184Y46700269D01*
X235484382Y46766643D01*
X235519304Y46829129D01*
X235529092Y46840469D01*
X235539967Y46858425D01*
X235589385Y46910319D01*
X235632273Y46960005D01*
X235648879Y46972793D01*
X235667477Y46992323D01*
X235721952Y47029067D01*
X235769250Y47065491D01*
X235793458Y47077298D01*
X235820765Y47095717D01*
X235876319Y47117713D01*
X235924633Y47141277D01*
X235956503Y47149460D01*
X235992679Y47163783D01*
X236045795Y47172386D01*
X236092088Y47184272D01*
X236130903Y47186170D01*
X236175199Y47193345D01*
X236222976Y47190674D01*
G37*
G36*
X231222976Y47190674D02*
G01*
X231264766Y47192718D01*
X231309056Y47185861D01*
X231359810Y47183024D01*
X231400163Y47171757D01*
X231435621Y47166268D01*
X231483204Y47148572D01*
X231537898Y47133301D01*
X231569622Y47116433D01*
X231597659Y47106006D01*
X231645757Y47075951D01*
X231701153Y47046496D01*
X231723968Y47027079D01*
X231744271Y47014392D01*
X231789641Y46971187D01*
X231841961Y46926659D01*
X231856463Y46907553D01*
X231869472Y46895165D01*
X231908616Y46838845D01*
X231953751Y46779382D01*
X231961302Y46763041D01*
X231968142Y46753199D01*
X231997508Y46684683D01*
X232031307Y46611535D01*
X232033885Y46599808D01*
X232036247Y46594298D01*
X232052429Y46515464D01*
X232071011Y46430949D01*
X232070345Y46240112D01*
X232051181Y46155762D01*
X232034443Y46077015D01*
X232032041Y46071518D01*
X232029381Y46059808D01*
X231995069Y45986891D01*
X231965227Y45918585D01*
X231958318Y45908791D01*
X231950655Y45892506D01*
X231905114Y45833370D01*
X231865570Y45777313D01*
X231852472Y45765013D01*
X231837840Y45746013D01*
X231785227Y45701865D01*
X231739544Y45658966D01*
X231719147Y45646418D01*
X231696199Y45627162D01*
X231640600Y45598095D01*
X231592293Y45568377D01*
X231564184Y45558146D01*
X231532341Y45541499D01*
X231477534Y45526608D01*
X231429831Y45509246D01*
X231394340Y45504005D01*
X231353911Y45493021D01*
X231303139Y45490538D01*
X231258803Y45483991D01*
X231217027Y45486326D01*
X231169233Y45483989D01*
X231124992Y45491472D01*
X231086189Y45493641D01*
X231039980Y45505850D01*
X230986923Y45514824D01*
X230950839Y45529403D01*
X230919035Y45537806D01*
X230870897Y45561701D01*
X230815488Y45584088D01*
X230788311Y45602696D01*
X230764182Y45614674D01*
X230717128Y45651437D01*
X230662926Y45688550D01*
X230644469Y45708205D01*
X230627950Y45721111D01*
X230585400Y45771107D01*
X230536354Y45823336D01*
X230525608Y45841362D01*
X230515896Y45852774D01*
X230481401Y45915519D01*
X230441678Y45982156D01*
X230436943Y45996389D01*
X230432610Y46004271D01*
X230409692Y46078308D01*
X230383314Y46157602D01*
X230382372Y46166566D01*
X230381486Y46169428D01*
X230373347Y46252432D01*
X230363987Y46341488D01*
X230373967Y46430456D01*
X230382687Y46513422D01*
X230383593Y46516280D01*
X230384598Y46525235D01*
X230411530Y46604347D01*
X230434963Y46678219D01*
X230439350Y46686068D01*
X230444184Y46700269D01*
X230484382Y46766643D01*
X230519304Y46829129D01*
X230529092Y46840469D01*
X230539967Y46858425D01*
X230589385Y46910319D01*
X230632273Y46960005D01*
X230648879Y46972793D01*
X230667477Y46992323D01*
X230721952Y47029067D01*
X230769250Y47065491D01*
X230793458Y47077298D01*
X230820765Y47095717D01*
X230876319Y47117713D01*
X230924633Y47141277D01*
X230956503Y47149460D01*
X230992679Y47163783D01*
X231045795Y47172386D01*
X231092088Y47184272D01*
X231130903Y47186170D01*
X231175199Y47193345D01*
X231222976Y47190674D01*
G37*
G36*
X228689976Y48604174D02*
G01*
X228731766Y48606218D01*
X228776056Y48599361D01*
X228826810Y48596524D01*
X228867163Y48585257D01*
X228902621Y48579768D01*
X228950204Y48562072D01*
X229004898Y48546801D01*
X229036622Y48529933D01*
X229064659Y48519506D01*
X229112757Y48489451D01*
X229168153Y48459996D01*
X229190968Y48440579D01*
X229211271Y48427892D01*
X229256641Y48384687D01*
X229308961Y48340159D01*
X229323463Y48321053D01*
X229336472Y48308665D01*
X229375616Y48252345D01*
X229420751Y48192882D01*
X229428302Y48176541D01*
X229435142Y48166699D01*
X229464508Y48098183D01*
X229498307Y48025035D01*
X229500885Y48013308D01*
X229503247Y48007798D01*
X229519429Y47928964D01*
X229538011Y47844449D01*
X229537345Y47653612D01*
X229518181Y47569262D01*
X229501443Y47490515D01*
X229499041Y47485018D01*
X229496381Y47473308D01*
X229462069Y47400391D01*
X229432227Y47332085D01*
X229425318Y47322291D01*
X229417655Y47306006D01*
X229372114Y47246870D01*
X229332570Y47190813D01*
X229319472Y47178513D01*
X229304840Y47159513D01*
X229252227Y47115365D01*
X229206544Y47072466D01*
X229186147Y47059918D01*
X229163199Y47040662D01*
X229107600Y47011595D01*
X229059293Y46981877D01*
X229031184Y46971646D01*
X228999341Y46954999D01*
X228944534Y46940108D01*
X228896831Y46922746D01*
X228861340Y46917505D01*
X228820911Y46906521D01*
X228770139Y46904038D01*
X228725803Y46897491D01*
X228684027Y46899826D01*
X228636233Y46897489D01*
X228591992Y46904972D01*
X228553189Y46907141D01*
X228506980Y46919350D01*
X228453923Y46928324D01*
X228417839Y46942903D01*
X228386035Y46951306D01*
X228337897Y46975201D01*
X228282488Y46997588D01*
X228255311Y47016196D01*
X228231182Y47028174D01*
X228184128Y47064937D01*
X228129926Y47102050D01*
X228111469Y47121705D01*
X228094950Y47134611D01*
X228052400Y47184607D01*
X228003354Y47236836D01*
X227992608Y47254862D01*
X227982896Y47266274D01*
X227948401Y47329019D01*
X227908678Y47395656D01*
X227903943Y47409889D01*
X227899610Y47417771D01*
X227876692Y47491808D01*
X227850314Y47571102D01*
X227849372Y47580066D01*
X227848486Y47582928D01*
X227840347Y47665932D01*
X227830987Y47754988D01*
X227840967Y47843956D01*
X227849687Y47926922D01*
X227850593Y47929780D01*
X227851598Y47938735D01*
X227878530Y48017847D01*
X227901963Y48091719D01*
X227906350Y48099568D01*
X227911184Y48113769D01*
X227951382Y48180143D01*
X227986304Y48242629D01*
X227996092Y48253969D01*
X228006967Y48271925D01*
X228056385Y48323819D01*
X228099273Y48373505D01*
X228115879Y48386293D01*
X228134477Y48405823D01*
X228188952Y48442567D01*
X228236250Y48478991D01*
X228260458Y48490798D01*
X228287765Y48509217D01*
X228343319Y48531213D01*
X228391633Y48554777D01*
X228423503Y48562960D01*
X228459679Y48577283D01*
X228512795Y48585886D01*
X228559088Y48597772D01*
X228597903Y48599670D01*
X228642199Y48606845D01*
X228689976Y48604174D01*
G37*
G36*
X227006899Y48600041D02*
G01*
X227023769Y48588769D01*
X227035041Y48571899D01*
X227041448Y48539688D01*
X227041448Y46964312D01*
X227038999Y46952000D01*
X227035041Y46932101D01*
X227023769Y46915231D01*
X227006899Y46903959D01*
X226987000Y46900001D01*
X226974688Y46897552D01*
X225399312Y46897552D01*
X225367101Y46903959D01*
X225350231Y46915231D01*
X225338959Y46932101D01*
X225332552Y46964312D01*
X225332552Y48539688D01*
X225338959Y48571899D01*
X225350231Y48588769D01*
X225367101Y48600041D01*
X225399312Y48606448D01*
X226974688Y48606448D01*
X227006899Y48600041D01*
G37*
G36*
X236206476Y50048174D02*
G01*
X236248266Y50050218D01*
X236292556Y50043361D01*
X236343310Y50040524D01*
X236383663Y50029257D01*
X236419121Y50023768D01*
X236466704Y50006072D01*
X236521398Y49990801D01*
X236553122Y49973933D01*
X236581159Y49963506D01*
X236629257Y49933451D01*
X236684653Y49903996D01*
X236707468Y49884579D01*
X236727771Y49871892D01*
X236773141Y49828687D01*
X236825461Y49784159D01*
X236839963Y49765053D01*
X236852972Y49752665D01*
X236892116Y49696345D01*
X236937251Y49636882D01*
X236944802Y49620541D01*
X236951642Y49610699D01*
X236981008Y49542183D01*
X237014807Y49469035D01*
X237017385Y49457308D01*
X237019747Y49451798D01*
X237035929Y49372964D01*
X237054511Y49288449D01*
X237053845Y49097612D01*
X237034681Y49013262D01*
X237017943Y48934515D01*
X237015541Y48929018D01*
X237012881Y48917308D01*
X236978569Y48844391D01*
X236948727Y48776085D01*
X236941818Y48766291D01*
X236934155Y48750006D01*
X236888614Y48690870D01*
X236849070Y48634813D01*
X236835972Y48622513D01*
X236821340Y48603513D01*
X236768727Y48559365D01*
X236723044Y48516466D01*
X236702647Y48503918D01*
X236679699Y48484662D01*
X236624100Y48455595D01*
X236575793Y48425877D01*
X236547684Y48415646D01*
X236515841Y48398999D01*
X236461034Y48384108D01*
X236413331Y48366746D01*
X236377840Y48361505D01*
X236337411Y48350521D01*
X236286639Y48348038D01*
X236242303Y48341491D01*
X236200527Y48343826D01*
X236152733Y48341489D01*
X236108492Y48348972D01*
X236069689Y48351141D01*
X236023480Y48363350D01*
X235970423Y48372324D01*
X235934339Y48386903D01*
X235902535Y48395306D01*
X235854397Y48419201D01*
X235798988Y48441588D01*
X235771811Y48460196D01*
X235747682Y48472174D01*
X235700628Y48508937D01*
X235646426Y48546050D01*
X235627969Y48565705D01*
X235611450Y48578611D01*
X235568900Y48628607D01*
X235519854Y48680836D01*
X235509108Y48698862D01*
X235499396Y48710274D01*
X235464901Y48773019D01*
X235425178Y48839656D01*
X235420443Y48853889D01*
X235416110Y48861771D01*
X235393192Y48935808D01*
X235366814Y49015102D01*
X235365872Y49024066D01*
X235364986Y49026928D01*
X235356847Y49109932D01*
X235347487Y49198988D01*
X235357467Y49287956D01*
X235366187Y49370922D01*
X235367093Y49373780D01*
X235368098Y49382735D01*
X235395030Y49461847D01*
X235418463Y49535719D01*
X235422850Y49543568D01*
X235427684Y49557769D01*
X235467882Y49624143D01*
X235502804Y49686629D01*
X235512592Y49697969D01*
X235523467Y49715925D01*
X235572885Y49767819D01*
X235615773Y49817505D01*
X235632379Y49830293D01*
X235650977Y49849823D01*
X235705452Y49886567D01*
X235752750Y49922991D01*
X235776958Y49934798D01*
X235804265Y49953217D01*
X235859819Y49975213D01*
X235908133Y49998777D01*
X235940003Y50006960D01*
X235976179Y50021283D01*
X236029295Y50029886D01*
X236075588Y50041772D01*
X236114403Y50043670D01*
X236158699Y50050845D01*
X236206476Y50048174D01*
G37*
G36*
X231206476Y50048174D02*
G01*
X231248266Y50050218D01*
X231292556Y50043361D01*
X231343310Y50040524D01*
X231383663Y50029257D01*
X231419121Y50023768D01*
X231466704Y50006072D01*
X231521398Y49990801D01*
X231553122Y49973933D01*
X231581159Y49963506D01*
X231629257Y49933451D01*
X231684653Y49903996D01*
X231707468Y49884579D01*
X231727771Y49871892D01*
X231773141Y49828687D01*
X231825461Y49784159D01*
X231839963Y49765053D01*
X231852972Y49752665D01*
X231892116Y49696345D01*
X231937251Y49636882D01*
X231944802Y49620541D01*
X231951642Y49610699D01*
X231981008Y49542183D01*
X232014807Y49469035D01*
X232017385Y49457308D01*
X232019747Y49451798D01*
X232035929Y49372964D01*
X232054511Y49288449D01*
X232053845Y49097612D01*
X232034681Y49013262D01*
X232017943Y48934515D01*
X232015541Y48929018D01*
X232012881Y48917308D01*
X231978569Y48844391D01*
X231948727Y48776085D01*
X231941818Y48766291D01*
X231934155Y48750006D01*
X231888614Y48690870D01*
X231849070Y48634813D01*
X231835972Y48622513D01*
X231821340Y48603513D01*
X231768727Y48559365D01*
X231723044Y48516466D01*
X231702647Y48503918D01*
X231679699Y48484662D01*
X231624100Y48455595D01*
X231575793Y48425877D01*
X231547684Y48415646D01*
X231515841Y48398999D01*
X231461034Y48384108D01*
X231413331Y48366746D01*
X231377840Y48361505D01*
X231337411Y48350521D01*
X231286639Y48348038D01*
X231242303Y48341491D01*
X231200527Y48343826D01*
X231152733Y48341489D01*
X231108492Y48348972D01*
X231069689Y48351141D01*
X231023480Y48363350D01*
X230970423Y48372324D01*
X230934339Y48386903D01*
X230902535Y48395306D01*
X230854397Y48419201D01*
X230798988Y48441588D01*
X230771811Y48460196D01*
X230747682Y48472174D01*
X230700628Y48508937D01*
X230646426Y48546050D01*
X230627969Y48565705D01*
X230611450Y48578611D01*
X230568900Y48628607D01*
X230519854Y48680836D01*
X230509108Y48698862D01*
X230499396Y48710274D01*
X230464901Y48773019D01*
X230425178Y48839656D01*
X230420443Y48853889D01*
X230416110Y48861771D01*
X230393192Y48935808D01*
X230366814Y49015102D01*
X230365872Y49024066D01*
X230364986Y49026928D01*
X230356847Y49109932D01*
X230347487Y49198988D01*
X230357467Y49287956D01*
X230366187Y49370922D01*
X230367093Y49373780D01*
X230368098Y49382735D01*
X230395030Y49461847D01*
X230418463Y49535719D01*
X230422850Y49543568D01*
X230427684Y49557769D01*
X230467882Y49624143D01*
X230502804Y49686629D01*
X230512592Y49697969D01*
X230523467Y49715925D01*
X230572885Y49767819D01*
X230615773Y49817505D01*
X230632379Y49830293D01*
X230650977Y49849823D01*
X230705452Y49886567D01*
X230752750Y49922991D01*
X230776958Y49934798D01*
X230804265Y49953217D01*
X230859819Y49975213D01*
X230908133Y49998777D01*
X230940003Y50006960D01*
X230976179Y50021283D01*
X231029295Y50029886D01*
X231075588Y50041772D01*
X231114403Y50043670D01*
X231158699Y50050845D01*
X231206476Y50048174D01*
G37*
G36*
X243183740Y51508482D02*
G01*
X243208023Y51509245D01*
X243285921Y51497742D01*
X243367011Y51489219D01*
X243390246Y51482336D01*
X243411283Y51479230D01*
X243488781Y51453149D01*
X243569838Y51429139D01*
X243588732Y51419512D01*
X243606017Y51413695D01*
X243680326Y51372843D01*
X243758321Y51333102D01*
X243772747Y51322033D01*
X243786061Y51314713D01*
X243854310Y51259447D01*
X243926146Y51204325D01*
X243936281Y51193069D01*
X243945738Y51185411D01*
X244005128Y51116606D01*
X244067693Y51047121D01*
X244074025Y51036788D01*
X244079993Y51029874D01*
X244127822Y50949000D01*
X244178222Y50866755D01*
X244181478Y50858273D01*
X244184584Y50853021D01*
X244218459Y50761933D01*
X244254031Y50669266D01*
X244255133Y50663322D01*
X244256200Y50660452D01*
X244273997Y50561540D01*
X244292581Y50461269D01*
X244285468Y50189633D01*
X244261659Y50090462D01*
X244238714Y49992636D01*
X244237499Y49989829D01*
X244236085Y49983938D01*
X244195663Y49893148D01*
X244157113Y49804064D01*
X244153737Y49798983D01*
X244150044Y49790688D01*
X244095425Y49711217D01*
X244043411Y49632930D01*
X244037089Y49626338D01*
X244030227Y49616353D01*
X243964116Y49550242D01*
X243901204Y49484638D01*
X243891360Y49477486D01*
X243880647Y49466773D01*
X243806037Y49415495D01*
X243734980Y49363869D01*
X243721295Y49357253D01*
X243706312Y49346956D01*
X243626325Y49311343D01*
X243549993Y49274443D01*
X243532437Y49269541D01*
X243513062Y49260915D01*
X243430847Y49241177D01*
X243352102Y49219191D01*
X243330935Y49217190D01*
X243307367Y49211532D01*
X243225920Y49207264D01*
X243147554Y49199856D01*
X243123352Y49201888D01*
X243096118Y49200461D01*
X243018225Y49210716D01*
X242942808Y49217049D01*
X242916422Y49224119D01*
X242886389Y49228073D01*
X242814544Y49251417D01*
X242744343Y49270227D01*
X242716882Y49283149D01*
X242685204Y49293442D01*
X242621466Y49328049D01*
X242558437Y49357708D01*
X242531232Y49377041D01*
X242499300Y49394379D01*
X242445273Y49438129D01*
X242390959Y49476728D01*
X242365490Y49502736D01*
X242334903Y49527505D01*
X242291710Y49578078D01*
X242247205Y49623525D01*
X242225043Y49656136D01*
X242197520Y49688361D01*
X242165771Y49743351D01*
X242131716Y49793462D01*
X242114450Y49832241D01*
X242091750Y49871559D01*
X242071560Y49928574D01*
X242048147Y49981160D01*
X242037300Y50025322D01*
X242021137Y50070964D01*
X242012147Y50127725D01*
X241999136Y50180696D01*
X241996091Y50229099D01*
X241988045Y50279899D01*
X241989470Y50334336D01*
X241986236Y50385748D01*
X241992156Y50436916D01*
X241993582Y50491365D01*
X242004279Y50541690D01*
X242009852Y50589856D01*
X242025614Y50642064D01*
X242037564Y50698281D01*
X242056094Y50743017D01*
X242069236Y50786545D01*
X242095364Y50837824D01*
X242118516Y50893718D01*
X242143250Y50931805D01*
X242162516Y50969616D01*
X242199138Y51017864D01*
X242233729Y51071129D01*
X242262905Y51101874D01*
X242286737Y51133272D01*
X242333546Y51176315D01*
X242379342Y51224574D01*
X242411197Y51247718D01*
X242437982Y51272348D01*
X242494222Y51308039D01*
X242550481Y51348914D01*
X242583283Y51364560D01*
X242611456Y51382439D01*
X242675933Y51408752D01*
X242741413Y51439984D01*
X242773597Y51448608D01*
X242801692Y51460073D01*
X242872772Y51475181D01*
X242945744Y51494734D01*
X242975942Y51497111D01*
X243002662Y51502790D01*
X243078326Y51505168D01*
X243156631Y51511331D01*
X243183740Y51508482D01*
G37*
G36*
X249104197Y53339868D02*
G01*
X249153736Y53339522D01*
X249202264Y53329561D01*
X249246103Y53324953D01*
X249294383Y53310651D01*
X249348952Y53299450D01*
X249388931Y53282644D01*
X249425175Y53271908D01*
X249475645Y53246193D01*
X249532667Y53222223D01*
X249563477Y53201441D01*
X249591587Y53187119D01*
X249641549Y53148781D01*
X249697884Y53110783D01*
X249719704Y53088810D01*
X249739758Y53073422D01*
X249786151Y53021897D01*
X249838308Y52969375D01*
X249852005Y52948759D01*
X249864729Y52934628D01*
X249904336Y52869995D01*
X249948592Y52803385D01*
X249955653Y52786254D01*
X249962314Y52775384D01*
X249991889Y52698337D01*
X250024534Y52619135D01*
X250026923Y52607072D01*
X250029245Y52601022D01*
X250045698Y52512251D01*
X250063243Y52423643D01*
X250060064Y52196020D01*
X250056761Y52181481D01*
X250056616Y52175951D01*
X250035907Y52089692D01*
X250015912Y52001686D01*
X250013451Y51996158D01*
X250013401Y51995951D01*
X249937437Y51825332D01*
X249937317Y51825157D01*
X249934855Y51819628D01*
X249882805Y51745842D01*
X249831653Y51671416D01*
X249827071Y51666834D01*
X249819980Y51656782D01*
X249757923Y51597686D01*
X249699584Y51539347D01*
X249689080Y51532128D01*
X249675662Y51519350D01*
X249608141Y51476500D01*
X249545668Y51433563D01*
X249528297Y51425829D01*
X249507398Y51412566D01*
X249438382Y51385796D01*
X249375049Y51357599D01*
X249350472Y51351698D01*
X249321598Y51340499D01*
X249254664Y51328697D01*
X249193445Y51313999D01*
X249161950Y51312349D01*
X249125339Y51305893D01*
X249063488Y51307189D01*
X249006933Y51304225D01*
X248969458Y51309159D01*
X248926096Y51310067D01*
X248871679Y51322031D01*
X248821762Y51328603D01*
X248779848Y51342222D01*
X248731458Y51352861D01*
X248686055Y51372697D01*
X248644140Y51386316D01*
X248599893Y51410340D01*
X248548839Y51432645D01*
X248513227Y51457396D01*
X248480007Y51475433D01*
X248435994Y51511074D01*
X248385194Y51546381D01*
X248359368Y51573125D01*
X248334860Y51592971D01*
X248293975Y51640841D01*
X248246758Y51689736D01*
X248229982Y51715768D01*
X248213567Y51734987D01*
X248178900Y51795031D01*
X248138803Y51857250D01*
X248129692Y51880261D01*
X248120182Y51896733D01*
X248094876Y51968195D01*
X248065440Y52042542D01*
X248062095Y52060769D01*
X248057840Y52072784D01*
X248044932Y52154283D01*
X248029465Y52238555D01*
X248029637Y52250852D01*
X248028623Y52257252D01*
X248030987Y52347565D01*
X248032248Y52437823D01*
X248033505Y52443738D01*
X248033511Y52443955D01*
X248072342Y52626638D01*
X248072424Y52626835D01*
X248073682Y52632755D01*
X248109251Y52715745D01*
X248143814Y52799186D01*
X248147344Y52804622D01*
X248152189Y52815926D01*
X248200591Y52886615D01*
X248245538Y52955828D01*
X248254314Y52965076D01*
X248264780Y52980361D01*
X248321899Y53036296D01*
X248374097Y53091301D01*
X248389487Y53102482D01*
X248407165Y53119794D01*
X248469087Y53160315D01*
X248525190Y53201076D01*
X248548007Y53211959D01*
X248573921Y53228917D01*
X248636935Y53254376D01*
X248693765Y53281483D01*
X248724233Y53289647D01*
X248758697Y53303571D01*
X248819456Y53315161D01*
X248874168Y53329821D01*
X248911856Y53332787D01*
X248954454Y53340913D01*
X249010162Y53340524D01*
X249060362Y53344475D01*
X249104197Y53339868D01*
G37*
G36*
X247492099Y53337241D02*
G01*
X247508969Y53325969D01*
X247520241Y53309099D01*
X247526648Y53276888D01*
X247526648Y51371112D01*
X247524199Y51358800D01*
X247520241Y51338901D01*
X247508969Y51322031D01*
X247492099Y51310759D01*
X247472200Y51306801D01*
X247459888Y51304352D01*
X245554112Y51304352D01*
X245521901Y51310759D01*
X245505031Y51322031D01*
X245493759Y51338901D01*
X245487352Y51371112D01*
X245487352Y53276888D01*
X245493759Y53309099D01*
X245505031Y53325969D01*
X245521901Y53337241D01*
X245554112Y53343648D01*
X247459888Y53343648D01*
X247492099Y53337241D01*
G37*
G36*
X223967476Y53112674D02*
G01*
X224009266Y53114718D01*
X224053556Y53107861D01*
X224104310Y53105024D01*
X224144663Y53093757D01*
X224180121Y53088268D01*
X224227704Y53070572D01*
X224282398Y53055301D01*
X224314122Y53038433D01*
X224342159Y53028006D01*
X224390257Y52997951D01*
X224445653Y52968496D01*
X224468468Y52949079D01*
X224488771Y52936392D01*
X224534141Y52893187D01*
X224586461Y52848659D01*
X224600963Y52829553D01*
X224613972Y52817165D01*
X224653116Y52760845D01*
X224698251Y52701382D01*
X224705802Y52685041D01*
X224712642Y52675199D01*
X224742008Y52606683D01*
X224775807Y52533535D01*
X224778385Y52521808D01*
X224780747Y52516298D01*
X224796929Y52437464D01*
X224815511Y52352949D01*
X224814845Y52162112D01*
X224795681Y52077762D01*
X224778943Y51999015D01*
X224776541Y51993518D01*
X224773881Y51981808D01*
X224739569Y51908891D01*
X224709727Y51840585D01*
X224702818Y51830791D01*
X224695155Y51814506D01*
X224649614Y51755370D01*
X224610070Y51699313D01*
X224596972Y51687013D01*
X224582340Y51668013D01*
X224529727Y51623865D01*
X224484044Y51580966D01*
X224463647Y51568418D01*
X224440699Y51549162D01*
X224385100Y51520095D01*
X224336793Y51490377D01*
X224308684Y51480146D01*
X224276841Y51463499D01*
X224222034Y51448608D01*
X224174331Y51431246D01*
X224138840Y51426005D01*
X224098411Y51415021D01*
X224047639Y51412538D01*
X224003303Y51405991D01*
X223961527Y51408326D01*
X223913733Y51405989D01*
X223869492Y51413472D01*
X223830689Y51415641D01*
X223784480Y51427850D01*
X223731423Y51436824D01*
X223695339Y51451403D01*
X223663535Y51459806D01*
X223615397Y51483701D01*
X223559988Y51506088D01*
X223532811Y51524696D01*
X223508682Y51536674D01*
X223461628Y51573437D01*
X223407426Y51610550D01*
X223388969Y51630205D01*
X223372450Y51643111D01*
X223329900Y51693107D01*
X223280854Y51745336D01*
X223270108Y51763362D01*
X223260396Y51774774D01*
X223225901Y51837519D01*
X223186178Y51904156D01*
X223181443Y51918389D01*
X223177110Y51926271D01*
X223154192Y52000308D01*
X223127814Y52079602D01*
X223126872Y52088566D01*
X223125986Y52091428D01*
X223117847Y52174432D01*
X223108487Y52263488D01*
X223118467Y52352456D01*
X223127187Y52435422D01*
X223128093Y52438280D01*
X223129098Y52447235D01*
X223156030Y52526347D01*
X223179463Y52600219D01*
X223183850Y52608068D01*
X223188684Y52622269D01*
X223228882Y52688643D01*
X223263804Y52751129D01*
X223273592Y52762469D01*
X223284467Y52780425D01*
X223333885Y52832319D01*
X223376773Y52882005D01*
X223393379Y52894793D01*
X223411977Y52914323D01*
X223466452Y52951067D01*
X223513750Y52987491D01*
X223537958Y52999298D01*
X223565265Y53017717D01*
X223620819Y53039713D01*
X223669133Y53063277D01*
X223701003Y53071460D01*
X223737179Y53085783D01*
X223790295Y53094386D01*
X223836588Y53106272D01*
X223875403Y53108170D01*
X223919699Y53115345D01*
X223967476Y53112674D01*
G37*
G36*
X231587476Y53112674D02*
G01*
X231629266Y53114718D01*
X231673556Y53107861D01*
X231724310Y53105024D01*
X231764663Y53093757D01*
X231800121Y53088268D01*
X231847704Y53070572D01*
X231902398Y53055301D01*
X231934122Y53038433D01*
X231962159Y53028006D01*
X232010257Y52997951D01*
X232065653Y52968496D01*
X232088468Y52949079D01*
X232108771Y52936392D01*
X232154141Y52893187D01*
X232206461Y52848659D01*
X232220963Y52829553D01*
X232233972Y52817165D01*
X232273116Y52760845D01*
X232318251Y52701382D01*
X232325802Y52685041D01*
X232332642Y52675199D01*
X232362008Y52606683D01*
X232395807Y52533535D01*
X232398385Y52521808D01*
X232400747Y52516298D01*
X232416929Y52437464D01*
X232435511Y52352949D01*
X232434845Y52162112D01*
X232415681Y52077762D01*
X232398943Y51999015D01*
X232396541Y51993518D01*
X232393881Y51981808D01*
X232359569Y51908891D01*
X232329727Y51840585D01*
X232322818Y51830791D01*
X232315155Y51814506D01*
X232269614Y51755370D01*
X232230070Y51699313D01*
X232216972Y51687013D01*
X232202340Y51668013D01*
X232149727Y51623865D01*
X232104044Y51580966D01*
X232083647Y51568418D01*
X232060699Y51549162D01*
X232005100Y51520095D01*
X231956793Y51490377D01*
X231928684Y51480146D01*
X231896841Y51463499D01*
X231842034Y51448608D01*
X231794331Y51431246D01*
X231758840Y51426005D01*
X231718411Y51415021D01*
X231667639Y51412538D01*
X231623303Y51405991D01*
X231581527Y51408326D01*
X231533733Y51405989D01*
X231489492Y51413472D01*
X231450689Y51415641D01*
X231404480Y51427850D01*
X231351423Y51436824D01*
X231315339Y51451403D01*
X231283535Y51459806D01*
X231235397Y51483701D01*
X231179988Y51506088D01*
X231152811Y51524696D01*
X231128682Y51536674D01*
X231081628Y51573437D01*
X231027426Y51610550D01*
X231008969Y51630205D01*
X230992450Y51643111D01*
X230949900Y51693107D01*
X230900854Y51745336D01*
X230890108Y51763362D01*
X230880396Y51774774D01*
X230845901Y51837519D01*
X230806178Y51904156D01*
X230801443Y51918389D01*
X230797110Y51926271D01*
X230774192Y52000308D01*
X230747814Y52079602D01*
X230746872Y52088566D01*
X230745986Y52091428D01*
X230737847Y52174432D01*
X230728487Y52263488D01*
X230738467Y52352456D01*
X230747187Y52435422D01*
X230748093Y52438280D01*
X230749098Y52447235D01*
X230776030Y52526347D01*
X230799463Y52600219D01*
X230803850Y52608068D01*
X230808684Y52622269D01*
X230848882Y52688643D01*
X230883804Y52751129D01*
X230893592Y52762469D01*
X230904467Y52780425D01*
X230953885Y52832319D01*
X230996773Y52882005D01*
X231013379Y52894793D01*
X231031977Y52914323D01*
X231086452Y52951067D01*
X231133750Y52987491D01*
X231157958Y52999298D01*
X231185265Y53017717D01*
X231240819Y53039713D01*
X231289133Y53063277D01*
X231321003Y53071460D01*
X231357179Y53085783D01*
X231410295Y53094386D01*
X231456588Y53106272D01*
X231495403Y53108170D01*
X231539699Y53115345D01*
X231587476Y53112674D01*
G37*
G36*
X233746476Y53112674D02*
G01*
X233788266Y53114718D01*
X233832556Y53107861D01*
X233883310Y53105024D01*
X233923663Y53093757D01*
X233959121Y53088268D01*
X234006704Y53070572D01*
X234061398Y53055301D01*
X234093122Y53038433D01*
X234121159Y53028006D01*
X234169257Y52997951D01*
X234224653Y52968496D01*
X234247468Y52949079D01*
X234267771Y52936392D01*
X234313141Y52893187D01*
X234365461Y52848659D01*
X234379963Y52829553D01*
X234392972Y52817165D01*
X234432116Y52760845D01*
X234477251Y52701382D01*
X234484802Y52685041D01*
X234491642Y52675199D01*
X234521008Y52606683D01*
X234554807Y52533535D01*
X234557385Y52521808D01*
X234559747Y52516298D01*
X234575929Y52437464D01*
X234594511Y52352949D01*
X234593845Y52162112D01*
X234574681Y52077762D01*
X234557943Y51999015D01*
X234555541Y51993518D01*
X234552881Y51981808D01*
X234518569Y51908891D01*
X234488727Y51840585D01*
X234481818Y51830791D01*
X234474155Y51814506D01*
X234428614Y51755370D01*
X234389070Y51699313D01*
X234375972Y51687013D01*
X234361340Y51668013D01*
X234308727Y51623865D01*
X234263044Y51580966D01*
X234242647Y51568418D01*
X234219699Y51549162D01*
X234164100Y51520095D01*
X234115793Y51490377D01*
X234087684Y51480146D01*
X234055841Y51463499D01*
X234001034Y51448608D01*
X233953331Y51431246D01*
X233917840Y51426005D01*
X233877411Y51415021D01*
X233826639Y51412538D01*
X233782303Y51405991D01*
X233740527Y51408326D01*
X233692733Y51405989D01*
X233648492Y51413472D01*
X233609689Y51415641D01*
X233563480Y51427850D01*
X233510423Y51436824D01*
X233474339Y51451403D01*
X233442535Y51459806D01*
X233394397Y51483701D01*
X233338988Y51506088D01*
X233311811Y51524696D01*
X233287682Y51536674D01*
X233240628Y51573437D01*
X233186426Y51610550D01*
X233167969Y51630205D01*
X233151450Y51643111D01*
X233108900Y51693107D01*
X233059854Y51745336D01*
X233049108Y51763362D01*
X233039396Y51774774D01*
X233004901Y51837519D01*
X232965178Y51904156D01*
X232960443Y51918389D01*
X232956110Y51926271D01*
X232933192Y52000308D01*
X232906814Y52079602D01*
X232905872Y52088566D01*
X232904986Y52091428D01*
X232896847Y52174432D01*
X232887487Y52263488D01*
X232897467Y52352456D01*
X232906187Y52435422D01*
X232907093Y52438280D01*
X232908098Y52447235D01*
X232935030Y52526347D01*
X232958463Y52600219D01*
X232962850Y52608068D01*
X232967684Y52622269D01*
X233007882Y52688643D01*
X233042804Y52751129D01*
X233052592Y52762469D01*
X233063467Y52780425D01*
X233112885Y52832319D01*
X233155773Y52882005D01*
X233172379Y52894793D01*
X233190977Y52914323D01*
X233245452Y52951067D01*
X233292750Y52987491D01*
X233316958Y52999298D01*
X233344265Y53017717D01*
X233399819Y53039713D01*
X233448133Y53063277D01*
X233480003Y53071460D01*
X233516179Y53085783D01*
X233569295Y53094386D01*
X233615588Y53106272D01*
X233654403Y53108170D01*
X233698699Y53115345D01*
X233746476Y53112674D01*
G37*
G36*
X241366476Y53112674D02*
G01*
X241408266Y53114718D01*
X241452556Y53107861D01*
X241503310Y53105024D01*
X241543663Y53093757D01*
X241579121Y53088268D01*
X241626704Y53070572D01*
X241681398Y53055301D01*
X241713122Y53038433D01*
X241741159Y53028006D01*
X241789257Y52997951D01*
X241844653Y52968496D01*
X241867468Y52949079D01*
X241887771Y52936392D01*
X241933141Y52893187D01*
X241985461Y52848659D01*
X241999963Y52829553D01*
X242012972Y52817165D01*
X242052116Y52760845D01*
X242097251Y52701382D01*
X242104802Y52685041D01*
X242111642Y52675199D01*
X242141008Y52606683D01*
X242174807Y52533535D01*
X242177385Y52521808D01*
X242179747Y52516298D01*
X242195929Y52437464D01*
X242214511Y52352949D01*
X242213845Y52162112D01*
X242194681Y52077762D01*
X242177943Y51999015D01*
X242175541Y51993518D01*
X242172881Y51981808D01*
X242138569Y51908891D01*
X242108727Y51840585D01*
X242101818Y51830791D01*
X242094155Y51814506D01*
X242048614Y51755370D01*
X242009070Y51699313D01*
X241995972Y51687013D01*
X241981340Y51668013D01*
X241928727Y51623865D01*
X241883044Y51580966D01*
X241862647Y51568418D01*
X241839699Y51549162D01*
X241784100Y51520095D01*
X241735793Y51490377D01*
X241707684Y51480146D01*
X241675841Y51463499D01*
X241621034Y51448608D01*
X241573331Y51431246D01*
X241537840Y51426005D01*
X241497411Y51415021D01*
X241446639Y51412538D01*
X241402303Y51405991D01*
X241360527Y51408326D01*
X241312733Y51405989D01*
X241268492Y51413472D01*
X241229689Y51415641D01*
X241183480Y51427850D01*
X241130423Y51436824D01*
X241094339Y51451403D01*
X241062535Y51459806D01*
X241014397Y51483701D01*
X240958988Y51506088D01*
X240931811Y51524696D01*
X240907682Y51536674D01*
X240860628Y51573437D01*
X240806426Y51610550D01*
X240787969Y51630205D01*
X240771450Y51643111D01*
X240728900Y51693107D01*
X240679854Y51745336D01*
X240669108Y51763362D01*
X240659396Y51774774D01*
X240624901Y51837519D01*
X240585178Y51904156D01*
X240580443Y51918389D01*
X240576110Y51926271D01*
X240553192Y52000308D01*
X240526814Y52079602D01*
X240525872Y52088566D01*
X240524986Y52091428D01*
X240516847Y52174432D01*
X240507487Y52263488D01*
X240517467Y52352456D01*
X240526187Y52435422D01*
X240527093Y52438280D01*
X240528098Y52447235D01*
X240555030Y52526347D01*
X240578463Y52600219D01*
X240582850Y52608068D01*
X240587684Y52622269D01*
X240627882Y52688643D01*
X240662804Y52751129D01*
X240672592Y52762469D01*
X240683467Y52780425D01*
X240732885Y52832319D01*
X240775773Y52882005D01*
X240792379Y52894793D01*
X240810977Y52914323D01*
X240865452Y52951067D01*
X240912750Y52987491D01*
X240936958Y52999298D01*
X240964265Y53017717D01*
X241019819Y53039713D01*
X241068133Y53063277D01*
X241100003Y53071460D01*
X241136179Y53085783D01*
X241189295Y53094386D01*
X241235588Y53106272D01*
X241274403Y53108170D01*
X241318699Y53115345D01*
X241366476Y53112674D01*
G37*
M02*
