G04 #@! TF.GenerationSoftware,KiCad,Pcbnew,6.0.0+dfsg1-2*
G04 #@! TF.CreationDate,2022-01-11T20:51:09+02:00*
G04 #@! TF.ProjectId,cabeza-de-carne,63616265-7a61-42d6-9465-2d6361726e65,rev?*
G04 #@! TF.SameCoordinates,Original*
G04 #@! TF.FileFunction,Copper,L1,Top*
G04 #@! TF.FilePolarity,Positive*
%FSLAX46Y46*%
G04 Gerber Fmt 4.6, Leading zero omitted, Abs format (unit mm)*
G04 Created by KiCad (PCBNEW 6.0.0+dfsg1-2) date 2022-01-11 20:51:09*
%MOMM*%
%LPD*%
G01*
G04 APERTURE LIST*
G04 #@! TA.AperFunction,ComponentPad*
%ADD10O,1.930400X1.930400*%
G04 #@! TD*
G04 #@! TA.AperFunction,ComponentPad*
%ADD11R,1.930400X1.930400*%
G04 #@! TD*
G04 #@! TA.AperFunction,ComponentPad*
%ADD12R,2.000000X2.000000*%
G04 #@! TD*
G04 #@! TA.AperFunction,ComponentPad*
%ADD13O,2.000000X2.000000*%
G04 #@! TD*
G04 #@! TA.AperFunction,ComponentPad*
%ADD14C,1.800000*%
G04 #@! TD*
G04 #@! TA.AperFunction,ComponentPad*
%ADD15R,1.800000X1.800000*%
G04 #@! TD*
G04 #@! TA.AperFunction,ComponentPad*
%ADD16O,2.540000X2.540000*%
G04 #@! TD*
G04 #@! TA.AperFunction,ComponentPad*
%ADD17R,2.540000X2.540000*%
G04 #@! TD*
G04 #@! TA.AperFunction,ComponentPad*
%ADD18O,1.600000X1.600000*%
G04 #@! TD*
G04 #@! TA.AperFunction,ComponentPad*
%ADD19C,1.600000*%
G04 #@! TD*
G04 #@! TA.AperFunction,ComponentPad*
%ADD20R,1.600000X1.600000*%
G04 #@! TD*
G04 #@! TA.AperFunction,Conductor*
%ADD21C,0.381000*%
G04 #@! TD*
G04 APERTURE END LIST*
D10*
X232613200Y35966400D03*
X232613200Y38506400D03*
X232613200Y41046400D03*
D11*
X232613200Y43586400D03*
D12*
X248716800Y40449500D03*
D13*
X248716800Y48069500D03*
D14*
X248412000Y26771600D03*
D15*
X245872000Y26771600D03*
D16*
X232473501Y30289499D03*
X237553501Y30289499D03*
D17*
X242633501Y30289499D03*
D18*
X227279200Y33223200D03*
D19*
X234899200Y33223200D03*
D18*
X248767600Y37744400D03*
D19*
X248767600Y30124400D03*
D18*
X234442000Y52451000D03*
D19*
X226822000Y52451000D03*
D18*
X243738400Y43383200D03*
D19*
X236118400Y43383200D03*
D18*
X236537500Y52451000D03*
D19*
X244157500Y52451000D03*
D18*
X236118400Y40335200D03*
D19*
X243738400Y40335200D03*
D18*
X245770400Y30124400D03*
D19*
X245770400Y37744400D03*
D10*
X228041200Y38506400D03*
X228041200Y41046400D03*
D11*
X228041200Y43586400D03*
D10*
X249047000Y52324000D03*
D11*
X246507000Y52324000D03*
D10*
X241350800Y26111200D03*
X238810800Y26111200D03*
X236270800Y26111200D03*
D11*
X233730800Y26111200D03*
D19*
X245705000Y47434500D03*
D20*
X243205000Y47434500D03*
D19*
X232471600Y47955200D03*
D20*
X229971600Y47955200D03*
D19*
X237201700Y33794700D03*
X242201700Y33794700D03*
X240204000Y49377600D03*
X235204000Y49377600D03*
X240204000Y46329600D03*
X235204000Y46329600D03*
X242185200Y36830000D03*
X237185200Y36830000D03*
D21*
X241554000Y46545500D02*
X241554000Y48027600D01*
X243738400Y43383200D02*
X241554000Y45567600D01*
X241554000Y45567600D02*
X241554000Y46545500D01*
X243205000Y45961300D02*
X248716800Y40449500D01*
X236118400Y40335200D02*
X237731300Y40335200D01*
X237731300Y40335200D02*
X239712500Y38354000D01*
X239712500Y38354000D02*
X239712500Y36283900D01*
X239712500Y36283900D02*
X242201700Y33794700D01*
X248716800Y40449500D02*
X248716800Y37795200D01*
X248716800Y37795200D02*
X248767600Y37744400D01*
X248716800Y48069500D02*
X248716800Y50114200D01*
X248716800Y50114200D02*
X246507000Y52324000D01*
X243205000Y47434500D02*
X243205000Y45961300D01*
X235712000Y46435000D02*
X235728500Y46418500D01*
X231257499Y42230699D02*
X232613200Y43586400D01*
X231257499Y37322101D02*
X231257499Y42230699D01*
X232613200Y35966400D02*
X231257499Y37322101D01*
X236023899Y36278299D02*
X237185200Y37439600D01*
X236023899Y34347899D02*
X236023899Y36278299D01*
X234899200Y33223200D02*
X236023899Y34347899D01*
X234899200Y27279600D02*
X234899200Y33223200D01*
X233730800Y26111200D02*
X234899200Y27279600D01*
X237553501Y29908499D02*
X237553501Y30289499D01*
X241350800Y26111200D02*
X237553501Y29908499D01*
X245465600Y37439600D02*
X245770400Y37744400D01*
X242185200Y37439600D02*
X245465600Y37439600D01*
X248412000Y26771600D02*
X248412000Y29768800D01*
X235204000Y51117500D02*
X236537500Y52451000D01*
X235204000Y49377600D02*
X235204000Y51117500D01*
X237156000Y49377600D02*
X240204000Y46329600D01*
X235204000Y49377600D02*
X237156000Y49377600D01*
X229971600Y42976800D02*
X228041200Y41046400D01*
X229971600Y43578102D02*
X229971600Y42976800D01*
X232723098Y46329600D02*
X229971600Y43578102D01*
X235204000Y46329600D02*
X232723098Y46329600D01*
X242185200Y39348400D02*
X242185200Y37439600D01*
X235204000Y46329600D02*
X242185200Y39348400D01*
X241554000Y48027600D02*
X240204000Y49377600D01*
G04 #@! TA.AperFunction,Conductor*
G36*
X233499140Y53573998D02*
G01*
X233545633Y53520342D01*
X233555737Y53450068D01*
X233526243Y53385488D01*
X233520114Y53378905D01*
X233440084Y53298875D01*
X233433028Y53290467D01*
X233308069Y53112007D01*
X233302586Y53102511D01*
X233210510Y52905053D01*
X233206764Y52894761D01*
X233160606Y52722497D01*
X233160942Y52708401D01*
X233168884Y52705000D01*
X234570000Y52705000D01*
X234638121Y52684998D01*
X234684614Y52631342D01*
X234696000Y52579000D01*
X234696000Y51650240D01*
X234673087Y51577790D01*
X234644506Y51537123D01*
X234640573Y51531826D01*
X234606394Y51488237D01*
X234606392Y51488234D01*
X234601708Y51482260D01*
X234598582Y51475336D01*
X234596744Y51472301D01*
X234589500Y51459602D01*
X234587812Y51456454D01*
X234583444Y51450239D01*
X234580684Y51443160D01*
X234560567Y51391561D01*
X234558022Y51385505D01*
X234532087Y51328065D01*
X234530702Y51320592D01*
X234529631Y51317174D01*
X234525646Y51303185D01*
X234524749Y51299693D01*
X234521988Y51292611D01*
X234520996Y51285078D01*
X234520996Y51285077D01*
X234513767Y51230170D01*
X234512735Y51223657D01*
X234504252Y51177884D01*
X234501255Y51161713D01*
X234501692Y51154133D01*
X234501692Y51154132D01*
X234504791Y51100388D01*
X234505000Y51093135D01*
X234505000Y50551130D01*
X234484998Y50483009D01*
X234451271Y50447917D01*
X234364211Y50386957D01*
X234364208Y50386955D01*
X234359700Y50383798D01*
X234197802Y50221900D01*
X234066477Y50034349D01*
X234064154Y50029367D01*
X234064151Y50029362D01*
X233981278Y49851638D01*
X233969716Y49826843D01*
X233968294Y49821535D01*
X233968293Y49821533D01*
X233955148Y49772475D01*
X233910457Y49605687D01*
X233890502Y49377600D01*
X233910457Y49149513D01*
X233911881Y49144200D01*
X233911881Y49144198D01*
X233952262Y48993497D01*
X233969716Y48928357D01*
X233972039Y48923376D01*
X233972039Y48923375D01*
X234064151Y48725838D01*
X234064154Y48725833D01*
X234066477Y48720851D01*
X234102268Y48669736D01*
X234169364Y48573914D01*
X234197802Y48533300D01*
X234359700Y48371402D01*
X234364208Y48368245D01*
X234364211Y48368243D01*
X234408888Y48336960D01*
X234547251Y48240077D01*
X234552233Y48237754D01*
X234552238Y48237751D01*
X234727719Y48155924D01*
X234754757Y48143316D01*
X234760065Y48141894D01*
X234760067Y48141893D01*
X234970598Y48085481D01*
X234970600Y48085481D01*
X234975913Y48084057D01*
X235204000Y48064102D01*
X235432087Y48084057D01*
X235437400Y48085481D01*
X235437402Y48085481D01*
X235647933Y48141893D01*
X235647935Y48141894D01*
X235653243Y48143316D01*
X235680281Y48155924D01*
X235855762Y48237751D01*
X235855767Y48237754D01*
X235860749Y48240077D01*
X235999112Y48336960D01*
X236043789Y48368243D01*
X236043792Y48368245D01*
X236048300Y48371402D01*
X236210198Y48533300D01*
X236234797Y48568431D01*
X236274317Y48624871D01*
X236329774Y48669199D01*
X236377530Y48678600D01*
X236814275Y48678600D01*
X236882396Y48658598D01*
X236903370Y48641695D01*
X238876020Y46669045D01*
X238910046Y46606733D01*
X238910980Y46559639D01*
X238910457Y46557687D01*
X238909978Y46552216D01*
X238909978Y46552214D01*
X238896329Y46396203D01*
X238890502Y46329600D01*
X238910457Y46101513D01*
X238911881Y46096200D01*
X238911881Y46096198D01*
X238940296Y45990155D01*
X238969716Y45880357D01*
X238972039Y45875376D01*
X238972039Y45875375D01*
X239064151Y45677838D01*
X239064154Y45677833D01*
X239066477Y45672851D01*
X239197802Y45485300D01*
X239359700Y45323402D01*
X239364208Y45320245D01*
X239364211Y45320243D01*
X239437948Y45268612D01*
X239547251Y45192077D01*
X239552233Y45189754D01*
X239552238Y45189751D01*
X239749775Y45097639D01*
X239754757Y45095316D01*
X239760065Y45093894D01*
X239760067Y45093893D01*
X239970598Y45037481D01*
X239970600Y45037481D01*
X239975913Y45036057D01*
X240204000Y45016102D01*
X240432087Y45036057D01*
X240437400Y45037481D01*
X240437402Y45037481D01*
X240647933Y45093893D01*
X240647935Y45093894D01*
X240653243Y45095316D01*
X240667466Y45101948D01*
X240842175Y45183416D01*
X240912367Y45194077D01*
X240977180Y45165097D01*
X240999263Y45140590D01*
X241025821Y45101948D01*
X241031491Y45096896D01*
X241031492Y45096895D01*
X241071688Y45061082D01*
X241076964Y45056101D01*
X242410420Y43722645D01*
X242444446Y43660333D01*
X242445380Y43613239D01*
X242444857Y43611287D01*
X242444378Y43605816D01*
X242444378Y43605814D01*
X242441361Y43571333D01*
X242424902Y43383200D01*
X242444857Y43155113D01*
X242446281Y43149800D01*
X242446281Y43149798D01*
X242487080Y42997537D01*
X242504116Y42933957D01*
X242506439Y42928976D01*
X242506439Y42928975D01*
X242598551Y42731438D01*
X242598554Y42731433D01*
X242600877Y42726451D01*
X242604034Y42721943D01*
X242717512Y42559880D01*
X242732202Y42538900D01*
X242894100Y42377002D01*
X242898608Y42373845D01*
X242898611Y42373843D01*
X242942718Y42342959D01*
X243081651Y42245677D01*
X243086633Y42243354D01*
X243086638Y42243351D01*
X243277257Y42154465D01*
X243289157Y42148916D01*
X243294465Y42147494D01*
X243294467Y42147493D01*
X243504998Y42091081D01*
X243505000Y42091081D01*
X243510313Y42089657D01*
X243738400Y42069702D01*
X243966487Y42089657D01*
X243971800Y42091081D01*
X243971802Y42091081D01*
X244182333Y42147493D01*
X244182335Y42147494D01*
X244187643Y42148916D01*
X244199543Y42154465D01*
X244390162Y42243351D01*
X244390167Y42243354D01*
X244395149Y42245677D01*
X244534082Y42342959D01*
X244578189Y42373843D01*
X244578192Y42373845D01*
X244582700Y42377002D01*
X244744598Y42538900D01*
X244759289Y42559880D01*
X244872766Y42721943D01*
X244875923Y42726451D01*
X244878246Y42731433D01*
X244878249Y42731438D01*
X244933979Y42850954D01*
X244972684Y42933957D01*
X244974108Y42939270D01*
X244975990Y42944441D01*
X244977671Y42943829D01*
X245010437Y42997598D01*
X245074294Y43028626D01*
X245144789Y43020205D01*
X245184297Y42993468D01*
X247171395Y41006370D01*
X247205421Y40944058D01*
X247208300Y40917275D01*
X247208300Y39401366D01*
X247215055Y39339184D01*
X247266185Y39202795D01*
X247353539Y39086239D01*
X247470095Y38998885D01*
X247606484Y38947755D01*
X247668666Y38941000D01*
X247809512Y38941000D01*
X247877633Y38920998D01*
X247924126Y38867342D01*
X247934230Y38797068D01*
X247904736Y38732488D01*
X247898607Y38725905D01*
X247761402Y38588700D01*
X247758245Y38584192D01*
X247758243Y38584189D01*
X247726798Y38539281D01*
X247630077Y38401149D01*
X247627754Y38396167D01*
X247627751Y38396162D01*
X247556781Y38243964D01*
X247533316Y38193643D01*
X247531894Y38188335D01*
X247531893Y38188333D01*
X247497347Y38059407D01*
X247474057Y37972487D01*
X247454102Y37744400D01*
X247474057Y37516313D01*
X247475481Y37511000D01*
X247475481Y37510998D01*
X247520730Y37342130D01*
X247533316Y37295157D01*
X247535639Y37290176D01*
X247535639Y37290175D01*
X247627751Y37092638D01*
X247627754Y37092633D01*
X247630077Y37087651D01*
X247670566Y37029827D01*
X247755618Y36908361D01*
X247761402Y36900100D01*
X247923300Y36738202D01*
X247927808Y36735045D01*
X247927811Y36735043D01*
X247989710Y36691701D01*
X248110851Y36606877D01*
X248115833Y36604554D01*
X248115838Y36604551D01*
X248313375Y36512439D01*
X248318357Y36510116D01*
X248323665Y36508694D01*
X248323667Y36508693D01*
X248534198Y36452281D01*
X248534200Y36452281D01*
X248539513Y36450857D01*
X248767600Y36430902D01*
X248995687Y36450857D01*
X249001000Y36452281D01*
X249001002Y36452281D01*
X249211533Y36508693D01*
X249211535Y36508694D01*
X249216843Y36510116D01*
X249221825Y36512439D01*
X249419362Y36604551D01*
X249419367Y36604554D01*
X249424349Y36606877D01*
X249545490Y36691701D01*
X249607389Y36735043D01*
X249607392Y36735045D01*
X249611900Y36738202D01*
X249773798Y36900100D01*
X249779583Y36908361D01*
X249864634Y37029827D01*
X249905123Y37087651D01*
X249907446Y37092633D01*
X249907449Y37092638D01*
X249949805Y37183472D01*
X249996722Y37236757D01*
X250065000Y37256218D01*
X250132959Y37235676D01*
X250179025Y37181653D01*
X250190000Y37130222D01*
X250190000Y30738578D01*
X250169998Y30670457D01*
X250116342Y30623964D01*
X250046068Y30613860D01*
X249981488Y30643354D01*
X249949805Y30685328D01*
X249907449Y30776162D01*
X249907446Y30776167D01*
X249905123Y30781149D01*
X249773798Y30968700D01*
X249611900Y31130598D01*
X249607392Y31133755D01*
X249607389Y31133757D01*
X249509431Y31202348D01*
X249424349Y31261923D01*
X249419367Y31264246D01*
X249419362Y31264249D01*
X249221825Y31356361D01*
X249221824Y31356361D01*
X249216843Y31358684D01*
X249211535Y31360106D01*
X249211533Y31360107D01*
X249001002Y31416519D01*
X249001000Y31416519D01*
X248995687Y31417943D01*
X248767600Y31437898D01*
X248539513Y31417943D01*
X248534200Y31416519D01*
X248534198Y31416519D01*
X248323667Y31360107D01*
X248323665Y31360106D01*
X248318357Y31358684D01*
X248313376Y31356361D01*
X248313375Y31356361D01*
X248115838Y31264249D01*
X248115833Y31264246D01*
X248110851Y31261923D01*
X248025769Y31202348D01*
X247927811Y31133757D01*
X247927808Y31133755D01*
X247923300Y31130598D01*
X247761402Y30968700D01*
X247630077Y30781149D01*
X247627754Y30776167D01*
X247627751Y30776162D01*
X247556781Y30623964D01*
X247533316Y30573643D01*
X247531894Y30568335D01*
X247531893Y30568333D01*
X247525239Y30543499D01*
X247474057Y30352487D01*
X247454102Y30124400D01*
X247474057Y29896313D01*
X247475481Y29891000D01*
X247475481Y29890998D01*
X247502315Y29790855D01*
X247533316Y29675157D01*
X247535639Y29670176D01*
X247535639Y29670175D01*
X247627751Y29472638D01*
X247627754Y29472633D01*
X247630077Y29467651D01*
X247633233Y29463144D01*
X247633234Y29463142D01*
X247690213Y29381768D01*
X247713000Y29309497D01*
X247713000Y28070689D01*
X247692998Y28002568D01*
X247658352Y27968240D01*
X247658872Y27967548D01*
X247593287Y27918305D01*
X247473655Y27828483D01*
X247456170Y27810186D01*
X247394646Y27774756D01*
X247323733Y27778213D01*
X247265947Y27819459D01*
X247247094Y27853008D01*
X247225768Y27909895D01*
X247225767Y27909897D01*
X247222615Y27918305D01*
X247135261Y28034861D01*
X247018705Y28122215D01*
X246882316Y28173345D01*
X246820134Y28180100D01*
X244923866Y28180100D01*
X244861684Y28173345D01*
X244725295Y28122215D01*
X244608739Y28034861D01*
X244521385Y27918305D01*
X244470255Y27781916D01*
X244463500Y27719734D01*
X244463500Y25823466D01*
X244470255Y25761284D01*
X244521385Y25624895D01*
X244608739Y25508339D01*
X244725295Y25420985D01*
X244861684Y25369855D01*
X244923866Y25363100D01*
X246820134Y25363100D01*
X246882316Y25369855D01*
X247018705Y25420985D01*
X247135261Y25508339D01*
X247222615Y25624895D01*
X247247180Y25690422D01*
X247289822Y25747186D01*
X247356383Y25771886D01*
X247425732Y25756679D01*
X247445647Y25743136D01*
X247510724Y25689108D01*
X247601349Y25613870D01*
X247801322Y25497016D01*
X248017694Y25414391D01*
X248022760Y25413360D01*
X248022761Y25413360D01*
X248075846Y25402560D01*
X248244656Y25368215D01*
X248374089Y25363469D01*
X248470949Y25359917D01*
X248470953Y25359917D01*
X248476113Y25359728D01*
X248481233Y25360384D01*
X248481235Y25360384D01*
X248555166Y25369855D01*
X248705847Y25389158D01*
X248710795Y25390643D01*
X248710802Y25390644D01*
X248922747Y25454231D01*
X248927690Y25455714D01*
X249008236Y25495173D01*
X249131049Y25555338D01*
X249131052Y25555340D01*
X249135684Y25557609D01*
X249324243Y25692106D01*
X249488303Y25855595D01*
X249623458Y26043683D01*
X249658485Y26114554D01*
X249723784Y26246678D01*
X249723785Y26246680D01*
X249726078Y26251320D01*
X249793408Y26472929D01*
X249823640Y26702559D01*
X249823722Y26705909D01*
X249825245Y26768235D01*
X249825245Y26768239D01*
X249825327Y26771600D01*
X249817839Y26862680D01*
X249806773Y26997282D01*
X249806772Y26997288D01*
X249806349Y27002433D01*
X249774826Y27127931D01*
X249751184Y27222056D01*
X249751183Y27222060D01*
X249749925Y27227067D01*
X249747866Y27231803D01*
X249659630Y27434732D01*
X249659628Y27434735D01*
X249657570Y27439469D01*
X249531764Y27633935D01*
X249514384Y27653036D01*
X249400481Y27778213D01*
X249375887Y27805242D01*
X249371836Y27808441D01*
X249371832Y27808445D01*
X249198178Y27945588D01*
X249198175Y27945590D01*
X249194123Y27948790D01*
X249189599Y27951287D01*
X249189595Y27951290D01*
X249176108Y27958735D01*
X249126137Y28009166D01*
X249111000Y28069044D01*
X249111000Y28765072D01*
X249131002Y28833193D01*
X249184658Y28879686D01*
X249204392Y28886779D01*
X249211522Y28888689D01*
X249211535Y28888694D01*
X249216843Y28890116D01*
X249316555Y28936612D01*
X249419362Y28984551D01*
X249419367Y28984554D01*
X249424349Y28986877D01*
X249529211Y29060302D01*
X249607389Y29115043D01*
X249607392Y29115045D01*
X249611900Y29118202D01*
X249773798Y29280100D01*
X249905123Y29467651D01*
X249907446Y29472633D01*
X249907449Y29472638D01*
X249949805Y29563472D01*
X249996722Y29616757D01*
X250065000Y29636218D01*
X250132959Y29615676D01*
X250179025Y29561653D01*
X250190000Y29510222D01*
X250190000Y25145000D01*
X250169998Y25076879D01*
X250116342Y25030386D01*
X250064000Y25019000D01*
X242626483Y25019000D01*
X242558362Y25039002D01*
X242511869Y25092658D01*
X242501765Y25162932D01*
X242524161Y25218526D01*
X242615314Y25345379D01*
X242615318Y25345385D01*
X242618337Y25349587D01*
X242623111Y25359245D01*
X242723414Y25562194D01*
X242725708Y25566835D01*
X242756746Y25668993D01*
X242794651Y25793751D01*
X242794652Y25793757D01*
X242796155Y25798703D01*
X242827786Y26038963D01*
X242829551Y26111200D01*
X242809695Y26352718D01*
X242750659Y26587751D01*
X242654028Y26809985D01*
X242610503Y26877264D01*
X242525207Y27009113D01*
X242525205Y27009116D01*
X242522399Y27013453D01*
X242359306Y27192690D01*
X242169128Y27342883D01*
X242088298Y27387504D01*
X241961505Y27457498D01*
X241961502Y27457499D01*
X241956974Y27459999D01*
X241821462Y27507986D01*
X241733413Y27539166D01*
X241733410Y27539167D01*
X241728541Y27540891D01*
X241723452Y27541798D01*
X241723450Y27541798D01*
X241621398Y27559976D01*
X241489963Y27583388D01*
X241396425Y27584531D01*
X241252818Y27586286D01*
X241252816Y27586286D01*
X241247648Y27586349D01*
X241008103Y27549693D01*
X241000794Y27547304D01*
X240999773Y27547273D01*
X240998157Y27546888D01*
X240998077Y27547222D01*
X240929830Y27545156D01*
X240872559Y27577976D01*
X239475705Y28974830D01*
X240855502Y28974830D01*
X240855872Y28968009D01*
X240861396Y28917147D01*
X240865022Y28901895D01*
X240910177Y28781445D01*
X240918715Y28765850D01*
X240995216Y28663775D01*
X241007777Y28651214D01*
X241109852Y28574713D01*
X241125447Y28566175D01*
X241245895Y28521021D01*
X241261150Y28517394D01*
X241312015Y28511868D01*
X241318829Y28511499D01*
X242361386Y28511499D01*
X242376625Y28515974D01*
X242377830Y28517364D01*
X242379501Y28525047D01*
X242379501Y28529615D01*
X242887501Y28529615D01*
X242891976Y28514376D01*
X242893366Y28513171D01*
X242901049Y28511500D01*
X243948170Y28511500D01*
X243954991Y28511870D01*
X244005853Y28517394D01*
X244021105Y28521020D01*
X244141555Y28566175D01*
X244157150Y28574713D01*
X244259225Y28651214D01*
X244271786Y28663775D01*
X244348287Y28765850D01*
X244356825Y28781445D01*
X244401979Y28901893D01*
X244405606Y28917148D01*
X244411132Y28968013D01*
X244411501Y28974827D01*
X244411501Y29384188D01*
X244431503Y29452309D01*
X244485159Y29498802D01*
X244555433Y29508906D01*
X244620013Y29479412D01*
X244640714Y29456459D01*
X244699821Y29372046D01*
X244764202Y29280100D01*
X244926100Y29118202D01*
X244930608Y29115045D01*
X244930611Y29115043D01*
X245008789Y29060302D01*
X245113651Y28986877D01*
X245118633Y28984554D01*
X245118638Y28984551D01*
X245295901Y28901893D01*
X245321157Y28890116D01*
X245326465Y28888694D01*
X245326467Y28888693D01*
X245536998Y28832281D01*
X245537000Y28832281D01*
X245542313Y28830857D01*
X245770400Y28810902D01*
X245998487Y28830857D01*
X246003800Y28832281D01*
X246003802Y28832281D01*
X246214333Y28888693D01*
X246214335Y28888694D01*
X246219643Y28890116D01*
X246244899Y28901893D01*
X246422162Y28984551D01*
X246422167Y28984554D01*
X246427149Y28986877D01*
X246532011Y29060302D01*
X246610189Y29115043D01*
X246610192Y29115045D01*
X246614700Y29118202D01*
X246776598Y29280100D01*
X246907923Y29467651D01*
X246910246Y29472633D01*
X246910249Y29472638D01*
X247002361Y29670175D01*
X247002361Y29670176D01*
X247004684Y29675157D01*
X247035686Y29790855D01*
X247062519Y29890998D01*
X247062519Y29891000D01*
X247063943Y29896313D01*
X247083898Y30124400D01*
X247063943Y30352487D01*
X247012761Y30543499D01*
X247006107Y30568333D01*
X247006106Y30568335D01*
X247004684Y30573643D01*
X246981219Y30623964D01*
X246910249Y30776162D01*
X246910246Y30776167D01*
X246907923Y30781149D01*
X246776598Y30968700D01*
X246614700Y31130598D01*
X246610192Y31133755D01*
X246610189Y31133757D01*
X246512231Y31202348D01*
X246427149Y31261923D01*
X246422167Y31264246D01*
X246422162Y31264249D01*
X246224625Y31356361D01*
X246224624Y31356361D01*
X246219643Y31358684D01*
X246214335Y31360106D01*
X246214333Y31360107D01*
X246003802Y31416519D01*
X246003800Y31416519D01*
X245998487Y31417943D01*
X245770400Y31437898D01*
X245542313Y31417943D01*
X245537000Y31416519D01*
X245536998Y31416519D01*
X245326467Y31360107D01*
X245326465Y31360106D01*
X245321157Y31358684D01*
X245316176Y31356361D01*
X245316175Y31356361D01*
X245118638Y31264249D01*
X245118633Y31264246D01*
X245113651Y31261923D01*
X245028569Y31202348D01*
X244930611Y31133757D01*
X244930608Y31133755D01*
X244926100Y31130598D01*
X244764202Y30968700D01*
X244761045Y30964192D01*
X244761043Y30964189D01*
X244640713Y30792340D01*
X244585256Y30748012D01*
X244514636Y30740703D01*
X244451276Y30772734D01*
X244415291Y30833935D01*
X244411500Y30864611D01*
X244411500Y31604168D01*
X244411130Y31610989D01*
X244405606Y31661851D01*
X244401980Y31677103D01*
X244356825Y31797553D01*
X244348287Y31813148D01*
X244271786Y31915223D01*
X244259225Y31927784D01*
X244157150Y32004285D01*
X244141555Y32012823D01*
X244021107Y32057977D01*
X244005852Y32061604D01*
X243954987Y32067130D01*
X243948173Y32067499D01*
X242905616Y32067499D01*
X242890377Y32063024D01*
X242889172Y32061634D01*
X242887501Y32053951D01*
X242887501Y28529615D01*
X242379501Y28529615D01*
X242379501Y30017384D01*
X242375026Y30032623D01*
X242373636Y30033828D01*
X242365953Y30035499D01*
X240873617Y30035499D01*
X240858378Y30031024D01*
X240857173Y30029634D01*
X240855502Y30021951D01*
X240855502Y28974830D01*
X239475705Y28974830D01*
X239148585Y29301950D01*
X239114559Y29364262D01*
X239119624Y29435077D01*
X239122798Y29442796D01*
X239229431Y29679511D01*
X239301184Y29933929D01*
X239334544Y30196159D01*
X239336988Y30289499D01*
X239333173Y30340839D01*
X239317744Y30548463D01*
X239317743Y30548467D01*
X239317398Y30553115D01*
X239315475Y30561614D01*
X240855501Y30561614D01*
X240859976Y30546375D01*
X240861366Y30545170D01*
X240869049Y30543499D01*
X242361386Y30543499D01*
X242376625Y30547974D01*
X242377830Y30549364D01*
X242379501Y30557047D01*
X242379501Y32049383D01*
X242375026Y32064622D01*
X242373636Y32065827D01*
X242365953Y32067498D01*
X241318832Y32067498D01*
X241312011Y32067128D01*
X241261149Y32061604D01*
X241245897Y32057978D01*
X241125447Y32012823D01*
X241109852Y32004285D01*
X241007777Y31927784D01*
X240995216Y31915223D01*
X240918715Y31813148D01*
X240910177Y31797553D01*
X240865023Y31677105D01*
X240861396Y31661850D01*
X240855870Y31610985D01*
X240855501Y31604171D01*
X240855501Y30561614D01*
X239315475Y30561614D01*
X239259058Y30810940D01*
X239243529Y30850873D01*
X239164943Y31052957D01*
X239164942Y31052959D01*
X239163250Y31057310D01*
X239137036Y31103176D01*
X239063497Y31231842D01*
X239032079Y31286812D01*
X238868426Y31494405D01*
X238675886Y31675529D01*
X238638713Y31701317D01*
X238462527Y31823541D01*
X238462522Y31823544D01*
X238458689Y31826203D01*
X238454498Y31828270D01*
X238225795Y31941054D01*
X238225792Y31941055D01*
X238221607Y31943119D01*
X238199849Y31950084D01*
X238030525Y32004285D01*
X237969848Y32023708D01*
X237812197Y32049383D01*
X237713554Y32065448D01*
X237713553Y32065448D01*
X237708942Y32066199D01*
X237576782Y32067929D01*
X237449299Y32069598D01*
X237449296Y32069598D01*
X237444622Y32069659D01*
X237182693Y32034013D01*
X237178203Y32032704D01*
X237178197Y32032703D01*
X237080701Y32004285D01*
X236928911Y31960042D01*
X236924664Y31958084D01*
X236924661Y31958083D01*
X236858938Y31927784D01*
X236688849Y31849372D01*
X236684940Y31846809D01*
X236471696Y31707000D01*
X236471691Y31706996D01*
X236467783Y31704434D01*
X236270568Y31528413D01*
X236101537Y31325175D01*
X235964402Y31099185D01*
X235962596Y31094877D01*
X235962595Y31094876D01*
X235907794Y30964189D01*
X235862178Y30855408D01*
X235861027Y30850876D01*
X235861026Y30850873D01*
X235846323Y30792979D01*
X235810168Y30731877D01*
X235746719Y30700023D01*
X235676120Y30707528D01*
X235620787Y30752010D01*
X235598200Y30823994D01*
X235598200Y32049670D01*
X235618202Y32117791D01*
X235651929Y32152883D01*
X235738989Y32213843D01*
X235738992Y32213845D01*
X235743500Y32217002D01*
X235905398Y32378900D01*
X236036723Y32566451D01*
X236039046Y32571433D01*
X236039049Y32571438D01*
X236133270Y32773497D01*
X236180187Y32826782D01*
X236248465Y32846243D01*
X236316424Y32825701D01*
X236336560Y32809342D01*
X236357400Y32788502D01*
X236361908Y32785345D01*
X236361911Y32785343D01*
X236385287Y32768975D01*
X236544951Y32657177D01*
X236549933Y32654854D01*
X236549938Y32654851D01*
X236728820Y32571438D01*
X236752457Y32560416D01*
X236757765Y32558994D01*
X236757767Y32558993D01*
X236968298Y32502581D01*
X236968300Y32502581D01*
X236973613Y32501157D01*
X237201700Y32481202D01*
X237429787Y32501157D01*
X237435100Y32502581D01*
X237435102Y32502581D01*
X237645633Y32558993D01*
X237645635Y32558994D01*
X237650943Y32560416D01*
X237674580Y32571438D01*
X237853462Y32654851D01*
X237853467Y32654854D01*
X237858449Y32657177D01*
X238018113Y32768975D01*
X238041489Y32785343D01*
X238041492Y32785345D01*
X238046000Y32788502D01*
X238207898Y32950400D01*
X238216956Y32963335D01*
X238336066Y33133443D01*
X238339223Y33137951D01*
X238341546Y33142933D01*
X238341549Y33142938D01*
X238433661Y33340475D01*
X238433661Y33340476D01*
X238435984Y33345457D01*
X238465766Y33456602D01*
X238493819Y33561298D01*
X238493819Y33561300D01*
X238495243Y33566613D01*
X238515198Y33794700D01*
X238495243Y34022787D01*
X238482101Y34071833D01*
X238437407Y34238633D01*
X238437406Y34238635D01*
X238435984Y34243943D01*
X238381529Y34360723D01*
X238341549Y34446462D01*
X238341546Y34446467D01*
X238339223Y34451449D01*
X238243528Y34588115D01*
X238211057Y34634489D01*
X238211055Y34634492D01*
X238207898Y34639000D01*
X238046000Y34800898D01*
X238041492Y34804055D01*
X238041489Y34804057D01*
X237884788Y34913780D01*
X237858449Y34932223D01*
X237853467Y34934546D01*
X237853462Y34934549D01*
X237655925Y35026661D01*
X237655924Y35026661D01*
X237650943Y35028984D01*
X237645635Y35030406D01*
X237645633Y35030407D01*
X237435102Y35086819D01*
X237435100Y35086819D01*
X237429787Y35088243D01*
X237201700Y35108198D01*
X236973613Y35088243D01*
X236968300Y35086819D01*
X236968298Y35086819D01*
X236881510Y35063564D01*
X236810534Y35065254D01*
X236751738Y35105048D01*
X236723790Y35170312D01*
X236722899Y35185271D01*
X236722899Y35435008D01*
X236742901Y35503129D01*
X236796557Y35549622D01*
X236866831Y35559726D01*
X236881505Y35556716D01*
X236957113Y35536457D01*
X237185200Y35516502D01*
X237413287Y35536457D01*
X237418600Y35537881D01*
X237418602Y35537881D01*
X237629133Y35594293D01*
X237629135Y35594294D01*
X237634443Y35595716D01*
X237748607Y35648951D01*
X237836962Y35690151D01*
X237836967Y35690154D01*
X237841949Y35692477D01*
X238014352Y35813195D01*
X238024989Y35820643D01*
X238024992Y35820645D01*
X238029500Y35823802D01*
X238191398Y35985700D01*
X238206776Y36007661D01*
X238319566Y36168743D01*
X238322723Y36173251D01*
X238325046Y36178233D01*
X238325049Y36178238D01*
X238417161Y36375775D01*
X238417161Y36375776D01*
X238419484Y36380757D01*
X238432921Y36430902D01*
X238477319Y36596598D01*
X238477319Y36596600D01*
X238478743Y36601913D01*
X238498698Y36830000D01*
X238478743Y37058087D01*
X238472029Y37083143D01*
X238420907Y37273933D01*
X238420906Y37273935D01*
X238419484Y37279243D01*
X238417161Y37284225D01*
X238325049Y37481762D01*
X238325046Y37481767D01*
X238322723Y37486749D01*
X238220288Y37633041D01*
X238194557Y37669789D01*
X238194555Y37669792D01*
X238191398Y37674300D01*
X238029500Y37836198D01*
X238024992Y37839355D01*
X238024989Y37839357D01*
X237887812Y37935409D01*
X237841949Y37967523D01*
X237836967Y37969846D01*
X237836962Y37969849D01*
X237639425Y38061961D01*
X237639424Y38061961D01*
X237634443Y38064284D01*
X237629135Y38065706D01*
X237629133Y38065707D01*
X237418602Y38122119D01*
X237418600Y38122119D01*
X237413287Y38123543D01*
X237185200Y38143498D01*
X237174146Y38142531D01*
X237158334Y38142380D01*
X237155923Y38142254D01*
X237148349Y38142770D01*
X237140873Y38141465D01*
X237140868Y38141465D01*
X237124989Y38138693D01*
X237114312Y38137296D01*
X237048727Y38131558D01*
X236962594Y38124023D01*
X236962589Y38124022D01*
X236957113Y38123543D01*
X236951800Y38122119D01*
X236951798Y38122119D01*
X236741267Y38065707D01*
X236741265Y38065706D01*
X236735957Y38064284D01*
X236730976Y38061961D01*
X236730975Y38061961D01*
X236533438Y37969849D01*
X236533433Y37969846D01*
X236528451Y37967523D01*
X236482588Y37935409D01*
X236345411Y37839357D01*
X236345408Y37839355D01*
X236340900Y37836198D01*
X236179002Y37674300D01*
X236175845Y37669792D01*
X236175843Y37669789D01*
X236150112Y37633041D01*
X236047677Y37486749D01*
X236045354Y37481767D01*
X236045351Y37481762D01*
X235953239Y37284225D01*
X235950916Y37279243D01*
X235949494Y37273935D01*
X235949493Y37273933D01*
X235928398Y37195205D01*
X235895786Y37138721D01*
X235549861Y36792796D01*
X235543596Y36786943D01*
X235500625Y36749457D01*
X235496258Y36743243D01*
X235464405Y36697921D01*
X235460472Y36692625D01*
X235426293Y36649036D01*
X235426291Y36649033D01*
X235421607Y36643059D01*
X235418481Y36636135D01*
X235416643Y36633100D01*
X235409399Y36620401D01*
X235407711Y36617253D01*
X235403343Y36611038D01*
X235388683Y36573435D01*
X235380466Y36552360D01*
X235377921Y36546304D01*
X235351986Y36488864D01*
X235350601Y36481391D01*
X235349530Y36477973D01*
X235345545Y36463984D01*
X235344648Y36460492D01*
X235341887Y36453410D01*
X235340895Y36445877D01*
X235340895Y36445876D01*
X235333666Y36390969D01*
X235332634Y36384456D01*
X235322538Y36329981D01*
X235321154Y36322512D01*
X235321591Y36314932D01*
X235321591Y36314931D01*
X235324690Y36261187D01*
X235324899Y36253934D01*
X235324899Y34689624D01*
X235304897Y34621503D01*
X235287994Y34600529D01*
X235238645Y34551180D01*
X235176333Y34517154D01*
X235129239Y34516220D01*
X235127287Y34516743D01*
X235121816Y34517222D01*
X235121814Y34517222D01*
X234904675Y34536219D01*
X234899200Y34536698D01*
X234671113Y34516743D01*
X234665800Y34515319D01*
X234665798Y34515319D01*
X234455267Y34458907D01*
X234455265Y34458906D01*
X234449957Y34457484D01*
X234444976Y34455161D01*
X234444975Y34455161D01*
X234247438Y34363049D01*
X234247433Y34363046D01*
X234242451Y34360723D01*
X234137589Y34287298D01*
X234059411Y34232557D01*
X234059408Y34232555D01*
X234054900Y34229398D01*
X233893002Y34067500D01*
X233889845Y34062992D01*
X233889843Y34062989D01*
X233857861Y34017314D01*
X233761677Y33879949D01*
X233759354Y33874967D01*
X233759351Y33874962D01*
X233759234Y33874711D01*
X233664916Y33672443D01*
X233663494Y33667135D01*
X233663493Y33667133D01*
X233615956Y33489722D01*
X233605657Y33451287D01*
X233585702Y33223200D01*
X233605657Y32995113D01*
X233607081Y32989800D01*
X233607081Y32989798D01*
X233661019Y32788502D01*
X233664916Y32773957D01*
X233667239Y32768976D01*
X233667239Y32768975D01*
X233759351Y32571438D01*
X233759354Y32571433D01*
X233761677Y32566451D01*
X233893002Y32378900D01*
X234054900Y32217002D01*
X234059408Y32213845D01*
X234059411Y32213843D01*
X234146471Y32152883D01*
X234190799Y32097426D01*
X234200200Y32049670D01*
X234200200Y31327066D01*
X234180198Y31258945D01*
X234126542Y31212452D01*
X234056268Y31202348D01*
X233991688Y31231842D01*
X233964807Y31264542D01*
X233954395Y31282760D01*
X233954394Y31282761D01*
X233952079Y31286812D01*
X233788426Y31494405D01*
X233595886Y31675529D01*
X233558713Y31701317D01*
X233382527Y31823541D01*
X233382522Y31823544D01*
X233378689Y31826203D01*
X233374498Y31828270D01*
X233145795Y31941054D01*
X233145792Y31941055D01*
X233141607Y31943119D01*
X233119849Y31950084D01*
X232950525Y32004285D01*
X232889848Y32023708D01*
X232732197Y32049383D01*
X232633554Y32065448D01*
X232633553Y32065448D01*
X232628942Y32066199D01*
X232496782Y32067929D01*
X232369299Y32069598D01*
X232369296Y32069598D01*
X232364622Y32069659D01*
X232102693Y32034013D01*
X232098203Y32032704D01*
X232098197Y32032703D01*
X232000701Y32004285D01*
X231848911Y31960042D01*
X231844664Y31958084D01*
X231844661Y31958083D01*
X231778938Y31927784D01*
X231608849Y31849372D01*
X231604940Y31846809D01*
X231391696Y31707000D01*
X231391691Y31706996D01*
X231387783Y31704434D01*
X231190568Y31528413D01*
X231021537Y31325175D01*
X230884402Y31099185D01*
X230882596Y31094877D01*
X230882595Y31094876D01*
X230827794Y30964189D01*
X230782178Y30855408D01*
X230781027Y30850876D01*
X230781026Y30850873D01*
X230763319Y30781149D01*
X230717109Y30599198D01*
X230690625Y30336185D01*
X230690849Y30331519D01*
X230690849Y30331514D01*
X230693019Y30286339D01*
X230703308Y30072147D01*
X230713293Y30021951D01*
X230744932Y29862892D01*
X230754879Y29812883D01*
X230756458Y29808485D01*
X230756460Y29808478D01*
X230806116Y29670175D01*
X230844205Y29564089D01*
X230846422Y29559963D01*
X230898446Y29463142D01*
X230969323Y29331232D01*
X230972118Y29327488D01*
X230972120Y29327486D01*
X231055244Y29216170D01*
X231127486Y29119426D01*
X231130793Y29116148D01*
X231130798Y29116142D01*
X231273350Y28974830D01*
X231315219Y28933325D01*
X231318986Y28930563D01*
X231318987Y28930562D01*
X231388373Y28879686D01*
X231528397Y28777016D01*
X231532532Y28774840D01*
X231532536Y28774838D01*
X231655794Y28709989D01*
X231762337Y28653934D01*
X232011901Y28566783D01*
X232016494Y28565911D01*
X232267016Y28518348D01*
X232267019Y28518348D01*
X232271605Y28517477D01*
X232403675Y28512287D01*
X232531076Y28507281D01*
X232531082Y28507281D01*
X232535744Y28507098D01*
X232798516Y28535877D01*
X232803027Y28537065D01*
X232803029Y28537065D01*
X233049625Y28601988D01*
X233049627Y28601989D01*
X233054148Y28603179D01*
X233058445Y28605025D01*
X233292730Y28705682D01*
X233292732Y28705683D01*
X233297024Y28707527D01*
X233464850Y28811381D01*
X233517833Y28844168D01*
X233517835Y28844169D01*
X233521808Y28846628D01*
X233571493Y28888689D01*
X233719997Y29014406D01*
X233719999Y29014408D01*
X233723564Y29017426D01*
X233897857Y29216170D01*
X233938979Y29280100D01*
X233968229Y29325575D01*
X234021903Y29372046D01*
X234092181Y29382122D01*
X234156750Y29352604D01*
X234195110Y29292862D01*
X234200200Y29257412D01*
X234200200Y27710900D01*
X234180198Y27642779D01*
X234126542Y27596286D01*
X234074200Y27584900D01*
X232717466Y27584900D01*
X232655284Y27578145D01*
X232518895Y27527015D01*
X232402339Y27439661D01*
X232314985Y27323105D01*
X232263855Y27186716D01*
X232257100Y27124534D01*
X232257100Y25145000D01*
X232237098Y25076879D01*
X232183442Y25030386D01*
X232131100Y25019000D01*
X225627200Y25019000D01*
X225559079Y25039002D01*
X225512586Y25092658D01*
X225501200Y25145000D01*
X225501200Y32956678D01*
X225996473Y32956678D01*
X226043964Y32779439D01*
X226047710Y32769147D01*
X226139786Y32571689D01*
X226145269Y32562193D01*
X226270228Y32383733D01*
X226277284Y32375325D01*
X226431325Y32221284D01*
X226439733Y32214228D01*
X226618193Y32089269D01*
X226627689Y32083786D01*
X226825147Y31991710D01*
X226835439Y31987964D01*
X227007703Y31941806D01*
X227021799Y31942142D01*
X227025200Y31950084D01*
X227025200Y31955233D01*
X227533200Y31955233D01*
X227537173Y31941702D01*
X227545722Y31940473D01*
X227722961Y31987964D01*
X227733253Y31991710D01*
X227930711Y32083786D01*
X227940207Y32089269D01*
X228118667Y32214228D01*
X228127075Y32221284D01*
X228281116Y32375325D01*
X228288172Y32383733D01*
X228413131Y32562193D01*
X228418614Y32571689D01*
X228510690Y32769147D01*
X228514436Y32779439D01*
X228560594Y32951703D01*
X228560258Y32965799D01*
X228552316Y32969200D01*
X227551315Y32969200D01*
X227536076Y32964725D01*
X227534871Y32963335D01*
X227533200Y32955652D01*
X227533200Y31955233D01*
X227025200Y31955233D01*
X227025200Y32951085D01*
X227020725Y32966324D01*
X227019335Y32967529D01*
X227011652Y32969200D01*
X226011233Y32969200D01*
X225997702Y32965227D01*
X225996473Y32956678D01*
X225501200Y32956678D01*
X225501200Y33494697D01*
X225997806Y33494697D01*
X225998142Y33480601D01*
X226006084Y33477200D01*
X227007085Y33477200D01*
X227022324Y33481675D01*
X227023529Y33483065D01*
X227025200Y33490748D01*
X227025200Y33495315D01*
X227533200Y33495315D01*
X227537675Y33480076D01*
X227539065Y33478871D01*
X227546748Y33477200D01*
X228547167Y33477200D01*
X228560698Y33481173D01*
X228561927Y33489722D01*
X228514436Y33666961D01*
X228510690Y33677253D01*
X228418614Y33874711D01*
X228413131Y33884207D01*
X228288172Y34062667D01*
X228281116Y34071075D01*
X228127075Y34225116D01*
X228118667Y34232172D01*
X227940207Y34357131D01*
X227930711Y34362614D01*
X227733253Y34454690D01*
X227722961Y34458436D01*
X227550697Y34504594D01*
X227536601Y34504258D01*
X227533200Y34496316D01*
X227533200Y33495315D01*
X227025200Y33495315D01*
X227025200Y34491167D01*
X227021227Y34504698D01*
X227012678Y34505927D01*
X226835439Y34458436D01*
X226825147Y34454690D01*
X226627689Y34362614D01*
X226618193Y34357131D01*
X226439733Y34232172D01*
X226431325Y34225116D01*
X226277284Y34071075D01*
X226270228Y34062667D01*
X226145269Y33884207D01*
X226139786Y33874711D01*
X226047710Y33677253D01*
X226043964Y33666961D01*
X225997806Y33494697D01*
X225501200Y33494697D01*
X225501200Y38542529D01*
X226562890Y38542529D01*
X226563187Y38537377D01*
X226563187Y38537373D01*
X226571330Y38396162D01*
X226576840Y38300598D01*
X226577977Y38295552D01*
X226577978Y38295546D01*
X226600885Y38193903D01*
X226630116Y38064193D01*
X226632058Y38059411D01*
X226632059Y38059407D01*
X226681383Y37937938D01*
X226721288Y37839664D01*
X226847907Y37633041D01*
X227006572Y37449873D01*
X227193023Y37295078D01*
X227402253Y37172814D01*
X227407073Y37170974D01*
X227407078Y37170971D01*
X227513791Y37130222D01*
X227628642Y37086365D01*
X227633710Y37085334D01*
X227633713Y37085333D01*
X227741507Y37063402D01*
X227866110Y37038051D01*
X227871285Y37037861D01*
X227871287Y37037861D01*
X228103117Y37029360D01*
X228103121Y37029360D01*
X228108281Y37029171D01*
X228113401Y37029827D01*
X228113403Y37029827D01*
X228188515Y37039449D01*
X228348650Y37059963D01*
X228353601Y37061448D01*
X228353604Y37061449D01*
X228575812Y37128115D01*
X228575811Y37128115D01*
X228580762Y37129600D01*
X228714142Y37194942D01*
X228793733Y37233933D01*
X228793738Y37233936D01*
X228798384Y37236212D01*
X228802594Y37239215D01*
X228802599Y37239218D01*
X228991459Y37373931D01*
X228991464Y37373935D01*
X228995671Y37376936D01*
X229167326Y37547992D01*
X229308737Y37744787D01*
X229416108Y37962035D01*
X229448678Y38069235D01*
X229485051Y38188951D01*
X229485052Y38188957D01*
X229486555Y38193903D01*
X229518186Y38434163D01*
X229518268Y38437515D01*
X229519869Y38503035D01*
X229519869Y38503039D01*
X229519951Y38506400D01*
X229500095Y38747918D01*
X229441059Y38982951D01*
X229344428Y39205185D01*
X229300903Y39272464D01*
X229215607Y39404313D01*
X229215605Y39404316D01*
X229212799Y39408653D01*
X229049706Y39587890D01*
X228936841Y39677025D01*
X228895778Y39734942D01*
X228892546Y39805865D01*
X228928171Y39867276D01*
X228941757Y39878479D01*
X228995671Y39916936D01*
X229167326Y40087992D01*
X229308737Y40284787D01*
X229319935Y40307443D01*
X229413814Y40497394D01*
X229416108Y40502035D01*
X229448678Y40609235D01*
X229485051Y40728951D01*
X229485052Y40728957D01*
X229486555Y40733903D01*
X229507974Y40896593D01*
X229517749Y40970842D01*
X229517749Y40970846D01*
X229518186Y40974163D01*
X229519074Y41010487D01*
X229519869Y41043035D01*
X229519869Y41043039D01*
X229519951Y41046400D01*
X229500095Y41287918D01*
X229486662Y41341398D01*
X229471556Y41401540D01*
X229474361Y41472482D01*
X229504665Y41521330D01*
X230339880Y42356545D01*
X230402192Y42390571D01*
X230473007Y42385506D01*
X230529843Y42342959D01*
X230554766Y42274703D01*
X230558290Y42213587D01*
X230558499Y42206334D01*
X230558499Y37350700D01*
X230558207Y37342130D01*
X230555005Y37295157D01*
X230554329Y37285249D01*
X230555634Y37277773D01*
X230555634Y37277769D01*
X230565162Y37223177D01*
X230566125Y37216652D01*
X230570361Y37181653D01*
X230573690Y37154141D01*
X230576374Y37147039D01*
X230577218Y37143601D01*
X230581082Y37129478D01*
X230582112Y37126067D01*
X230583418Y37118584D01*
X230586471Y37111629D01*
X230608738Y37060903D01*
X230611229Y37054797D01*
X230633493Y36995879D01*
X230637792Y36989624D01*
X230639434Y36986483D01*
X230646532Y36973729D01*
X230648369Y36970623D01*
X230651422Y36963668D01*
X230656047Y36957641D01*
X230656049Y36957637D01*
X230689764Y36913699D01*
X230693628Y36908381D01*
X230729320Y36856449D01*
X230775206Y36815566D01*
X230780462Y36810603D01*
X231149269Y36441796D01*
X231183295Y36379484D01*
X231181591Y36319029D01*
X231164545Y36257562D01*
X231160642Y36243490D01*
X231160093Y36238353D01*
X231136725Y36019695D01*
X231134890Y36002529D01*
X231135187Y35997377D01*
X231135187Y35997373D01*
X231144971Y35827699D01*
X231148840Y35760598D01*
X231149977Y35755552D01*
X231149978Y35755546D01*
X231164716Y35690151D01*
X231202116Y35524193D01*
X231204058Y35519411D01*
X231204059Y35519407D01*
X231255230Y35393389D01*
X231293288Y35299664D01*
X231419907Y35093041D01*
X231578572Y34909873D01*
X231765023Y34755078D01*
X231974253Y34632814D01*
X231979073Y34630974D01*
X231979078Y34630971D01*
X232087420Y34589600D01*
X232200642Y34546365D01*
X232205710Y34545334D01*
X232205713Y34545333D01*
X232322980Y34521475D01*
X232438110Y34498051D01*
X232443285Y34497861D01*
X232443287Y34497861D01*
X232675117Y34489360D01*
X232675121Y34489360D01*
X232680281Y34489171D01*
X232685401Y34489827D01*
X232685403Y34489827D01*
X232801488Y34504698D01*
X232920650Y34519963D01*
X232925601Y34521448D01*
X232925604Y34521449D01*
X233147812Y34588115D01*
X233147811Y34588115D01*
X233152762Y34589600D01*
X233261555Y34642897D01*
X233365733Y34693933D01*
X233365738Y34693936D01*
X233370384Y34696212D01*
X233374594Y34699215D01*
X233374599Y34699218D01*
X233563459Y34833931D01*
X233563464Y34833935D01*
X233567671Y34836936D01*
X233739326Y35007992D01*
X233880737Y35204787D01*
X233988108Y35422035D01*
X234040444Y35594293D01*
X234057051Y35648951D01*
X234057052Y35648957D01*
X234058555Y35653903D01*
X234090186Y35894163D01*
X234091365Y35942418D01*
X234091869Y35963035D01*
X234091869Y35963039D01*
X234091951Y35966400D01*
X234072095Y36207918D01*
X234013059Y36442951D01*
X233916428Y36665185D01*
X233792694Y36856449D01*
X233787607Y36864313D01*
X233787605Y36864316D01*
X233784799Y36868653D01*
X233621706Y37047890D01*
X233508841Y37137025D01*
X233467778Y37194942D01*
X233464546Y37265865D01*
X233500171Y37327276D01*
X233513757Y37338479D01*
X233567671Y37376936D01*
X233739326Y37547992D01*
X233880737Y37744787D01*
X233988108Y37962035D01*
X234020678Y38069235D01*
X234057051Y38188951D01*
X234057052Y38188957D01*
X234058555Y38193903D01*
X234090186Y38434163D01*
X234090268Y38437515D01*
X234091869Y38503035D01*
X234091869Y38503039D01*
X234091951Y38506400D01*
X234072095Y38747918D01*
X234013059Y38982951D01*
X233916428Y39205185D01*
X233872903Y39272464D01*
X233787607Y39404313D01*
X233787605Y39404316D01*
X233784799Y39408653D01*
X233621706Y39587890D01*
X233508841Y39677025D01*
X233467778Y39734942D01*
X233464546Y39805865D01*
X233500171Y39867276D01*
X233513757Y39878479D01*
X233567671Y39916936D01*
X233739326Y40087992D01*
X233880737Y40284787D01*
X233891935Y40307443D01*
X233985814Y40497394D01*
X233988108Y40502035D01*
X234020678Y40609235D01*
X234057051Y40728951D01*
X234057052Y40728957D01*
X234058555Y40733903D01*
X234079974Y40896593D01*
X234089749Y40970842D01*
X234089749Y40970846D01*
X234090186Y40974163D01*
X234091074Y41010487D01*
X234091869Y41043035D01*
X234091869Y41043039D01*
X234091951Y41046400D01*
X234072095Y41287918D01*
X234013059Y41522951D01*
X233916428Y41745185D01*
X233816200Y41900115D01*
X233787607Y41944313D01*
X233787605Y41944316D01*
X233784799Y41948653D01*
X233781325Y41952471D01*
X233781318Y41952480D01*
X233769605Y41965352D01*
X233738553Y42029198D01*
X233746947Y42099696D01*
X233792124Y42154465D01*
X233808835Y42163104D01*
X233808825Y42163123D01*
X233816697Y42167433D01*
X233825105Y42170585D01*
X233941661Y42257939D01*
X234029015Y42374495D01*
X234080145Y42510884D01*
X234086900Y42573066D01*
X234086900Y44599734D01*
X234080145Y44661916D01*
X234029015Y44798305D01*
X233941661Y44914861D01*
X233825105Y45002215D01*
X233688716Y45053345D01*
X233626534Y45060100D01*
X232746324Y45060100D01*
X232678203Y45080102D01*
X232631710Y45133758D01*
X232621606Y45204032D01*
X232651100Y45268612D01*
X232657229Y45275195D01*
X232975729Y45593695D01*
X233038041Y45627721D01*
X233064824Y45630600D01*
X234030470Y45630600D01*
X234098591Y45610598D01*
X234133683Y45576871D01*
X234190556Y45495648D01*
X234197802Y45485300D01*
X234359700Y45323402D01*
X234364208Y45320245D01*
X234364211Y45320243D01*
X234437948Y45268612D01*
X234547251Y45192077D01*
X234552233Y45189754D01*
X234552238Y45189751D01*
X234749775Y45097639D01*
X234754757Y45095316D01*
X234760065Y45093894D01*
X234760067Y45093893D01*
X234970598Y45037481D01*
X234970600Y45037481D01*
X234975913Y45036057D01*
X235204000Y45016102D01*
X235209475Y45016581D01*
X235426616Y45035578D01*
X235426620Y45035579D01*
X235432087Y45036057D01*
X235433656Y45036477D01*
X235503025Y45028743D01*
X235543443Y45001621D01*
X235637741Y44907324D01*
X235719143Y44825922D01*
X235753168Y44763610D01*
X235748104Y44692794D01*
X235705557Y44635958D01*
X235673608Y44618677D01*
X235669157Y44617484D01*
X235664176Y44615161D01*
X235664175Y44615161D01*
X235466638Y44523049D01*
X235466633Y44523046D01*
X235461651Y44520723D01*
X235356789Y44447298D01*
X235278611Y44392557D01*
X235278608Y44392555D01*
X235274100Y44389398D01*
X235112202Y44227500D01*
X234980877Y44039949D01*
X234978554Y44034967D01*
X234978551Y44034962D01*
X234887826Y43840400D01*
X234884116Y43832443D01*
X234882694Y43827135D01*
X234882693Y43827133D01*
X234837999Y43660333D01*
X234824857Y43611287D01*
X234804902Y43383200D01*
X234824857Y43155113D01*
X234826281Y43149800D01*
X234826281Y43149798D01*
X234867080Y42997537D01*
X234884116Y42933957D01*
X234886439Y42928976D01*
X234886439Y42928975D01*
X234978551Y42731438D01*
X234978554Y42731433D01*
X234980877Y42726451D01*
X234984034Y42721943D01*
X235097512Y42559880D01*
X235112202Y42538900D01*
X235274100Y42377002D01*
X235278608Y42373845D01*
X235278611Y42373843D01*
X235322718Y42342959D01*
X235461651Y42245677D01*
X235466633Y42243354D01*
X235466638Y42243351D01*
X235657257Y42154465D01*
X235669157Y42148916D01*
X235674465Y42147494D01*
X235674467Y42147493D01*
X235884998Y42091081D01*
X235885000Y42091081D01*
X235890313Y42089657D01*
X236118400Y42069702D01*
X236346487Y42089657D01*
X236351800Y42091081D01*
X236351802Y42091081D01*
X236562333Y42147493D01*
X236562335Y42147494D01*
X236567643Y42148916D01*
X236579543Y42154465D01*
X236770162Y42243351D01*
X236770167Y42243354D01*
X236775149Y42245677D01*
X236914082Y42342959D01*
X236958189Y42373843D01*
X236958192Y42373845D01*
X236962700Y42377002D01*
X237124598Y42538900D01*
X237139289Y42559880D01*
X237252766Y42721943D01*
X237255923Y42726451D01*
X237258246Y42731433D01*
X237258249Y42731438D01*
X237350359Y42928971D01*
X237350359Y42928972D01*
X237352684Y42933957D01*
X237353825Y42938215D01*
X237395718Y42995114D01*
X237462038Y43020453D01*
X237531530Y43005913D01*
X237561121Y42983944D01*
X239507119Y41037945D01*
X241449295Y39095769D01*
X241483321Y39033457D01*
X241486200Y39006674D01*
X241486200Y38003530D01*
X241466198Y37935409D01*
X241432471Y37900317D01*
X241345411Y37839357D01*
X241345408Y37839355D01*
X241340900Y37836198D01*
X241179002Y37674300D01*
X241175845Y37669792D01*
X241175843Y37669789D01*
X241150112Y37633041D01*
X241047677Y37486749D01*
X241045354Y37481767D01*
X241045351Y37481762D01*
X240953239Y37284225D01*
X240950916Y37279243D01*
X240949494Y37273935D01*
X240949493Y37273933D01*
X240898371Y37083143D01*
X240891657Y37058087D01*
X240871702Y36830000D01*
X240891657Y36601913D01*
X240893081Y36596600D01*
X240893081Y36596598D01*
X240937480Y36430902D01*
X240950916Y36380757D01*
X240953239Y36375775D01*
X240955122Y36370602D01*
X240953208Y36369905D01*
X240962545Y36308530D01*
X240933581Y36243710D01*
X240874170Y36204839D01*
X240803176Y36204259D01*
X240748590Y36236345D01*
X240448404Y36536531D01*
X240414380Y36598842D01*
X240411500Y36625625D01*
X240411500Y38325401D01*
X240411792Y38333971D01*
X240415154Y38383277D01*
X240415154Y38383281D01*
X240415670Y38390852D01*
X240414365Y38398328D01*
X240414365Y38398332D01*
X240404837Y38452924D01*
X240403874Y38459449D01*
X240397222Y38514418D01*
X240397221Y38514420D01*
X240396309Y38521960D01*
X240393625Y38529062D01*
X240392781Y38532500D01*
X240388917Y38546623D01*
X240387887Y38550035D01*
X240386581Y38557517D01*
X240383529Y38564470D01*
X240383527Y38564476D01*
X240361263Y38615194D01*
X240358770Y38621302D01*
X240339192Y38673115D01*
X240339190Y38673118D01*
X240336506Y38680222D01*
X240332201Y38686486D01*
X240330545Y38689653D01*
X240323440Y38702418D01*
X240321632Y38705475D01*
X240318578Y38712433D01*
X240313952Y38718462D01*
X240280240Y38762396D01*
X240276362Y38767733D01*
X240244981Y38813393D01*
X240244979Y38813395D01*
X240240679Y38819652D01*
X240194811Y38860519D01*
X240189536Y38865499D01*
X238245797Y40809238D01*
X238239943Y40815504D01*
X238207452Y40852749D01*
X238202458Y40858474D01*
X238150922Y40894694D01*
X238145626Y40898627D01*
X238102037Y40932806D01*
X238102034Y40932808D01*
X238096060Y40937492D01*
X238089136Y40940618D01*
X238086101Y40942456D01*
X238073402Y40949700D01*
X238070254Y40951388D01*
X238064039Y40955756D01*
X238005350Y40978638D01*
X237999305Y40981178D01*
X237941865Y41007113D01*
X237934392Y41008498D01*
X237930974Y41009569D01*
X237916985Y41013554D01*
X237913493Y41014451D01*
X237906411Y41017212D01*
X237898878Y41018204D01*
X237898877Y41018204D01*
X237843970Y41025433D01*
X237837457Y41026465D01*
X237782982Y41036561D01*
X237782980Y41036561D01*
X237775513Y41037945D01*
X237767933Y41037508D01*
X237767932Y41037508D01*
X237714188Y41034409D01*
X237706935Y41034200D01*
X237291930Y41034200D01*
X237223809Y41054202D01*
X237188717Y41087929D01*
X237127757Y41174989D01*
X237127755Y41174992D01*
X237124598Y41179500D01*
X236962700Y41341398D01*
X236958192Y41344555D01*
X236958189Y41344557D01*
X236876809Y41401540D01*
X236775149Y41472723D01*
X236770167Y41475046D01*
X236770162Y41475049D01*
X236572625Y41567161D01*
X236572624Y41567161D01*
X236567643Y41569484D01*
X236562335Y41570906D01*
X236562333Y41570907D01*
X236351802Y41627319D01*
X236351800Y41627319D01*
X236346487Y41628743D01*
X236118400Y41648698D01*
X235890313Y41628743D01*
X235885000Y41627319D01*
X235884998Y41627319D01*
X235674467Y41570907D01*
X235674465Y41570906D01*
X235669157Y41569484D01*
X235664176Y41567161D01*
X235664175Y41567161D01*
X235466638Y41475049D01*
X235466633Y41475046D01*
X235461651Y41472723D01*
X235359991Y41401540D01*
X235278611Y41344557D01*
X235278608Y41344555D01*
X235274100Y41341398D01*
X235112202Y41179500D01*
X234980877Y40991949D01*
X234978554Y40986967D01*
X234978551Y40986962D01*
X234895678Y40809238D01*
X234884116Y40784443D01*
X234824857Y40563287D01*
X234804902Y40335200D01*
X234824857Y40107113D01*
X234826281Y40101800D01*
X234826281Y40101798D01*
X234857157Y39986570D01*
X234884116Y39885957D01*
X234886439Y39880976D01*
X234886439Y39880975D01*
X234978551Y39683438D01*
X234978554Y39683433D01*
X234980877Y39678451D01*
X235112202Y39490900D01*
X235274100Y39329002D01*
X235278608Y39325845D01*
X235278611Y39325843D01*
X235356789Y39271102D01*
X235461651Y39197677D01*
X235466633Y39195354D01*
X235466638Y39195351D01*
X235664175Y39103239D01*
X235669157Y39100916D01*
X235674465Y39099494D01*
X235674467Y39099493D01*
X235884998Y39043081D01*
X235885000Y39043081D01*
X235890313Y39041657D01*
X236118400Y39021702D01*
X236346487Y39041657D01*
X236351800Y39043081D01*
X236351802Y39043081D01*
X236562333Y39099493D01*
X236562335Y39099494D01*
X236567643Y39100916D01*
X236572625Y39103239D01*
X236770162Y39195351D01*
X236770167Y39195354D01*
X236775149Y39197677D01*
X236880011Y39271102D01*
X236958189Y39325843D01*
X236958192Y39325845D01*
X236962700Y39329002D01*
X237124598Y39490900D01*
X237188717Y39582471D01*
X237244174Y39626799D01*
X237291930Y39636200D01*
X237389575Y39636200D01*
X237457696Y39616198D01*
X237478670Y39599295D01*
X238976595Y38101370D01*
X239010621Y38039058D01*
X239013500Y38012275D01*
X239013500Y36312499D01*
X239013208Y36303929D01*
X239010047Y36257562D01*
X239009330Y36247048D01*
X239010635Y36239572D01*
X239010635Y36239568D01*
X239020163Y36184976D01*
X239021126Y36178451D01*
X239021756Y36173251D01*
X239028691Y36115940D01*
X239031375Y36108838D01*
X239032219Y36105400D01*
X239036083Y36091277D01*
X239037113Y36087866D01*
X239038419Y36080383D01*
X239041472Y36073428D01*
X239063739Y36022702D01*
X239066230Y36016596D01*
X239088494Y35957678D01*
X239092793Y35951423D01*
X239094435Y35948282D01*
X239101533Y35935528D01*
X239103370Y35932422D01*
X239106423Y35925467D01*
X239111048Y35919440D01*
X239111050Y35919436D01*
X239144765Y35875498D01*
X239148629Y35870180D01*
X239184321Y35818248D01*
X239189991Y35813196D01*
X239189992Y35813195D01*
X239230188Y35777382D01*
X239235464Y35772401D01*
X240873720Y34134145D01*
X240907746Y34071833D01*
X240908680Y34024739D01*
X240908157Y34022787D01*
X240907678Y34017316D01*
X240907678Y34017314D01*
X240896055Y33884457D01*
X240888202Y33794700D01*
X240908157Y33566613D01*
X240909581Y33561300D01*
X240909581Y33561298D01*
X240937635Y33456602D01*
X240967416Y33345457D01*
X240969739Y33340476D01*
X240969739Y33340475D01*
X241061851Y33142938D01*
X241061854Y33142933D01*
X241064177Y33137951D01*
X241067334Y33133443D01*
X241186445Y32963335D01*
X241195502Y32950400D01*
X241357400Y32788502D01*
X241361908Y32785345D01*
X241361911Y32785343D01*
X241385287Y32768975D01*
X241544951Y32657177D01*
X241549933Y32654854D01*
X241549938Y32654851D01*
X241728820Y32571438D01*
X241752457Y32560416D01*
X241757765Y32558994D01*
X241757767Y32558993D01*
X241968298Y32502581D01*
X241968300Y32502581D01*
X241973613Y32501157D01*
X242201700Y32481202D01*
X242429787Y32501157D01*
X242435100Y32502581D01*
X242435102Y32502581D01*
X242645633Y32558993D01*
X242645635Y32558994D01*
X242650943Y32560416D01*
X242674580Y32571438D01*
X242853462Y32654851D01*
X242853467Y32654854D01*
X242858449Y32657177D01*
X243018113Y32768975D01*
X243041489Y32785343D01*
X243041492Y32785345D01*
X243046000Y32788502D01*
X243207898Y32950400D01*
X243216956Y32963335D01*
X243336066Y33133443D01*
X243339223Y33137951D01*
X243341546Y33142933D01*
X243341549Y33142938D01*
X243433661Y33340475D01*
X243433661Y33340476D01*
X243435984Y33345457D01*
X243465766Y33456602D01*
X243493819Y33561298D01*
X243493819Y33561300D01*
X243495243Y33566613D01*
X243515198Y33794700D01*
X243495243Y34022787D01*
X243482101Y34071833D01*
X243437407Y34238633D01*
X243437406Y34238635D01*
X243435984Y34243943D01*
X243381529Y34360723D01*
X243341549Y34446462D01*
X243341546Y34446467D01*
X243339223Y34451449D01*
X243243528Y34588115D01*
X243211057Y34634489D01*
X243211055Y34634492D01*
X243207898Y34639000D01*
X243046000Y34800898D01*
X243041492Y34804055D01*
X243041489Y34804057D01*
X242884788Y34913780D01*
X242858449Y34932223D01*
X242853467Y34934546D01*
X242853462Y34934549D01*
X242655925Y35026661D01*
X242655924Y35026661D01*
X242650943Y35028984D01*
X242645635Y35030406D01*
X242645633Y35030407D01*
X242435102Y35086819D01*
X242435100Y35086819D01*
X242429787Y35088243D01*
X242201700Y35108198D01*
X241973613Y35088243D01*
X241972041Y35087822D01*
X241902672Y35095558D01*
X241862256Y35122680D01*
X241591547Y35393389D01*
X241557521Y35455701D01*
X241562586Y35526516D01*
X241605133Y35583352D01*
X241671653Y35608163D01*
X241725205Y35598281D01*
X241725802Y35599922D01*
X241730975Y35598039D01*
X241735957Y35595716D01*
X241741265Y35594294D01*
X241741267Y35594293D01*
X241951798Y35537881D01*
X241951800Y35537881D01*
X241957113Y35536457D01*
X242185200Y35516502D01*
X242413287Y35536457D01*
X242418600Y35537881D01*
X242418602Y35537881D01*
X242629133Y35594293D01*
X242629135Y35594294D01*
X242634443Y35595716D01*
X242748607Y35648951D01*
X242836962Y35690151D01*
X242836967Y35690154D01*
X242841949Y35692477D01*
X243014352Y35813195D01*
X243024989Y35820643D01*
X243024992Y35820645D01*
X243029500Y35823802D01*
X243191398Y35985700D01*
X243206776Y36007661D01*
X243319566Y36168743D01*
X243322723Y36173251D01*
X243325046Y36178233D01*
X243325049Y36178238D01*
X243417161Y36375775D01*
X243417161Y36375776D01*
X243419484Y36380757D01*
X243435840Y36441796D01*
X243450306Y36495786D01*
X243478743Y36601913D01*
X243480814Y36625583D01*
X243506677Y36691701D01*
X243564181Y36733340D01*
X243606334Y36740600D01*
X244882947Y36740600D01*
X244955218Y36717813D01*
X245107708Y36611038D01*
X245113651Y36606877D01*
X245118633Y36604554D01*
X245118638Y36604551D01*
X245316175Y36512439D01*
X245321157Y36510116D01*
X245326465Y36508694D01*
X245326467Y36508693D01*
X245536998Y36452281D01*
X245537000Y36452281D01*
X245542313Y36450857D01*
X245770400Y36430902D01*
X245998487Y36450857D01*
X246003800Y36452281D01*
X246003802Y36452281D01*
X246214333Y36508693D01*
X246214335Y36508694D01*
X246219643Y36510116D01*
X246224625Y36512439D01*
X246422162Y36604551D01*
X246422167Y36604554D01*
X246427149Y36606877D01*
X246548290Y36691701D01*
X246610189Y36735043D01*
X246610192Y36735045D01*
X246614700Y36738202D01*
X246776598Y36900100D01*
X246782383Y36908361D01*
X246867434Y37029827D01*
X246907923Y37087651D01*
X246910246Y37092633D01*
X246910249Y37092638D01*
X247002361Y37290175D01*
X247002361Y37290176D01*
X247004684Y37295157D01*
X247017271Y37342130D01*
X247062519Y37510998D01*
X247062519Y37511000D01*
X247063943Y37516313D01*
X247083898Y37744400D01*
X247063943Y37972487D01*
X247040653Y38059407D01*
X247006107Y38188333D01*
X247006106Y38188335D01*
X247004684Y38193643D01*
X246981219Y38243964D01*
X246910249Y38396162D01*
X246910246Y38396167D01*
X246907923Y38401149D01*
X246811202Y38539281D01*
X246779757Y38584189D01*
X246779755Y38584192D01*
X246776598Y38588700D01*
X246614700Y38750598D01*
X246610192Y38753755D01*
X246610189Y38753757D01*
X246516081Y38819652D01*
X246427149Y38881923D01*
X246422167Y38884246D01*
X246422162Y38884249D01*
X246224625Y38976361D01*
X246224624Y38976361D01*
X246219643Y38978684D01*
X246214335Y38980106D01*
X246214333Y38980107D01*
X246003802Y39036519D01*
X246003800Y39036519D01*
X245998487Y39037943D01*
X245770400Y39057898D01*
X245542313Y39037943D01*
X245537000Y39036519D01*
X245536998Y39036519D01*
X245326467Y38980107D01*
X245326465Y38980106D01*
X245321157Y38978684D01*
X245316176Y38976361D01*
X245316175Y38976361D01*
X245118638Y38884249D01*
X245118633Y38884246D01*
X245113651Y38881923D01*
X245024719Y38819652D01*
X244930611Y38753757D01*
X244930608Y38753755D01*
X244926100Y38750598D01*
X244764202Y38588700D01*
X244761045Y38584192D01*
X244761043Y38584189D01*
X244729598Y38539281D01*
X244632877Y38401149D01*
X244544796Y38212258D01*
X244544373Y38211350D01*
X244497456Y38158065D01*
X244430178Y38138600D01*
X243010200Y38138600D01*
X242942079Y38158602D01*
X242895586Y38212258D01*
X242884200Y38264600D01*
X242884200Y39093991D01*
X242904202Y39162112D01*
X242957858Y39208605D01*
X243028132Y39218709D01*
X243073203Y39203109D01*
X243077139Y39200837D01*
X243081651Y39197677D01*
X243289157Y39100916D01*
X243294465Y39099494D01*
X243294467Y39099493D01*
X243504998Y39043081D01*
X243505000Y39043081D01*
X243510313Y39041657D01*
X243738400Y39021702D01*
X243966487Y39041657D01*
X243971800Y39043081D01*
X243971802Y39043081D01*
X244182333Y39099493D01*
X244182335Y39099494D01*
X244187643Y39100916D01*
X244192625Y39103239D01*
X244390162Y39195351D01*
X244390167Y39195354D01*
X244395149Y39197677D01*
X244500011Y39271102D01*
X244578189Y39325843D01*
X244578192Y39325845D01*
X244582700Y39329002D01*
X244744598Y39490900D01*
X244875923Y39678451D01*
X244878246Y39683433D01*
X244878249Y39683438D01*
X244970361Y39880975D01*
X244970361Y39880976D01*
X244972684Y39885957D01*
X244999644Y39986570D01*
X245030519Y40101798D01*
X245030519Y40101800D01*
X245031943Y40107113D01*
X245051898Y40335200D01*
X245031943Y40563287D01*
X244972684Y40784443D01*
X244961122Y40809238D01*
X244878249Y40986962D01*
X244878246Y40986967D01*
X244875923Y40991949D01*
X244744598Y41179500D01*
X244582700Y41341398D01*
X244578192Y41344555D01*
X244578189Y41344557D01*
X244496809Y41401540D01*
X244395149Y41472723D01*
X244390167Y41475046D01*
X244390162Y41475049D01*
X244192625Y41567161D01*
X244192624Y41567161D01*
X244187643Y41569484D01*
X244182335Y41570906D01*
X244182333Y41570907D01*
X243971802Y41627319D01*
X243971800Y41627319D01*
X243966487Y41628743D01*
X243738400Y41648698D01*
X243510313Y41628743D01*
X243505000Y41627319D01*
X243504998Y41627319D01*
X243294467Y41570907D01*
X243294465Y41570906D01*
X243289157Y41569484D01*
X243284176Y41567161D01*
X243284175Y41567161D01*
X243086638Y41475049D01*
X243086633Y41475046D01*
X243081651Y41472723D01*
X242979991Y41401540D01*
X242898611Y41344557D01*
X242898608Y41344555D01*
X242894100Y41341398D01*
X242732202Y41179500D01*
X242600877Y40991949D01*
X242598554Y40986967D01*
X242598551Y40986962D01*
X242515678Y40809238D01*
X242504116Y40784443D01*
X242444857Y40563287D01*
X242444378Y40557811D01*
X242444377Y40557806D01*
X242429308Y40385557D01*
X242403445Y40319438D01*
X242345941Y40277799D01*
X242275054Y40273858D01*
X242214692Y40307443D01*
X236531980Y45990155D01*
X236497954Y46052467D01*
X236497020Y46099561D01*
X236497543Y46101513D01*
X236498023Y46106993D01*
X236517019Y46324125D01*
X236517498Y46329600D01*
X236497543Y46557687D01*
X236493017Y46574577D01*
X236439707Y46773533D01*
X236439706Y46773535D01*
X236438284Y46778843D01*
X236435961Y46783825D01*
X236343849Y46981362D01*
X236343846Y46981367D01*
X236341523Y46986349D01*
X236254603Y47110483D01*
X236213357Y47169389D01*
X236213355Y47169392D01*
X236210198Y47173900D01*
X236048300Y47335798D01*
X236043792Y47338955D01*
X236043789Y47338957D01*
X235965611Y47393698D01*
X235860749Y47467123D01*
X235855767Y47469446D01*
X235855762Y47469449D01*
X235658225Y47561561D01*
X235658224Y47561561D01*
X235653243Y47563884D01*
X235647935Y47565306D01*
X235647933Y47565307D01*
X235437402Y47621719D01*
X235437400Y47621719D01*
X235432087Y47623143D01*
X235204000Y47643098D01*
X234975913Y47623143D01*
X234970600Y47621719D01*
X234970598Y47621719D01*
X234760067Y47565307D01*
X234760065Y47565306D01*
X234754757Y47563884D01*
X234749776Y47561561D01*
X234749775Y47561561D01*
X234552238Y47469449D01*
X234552233Y47469446D01*
X234547251Y47467123D01*
X234442389Y47393698D01*
X234364211Y47338957D01*
X234364208Y47338955D01*
X234359700Y47335798D01*
X234197802Y47173900D01*
X234194645Y47169392D01*
X234194643Y47169389D01*
X234133683Y47082329D01*
X234078226Y47038001D01*
X234030470Y47028600D01*
X233661604Y47028600D01*
X233593483Y47048602D01*
X233546990Y47102258D01*
X233536886Y47172532D01*
X233558391Y47226871D01*
X233605531Y47294194D01*
X233611014Y47303689D01*
X233703090Y47501147D01*
X233706836Y47511439D01*
X233763225Y47721888D01*
X233765128Y47732681D01*
X233784117Y47949725D01*
X233784117Y47960675D01*
X233765128Y48177719D01*
X233763225Y48188512D01*
X233706836Y48398961D01*
X233703090Y48409253D01*
X233611014Y48606711D01*
X233605531Y48616206D01*
X233569091Y48668248D01*
X233558612Y48676624D01*
X233545166Y48669556D01*
X231756523Y46880913D01*
X231750093Y46869138D01*
X231759389Y46857123D01*
X231810594Y46821269D01*
X231820089Y46815786D01*
X231930247Y46764419D01*
X231983532Y46717502D01*
X232002993Y46649224D01*
X231982451Y46581264D01*
X231966092Y46561129D01*
X229729494Y44324531D01*
X229667182Y44290505D01*
X229596367Y44295570D01*
X229539531Y44338117D01*
X229514720Y44404637D01*
X229514399Y44413626D01*
X229514399Y44596269D01*
X229514029Y44603090D01*
X229508505Y44653952D01*
X229504879Y44669204D01*
X229459724Y44789654D01*
X229451186Y44805249D01*
X229374685Y44907324D01*
X229362124Y44919885D01*
X229260049Y44996386D01*
X229244454Y45004924D01*
X229124006Y45050078D01*
X229108751Y45053705D01*
X229057886Y45059231D01*
X229051072Y45059600D01*
X228313315Y45059600D01*
X228298076Y45055125D01*
X228296871Y45053735D01*
X228295200Y45046052D01*
X228295200Y43458400D01*
X228275198Y43390279D01*
X228221542Y43343786D01*
X228169200Y43332400D01*
X226586116Y43332400D01*
X226570877Y43327925D01*
X226569672Y43326535D01*
X226568001Y43318852D01*
X226568001Y42576531D01*
X226568371Y42569710D01*
X226573895Y42518848D01*
X226577521Y42503596D01*
X226622676Y42383146D01*
X226631214Y42367551D01*
X226707715Y42265476D01*
X226720276Y42252915D01*
X226822351Y42176414D01*
X226845818Y42163566D01*
X226844716Y42161554D01*
X226891426Y42126463D01*
X226916123Y42059900D01*
X226900913Y41990552D01*
X226891877Y41977089D01*
X226891995Y41977008D01*
X226755434Y41776817D01*
X226653403Y41557010D01*
X226652021Y41552028D01*
X226652021Y41552027D01*
X226592528Y41337501D01*
X226588642Y41323490D01*
X226562890Y41082529D01*
X226563187Y41077377D01*
X226563187Y41077373D01*
X226568881Y40978633D01*
X226576840Y40840598D01*
X226577977Y40835552D01*
X226577978Y40835546D01*
X226599729Y40739032D01*
X226630116Y40604193D01*
X226632058Y40599411D01*
X226632059Y40599407D01*
X226718895Y40385557D01*
X226721288Y40379664D01*
X226847907Y40173041D01*
X227006572Y39989873D01*
X227010547Y39986573D01*
X227010550Y39986570D01*
X227147788Y39872633D01*
X227187423Y39813730D01*
X227188921Y39742750D01*
X227151806Y39682227D01*
X227142956Y39674929D01*
X227064734Y39616198D01*
X227059418Y39612207D01*
X226891995Y39437008D01*
X226889081Y39432736D01*
X226889080Y39432735D01*
X226869692Y39404313D01*
X226755434Y39236817D01*
X226653403Y39017010D01*
X226652021Y39012028D01*
X226652021Y39012027D01*
X226592408Y38797068D01*
X226588642Y38783490D01*
X226588093Y38778353D01*
X226564492Y38557517D01*
X226562890Y38542529D01*
X225501200Y38542529D01*
X225501200Y43858515D01*
X226568000Y43858515D01*
X226572475Y43843276D01*
X226573865Y43842071D01*
X226581548Y43840400D01*
X227769085Y43840400D01*
X227784324Y43844875D01*
X227785529Y43846265D01*
X227787200Y43853948D01*
X227787200Y45041484D01*
X227782725Y45056723D01*
X227781335Y45057928D01*
X227773652Y45059599D01*
X227031331Y45059599D01*
X227024510Y45059229D01*
X226973648Y45053705D01*
X226958396Y45050079D01*
X226837946Y45004924D01*
X226822351Y44996386D01*
X226720276Y44919885D01*
X226707715Y44907324D01*
X226631214Y44805249D01*
X226622676Y44789654D01*
X226577522Y44669206D01*
X226573895Y44653951D01*
X226568369Y44603086D01*
X226568000Y44596272D01*
X226568000Y43858515D01*
X225501200Y43858515D01*
X225501200Y47107066D01*
X228663100Y47107066D01*
X228669855Y47044884D01*
X228720985Y46908495D01*
X228808339Y46791939D01*
X228924895Y46704585D01*
X229061284Y46653455D01*
X229123466Y46646700D01*
X230819734Y46646700D01*
X230881916Y46653455D01*
X231018305Y46704585D01*
X231134861Y46791939D01*
X231222215Y46908495D01*
X231273345Y47044884D01*
X231280100Y47107066D01*
X231280100Y47110385D01*
X231303753Y47177310D01*
X231349756Y47213004D01*
X231348741Y47214934D01*
X231359600Y47220642D01*
X231359845Y47220832D01*
X231360003Y47220853D01*
X231398034Y47240844D01*
X232099578Y47942388D01*
X232107192Y47956332D01*
X232107061Y47958165D01*
X232102810Y47964780D01*
X231397313Y48670277D01*
X231355571Y48693071D01*
X231345571Y48695247D01*
X231295373Y48745453D01*
X231280149Y48799014D01*
X231280100Y48799919D01*
X231280100Y48803334D01*
X231273345Y48865516D01*
X231222215Y49001905D01*
X231192007Y49042212D01*
X231750176Y49042212D01*
X231757244Y49028766D01*
X232458788Y48327222D01*
X232472732Y48319608D01*
X232474565Y48319739D01*
X232481180Y48323990D01*
X233186677Y49029487D01*
X233193107Y49041262D01*
X233183811Y49053277D01*
X233132606Y49089131D01*
X233123111Y49094614D01*
X232925653Y49186690D01*
X232915361Y49190436D01*
X232704912Y49246825D01*
X232694119Y49248728D01*
X232477075Y49267717D01*
X232466125Y49267717D01*
X232249081Y49248728D01*
X232238288Y49246825D01*
X232027839Y49190436D01*
X232017547Y49186690D01*
X231820089Y49094614D01*
X231810594Y49089131D01*
X231758552Y49052691D01*
X231750176Y49042212D01*
X231192007Y49042212D01*
X231134861Y49118461D01*
X231018305Y49205815D01*
X230881916Y49256945D01*
X230819734Y49263700D01*
X229123466Y49263700D01*
X229061284Y49256945D01*
X228924895Y49205815D01*
X228808339Y49118461D01*
X228720985Y49001905D01*
X228669855Y48865516D01*
X228663100Y48803334D01*
X228663100Y47107066D01*
X225501200Y47107066D01*
X225501200Y51656377D01*
X225521202Y51724498D01*
X225574858Y51770991D01*
X225645132Y51781095D01*
X225709712Y51751601D01*
X225730412Y51728649D01*
X225815802Y51606700D01*
X225977700Y51444802D01*
X225982208Y51441645D01*
X225982211Y51441643D01*
X226053736Y51391561D01*
X226165251Y51313477D01*
X226170233Y51311154D01*
X226170238Y51311151D01*
X226350913Y51226902D01*
X226372757Y51216716D01*
X226378065Y51215294D01*
X226378067Y51215293D01*
X226588598Y51158881D01*
X226588600Y51158881D01*
X226593913Y51157457D01*
X226822000Y51137502D01*
X227050087Y51157457D01*
X227055400Y51158881D01*
X227055402Y51158881D01*
X227265933Y51215293D01*
X227265935Y51215294D01*
X227271243Y51216716D01*
X227293087Y51226902D01*
X227473762Y51311151D01*
X227473767Y51311154D01*
X227478749Y51313477D01*
X227590264Y51391561D01*
X227661789Y51441643D01*
X227661792Y51441645D01*
X227666300Y51444802D01*
X227828198Y51606700D01*
X227959523Y51794251D01*
X227961846Y51799233D01*
X227961849Y51799238D01*
X228053961Y51996775D01*
X228053961Y51996776D01*
X228056284Y52001757D01*
X228099288Y52162247D01*
X228105245Y52184478D01*
X233159273Y52184478D01*
X233206764Y52007239D01*
X233210510Y51996947D01*
X233302586Y51799489D01*
X233308069Y51789993D01*
X233433028Y51611533D01*
X233440084Y51603125D01*
X233594125Y51449084D01*
X233602533Y51442028D01*
X233780993Y51317069D01*
X233790489Y51311586D01*
X233987947Y51219510D01*
X233998239Y51215764D01*
X234170503Y51169606D01*
X234184599Y51169942D01*
X234188000Y51177884D01*
X234188000Y52178885D01*
X234183525Y52194124D01*
X234182135Y52195329D01*
X234174452Y52197000D01*
X233174033Y52197000D01*
X233160502Y52193027D01*
X233159273Y52184478D01*
X228105245Y52184478D01*
X228114119Y52217598D01*
X228114119Y52217600D01*
X228115543Y52222913D01*
X228135498Y52451000D01*
X228115543Y52679087D01*
X228056284Y52900243D01*
X227961966Y53102511D01*
X227961849Y53102762D01*
X227961846Y53102767D01*
X227959523Y53107749D01*
X227828198Y53295300D01*
X227744593Y53378905D01*
X227710567Y53441217D01*
X227715632Y53512032D01*
X227758179Y53568868D01*
X227824699Y53593679D01*
X227833688Y53594000D01*
X233431019Y53594000D01*
X233499140Y53573998D01*
G37*
G04 #@! TD.AperFunction*
G04 #@! TA.AperFunction,Conductor*
G36*
X235806712Y29843502D02*
G01*
X235842788Y29790855D01*
X235924205Y29564089D01*
X235926422Y29559963D01*
X235978446Y29463142D01*
X236049323Y29331232D01*
X236052118Y29327488D01*
X236052120Y29327486D01*
X236135244Y29216170D01*
X236207486Y29119426D01*
X236210793Y29116148D01*
X236210798Y29116142D01*
X236353350Y28974830D01*
X236395219Y28933325D01*
X236398986Y28930563D01*
X236398987Y28930562D01*
X236468373Y28879686D01*
X236608397Y28777016D01*
X236612532Y28774840D01*
X236612536Y28774838D01*
X236735794Y28709989D01*
X236842337Y28653934D01*
X237091901Y28566783D01*
X237096494Y28565911D01*
X237347016Y28518348D01*
X237347019Y28518348D01*
X237351605Y28517477D01*
X237483675Y28512287D01*
X237611076Y28507281D01*
X237611082Y28507281D01*
X237615744Y28507098D01*
X237655937Y28511500D01*
X237871681Y28535128D01*
X237941574Y28522661D01*
X237974493Y28498972D01*
X238687302Y27786163D01*
X238721328Y27723851D01*
X238716263Y27653036D01*
X238673716Y27596200D01*
X238617268Y27572519D01*
X238468103Y27549693D01*
X238237761Y27474406D01*
X238022809Y27362509D01*
X238018676Y27359406D01*
X238018673Y27359404D01*
X237833153Y27220112D01*
X237829018Y27217007D01*
X237825446Y27213269D01*
X237687614Y27069035D01*
X237661595Y27041808D01*
X237658683Y27037539D01*
X237658678Y27037533D01*
X237645735Y27018560D01*
X237590823Y26973558D01*
X237520298Y26965388D01*
X237456551Y26996644D01*
X237441821Y27012685D01*
X237438518Y27016973D01*
X237282441Y27188500D01*
X237274908Y27195526D01*
X237092904Y27339264D01*
X237084332Y27344960D01*
X236881292Y27457044D01*
X236871895Y27461267D01*
X236653280Y27538682D01*
X236643330Y27541311D01*
X236542636Y27559247D01*
X236529340Y27557788D01*
X236524800Y27543232D01*
X236524800Y25983200D01*
X236504798Y25915079D01*
X236451142Y25868586D01*
X236398800Y25857200D01*
X236142800Y25857200D01*
X236074679Y25877202D01*
X236028186Y25930858D01*
X236016800Y25983200D01*
X236016800Y27544645D01*
X236012882Y27557989D01*
X235998606Y27559976D01*
X235933332Y27549987D01*
X235923304Y27547598D01*
X235763345Y27495316D01*
X235692381Y27493165D01*
X235631519Y27529721D01*
X235600083Y27593379D01*
X235598200Y27615081D01*
X235598200Y29748278D01*
X235618202Y29816399D01*
X235671858Y29862892D01*
X235742132Y29872996D01*
X235806712Y29843502D01*
G37*
G04 #@! TD.AperFunction*
G04 #@! TA.AperFunction,Conductor*
G36*
X243213933Y53573998D02*
G01*
X243260426Y53520342D01*
X243270530Y53450068D01*
X243241036Y53385488D01*
X243234907Y53378905D01*
X243151302Y53295300D01*
X243019977Y53107749D01*
X243017654Y53102767D01*
X243017651Y53102762D01*
X243017534Y53102511D01*
X242923216Y52900243D01*
X242863957Y52679087D01*
X242844002Y52451000D01*
X242863957Y52222913D01*
X242865381Y52217600D01*
X242865381Y52217598D01*
X242880213Y52162247D01*
X242923216Y52001757D01*
X242925539Y51996776D01*
X242925539Y51996775D01*
X243017651Y51799238D01*
X243017654Y51799233D01*
X243019977Y51794251D01*
X243151302Y51606700D01*
X243313200Y51444802D01*
X243317708Y51441645D01*
X243317711Y51441643D01*
X243389236Y51391561D01*
X243500751Y51313477D01*
X243505733Y51311154D01*
X243505738Y51311151D01*
X243686413Y51226902D01*
X243708257Y51216716D01*
X243713565Y51215294D01*
X243713567Y51215293D01*
X243924098Y51158881D01*
X243924100Y51158881D01*
X243929413Y51157457D01*
X244157500Y51137502D01*
X244385587Y51157457D01*
X244390900Y51158881D01*
X244390902Y51158881D01*
X244601433Y51215293D01*
X244601435Y51215294D01*
X244606743Y51216716D01*
X244628587Y51226902D01*
X244809262Y51311151D01*
X244809267Y51311154D01*
X244814249Y51313477D01*
X244843503Y51333961D01*
X244910777Y51356649D01*
X244979637Y51339364D01*
X245028222Y51287595D01*
X245038357Y51259892D01*
X245039202Y51256340D01*
X245040055Y51248484D01*
X245091185Y51112095D01*
X245178539Y50995539D01*
X245295095Y50908185D01*
X245431484Y50857055D01*
X245493666Y50850300D01*
X246939975Y50850300D01*
X247008096Y50830298D01*
X247029070Y50813395D01*
X247980895Y49861570D01*
X248014921Y49799258D01*
X248017800Y49772475D01*
X248017800Y49480927D01*
X247997798Y49412806D01*
X247957635Y49373495D01*
X247878252Y49324848D01*
X247827384Y49293676D01*
X247646831Y49139469D01*
X247492624Y48958916D01*
X247490045Y48954708D01*
X247490041Y48954702D01*
X247475632Y48931188D01*
X247368560Y48756463D01*
X247366667Y48751893D01*
X247366665Y48751889D01*
X247332562Y48669556D01*
X247277695Y48537094D01*
X247264277Y48481205D01*
X247225513Y48319739D01*
X247222265Y48306211D01*
X247203635Y48069500D01*
X247222265Y47832789D01*
X247223419Y47827982D01*
X247223420Y47827976D01*
X247230399Y47798908D01*
X247277695Y47601906D01*
X247279588Y47597335D01*
X247279589Y47597333D01*
X247351005Y47424920D01*
X247368560Y47382537D01*
X247371146Y47378317D01*
X247490041Y47184298D01*
X247490045Y47184292D01*
X247492624Y47180084D01*
X247646831Y46999531D01*
X247827384Y46845324D01*
X247831592Y46842745D01*
X247831598Y46842741D01*
X247944599Y46773494D01*
X248029837Y46721260D01*
X248034407Y46719367D01*
X248034411Y46719365D01*
X248244633Y46632289D01*
X248249206Y46630395D01*
X248299365Y46618353D01*
X248475276Y46576120D01*
X248475282Y46576119D01*
X248480089Y46574965D01*
X248716800Y46556335D01*
X248953511Y46574965D01*
X248958318Y46576119D01*
X248958324Y46576120D01*
X249134235Y46618353D01*
X249184394Y46630395D01*
X249188967Y46632289D01*
X249399189Y46719365D01*
X249399193Y46719367D01*
X249403763Y46721260D01*
X249489001Y46773494D01*
X249602002Y46842741D01*
X249602008Y46842745D01*
X249606216Y46845324D01*
X249786769Y46999531D01*
X249940976Y47180084D01*
X249943558Y47184298D01*
X249943565Y47184307D01*
X249956568Y47205526D01*
X250009215Y47253157D01*
X250079257Y47264764D01*
X250144454Y47236661D01*
X250184108Y47177770D01*
X250190000Y47139691D01*
X250190000Y41982257D01*
X250169998Y41914136D01*
X250116342Y41867643D01*
X250046068Y41857539D01*
X249988435Y41881431D01*
X249987350Y41882244D01*
X249963505Y41900115D01*
X249827116Y41951245D01*
X249764934Y41958000D01*
X248249026Y41958000D01*
X248180905Y41978002D01*
X248159931Y41994905D01*
X246211974Y43942862D01*
X244185883Y45968952D01*
X244151857Y46031264D01*
X244156922Y46102079D01*
X244199469Y46158915D01*
X244230749Y46176029D01*
X244236624Y46178231D01*
X244243298Y46180733D01*
X244243300Y46180734D01*
X244251705Y46183885D01*
X244368261Y46271239D01*
X244426119Y46348438D01*
X244983493Y46348438D01*
X244992789Y46336423D01*
X245043994Y46300569D01*
X245053489Y46295086D01*
X245250947Y46203010D01*
X245261239Y46199264D01*
X245471688Y46142875D01*
X245482481Y46140972D01*
X245699525Y46121983D01*
X245710475Y46121983D01*
X245927519Y46140972D01*
X245938312Y46142875D01*
X246148761Y46199264D01*
X246159053Y46203010D01*
X246356511Y46295086D01*
X246366006Y46300569D01*
X246418048Y46337009D01*
X246426424Y46347488D01*
X246419356Y46360934D01*
X245717812Y47062478D01*
X245703868Y47070092D01*
X245702035Y47069961D01*
X245695420Y47065710D01*
X244989923Y46360213D01*
X244983493Y46348438D01*
X244426119Y46348438D01*
X244455615Y46387795D01*
X244506745Y46524184D01*
X244512219Y46574577D01*
X244513133Y46582986D01*
X244513133Y46582989D01*
X244513500Y46586366D01*
X244513500Y46589685D01*
X244537153Y46656610D01*
X244583156Y46692304D01*
X244582141Y46694234D01*
X244593000Y46699942D01*
X244593245Y46700132D01*
X244593403Y46700153D01*
X244631434Y46720144D01*
X245332978Y47421688D01*
X245339356Y47433368D01*
X246069408Y47433368D01*
X246069539Y47431535D01*
X246073790Y47424920D01*
X246779287Y46719423D01*
X246791062Y46712993D01*
X246803077Y46722289D01*
X246838931Y46773494D01*
X246844414Y46782989D01*
X246936490Y46980447D01*
X246940236Y46990739D01*
X246996625Y47201188D01*
X246998528Y47211981D01*
X247017517Y47429025D01*
X247017517Y47439975D01*
X246998528Y47657019D01*
X246996625Y47667812D01*
X246940236Y47878261D01*
X246936490Y47888553D01*
X246844414Y48086011D01*
X246838931Y48095506D01*
X246802491Y48147548D01*
X246792012Y48155924D01*
X246778566Y48148856D01*
X246077022Y47447312D01*
X246069408Y47433368D01*
X245339356Y47433368D01*
X245340592Y47435632D01*
X245340461Y47437465D01*
X245336210Y47444080D01*
X244630713Y48149577D01*
X244588971Y48172371D01*
X244578971Y48174547D01*
X244528773Y48224753D01*
X244513549Y48278314D01*
X244513500Y48279219D01*
X244513500Y48282634D01*
X244506745Y48344816D01*
X244455615Y48481205D01*
X244425407Y48521512D01*
X244983576Y48521512D01*
X244990644Y48508066D01*
X245692188Y47806522D01*
X245706132Y47798908D01*
X245707965Y47799039D01*
X245714580Y47803290D01*
X246420077Y48508787D01*
X246426507Y48520562D01*
X246417211Y48532577D01*
X246366006Y48568431D01*
X246356511Y48573914D01*
X246159053Y48665990D01*
X246148761Y48669736D01*
X245938312Y48726125D01*
X245927519Y48728028D01*
X245710475Y48747017D01*
X245699525Y48747017D01*
X245482481Y48728028D01*
X245471688Y48726125D01*
X245261239Y48669736D01*
X245250947Y48665990D01*
X245053489Y48573914D01*
X245043994Y48568431D01*
X244991952Y48531991D01*
X244983576Y48521512D01*
X244425407Y48521512D01*
X244368261Y48597761D01*
X244251705Y48685115D01*
X244115316Y48736245D01*
X244053134Y48743000D01*
X242356866Y48743000D01*
X242294684Y48736245D01*
X242158295Y48685115D01*
X242151110Y48679730D01*
X242151108Y48679729D01*
X242089505Y48633560D01*
X242022998Y48608712D01*
X241953616Y48623765D01*
X241924845Y48645291D01*
X241531980Y49038156D01*
X241497954Y49100468D01*
X241497020Y49147562D01*
X241497543Y49149513D01*
X241517498Y49377600D01*
X241497543Y49605687D01*
X241452852Y49772475D01*
X241439707Y49821533D01*
X241439706Y49821535D01*
X241438284Y49826843D01*
X241426722Y49851638D01*
X241343849Y50029362D01*
X241343846Y50029367D01*
X241341523Y50034349D01*
X241210198Y50221900D01*
X241048300Y50383798D01*
X241043792Y50386955D01*
X241043789Y50386957D01*
X240921431Y50472633D01*
X240860749Y50515123D01*
X240855767Y50517446D01*
X240855762Y50517449D01*
X240658225Y50609561D01*
X240658224Y50609561D01*
X240653243Y50611884D01*
X240647935Y50613306D01*
X240647933Y50613307D01*
X240437402Y50669719D01*
X240437400Y50669719D01*
X240432087Y50671143D01*
X240204000Y50691098D01*
X239975913Y50671143D01*
X239970600Y50669719D01*
X239970598Y50669719D01*
X239760067Y50613307D01*
X239760065Y50613306D01*
X239754757Y50611884D01*
X239749776Y50609561D01*
X239749775Y50609561D01*
X239552238Y50517449D01*
X239552233Y50517446D01*
X239547251Y50515123D01*
X239486569Y50472633D01*
X239364211Y50386957D01*
X239364208Y50386955D01*
X239359700Y50383798D01*
X239197802Y50221900D01*
X239066477Y50034349D01*
X239064154Y50029367D01*
X239064151Y50029362D01*
X238981278Y49851638D01*
X238969716Y49826843D01*
X238968294Y49821535D01*
X238968293Y49821533D01*
X238955148Y49772475D01*
X238910457Y49605687D01*
X238890502Y49377600D01*
X238910457Y49149513D01*
X238911881Y49144200D01*
X238911881Y49144198D01*
X238952262Y48993497D01*
X238969716Y48928357D01*
X238994788Y48874591D01*
X238996193Y48871577D01*
X239006854Y48801385D01*
X238977874Y48736573D01*
X238918454Y48697716D01*
X238847460Y48697153D01*
X238792903Y48729232D01*
X237670497Y49851638D01*
X237664643Y49857904D01*
X237632152Y49895149D01*
X237627158Y49900874D01*
X237575622Y49937094D01*
X237570326Y49941027D01*
X237526737Y49975206D01*
X237526734Y49975208D01*
X237520760Y49979892D01*
X237513836Y49983018D01*
X237510801Y49984856D01*
X237498102Y49992100D01*
X237494954Y49993788D01*
X237488739Y49998156D01*
X237430050Y50021038D01*
X237424005Y50023578D01*
X237366565Y50049513D01*
X237359092Y50050898D01*
X237355674Y50051969D01*
X237341685Y50055954D01*
X237338193Y50056851D01*
X237331111Y50059612D01*
X237323578Y50060604D01*
X237323577Y50060604D01*
X237268670Y50067833D01*
X237262157Y50068865D01*
X237207682Y50078961D01*
X237207680Y50078961D01*
X237200213Y50080345D01*
X237192633Y50079908D01*
X237192632Y50079908D01*
X237138888Y50076809D01*
X237131635Y50076600D01*
X236377530Y50076600D01*
X236309409Y50096602D01*
X236274317Y50130329D01*
X236213357Y50217389D01*
X236213355Y50217392D01*
X236210198Y50221900D01*
X236048300Y50383798D01*
X236043792Y50386955D01*
X236043789Y50386957D01*
X235956729Y50447917D01*
X235912401Y50503374D01*
X235903000Y50551130D01*
X235903000Y50775774D01*
X235923002Y50843895D01*
X235939905Y50864870D01*
X236198057Y51123021D01*
X236260369Y51157046D01*
X236307465Y51157979D01*
X236309413Y51157457D01*
X236314880Y51156979D01*
X236314884Y51156978D01*
X236532025Y51137981D01*
X236537500Y51137502D01*
X236765587Y51157457D01*
X236770900Y51158881D01*
X236770902Y51158881D01*
X236981433Y51215293D01*
X236981435Y51215294D01*
X236986743Y51216716D01*
X237008587Y51226902D01*
X237189262Y51311151D01*
X237189267Y51311154D01*
X237194249Y51313477D01*
X237305764Y51391561D01*
X237377289Y51441643D01*
X237377292Y51441645D01*
X237381800Y51444802D01*
X237543698Y51606700D01*
X237675023Y51794251D01*
X237677346Y51799233D01*
X237677349Y51799238D01*
X237769461Y51996775D01*
X237769461Y51996776D01*
X237771784Y52001757D01*
X237814788Y52162247D01*
X237829619Y52217598D01*
X237829619Y52217600D01*
X237831043Y52222913D01*
X237850998Y52451000D01*
X237831043Y52679087D01*
X237771784Y52900243D01*
X237677466Y53102511D01*
X237677349Y53102762D01*
X237677346Y53102767D01*
X237675023Y53107749D01*
X237543698Y53295300D01*
X237460093Y53378905D01*
X237426067Y53441217D01*
X237431132Y53512032D01*
X237473679Y53568868D01*
X237540199Y53593679D01*
X237549188Y53594000D01*
X243145812Y53594000D01*
X243213933Y53573998D01*
G37*
G04 #@! TD.AperFunction*
M02*
