G04 #@! TF.GenerationSoftware,KiCad,Pcbnew,(5.99.0-1101-g9de7547c2)*
G04 #@! TF.CreationDate,2020-03-12T16:30:10+02:00*
G04 #@! TF.ProjectId,cabeza-de-carne,63616265-7a61-42d6-9465-2d6361726e65,rev?*
G04 #@! TF.SameCoordinates,Original*
G04 #@! TF.FileFunction,Copper,L2,Bot*
G04 #@! TF.FilePolarity,Positive*
%FSLAX46Y46*%
G04 Gerber Fmt 4.6, Leading zero omitted, Abs format (unit mm)*
G04 Created by KiCad (PCBNEW (5.99.0-1101-g9de7547c2)) date 2020-03-12 16:30:10*
%MOMM*%
%LPD*%
G01*
G04 APERTURE LIST*
%ADD10O,2.540000X2.540000*%
%ADD11R,2.540000X2.540000*%
%ADD12O,1.930400X1.930400*%
%ADD13R,1.930400X1.930400*%
%ADD14O,1.600000X1.600000*%
%ADD15C,1.600000*%
%ADD16O,2.200000X2.200000*%
%ADD17R,2.200000X2.200000*%
%ADD18C,1.800000*%
%ADD19R,1.800000X1.800000*%
%ADD20R,1.600000X1.600000*%
%ADD21C,0.381000*%
%ADD22C,0.254000*%
G04 APERTURE END LIST*
D10*
X232473501Y30289499D03*
X237553501Y30289499D03*
D11*
X242633501Y30289499D03*
D12*
X233680000Y42799000D03*
X231140000Y42799000D03*
X228600000Y42799000D03*
D13*
X226060000Y42799000D03*
D14*
X223647000Y26182999D03*
D15*
X231267000Y26182999D03*
D14*
X247332500Y40195500D03*
D15*
X247332500Y32575500D03*
D14*
X231584500Y52260500D03*
D15*
X223964500Y52260500D03*
D14*
X244792500Y37211000D03*
D15*
X237172500Y37211000D03*
D14*
X233743500Y52260500D03*
D15*
X241363500Y52260500D03*
D14*
X237172500Y34163000D03*
D15*
X244792500Y34163000D03*
D14*
X223647000Y34671000D03*
D15*
X231267000Y34671000D03*
D12*
X231140000Y38354000D03*
X228600000Y38354000D03*
D13*
X226060000Y38354000D03*
D12*
X249047000Y52324000D03*
D13*
X246507000Y52324000D03*
D12*
X241300000Y26035000D03*
X238760000Y26035000D03*
X236220000Y26035000D03*
D13*
X233680000Y26035000D03*
D16*
X243141500Y50355500D03*
D17*
X243141500Y40195500D03*
D18*
X248475500Y27495500D03*
D19*
X245935500Y27495500D03*
D15*
X246229500Y45148500D03*
D20*
X248729500Y45148500D03*
D15*
X228687000Y47752000D03*
D20*
X226187000Y47752000D03*
D15*
X229599500Y31813500D03*
X224599500Y31813500D03*
X236203500Y49196000D03*
X231203500Y49196000D03*
X231220000Y46338500D03*
X236220000Y46338500D03*
X224616000Y29083000D03*
X229616000Y29083000D03*
D21*
X233680000Y42799000D02*
X232324299Y41443299D01*
X232324299Y41443299D02*
X227415701Y41443299D01*
X227415701Y41443299D02*
X226060000Y42799000D01*
X241300000Y26035000D02*
X237553501Y29781499D01*
X237553501Y29781499D02*
X237553501Y30289499D01*
X236013501Y33004001D02*
X237172500Y34163000D01*
X225790001Y33004001D02*
X236013501Y33004001D01*
X224599500Y31813500D02*
X225790001Y33004001D01*
X223647000Y40386000D02*
X226060000Y42799000D01*
X223647000Y34671000D02*
X223647000Y40386000D01*
X248729500Y46973442D02*
X248729500Y45148500D01*
X243442442Y52260500D02*
X248729500Y46973442D01*
X241363500Y52260500D02*
X243442442Y52260500D01*
X244602000Y37401500D02*
X244792500Y37211000D01*
X242125500Y37401500D02*
X244602000Y37401500D01*
X236203500Y49196000D02*
X239649000Y45750500D01*
X239649000Y39878000D02*
X242125500Y37401500D01*
X239649000Y45750500D02*
X239649000Y39878000D01*
X236220000Y43332562D02*
X236220000Y46338500D01*
X232597139Y39709701D02*
X236220000Y43332562D01*
X229955701Y39709701D02*
X232597139Y39709701D01*
X228600000Y38354000D02*
X229955701Y39709701D01*
G36*
X230763632Y53442412D02*
G01*
X230754619Y53436101D01*
X230570866Y53281913D01*
X230563087Y53274134D01*
X230408899Y53090381D01*
X230402588Y53081368D01*
X230282652Y52873632D01*
X230278002Y52863660D01*
X230195960Y52638253D01*
X230193113Y52627626D01*
X230166820Y52478518D01*
X230242354Y52388500D01*
X231712500Y52388500D01*
X231712500Y50918354D01*
X231802518Y50842820D01*
X231951626Y50869113D01*
X231962253Y50871960D01*
X232187660Y50954002D01*
X232197632Y50958652D01*
X232405368Y51078588D01*
X232414381Y51084899D01*
X232598134Y51239087D01*
X232605913Y51246866D01*
X232664000Y51316091D01*
X232722087Y51246866D01*
X232729866Y51239087D01*
X232913619Y51084899D01*
X232922632Y51078588D01*
X233130368Y50958652D01*
X233140340Y50954002D01*
X233365747Y50871960D01*
X233376374Y50869113D01*
X233612603Y50827459D01*
X233623564Y50826500D01*
X233863436Y50826500D01*
X233874397Y50827459D01*
X234110626Y50869113D01*
X234121253Y50871960D01*
X234346660Y50954002D01*
X234356632Y50958652D01*
X234564368Y51078588D01*
X234573381Y51084899D01*
X234757134Y51239087D01*
X234764913Y51246866D01*
X234919101Y51430619D01*
X234925412Y51439632D01*
X235045348Y51647368D01*
X235049998Y51657340D01*
X235132040Y51882747D01*
X235134887Y51893374D01*
X235176541Y52129603D01*
X235177500Y52140564D01*
X235177500Y52380436D01*
X235176541Y52391397D01*
X235134887Y52627626D01*
X235132040Y52638253D01*
X235049998Y52863660D01*
X235045348Y52873632D01*
X234925412Y53081368D01*
X234919101Y53090381D01*
X234764913Y53274134D01*
X234757134Y53281913D01*
X234573381Y53436101D01*
X234564368Y53442412D01*
X234520048Y53468000D01*
X240586952Y53468000D01*
X240542632Y53442412D01*
X240533619Y53436101D01*
X240349866Y53281913D01*
X240342087Y53274134D01*
X240187899Y53090381D01*
X240181588Y53081368D01*
X240061652Y52873632D01*
X240057002Y52863660D01*
X239974960Y52638253D01*
X239972113Y52627626D01*
X239930459Y52391397D01*
X239929500Y52380436D01*
X239929500Y52140564D01*
X239930459Y52129603D01*
X239972113Y51893374D01*
X239974960Y51882747D01*
X240057002Y51657340D01*
X240061652Y51647368D01*
X240181588Y51439632D01*
X240187899Y51430619D01*
X240342087Y51246866D01*
X240349866Y51239087D01*
X240533619Y51084899D01*
X240542632Y51078588D01*
X240750368Y50958652D01*
X240760340Y50954002D01*
X240985747Y50871960D01*
X240996374Y50869113D01*
X241232603Y50827459D01*
X241243564Y50826500D01*
X241471302Y50826500D01*
X241451732Y50766269D01*
X241449421Y50756641D01*
X241408277Y50496873D01*
X241407500Y50487003D01*
X241407500Y50223997D01*
X241408277Y50214127D01*
X241449421Y49954359D01*
X241451732Y49944731D01*
X241533005Y49694598D01*
X241536794Y49685450D01*
X241656196Y49451110D01*
X241661369Y49442668D01*
X241815960Y49229892D01*
X241822390Y49222363D01*
X242008363Y49036390D01*
X242015892Y49029960D01*
X242228668Y48875369D01*
X242237110Y48870196D01*
X242471450Y48750794D01*
X242480598Y48747005D01*
X242730731Y48665732D01*
X242740359Y48663421D01*
X243000127Y48622277D01*
X243009997Y48621500D01*
X243273003Y48621500D01*
X243282873Y48622277D01*
X243542641Y48663421D01*
X243552269Y48665732D01*
X243802402Y48747005D01*
X243811550Y48750794D01*
X244045890Y48870196D01*
X244054332Y48875369D01*
X244267108Y49029960D01*
X244274637Y49036390D01*
X244460610Y49222363D01*
X244467040Y49229892D01*
X244621631Y49442668D01*
X244626804Y49451110D01*
X244746206Y49685450D01*
X244749995Y49694598D01*
X244771945Y49762152D01*
X247903000Y46631096D01*
X247903000Y46587681D01*
X247625642Y46513363D01*
X247601162Y46500620D01*
X247444910Y46369510D01*
X247430739Y46352621D01*
X247330141Y46178380D01*
X247322600Y46157663D01*
X247296265Y46008306D01*
X247273344Y46011323D01*
X246462710Y45200691D01*
X246462710Y45096309D01*
X247273344Y44285677D01*
X247299142Y44289073D01*
X247364637Y44044642D01*
X247377380Y44020162D01*
X247508490Y43863910D01*
X247525379Y43849739D01*
X247699620Y43749141D01*
X247720337Y43741600D01*
X247913038Y43707622D01*
X247923999Y43706663D01*
X249537758Y43706663D01*
X249554134Y43708819D01*
X249833359Y43783637D01*
X249857839Y43796380D01*
X250014090Y43927490D01*
X250028261Y43944379D01*
X250064000Y44006281D01*
X250064001Y25018000D01*
X242534526Y25018000D01*
X242599766Y25094656D01*
X242605801Y25103054D01*
X242735895Y25319569D01*
X242740477Y25328839D01*
X242833463Y25563694D01*
X242836470Y25573589D01*
X242890011Y25821231D01*
X242891418Y25833031D01*
X242899385Y26158987D01*
X242898556Y26170842D01*
X242857175Y26420803D01*
X242854655Y26430833D01*
X242773253Y26669950D01*
X242769130Y26679434D01*
X242649767Y26902045D01*
X242644149Y26910729D01*
X242490031Y27110854D01*
X242483072Y27118503D01*
X242298337Y27290771D01*
X242290221Y27297181D01*
X242079832Y27436964D01*
X242070778Y27441962D01*
X241840383Y27545505D01*
X241830634Y27548957D01*
X241586423Y27613481D01*
X241576242Y27615294D01*
X241324770Y27639065D01*
X241314429Y27639192D01*
X241062451Y27621571D01*
X241052229Y27620007D01*
X240916237Y27587609D01*
X239190263Y29313582D01*
X239292121Y29501180D01*
X239295961Y29509705D01*
X239389544Y29766824D01*
X239392082Y29775823D01*
X239446798Y30044758D01*
X239448044Y30055690D01*
X239448881Y30087691D01*
X240721664Y30087691D01*
X240721664Y29011241D01*
X240723820Y28994865D01*
X240798638Y28715641D01*
X240811381Y28691161D01*
X240942491Y28534909D01*
X240959380Y28520738D01*
X241133621Y28420140D01*
X241154338Y28412599D01*
X241347039Y28378621D01*
X241358000Y28377662D01*
X242431692Y28377662D01*
X242505501Y28451471D01*
X242761500Y28451471D01*
X242835309Y28377662D01*
X243911759Y28377662D01*
X243928135Y28379818D01*
X244007191Y28401001D01*
X244393663Y28401001D01*
X244393663Y26587242D01*
X244395819Y26570866D01*
X244470637Y26291642D01*
X244483380Y26267162D01*
X244614490Y26110910D01*
X244631379Y26096739D01*
X244805620Y25996141D01*
X244826337Y25988600D01*
X245019038Y25954622D01*
X245029999Y25953663D01*
X246843758Y25953663D01*
X246860134Y25955819D01*
X247139359Y26030637D01*
X247163839Y26043380D01*
X247320090Y26174490D01*
X247334261Y26191379D01*
X247433721Y26363650D01*
X247440687Y26356206D01*
X247448612Y26349058D01*
X247647441Y26198139D01*
X247656457Y26192429D01*
X247877871Y26077168D01*
X247887720Y26073058D01*
X248125389Y25996751D01*
X248135790Y25994360D01*
X248382917Y25959188D01*
X248393572Y25958583D01*
X248643093Y25965552D01*
X248653698Y25966751D01*
X248898477Y26015663D01*
X248908728Y26018632D01*
X249141767Y26108087D01*
X249151371Y26112740D01*
X249366006Y26240181D01*
X249374688Y26246386D01*
X249564783Y26408169D01*
X249572296Y26415748D01*
X249732414Y26607246D01*
X249738542Y26615983D01*
X249864106Y26831721D01*
X249868675Y26841366D01*
X249956093Y27075177D01*
X249958971Y27085454D01*
X250005802Y27330947D01*
X250006917Y27342170D01*
X250009578Y27619402D01*
X250008679Y27630644D01*
X249966570Y27876992D01*
X249963889Y27887322D01*
X249880976Y28122768D01*
X249876592Y28132499D01*
X249755194Y28350608D01*
X249749234Y28359461D01*
X249592822Y28553998D01*
X249585456Y28561720D01*
X249398503Y28727122D01*
X249389940Y28733493D01*
X249177791Y28865030D01*
X249168278Y28869867D01*
X248937000Y28963779D01*
X248926808Y28966944D01*
X248683013Y29020546D01*
X248672434Y29021948D01*
X248423092Y29033706D01*
X248412428Y29033306D01*
X248164670Y29002886D01*
X248154225Y29000694D01*
X247915135Y28928963D01*
X247905209Y28925043D01*
X247681623Y28814054D01*
X247672500Y28808518D01*
X247470811Y28661444D01*
X247462750Y28654449D01*
X247423274Y28613855D01*
X247400363Y28699359D01*
X247387620Y28723839D01*
X247256510Y28880090D01*
X247239621Y28894261D01*
X247065380Y28994859D01*
X247044663Y29002400D01*
X246851962Y29036378D01*
X246841001Y29037337D01*
X245027242Y29037337D01*
X245010866Y29035181D01*
X244731642Y28960363D01*
X244707162Y28947620D01*
X244550910Y28816510D01*
X244536739Y28799621D01*
X244436141Y28625380D01*
X244428600Y28604663D01*
X244394622Y28411962D01*
X244393663Y28401001D01*
X244007191Y28401001D01*
X244207360Y28454636D01*
X244231840Y28467379D01*
X244388091Y28598489D01*
X244402262Y28615378D01*
X244502860Y28789619D01*
X244510401Y28810336D01*
X244544379Y29003037D01*
X244545338Y29013998D01*
X244545338Y30087690D01*
X244471529Y30161499D01*
X242835310Y30161500D01*
X242761501Y30087691D01*
X242761500Y28451471D01*
X242505501Y28451471D01*
X242505502Y30087690D01*
X242431693Y30161499D01*
X240795473Y30161500D01*
X240721664Y30087691D01*
X239448881Y30087691D01*
X239457684Y30423834D01*
X239457012Y30434816D01*
X239416447Y30706247D01*
X239414383Y30715367D01*
X239334384Y30977031D01*
X239330995Y30985746D01*
X239213199Y31232710D01*
X239208559Y31240828D01*
X239055553Y31467668D01*
X239049765Y31475011D01*
X238967306Y31565000D01*
X240721664Y31565000D01*
X240721664Y30491308D01*
X240795473Y30417499D01*
X242431692Y30417498D01*
X242505501Y30491307D01*
X242505501Y30491308D01*
X242761500Y30491308D01*
X242835309Y30417499D01*
X244471529Y30417498D01*
X244545338Y30491307D01*
X244545338Y31567757D01*
X244543182Y31584133D01*
X244468364Y31863358D01*
X244455621Y31887838D01*
X244324511Y32044089D01*
X244307622Y32058260D01*
X244133381Y32158858D01*
X244112664Y32166399D01*
X243919963Y32200377D01*
X243909002Y32201336D01*
X242835310Y32201336D01*
X242761501Y32127527D01*
X242761500Y30491308D01*
X242505501Y30491308D01*
X242505502Y32127527D01*
X242431693Y32201336D01*
X241355243Y32201336D01*
X241338867Y32199180D01*
X241059643Y32124362D01*
X241035163Y32111619D01*
X240878911Y31980509D01*
X240864740Y31963620D01*
X240764142Y31789379D01*
X240756601Y31768662D01*
X240722623Y31575961D01*
X240721664Y31565000D01*
X238967306Y31565000D01*
X238864911Y31676745D01*
X238858100Y31683152D01*
X238645458Y31855346D01*
X238637775Y31860675D01*
X238402016Y31999548D01*
X238393630Y32003684D01*
X238139934Y32106183D01*
X238131029Y32109033D01*
X237864971Y32172909D01*
X237855742Y32174412D01*
X237583164Y32198259D01*
X237573814Y32198381D01*
X237300705Y32181678D01*
X237291440Y32180417D01*
X237023800Y32123528D01*
X237014823Y32120911D01*
X236758532Y32025088D01*
X236750040Y32021174D01*
X236510727Y31888520D01*
X236502907Y31883394D01*
X236285831Y31716824D01*
X236278855Y31710598D01*
X236088783Y31513773D01*
X236082804Y31506584D01*
X235923913Y31283826D01*
X235919062Y31275832D01*
X235794842Y31032036D01*
X235791226Y31023413D01*
X235704405Y30763934D01*
X235702103Y30754871D01*
X235654589Y30485409D01*
X235653653Y30476105D01*
X235646490Y30202580D01*
X235646938Y30193240D01*
X235680285Y29921660D01*
X235682109Y29912489D01*
X235755230Y29648822D01*
X235758390Y29640021D01*
X235869681Y29390057D01*
X235874107Y29381820D01*
X236021122Y29151052D01*
X236026716Y29143560D01*
X236206227Y28937057D01*
X236212868Y28930474D01*
X236420930Y28752772D01*
X236428470Y28747243D01*
X236660512Y28602247D01*
X236668787Y28597894D01*
X236919713Y28488788D01*
X236928541Y28485705D01*
X237192836Y28414888D01*
X237202022Y28413144D01*
X237473883Y28382170D01*
X237483226Y28381803D01*
X237756678Y28391351D01*
X237765974Y28392369D01*
X237772564Y28393590D01*
X238543136Y27623018D01*
X238522451Y27621571D01*
X238512229Y27620007D01*
X238266513Y27561469D01*
X238256683Y27558257D01*
X238023827Y27460373D01*
X238014654Y27455598D01*
X237800912Y27320997D01*
X237792642Y27314788D01*
X237603754Y27147086D01*
X237596609Y27139609D01*
X237489627Y27007497D01*
X237410031Y27110854D01*
X237403072Y27118503D01*
X237218337Y27290771D01*
X237210221Y27297181D01*
X236999832Y27436964D01*
X236990778Y27441962D01*
X236760383Y27545505D01*
X236750634Y27548957D01*
X236506423Y27613481D01*
X236496242Y27615294D01*
X236430402Y27621518D01*
X236348000Y27546539D01*
X236348000Y25907000D01*
X236092000Y25907000D01*
X236092000Y27550043D01*
X235996184Y27625714D01*
X235726513Y27561469D01*
X235716683Y27558257D01*
X235483827Y27460373D01*
X235474654Y27455598D01*
X235260912Y27320997D01*
X235252642Y27314788D01*
X235215923Y27282188D01*
X235210063Y27304059D01*
X235197320Y27328539D01*
X235066210Y27484790D01*
X235049321Y27498961D01*
X234875080Y27599559D01*
X234854363Y27607100D01*
X234661662Y27641078D01*
X234650701Y27642037D01*
X232706542Y27642037D01*
X232690166Y27639881D01*
X232410942Y27565063D01*
X232386462Y27552320D01*
X232230210Y27421210D01*
X232216039Y27404321D01*
X232159369Y27306166D01*
X232096881Y27358600D01*
X232087868Y27364911D01*
X231880132Y27484847D01*
X231870160Y27489497D01*
X231644753Y27571539D01*
X231634126Y27574386D01*
X231397897Y27616040D01*
X231386936Y27616999D01*
X231147064Y27616999D01*
X231136103Y27616040D01*
X230899874Y27574386D01*
X230889247Y27571539D01*
X230663840Y27489497D01*
X230653868Y27484847D01*
X230446132Y27364911D01*
X230437119Y27358600D01*
X230253366Y27204412D01*
X230245587Y27196633D01*
X230091399Y27012880D01*
X230085088Y27003867D01*
X229965152Y26796131D01*
X229960502Y26786159D01*
X229878460Y26560752D01*
X229875613Y26550125D01*
X229833959Y26313896D01*
X229833000Y26302935D01*
X229833000Y26063063D01*
X229833959Y26052102D01*
X229875613Y25815873D01*
X229878460Y25805246D01*
X229960502Y25579839D01*
X229965152Y25569867D01*
X230085088Y25362131D01*
X230091399Y25353118D01*
X230245587Y25169365D01*
X230253366Y25161586D01*
X230424484Y25018000D01*
X224489516Y25018000D01*
X224660634Y25161586D01*
X224668413Y25169365D01*
X224822601Y25353118D01*
X224828912Y25362131D01*
X224948848Y25569867D01*
X224953498Y25579839D01*
X225035540Y25805246D01*
X225038387Y25815873D01*
X225064680Y25964981D01*
X224989146Y26054999D01*
X223848808Y26055000D01*
X223848807Y26054999D01*
X223519000Y26055000D01*
X223519000Y26384808D01*
X223774999Y26384808D01*
X223848808Y26310999D01*
X224989146Y26310998D01*
X225064679Y26401016D01*
X225038387Y26550124D01*
X225035540Y26560752D01*
X224953498Y26786159D01*
X224948848Y26796131D01*
X224828912Y27003867D01*
X224822601Y27012880D01*
X224668413Y27196633D01*
X224660634Y27204412D01*
X224476881Y27358600D01*
X224467868Y27364911D01*
X224260132Y27484847D01*
X224250160Y27489497D01*
X224024753Y27571539D01*
X224014126Y27574386D01*
X223865018Y27600679D01*
X223775000Y27525145D01*
X223774999Y26384808D01*
X223519000Y26384808D01*
X223519001Y27525145D01*
X223428983Y27600678D01*
X223279875Y27574386D01*
X223269247Y27571539D01*
X223138000Y27523769D01*
X223138000Y31933436D01*
X223165500Y31933436D01*
X223165500Y31693564D01*
X223166459Y31682603D01*
X223208113Y31446374D01*
X223210960Y31435747D01*
X223293002Y31210340D01*
X223297652Y31200368D01*
X223417588Y30992632D01*
X223423899Y30983619D01*
X223578087Y30799866D01*
X223585866Y30792087D01*
X223769619Y30637899D01*
X223778632Y30631588D01*
X223986368Y30511652D01*
X223996340Y30507002D01*
X224166009Y30445247D01*
X224012840Y30389498D01*
X224002868Y30384848D01*
X223795132Y30264912D01*
X223786119Y30258601D01*
X223602366Y30104413D01*
X223594587Y30096634D01*
X223440399Y29912881D01*
X223434088Y29903868D01*
X223314152Y29696132D01*
X223309502Y29686160D01*
X223227460Y29460753D01*
X223224613Y29450126D01*
X223182959Y29213897D01*
X223182000Y29202936D01*
X223182000Y28963064D01*
X223182959Y28952103D01*
X223224613Y28715874D01*
X223227460Y28705247D01*
X223309502Y28479840D01*
X223314152Y28469868D01*
X223434088Y28262132D01*
X223440399Y28253119D01*
X223594587Y28069366D01*
X223602366Y28061587D01*
X223786119Y27907399D01*
X223795132Y27901088D01*
X224002868Y27781152D01*
X224012840Y27776502D01*
X224238247Y27694460D01*
X224248874Y27691613D01*
X224485103Y27649959D01*
X224496064Y27649000D01*
X224735936Y27649000D01*
X224746897Y27649959D01*
X224983126Y27691613D01*
X224993753Y27694460D01*
X225219160Y27776502D01*
X225229132Y27781152D01*
X225436868Y27901088D01*
X225445881Y27907399D01*
X225629634Y28061587D01*
X225637413Y28069366D01*
X225791601Y28253119D01*
X225797912Y28262132D01*
X225917848Y28469868D01*
X225922498Y28479840D01*
X226004540Y28705247D01*
X226007387Y28715874D01*
X226049041Y28952103D01*
X226050000Y28963064D01*
X226050000Y29202936D01*
X226049041Y29213897D01*
X226007387Y29450126D01*
X226004540Y29460753D01*
X225922498Y29686160D01*
X225917848Y29696132D01*
X225797912Y29903868D01*
X225791601Y29912881D01*
X225637413Y30096634D01*
X225629634Y30104413D01*
X225445881Y30258601D01*
X225436868Y30264912D01*
X225229132Y30384848D01*
X225219160Y30389498D01*
X225049491Y30451253D01*
X225202660Y30507002D01*
X225212632Y30511652D01*
X225420368Y30631588D01*
X225429381Y30637899D01*
X225613134Y30792087D01*
X225620913Y30799866D01*
X225775101Y30983619D01*
X225781412Y30992632D01*
X225901348Y31200368D01*
X225905998Y31210340D01*
X225988040Y31435747D01*
X225990887Y31446374D01*
X226032541Y31682603D01*
X226033500Y31693564D01*
X226033500Y31933436D01*
X226032541Y31944397D01*
X226012561Y32057714D01*
X226132348Y32177501D01*
X228207562Y32177501D01*
X228166459Y31944397D01*
X228165500Y31933436D01*
X228165500Y31693564D01*
X228166459Y31682603D01*
X228208113Y31446374D01*
X228210960Y31435747D01*
X228293002Y31210340D01*
X228297652Y31200368D01*
X228417588Y30992632D01*
X228423899Y30983619D01*
X228578087Y30799866D01*
X228585866Y30792087D01*
X228769619Y30637899D01*
X228778632Y30631588D01*
X228986368Y30511652D01*
X228996340Y30507002D01*
X229166009Y30445247D01*
X229012840Y30389498D01*
X229002868Y30384848D01*
X228795132Y30264912D01*
X228786119Y30258601D01*
X228602366Y30104413D01*
X228594587Y30096634D01*
X228440399Y29912881D01*
X228434088Y29903868D01*
X228314152Y29696132D01*
X228309502Y29686160D01*
X228227460Y29460753D01*
X228224613Y29450126D01*
X228182959Y29213897D01*
X228182000Y29202936D01*
X228182000Y28963064D01*
X228182959Y28952103D01*
X228224613Y28715874D01*
X228227460Y28705247D01*
X228309502Y28479840D01*
X228314152Y28469868D01*
X228434088Y28262132D01*
X228440399Y28253119D01*
X228594587Y28069366D01*
X228602366Y28061587D01*
X228786119Y27907399D01*
X228795132Y27901088D01*
X229002868Y27781152D01*
X229012840Y27776502D01*
X229238247Y27694460D01*
X229248874Y27691613D01*
X229485103Y27649959D01*
X229496064Y27649000D01*
X229735936Y27649000D01*
X229746897Y27649959D01*
X229983126Y27691613D01*
X229993753Y27694460D01*
X230219160Y27776502D01*
X230229132Y27781152D01*
X230436868Y27901088D01*
X230445881Y27907399D01*
X230629634Y28061587D01*
X230637413Y28069366D01*
X230791601Y28253119D01*
X230797912Y28262132D01*
X230917848Y28469868D01*
X230922498Y28479840D01*
X231004540Y28705247D01*
X231007387Y28715874D01*
X231049041Y28952103D01*
X231050000Y28963064D01*
X231050000Y29024746D01*
X231126227Y28937057D01*
X231132868Y28930474D01*
X231340930Y28752772D01*
X231348470Y28747243D01*
X231580512Y28602247D01*
X231588787Y28597894D01*
X231839713Y28488788D01*
X231848541Y28485705D01*
X232112836Y28414888D01*
X232122022Y28413144D01*
X232393883Y28382170D01*
X232403226Y28381803D01*
X232676679Y28391351D01*
X232685974Y28392369D01*
X232955011Y28442233D01*
X232964053Y28444614D01*
X233222765Y28533695D01*
X233231356Y28537386D01*
X233474060Y28663729D01*
X233482012Y28668650D01*
X233703373Y28829479D01*
X233710510Y28835520D01*
X233905669Y29027302D01*
X233911834Y29034333D01*
X234076503Y29252855D01*
X234081561Y29260719D01*
X234212121Y29501180D01*
X234215961Y29509705D01*
X234309544Y29766824D01*
X234312082Y29775823D01*
X234366798Y30044758D01*
X234368044Y30055690D01*
X234377684Y30423834D01*
X234377012Y30434816D01*
X234336447Y30706247D01*
X234334383Y30715367D01*
X234254384Y30977031D01*
X234250995Y30985746D01*
X234133199Y31232710D01*
X234128559Y31240828D01*
X233975553Y31467668D01*
X233969765Y31475011D01*
X233784911Y31676745D01*
X233778100Y31683152D01*
X233565458Y31855346D01*
X233557775Y31860675D01*
X233322016Y31999548D01*
X233313630Y32003684D01*
X233059934Y32106183D01*
X233051029Y32109033D01*
X232784971Y32172909D01*
X232775742Y32174412D01*
X232740434Y32177501D01*
X235920910Y32177501D01*
X235937691Y32173704D01*
X235955587Y32172264D01*
X236039996Y32177501D01*
X236068279Y32177501D01*
X236077220Y32178138D01*
X236097826Y32181088D01*
X236173775Y32185801D01*
X236191355Y32189442D01*
X236214502Y32197798D01*
X236238877Y32201289D01*
X236256110Y32206328D01*
X236325397Y32237832D01*
X236397156Y32263737D01*
X236413324Y32272397D01*
X236432293Y32286434D01*
X236455113Y32296809D01*
X236470238Y32306482D01*
X236536218Y32363334D01*
X236553455Y32376089D01*
X236560538Y32382192D01*
X236575695Y32397350D01*
X236635848Y32449181D01*
X236647649Y32462708D01*
X236659800Y32481454D01*
X236873782Y32695436D01*
X245898500Y32695436D01*
X245898500Y32455564D01*
X245899459Y32444603D01*
X245941113Y32208374D01*
X245943960Y32197747D01*
X246026002Y31972340D01*
X246030652Y31962368D01*
X246150588Y31754632D01*
X246156899Y31745619D01*
X246311087Y31561866D01*
X246318866Y31554087D01*
X246502619Y31399899D01*
X246511632Y31393588D01*
X246719368Y31273652D01*
X246729340Y31269002D01*
X246954747Y31186960D01*
X246965374Y31184113D01*
X247201603Y31142459D01*
X247212564Y31141500D01*
X247452436Y31141500D01*
X247463397Y31142459D01*
X247699626Y31184113D01*
X247710253Y31186960D01*
X247935660Y31269002D01*
X247945632Y31273652D01*
X248153368Y31393588D01*
X248162381Y31399899D01*
X248346134Y31554087D01*
X248353913Y31561866D01*
X248508101Y31745619D01*
X248514412Y31754632D01*
X248634348Y31962368D01*
X248638998Y31972340D01*
X248721040Y32197747D01*
X248723887Y32208374D01*
X248765541Y32444603D01*
X248766500Y32455564D01*
X248766500Y32695436D01*
X248765541Y32706397D01*
X248723887Y32942626D01*
X248721040Y32953253D01*
X248638998Y33178660D01*
X248634348Y33188632D01*
X248514412Y33396368D01*
X248508101Y33405381D01*
X248353913Y33589134D01*
X248346134Y33596913D01*
X248162381Y33751101D01*
X248153368Y33757412D01*
X247945632Y33877348D01*
X247935660Y33881998D01*
X247710253Y33964040D01*
X247699626Y33966887D01*
X247463397Y34008541D01*
X247452436Y34009500D01*
X247212564Y34009500D01*
X247201603Y34008541D01*
X246965374Y33966887D01*
X246954747Y33964040D01*
X246729340Y33881998D01*
X246719368Y33877348D01*
X246511632Y33757412D01*
X246502619Y33751101D01*
X246318866Y33596913D01*
X246311087Y33589134D01*
X246156899Y33405381D01*
X246150588Y33396368D01*
X246030652Y33188632D01*
X246026002Y33178660D01*
X245943960Y32953253D01*
X245941113Y32942626D01*
X245899459Y32706397D01*
X245898500Y32695436D01*
X236873782Y32695436D01*
X236928286Y32749940D01*
X237041603Y32729959D01*
X237052564Y32729000D01*
X237292436Y32729000D01*
X237303397Y32729959D01*
X237539626Y32771613D01*
X237550253Y32774460D01*
X237775660Y32856502D01*
X237785632Y32861152D01*
X237993368Y32981088D01*
X238002381Y32987399D01*
X238186134Y33141587D01*
X238193913Y33149366D01*
X238348101Y33333119D01*
X238354412Y33342132D01*
X238474348Y33549868D01*
X238478998Y33559840D01*
X238561040Y33785247D01*
X238563887Y33795874D01*
X238605541Y34032103D01*
X238606500Y34043064D01*
X238606500Y34282936D01*
X243358500Y34282936D01*
X243358500Y34043064D01*
X243359459Y34032103D01*
X243401113Y33795874D01*
X243403960Y33785247D01*
X243486002Y33559840D01*
X243490652Y33549868D01*
X243610588Y33342132D01*
X243616899Y33333119D01*
X243771087Y33149366D01*
X243778866Y33141587D01*
X243962619Y32987399D01*
X243971632Y32981088D01*
X244179368Y32861152D01*
X244189340Y32856502D01*
X244414747Y32774460D01*
X244425374Y32771613D01*
X244661603Y32729959D01*
X244672564Y32729000D01*
X244912436Y32729000D01*
X244923397Y32729959D01*
X245159626Y32771613D01*
X245170253Y32774460D01*
X245395660Y32856502D01*
X245405632Y32861152D01*
X245613368Y32981088D01*
X245622381Y32987399D01*
X245806134Y33141587D01*
X245813913Y33149366D01*
X245968101Y33333119D01*
X245974412Y33342132D01*
X246094348Y33549868D01*
X246098998Y33559840D01*
X246181040Y33785247D01*
X246183887Y33795874D01*
X246225541Y34032103D01*
X246226500Y34043064D01*
X246226500Y34282936D01*
X246225541Y34293897D01*
X246183887Y34530126D01*
X246181040Y34540753D01*
X246098998Y34766160D01*
X246094348Y34776132D01*
X245974412Y34983868D01*
X245968101Y34992881D01*
X245813913Y35176634D01*
X245806134Y35184413D01*
X245622381Y35338601D01*
X245613368Y35344912D01*
X245405632Y35464848D01*
X245395660Y35469498D01*
X245170253Y35551540D01*
X245159626Y35554387D01*
X244923397Y35596041D01*
X244912436Y35597000D01*
X244672564Y35597000D01*
X244661603Y35596041D01*
X244425374Y35554387D01*
X244414747Y35551540D01*
X244189340Y35469498D01*
X244179368Y35464848D01*
X243971632Y35344912D01*
X243962619Y35338601D01*
X243778866Y35184413D01*
X243771087Y35176634D01*
X243616899Y34992881D01*
X243610588Y34983868D01*
X243490652Y34776132D01*
X243486002Y34766160D01*
X243403960Y34540753D01*
X243401113Y34530126D01*
X243359459Y34293897D01*
X243358500Y34282936D01*
X238606500Y34282936D01*
X238605541Y34293897D01*
X238563887Y34530126D01*
X238561040Y34540753D01*
X238478998Y34766160D01*
X238474348Y34776132D01*
X238354412Y34983868D01*
X238348101Y34992881D01*
X238193913Y35176634D01*
X238186134Y35184413D01*
X238002381Y35338601D01*
X237993368Y35344912D01*
X237785632Y35464848D01*
X237775660Y35469498D01*
X237550253Y35551540D01*
X237539626Y35554387D01*
X237303397Y35596041D01*
X237292436Y35597000D01*
X237052564Y35597000D01*
X237041603Y35596041D01*
X236805374Y35554387D01*
X236794747Y35551540D01*
X236569340Y35469498D01*
X236559368Y35464848D01*
X236351632Y35344912D01*
X236342619Y35338601D01*
X236158866Y35184413D01*
X236151087Y35176634D01*
X235996899Y34992881D01*
X235990588Y34983868D01*
X235870652Y34776132D01*
X235866002Y34766160D01*
X235783960Y34540753D01*
X235781113Y34530126D01*
X235739459Y34293897D01*
X235738500Y34282936D01*
X235738500Y34043064D01*
X235739459Y34032103D01*
X235759439Y33918786D01*
X235671155Y33830501D01*
X232433691Y33830501D01*
X232442601Y33841119D01*
X232448912Y33850132D01*
X232568848Y34057868D01*
X232573498Y34067840D01*
X232655540Y34293247D01*
X232658387Y34303874D01*
X232700041Y34540103D01*
X232701000Y34551064D01*
X232701000Y34790936D01*
X232700041Y34801897D01*
X232658387Y35038126D01*
X232655540Y35048753D01*
X232573498Y35274160D01*
X232568848Y35284132D01*
X232448912Y35491868D01*
X232442601Y35500881D01*
X232288413Y35684634D01*
X232280634Y35692413D01*
X232096881Y35846601D01*
X232087868Y35852912D01*
X231880132Y35972848D01*
X231870160Y35977498D01*
X231644753Y36059540D01*
X231634126Y36062387D01*
X231397897Y36104041D01*
X231386936Y36105000D01*
X231147064Y36105000D01*
X231136103Y36104041D01*
X230899874Y36062387D01*
X230889247Y36059540D01*
X230663840Y35977498D01*
X230653868Y35972848D01*
X230446132Y35852912D01*
X230437119Y35846601D01*
X230253366Y35692413D01*
X230245587Y35684634D01*
X230091399Y35500881D01*
X230085088Y35491868D01*
X229965152Y35284132D01*
X229960502Y35274160D01*
X229878460Y35048753D01*
X229875613Y35038126D01*
X229833959Y34801897D01*
X229833000Y34790936D01*
X229833000Y34551064D01*
X229833959Y34540103D01*
X229875613Y34303874D01*
X229878460Y34293247D01*
X229960502Y34067840D01*
X229965152Y34057868D01*
X230085088Y33850132D01*
X230091399Y33841119D01*
X230100309Y33830501D01*
X225882591Y33830501D01*
X225865810Y33834298D01*
X225847915Y33835738D01*
X225763506Y33830501D01*
X225735223Y33830501D01*
X225726281Y33829864D01*
X225705675Y33826913D01*
X225629726Y33822201D01*
X225612147Y33818561D01*
X225588994Y33810203D01*
X225564624Y33806713D01*
X225547392Y33801674D01*
X225478103Y33770170D01*
X225406344Y33744265D01*
X225390177Y33735605D01*
X225371205Y33721566D01*
X225348389Y33711193D01*
X225333264Y33701520D01*
X225267292Y33644675D01*
X225250047Y33631914D01*
X225242963Y33625810D01*
X225227799Y33610645D01*
X225167654Y33558821D01*
X225155852Y33545292D01*
X225143704Y33526550D01*
X224843714Y33226560D01*
X224730397Y33246541D01*
X224719436Y33247500D01*
X224479564Y33247500D01*
X224468603Y33246541D01*
X224232374Y33204887D01*
X224221747Y33202040D01*
X223996340Y33119998D01*
X223986368Y33115348D01*
X223778632Y32995412D01*
X223769619Y32989101D01*
X223585866Y32834913D01*
X223578087Y32827134D01*
X223423899Y32643381D01*
X223417588Y32634368D01*
X223297652Y32426632D01*
X223293002Y32416660D01*
X223210960Y32191253D01*
X223208113Y32180626D01*
X223166459Y31944397D01*
X223165500Y31933436D01*
X223138000Y31933436D01*
X223138000Y33330230D01*
X223269247Y33282460D01*
X223279874Y33279613D01*
X223516103Y33237959D01*
X223527064Y33237000D01*
X223766936Y33237000D01*
X223777897Y33237959D01*
X224014126Y33279613D01*
X224024753Y33282460D01*
X224250160Y33364502D01*
X224260132Y33369152D01*
X224467868Y33489088D01*
X224476881Y33495399D01*
X224660634Y33649587D01*
X224668413Y33657366D01*
X224822601Y33841119D01*
X224828912Y33850132D01*
X224948848Y34057868D01*
X224953498Y34067840D01*
X225035540Y34293247D01*
X225038387Y34303874D01*
X225080041Y34540103D01*
X225081000Y34551064D01*
X225081000Y34790936D01*
X225080041Y34801897D01*
X225038387Y35038126D01*
X225035540Y35048753D01*
X224953498Y35274160D01*
X224948848Y35284132D01*
X224828912Y35491868D01*
X224822601Y35500881D01*
X224668413Y35684634D01*
X224660634Y35692413D01*
X224476881Y35846601D01*
X224473500Y35848968D01*
X224473500Y37295567D01*
X224529937Y37084942D01*
X224542680Y37060462D01*
X224673790Y36904210D01*
X224690679Y36890039D01*
X224864920Y36789441D01*
X224885637Y36781900D01*
X225078338Y36747922D01*
X225089299Y36746963D01*
X225858191Y36746963D01*
X225932000Y36820772D01*
X225932001Y38152192D01*
X225932000Y38152193D01*
X225932001Y39887228D01*
X225858192Y39961037D01*
X225086542Y39961037D01*
X225070166Y39958881D01*
X224790942Y39884063D01*
X224766462Y39871320D01*
X224610210Y39740210D01*
X224596039Y39723321D01*
X224495441Y39549080D01*
X224487900Y39528363D01*
X224473500Y39446696D01*
X224473500Y40043655D01*
X225621809Y41191963D01*
X226498190Y41191963D01*
X226765804Y40924348D01*
X226774986Y40909796D01*
X226786622Y40896124D01*
X226850021Y40840132D01*
X226870011Y40820141D01*
X226876785Y40814268D01*
X226893436Y40801789D01*
X226950477Y40751412D01*
X226965483Y40741555D01*
X226987765Y40731093D01*
X227007462Y40716331D01*
X227023210Y40707709D01*
X227094474Y40680994D01*
X227163541Y40648567D01*
X227181096Y40643258D01*
X227204440Y40639770D01*
X227227908Y40630972D01*
X227245442Y40627117D01*
X227332287Y40620663D01*
X227353506Y40617492D01*
X227362829Y40616799D01*
X227384290Y40616799D01*
X227463451Y40610917D01*
X227481361Y40612138D01*
X227503196Y40616799D01*
X232231708Y40616799D01*
X232248489Y40613002D01*
X232266385Y40611562D01*
X232334372Y40615780D01*
X232254793Y40536201D01*
X230048291Y40536201D01*
X230031510Y40539998D01*
X230013615Y40541438D01*
X229929206Y40536201D01*
X229900923Y40536201D01*
X229891981Y40535564D01*
X229871375Y40532613D01*
X229795426Y40527901D01*
X229777847Y40524261D01*
X229754694Y40515903D01*
X229730324Y40512413D01*
X229713092Y40507374D01*
X229643803Y40475870D01*
X229572044Y40449965D01*
X229555877Y40441305D01*
X229536905Y40427266D01*
X229514089Y40416893D01*
X229498964Y40407220D01*
X229432992Y40350375D01*
X229415747Y40337614D01*
X229408663Y40331510D01*
X229393499Y40316345D01*
X229333354Y40264521D01*
X229321552Y40250992D01*
X229309404Y40232250D01*
X228983885Y39906731D01*
X228886423Y39932481D01*
X228876242Y39934294D01*
X228624770Y39958065D01*
X228614429Y39958192D01*
X228362451Y39940571D01*
X228352229Y39939007D01*
X228106513Y39880469D01*
X228096683Y39877257D01*
X227863827Y39779373D01*
X227854654Y39774598D01*
X227640912Y39639997D01*
X227632642Y39633788D01*
X227595923Y39601188D01*
X227590063Y39623059D01*
X227577320Y39647539D01*
X227446210Y39803790D01*
X227429321Y39817961D01*
X227255080Y39918559D01*
X227234363Y39926100D01*
X227041662Y39960078D01*
X227030701Y39961037D01*
X226261809Y39961037D01*
X226188000Y39887228D01*
X226187999Y38555808D01*
X226188000Y38555807D01*
X226187999Y36820772D01*
X226261808Y36746963D01*
X227033458Y36746963D01*
X227049834Y36749119D01*
X227329059Y36823937D01*
X227353539Y36836680D01*
X227509790Y36967790D01*
X227523961Y36984679D01*
X227594025Y37106034D01*
X227786148Y36971508D01*
X227795077Y36966290D01*
X228022873Y36857149D01*
X228032535Y36853460D01*
X228275098Y36782988D01*
X228285232Y36780927D01*
X228536048Y36751019D01*
X228546382Y36750640D01*
X228798714Y36762098D01*
X228808972Y36763412D01*
X229056045Y36815930D01*
X229065950Y36818901D01*
X229301128Y36911067D01*
X229310415Y36915616D01*
X229527382Y37044954D01*
X229535801Y37050959D01*
X229728730Y37213997D01*
X229736055Y37221297D01*
X229871060Y37379927D01*
X229924038Y37307542D01*
X229930809Y37299725D01*
X230111280Y37122996D01*
X230119237Y37116390D01*
X230326148Y36971508D01*
X230335077Y36966290D01*
X230562873Y36857149D01*
X230572535Y36853460D01*
X230815098Y36782988D01*
X230825232Y36780927D01*
X231076048Y36751019D01*
X231086382Y36750640D01*
X231338714Y36762098D01*
X231348972Y36763412D01*
X231596045Y36815930D01*
X231605950Y36818901D01*
X231841128Y36911067D01*
X231850415Y36915616D01*
X232067382Y37044954D01*
X232075801Y37050959D01*
X232268730Y37213997D01*
X232276055Y37221297D01*
X232369365Y37330936D01*
X235738500Y37330936D01*
X235738500Y37091064D01*
X235739459Y37080103D01*
X235781113Y36843874D01*
X235783960Y36833247D01*
X235866002Y36607840D01*
X235870652Y36597868D01*
X235990588Y36390132D01*
X235996899Y36381119D01*
X236151087Y36197366D01*
X236158866Y36189587D01*
X236342619Y36035399D01*
X236351632Y36029088D01*
X236559368Y35909152D01*
X236569340Y35904502D01*
X236794747Y35822460D01*
X236805374Y35819613D01*
X237041603Y35777959D01*
X237052564Y35777000D01*
X237292436Y35777000D01*
X237303397Y35777959D01*
X237539626Y35819613D01*
X237550253Y35822460D01*
X237775660Y35904502D01*
X237785632Y35909152D01*
X237993368Y36029088D01*
X238002381Y36035399D01*
X238186134Y36189587D01*
X238193913Y36197366D01*
X238348101Y36381119D01*
X238354412Y36390132D01*
X238474348Y36597868D01*
X238478998Y36607840D01*
X238561040Y36833247D01*
X238563887Y36843874D01*
X238605541Y37080103D01*
X238606500Y37091064D01*
X238606500Y37330936D01*
X238605541Y37341897D01*
X238563887Y37578126D01*
X238561040Y37588753D01*
X238478998Y37814160D01*
X238474348Y37824132D01*
X238354412Y38031868D01*
X238348101Y38040881D01*
X238193913Y38224634D01*
X238186134Y38232413D01*
X238002381Y38386601D01*
X237993368Y38392912D01*
X237785632Y38512848D01*
X237775660Y38517498D01*
X237550253Y38599540D01*
X237539626Y38602387D01*
X237303397Y38644041D01*
X237292436Y38645000D01*
X237052564Y38645000D01*
X237041603Y38644041D01*
X236805374Y38602387D01*
X236794747Y38599540D01*
X236569340Y38517498D01*
X236559368Y38512848D01*
X236351632Y38392912D01*
X236342619Y38386601D01*
X236158866Y38232413D01*
X236151087Y38224634D01*
X235996899Y38040881D01*
X235990588Y38031868D01*
X235870652Y37824132D01*
X235866002Y37814160D01*
X235783960Y37588753D01*
X235781113Y37578126D01*
X235739459Y37341897D01*
X235738500Y37330936D01*
X232369365Y37330936D01*
X232439766Y37413656D01*
X232445801Y37422054D01*
X232575895Y37638569D01*
X232580477Y37647839D01*
X232673463Y37882694D01*
X232676470Y37892589D01*
X232730011Y38140231D01*
X232731418Y38152031D01*
X232739385Y38477987D01*
X232738556Y38489842D01*
X232697175Y38739803D01*
X232694655Y38749833D01*
X232649253Y38883201D01*
X232651917Y38883201D01*
X232660858Y38883838D01*
X232681464Y38886788D01*
X232757413Y38891501D01*
X232774993Y38895142D01*
X232798140Y38903498D01*
X232822515Y38906989D01*
X232839748Y38912028D01*
X232909035Y38943532D01*
X232980794Y38969437D01*
X232996962Y38978097D01*
X233015931Y38992134D01*
X233038751Y39002509D01*
X233053876Y39012182D01*
X233119856Y39069034D01*
X233137093Y39081789D01*
X233144176Y39087892D01*
X233159333Y39103050D01*
X233219486Y39154881D01*
X233231288Y39168410D01*
X233243438Y39187155D01*
X236738948Y42682664D01*
X236753502Y42691847D01*
X236767174Y42703483D01*
X236823169Y42766885D01*
X236843157Y42786872D01*
X236849030Y42793646D01*
X236861506Y42810293D01*
X236911886Y42867337D01*
X236921743Y42882342D01*
X236932205Y42904625D01*
X236946969Y42924324D01*
X236955590Y42940072D01*
X236982303Y43011330D01*
X237014732Y43080401D01*
X237020040Y43097955D01*
X237023530Y43121305D01*
X237032327Y43144771D01*
X237036181Y43162304D01*
X237042634Y43249131D01*
X237045807Y43270367D01*
X237046500Y43279690D01*
X237046500Y43301154D01*
X237052382Y43380310D01*
X237051161Y43398222D01*
X237046500Y43420056D01*
X237046500Y45160532D01*
X237049881Y45162899D01*
X237233634Y45317087D01*
X237241413Y45324866D01*
X237395601Y45508619D01*
X237401912Y45517632D01*
X237521848Y45725368D01*
X237526498Y45735340D01*
X237608540Y45960747D01*
X237611387Y45971374D01*
X237653041Y46207603D01*
X237654000Y46218564D01*
X237654000Y46458436D01*
X237653041Y46469397D01*
X237629875Y46600779D01*
X238822500Y45408152D01*
X238822501Y39970595D01*
X238818703Y39953810D01*
X238817263Y39935914D01*
X238822501Y39851489D01*
X238822501Y39823221D01*
X238823138Y39814277D01*
X238826088Y39793687D01*
X238830800Y39717728D01*
X238834440Y39700148D01*
X238842799Y39676994D01*
X238846289Y39652622D01*
X238851328Y39635391D01*
X238882826Y39566114D01*
X238908736Y39494344D01*
X238917396Y39478177D01*
X238931436Y39459203D01*
X238941810Y39436387D01*
X238951482Y39421263D01*
X239008327Y39355291D01*
X239021088Y39338046D01*
X239027191Y39330963D01*
X239042357Y39315798D01*
X239094181Y39255653D01*
X239107710Y39243851D01*
X239126452Y39231703D01*
X241475602Y36882551D01*
X241484785Y36867997D01*
X241496421Y36854325D01*
X241559820Y36798333D01*
X241579810Y36778342D01*
X241586584Y36772469D01*
X241603235Y36759990D01*
X241660276Y36709613D01*
X241675282Y36699756D01*
X241697564Y36689294D01*
X241717261Y36674532D01*
X241733009Y36665910D01*
X241804273Y36639195D01*
X241873340Y36606768D01*
X241890895Y36601459D01*
X241914239Y36597971D01*
X241937707Y36589173D01*
X241955241Y36585318D01*
X242042086Y36578864D01*
X242063305Y36575693D01*
X242072628Y36575000D01*
X242094088Y36575000D01*
X242173248Y36569118D01*
X242191159Y36570339D01*
X242212994Y36575000D01*
X243503855Y36575000D01*
X243610588Y36390132D01*
X243616899Y36381119D01*
X243771087Y36197366D01*
X243778866Y36189587D01*
X243962619Y36035399D01*
X243971632Y36029088D01*
X244179368Y35909152D01*
X244189340Y35904502D01*
X244414747Y35822460D01*
X244425374Y35819613D01*
X244661603Y35777959D01*
X244672564Y35777000D01*
X244912436Y35777000D01*
X244923397Y35777959D01*
X245159626Y35819613D01*
X245170253Y35822460D01*
X245395660Y35904502D01*
X245405632Y35909152D01*
X245613368Y36029088D01*
X245622381Y36035399D01*
X245806134Y36189587D01*
X245813913Y36197366D01*
X245968101Y36381119D01*
X245974412Y36390132D01*
X246094348Y36597868D01*
X246098998Y36607840D01*
X246181040Y36833247D01*
X246183887Y36843874D01*
X246225541Y37080103D01*
X246226500Y37091064D01*
X246226500Y37330936D01*
X246225541Y37341897D01*
X246183887Y37578126D01*
X246181040Y37588753D01*
X246098998Y37814160D01*
X246094348Y37824132D01*
X245974412Y38031868D01*
X245968101Y38040881D01*
X245813913Y38224634D01*
X245806134Y38232413D01*
X245622381Y38386601D01*
X245613368Y38392912D01*
X245405632Y38512848D01*
X245395660Y38517498D01*
X245170253Y38599540D01*
X245159626Y38602387D01*
X244923397Y38644041D01*
X244912436Y38645000D01*
X244690945Y38645000D01*
X244726090Y38674490D01*
X244740261Y38691379D01*
X244840859Y38865620D01*
X244848400Y38886337D01*
X244882378Y39079038D01*
X244883337Y39089999D01*
X244883337Y40315436D01*
X245898500Y40315436D01*
X245898500Y40075564D01*
X245899459Y40064603D01*
X245941113Y39828374D01*
X245943960Y39817747D01*
X246026002Y39592340D01*
X246030652Y39582368D01*
X246150588Y39374632D01*
X246156899Y39365619D01*
X246311087Y39181866D01*
X246318866Y39174087D01*
X246502619Y39019899D01*
X246511632Y39013588D01*
X246719368Y38893652D01*
X246729340Y38889002D01*
X246954747Y38806960D01*
X246965374Y38804113D01*
X247201603Y38762459D01*
X247212564Y38761500D01*
X247452436Y38761500D01*
X247463397Y38762459D01*
X247699626Y38804113D01*
X247710253Y38806960D01*
X247935660Y38889002D01*
X247945632Y38893652D01*
X248153368Y39013588D01*
X248162381Y39019899D01*
X248346134Y39174087D01*
X248353913Y39181866D01*
X248508101Y39365619D01*
X248514412Y39374632D01*
X248634348Y39582368D01*
X248638998Y39592340D01*
X248721040Y39817747D01*
X248723887Y39828374D01*
X248765541Y40064603D01*
X248766500Y40075564D01*
X248766500Y40315436D01*
X248765541Y40326397D01*
X248723887Y40562626D01*
X248721040Y40573253D01*
X248638998Y40798660D01*
X248634348Y40808632D01*
X248514412Y41016368D01*
X248508101Y41025381D01*
X248353913Y41209134D01*
X248346134Y41216913D01*
X248162381Y41371101D01*
X248153368Y41377412D01*
X247945632Y41497348D01*
X247935660Y41501998D01*
X247710253Y41584040D01*
X247699626Y41586887D01*
X247463397Y41628541D01*
X247452436Y41629500D01*
X247212564Y41629500D01*
X247201603Y41628541D01*
X246965374Y41586887D01*
X246954747Y41584040D01*
X246729340Y41501998D01*
X246719368Y41497348D01*
X246511632Y41377412D01*
X246502619Y41371101D01*
X246318866Y41216913D01*
X246311087Y41209134D01*
X246156899Y41025381D01*
X246150588Y41016368D01*
X246030652Y40808632D01*
X246026002Y40798660D01*
X245943960Y40573253D01*
X245941113Y40562626D01*
X245899459Y40326397D01*
X245898500Y40315436D01*
X244883337Y40315436D01*
X244883337Y41303758D01*
X244881181Y41320134D01*
X244806363Y41599359D01*
X244793620Y41623839D01*
X244662510Y41780090D01*
X244645621Y41794261D01*
X244471380Y41894859D01*
X244450663Y41902400D01*
X244257962Y41936378D01*
X244247001Y41937337D01*
X242033242Y41937337D01*
X242016866Y41935181D01*
X241737642Y41860363D01*
X241713162Y41847620D01*
X241556910Y41716510D01*
X241542739Y41699621D01*
X241442141Y41525380D01*
X241434600Y41504663D01*
X241400622Y41311962D01*
X241399663Y41301001D01*
X241399663Y39296182D01*
X240475500Y40220345D01*
X240475500Y44104656D01*
X245366677Y44104656D01*
X245382897Y43981447D01*
X245616368Y43846652D01*
X245626340Y43842002D01*
X245851747Y43759960D01*
X245862374Y43757113D01*
X246098603Y43715459D01*
X246109564Y43714500D01*
X246349436Y43714500D01*
X246360397Y43715459D01*
X246596626Y43757113D01*
X246607253Y43759960D01*
X246832660Y43842002D01*
X246842632Y43846652D01*
X247076103Y43981447D01*
X247092323Y44104656D01*
X246281691Y44915290D01*
X246177309Y44915290D01*
X245366677Y44104656D01*
X240475500Y44104656D01*
X240475500Y45268436D01*
X244795500Y45268436D01*
X244795500Y45028564D01*
X244796459Y45017603D01*
X244838113Y44781374D01*
X244840960Y44770747D01*
X244923002Y44545340D01*
X244927652Y44535368D01*
X245062447Y44301897D01*
X245185656Y44285677D01*
X245996290Y45096309D01*
X245996290Y45200691D01*
X245185656Y46011323D01*
X245062447Y45995103D01*
X244927652Y45761632D01*
X244923002Y45751660D01*
X244840960Y45526253D01*
X244838113Y45515626D01*
X244796459Y45279397D01*
X244795500Y45268436D01*
X240475500Y45268436D01*
X240475500Y45657910D01*
X240479297Y45674691D01*
X240480737Y45692586D01*
X240475500Y45776995D01*
X240475500Y45805278D01*
X240474863Y45814220D01*
X240471912Y45834826D01*
X240467200Y45910775D01*
X240463560Y45928354D01*
X240455202Y45951507D01*
X240451712Y45975877D01*
X240446673Y45993109D01*
X240415169Y46062398D01*
X240389264Y46134157D01*
X240380604Y46150324D01*
X240366565Y46169296D01*
X240356192Y46192112D01*
X240356044Y46192344D01*
X245366677Y46192344D01*
X246177309Y45381710D01*
X246281691Y45381710D01*
X247092323Y46192344D01*
X247076103Y46315553D01*
X246842632Y46450348D01*
X246832660Y46454998D01*
X246607253Y46537040D01*
X246596626Y46539887D01*
X246360397Y46581541D01*
X246349436Y46582500D01*
X246109564Y46582500D01*
X246098603Y46581541D01*
X245862374Y46539887D01*
X245851747Y46537040D01*
X245626340Y46454998D01*
X245616368Y46450348D01*
X245382897Y46315553D01*
X245366677Y46192344D01*
X240356044Y46192344D01*
X240346519Y46207238D01*
X240289677Y46273205D01*
X240276913Y46290454D01*
X240270809Y46297538D01*
X240255640Y46312706D01*
X240203818Y46372847D01*
X240190290Y46384649D01*
X240171552Y46396794D01*
X237616560Y48951786D01*
X237636541Y49065103D01*
X237637500Y49076064D01*
X237637500Y49315936D01*
X237636541Y49326897D01*
X237594887Y49563126D01*
X237592040Y49573753D01*
X237509998Y49799160D01*
X237505348Y49809132D01*
X237385412Y50016868D01*
X237379101Y50025881D01*
X237224913Y50209634D01*
X237217134Y50217413D01*
X237033381Y50371601D01*
X237024368Y50377912D01*
X236816632Y50497848D01*
X236806660Y50502498D01*
X236581253Y50584540D01*
X236570626Y50587387D01*
X236334397Y50629041D01*
X236323436Y50630000D01*
X236083564Y50630000D01*
X236072603Y50629041D01*
X235836374Y50587387D01*
X235825747Y50584540D01*
X235600340Y50502498D01*
X235590368Y50497848D01*
X235382632Y50377912D01*
X235373619Y50371601D01*
X235189866Y50217413D01*
X235182087Y50209634D01*
X235027899Y50025881D01*
X235021588Y50016868D01*
X234901652Y49809132D01*
X234897002Y49799160D01*
X234814960Y49573753D01*
X234812113Y49563126D01*
X234770459Y49326897D01*
X234769500Y49315936D01*
X234769500Y49076064D01*
X234770459Y49065103D01*
X234812113Y48828874D01*
X234814960Y48818247D01*
X234897002Y48592840D01*
X234901652Y48582868D01*
X235021588Y48375132D01*
X235027899Y48366119D01*
X235182087Y48182366D01*
X235189866Y48174587D01*
X235373619Y48020399D01*
X235382632Y48014088D01*
X235590368Y47894152D01*
X235600340Y47889502D01*
X235825747Y47807460D01*
X235836374Y47804613D01*
X236056518Y47765795D01*
X235852874Y47729887D01*
X235842247Y47727040D01*
X235616840Y47644998D01*
X235606868Y47640348D01*
X235399132Y47520412D01*
X235390119Y47514101D01*
X235206366Y47359913D01*
X235198587Y47352134D01*
X235044399Y47168381D01*
X235038088Y47159368D01*
X234918152Y46951632D01*
X234913502Y46941660D01*
X234831460Y46716253D01*
X234828613Y46705626D01*
X234786959Y46469397D01*
X234786000Y46458436D01*
X234786000Y46218564D01*
X234786959Y46207603D01*
X234828613Y45971374D01*
X234831460Y45960747D01*
X234913502Y45735340D01*
X234918152Y45725368D01*
X235038088Y45517632D01*
X235044399Y45508619D01*
X235198587Y45324866D01*
X235206366Y45317087D01*
X235390119Y45162899D01*
X235393501Y45160531D01*
X235393500Y43674908D01*
X235153038Y43434446D01*
X235149130Y43443434D01*
X235029767Y43666045D01*
X235024149Y43674729D01*
X234870031Y43874854D01*
X234863072Y43882503D01*
X234678337Y44054771D01*
X234670221Y44061181D01*
X234459832Y44200964D01*
X234450778Y44205962D01*
X234220383Y44309505D01*
X234210634Y44312957D01*
X233966423Y44377481D01*
X233956242Y44379294D01*
X233704770Y44403065D01*
X233694429Y44403192D01*
X233442451Y44385571D01*
X233432229Y44384007D01*
X233186513Y44325469D01*
X233176683Y44322257D01*
X232943827Y44224373D01*
X232934654Y44219598D01*
X232720912Y44084997D01*
X232712642Y44078788D01*
X232523754Y43911086D01*
X232516609Y43903609D01*
X232409627Y43771497D01*
X232330031Y43874854D01*
X232323072Y43882503D01*
X232138337Y44054771D01*
X232130221Y44061181D01*
X231919832Y44200964D01*
X231910778Y44205962D01*
X231680383Y44309505D01*
X231670634Y44312957D01*
X231426423Y44377481D01*
X231416242Y44379294D01*
X231164770Y44403065D01*
X231154429Y44403192D01*
X230902451Y44385571D01*
X230892229Y44384007D01*
X230646513Y44325469D01*
X230636683Y44322257D01*
X230403827Y44224373D01*
X230394654Y44219598D01*
X230180912Y44084997D01*
X230172642Y44078788D01*
X229983754Y43911086D01*
X229976609Y43903609D01*
X229869627Y43771497D01*
X229790031Y43874854D01*
X229783072Y43882503D01*
X229598337Y44054771D01*
X229590221Y44061181D01*
X229379832Y44200964D01*
X229370778Y44205962D01*
X229140383Y44309505D01*
X229130634Y44312957D01*
X228886423Y44377481D01*
X228876242Y44379294D01*
X228624770Y44403065D01*
X228614429Y44403192D01*
X228362451Y44385571D01*
X228352229Y44384007D01*
X228106513Y44325469D01*
X228096683Y44322257D01*
X227863827Y44224373D01*
X227854654Y44219598D01*
X227640912Y44084997D01*
X227632642Y44078788D01*
X227595923Y44046188D01*
X227590063Y44068059D01*
X227577320Y44092539D01*
X227446210Y44248790D01*
X227429321Y44262961D01*
X227255080Y44363559D01*
X227234363Y44371100D01*
X227041662Y44405078D01*
X227030701Y44406037D01*
X225086542Y44406037D01*
X225070166Y44403881D01*
X224790942Y44329063D01*
X224766462Y44316320D01*
X224610210Y44185210D01*
X224596039Y44168321D01*
X224495441Y43994080D01*
X224487900Y43973363D01*
X224453922Y43780662D01*
X224452963Y43769701D01*
X224452963Y42360809D01*
X223138000Y41045845D01*
X223138000Y48557501D01*
X224745163Y48557501D01*
X224745163Y46943742D01*
X224747319Y46927366D01*
X224822137Y46648142D01*
X224834880Y46623662D01*
X224965990Y46467410D01*
X224982879Y46453239D01*
X225157120Y46352641D01*
X225177837Y46345100D01*
X225370538Y46311122D01*
X225381499Y46310163D01*
X226995258Y46310163D01*
X227011634Y46312319D01*
X227290859Y46387137D01*
X227315339Y46399880D01*
X227471590Y46530990D01*
X227485761Y46547879D01*
X227578296Y46708156D01*
X227824177Y46708156D01*
X227840397Y46584947D01*
X228073868Y46450152D01*
X228083840Y46445502D01*
X228309247Y46363460D01*
X228319874Y46360613D01*
X228556103Y46318959D01*
X228567064Y46318000D01*
X228806936Y46318000D01*
X228817897Y46318959D01*
X229054126Y46360613D01*
X229064753Y46363460D01*
X229290160Y46445502D01*
X229300132Y46450152D01*
X229533603Y46584947D01*
X229549823Y46708156D01*
X228739191Y47518790D01*
X228634809Y47518790D01*
X227824177Y46708156D01*
X227578296Y46708156D01*
X227586359Y46722120D01*
X227593900Y46742837D01*
X227620235Y46892194D01*
X227643156Y46889177D01*
X228453790Y47699809D01*
X228453790Y47804191D01*
X228920210Y47804191D01*
X228920210Y47699809D01*
X229730844Y46889177D01*
X229854053Y46905397D01*
X229988848Y47138868D01*
X229993498Y47148840D01*
X230075540Y47374247D01*
X230078387Y47384874D01*
X230120041Y47621103D01*
X230121000Y47632064D01*
X230121000Y47871936D01*
X230120041Y47882897D01*
X230078387Y48119126D01*
X230075540Y48129753D01*
X229993498Y48355160D01*
X229988848Y48365132D01*
X229854053Y48598603D01*
X229730844Y48614823D01*
X228920210Y47804191D01*
X228453790Y47804191D01*
X227643156Y48614823D01*
X227617358Y48611427D01*
X227567944Y48795844D01*
X227824177Y48795844D01*
X228634809Y47985210D01*
X228739191Y47985210D01*
X229549823Y48795844D01*
X229533603Y48919053D01*
X229300132Y49053848D01*
X229290160Y49058498D01*
X229064753Y49140540D01*
X229054126Y49143387D01*
X228817897Y49185041D01*
X228806936Y49186000D01*
X228567064Y49186000D01*
X228556103Y49185041D01*
X228319874Y49143387D01*
X228309247Y49140540D01*
X228083840Y49058498D01*
X228073868Y49053848D01*
X227840397Y48919053D01*
X227824177Y48795844D01*
X227567944Y48795844D01*
X227551863Y48855859D01*
X227539120Y48880339D01*
X227408010Y49036590D01*
X227391121Y49050761D01*
X227216880Y49151359D01*
X227196163Y49158900D01*
X227003462Y49192878D01*
X226992501Y49193837D01*
X225378742Y49193837D01*
X225362366Y49191681D01*
X225083142Y49116863D01*
X225058662Y49104120D01*
X224902410Y48973010D01*
X224888239Y48956121D01*
X224787641Y48781880D01*
X224780100Y48761163D01*
X224746122Y48568462D01*
X224745163Y48557501D01*
X223138000Y48557501D01*
X223138000Y49315936D01*
X229769500Y49315936D01*
X229769500Y49076064D01*
X229770459Y49065103D01*
X229812113Y48828874D01*
X229814960Y48818247D01*
X229897002Y48592840D01*
X229901652Y48582868D01*
X230021588Y48375132D01*
X230027899Y48366119D01*
X230182087Y48182366D01*
X230189866Y48174587D01*
X230373619Y48020399D01*
X230382632Y48014088D01*
X230590368Y47894152D01*
X230600340Y47889502D01*
X230825747Y47807460D01*
X230836374Y47804613D01*
X231056518Y47765795D01*
X230852874Y47729887D01*
X230842247Y47727040D01*
X230616840Y47644998D01*
X230606868Y47640348D01*
X230399132Y47520412D01*
X230390119Y47514101D01*
X230206366Y47359913D01*
X230198587Y47352134D01*
X230044399Y47168381D01*
X230038088Y47159368D01*
X229918152Y46951632D01*
X229913502Y46941660D01*
X229831460Y46716253D01*
X229828613Y46705626D01*
X229786959Y46469397D01*
X229786000Y46458436D01*
X229786000Y46218564D01*
X229786959Y46207603D01*
X229828613Y45971374D01*
X229831460Y45960747D01*
X229913502Y45735340D01*
X229918152Y45725368D01*
X230038088Y45517632D01*
X230044399Y45508619D01*
X230198587Y45324866D01*
X230206366Y45317087D01*
X230390119Y45162899D01*
X230399132Y45156588D01*
X230606868Y45036652D01*
X230616840Y45032002D01*
X230842247Y44949960D01*
X230852874Y44947113D01*
X231089103Y44905459D01*
X231100064Y44904500D01*
X231339936Y44904500D01*
X231350897Y44905459D01*
X231587126Y44947113D01*
X231597753Y44949960D01*
X231823160Y45032002D01*
X231833132Y45036652D01*
X232040868Y45156588D01*
X232049881Y45162899D01*
X232233634Y45317087D01*
X232241413Y45324866D01*
X232395601Y45508619D01*
X232401912Y45517632D01*
X232521848Y45725368D01*
X232526498Y45735340D01*
X232608540Y45960747D01*
X232611387Y45971374D01*
X232653041Y46207603D01*
X232654000Y46218564D01*
X232654000Y46458436D01*
X232653041Y46469397D01*
X232611387Y46705626D01*
X232608540Y46716253D01*
X232526498Y46941660D01*
X232521848Y46951632D01*
X232401912Y47159368D01*
X232395601Y47168381D01*
X232241413Y47352134D01*
X232233634Y47359913D01*
X232049881Y47514101D01*
X232040868Y47520412D01*
X231833132Y47640348D01*
X231823160Y47644998D01*
X231597753Y47727040D01*
X231587126Y47729887D01*
X231366982Y47768705D01*
X231570626Y47804613D01*
X231581253Y47807460D01*
X231806660Y47889502D01*
X231816632Y47894152D01*
X232024368Y48014088D01*
X232033381Y48020399D01*
X232217134Y48174587D01*
X232224913Y48182366D01*
X232379101Y48366119D01*
X232385412Y48375132D01*
X232505348Y48582868D01*
X232509998Y48592840D01*
X232592040Y48818247D01*
X232594887Y48828874D01*
X232636541Y49065103D01*
X232637500Y49076064D01*
X232637500Y49315936D01*
X232636541Y49326897D01*
X232594887Y49563126D01*
X232592040Y49573753D01*
X232509998Y49799160D01*
X232505348Y49809132D01*
X232385412Y50016868D01*
X232379101Y50025881D01*
X232224913Y50209634D01*
X232217134Y50217413D01*
X232033381Y50371601D01*
X232024368Y50377912D01*
X231816632Y50497848D01*
X231806660Y50502498D01*
X231581253Y50584540D01*
X231570626Y50587387D01*
X231334397Y50629041D01*
X231323436Y50630000D01*
X231083564Y50630000D01*
X231072603Y50629041D01*
X230836374Y50587387D01*
X230825747Y50584540D01*
X230600340Y50502498D01*
X230590368Y50497848D01*
X230382632Y50377912D01*
X230373619Y50371601D01*
X230189866Y50217413D01*
X230182087Y50209634D01*
X230027899Y50025881D01*
X230021588Y50016868D01*
X229901652Y49809132D01*
X229897002Y49799160D01*
X229814960Y49573753D01*
X229812113Y49563126D01*
X229770459Y49326897D01*
X229769500Y49315936D01*
X223138000Y49315936D01*
X223138000Y51082532D01*
X223143632Y51078588D01*
X223351368Y50958652D01*
X223361340Y50954002D01*
X223586747Y50871960D01*
X223597374Y50869113D01*
X223833603Y50827459D01*
X223844564Y50826500D01*
X224084436Y50826500D01*
X224095397Y50827459D01*
X224331626Y50869113D01*
X224342253Y50871960D01*
X224567660Y50954002D01*
X224577632Y50958652D01*
X224785368Y51078588D01*
X224794381Y51084899D01*
X224978134Y51239087D01*
X224985913Y51246866D01*
X225140101Y51430619D01*
X225146412Y51439632D01*
X225266348Y51647368D01*
X225270998Y51657340D01*
X225353040Y51882747D01*
X225355887Y51893374D01*
X225382179Y52042482D01*
X230166820Y52042482D01*
X230193113Y51893374D01*
X230195960Y51882747D01*
X230278002Y51657340D01*
X230282652Y51647368D01*
X230402588Y51439632D01*
X230408899Y51430619D01*
X230563087Y51246866D01*
X230570866Y51239087D01*
X230754619Y51084899D01*
X230763632Y51078588D01*
X230971368Y50958652D01*
X230981340Y50954002D01*
X231206747Y50871960D01*
X231217374Y50869113D01*
X231366482Y50842820D01*
X231456500Y50918354D01*
X231456500Y52058691D01*
X231382691Y52132500D01*
X230242354Y52132500D01*
X230166820Y52042482D01*
X225382179Y52042482D01*
X225397541Y52129603D01*
X225398500Y52140564D01*
X225398500Y52380436D01*
X225397541Y52391397D01*
X225355887Y52627626D01*
X225353040Y52638253D01*
X225270998Y52863660D01*
X225266348Y52873632D01*
X225146412Y53081368D01*
X225140101Y53090381D01*
X224985913Y53274134D01*
X224978134Y53281913D01*
X224794381Y53436101D01*
X224785368Y53442412D01*
X224741048Y53468000D01*
X230807952Y53468000D01*
X230763632Y53442412D01*
G37*
D22*
X230763632Y53442412D02*
X230754619Y53436101D01*
X230570866Y53281913D01*
X230563087Y53274134D01*
X230408899Y53090381D01*
X230402588Y53081368D01*
X230282652Y52873632D01*
X230278002Y52863660D01*
X230195960Y52638253D01*
X230193113Y52627626D01*
X230166820Y52478518D01*
X230242354Y52388500D01*
X231712500Y52388500D01*
X231712500Y50918354D01*
X231802518Y50842820D01*
X231951626Y50869113D01*
X231962253Y50871960D01*
X232187660Y50954002D01*
X232197632Y50958652D01*
X232405368Y51078588D01*
X232414381Y51084899D01*
X232598134Y51239087D01*
X232605913Y51246866D01*
X232664000Y51316091D01*
X232722087Y51246866D01*
X232729866Y51239087D01*
X232913619Y51084899D01*
X232922632Y51078588D01*
X233130368Y50958652D01*
X233140340Y50954002D01*
X233365747Y50871960D01*
X233376374Y50869113D01*
X233612603Y50827459D01*
X233623564Y50826500D01*
X233863436Y50826500D01*
X233874397Y50827459D01*
X234110626Y50869113D01*
X234121253Y50871960D01*
X234346660Y50954002D01*
X234356632Y50958652D01*
X234564368Y51078588D01*
X234573381Y51084899D01*
X234757134Y51239087D01*
X234764913Y51246866D01*
X234919101Y51430619D01*
X234925412Y51439632D01*
X235045348Y51647368D01*
X235049998Y51657340D01*
X235132040Y51882747D01*
X235134887Y51893374D01*
X235176541Y52129603D01*
X235177500Y52140564D01*
X235177500Y52380436D01*
X235176541Y52391397D01*
X235134887Y52627626D01*
X235132040Y52638253D01*
X235049998Y52863660D01*
X235045348Y52873632D01*
X234925412Y53081368D01*
X234919101Y53090381D01*
X234764913Y53274134D01*
X234757134Y53281913D01*
X234573381Y53436101D01*
X234564368Y53442412D01*
X234520048Y53468000D01*
X240586952Y53468000D01*
X240542632Y53442412D01*
X240533619Y53436101D01*
X240349866Y53281913D01*
X240342087Y53274134D01*
X240187899Y53090381D01*
X240181588Y53081368D01*
X240061652Y52873632D01*
X240057002Y52863660D01*
X239974960Y52638253D01*
X239972113Y52627626D01*
X239930459Y52391397D01*
X239929500Y52380436D01*
X239929500Y52140564D01*
X239930459Y52129603D01*
X239972113Y51893374D01*
X239974960Y51882747D01*
X240057002Y51657340D01*
X240061652Y51647368D01*
X240181588Y51439632D01*
X240187899Y51430619D01*
X240342087Y51246866D01*
X240349866Y51239087D01*
X240533619Y51084899D01*
X240542632Y51078588D01*
X240750368Y50958652D01*
X240760340Y50954002D01*
X240985747Y50871960D01*
X240996374Y50869113D01*
X241232603Y50827459D01*
X241243564Y50826500D01*
X241471302Y50826500D01*
X241451732Y50766269D01*
X241449421Y50756641D01*
X241408277Y50496873D01*
X241407500Y50487003D01*
X241407500Y50223997D01*
X241408277Y50214127D01*
X241449421Y49954359D01*
X241451732Y49944731D01*
X241533005Y49694598D01*
X241536794Y49685450D01*
X241656196Y49451110D01*
X241661369Y49442668D01*
X241815960Y49229892D01*
X241822390Y49222363D01*
X242008363Y49036390D01*
X242015892Y49029960D01*
X242228668Y48875369D01*
X242237110Y48870196D01*
X242471450Y48750794D01*
X242480598Y48747005D01*
X242730731Y48665732D01*
X242740359Y48663421D01*
X243000127Y48622277D01*
X243009997Y48621500D01*
X243273003Y48621500D01*
X243282873Y48622277D01*
X243542641Y48663421D01*
X243552269Y48665732D01*
X243802402Y48747005D01*
X243811550Y48750794D01*
X244045890Y48870196D01*
X244054332Y48875369D01*
X244267108Y49029960D01*
X244274637Y49036390D01*
X244460610Y49222363D01*
X244467040Y49229892D01*
X244621631Y49442668D01*
X244626804Y49451110D01*
X244746206Y49685450D01*
X244749995Y49694598D01*
X244771945Y49762152D01*
X247903000Y46631096D01*
X247903000Y46587681D01*
X247625642Y46513363D01*
X247601162Y46500620D01*
X247444910Y46369510D01*
X247430739Y46352621D01*
X247330141Y46178380D01*
X247322600Y46157663D01*
X247296265Y46008306D01*
X247273344Y46011323D01*
X246462710Y45200691D01*
X246462710Y45096309D01*
X247273344Y44285677D01*
X247299142Y44289073D01*
X247364637Y44044642D01*
X247377380Y44020162D01*
X247508490Y43863910D01*
X247525379Y43849739D01*
X247699620Y43749141D01*
X247720337Y43741600D01*
X247913038Y43707622D01*
X247923999Y43706663D01*
X249537758Y43706663D01*
X249554134Y43708819D01*
X249833359Y43783637D01*
X249857839Y43796380D01*
X250014090Y43927490D01*
X250028261Y43944379D01*
X250064000Y44006281D01*
X250064001Y25018000D01*
X242534526Y25018000D01*
X242599766Y25094656D01*
X242605801Y25103054D01*
X242735895Y25319569D01*
X242740477Y25328839D01*
X242833463Y25563694D01*
X242836470Y25573589D01*
X242890011Y25821231D01*
X242891418Y25833031D01*
X242899385Y26158987D01*
X242898556Y26170842D01*
X242857175Y26420803D01*
X242854655Y26430833D01*
X242773253Y26669950D01*
X242769130Y26679434D01*
X242649767Y26902045D01*
X242644149Y26910729D01*
X242490031Y27110854D01*
X242483072Y27118503D01*
X242298337Y27290771D01*
X242290221Y27297181D01*
X242079832Y27436964D01*
X242070778Y27441962D01*
X241840383Y27545505D01*
X241830634Y27548957D01*
X241586423Y27613481D01*
X241576242Y27615294D01*
X241324770Y27639065D01*
X241314429Y27639192D01*
X241062451Y27621571D01*
X241052229Y27620007D01*
X240916237Y27587609D01*
X239190263Y29313582D01*
X239292121Y29501180D01*
X239295961Y29509705D01*
X239389544Y29766824D01*
X239392082Y29775823D01*
X239446798Y30044758D01*
X239448044Y30055690D01*
X239448881Y30087691D01*
X240721664Y30087691D01*
X240721664Y29011241D01*
X240723820Y28994865D01*
X240798638Y28715641D01*
X240811381Y28691161D01*
X240942491Y28534909D01*
X240959380Y28520738D01*
X241133621Y28420140D01*
X241154338Y28412599D01*
X241347039Y28378621D01*
X241358000Y28377662D01*
X242431692Y28377662D01*
X242505501Y28451471D01*
X242761500Y28451471D01*
X242835309Y28377662D01*
X243911759Y28377662D01*
X243928135Y28379818D01*
X244007191Y28401001D01*
X244393663Y28401001D01*
X244393663Y26587242D01*
X244395819Y26570866D01*
X244470637Y26291642D01*
X244483380Y26267162D01*
X244614490Y26110910D01*
X244631379Y26096739D01*
X244805620Y25996141D01*
X244826337Y25988600D01*
X245019038Y25954622D01*
X245029999Y25953663D01*
X246843758Y25953663D01*
X246860134Y25955819D01*
X247139359Y26030637D01*
X247163839Y26043380D01*
X247320090Y26174490D01*
X247334261Y26191379D01*
X247433721Y26363650D01*
X247440687Y26356206D01*
X247448612Y26349058D01*
X247647441Y26198139D01*
X247656457Y26192429D01*
X247877871Y26077168D01*
X247887720Y26073058D01*
X248125389Y25996751D01*
X248135790Y25994360D01*
X248382917Y25959188D01*
X248393572Y25958583D01*
X248643093Y25965552D01*
X248653698Y25966751D01*
X248898477Y26015663D01*
X248908728Y26018632D01*
X249141767Y26108087D01*
X249151371Y26112740D01*
X249366006Y26240181D01*
X249374688Y26246386D01*
X249564783Y26408169D01*
X249572296Y26415748D01*
X249732414Y26607246D01*
X249738542Y26615983D01*
X249864106Y26831721D01*
X249868675Y26841366D01*
X249956093Y27075177D01*
X249958971Y27085454D01*
X250005802Y27330947D01*
X250006917Y27342170D01*
X250009578Y27619402D01*
X250008679Y27630644D01*
X249966570Y27876992D01*
X249963889Y27887322D01*
X249880976Y28122768D01*
X249876592Y28132499D01*
X249755194Y28350608D01*
X249749234Y28359461D01*
X249592822Y28553998D01*
X249585456Y28561720D01*
X249398503Y28727122D01*
X249389940Y28733493D01*
X249177791Y28865030D01*
X249168278Y28869867D01*
X248937000Y28963779D01*
X248926808Y28966944D01*
X248683013Y29020546D01*
X248672434Y29021948D01*
X248423092Y29033706D01*
X248412428Y29033306D01*
X248164670Y29002886D01*
X248154225Y29000694D01*
X247915135Y28928963D01*
X247905209Y28925043D01*
X247681623Y28814054D01*
X247672500Y28808518D01*
X247470811Y28661444D01*
X247462750Y28654449D01*
X247423274Y28613855D01*
X247400363Y28699359D01*
X247387620Y28723839D01*
X247256510Y28880090D01*
X247239621Y28894261D01*
X247065380Y28994859D01*
X247044663Y29002400D01*
X246851962Y29036378D01*
X246841001Y29037337D01*
X245027242Y29037337D01*
X245010866Y29035181D01*
X244731642Y28960363D01*
X244707162Y28947620D01*
X244550910Y28816510D01*
X244536739Y28799621D01*
X244436141Y28625380D01*
X244428600Y28604663D01*
X244394622Y28411962D01*
X244393663Y28401001D01*
X244007191Y28401001D01*
X244207360Y28454636D01*
X244231840Y28467379D01*
X244388091Y28598489D01*
X244402262Y28615378D01*
X244502860Y28789619D01*
X244510401Y28810336D01*
X244544379Y29003037D01*
X244545338Y29013998D01*
X244545338Y30087690D01*
X244471529Y30161499D01*
X242835310Y30161500D01*
X242761501Y30087691D01*
X242761500Y28451471D01*
X242505501Y28451471D01*
X242505502Y30087690D01*
X242431693Y30161499D01*
X240795473Y30161500D01*
X240721664Y30087691D01*
X239448881Y30087691D01*
X239457684Y30423834D01*
X239457012Y30434816D01*
X239416447Y30706247D01*
X239414383Y30715367D01*
X239334384Y30977031D01*
X239330995Y30985746D01*
X239213199Y31232710D01*
X239208559Y31240828D01*
X239055553Y31467668D01*
X239049765Y31475011D01*
X238967306Y31565000D01*
X240721664Y31565000D01*
X240721664Y30491308D01*
X240795473Y30417499D01*
X242431692Y30417498D01*
X242505501Y30491307D01*
X242505501Y30491308D01*
X242761500Y30491308D01*
X242835309Y30417499D01*
X244471529Y30417498D01*
X244545338Y30491307D01*
X244545338Y31567757D01*
X244543182Y31584133D01*
X244468364Y31863358D01*
X244455621Y31887838D01*
X244324511Y32044089D01*
X244307622Y32058260D01*
X244133381Y32158858D01*
X244112664Y32166399D01*
X243919963Y32200377D01*
X243909002Y32201336D01*
X242835310Y32201336D01*
X242761501Y32127527D01*
X242761500Y30491308D01*
X242505501Y30491308D01*
X242505502Y32127527D01*
X242431693Y32201336D01*
X241355243Y32201336D01*
X241338867Y32199180D01*
X241059643Y32124362D01*
X241035163Y32111619D01*
X240878911Y31980509D01*
X240864740Y31963620D01*
X240764142Y31789379D01*
X240756601Y31768662D01*
X240722623Y31575961D01*
X240721664Y31565000D01*
X238967306Y31565000D01*
X238864911Y31676745D01*
X238858100Y31683152D01*
X238645458Y31855346D01*
X238637775Y31860675D01*
X238402016Y31999548D01*
X238393630Y32003684D01*
X238139934Y32106183D01*
X238131029Y32109033D01*
X237864971Y32172909D01*
X237855742Y32174412D01*
X237583164Y32198259D01*
X237573814Y32198381D01*
X237300705Y32181678D01*
X237291440Y32180417D01*
X237023800Y32123528D01*
X237014823Y32120911D01*
X236758532Y32025088D01*
X236750040Y32021174D01*
X236510727Y31888520D01*
X236502907Y31883394D01*
X236285831Y31716824D01*
X236278855Y31710598D01*
X236088783Y31513773D01*
X236082804Y31506584D01*
X235923913Y31283826D01*
X235919062Y31275832D01*
X235794842Y31032036D01*
X235791226Y31023413D01*
X235704405Y30763934D01*
X235702103Y30754871D01*
X235654589Y30485409D01*
X235653653Y30476105D01*
X235646490Y30202580D01*
X235646938Y30193240D01*
X235680285Y29921660D01*
X235682109Y29912489D01*
X235755230Y29648822D01*
X235758390Y29640021D01*
X235869681Y29390057D01*
X235874107Y29381820D01*
X236021122Y29151052D01*
X236026716Y29143560D01*
X236206227Y28937057D01*
X236212868Y28930474D01*
X236420930Y28752772D01*
X236428470Y28747243D01*
X236660512Y28602247D01*
X236668787Y28597894D01*
X236919713Y28488788D01*
X236928541Y28485705D01*
X237192836Y28414888D01*
X237202022Y28413144D01*
X237473883Y28382170D01*
X237483226Y28381803D01*
X237756678Y28391351D01*
X237765974Y28392369D01*
X237772564Y28393590D01*
X238543136Y27623018D01*
X238522451Y27621571D01*
X238512229Y27620007D01*
X238266513Y27561469D01*
X238256683Y27558257D01*
X238023827Y27460373D01*
X238014654Y27455598D01*
X237800912Y27320997D01*
X237792642Y27314788D01*
X237603754Y27147086D01*
X237596609Y27139609D01*
X237489627Y27007497D01*
X237410031Y27110854D01*
X237403072Y27118503D01*
X237218337Y27290771D01*
X237210221Y27297181D01*
X236999832Y27436964D01*
X236990778Y27441962D01*
X236760383Y27545505D01*
X236750634Y27548957D01*
X236506423Y27613481D01*
X236496242Y27615294D01*
X236430402Y27621518D01*
X236348000Y27546539D01*
X236348000Y25907000D01*
X236092000Y25907000D01*
X236092000Y27550043D01*
X235996184Y27625714D01*
X235726513Y27561469D01*
X235716683Y27558257D01*
X235483827Y27460373D01*
X235474654Y27455598D01*
X235260912Y27320997D01*
X235252642Y27314788D01*
X235215923Y27282188D01*
X235210063Y27304059D01*
X235197320Y27328539D01*
X235066210Y27484790D01*
X235049321Y27498961D01*
X234875080Y27599559D01*
X234854363Y27607100D01*
X234661662Y27641078D01*
X234650701Y27642037D01*
X232706542Y27642037D01*
X232690166Y27639881D01*
X232410942Y27565063D01*
X232386462Y27552320D01*
X232230210Y27421210D01*
X232216039Y27404321D01*
X232159369Y27306166D01*
X232096881Y27358600D01*
X232087868Y27364911D01*
X231880132Y27484847D01*
X231870160Y27489497D01*
X231644753Y27571539D01*
X231634126Y27574386D01*
X231397897Y27616040D01*
X231386936Y27616999D01*
X231147064Y27616999D01*
X231136103Y27616040D01*
X230899874Y27574386D01*
X230889247Y27571539D01*
X230663840Y27489497D01*
X230653868Y27484847D01*
X230446132Y27364911D01*
X230437119Y27358600D01*
X230253366Y27204412D01*
X230245587Y27196633D01*
X230091399Y27012880D01*
X230085088Y27003867D01*
X229965152Y26796131D01*
X229960502Y26786159D01*
X229878460Y26560752D01*
X229875613Y26550125D01*
X229833959Y26313896D01*
X229833000Y26302935D01*
X229833000Y26063063D01*
X229833959Y26052102D01*
X229875613Y25815873D01*
X229878460Y25805246D01*
X229960502Y25579839D01*
X229965152Y25569867D01*
X230085088Y25362131D01*
X230091399Y25353118D01*
X230245587Y25169365D01*
X230253366Y25161586D01*
X230424484Y25018000D01*
X224489516Y25018000D01*
X224660634Y25161586D01*
X224668413Y25169365D01*
X224822601Y25353118D01*
X224828912Y25362131D01*
X224948848Y25569867D01*
X224953498Y25579839D01*
X225035540Y25805246D01*
X225038387Y25815873D01*
X225064680Y25964981D01*
X224989146Y26054999D01*
X223848808Y26055000D01*
X223848807Y26054999D01*
X223519000Y26055000D01*
X223519000Y26384808D01*
X223774999Y26384808D01*
X223848808Y26310999D01*
X224989146Y26310998D01*
X225064679Y26401016D01*
X225038387Y26550124D01*
X225035540Y26560752D01*
X224953498Y26786159D01*
X224948848Y26796131D01*
X224828912Y27003867D01*
X224822601Y27012880D01*
X224668413Y27196633D01*
X224660634Y27204412D01*
X224476881Y27358600D01*
X224467868Y27364911D01*
X224260132Y27484847D01*
X224250160Y27489497D01*
X224024753Y27571539D01*
X224014126Y27574386D01*
X223865018Y27600679D01*
X223775000Y27525145D01*
X223774999Y26384808D01*
X223519000Y26384808D01*
X223519001Y27525145D01*
X223428983Y27600678D01*
X223279875Y27574386D01*
X223269247Y27571539D01*
X223138000Y27523769D01*
X223138000Y31933436D01*
X223165500Y31933436D01*
X223165500Y31693564D01*
X223166459Y31682603D01*
X223208113Y31446374D01*
X223210960Y31435747D01*
X223293002Y31210340D01*
X223297652Y31200368D01*
X223417588Y30992632D01*
X223423899Y30983619D01*
X223578087Y30799866D01*
X223585866Y30792087D01*
X223769619Y30637899D01*
X223778632Y30631588D01*
X223986368Y30511652D01*
X223996340Y30507002D01*
X224166009Y30445247D01*
X224012840Y30389498D01*
X224002868Y30384848D01*
X223795132Y30264912D01*
X223786119Y30258601D01*
X223602366Y30104413D01*
X223594587Y30096634D01*
X223440399Y29912881D01*
X223434088Y29903868D01*
X223314152Y29696132D01*
X223309502Y29686160D01*
X223227460Y29460753D01*
X223224613Y29450126D01*
X223182959Y29213897D01*
X223182000Y29202936D01*
X223182000Y28963064D01*
X223182959Y28952103D01*
X223224613Y28715874D01*
X223227460Y28705247D01*
X223309502Y28479840D01*
X223314152Y28469868D01*
X223434088Y28262132D01*
X223440399Y28253119D01*
X223594587Y28069366D01*
X223602366Y28061587D01*
X223786119Y27907399D01*
X223795132Y27901088D01*
X224002868Y27781152D01*
X224012840Y27776502D01*
X224238247Y27694460D01*
X224248874Y27691613D01*
X224485103Y27649959D01*
X224496064Y27649000D01*
X224735936Y27649000D01*
X224746897Y27649959D01*
X224983126Y27691613D01*
X224993753Y27694460D01*
X225219160Y27776502D01*
X225229132Y27781152D01*
X225436868Y27901088D01*
X225445881Y27907399D01*
X225629634Y28061587D01*
X225637413Y28069366D01*
X225791601Y28253119D01*
X225797912Y28262132D01*
X225917848Y28469868D01*
X225922498Y28479840D01*
X226004540Y28705247D01*
X226007387Y28715874D01*
X226049041Y28952103D01*
X226050000Y28963064D01*
X226050000Y29202936D01*
X226049041Y29213897D01*
X226007387Y29450126D01*
X226004540Y29460753D01*
X225922498Y29686160D01*
X225917848Y29696132D01*
X225797912Y29903868D01*
X225791601Y29912881D01*
X225637413Y30096634D01*
X225629634Y30104413D01*
X225445881Y30258601D01*
X225436868Y30264912D01*
X225229132Y30384848D01*
X225219160Y30389498D01*
X225049491Y30451253D01*
X225202660Y30507002D01*
X225212632Y30511652D01*
X225420368Y30631588D01*
X225429381Y30637899D01*
X225613134Y30792087D01*
X225620913Y30799866D01*
X225775101Y30983619D01*
X225781412Y30992632D01*
X225901348Y31200368D01*
X225905998Y31210340D01*
X225988040Y31435747D01*
X225990887Y31446374D01*
X226032541Y31682603D01*
X226033500Y31693564D01*
X226033500Y31933436D01*
X226032541Y31944397D01*
X226012561Y32057714D01*
X226132348Y32177501D01*
X228207562Y32177501D01*
X228166459Y31944397D01*
X228165500Y31933436D01*
X228165500Y31693564D01*
X228166459Y31682603D01*
X228208113Y31446374D01*
X228210960Y31435747D01*
X228293002Y31210340D01*
X228297652Y31200368D01*
X228417588Y30992632D01*
X228423899Y30983619D01*
X228578087Y30799866D01*
X228585866Y30792087D01*
X228769619Y30637899D01*
X228778632Y30631588D01*
X228986368Y30511652D01*
X228996340Y30507002D01*
X229166009Y30445247D01*
X229012840Y30389498D01*
X229002868Y30384848D01*
X228795132Y30264912D01*
X228786119Y30258601D01*
X228602366Y30104413D01*
X228594587Y30096634D01*
X228440399Y29912881D01*
X228434088Y29903868D01*
X228314152Y29696132D01*
X228309502Y29686160D01*
X228227460Y29460753D01*
X228224613Y29450126D01*
X228182959Y29213897D01*
X228182000Y29202936D01*
X228182000Y28963064D01*
X228182959Y28952103D01*
X228224613Y28715874D01*
X228227460Y28705247D01*
X228309502Y28479840D01*
X228314152Y28469868D01*
X228434088Y28262132D01*
X228440399Y28253119D01*
X228594587Y28069366D01*
X228602366Y28061587D01*
X228786119Y27907399D01*
X228795132Y27901088D01*
X229002868Y27781152D01*
X229012840Y27776502D01*
X229238247Y27694460D01*
X229248874Y27691613D01*
X229485103Y27649959D01*
X229496064Y27649000D01*
X229735936Y27649000D01*
X229746897Y27649959D01*
X229983126Y27691613D01*
X229993753Y27694460D01*
X230219160Y27776502D01*
X230229132Y27781152D01*
X230436868Y27901088D01*
X230445881Y27907399D01*
X230629634Y28061587D01*
X230637413Y28069366D01*
X230791601Y28253119D01*
X230797912Y28262132D01*
X230917848Y28469868D01*
X230922498Y28479840D01*
X231004540Y28705247D01*
X231007387Y28715874D01*
X231049041Y28952103D01*
X231050000Y28963064D01*
X231050000Y29024746D01*
X231126227Y28937057D01*
X231132868Y28930474D01*
X231340930Y28752772D01*
X231348470Y28747243D01*
X231580512Y28602247D01*
X231588787Y28597894D01*
X231839713Y28488788D01*
X231848541Y28485705D01*
X232112836Y28414888D01*
X232122022Y28413144D01*
X232393883Y28382170D01*
X232403226Y28381803D01*
X232676679Y28391351D01*
X232685974Y28392369D01*
X232955011Y28442233D01*
X232964053Y28444614D01*
X233222765Y28533695D01*
X233231356Y28537386D01*
X233474060Y28663729D01*
X233482012Y28668650D01*
X233703373Y28829479D01*
X233710510Y28835520D01*
X233905669Y29027302D01*
X233911834Y29034333D01*
X234076503Y29252855D01*
X234081561Y29260719D01*
X234212121Y29501180D01*
X234215961Y29509705D01*
X234309544Y29766824D01*
X234312082Y29775823D01*
X234366798Y30044758D01*
X234368044Y30055690D01*
X234377684Y30423834D01*
X234377012Y30434816D01*
X234336447Y30706247D01*
X234334383Y30715367D01*
X234254384Y30977031D01*
X234250995Y30985746D01*
X234133199Y31232710D01*
X234128559Y31240828D01*
X233975553Y31467668D01*
X233969765Y31475011D01*
X233784911Y31676745D01*
X233778100Y31683152D01*
X233565458Y31855346D01*
X233557775Y31860675D01*
X233322016Y31999548D01*
X233313630Y32003684D01*
X233059934Y32106183D01*
X233051029Y32109033D01*
X232784971Y32172909D01*
X232775742Y32174412D01*
X232740434Y32177501D01*
X235920910Y32177501D01*
X235937691Y32173704D01*
X235955587Y32172264D01*
X236039996Y32177501D01*
X236068279Y32177501D01*
X236077220Y32178138D01*
X236097826Y32181088D01*
X236173775Y32185801D01*
X236191355Y32189442D01*
X236214502Y32197798D01*
X236238877Y32201289D01*
X236256110Y32206328D01*
X236325397Y32237832D01*
X236397156Y32263737D01*
X236413324Y32272397D01*
X236432293Y32286434D01*
X236455113Y32296809D01*
X236470238Y32306482D01*
X236536218Y32363334D01*
X236553455Y32376089D01*
X236560538Y32382192D01*
X236575695Y32397350D01*
X236635848Y32449181D01*
X236647649Y32462708D01*
X236659800Y32481454D01*
X236873782Y32695436D01*
X245898500Y32695436D01*
X245898500Y32455564D01*
X245899459Y32444603D01*
X245941113Y32208374D01*
X245943960Y32197747D01*
X246026002Y31972340D01*
X246030652Y31962368D01*
X246150588Y31754632D01*
X246156899Y31745619D01*
X246311087Y31561866D01*
X246318866Y31554087D01*
X246502619Y31399899D01*
X246511632Y31393588D01*
X246719368Y31273652D01*
X246729340Y31269002D01*
X246954747Y31186960D01*
X246965374Y31184113D01*
X247201603Y31142459D01*
X247212564Y31141500D01*
X247452436Y31141500D01*
X247463397Y31142459D01*
X247699626Y31184113D01*
X247710253Y31186960D01*
X247935660Y31269002D01*
X247945632Y31273652D01*
X248153368Y31393588D01*
X248162381Y31399899D01*
X248346134Y31554087D01*
X248353913Y31561866D01*
X248508101Y31745619D01*
X248514412Y31754632D01*
X248634348Y31962368D01*
X248638998Y31972340D01*
X248721040Y32197747D01*
X248723887Y32208374D01*
X248765541Y32444603D01*
X248766500Y32455564D01*
X248766500Y32695436D01*
X248765541Y32706397D01*
X248723887Y32942626D01*
X248721040Y32953253D01*
X248638998Y33178660D01*
X248634348Y33188632D01*
X248514412Y33396368D01*
X248508101Y33405381D01*
X248353913Y33589134D01*
X248346134Y33596913D01*
X248162381Y33751101D01*
X248153368Y33757412D01*
X247945632Y33877348D01*
X247935660Y33881998D01*
X247710253Y33964040D01*
X247699626Y33966887D01*
X247463397Y34008541D01*
X247452436Y34009500D01*
X247212564Y34009500D01*
X247201603Y34008541D01*
X246965374Y33966887D01*
X246954747Y33964040D01*
X246729340Y33881998D01*
X246719368Y33877348D01*
X246511632Y33757412D01*
X246502619Y33751101D01*
X246318866Y33596913D01*
X246311087Y33589134D01*
X246156899Y33405381D01*
X246150588Y33396368D01*
X246030652Y33188632D01*
X246026002Y33178660D01*
X245943960Y32953253D01*
X245941113Y32942626D01*
X245899459Y32706397D01*
X245898500Y32695436D01*
X236873782Y32695436D01*
X236928286Y32749940D01*
X237041603Y32729959D01*
X237052564Y32729000D01*
X237292436Y32729000D01*
X237303397Y32729959D01*
X237539626Y32771613D01*
X237550253Y32774460D01*
X237775660Y32856502D01*
X237785632Y32861152D01*
X237993368Y32981088D01*
X238002381Y32987399D01*
X238186134Y33141587D01*
X238193913Y33149366D01*
X238348101Y33333119D01*
X238354412Y33342132D01*
X238474348Y33549868D01*
X238478998Y33559840D01*
X238561040Y33785247D01*
X238563887Y33795874D01*
X238605541Y34032103D01*
X238606500Y34043064D01*
X238606500Y34282936D01*
X243358500Y34282936D01*
X243358500Y34043064D01*
X243359459Y34032103D01*
X243401113Y33795874D01*
X243403960Y33785247D01*
X243486002Y33559840D01*
X243490652Y33549868D01*
X243610588Y33342132D01*
X243616899Y33333119D01*
X243771087Y33149366D01*
X243778866Y33141587D01*
X243962619Y32987399D01*
X243971632Y32981088D01*
X244179368Y32861152D01*
X244189340Y32856502D01*
X244414747Y32774460D01*
X244425374Y32771613D01*
X244661603Y32729959D01*
X244672564Y32729000D01*
X244912436Y32729000D01*
X244923397Y32729959D01*
X245159626Y32771613D01*
X245170253Y32774460D01*
X245395660Y32856502D01*
X245405632Y32861152D01*
X245613368Y32981088D01*
X245622381Y32987399D01*
X245806134Y33141587D01*
X245813913Y33149366D01*
X245968101Y33333119D01*
X245974412Y33342132D01*
X246094348Y33549868D01*
X246098998Y33559840D01*
X246181040Y33785247D01*
X246183887Y33795874D01*
X246225541Y34032103D01*
X246226500Y34043064D01*
X246226500Y34282936D01*
X246225541Y34293897D01*
X246183887Y34530126D01*
X246181040Y34540753D01*
X246098998Y34766160D01*
X246094348Y34776132D01*
X245974412Y34983868D01*
X245968101Y34992881D01*
X245813913Y35176634D01*
X245806134Y35184413D01*
X245622381Y35338601D01*
X245613368Y35344912D01*
X245405632Y35464848D01*
X245395660Y35469498D01*
X245170253Y35551540D01*
X245159626Y35554387D01*
X244923397Y35596041D01*
X244912436Y35597000D01*
X244672564Y35597000D01*
X244661603Y35596041D01*
X244425374Y35554387D01*
X244414747Y35551540D01*
X244189340Y35469498D01*
X244179368Y35464848D01*
X243971632Y35344912D01*
X243962619Y35338601D01*
X243778866Y35184413D01*
X243771087Y35176634D01*
X243616899Y34992881D01*
X243610588Y34983868D01*
X243490652Y34776132D01*
X243486002Y34766160D01*
X243403960Y34540753D01*
X243401113Y34530126D01*
X243359459Y34293897D01*
X243358500Y34282936D01*
X238606500Y34282936D01*
X238605541Y34293897D01*
X238563887Y34530126D01*
X238561040Y34540753D01*
X238478998Y34766160D01*
X238474348Y34776132D01*
X238354412Y34983868D01*
X238348101Y34992881D01*
X238193913Y35176634D01*
X238186134Y35184413D01*
X238002381Y35338601D01*
X237993368Y35344912D01*
X237785632Y35464848D01*
X237775660Y35469498D01*
X237550253Y35551540D01*
X237539626Y35554387D01*
X237303397Y35596041D01*
X237292436Y35597000D01*
X237052564Y35597000D01*
X237041603Y35596041D01*
X236805374Y35554387D01*
X236794747Y35551540D01*
X236569340Y35469498D01*
X236559368Y35464848D01*
X236351632Y35344912D01*
X236342619Y35338601D01*
X236158866Y35184413D01*
X236151087Y35176634D01*
X235996899Y34992881D01*
X235990588Y34983868D01*
X235870652Y34776132D01*
X235866002Y34766160D01*
X235783960Y34540753D01*
X235781113Y34530126D01*
X235739459Y34293897D01*
X235738500Y34282936D01*
X235738500Y34043064D01*
X235739459Y34032103D01*
X235759439Y33918786D01*
X235671155Y33830501D01*
X232433691Y33830501D01*
X232442601Y33841119D01*
X232448912Y33850132D01*
X232568848Y34057868D01*
X232573498Y34067840D01*
X232655540Y34293247D01*
X232658387Y34303874D01*
X232700041Y34540103D01*
X232701000Y34551064D01*
X232701000Y34790936D01*
X232700041Y34801897D01*
X232658387Y35038126D01*
X232655540Y35048753D01*
X232573498Y35274160D01*
X232568848Y35284132D01*
X232448912Y35491868D01*
X232442601Y35500881D01*
X232288413Y35684634D01*
X232280634Y35692413D01*
X232096881Y35846601D01*
X232087868Y35852912D01*
X231880132Y35972848D01*
X231870160Y35977498D01*
X231644753Y36059540D01*
X231634126Y36062387D01*
X231397897Y36104041D01*
X231386936Y36105000D01*
X231147064Y36105000D01*
X231136103Y36104041D01*
X230899874Y36062387D01*
X230889247Y36059540D01*
X230663840Y35977498D01*
X230653868Y35972848D01*
X230446132Y35852912D01*
X230437119Y35846601D01*
X230253366Y35692413D01*
X230245587Y35684634D01*
X230091399Y35500881D01*
X230085088Y35491868D01*
X229965152Y35284132D01*
X229960502Y35274160D01*
X229878460Y35048753D01*
X229875613Y35038126D01*
X229833959Y34801897D01*
X229833000Y34790936D01*
X229833000Y34551064D01*
X229833959Y34540103D01*
X229875613Y34303874D01*
X229878460Y34293247D01*
X229960502Y34067840D01*
X229965152Y34057868D01*
X230085088Y33850132D01*
X230091399Y33841119D01*
X230100309Y33830501D01*
X225882591Y33830501D01*
X225865810Y33834298D01*
X225847915Y33835738D01*
X225763506Y33830501D01*
X225735223Y33830501D01*
X225726281Y33829864D01*
X225705675Y33826913D01*
X225629726Y33822201D01*
X225612147Y33818561D01*
X225588994Y33810203D01*
X225564624Y33806713D01*
X225547392Y33801674D01*
X225478103Y33770170D01*
X225406344Y33744265D01*
X225390177Y33735605D01*
X225371205Y33721566D01*
X225348389Y33711193D01*
X225333264Y33701520D01*
X225267292Y33644675D01*
X225250047Y33631914D01*
X225242963Y33625810D01*
X225227799Y33610645D01*
X225167654Y33558821D01*
X225155852Y33545292D01*
X225143704Y33526550D01*
X224843714Y33226560D01*
X224730397Y33246541D01*
X224719436Y33247500D01*
X224479564Y33247500D01*
X224468603Y33246541D01*
X224232374Y33204887D01*
X224221747Y33202040D01*
X223996340Y33119998D01*
X223986368Y33115348D01*
X223778632Y32995412D01*
X223769619Y32989101D01*
X223585866Y32834913D01*
X223578087Y32827134D01*
X223423899Y32643381D01*
X223417588Y32634368D01*
X223297652Y32426632D01*
X223293002Y32416660D01*
X223210960Y32191253D01*
X223208113Y32180626D01*
X223166459Y31944397D01*
X223165500Y31933436D01*
X223138000Y31933436D01*
X223138000Y33330230D01*
X223269247Y33282460D01*
X223279874Y33279613D01*
X223516103Y33237959D01*
X223527064Y33237000D01*
X223766936Y33237000D01*
X223777897Y33237959D01*
X224014126Y33279613D01*
X224024753Y33282460D01*
X224250160Y33364502D01*
X224260132Y33369152D01*
X224467868Y33489088D01*
X224476881Y33495399D01*
X224660634Y33649587D01*
X224668413Y33657366D01*
X224822601Y33841119D01*
X224828912Y33850132D01*
X224948848Y34057868D01*
X224953498Y34067840D01*
X225035540Y34293247D01*
X225038387Y34303874D01*
X225080041Y34540103D01*
X225081000Y34551064D01*
X225081000Y34790936D01*
X225080041Y34801897D01*
X225038387Y35038126D01*
X225035540Y35048753D01*
X224953498Y35274160D01*
X224948848Y35284132D01*
X224828912Y35491868D01*
X224822601Y35500881D01*
X224668413Y35684634D01*
X224660634Y35692413D01*
X224476881Y35846601D01*
X224473500Y35848968D01*
X224473500Y37295567D01*
X224529937Y37084942D01*
X224542680Y37060462D01*
X224673790Y36904210D01*
X224690679Y36890039D01*
X224864920Y36789441D01*
X224885637Y36781900D01*
X225078338Y36747922D01*
X225089299Y36746963D01*
X225858191Y36746963D01*
X225932000Y36820772D01*
X225932001Y38152192D01*
X225932000Y38152193D01*
X225932001Y39887228D01*
X225858192Y39961037D01*
X225086542Y39961037D01*
X225070166Y39958881D01*
X224790942Y39884063D01*
X224766462Y39871320D01*
X224610210Y39740210D01*
X224596039Y39723321D01*
X224495441Y39549080D01*
X224487900Y39528363D01*
X224473500Y39446696D01*
X224473500Y40043655D01*
X225621809Y41191963D01*
X226498190Y41191963D01*
X226765804Y40924348D01*
X226774986Y40909796D01*
X226786622Y40896124D01*
X226850021Y40840132D01*
X226870011Y40820141D01*
X226876785Y40814268D01*
X226893436Y40801789D01*
X226950477Y40751412D01*
X226965483Y40741555D01*
X226987765Y40731093D01*
X227007462Y40716331D01*
X227023210Y40707709D01*
X227094474Y40680994D01*
X227163541Y40648567D01*
X227181096Y40643258D01*
X227204440Y40639770D01*
X227227908Y40630972D01*
X227245442Y40627117D01*
X227332287Y40620663D01*
X227353506Y40617492D01*
X227362829Y40616799D01*
X227384290Y40616799D01*
X227463451Y40610917D01*
X227481361Y40612138D01*
X227503196Y40616799D01*
X232231708Y40616799D01*
X232248489Y40613002D01*
X232266385Y40611562D01*
X232334372Y40615780D01*
X232254793Y40536201D01*
X230048291Y40536201D01*
X230031510Y40539998D01*
X230013615Y40541438D01*
X229929206Y40536201D01*
X229900923Y40536201D01*
X229891981Y40535564D01*
X229871375Y40532613D01*
X229795426Y40527901D01*
X229777847Y40524261D01*
X229754694Y40515903D01*
X229730324Y40512413D01*
X229713092Y40507374D01*
X229643803Y40475870D01*
X229572044Y40449965D01*
X229555877Y40441305D01*
X229536905Y40427266D01*
X229514089Y40416893D01*
X229498964Y40407220D01*
X229432992Y40350375D01*
X229415747Y40337614D01*
X229408663Y40331510D01*
X229393499Y40316345D01*
X229333354Y40264521D01*
X229321552Y40250992D01*
X229309404Y40232250D01*
X228983885Y39906731D01*
X228886423Y39932481D01*
X228876242Y39934294D01*
X228624770Y39958065D01*
X228614429Y39958192D01*
X228362451Y39940571D01*
X228352229Y39939007D01*
X228106513Y39880469D01*
X228096683Y39877257D01*
X227863827Y39779373D01*
X227854654Y39774598D01*
X227640912Y39639997D01*
X227632642Y39633788D01*
X227595923Y39601188D01*
X227590063Y39623059D01*
X227577320Y39647539D01*
X227446210Y39803790D01*
X227429321Y39817961D01*
X227255080Y39918559D01*
X227234363Y39926100D01*
X227041662Y39960078D01*
X227030701Y39961037D01*
X226261809Y39961037D01*
X226188000Y39887228D01*
X226187999Y38555808D01*
X226188000Y38555807D01*
X226187999Y36820772D01*
X226261808Y36746963D01*
X227033458Y36746963D01*
X227049834Y36749119D01*
X227329059Y36823937D01*
X227353539Y36836680D01*
X227509790Y36967790D01*
X227523961Y36984679D01*
X227594025Y37106034D01*
X227786148Y36971508D01*
X227795077Y36966290D01*
X228022873Y36857149D01*
X228032535Y36853460D01*
X228275098Y36782988D01*
X228285232Y36780927D01*
X228536048Y36751019D01*
X228546382Y36750640D01*
X228798714Y36762098D01*
X228808972Y36763412D01*
X229056045Y36815930D01*
X229065950Y36818901D01*
X229301128Y36911067D01*
X229310415Y36915616D01*
X229527382Y37044954D01*
X229535801Y37050959D01*
X229728730Y37213997D01*
X229736055Y37221297D01*
X229871060Y37379927D01*
X229924038Y37307542D01*
X229930809Y37299725D01*
X230111280Y37122996D01*
X230119237Y37116390D01*
X230326148Y36971508D01*
X230335077Y36966290D01*
X230562873Y36857149D01*
X230572535Y36853460D01*
X230815098Y36782988D01*
X230825232Y36780927D01*
X231076048Y36751019D01*
X231086382Y36750640D01*
X231338714Y36762098D01*
X231348972Y36763412D01*
X231596045Y36815930D01*
X231605950Y36818901D01*
X231841128Y36911067D01*
X231850415Y36915616D01*
X232067382Y37044954D01*
X232075801Y37050959D01*
X232268730Y37213997D01*
X232276055Y37221297D01*
X232369365Y37330936D01*
X235738500Y37330936D01*
X235738500Y37091064D01*
X235739459Y37080103D01*
X235781113Y36843874D01*
X235783960Y36833247D01*
X235866002Y36607840D01*
X235870652Y36597868D01*
X235990588Y36390132D01*
X235996899Y36381119D01*
X236151087Y36197366D01*
X236158866Y36189587D01*
X236342619Y36035399D01*
X236351632Y36029088D01*
X236559368Y35909152D01*
X236569340Y35904502D01*
X236794747Y35822460D01*
X236805374Y35819613D01*
X237041603Y35777959D01*
X237052564Y35777000D01*
X237292436Y35777000D01*
X237303397Y35777959D01*
X237539626Y35819613D01*
X237550253Y35822460D01*
X237775660Y35904502D01*
X237785632Y35909152D01*
X237993368Y36029088D01*
X238002381Y36035399D01*
X238186134Y36189587D01*
X238193913Y36197366D01*
X238348101Y36381119D01*
X238354412Y36390132D01*
X238474348Y36597868D01*
X238478998Y36607840D01*
X238561040Y36833247D01*
X238563887Y36843874D01*
X238605541Y37080103D01*
X238606500Y37091064D01*
X238606500Y37330936D01*
X238605541Y37341897D01*
X238563887Y37578126D01*
X238561040Y37588753D01*
X238478998Y37814160D01*
X238474348Y37824132D01*
X238354412Y38031868D01*
X238348101Y38040881D01*
X238193913Y38224634D01*
X238186134Y38232413D01*
X238002381Y38386601D01*
X237993368Y38392912D01*
X237785632Y38512848D01*
X237775660Y38517498D01*
X237550253Y38599540D01*
X237539626Y38602387D01*
X237303397Y38644041D01*
X237292436Y38645000D01*
X237052564Y38645000D01*
X237041603Y38644041D01*
X236805374Y38602387D01*
X236794747Y38599540D01*
X236569340Y38517498D01*
X236559368Y38512848D01*
X236351632Y38392912D01*
X236342619Y38386601D01*
X236158866Y38232413D01*
X236151087Y38224634D01*
X235996899Y38040881D01*
X235990588Y38031868D01*
X235870652Y37824132D01*
X235866002Y37814160D01*
X235783960Y37588753D01*
X235781113Y37578126D01*
X235739459Y37341897D01*
X235738500Y37330936D01*
X232369365Y37330936D01*
X232439766Y37413656D01*
X232445801Y37422054D01*
X232575895Y37638569D01*
X232580477Y37647839D01*
X232673463Y37882694D01*
X232676470Y37892589D01*
X232730011Y38140231D01*
X232731418Y38152031D01*
X232739385Y38477987D01*
X232738556Y38489842D01*
X232697175Y38739803D01*
X232694655Y38749833D01*
X232649253Y38883201D01*
X232651917Y38883201D01*
X232660858Y38883838D01*
X232681464Y38886788D01*
X232757413Y38891501D01*
X232774993Y38895142D01*
X232798140Y38903498D01*
X232822515Y38906989D01*
X232839748Y38912028D01*
X232909035Y38943532D01*
X232980794Y38969437D01*
X232996962Y38978097D01*
X233015931Y38992134D01*
X233038751Y39002509D01*
X233053876Y39012182D01*
X233119856Y39069034D01*
X233137093Y39081789D01*
X233144176Y39087892D01*
X233159333Y39103050D01*
X233219486Y39154881D01*
X233231288Y39168410D01*
X233243438Y39187155D01*
X236738948Y42682664D01*
X236753502Y42691847D01*
X236767174Y42703483D01*
X236823169Y42766885D01*
X236843157Y42786872D01*
X236849030Y42793646D01*
X236861506Y42810293D01*
X236911886Y42867337D01*
X236921743Y42882342D01*
X236932205Y42904625D01*
X236946969Y42924324D01*
X236955590Y42940072D01*
X236982303Y43011330D01*
X237014732Y43080401D01*
X237020040Y43097955D01*
X237023530Y43121305D01*
X237032327Y43144771D01*
X237036181Y43162304D01*
X237042634Y43249131D01*
X237045807Y43270367D01*
X237046500Y43279690D01*
X237046500Y43301154D01*
X237052382Y43380310D01*
X237051161Y43398222D01*
X237046500Y43420056D01*
X237046500Y45160532D01*
X237049881Y45162899D01*
X237233634Y45317087D01*
X237241413Y45324866D01*
X237395601Y45508619D01*
X237401912Y45517632D01*
X237521848Y45725368D01*
X237526498Y45735340D01*
X237608540Y45960747D01*
X237611387Y45971374D01*
X237653041Y46207603D01*
X237654000Y46218564D01*
X237654000Y46458436D01*
X237653041Y46469397D01*
X237629875Y46600779D01*
X238822500Y45408152D01*
X238822501Y39970595D01*
X238818703Y39953810D01*
X238817263Y39935914D01*
X238822501Y39851489D01*
X238822501Y39823221D01*
X238823138Y39814277D01*
X238826088Y39793687D01*
X238830800Y39717728D01*
X238834440Y39700148D01*
X238842799Y39676994D01*
X238846289Y39652622D01*
X238851328Y39635391D01*
X238882826Y39566114D01*
X238908736Y39494344D01*
X238917396Y39478177D01*
X238931436Y39459203D01*
X238941810Y39436387D01*
X238951482Y39421263D01*
X239008327Y39355291D01*
X239021088Y39338046D01*
X239027191Y39330963D01*
X239042357Y39315798D01*
X239094181Y39255653D01*
X239107710Y39243851D01*
X239126452Y39231703D01*
X241475602Y36882551D01*
X241484785Y36867997D01*
X241496421Y36854325D01*
X241559820Y36798333D01*
X241579810Y36778342D01*
X241586584Y36772469D01*
X241603235Y36759990D01*
X241660276Y36709613D01*
X241675282Y36699756D01*
X241697564Y36689294D01*
X241717261Y36674532D01*
X241733009Y36665910D01*
X241804273Y36639195D01*
X241873340Y36606768D01*
X241890895Y36601459D01*
X241914239Y36597971D01*
X241937707Y36589173D01*
X241955241Y36585318D01*
X242042086Y36578864D01*
X242063305Y36575693D01*
X242072628Y36575000D01*
X242094088Y36575000D01*
X242173248Y36569118D01*
X242191159Y36570339D01*
X242212994Y36575000D01*
X243503855Y36575000D01*
X243610588Y36390132D01*
X243616899Y36381119D01*
X243771087Y36197366D01*
X243778866Y36189587D01*
X243962619Y36035399D01*
X243971632Y36029088D01*
X244179368Y35909152D01*
X244189340Y35904502D01*
X244414747Y35822460D01*
X244425374Y35819613D01*
X244661603Y35777959D01*
X244672564Y35777000D01*
X244912436Y35777000D01*
X244923397Y35777959D01*
X245159626Y35819613D01*
X245170253Y35822460D01*
X245395660Y35904502D01*
X245405632Y35909152D01*
X245613368Y36029088D01*
X245622381Y36035399D01*
X245806134Y36189587D01*
X245813913Y36197366D01*
X245968101Y36381119D01*
X245974412Y36390132D01*
X246094348Y36597868D01*
X246098998Y36607840D01*
X246181040Y36833247D01*
X246183887Y36843874D01*
X246225541Y37080103D01*
X246226500Y37091064D01*
X246226500Y37330936D01*
X246225541Y37341897D01*
X246183887Y37578126D01*
X246181040Y37588753D01*
X246098998Y37814160D01*
X246094348Y37824132D01*
X245974412Y38031868D01*
X245968101Y38040881D01*
X245813913Y38224634D01*
X245806134Y38232413D01*
X245622381Y38386601D01*
X245613368Y38392912D01*
X245405632Y38512848D01*
X245395660Y38517498D01*
X245170253Y38599540D01*
X245159626Y38602387D01*
X244923397Y38644041D01*
X244912436Y38645000D01*
X244690945Y38645000D01*
X244726090Y38674490D01*
X244740261Y38691379D01*
X244840859Y38865620D01*
X244848400Y38886337D01*
X244882378Y39079038D01*
X244883337Y39089999D01*
X244883337Y40315436D01*
X245898500Y40315436D01*
X245898500Y40075564D01*
X245899459Y40064603D01*
X245941113Y39828374D01*
X245943960Y39817747D01*
X246026002Y39592340D01*
X246030652Y39582368D01*
X246150588Y39374632D01*
X246156899Y39365619D01*
X246311087Y39181866D01*
X246318866Y39174087D01*
X246502619Y39019899D01*
X246511632Y39013588D01*
X246719368Y38893652D01*
X246729340Y38889002D01*
X246954747Y38806960D01*
X246965374Y38804113D01*
X247201603Y38762459D01*
X247212564Y38761500D01*
X247452436Y38761500D01*
X247463397Y38762459D01*
X247699626Y38804113D01*
X247710253Y38806960D01*
X247935660Y38889002D01*
X247945632Y38893652D01*
X248153368Y39013588D01*
X248162381Y39019899D01*
X248346134Y39174087D01*
X248353913Y39181866D01*
X248508101Y39365619D01*
X248514412Y39374632D01*
X248634348Y39582368D01*
X248638998Y39592340D01*
X248721040Y39817747D01*
X248723887Y39828374D01*
X248765541Y40064603D01*
X248766500Y40075564D01*
X248766500Y40315436D01*
X248765541Y40326397D01*
X248723887Y40562626D01*
X248721040Y40573253D01*
X248638998Y40798660D01*
X248634348Y40808632D01*
X248514412Y41016368D01*
X248508101Y41025381D01*
X248353913Y41209134D01*
X248346134Y41216913D01*
X248162381Y41371101D01*
X248153368Y41377412D01*
X247945632Y41497348D01*
X247935660Y41501998D01*
X247710253Y41584040D01*
X247699626Y41586887D01*
X247463397Y41628541D01*
X247452436Y41629500D01*
X247212564Y41629500D01*
X247201603Y41628541D01*
X246965374Y41586887D01*
X246954747Y41584040D01*
X246729340Y41501998D01*
X246719368Y41497348D01*
X246511632Y41377412D01*
X246502619Y41371101D01*
X246318866Y41216913D01*
X246311087Y41209134D01*
X246156899Y41025381D01*
X246150588Y41016368D01*
X246030652Y40808632D01*
X246026002Y40798660D01*
X245943960Y40573253D01*
X245941113Y40562626D01*
X245899459Y40326397D01*
X245898500Y40315436D01*
X244883337Y40315436D01*
X244883337Y41303758D01*
X244881181Y41320134D01*
X244806363Y41599359D01*
X244793620Y41623839D01*
X244662510Y41780090D01*
X244645621Y41794261D01*
X244471380Y41894859D01*
X244450663Y41902400D01*
X244257962Y41936378D01*
X244247001Y41937337D01*
X242033242Y41937337D01*
X242016866Y41935181D01*
X241737642Y41860363D01*
X241713162Y41847620D01*
X241556910Y41716510D01*
X241542739Y41699621D01*
X241442141Y41525380D01*
X241434600Y41504663D01*
X241400622Y41311962D01*
X241399663Y41301001D01*
X241399663Y39296182D01*
X240475500Y40220345D01*
X240475500Y44104656D01*
X245366677Y44104656D01*
X245382897Y43981447D01*
X245616368Y43846652D01*
X245626340Y43842002D01*
X245851747Y43759960D01*
X245862374Y43757113D01*
X246098603Y43715459D01*
X246109564Y43714500D01*
X246349436Y43714500D01*
X246360397Y43715459D01*
X246596626Y43757113D01*
X246607253Y43759960D01*
X246832660Y43842002D01*
X246842632Y43846652D01*
X247076103Y43981447D01*
X247092323Y44104656D01*
X246281691Y44915290D01*
X246177309Y44915290D01*
X245366677Y44104656D01*
X240475500Y44104656D01*
X240475500Y45268436D01*
X244795500Y45268436D01*
X244795500Y45028564D01*
X244796459Y45017603D01*
X244838113Y44781374D01*
X244840960Y44770747D01*
X244923002Y44545340D01*
X244927652Y44535368D01*
X245062447Y44301897D01*
X245185656Y44285677D01*
X245996290Y45096309D01*
X245996290Y45200691D01*
X245185656Y46011323D01*
X245062447Y45995103D01*
X244927652Y45761632D01*
X244923002Y45751660D01*
X244840960Y45526253D01*
X244838113Y45515626D01*
X244796459Y45279397D01*
X244795500Y45268436D01*
X240475500Y45268436D01*
X240475500Y45657910D01*
X240479297Y45674691D01*
X240480737Y45692586D01*
X240475500Y45776995D01*
X240475500Y45805278D01*
X240474863Y45814220D01*
X240471912Y45834826D01*
X240467200Y45910775D01*
X240463560Y45928354D01*
X240455202Y45951507D01*
X240451712Y45975877D01*
X240446673Y45993109D01*
X240415169Y46062398D01*
X240389264Y46134157D01*
X240380604Y46150324D01*
X240366565Y46169296D01*
X240356192Y46192112D01*
X240356044Y46192344D01*
X245366677Y46192344D01*
X246177309Y45381710D01*
X246281691Y45381710D01*
X247092323Y46192344D01*
X247076103Y46315553D01*
X246842632Y46450348D01*
X246832660Y46454998D01*
X246607253Y46537040D01*
X246596626Y46539887D01*
X246360397Y46581541D01*
X246349436Y46582500D01*
X246109564Y46582500D01*
X246098603Y46581541D01*
X245862374Y46539887D01*
X245851747Y46537040D01*
X245626340Y46454998D01*
X245616368Y46450348D01*
X245382897Y46315553D01*
X245366677Y46192344D01*
X240356044Y46192344D01*
X240346519Y46207238D01*
X240289677Y46273205D01*
X240276913Y46290454D01*
X240270809Y46297538D01*
X240255640Y46312706D01*
X240203818Y46372847D01*
X240190290Y46384649D01*
X240171552Y46396794D01*
X237616560Y48951786D01*
X237636541Y49065103D01*
X237637500Y49076064D01*
X237637500Y49315936D01*
X237636541Y49326897D01*
X237594887Y49563126D01*
X237592040Y49573753D01*
X237509998Y49799160D01*
X237505348Y49809132D01*
X237385412Y50016868D01*
X237379101Y50025881D01*
X237224913Y50209634D01*
X237217134Y50217413D01*
X237033381Y50371601D01*
X237024368Y50377912D01*
X236816632Y50497848D01*
X236806660Y50502498D01*
X236581253Y50584540D01*
X236570626Y50587387D01*
X236334397Y50629041D01*
X236323436Y50630000D01*
X236083564Y50630000D01*
X236072603Y50629041D01*
X235836374Y50587387D01*
X235825747Y50584540D01*
X235600340Y50502498D01*
X235590368Y50497848D01*
X235382632Y50377912D01*
X235373619Y50371601D01*
X235189866Y50217413D01*
X235182087Y50209634D01*
X235027899Y50025881D01*
X235021588Y50016868D01*
X234901652Y49809132D01*
X234897002Y49799160D01*
X234814960Y49573753D01*
X234812113Y49563126D01*
X234770459Y49326897D01*
X234769500Y49315936D01*
X234769500Y49076064D01*
X234770459Y49065103D01*
X234812113Y48828874D01*
X234814960Y48818247D01*
X234897002Y48592840D01*
X234901652Y48582868D01*
X235021588Y48375132D01*
X235027899Y48366119D01*
X235182087Y48182366D01*
X235189866Y48174587D01*
X235373619Y48020399D01*
X235382632Y48014088D01*
X235590368Y47894152D01*
X235600340Y47889502D01*
X235825747Y47807460D01*
X235836374Y47804613D01*
X236056518Y47765795D01*
X235852874Y47729887D01*
X235842247Y47727040D01*
X235616840Y47644998D01*
X235606868Y47640348D01*
X235399132Y47520412D01*
X235390119Y47514101D01*
X235206366Y47359913D01*
X235198587Y47352134D01*
X235044399Y47168381D01*
X235038088Y47159368D01*
X234918152Y46951632D01*
X234913502Y46941660D01*
X234831460Y46716253D01*
X234828613Y46705626D01*
X234786959Y46469397D01*
X234786000Y46458436D01*
X234786000Y46218564D01*
X234786959Y46207603D01*
X234828613Y45971374D01*
X234831460Y45960747D01*
X234913502Y45735340D01*
X234918152Y45725368D01*
X235038088Y45517632D01*
X235044399Y45508619D01*
X235198587Y45324866D01*
X235206366Y45317087D01*
X235390119Y45162899D01*
X235393501Y45160531D01*
X235393500Y43674908D01*
X235153038Y43434446D01*
X235149130Y43443434D01*
X235029767Y43666045D01*
X235024149Y43674729D01*
X234870031Y43874854D01*
X234863072Y43882503D01*
X234678337Y44054771D01*
X234670221Y44061181D01*
X234459832Y44200964D01*
X234450778Y44205962D01*
X234220383Y44309505D01*
X234210634Y44312957D01*
X233966423Y44377481D01*
X233956242Y44379294D01*
X233704770Y44403065D01*
X233694429Y44403192D01*
X233442451Y44385571D01*
X233432229Y44384007D01*
X233186513Y44325469D01*
X233176683Y44322257D01*
X232943827Y44224373D01*
X232934654Y44219598D01*
X232720912Y44084997D01*
X232712642Y44078788D01*
X232523754Y43911086D01*
X232516609Y43903609D01*
X232409627Y43771497D01*
X232330031Y43874854D01*
X232323072Y43882503D01*
X232138337Y44054771D01*
X232130221Y44061181D01*
X231919832Y44200964D01*
X231910778Y44205962D01*
X231680383Y44309505D01*
X231670634Y44312957D01*
X231426423Y44377481D01*
X231416242Y44379294D01*
X231164770Y44403065D01*
X231154429Y44403192D01*
X230902451Y44385571D01*
X230892229Y44384007D01*
X230646513Y44325469D01*
X230636683Y44322257D01*
X230403827Y44224373D01*
X230394654Y44219598D01*
X230180912Y44084997D01*
X230172642Y44078788D01*
X229983754Y43911086D01*
X229976609Y43903609D01*
X229869627Y43771497D01*
X229790031Y43874854D01*
X229783072Y43882503D01*
X229598337Y44054771D01*
X229590221Y44061181D01*
X229379832Y44200964D01*
X229370778Y44205962D01*
X229140383Y44309505D01*
X229130634Y44312957D01*
X228886423Y44377481D01*
X228876242Y44379294D01*
X228624770Y44403065D01*
X228614429Y44403192D01*
X228362451Y44385571D01*
X228352229Y44384007D01*
X228106513Y44325469D01*
X228096683Y44322257D01*
X227863827Y44224373D01*
X227854654Y44219598D01*
X227640912Y44084997D01*
X227632642Y44078788D01*
X227595923Y44046188D01*
X227590063Y44068059D01*
X227577320Y44092539D01*
X227446210Y44248790D01*
X227429321Y44262961D01*
X227255080Y44363559D01*
X227234363Y44371100D01*
X227041662Y44405078D01*
X227030701Y44406037D01*
X225086542Y44406037D01*
X225070166Y44403881D01*
X224790942Y44329063D01*
X224766462Y44316320D01*
X224610210Y44185210D01*
X224596039Y44168321D01*
X224495441Y43994080D01*
X224487900Y43973363D01*
X224453922Y43780662D01*
X224452963Y43769701D01*
X224452963Y42360809D01*
X223138000Y41045845D01*
X223138000Y48557501D01*
X224745163Y48557501D01*
X224745163Y46943742D01*
X224747319Y46927366D01*
X224822137Y46648142D01*
X224834880Y46623662D01*
X224965990Y46467410D01*
X224982879Y46453239D01*
X225157120Y46352641D01*
X225177837Y46345100D01*
X225370538Y46311122D01*
X225381499Y46310163D01*
X226995258Y46310163D01*
X227011634Y46312319D01*
X227290859Y46387137D01*
X227315339Y46399880D01*
X227471590Y46530990D01*
X227485761Y46547879D01*
X227578296Y46708156D01*
X227824177Y46708156D01*
X227840397Y46584947D01*
X228073868Y46450152D01*
X228083840Y46445502D01*
X228309247Y46363460D01*
X228319874Y46360613D01*
X228556103Y46318959D01*
X228567064Y46318000D01*
X228806936Y46318000D01*
X228817897Y46318959D01*
X229054126Y46360613D01*
X229064753Y46363460D01*
X229290160Y46445502D01*
X229300132Y46450152D01*
X229533603Y46584947D01*
X229549823Y46708156D01*
X228739191Y47518790D01*
X228634809Y47518790D01*
X227824177Y46708156D01*
X227578296Y46708156D01*
X227586359Y46722120D01*
X227593900Y46742837D01*
X227620235Y46892194D01*
X227643156Y46889177D01*
X228453790Y47699809D01*
X228453790Y47804191D01*
X228920210Y47804191D01*
X228920210Y47699809D01*
X229730844Y46889177D01*
X229854053Y46905397D01*
X229988848Y47138868D01*
X229993498Y47148840D01*
X230075540Y47374247D01*
X230078387Y47384874D01*
X230120041Y47621103D01*
X230121000Y47632064D01*
X230121000Y47871936D01*
X230120041Y47882897D01*
X230078387Y48119126D01*
X230075540Y48129753D01*
X229993498Y48355160D01*
X229988848Y48365132D01*
X229854053Y48598603D01*
X229730844Y48614823D01*
X228920210Y47804191D01*
X228453790Y47804191D01*
X227643156Y48614823D01*
X227617358Y48611427D01*
X227567944Y48795844D01*
X227824177Y48795844D01*
X228634809Y47985210D01*
X228739191Y47985210D01*
X229549823Y48795844D01*
X229533603Y48919053D01*
X229300132Y49053848D01*
X229290160Y49058498D01*
X229064753Y49140540D01*
X229054126Y49143387D01*
X228817897Y49185041D01*
X228806936Y49186000D01*
X228567064Y49186000D01*
X228556103Y49185041D01*
X228319874Y49143387D01*
X228309247Y49140540D01*
X228083840Y49058498D01*
X228073868Y49053848D01*
X227840397Y48919053D01*
X227824177Y48795844D01*
X227567944Y48795844D01*
X227551863Y48855859D01*
X227539120Y48880339D01*
X227408010Y49036590D01*
X227391121Y49050761D01*
X227216880Y49151359D01*
X227196163Y49158900D01*
X227003462Y49192878D01*
X226992501Y49193837D01*
X225378742Y49193837D01*
X225362366Y49191681D01*
X225083142Y49116863D01*
X225058662Y49104120D01*
X224902410Y48973010D01*
X224888239Y48956121D01*
X224787641Y48781880D01*
X224780100Y48761163D01*
X224746122Y48568462D01*
X224745163Y48557501D01*
X223138000Y48557501D01*
X223138000Y49315936D01*
X229769500Y49315936D01*
X229769500Y49076064D01*
X229770459Y49065103D01*
X229812113Y48828874D01*
X229814960Y48818247D01*
X229897002Y48592840D01*
X229901652Y48582868D01*
X230021588Y48375132D01*
X230027899Y48366119D01*
X230182087Y48182366D01*
X230189866Y48174587D01*
X230373619Y48020399D01*
X230382632Y48014088D01*
X230590368Y47894152D01*
X230600340Y47889502D01*
X230825747Y47807460D01*
X230836374Y47804613D01*
X231056518Y47765795D01*
X230852874Y47729887D01*
X230842247Y47727040D01*
X230616840Y47644998D01*
X230606868Y47640348D01*
X230399132Y47520412D01*
X230390119Y47514101D01*
X230206366Y47359913D01*
X230198587Y47352134D01*
X230044399Y47168381D01*
X230038088Y47159368D01*
X229918152Y46951632D01*
X229913502Y46941660D01*
X229831460Y46716253D01*
X229828613Y46705626D01*
X229786959Y46469397D01*
X229786000Y46458436D01*
X229786000Y46218564D01*
X229786959Y46207603D01*
X229828613Y45971374D01*
X229831460Y45960747D01*
X229913502Y45735340D01*
X229918152Y45725368D01*
X230038088Y45517632D01*
X230044399Y45508619D01*
X230198587Y45324866D01*
X230206366Y45317087D01*
X230390119Y45162899D01*
X230399132Y45156588D01*
X230606868Y45036652D01*
X230616840Y45032002D01*
X230842247Y44949960D01*
X230852874Y44947113D01*
X231089103Y44905459D01*
X231100064Y44904500D01*
X231339936Y44904500D01*
X231350897Y44905459D01*
X231587126Y44947113D01*
X231597753Y44949960D01*
X231823160Y45032002D01*
X231833132Y45036652D01*
X232040868Y45156588D01*
X232049881Y45162899D01*
X232233634Y45317087D01*
X232241413Y45324866D01*
X232395601Y45508619D01*
X232401912Y45517632D01*
X232521848Y45725368D01*
X232526498Y45735340D01*
X232608540Y45960747D01*
X232611387Y45971374D01*
X232653041Y46207603D01*
X232654000Y46218564D01*
X232654000Y46458436D01*
X232653041Y46469397D01*
X232611387Y46705626D01*
X232608540Y46716253D01*
X232526498Y46941660D01*
X232521848Y46951632D01*
X232401912Y47159368D01*
X232395601Y47168381D01*
X232241413Y47352134D01*
X232233634Y47359913D01*
X232049881Y47514101D01*
X232040868Y47520412D01*
X231833132Y47640348D01*
X231823160Y47644998D01*
X231597753Y47727040D01*
X231587126Y47729887D01*
X231366982Y47768705D01*
X231570626Y47804613D01*
X231581253Y47807460D01*
X231806660Y47889502D01*
X231816632Y47894152D01*
X232024368Y48014088D01*
X232033381Y48020399D01*
X232217134Y48174587D01*
X232224913Y48182366D01*
X232379101Y48366119D01*
X232385412Y48375132D01*
X232505348Y48582868D01*
X232509998Y48592840D01*
X232592040Y48818247D01*
X232594887Y48828874D01*
X232636541Y49065103D01*
X232637500Y49076064D01*
X232637500Y49315936D01*
X232636541Y49326897D01*
X232594887Y49563126D01*
X232592040Y49573753D01*
X232509998Y49799160D01*
X232505348Y49809132D01*
X232385412Y50016868D01*
X232379101Y50025881D01*
X232224913Y50209634D01*
X232217134Y50217413D01*
X232033381Y50371601D01*
X232024368Y50377912D01*
X231816632Y50497848D01*
X231806660Y50502498D01*
X231581253Y50584540D01*
X231570626Y50587387D01*
X231334397Y50629041D01*
X231323436Y50630000D01*
X231083564Y50630000D01*
X231072603Y50629041D01*
X230836374Y50587387D01*
X230825747Y50584540D01*
X230600340Y50502498D01*
X230590368Y50497848D01*
X230382632Y50377912D01*
X230373619Y50371601D01*
X230189866Y50217413D01*
X230182087Y50209634D01*
X230027899Y50025881D01*
X230021588Y50016868D01*
X229901652Y49809132D01*
X229897002Y49799160D01*
X229814960Y49573753D01*
X229812113Y49563126D01*
X229770459Y49326897D01*
X229769500Y49315936D01*
X223138000Y49315936D01*
X223138000Y51082532D01*
X223143632Y51078588D01*
X223351368Y50958652D01*
X223361340Y50954002D01*
X223586747Y50871960D01*
X223597374Y50869113D01*
X223833603Y50827459D01*
X223844564Y50826500D01*
X224084436Y50826500D01*
X224095397Y50827459D01*
X224331626Y50869113D01*
X224342253Y50871960D01*
X224567660Y50954002D01*
X224577632Y50958652D01*
X224785368Y51078588D01*
X224794381Y51084899D01*
X224978134Y51239087D01*
X224985913Y51246866D01*
X225140101Y51430619D01*
X225146412Y51439632D01*
X225266348Y51647368D01*
X225270998Y51657340D01*
X225353040Y51882747D01*
X225355887Y51893374D01*
X225382179Y52042482D01*
X230166820Y52042482D01*
X230193113Y51893374D01*
X230195960Y51882747D01*
X230278002Y51657340D01*
X230282652Y51647368D01*
X230402588Y51439632D01*
X230408899Y51430619D01*
X230563087Y51246866D01*
X230570866Y51239087D01*
X230754619Y51084899D01*
X230763632Y51078588D01*
X230971368Y50958652D01*
X230981340Y50954002D01*
X231206747Y50871960D01*
X231217374Y50869113D01*
X231366482Y50842820D01*
X231456500Y50918354D01*
X231456500Y52058691D01*
X231382691Y52132500D01*
X230242354Y52132500D01*
X230166820Y52042482D01*
X225382179Y52042482D01*
X225397541Y52129603D01*
X225398500Y52140564D01*
X225398500Y52380436D01*
X225397541Y52391397D01*
X225355887Y52627626D01*
X225353040Y52638253D01*
X225270998Y52863660D01*
X225266348Y52873632D01*
X225146412Y53081368D01*
X225140101Y53090381D01*
X224985913Y53274134D01*
X224978134Y53281913D01*
X224794381Y53436101D01*
X224785368Y53442412D01*
X224741048Y53468000D01*
X230807952Y53468000D01*
X230763632Y53442412D01*
G36*
X249175000Y50811699D02*
G01*
X249268412Y50736056D01*
X249503045Y50785930D01*
X249512950Y50788901D01*
X249748128Y50881067D01*
X249757415Y50885616D01*
X249974382Y51014954D01*
X249982801Y51020959D01*
X250064000Y51089578D01*
X250064000Y46297837D01*
X249950510Y46433090D01*
X249933621Y46447261D01*
X249759380Y46547859D01*
X249738663Y46555400D01*
X249556000Y46587608D01*
X249556000Y46880851D01*
X249559797Y46897632D01*
X249561237Y46915528D01*
X249556000Y46999937D01*
X249556000Y47028220D01*
X249555363Y47037162D01*
X249552412Y47057768D01*
X249547700Y47133718D01*
X249544060Y47151297D01*
X249535702Y47174449D01*
X249532212Y47198820D01*
X249527173Y47216051D01*
X249495670Y47285338D01*
X249469764Y47357099D01*
X249461104Y47373267D01*
X249447065Y47392239D01*
X249436692Y47415054D01*
X249427019Y47430180D01*
X249370177Y47496147D01*
X249357413Y47513396D01*
X249351309Y47520480D01*
X249336140Y47535648D01*
X249284318Y47595789D01*
X249270790Y47607591D01*
X249252052Y47619736D01*
X246154824Y50716963D01*
X247480458Y50716963D01*
X247496834Y50719119D01*
X247776059Y50793937D01*
X247800539Y50806680D01*
X247956790Y50937790D01*
X247970961Y50954679D01*
X248041025Y51076034D01*
X248233148Y50941508D01*
X248242077Y50936290D01*
X248469873Y50827149D01*
X248479535Y50823460D01*
X248722098Y50752988D01*
X248732232Y50750927D01*
X248834309Y50738754D01*
X248919000Y50813946D01*
X248919000Y52452000D01*
X249175000Y52452000D01*
X249175000Y50811699D01*
G37*
X249175000Y50811699D02*
X249268412Y50736056D01*
X249503045Y50785930D01*
X249512950Y50788901D01*
X249748128Y50881067D01*
X249757415Y50885616D01*
X249974382Y51014954D01*
X249982801Y51020959D01*
X250064000Y51089578D01*
X250064000Y46297837D01*
X249950510Y46433090D01*
X249933621Y46447261D01*
X249759380Y46547859D01*
X249738663Y46555400D01*
X249556000Y46587608D01*
X249556000Y46880851D01*
X249559797Y46897632D01*
X249561237Y46915528D01*
X249556000Y46999937D01*
X249556000Y47028220D01*
X249555363Y47037162D01*
X249552412Y47057768D01*
X249547700Y47133718D01*
X249544060Y47151297D01*
X249535702Y47174449D01*
X249532212Y47198820D01*
X249527173Y47216051D01*
X249495670Y47285338D01*
X249469764Y47357099D01*
X249461104Y47373267D01*
X249447065Y47392239D01*
X249436692Y47415054D01*
X249427019Y47430180D01*
X249370177Y47496147D01*
X249357413Y47513396D01*
X249351309Y47520480D01*
X249336140Y47535648D01*
X249284318Y47595789D01*
X249270790Y47607591D01*
X249252052Y47619736D01*
X246154824Y50716963D01*
X247480458Y50716963D01*
X247496834Y50719119D01*
X247776059Y50793937D01*
X247800539Y50806680D01*
X247956790Y50937790D01*
X247970961Y50954679D01*
X248041025Y51076034D01*
X248233148Y50941508D01*
X248242077Y50936290D01*
X248469873Y50827149D01*
X248479535Y50823460D01*
X248722098Y50752988D01*
X248732232Y50750927D01*
X248834309Y50738754D01*
X248919000Y50813946D01*
X248919000Y52452000D01*
X249175000Y52452000D01*
X249175000Y50811699D01*
M02*
