G04 #@! TF.GenerationSoftware,KiCad,Pcbnew,6.0.0+dfsg1-2*
G04 #@! TF.CreationDate,2022-01-11T20:51:11+02:00*
G04 #@! TF.ProjectId,cabeza-de-carne,63616265-7a61-42d6-9465-2d6361726e65,rev?*
G04 #@! TF.SameCoordinates,Original*
G04 #@! TF.FileFunction,Soldermask,Bot*
G04 #@! TF.FilePolarity,Negative*
%FSLAX46Y46*%
G04 Gerber Fmt 4.6, Leading zero omitted, Abs format (unit mm)*
G04 Created by KiCad (PCBNEW 6.0.0+dfsg1-2) date 2022-01-11 20:51:11*
%MOMM*%
%LPD*%
G01*
G04 APERTURE LIST*
%ADD10O,1.930400X1.930400*%
%ADD11R,1.930400X1.930400*%
%ADD12R,2.000000X2.000000*%
%ADD13O,2.000000X2.000000*%
%ADD14C,1.800000*%
%ADD15R,1.800000X1.800000*%
%ADD16O,2.540000X2.540000*%
%ADD17R,2.540000X2.540000*%
%ADD18O,1.600000X1.600000*%
%ADD19C,1.600000*%
%ADD20R,1.600000X1.600000*%
G04 APERTURE END LIST*
D10*
X232613200Y35966400D03*
X232613200Y38506400D03*
X232613200Y41046400D03*
D11*
X232613200Y43586400D03*
D12*
X248716800Y40449500D03*
D13*
X248716800Y48069500D03*
D14*
X248412000Y26771600D03*
D15*
X245872000Y26771600D03*
D16*
X232473501Y30289499D03*
X237553501Y30289499D03*
D17*
X242633501Y30289499D03*
D18*
X227279200Y33223200D03*
D19*
X234899200Y33223200D03*
D18*
X248767600Y37744400D03*
D19*
X248767600Y30124400D03*
D18*
X234442000Y52451000D03*
D19*
X226822000Y52451000D03*
D18*
X243738400Y43383200D03*
D19*
X236118400Y43383200D03*
D18*
X236537500Y52451000D03*
D19*
X244157500Y52451000D03*
D18*
X236118400Y40335200D03*
D19*
X243738400Y40335200D03*
D18*
X245770400Y30124400D03*
D19*
X245770400Y37744400D03*
D10*
X228041200Y38506400D03*
X228041200Y41046400D03*
D11*
X228041200Y43586400D03*
D10*
X249047000Y52324000D03*
D11*
X246507000Y52324000D03*
D10*
X241350800Y26111200D03*
X238810800Y26111200D03*
X236270800Y26111200D03*
D11*
X233730800Y26111200D03*
D19*
X245705000Y47434500D03*
D20*
X243205000Y47434500D03*
D19*
X232471600Y47955200D03*
D20*
X229971600Y47955200D03*
D19*
X237201700Y33794700D03*
X242201700Y33794700D03*
X240204000Y49377600D03*
X235204000Y49377600D03*
X240204000Y46329600D03*
X235204000Y46329600D03*
X242185200Y36830000D03*
X237185200Y36830000D03*
M02*
